M48
;DRILL file {KiCad no-vcs-found-product} date Fri 24 Jul 2015 19:01:27 CEST
;FORMAT={-:-/ absolute / inch / decimal}
FMAT,2
INCH,TZ
T1C0.013
T2C0.040
%
G90
G05
M72
T1
X5.075Y-3.79
X5.075Y-3.865
X5.555Y-3.23
X5.805Y-3.64
X5.915Y-3.365
X5.915Y-3.405
X5.92Y-3.3
X6.005Y-3.525
X6.115Y-3.555
X6.15Y-3.68
X6.22Y-3.335
X6.29Y-3.365
X6.32Y-3.405
X6.49Y-3.185
X6.82Y-3.23
X6.92Y-3.49
T2
X4.7Y-3.3
X4.7Y-3.4
X4.7Y-3.5
X4.7Y-3.6
X4.7Y-3.7
X4.7Y-3.8
X5.64Y-3.765
X5.74Y-3.765
X5.84Y-3.765
X5.94Y-3.765
X6.04Y-3.765
X6.535Y-3.71
X6.535Y-3.81
X6.635Y-3.71
X6.635Y-3.81
X6.735Y-3.71
X6.735Y-3.81
X7.95Y-3.2
X7.95Y-3.3
X7.95Y-3.4
X7.95Y-3.5
X7.95Y-3.6
X7.95Y-3.7
X7.95Y-3.8
T0
M30
