G04 #@! TF.FileFunction,Legend,Bot*
%FSLAX46Y46*%
G04 Gerber Fmt 4.6, Leading zero omitted, Abs format (unit mm)*
G04 Created by KiCad (PCBNEW no-vcs-found-product) date Fri 24 Jul 2015 19:01:22 CEST*
%MOMM*%
G01*
G04 APERTURE LIST*
%ADD10C,0.100000*%
%ADD11C,0.127000*%
%ADD12C,0.150000*%
%ADD13R,2.032000X1.727200*%
%ADD14O,2.032000X1.727200*%
%ADD15R,1.727200X1.727200*%
%ADD16O,1.727200X1.727200*%
%ADD17R,1.727200X2.032000*%
%ADD18O,1.727200X2.032000*%
G04 APERTURE END LIST*
D10*
D11*
X121321286Y-84291714D02*
X121756714Y-84291714D01*
X121539000Y-84291714D02*
X121539000Y-83529714D01*
X121611571Y-83638571D01*
X121684143Y-83711143D01*
X121756714Y-83747429D01*
X199426286Y-81624714D02*
X199861714Y-81624714D01*
X199644000Y-81624714D02*
X199644000Y-80862714D01*
X199716571Y-80971571D01*
X199789143Y-81044143D01*
X199861714Y-81080429D01*
D12*
X118110000Y-85090000D02*
X118110000Y-97790000D01*
X118110000Y-97790000D02*
X120650000Y-97790000D01*
X120650000Y-97790000D02*
X120650000Y-85090000D01*
X117830000Y-82270000D02*
X117830000Y-83820000D01*
X118110000Y-85090000D02*
X120650000Y-85090000D01*
X120930000Y-83820000D02*
X120930000Y-82270000D01*
X120930000Y-82270000D02*
X117830000Y-82270000D01*
X200660000Y-82550000D02*
X200660000Y-97790000D01*
X200660000Y-97790000D02*
X203200000Y-97790000D01*
X203200000Y-97790000D02*
X203200000Y-82550000D01*
X200380000Y-79730000D02*
X200380000Y-81280000D01*
X200660000Y-82550000D02*
X203200000Y-82550000D01*
X203480000Y-81280000D02*
X203480000Y-79730000D01*
X203480000Y-79730000D02*
X200380000Y-79730000D01*
D11*
X122264714Y-95231858D02*
X121502714Y-95231858D01*
X121502714Y-95522143D01*
X121539000Y-95594715D01*
X121575286Y-95631000D01*
X121647857Y-95667286D01*
X121756714Y-95667286D01*
X121829286Y-95631000D01*
X121865571Y-95594715D01*
X121901857Y-95522143D01*
X121901857Y-95231858D01*
X121575286Y-95957572D02*
X121539000Y-95993858D01*
X121502714Y-96066429D01*
X121502714Y-96247858D01*
X121539000Y-96320429D01*
X121575286Y-96356715D01*
X121647857Y-96393000D01*
X121720429Y-96393000D01*
X121829286Y-96356715D01*
X122264714Y-95921286D01*
X122264714Y-96393000D01*
X121502714Y-96864714D02*
X121502714Y-96937286D01*
X121539000Y-97009857D01*
X121575286Y-97046143D01*
X121647857Y-97082429D01*
X121793000Y-97118714D01*
X121974429Y-97118714D01*
X122119571Y-97082429D01*
X122192143Y-97046143D01*
X122228429Y-97009857D01*
X122264714Y-96937286D01*
X122264714Y-96864714D01*
X122228429Y-96792143D01*
X122192143Y-96755857D01*
X122119571Y-96719572D01*
X121974429Y-96683286D01*
X121793000Y-96683286D01*
X121647857Y-96719572D01*
X121575286Y-96755857D01*
X121539000Y-96792143D01*
X121502714Y-96864714D01*
X121502714Y-97372714D02*
X121502714Y-97844428D01*
X121793000Y-97590428D01*
X121793000Y-97699286D01*
X121829286Y-97771857D01*
X121865571Y-97808143D01*
X121938143Y-97844428D01*
X122119571Y-97844428D01*
X122192143Y-97808143D01*
X122228429Y-97771857D01*
X122264714Y-97699286D01*
X122264714Y-97481571D01*
X122228429Y-97409000D01*
X122192143Y-97372714D01*
X199734714Y-95231858D02*
X198972714Y-95231858D01*
X198972714Y-95522143D01*
X199009000Y-95594715D01*
X199045286Y-95631000D01*
X199117857Y-95667286D01*
X199226714Y-95667286D01*
X199299286Y-95631000D01*
X199335571Y-95594715D01*
X199371857Y-95522143D01*
X199371857Y-95231858D01*
X199045286Y-95957572D02*
X199009000Y-95993858D01*
X198972714Y-96066429D01*
X198972714Y-96247858D01*
X199009000Y-96320429D01*
X199045286Y-96356715D01*
X199117857Y-96393000D01*
X199190429Y-96393000D01*
X199299286Y-96356715D01*
X199734714Y-95921286D01*
X199734714Y-96393000D01*
X198972714Y-96864714D02*
X198972714Y-96937286D01*
X199009000Y-97009857D01*
X199045286Y-97046143D01*
X199117857Y-97082429D01*
X199263000Y-97118714D01*
X199444429Y-97118714D01*
X199589571Y-97082429D01*
X199662143Y-97046143D01*
X199698429Y-97009857D01*
X199734714Y-96937286D01*
X199734714Y-96864714D01*
X199698429Y-96792143D01*
X199662143Y-96755857D01*
X199589571Y-96719572D01*
X199444429Y-96683286D01*
X199263000Y-96683286D01*
X199117857Y-96719572D01*
X199045286Y-96755857D01*
X199009000Y-96792143D01*
X198972714Y-96864714D01*
X199226714Y-97771857D02*
X199734714Y-97771857D01*
X198936429Y-97590428D02*
X199480714Y-97409000D01*
X199480714Y-97880714D01*
%LPC*%
D13*
X119380000Y-83820000D03*
D14*
X119380000Y-86360000D03*
X119380000Y-88900000D03*
X119380000Y-91440000D03*
X119380000Y-93980000D03*
X119380000Y-96520000D03*
D13*
X201930000Y-81280000D03*
D14*
X201930000Y-83820000D03*
X201930000Y-86360000D03*
X201930000Y-88900000D03*
X201930000Y-91440000D03*
X201930000Y-93980000D03*
X201930000Y-96520000D03*
D15*
X171069000Y-94234000D03*
D16*
X171069000Y-96774000D03*
X168529000Y-94234000D03*
X168529000Y-96774000D03*
X165989000Y-94234000D03*
X165989000Y-96774000D03*
D17*
X143256000Y-95631000D03*
D18*
X145796000Y-95631000D03*
X148336000Y-95631000D03*
X150876000Y-95631000D03*
X153416000Y-95631000D03*
M02*
