M48
;DRILL file {KiCad 4.0.0-2.201512072331+6194~38~ubuntu14.04.1-stable} date Sun 31 Jul 2016 10:30:46 AM CEST
;FORMAT={2:4/ absolute / inch / suppress leading zeros}
FMAT,2
INCH,TZ
T1C0.013
T2C0.030
T3C0.031
T4C0.040
T5C0.024
%
G90
G05
M72
T1
X50750Y-37900
X50750Y-38650
X55150Y-20775
X55550Y-32300
X56300Y-23450
X56425Y-20450
X57600Y-22775
X58050Y-36400
X58575Y-20125
X58800Y-23750
X59150Y-33650
X59150Y-34050
X59200Y-33000
X59550Y-24025
X59575Y-19775
X59700Y-35250
X59950Y-34650
X60375Y-20450
X61300Y-34650
X61350Y-31800
X61450Y-19925
X61500Y-35250
X61700Y-36400
X61850Y-33000
X62050Y-34900
X62200Y-33350
X62450Y-33000
X62900Y-33650
X63200Y-34050
X63350Y-21000
X63350Y-23000
X63950Y-37700
X65400Y-19625
X65475Y-23425
X65675Y-20725
X67825Y-23750
X68200Y-32300
X68400Y-24025
X68425Y-19925
X69200Y-34900
X69450Y-19625
X70375Y-20725
X71375Y-20300
X71400Y-23400
X73350Y-19925
X73450Y-23750
X74500Y-24025
T2
X50000Y-18260
X50000Y-25740
X51000Y-18260
X51000Y-25740
X52000Y-18260
X52000Y-25740
X53000Y-18260
X53000Y-25740
X54000Y-18260
X54000Y-25740
X56000Y-18260
X56000Y-25740
X57000Y-18260
X57000Y-25740
X58000Y-18260
X58000Y-25740
X59000Y-18260
X59000Y-25740
X60000Y-18260
X60000Y-25740
X65000Y-18260
X65000Y-25740
X66000Y-18260
X66000Y-25740
X67000Y-18260
X67000Y-25740
X68000Y-18260
X68000Y-25740
X69000Y-18260
X69000Y-25740
X71000Y-18260
X71000Y-25740
X72000Y-18260
X72000Y-25740
X73000Y-18260
X73000Y-25740
X74000Y-18260
X74000Y-25740
X75000Y-18260
X75000Y-25740
T3
X50000Y-19000
X50000Y-25000
X51000Y-19000
X51000Y-25000
X52000Y-19000
X52000Y-25000
X53000Y-19000
X53000Y-25000
X54000Y-19000
X54000Y-25000
X56000Y-19000
X56000Y-25000
X57000Y-19000
X57000Y-25000
X58000Y-19000
X58000Y-25000
X59000Y-19000
X59000Y-25000
X60000Y-19000
X60000Y-25000
X65000Y-19000
X65000Y-25000
X66000Y-19000
X66000Y-25000
X67000Y-19000
X67000Y-25000
X68000Y-19000
X68000Y-25000
X69000Y-19000
X69000Y-25000
X71000Y-19000
X71000Y-25000
X72000Y-19000
X72000Y-25000
X73000Y-19000
X73000Y-25000
X74000Y-19000
X74000Y-25000
X75000Y-19000
X75000Y-25000
T4
X47000Y-18000
X47000Y-19000
X47000Y-20000
X47000Y-21000
X47000Y-22000
X47000Y-23000
X47000Y-32000
X47000Y-33000
X47000Y-34000
X47000Y-35000
X47000Y-36000
X47000Y-37000
X56450Y-37800
X57450Y-37800
X58450Y-37800
X59450Y-37800
X60450Y-37800
X61450Y-37800
X62450Y-37800
X65800Y-36850
X65800Y-37850
X66800Y-36850
X66800Y-37850
X67800Y-36850
X67800Y-37850
X79500Y-18000
X79500Y-19000
X79500Y-20000
X79500Y-21000
X79500Y-22000
X79500Y-23000
X79500Y-24000
X79500Y-32000
X79500Y-33000
X79500Y-34000
X79500Y-35000
X79500Y-36000
X79500Y-37000
X79500Y-38000
T5
X56300Y-30250
X56300Y-30850
X56700Y-30250
X56700Y-30850
X57100Y-30250
X57100Y-30850
X69800Y-30250
X69800Y-30850
X70200Y-30250
X70200Y-30850
X70600Y-30250
X70600Y-30850
T0
M30
