G04 #@! TF.FileFunction,Legend,Bot*
%FSLAX46Y46*%
G04 Gerber Fmt 4.6, Leading zero omitted, Abs format (unit mm)*
G04 Created by KiCad (PCBNEW 4.0.1-2.201512121406+6195~38~ubuntu14.04.1-stable) date Sun 06 Mar 2016 05:51:02 PM CET*
%MOMM*%
G01*
G04 APERTURE LIST*
%ADD10C,0.100000*%
%ADD11C,0.127000*%
%ADD12C,0.150000*%
%ADD13R,1.198880X1.198880*%
%ADD14R,2.032000X1.727200*%
%ADD15O,2.032000X1.727200*%
%ADD16R,1.300000X1.500000*%
%ADD17R,1.727200X1.727200*%
%ADD18O,1.727200X1.727200*%
%ADD19R,1.727200X2.032000*%
%ADD20O,1.727200X2.032000*%
%ADD21C,0.609600*%
%ADD22R,1.500000X1.500000*%
%ADD23C,1.500000*%
%ADD24C,1.524000*%
G04 APERTURE END LIST*
D10*
D11*
X121321286Y-84291714D02*
X121756714Y-84291714D01*
X121539000Y-84291714D02*
X121539000Y-83529714D01*
X121611571Y-83638571D01*
X121684143Y-83711143D01*
X121756714Y-83747429D01*
X199426286Y-81624714D02*
X199861714Y-81624714D01*
X199644000Y-81624714D02*
X199644000Y-80862714D01*
X199716571Y-80971571D01*
X199789143Y-81044143D01*
X199861714Y-81080429D01*
X135273143Y-72827243D02*
X135309429Y-72863529D01*
X135418286Y-72899814D01*
X135490857Y-72899814D01*
X135599714Y-72863529D01*
X135672286Y-72790957D01*
X135708571Y-72718386D01*
X135744857Y-72573243D01*
X135744857Y-72464386D01*
X135708571Y-72319243D01*
X135672286Y-72246671D01*
X135599714Y-72174100D01*
X135490857Y-72137814D01*
X135418286Y-72137814D01*
X135309429Y-72174100D01*
X135273143Y-72210386D01*
X134837714Y-72899814D02*
X134910286Y-72863529D01*
X134946571Y-72790957D01*
X134946571Y-72137814D01*
X134438571Y-72899814D02*
X134511143Y-72863529D01*
X134547428Y-72827243D01*
X134583714Y-72754671D01*
X134583714Y-72536957D01*
X134547428Y-72464386D01*
X134511143Y-72428100D01*
X134438571Y-72391814D01*
X134329714Y-72391814D01*
X134257143Y-72428100D01*
X134220857Y-72464386D01*
X134184571Y-72536957D01*
X134184571Y-72754671D01*
X134220857Y-72827243D01*
X134257143Y-72863529D01*
X134329714Y-72899814D01*
X134438571Y-72899814D01*
X133531428Y-72863529D02*
X133603999Y-72899814D01*
X133749142Y-72899814D01*
X133821714Y-72863529D01*
X133857999Y-72827243D01*
X133894285Y-72754671D01*
X133894285Y-72536957D01*
X133857999Y-72464386D01*
X133821714Y-72428100D01*
X133749142Y-72391814D01*
X133603999Y-72391814D01*
X133531428Y-72428100D01*
X133204856Y-72899814D02*
X133204856Y-72137814D01*
X133132285Y-72609529D02*
X132914571Y-72899814D01*
X132914571Y-72391814D02*
X133204856Y-72682100D01*
X131680857Y-72899814D02*
X131680857Y-72137814D01*
X131680857Y-72863529D02*
X131753428Y-72899814D01*
X131898571Y-72899814D01*
X131971143Y-72863529D01*
X132007428Y-72827243D01*
X132043714Y-72754671D01*
X132043714Y-72536957D01*
X132007428Y-72464386D01*
X131971143Y-72428100D01*
X131898571Y-72391814D01*
X131753428Y-72391814D01*
X131680857Y-72428100D01*
X131317999Y-72899814D02*
X131317999Y-72391814D01*
X131317999Y-72137814D02*
X131354285Y-72174100D01*
X131317999Y-72210386D01*
X131281714Y-72174100D01*
X131317999Y-72137814D01*
X131317999Y-72210386D01*
X130991428Y-72863529D02*
X130918857Y-72899814D01*
X130773714Y-72899814D01*
X130701142Y-72863529D01*
X130664857Y-72790957D01*
X130664857Y-72754671D01*
X130701142Y-72682100D01*
X130773714Y-72645814D01*
X130882571Y-72645814D01*
X130955142Y-72609529D01*
X130991428Y-72536957D01*
X130991428Y-72500671D01*
X130955142Y-72428100D01*
X130882571Y-72391814D01*
X130773714Y-72391814D01*
X130701142Y-72428100D01*
X130338285Y-72391814D02*
X130338285Y-73153814D01*
X130338285Y-72428100D02*
X130265714Y-72391814D01*
X130120571Y-72391814D01*
X130048000Y-72428100D01*
X130011714Y-72464386D01*
X129975428Y-72536957D01*
X129975428Y-72754671D01*
X130011714Y-72827243D01*
X130048000Y-72863529D01*
X130120571Y-72899814D01*
X130265714Y-72899814D01*
X130338285Y-72863529D01*
X129539999Y-72899814D02*
X129612571Y-72863529D01*
X129648856Y-72790957D01*
X129648856Y-72137814D01*
X128923142Y-72899814D02*
X128923142Y-72500671D01*
X128959428Y-72428100D01*
X129031999Y-72391814D01*
X129177142Y-72391814D01*
X129249713Y-72428100D01*
X128923142Y-72863529D02*
X128995713Y-72899814D01*
X129177142Y-72899814D01*
X129249713Y-72863529D01*
X129285999Y-72790957D01*
X129285999Y-72718386D01*
X129249713Y-72645814D01*
X129177142Y-72609529D01*
X128995713Y-72609529D01*
X128923142Y-72573243D01*
X128632856Y-72391814D02*
X128451427Y-72899814D01*
X128269999Y-72391814D02*
X128451427Y-72899814D01*
X128523999Y-73081243D01*
X128560284Y-73117529D01*
X128632856Y-73153814D01*
X127399142Y-72899814D02*
X127399142Y-72137814D01*
X127145142Y-72682100D01*
X126891142Y-72137814D01*
X126891142Y-72899814D01*
X126419428Y-72899814D02*
X126492000Y-72863529D01*
X126528285Y-72827243D01*
X126564571Y-72754671D01*
X126564571Y-72536957D01*
X126528285Y-72464386D01*
X126492000Y-72428100D01*
X126419428Y-72391814D01*
X126310571Y-72391814D01*
X126238000Y-72428100D01*
X126201714Y-72464386D01*
X126165428Y-72536957D01*
X126165428Y-72754671D01*
X126201714Y-72827243D01*
X126238000Y-72863529D01*
X126310571Y-72899814D01*
X126419428Y-72899814D01*
X125512285Y-72899814D02*
X125512285Y-72137814D01*
X125512285Y-72863529D02*
X125584856Y-72899814D01*
X125729999Y-72899814D01*
X125802571Y-72863529D01*
X125838856Y-72827243D01*
X125875142Y-72754671D01*
X125875142Y-72536957D01*
X125838856Y-72464386D01*
X125802571Y-72428100D01*
X125729999Y-72391814D01*
X125584856Y-72391814D01*
X125512285Y-72428100D01*
X124822856Y-72391814D02*
X124822856Y-72899814D01*
X125149427Y-72391814D02*
X125149427Y-72790957D01*
X125113142Y-72863529D01*
X125040570Y-72899814D01*
X124931713Y-72899814D01*
X124859142Y-72863529D01*
X124822856Y-72827243D01*
X124351141Y-72899814D02*
X124423713Y-72863529D01*
X124459998Y-72790957D01*
X124459998Y-72137814D01*
X123770570Y-72863529D02*
X123843141Y-72899814D01*
X123988284Y-72899814D01*
X124060855Y-72863529D01*
X124097141Y-72790957D01*
X124097141Y-72500671D01*
X124060855Y-72428100D01*
X123988284Y-72391814D01*
X123843141Y-72391814D01*
X123770570Y-72428100D01*
X123734284Y-72500671D01*
X123734284Y-72573243D01*
X124097141Y-72645814D01*
X122863427Y-72210386D02*
X122827141Y-72174100D01*
X122754570Y-72137814D01*
X122573141Y-72137814D01*
X122500570Y-72174100D01*
X122464284Y-72210386D01*
X122427999Y-72282957D01*
X122427999Y-72355529D01*
X122464284Y-72464386D01*
X122899713Y-72899814D01*
X122427999Y-72899814D01*
X121738570Y-72899814D02*
X122101427Y-72899814D01*
X122101427Y-72137814D01*
X121484570Y-72827243D02*
X121448285Y-72863529D01*
X121484570Y-72899814D01*
X121520856Y-72863529D01*
X121484570Y-72827243D01*
X121484570Y-72899814D01*
X120795142Y-72391814D02*
X120795142Y-72899814D01*
X120976571Y-72101529D02*
X121157999Y-72645814D01*
X120686285Y-72645814D01*
X135708571Y-74093614D02*
X135708571Y-73331614D01*
X135527143Y-73331614D01*
X135418286Y-73367900D01*
X135345714Y-73440471D01*
X135309429Y-73513043D01*
X135273143Y-73658186D01*
X135273143Y-73767043D01*
X135309429Y-73912186D01*
X135345714Y-73984757D01*
X135418286Y-74057329D01*
X135527143Y-74093614D01*
X135708571Y-74093614D01*
X134946571Y-74093614D02*
X134946571Y-73585614D01*
X134946571Y-73331614D02*
X134982857Y-73367900D01*
X134946571Y-73404186D01*
X134910286Y-73367900D01*
X134946571Y-73331614D01*
X134946571Y-73404186D01*
X134620000Y-74057329D02*
X134547429Y-74093614D01*
X134402286Y-74093614D01*
X134329714Y-74057329D01*
X134293429Y-73984757D01*
X134293429Y-73948471D01*
X134329714Y-73875900D01*
X134402286Y-73839614D01*
X134511143Y-73839614D01*
X134583714Y-73803329D01*
X134620000Y-73730757D01*
X134620000Y-73694471D01*
X134583714Y-73621900D01*
X134511143Y-73585614D01*
X134402286Y-73585614D01*
X134329714Y-73621900D01*
X133966857Y-73585614D02*
X133966857Y-74347614D01*
X133966857Y-73621900D02*
X133894286Y-73585614D01*
X133749143Y-73585614D01*
X133676572Y-73621900D01*
X133640286Y-73658186D01*
X133604000Y-73730757D01*
X133604000Y-73948471D01*
X133640286Y-74021043D01*
X133676572Y-74057329D01*
X133749143Y-74093614D01*
X133894286Y-74093614D01*
X133966857Y-74057329D01*
X133168571Y-74093614D02*
X133241143Y-74057329D01*
X133277428Y-73984757D01*
X133277428Y-73331614D01*
X132551714Y-74093614D02*
X132551714Y-73694471D01*
X132588000Y-73621900D01*
X132660571Y-73585614D01*
X132805714Y-73585614D01*
X132878285Y-73621900D01*
X132551714Y-74057329D02*
X132624285Y-74093614D01*
X132805714Y-74093614D01*
X132878285Y-74057329D01*
X132914571Y-73984757D01*
X132914571Y-73912186D01*
X132878285Y-73839614D01*
X132805714Y-73803329D01*
X132624285Y-73803329D01*
X132551714Y-73767043D01*
X132261428Y-73585614D02*
X132079999Y-74093614D01*
X131898571Y-73585614D02*
X132079999Y-74093614D01*
X132152571Y-74275043D01*
X132188856Y-74311329D01*
X132261428Y-74347614D01*
X131027714Y-74093614D02*
X131027714Y-73331614D01*
X131027714Y-73621900D02*
X130955143Y-73585614D01*
X130810000Y-73585614D01*
X130737429Y-73621900D01*
X130701143Y-73658186D01*
X130664857Y-73730757D01*
X130664857Y-73948471D01*
X130701143Y-74021043D01*
X130737429Y-74057329D01*
X130810000Y-74093614D01*
X130955143Y-74093614D01*
X131027714Y-74057329D01*
X130229428Y-74093614D02*
X130302000Y-74057329D01*
X130338285Y-74021043D01*
X130374571Y-73948471D01*
X130374571Y-73730757D01*
X130338285Y-73658186D01*
X130302000Y-73621900D01*
X130229428Y-73585614D01*
X130120571Y-73585614D01*
X130048000Y-73621900D01*
X130011714Y-73658186D01*
X129975428Y-73730757D01*
X129975428Y-73948471D01*
X130011714Y-74021043D01*
X130048000Y-74057329D01*
X130120571Y-74093614D01*
X130229428Y-74093614D01*
X129322285Y-74093614D02*
X129322285Y-73694471D01*
X129358571Y-73621900D01*
X129431142Y-73585614D01*
X129576285Y-73585614D01*
X129648856Y-73621900D01*
X129322285Y-74057329D02*
X129394856Y-74093614D01*
X129576285Y-74093614D01*
X129648856Y-74057329D01*
X129685142Y-73984757D01*
X129685142Y-73912186D01*
X129648856Y-73839614D01*
X129576285Y-73803329D01*
X129394856Y-73803329D01*
X129322285Y-73767043D01*
X128959427Y-74093614D02*
X128959427Y-73585614D01*
X128959427Y-73730757D02*
X128923142Y-73658186D01*
X128886856Y-73621900D01*
X128814285Y-73585614D01*
X128741713Y-73585614D01*
X128161142Y-74093614D02*
X128161142Y-73331614D01*
X128161142Y-74057329D02*
X128233713Y-74093614D01*
X128378856Y-74093614D01*
X128451428Y-74057329D01*
X128487713Y-74021043D01*
X128523999Y-73948471D01*
X128523999Y-73730757D01*
X128487713Y-73658186D01*
X128451428Y-73621900D01*
X128378856Y-73585614D01*
X128233713Y-73585614D01*
X128161142Y-73621900D01*
D12*
X158252160Y-56469280D02*
X158252160Y-56144160D01*
X158252160Y-56144160D02*
X157751780Y-56144160D01*
X157751780Y-56469280D02*
X157751780Y-56144160D01*
X158252160Y-56469280D02*
X157751780Y-56469280D01*
X158252160Y-57091580D02*
X158252160Y-56941720D01*
X158252160Y-56941720D02*
X158000700Y-56941720D01*
X158000700Y-57091580D02*
X158000700Y-56941720D01*
X158252160Y-57091580D02*
X158000700Y-57091580D01*
X158252160Y-56596280D02*
X158252160Y-56446420D01*
X158252160Y-56446420D02*
X158000700Y-56446420D01*
X158000700Y-56596280D02*
X158000700Y-56446420D01*
X158252160Y-56596280D02*
X158000700Y-56596280D01*
X158252160Y-56967120D02*
X158252160Y-56570880D01*
X158252160Y-56570880D02*
X158076900Y-56570880D01*
X158076900Y-56967120D02*
X158076900Y-56570880D01*
X158252160Y-56967120D02*
X158076900Y-56967120D01*
X159748220Y-56469280D02*
X159748220Y-56144160D01*
X159748220Y-56144160D02*
X159247840Y-56144160D01*
X159247840Y-56469280D02*
X159247840Y-56144160D01*
X159748220Y-56469280D02*
X159247840Y-56469280D01*
X159748220Y-57393840D02*
X159748220Y-57068720D01*
X159748220Y-57068720D02*
X159247840Y-57068720D01*
X159247840Y-57393840D02*
X159247840Y-57068720D01*
X159748220Y-57393840D02*
X159247840Y-57393840D01*
X159499300Y-56596280D02*
X159499300Y-56446420D01*
X159499300Y-56446420D02*
X159247840Y-56446420D01*
X159247840Y-56596280D02*
X159247840Y-56446420D01*
X159499300Y-56596280D02*
X159247840Y-56596280D01*
X159499300Y-57091580D02*
X159499300Y-56941720D01*
X159499300Y-56941720D02*
X159247840Y-56941720D01*
X159247840Y-57091580D02*
X159247840Y-56941720D01*
X159499300Y-57091580D02*
X159247840Y-57091580D01*
X159423100Y-56967120D02*
X159423100Y-56570880D01*
X159423100Y-56570880D02*
X159247840Y-56570880D01*
X159247840Y-56967120D02*
X159247840Y-56570880D01*
X159423100Y-56967120D02*
X159247840Y-56967120D01*
X158750000Y-56868060D02*
X158750000Y-56669940D01*
X158750000Y-56669940D02*
X158551880Y-56669940D01*
X158551880Y-56868060D02*
X158551880Y-56669940D01*
X158750000Y-56868060D02*
X158551880Y-56868060D01*
X158252160Y-57368440D02*
X158252160Y-57068720D01*
X158252160Y-57068720D02*
X157952440Y-57068720D01*
X157952440Y-57368440D02*
X157952440Y-57068720D01*
X158252160Y-57368440D02*
X157952440Y-57368440D01*
X157825440Y-57393840D02*
X157825440Y-57167780D01*
X157825440Y-57167780D02*
X157751780Y-57167780D01*
X157751780Y-57393840D02*
X157751780Y-57167780D01*
X157825440Y-57393840D02*
X157751780Y-57393840D01*
X158226760Y-56194960D02*
X159273240Y-56194960D01*
X159247840Y-57343040D02*
X157825440Y-57343040D01*
X157973482Y-57218580D02*
G75*
G03X157973482Y-57218580I-71842J0D01*
G01*
X157751780Y-57116980D02*
G75*
G03X157751780Y-56421020I0J347980D01*
G01*
X159748220Y-56421020D02*
G75*
G03X159748220Y-57116980I0J-347980D01*
G01*
X158252160Y-51770280D02*
X158252160Y-51445160D01*
X158252160Y-51445160D02*
X157751780Y-51445160D01*
X157751780Y-51770280D02*
X157751780Y-51445160D01*
X158252160Y-51770280D02*
X157751780Y-51770280D01*
X158252160Y-52392580D02*
X158252160Y-52242720D01*
X158252160Y-52242720D02*
X158000700Y-52242720D01*
X158000700Y-52392580D02*
X158000700Y-52242720D01*
X158252160Y-52392580D02*
X158000700Y-52392580D01*
X158252160Y-51897280D02*
X158252160Y-51747420D01*
X158252160Y-51747420D02*
X158000700Y-51747420D01*
X158000700Y-51897280D02*
X158000700Y-51747420D01*
X158252160Y-51897280D02*
X158000700Y-51897280D01*
X158252160Y-52268120D02*
X158252160Y-51871880D01*
X158252160Y-51871880D02*
X158076900Y-51871880D01*
X158076900Y-52268120D02*
X158076900Y-51871880D01*
X158252160Y-52268120D02*
X158076900Y-52268120D01*
X159748220Y-51770280D02*
X159748220Y-51445160D01*
X159748220Y-51445160D02*
X159247840Y-51445160D01*
X159247840Y-51770280D02*
X159247840Y-51445160D01*
X159748220Y-51770280D02*
X159247840Y-51770280D01*
X159748220Y-52694840D02*
X159748220Y-52369720D01*
X159748220Y-52369720D02*
X159247840Y-52369720D01*
X159247840Y-52694840D02*
X159247840Y-52369720D01*
X159748220Y-52694840D02*
X159247840Y-52694840D01*
X159499300Y-51897280D02*
X159499300Y-51747420D01*
X159499300Y-51747420D02*
X159247840Y-51747420D01*
X159247840Y-51897280D02*
X159247840Y-51747420D01*
X159499300Y-51897280D02*
X159247840Y-51897280D01*
X159499300Y-52392580D02*
X159499300Y-52242720D01*
X159499300Y-52242720D02*
X159247840Y-52242720D01*
X159247840Y-52392580D02*
X159247840Y-52242720D01*
X159499300Y-52392580D02*
X159247840Y-52392580D01*
X159423100Y-52268120D02*
X159423100Y-51871880D01*
X159423100Y-51871880D02*
X159247840Y-51871880D01*
X159247840Y-52268120D02*
X159247840Y-51871880D01*
X159423100Y-52268120D02*
X159247840Y-52268120D01*
X158750000Y-52169060D02*
X158750000Y-51970940D01*
X158750000Y-51970940D02*
X158551880Y-51970940D01*
X158551880Y-52169060D02*
X158551880Y-51970940D01*
X158750000Y-52169060D02*
X158551880Y-52169060D01*
X158252160Y-52669440D02*
X158252160Y-52369720D01*
X158252160Y-52369720D02*
X157952440Y-52369720D01*
X157952440Y-52669440D02*
X157952440Y-52369720D01*
X158252160Y-52669440D02*
X157952440Y-52669440D01*
X157825440Y-52694840D02*
X157825440Y-52468780D01*
X157825440Y-52468780D02*
X157751780Y-52468780D01*
X157751780Y-52694840D02*
X157751780Y-52468780D01*
X157825440Y-52694840D02*
X157751780Y-52694840D01*
X158226760Y-51495960D02*
X159273240Y-51495960D01*
X159247840Y-52644040D02*
X157825440Y-52644040D01*
X157973482Y-52519580D02*
G75*
G03X157973482Y-52519580I-71842J0D01*
G01*
X157751780Y-52417980D02*
G75*
G03X157751780Y-51722020I0J347980D01*
G01*
X159748220Y-51722020D02*
G75*
G03X159748220Y-52417980I0J-347980D01*
G01*
X195879720Y-47762160D02*
X196204840Y-47762160D01*
X196204840Y-47762160D02*
X196204840Y-47261780D01*
X195879720Y-47261780D02*
X196204840Y-47261780D01*
X195879720Y-47762160D02*
X195879720Y-47261780D01*
X195257420Y-47762160D02*
X195407280Y-47762160D01*
X195407280Y-47762160D02*
X195407280Y-47510700D01*
X195257420Y-47510700D02*
X195407280Y-47510700D01*
X195257420Y-47762160D02*
X195257420Y-47510700D01*
X195752720Y-47762160D02*
X195902580Y-47762160D01*
X195902580Y-47762160D02*
X195902580Y-47510700D01*
X195752720Y-47510700D02*
X195902580Y-47510700D01*
X195752720Y-47762160D02*
X195752720Y-47510700D01*
X195381880Y-47762160D02*
X195778120Y-47762160D01*
X195778120Y-47762160D02*
X195778120Y-47586900D01*
X195381880Y-47586900D02*
X195778120Y-47586900D01*
X195381880Y-47762160D02*
X195381880Y-47586900D01*
X195879720Y-49258220D02*
X196204840Y-49258220D01*
X196204840Y-49258220D02*
X196204840Y-48757840D01*
X195879720Y-48757840D02*
X196204840Y-48757840D01*
X195879720Y-49258220D02*
X195879720Y-48757840D01*
X194955160Y-49258220D02*
X195280280Y-49258220D01*
X195280280Y-49258220D02*
X195280280Y-48757840D01*
X194955160Y-48757840D02*
X195280280Y-48757840D01*
X194955160Y-49258220D02*
X194955160Y-48757840D01*
X195752720Y-49009300D02*
X195902580Y-49009300D01*
X195902580Y-49009300D02*
X195902580Y-48757840D01*
X195752720Y-48757840D02*
X195902580Y-48757840D01*
X195752720Y-49009300D02*
X195752720Y-48757840D01*
X195257420Y-49009300D02*
X195407280Y-49009300D01*
X195407280Y-49009300D02*
X195407280Y-48757840D01*
X195257420Y-48757840D02*
X195407280Y-48757840D01*
X195257420Y-49009300D02*
X195257420Y-48757840D01*
X195381880Y-48933100D02*
X195778120Y-48933100D01*
X195778120Y-48933100D02*
X195778120Y-48757840D01*
X195381880Y-48757840D02*
X195778120Y-48757840D01*
X195381880Y-48933100D02*
X195381880Y-48757840D01*
X195480940Y-48260000D02*
X195679060Y-48260000D01*
X195679060Y-48260000D02*
X195679060Y-48061880D01*
X195480940Y-48061880D02*
X195679060Y-48061880D01*
X195480940Y-48260000D02*
X195480940Y-48061880D01*
X194980560Y-47762160D02*
X195280280Y-47762160D01*
X195280280Y-47762160D02*
X195280280Y-47462440D01*
X194980560Y-47462440D02*
X195280280Y-47462440D01*
X194980560Y-47762160D02*
X194980560Y-47462440D01*
X194955160Y-47335440D02*
X195181220Y-47335440D01*
X195181220Y-47335440D02*
X195181220Y-47261780D01*
X194955160Y-47261780D02*
X195181220Y-47261780D01*
X194955160Y-47335440D02*
X194955160Y-47261780D01*
X196154040Y-47736760D02*
X196154040Y-48783240D01*
X195005960Y-48757840D02*
X195005960Y-47335440D01*
X195202262Y-47411640D02*
G75*
G03X195202262Y-47411640I-71842J0D01*
G01*
X195232020Y-47261780D02*
G75*
G03X195927980Y-47261780I347980J0D01*
G01*
X195927980Y-49258220D02*
G75*
G03X195232020Y-49258220I-347980J0D01*
G01*
X195280280Y-63997840D02*
X194955160Y-63997840D01*
X194955160Y-63997840D02*
X194955160Y-64498220D01*
X195280280Y-64498220D02*
X194955160Y-64498220D01*
X195280280Y-63997840D02*
X195280280Y-64498220D01*
X195902580Y-63997840D02*
X195752720Y-63997840D01*
X195752720Y-63997840D02*
X195752720Y-64249300D01*
X195902580Y-64249300D02*
X195752720Y-64249300D01*
X195902580Y-63997840D02*
X195902580Y-64249300D01*
X195407280Y-63997840D02*
X195257420Y-63997840D01*
X195257420Y-63997840D02*
X195257420Y-64249300D01*
X195407280Y-64249300D02*
X195257420Y-64249300D01*
X195407280Y-63997840D02*
X195407280Y-64249300D01*
X195778120Y-63997840D02*
X195381880Y-63997840D01*
X195381880Y-63997840D02*
X195381880Y-64173100D01*
X195778120Y-64173100D02*
X195381880Y-64173100D01*
X195778120Y-63997840D02*
X195778120Y-64173100D01*
X195280280Y-62501780D02*
X194955160Y-62501780D01*
X194955160Y-62501780D02*
X194955160Y-63002160D01*
X195280280Y-63002160D02*
X194955160Y-63002160D01*
X195280280Y-62501780D02*
X195280280Y-63002160D01*
X196204840Y-62501780D02*
X195879720Y-62501780D01*
X195879720Y-62501780D02*
X195879720Y-63002160D01*
X196204840Y-63002160D02*
X195879720Y-63002160D01*
X196204840Y-62501780D02*
X196204840Y-63002160D01*
X195407280Y-62750700D02*
X195257420Y-62750700D01*
X195257420Y-62750700D02*
X195257420Y-63002160D01*
X195407280Y-63002160D02*
X195257420Y-63002160D01*
X195407280Y-62750700D02*
X195407280Y-63002160D01*
X195902580Y-62750700D02*
X195752720Y-62750700D01*
X195752720Y-62750700D02*
X195752720Y-63002160D01*
X195902580Y-63002160D02*
X195752720Y-63002160D01*
X195902580Y-62750700D02*
X195902580Y-63002160D01*
X195778120Y-62826900D02*
X195381880Y-62826900D01*
X195381880Y-62826900D02*
X195381880Y-63002160D01*
X195778120Y-63002160D02*
X195381880Y-63002160D01*
X195778120Y-62826900D02*
X195778120Y-63002160D01*
X195679060Y-63500000D02*
X195480940Y-63500000D01*
X195480940Y-63500000D02*
X195480940Y-63698120D01*
X195679060Y-63698120D02*
X195480940Y-63698120D01*
X195679060Y-63500000D02*
X195679060Y-63698120D01*
X196179440Y-63997840D02*
X195879720Y-63997840D01*
X195879720Y-63997840D02*
X195879720Y-64297560D01*
X196179440Y-64297560D02*
X195879720Y-64297560D01*
X196179440Y-63997840D02*
X196179440Y-64297560D01*
X196204840Y-64424560D02*
X195978780Y-64424560D01*
X195978780Y-64424560D02*
X195978780Y-64498220D01*
X196204840Y-64498220D02*
X195978780Y-64498220D01*
X196204840Y-64424560D02*
X196204840Y-64498220D01*
X195005960Y-64023240D02*
X195005960Y-62976760D01*
X196154040Y-63002160D02*
X196154040Y-64424560D01*
X196101422Y-64348360D02*
G75*
G03X196101422Y-64348360I-71842J0D01*
G01*
X195927980Y-64498220D02*
G75*
G03X195232020Y-64498220I-347980J0D01*
G01*
X195232020Y-62501780D02*
G75*
G03X195927980Y-62501780I347980J0D01*
G01*
X118110000Y-85090000D02*
X118110000Y-97790000D01*
X118110000Y-97790000D02*
X120650000Y-97790000D01*
X120650000Y-97790000D02*
X120650000Y-85090000D01*
X117830000Y-82270000D02*
X117830000Y-83820000D01*
X118110000Y-85090000D02*
X120650000Y-85090000D01*
X120930000Y-83820000D02*
X120930000Y-82270000D01*
X120930000Y-82270000D02*
X117830000Y-82270000D01*
X200660000Y-82550000D02*
X200660000Y-97790000D01*
X200660000Y-97790000D02*
X203200000Y-97790000D01*
X203200000Y-97790000D02*
X203200000Y-82550000D01*
X200380000Y-79730000D02*
X200380000Y-81280000D01*
X200660000Y-82550000D02*
X203200000Y-82550000D01*
X203480000Y-81280000D02*
X203480000Y-79730000D01*
X203480000Y-79730000D02*
X200380000Y-79730000D01*
X196455000Y-53940000D02*
X196455000Y-52740000D01*
X194705000Y-52740000D02*
X194705000Y-53940000D01*
X194705000Y-57820000D02*
X194705000Y-59020000D01*
X196455000Y-59020000D02*
X196455000Y-57820000D01*
D10*
G36*
X194672102Y-74057053D02*
X194673542Y-74247921D01*
X194673666Y-74256623D01*
X194680417Y-74722070D01*
X194739805Y-74773118D01*
X194819749Y-74817807D01*
X194903288Y-74821865D01*
X194983209Y-74785589D01*
X195010515Y-74761908D01*
X195052312Y-74723367D01*
X195072000Y-74715766D01*
X195072000Y-73936792D01*
X195078662Y-73791606D01*
X195099994Y-73680007D01*
X195138015Y-73595181D01*
X195191671Y-73532982D01*
X195278076Y-73482882D01*
X195375272Y-73467518D01*
X195473077Y-73484853D01*
X195561306Y-73532852D01*
X195629776Y-73609479D01*
X195637014Y-73622022D01*
X195659878Y-73690736D01*
X195673680Y-73787279D01*
X195678541Y-73898657D01*
X195674577Y-74011874D01*
X195661908Y-74113938D01*
X195640651Y-74191855D01*
X195631651Y-74210261D01*
X195560658Y-74298490D01*
X195473798Y-74355675D01*
X195379057Y-74379873D01*
X195284419Y-74369136D01*
X195197871Y-74321519D01*
X195192808Y-74317183D01*
X195134022Y-74248541D01*
X195095935Y-74160453D01*
X195076190Y-74045495D01*
X195072000Y-73936792D01*
X195072000Y-74715766D01*
X195083755Y-74711229D01*
X195123544Y-74721107D01*
X195145790Y-74730158D01*
X195206355Y-74746161D01*
X195291227Y-74757109D01*
X195372945Y-74760649D01*
X195471674Y-74756682D01*
X195550660Y-74741629D01*
X195632018Y-74710727D01*
X195655876Y-74699703D01*
X195803228Y-74610487D01*
X195918911Y-74496457D01*
X196003766Y-74356038D01*
X196058634Y-74187654D01*
X196084356Y-73989730D01*
X196086657Y-73892833D01*
X196075489Y-73721444D01*
X196040955Y-73574671D01*
X195979155Y-73439537D01*
X195925041Y-73355353D01*
X195816491Y-73235247D01*
X195688814Y-73148668D01*
X195548053Y-73095105D01*
X195400252Y-73074047D01*
X195251456Y-73084985D01*
X195107709Y-73127407D01*
X194975055Y-73200805D01*
X194859538Y-73304667D01*
X194767202Y-73438482D01*
X194759336Y-73453773D01*
X194730145Y-73520150D01*
X194707679Y-73592103D01*
X194691289Y-73675701D01*
X194680328Y-73777012D01*
X194674148Y-73902106D01*
X194672102Y-74057053D01*
X194672102Y-74057053D01*
X194672102Y-74057053D01*
G37*
X194672102Y-74057053D02*
X194673542Y-74247921D01*
X194673666Y-74256623D01*
X194680417Y-74722070D01*
X194739805Y-74773118D01*
X194819749Y-74817807D01*
X194903288Y-74821865D01*
X194983209Y-74785589D01*
X195010515Y-74761908D01*
X195052312Y-74723367D01*
X195072000Y-74715766D01*
X195072000Y-73936792D01*
X195078662Y-73791606D01*
X195099994Y-73680007D01*
X195138015Y-73595181D01*
X195191671Y-73532982D01*
X195278076Y-73482882D01*
X195375272Y-73467518D01*
X195473077Y-73484853D01*
X195561306Y-73532852D01*
X195629776Y-73609479D01*
X195637014Y-73622022D01*
X195659878Y-73690736D01*
X195673680Y-73787279D01*
X195678541Y-73898657D01*
X195674577Y-74011874D01*
X195661908Y-74113938D01*
X195640651Y-74191855D01*
X195631651Y-74210261D01*
X195560658Y-74298490D01*
X195473798Y-74355675D01*
X195379057Y-74379873D01*
X195284419Y-74369136D01*
X195197871Y-74321519D01*
X195192808Y-74317183D01*
X195134022Y-74248541D01*
X195095935Y-74160453D01*
X195076190Y-74045495D01*
X195072000Y-73936792D01*
X195072000Y-74715766D01*
X195083755Y-74711229D01*
X195123544Y-74721107D01*
X195145790Y-74730158D01*
X195206355Y-74746161D01*
X195291227Y-74757109D01*
X195372945Y-74760649D01*
X195471674Y-74756682D01*
X195550660Y-74741629D01*
X195632018Y-74710727D01*
X195655876Y-74699703D01*
X195803228Y-74610487D01*
X195918911Y-74496457D01*
X196003766Y-74356038D01*
X196058634Y-74187654D01*
X196084356Y-73989730D01*
X196086657Y-73892833D01*
X196075489Y-73721444D01*
X196040955Y-73574671D01*
X195979155Y-73439537D01*
X195925041Y-73355353D01*
X195816491Y-73235247D01*
X195688814Y-73148668D01*
X195548053Y-73095105D01*
X195400252Y-73074047D01*
X195251456Y-73084985D01*
X195107709Y-73127407D01*
X194975055Y-73200805D01*
X194859538Y-73304667D01*
X194767202Y-73438482D01*
X194759336Y-73453773D01*
X194730145Y-73520150D01*
X194707679Y-73592103D01*
X194691289Y-73675701D01*
X194680328Y-73777012D01*
X194674148Y-73902106D01*
X194672102Y-74057053D01*
X194672102Y-74057053D01*
G36*
X198776167Y-74570302D02*
X198793683Y-74635936D01*
X198837903Y-74701875D01*
X198896333Y-74752436D01*
X198934676Y-74769298D01*
X198978046Y-74775501D01*
X199020326Y-74769163D01*
X199065385Y-74746898D01*
X199117092Y-74705318D01*
X199179314Y-74641039D01*
X199255919Y-74550672D01*
X199350775Y-74430832D01*
X199411733Y-74351646D01*
X199495494Y-74243383D01*
X199571545Y-74147418D01*
X199635903Y-74068586D01*
X199684586Y-74011723D01*
X199713613Y-73981667D01*
X199719223Y-73978175D01*
X199746255Y-73991907D01*
X199788268Y-74027310D01*
X199807317Y-74046291D01*
X199834405Y-74075797D01*
X199853010Y-74103237D01*
X199864989Y-74137218D01*
X199872197Y-74186349D01*
X199876491Y-74259235D01*
X199879728Y-74364483D01*
X199880261Y-74384488D01*
X199883689Y-74496405D01*
X199888029Y-74574319D01*
X199894855Y-74626555D01*
X199905743Y-74661438D01*
X199922269Y-74687293D01*
X199941471Y-74707936D01*
X200001364Y-74749484D01*
X200070128Y-74774084D01*
X200070857Y-74774204D01*
X200125524Y-74777095D01*
X200170577Y-74759866D01*
X200217886Y-74722367D01*
X200289583Y-74658305D01*
X200289583Y-73511563D01*
X200289583Y-72364820D01*
X200226083Y-72314015D01*
X200149342Y-72274831D01*
X200065382Y-72266543D01*
X199986349Y-72287228D01*
X199924388Y-72334963D01*
X199905286Y-72364811D01*
X199900311Y-72394772D01*
X199895092Y-72461194D01*
X199889899Y-72558209D01*
X199885001Y-72679948D01*
X199880667Y-72820543D01*
X199877166Y-72974124D01*
X199877050Y-72980296D01*
X199866250Y-73560010D01*
X199512302Y-73240140D01*
X199407204Y-73146683D01*
X199309634Y-73062769D01*
X199224876Y-72992718D01*
X199158212Y-72940848D01*
X199114925Y-72911476D01*
X199104433Y-72906737D01*
X199032473Y-72907128D01*
X198956909Y-72935020D01*
X198897536Y-72982636D01*
X198891740Y-72990293D01*
X198869972Y-73042557D01*
X198860834Y-73106588D01*
X198860833Y-73107014D01*
X198864187Y-73138684D01*
X198876670Y-73171884D01*
X198901913Y-73210725D01*
X198943551Y-73259318D01*
X199005214Y-73321775D01*
X199090536Y-73402207D01*
X199203149Y-73504727D01*
X199247213Y-73544370D01*
X199411343Y-73691750D01*
X199093755Y-74100968D01*
X198986428Y-74240602D01*
X198903950Y-74351193D01*
X198844004Y-74436163D01*
X198804273Y-74498938D01*
X198782440Y-74542941D01*
X198776167Y-74570302D01*
X198776167Y-74570302D01*
X198776167Y-74570302D01*
G37*
X198776167Y-74570302D02*
X198793683Y-74635936D01*
X198837903Y-74701875D01*
X198896333Y-74752436D01*
X198934676Y-74769298D01*
X198978046Y-74775501D01*
X199020326Y-74769163D01*
X199065385Y-74746898D01*
X199117092Y-74705318D01*
X199179314Y-74641039D01*
X199255919Y-74550672D01*
X199350775Y-74430832D01*
X199411733Y-74351646D01*
X199495494Y-74243383D01*
X199571545Y-74147418D01*
X199635903Y-74068586D01*
X199684586Y-74011723D01*
X199713613Y-73981667D01*
X199719223Y-73978175D01*
X199746255Y-73991907D01*
X199788268Y-74027310D01*
X199807317Y-74046291D01*
X199834405Y-74075797D01*
X199853010Y-74103237D01*
X199864989Y-74137218D01*
X199872197Y-74186349D01*
X199876491Y-74259235D01*
X199879728Y-74364483D01*
X199880261Y-74384488D01*
X199883689Y-74496405D01*
X199888029Y-74574319D01*
X199894855Y-74626555D01*
X199905743Y-74661438D01*
X199922269Y-74687293D01*
X199941471Y-74707936D01*
X200001364Y-74749484D01*
X200070128Y-74774084D01*
X200070857Y-74774204D01*
X200125524Y-74777095D01*
X200170577Y-74759866D01*
X200217886Y-74722367D01*
X200289583Y-74658305D01*
X200289583Y-73511563D01*
X200289583Y-72364820D01*
X200226083Y-72314015D01*
X200149342Y-72274831D01*
X200065382Y-72266543D01*
X199986349Y-72287228D01*
X199924388Y-72334963D01*
X199905286Y-72364811D01*
X199900311Y-72394772D01*
X199895092Y-72461194D01*
X199889899Y-72558209D01*
X199885001Y-72679948D01*
X199880667Y-72820543D01*
X199877166Y-72974124D01*
X199877050Y-72980296D01*
X199866250Y-73560010D01*
X199512302Y-73240140D01*
X199407204Y-73146683D01*
X199309634Y-73062769D01*
X199224876Y-72992718D01*
X199158212Y-72940848D01*
X199114925Y-72911476D01*
X199104433Y-72906737D01*
X199032473Y-72907128D01*
X198956909Y-72935020D01*
X198897536Y-72982636D01*
X198891740Y-72990293D01*
X198869972Y-73042557D01*
X198860834Y-73106588D01*
X198860833Y-73107014D01*
X198864187Y-73138684D01*
X198876670Y-73171884D01*
X198901913Y-73210725D01*
X198943551Y-73259318D01*
X199005214Y-73321775D01*
X199090536Y-73402207D01*
X199203149Y-73504727D01*
X199247213Y-73544370D01*
X199411343Y-73691750D01*
X199093755Y-74100968D01*
X198986428Y-74240602D01*
X198903950Y-74351193D01*
X198844004Y-74436163D01*
X198804273Y-74498938D01*
X198782440Y-74542941D01*
X198776167Y-74570302D01*
X198776167Y-74570302D01*
G36*
X198101091Y-73612501D02*
X198102091Y-73802914D01*
X198103100Y-73925904D01*
X198109417Y-74653926D01*
X198162333Y-74706783D01*
X198232265Y-74753763D01*
X198312414Y-74773583D01*
X198384583Y-74762624D01*
X198430419Y-74733277D01*
X198469250Y-74697468D01*
X198480491Y-74683231D01*
X198489603Y-74665133D01*
X198496856Y-74638789D01*
X198502516Y-74599816D01*
X198506852Y-74543828D01*
X198510131Y-74466441D01*
X198512621Y-74363271D01*
X198514591Y-74229933D01*
X198516308Y-74062042D01*
X198517634Y-73905476D01*
X198523684Y-73160511D01*
X198475300Y-73089095D01*
X198409420Y-73019663D01*
X198334202Y-72991233D01*
X198250723Y-73004147D01*
X198232585Y-73011981D01*
X198198405Y-73029741D01*
X198170494Y-73050023D01*
X198148262Y-73076992D01*
X198131120Y-73114813D01*
X198118477Y-73167653D01*
X198109743Y-73239676D01*
X198104327Y-73335048D01*
X198101640Y-73457934D01*
X198101091Y-73612501D01*
X198101091Y-73612501D01*
X198101091Y-73612501D01*
G37*
X198101091Y-73612501D02*
X198102091Y-73802914D01*
X198103100Y-73925904D01*
X198109417Y-74653926D01*
X198162333Y-74706783D01*
X198232265Y-74753763D01*
X198312414Y-74773583D01*
X198384583Y-74762624D01*
X198430419Y-74733277D01*
X198469250Y-74697468D01*
X198480491Y-74683231D01*
X198489603Y-74665133D01*
X198496856Y-74638789D01*
X198502516Y-74599816D01*
X198506852Y-74543828D01*
X198510131Y-74466441D01*
X198512621Y-74363271D01*
X198514591Y-74229933D01*
X198516308Y-74062042D01*
X198517634Y-73905476D01*
X198523684Y-73160511D01*
X198475300Y-73089095D01*
X198409420Y-73019663D01*
X198334202Y-72991233D01*
X198250723Y-73004147D01*
X198232585Y-73011981D01*
X198198405Y-73029741D01*
X198170494Y-73050023D01*
X198148262Y-73076992D01*
X198131120Y-73114813D01*
X198118477Y-73167653D01*
X198109743Y-73239676D01*
X198104327Y-73335048D01*
X198101640Y-73457934D01*
X198101091Y-73612501D01*
X198101091Y-73612501D01*
G36*
X196426667Y-74506577D02*
X196446625Y-74567699D01*
X196501687Y-74625341D01*
X196584635Y-74676951D01*
X196688247Y-74719978D01*
X196805306Y-74751871D01*
X196928592Y-74770079D01*
X197050886Y-74772052D01*
X197143990Y-74760053D01*
X197306292Y-74705410D01*
X197450192Y-74615608D01*
X197569907Y-74495873D01*
X197659656Y-74351425D01*
X197694292Y-74262894D01*
X197741850Y-74049995D01*
X197751994Y-73835987D01*
X197725095Y-73628234D01*
X197661518Y-73434100D01*
X197651765Y-73412752D01*
X197562372Y-73270766D01*
X197443468Y-73154462D01*
X197301466Y-73067127D01*
X197142778Y-73012046D01*
X196973816Y-72992507D01*
X196850500Y-73002114D01*
X196706527Y-73035485D01*
X196590403Y-73083047D01*
X196504595Y-73141865D01*
X196451570Y-73209002D01*
X196433797Y-73281522D01*
X196453742Y-73356489D01*
X196500649Y-73418406D01*
X196554670Y-73456000D01*
X196620484Y-73467277D01*
X196706225Y-73452490D01*
X196781436Y-73427155D01*
X196889681Y-73394137D01*
X196981437Y-73387083D01*
X197072876Y-73405021D01*
X197084967Y-73408932D01*
X197182563Y-73456604D01*
X197254488Y-73527768D01*
X197302742Y-73626277D01*
X197329323Y-73755985D01*
X197336369Y-73893640D01*
X197328299Y-74044483D01*
X197301808Y-74162124D01*
X197254643Y-74252484D01*
X197184551Y-74321485D01*
X197169662Y-74331870D01*
X197082874Y-74367984D01*
X196976091Y-74381059D01*
X196864969Y-74370884D01*
X196765333Y-74337333D01*
X196704057Y-74310838D01*
X196651799Y-74296088D01*
X196640173Y-74295000D01*
X196557195Y-74314228D01*
X196487154Y-74365082D01*
X196440392Y-74437313D01*
X196426667Y-74506577D01*
X196426667Y-74506577D01*
X196426667Y-74506577D01*
G37*
X196426667Y-74506577D02*
X196446625Y-74567699D01*
X196501687Y-74625341D01*
X196584635Y-74676951D01*
X196688247Y-74719978D01*
X196805306Y-74751871D01*
X196928592Y-74770079D01*
X197050886Y-74772052D01*
X197143990Y-74760053D01*
X197306292Y-74705410D01*
X197450192Y-74615608D01*
X197569907Y-74495873D01*
X197659656Y-74351425D01*
X197694292Y-74262894D01*
X197741850Y-74049995D01*
X197751994Y-73835987D01*
X197725095Y-73628234D01*
X197661518Y-73434100D01*
X197651765Y-73412752D01*
X197562372Y-73270766D01*
X197443468Y-73154462D01*
X197301466Y-73067127D01*
X197142778Y-73012046D01*
X196973816Y-72992507D01*
X196850500Y-73002114D01*
X196706527Y-73035485D01*
X196590403Y-73083047D01*
X196504595Y-73141865D01*
X196451570Y-73209002D01*
X196433797Y-73281522D01*
X196453742Y-73356489D01*
X196500649Y-73418406D01*
X196554670Y-73456000D01*
X196620484Y-73467277D01*
X196706225Y-73452490D01*
X196781436Y-73427155D01*
X196889681Y-73394137D01*
X196981437Y-73387083D01*
X197072876Y-73405021D01*
X197084967Y-73408932D01*
X197182563Y-73456604D01*
X197254488Y-73527768D01*
X197302742Y-73626277D01*
X197329323Y-73755985D01*
X197336369Y-73893640D01*
X197328299Y-74044483D01*
X197301808Y-74162124D01*
X197254643Y-74252484D01*
X197184551Y-74321485D01*
X197169662Y-74331870D01*
X197082874Y-74367984D01*
X196976091Y-74381059D01*
X196864969Y-74370884D01*
X196765333Y-74337333D01*
X196704057Y-74310838D01*
X196651799Y-74296088D01*
X196640173Y-74295000D01*
X196557195Y-74314228D01*
X196487154Y-74365082D01*
X196440392Y-74437313D01*
X196426667Y-74506577D01*
X196426667Y-74506577D01*
G36*
X192825798Y-72431612D02*
X192832652Y-73315681D01*
X192834385Y-73532448D01*
X192836068Y-73711221D01*
X192837947Y-73856336D01*
X192840263Y-73972131D01*
X192843262Y-74062943D01*
X192847187Y-74133110D01*
X192852283Y-74186970D01*
X192858792Y-74228859D01*
X192866960Y-74263115D01*
X192877029Y-74294076D01*
X192889245Y-74326078D01*
X192889509Y-74326750D01*
X192950194Y-74456755D01*
X193020382Y-74555882D01*
X193108578Y-74635575D01*
X193130593Y-74651193D01*
X193230500Y-74702286D01*
X193230500Y-73856381D01*
X193230500Y-73571099D01*
X193300570Y-73501029D01*
X193370197Y-73448069D01*
X193450211Y-73409934D01*
X193462691Y-73406173D01*
X193582603Y-73391800D01*
X193687317Y-73415237D01*
X193774454Y-73473944D01*
X193841636Y-73565385D01*
X193886485Y-73687023D01*
X193906622Y-73836321D01*
X193907515Y-73880728D01*
X193893540Y-74038548D01*
X193853965Y-74171353D01*
X193791229Y-74276069D01*
X193707774Y-74349619D01*
X193606039Y-74388929D01*
X193501366Y-74392546D01*
X193428310Y-74373423D01*
X193359961Y-74339065D01*
X193358038Y-74337716D01*
X193310812Y-74297045D01*
X193276435Y-74247676D01*
X193253064Y-74182657D01*
X193238858Y-74095034D01*
X193231974Y-73977855D01*
X193230500Y-73856381D01*
X193230500Y-74702286D01*
X193278492Y-74726830D01*
X193445614Y-74765520D01*
X193629692Y-74766788D01*
X193664417Y-74763009D01*
X193775723Y-74735307D01*
X193896280Y-74683230D01*
X194008693Y-74615297D01*
X194073410Y-74562694D01*
X194116856Y-74511000D01*
X194167249Y-74435406D01*
X194214752Y-74350878D01*
X194221520Y-74337333D01*
X194299304Y-74178583D01*
X194298814Y-73892833D01*
X194297666Y-73769913D01*
X194293911Y-73679189D01*
X194286353Y-73610548D01*
X194273798Y-73553875D01*
X194255049Y-73499057D01*
X194251077Y-73488987D01*
X194168265Y-73335097D01*
X194056989Y-73208455D01*
X193922935Y-73111562D01*
X193771788Y-73046923D01*
X193609233Y-73017040D01*
X193440953Y-73024417D01*
X193288708Y-73065211D01*
X193230500Y-73087452D01*
X193230500Y-72761516D01*
X193230254Y-72637257D01*
X193228815Y-72547817D01*
X193225130Y-72485685D01*
X193218146Y-72443347D01*
X193206811Y-72413291D01*
X193190071Y-72388004D01*
X193175702Y-72370457D01*
X193106850Y-72316977D01*
X193027912Y-72301720D01*
X192947117Y-72324743D01*
X192888938Y-72368472D01*
X192825798Y-72431612D01*
X192825798Y-72431612D01*
X192825798Y-72431612D01*
G37*
X192825798Y-72431612D02*
X192832652Y-73315681D01*
X192834385Y-73532448D01*
X192836068Y-73711221D01*
X192837947Y-73856336D01*
X192840263Y-73972131D01*
X192843262Y-74062943D01*
X192847187Y-74133110D01*
X192852283Y-74186970D01*
X192858792Y-74228859D01*
X192866960Y-74263115D01*
X192877029Y-74294076D01*
X192889245Y-74326078D01*
X192889509Y-74326750D01*
X192950194Y-74456755D01*
X193020382Y-74555882D01*
X193108578Y-74635575D01*
X193130593Y-74651193D01*
X193230500Y-74702286D01*
X193230500Y-73856381D01*
X193230500Y-73571099D01*
X193300570Y-73501029D01*
X193370197Y-73448069D01*
X193450211Y-73409934D01*
X193462691Y-73406173D01*
X193582603Y-73391800D01*
X193687317Y-73415237D01*
X193774454Y-73473944D01*
X193841636Y-73565385D01*
X193886485Y-73687023D01*
X193906622Y-73836321D01*
X193907515Y-73880728D01*
X193893540Y-74038548D01*
X193853965Y-74171353D01*
X193791229Y-74276069D01*
X193707774Y-74349619D01*
X193606039Y-74388929D01*
X193501366Y-74392546D01*
X193428310Y-74373423D01*
X193359961Y-74339065D01*
X193358038Y-74337716D01*
X193310812Y-74297045D01*
X193276435Y-74247676D01*
X193253064Y-74182657D01*
X193238858Y-74095034D01*
X193231974Y-73977855D01*
X193230500Y-73856381D01*
X193230500Y-74702286D01*
X193278492Y-74726830D01*
X193445614Y-74765520D01*
X193629692Y-74766788D01*
X193664417Y-74763009D01*
X193775723Y-74735307D01*
X193896280Y-74683230D01*
X194008693Y-74615297D01*
X194073410Y-74562694D01*
X194116856Y-74511000D01*
X194167249Y-74435406D01*
X194214752Y-74350878D01*
X194221520Y-74337333D01*
X194299304Y-74178583D01*
X194298814Y-73892833D01*
X194297666Y-73769913D01*
X194293911Y-73679189D01*
X194286353Y-73610548D01*
X194273798Y-73553875D01*
X194255049Y-73499057D01*
X194251077Y-73488987D01*
X194168265Y-73335097D01*
X194056989Y-73208455D01*
X193922935Y-73111562D01*
X193771788Y-73046923D01*
X193609233Y-73017040D01*
X193440953Y-73024417D01*
X193288708Y-73065211D01*
X193230500Y-73087452D01*
X193230500Y-72761516D01*
X193230254Y-72637257D01*
X193228815Y-72547817D01*
X193225130Y-72485685D01*
X193218146Y-72443347D01*
X193206811Y-72413291D01*
X193190071Y-72388004D01*
X193175702Y-72370457D01*
X193106850Y-72316977D01*
X193027912Y-72301720D01*
X192947117Y-72324743D01*
X192888938Y-72368472D01*
X192825798Y-72431612D01*
X192825798Y-72431612D01*
G36*
X200744658Y-73234873D02*
X200744663Y-73474676D01*
X200744667Y-73534065D01*
X200744667Y-74616733D01*
X200816633Y-74688699D01*
X200888600Y-74760666D01*
X200977500Y-74760666D01*
X200977500Y-74527833D01*
X200977500Y-73505373D01*
X200977500Y-72482913D01*
X201416708Y-72048230D01*
X201539776Y-71926643D01*
X201662988Y-71805300D01*
X201780296Y-71690129D01*
X201885653Y-71587059D01*
X201973008Y-71502017D01*
X202035833Y-71441394D01*
X202215750Y-71269240D01*
X202961875Y-71268703D01*
X203708000Y-71268166D01*
X203708000Y-72898000D01*
X203708000Y-74527833D01*
X202342750Y-74527833D01*
X200977500Y-74527833D01*
X200977500Y-74760666D01*
X202340300Y-74760666D01*
X203791999Y-74760666D01*
X203861125Y-74698902D01*
X203930250Y-74637139D01*
X203930250Y-72934690D01*
X203930149Y-72618281D01*
X203929816Y-72341595D01*
X203929207Y-72102023D01*
X203928279Y-71896955D01*
X203926987Y-71723781D01*
X203925288Y-71579891D01*
X203923139Y-71462676D01*
X203920494Y-71369527D01*
X203917311Y-71297833D01*
X203913545Y-71244985D01*
X203909153Y-71208373D01*
X203904091Y-71185388D01*
X203900728Y-71177078D01*
X203882989Y-71146892D01*
X203862450Y-71122212D01*
X203834955Y-71102502D01*
X203796346Y-71087227D01*
X203742466Y-71075849D01*
X203669158Y-71067834D01*
X203572266Y-71062644D01*
X203447632Y-71059745D01*
X203291100Y-71058599D01*
X203098512Y-71058671D01*
X202985135Y-71059004D01*
X202808928Y-71059959D01*
X202644288Y-71061547D01*
X202496475Y-71063665D01*
X202370748Y-71066210D01*
X202272366Y-71069077D01*
X202206588Y-71072163D01*
X202180247Y-71074879D01*
X202163773Y-71079484D01*
X202146216Y-71087048D01*
X202124708Y-71100146D01*
X202096379Y-71121353D01*
X202058360Y-71153244D01*
X202007783Y-71198395D01*
X201941780Y-71259381D01*
X201857480Y-71338776D01*
X201752016Y-71439157D01*
X201622519Y-71563099D01*
X201466119Y-71713176D01*
X201422000Y-71755541D01*
X201300835Y-71871707D01*
X201186395Y-71981066D01*
X201083091Y-72079429D01*
X200995337Y-72162607D01*
X200927545Y-72226411D01*
X200884127Y-72266652D01*
X200874831Y-72274988D01*
X200846547Y-72299576D01*
X200822684Y-72322143D01*
X200802867Y-72346317D01*
X200786719Y-72375727D01*
X200773867Y-72414000D01*
X200763935Y-72464765D01*
X200756548Y-72531650D01*
X200751331Y-72618284D01*
X200747908Y-72728295D01*
X200745905Y-72865311D01*
X200744947Y-73032961D01*
X200744658Y-73234873D01*
X200744658Y-73234873D01*
X200744658Y-73234873D01*
G37*
X200744658Y-73234873D02*
X200744663Y-73474676D01*
X200744667Y-73534065D01*
X200744667Y-74616733D01*
X200816633Y-74688699D01*
X200888600Y-74760666D01*
X200977500Y-74760666D01*
X200977500Y-74527833D01*
X200977500Y-73505373D01*
X200977500Y-72482913D01*
X201416708Y-72048230D01*
X201539776Y-71926643D01*
X201662988Y-71805300D01*
X201780296Y-71690129D01*
X201885653Y-71587059D01*
X201973008Y-71502017D01*
X202035833Y-71441394D01*
X202215750Y-71269240D01*
X202961875Y-71268703D01*
X203708000Y-71268166D01*
X203708000Y-72898000D01*
X203708000Y-74527833D01*
X202342750Y-74527833D01*
X200977500Y-74527833D01*
X200977500Y-74760666D01*
X202340300Y-74760666D01*
X203791999Y-74760666D01*
X203861125Y-74698902D01*
X203930250Y-74637139D01*
X203930250Y-72934690D01*
X203930149Y-72618281D01*
X203929816Y-72341595D01*
X203929207Y-72102023D01*
X203928279Y-71896955D01*
X203926987Y-71723781D01*
X203925288Y-71579891D01*
X203923139Y-71462676D01*
X203920494Y-71369527D01*
X203917311Y-71297833D01*
X203913545Y-71244985D01*
X203909153Y-71208373D01*
X203904091Y-71185388D01*
X203900728Y-71177078D01*
X203882989Y-71146892D01*
X203862450Y-71122212D01*
X203834955Y-71102502D01*
X203796346Y-71087227D01*
X203742466Y-71075849D01*
X203669158Y-71067834D01*
X203572266Y-71062644D01*
X203447632Y-71059745D01*
X203291100Y-71058599D01*
X203098512Y-71058671D01*
X202985135Y-71059004D01*
X202808928Y-71059959D01*
X202644288Y-71061547D01*
X202496475Y-71063665D01*
X202370748Y-71066210D01*
X202272366Y-71069077D01*
X202206588Y-71072163D01*
X202180247Y-71074879D01*
X202163773Y-71079484D01*
X202146216Y-71087048D01*
X202124708Y-71100146D01*
X202096379Y-71121353D01*
X202058360Y-71153244D01*
X202007783Y-71198395D01*
X201941780Y-71259381D01*
X201857480Y-71338776D01*
X201752016Y-71439157D01*
X201622519Y-71563099D01*
X201466119Y-71713176D01*
X201422000Y-71755541D01*
X201300835Y-71871707D01*
X201186395Y-71981066D01*
X201083091Y-72079429D01*
X200995337Y-72162607D01*
X200927545Y-72226411D01*
X200884127Y-72266652D01*
X200874831Y-72274988D01*
X200846547Y-72299576D01*
X200822684Y-72322143D01*
X200802867Y-72346317D01*
X200786719Y-72375727D01*
X200773867Y-72414000D01*
X200763935Y-72464765D01*
X200756548Y-72531650D01*
X200751331Y-72618284D01*
X200747908Y-72728295D01*
X200745905Y-72865311D01*
X200744947Y-73032961D01*
X200744658Y-73234873D01*
X200744658Y-73234873D01*
G36*
X198112883Y-72430876D02*
X198112930Y-72516914D01*
X198142611Y-72596634D01*
X198194923Y-72653186D01*
X198273941Y-72682204D01*
X198361518Y-72679934D01*
X198439066Y-72647130D01*
X198444442Y-72643082D01*
X198497160Y-72578629D01*
X198516768Y-72502338D01*
X198506807Y-72423560D01*
X198470816Y-72351645D01*
X198412335Y-72295943D01*
X198334905Y-72265805D01*
X198300545Y-72263000D01*
X198239701Y-72280799D01*
X198178461Y-72325815D01*
X198130881Y-72385474D01*
X198112883Y-72430876D01*
X198112883Y-72430876D01*
X198112883Y-72430876D01*
G37*
X198112883Y-72430876D02*
X198112930Y-72516914D01*
X198142611Y-72596634D01*
X198194923Y-72653186D01*
X198273941Y-72682204D01*
X198361518Y-72679934D01*
X198439066Y-72647130D01*
X198444442Y-72643082D01*
X198497160Y-72578629D01*
X198516768Y-72502338D01*
X198506807Y-72423560D01*
X198470816Y-72351645D01*
X198412335Y-72295943D01*
X198334905Y-72265805D01*
X198300545Y-72263000D01*
X198239701Y-72280799D01*
X198178461Y-72325815D01*
X198130881Y-72385474D01*
X198112883Y-72430876D01*
X198112883Y-72430876D01*
G36*
X200744667Y-71536050D02*
X200744943Y-71673365D01*
X200746173Y-71774376D01*
X200748960Y-71845112D01*
X200753910Y-71891603D01*
X200761626Y-71919877D01*
X200772712Y-71935962D01*
X200785609Y-71944755D01*
X200819045Y-71959803D01*
X200851324Y-71965042D01*
X200886816Y-71957573D01*
X200929895Y-71934492D01*
X200984932Y-71892898D01*
X201056301Y-71829891D01*
X201148373Y-71742568D01*
X201265522Y-71628028D01*
X201270924Y-71622708D01*
X201371912Y-71523355D01*
X201463885Y-71433072D01*
X201542196Y-71356406D01*
X201602195Y-71297905D01*
X201639234Y-71262114D01*
X201648083Y-71253803D01*
X201672803Y-71208061D01*
X201674502Y-71149521D01*
X201654873Y-71097569D01*
X201632633Y-71077113D01*
X201591382Y-71067837D01*
X201509321Y-71061859D01*
X201387849Y-71059232D01*
X201228363Y-71060009D01*
X201196970Y-71060493D01*
X201058028Y-71063145D01*
X200955323Y-71066215D01*
X200882760Y-71070390D01*
X200834244Y-71076359D01*
X200803681Y-71084810D01*
X200784974Y-71096432D01*
X200774671Y-71108170D01*
X200763351Y-71133414D01*
X200755080Y-71177226D01*
X200749481Y-71245015D01*
X200746172Y-71342191D01*
X200744775Y-71474165D01*
X200744667Y-71536050D01*
X200744667Y-71536050D01*
X200744667Y-71536050D01*
G37*
X200744667Y-71536050D02*
X200744943Y-71673365D01*
X200746173Y-71774376D01*
X200748960Y-71845112D01*
X200753910Y-71891603D01*
X200761626Y-71919877D01*
X200772712Y-71935962D01*
X200785609Y-71944755D01*
X200819045Y-71959803D01*
X200851324Y-71965042D01*
X200886816Y-71957573D01*
X200929895Y-71934492D01*
X200984932Y-71892898D01*
X201056301Y-71829891D01*
X201148373Y-71742568D01*
X201265522Y-71628028D01*
X201270924Y-71622708D01*
X201371912Y-71523355D01*
X201463885Y-71433072D01*
X201542196Y-71356406D01*
X201602195Y-71297905D01*
X201639234Y-71262114D01*
X201648083Y-71253803D01*
X201672803Y-71208061D01*
X201674502Y-71149521D01*
X201654873Y-71097569D01*
X201632633Y-71077113D01*
X201591382Y-71067837D01*
X201509321Y-71061859D01*
X201387849Y-71059232D01*
X201228363Y-71060009D01*
X201196970Y-71060493D01*
X201058028Y-71063145D01*
X200955323Y-71066215D01*
X200882760Y-71070390D01*
X200834244Y-71076359D01*
X200803681Y-71084810D01*
X200784974Y-71096432D01*
X200774671Y-71108170D01*
X200763351Y-71133414D01*
X200755080Y-71177226D01*
X200749481Y-71245015D01*
X200746172Y-71342191D01*
X200744775Y-71474165D01*
X200744667Y-71536050D01*
X200744667Y-71536050D01*
G36*
X201125667Y-73681166D02*
X201127301Y-73695392D01*
X201135796Y-73706014D01*
X201156541Y-73713557D01*
X201194924Y-73718548D01*
X201256333Y-73721511D01*
X201346158Y-73722972D01*
X201469786Y-73723458D01*
X201559583Y-73723500D01*
X201993500Y-73723500D01*
X201993500Y-73977500D01*
X201993916Y-74084720D01*
X201995941Y-74156625D01*
X202000746Y-74200229D01*
X202009499Y-74222548D01*
X202023371Y-74230597D01*
X202035833Y-74231500D01*
X202052585Y-74229301D01*
X202064219Y-74218369D01*
X202071665Y-74192198D01*
X202075850Y-74144282D01*
X202077706Y-74068115D01*
X202078162Y-73957192D01*
X202078167Y-73935166D01*
X202078167Y-73638833D01*
X201601917Y-73638833D01*
X201448243Y-73638968D01*
X201331758Y-73639680D01*
X201247315Y-73641424D01*
X201189770Y-73644659D01*
X201153978Y-73649842D01*
X201134794Y-73657431D01*
X201127072Y-73667881D01*
X201125667Y-73681166D01*
X201125667Y-73681166D01*
X201125667Y-73681166D01*
G37*
X201125667Y-73681166D02*
X201127301Y-73695392D01*
X201135796Y-73706014D01*
X201156541Y-73713557D01*
X201194924Y-73718548D01*
X201256333Y-73721511D01*
X201346158Y-73722972D01*
X201469786Y-73723458D01*
X201559583Y-73723500D01*
X201993500Y-73723500D01*
X201993500Y-73977500D01*
X201993916Y-74084720D01*
X201995941Y-74156625D01*
X202000746Y-74200229D01*
X202009499Y-74222548D01*
X202023371Y-74230597D01*
X202035833Y-74231500D01*
X202052585Y-74229301D01*
X202064219Y-74218369D01*
X202071665Y-74192198D01*
X202075850Y-74144282D01*
X202077706Y-74068115D01*
X202078162Y-73957192D01*
X202078167Y-73935166D01*
X202078167Y-73638833D01*
X201601917Y-73638833D01*
X201448243Y-73638968D01*
X201331758Y-73639680D01*
X201247315Y-73641424D01*
X201189770Y-73644659D01*
X201153978Y-73649842D01*
X201134794Y-73657431D01*
X201127072Y-73667881D01*
X201125667Y-73681166D01*
X201125667Y-73681166D01*
G36*
X201104443Y-72931139D02*
X201216262Y-73041569D01*
X201275081Y-73098155D01*
X201317957Y-73131104D01*
X201320177Y-73131957D01*
X201320177Y-72939556D01*
X201327232Y-72906407D01*
X201329475Y-72902722D01*
X201346489Y-72886158D01*
X201377984Y-72874772D01*
X201431598Y-72867312D01*
X201514966Y-72862525D01*
X201588299Y-72860265D01*
X201824167Y-72854280D01*
X201824167Y-72929056D01*
X201824167Y-73003833D01*
X201607208Y-73003160D01*
X201493718Y-73000689D01*
X201415661Y-72993547D01*
X201366313Y-72980893D01*
X201348384Y-72970840D01*
X201320177Y-72939556D01*
X201320177Y-73131957D01*
X201358790Y-73146805D01*
X201411478Y-73151647D01*
X201456456Y-73152000D01*
X201539409Y-73150384D01*
X201644877Y-73146096D01*
X201753186Y-73139977D01*
X201778582Y-73138247D01*
X201972333Y-73124494D01*
X201972333Y-73063612D01*
X201972333Y-73002730D01*
X202295125Y-73008573D01*
X202617917Y-73014416D01*
X202618634Y-73083263D01*
X202625321Y-73125565D01*
X202648390Y-73169928D01*
X202693740Y-73225492D01*
X202744971Y-73279054D01*
X202870592Y-73406000D01*
X202746096Y-73531808D01*
X202687966Y-73592106D01*
X202649527Y-73640462D01*
X202626579Y-73688394D01*
X202614920Y-73747418D01*
X202610348Y-73829052D01*
X202609097Y-73907367D01*
X202607333Y-74059484D01*
X202538542Y-74066117D01*
X202490869Y-74075662D01*
X202472371Y-74100366D01*
X202469750Y-74136250D01*
X202469750Y-74199750D01*
X202665542Y-74205835D01*
X202861333Y-74211921D01*
X202861333Y-74137044D01*
X202857889Y-74086922D01*
X202840329Y-74066224D01*
X202797833Y-74062166D01*
X202734333Y-74062166D01*
X202734333Y-73896793D01*
X202735526Y-73811664D01*
X202741266Y-73756704D01*
X202754798Y-73719765D01*
X202779366Y-73688704D01*
X202793700Y-73674543D01*
X202842251Y-73631972D01*
X202869192Y-73622629D01*
X202880560Y-73647684D01*
X202882500Y-73691750D01*
X202886069Y-73741541D01*
X202903991Y-73761962D01*
X202945073Y-73765833D01*
X203007646Y-73765833D01*
X203013865Y-73612375D01*
X203020083Y-73458916D01*
X203268792Y-73452953D01*
X203517500Y-73446989D01*
X203517500Y-73384161D01*
X203517500Y-73321333D01*
X203263500Y-73321333D01*
X203009500Y-73321333D01*
X203009500Y-73173166D01*
X203009500Y-73025000D01*
X202946000Y-73025000D01*
X202905283Y-73028343D01*
X202887183Y-73046461D01*
X202882600Y-73091486D01*
X202882500Y-73109666D01*
X202878026Y-73170136D01*
X202861876Y-73190759D01*
X202829964Y-73173337D01*
X202801523Y-73145344D01*
X202779846Y-73117640D01*
X202766216Y-73083889D01*
X202758831Y-73034139D01*
X202755886Y-72958438D01*
X202755500Y-72891344D01*
X202755500Y-72686333D01*
X202819000Y-72686333D01*
X202882500Y-72686333D01*
X202882500Y-72347666D01*
X202882500Y-72009000D01*
X202821356Y-72009000D01*
X202779104Y-72003317D01*
X202757343Y-71978006D01*
X202746032Y-71933414D01*
X202740070Y-71877692D01*
X202736444Y-71794535D01*
X202735695Y-71698801D01*
X202736245Y-71663539D01*
X202740639Y-71469250D01*
X202673986Y-71462617D01*
X202607333Y-71455984D01*
X202607333Y-71732492D01*
X202607333Y-72009000D01*
X202543833Y-72009000D01*
X202480333Y-72009000D01*
X202480333Y-72346325D01*
X202480333Y-72683651D01*
X202549125Y-72690283D01*
X202592686Y-72697924D01*
X202607333Y-72711912D01*
X202607333Y-72559333D01*
X202607333Y-72347666D01*
X202607333Y-72136000D01*
X202670833Y-72136000D01*
X202734333Y-72136000D01*
X202734333Y-72347666D01*
X202734333Y-72559333D01*
X202670833Y-72559333D01*
X202607333Y-72559333D01*
X202607333Y-72711912D01*
X202613855Y-72718141D01*
X202622562Y-72763668D01*
X202624426Y-72786875D01*
X202630934Y-72876833D01*
X202301634Y-72876833D01*
X201972333Y-72876833D01*
X201972333Y-72792166D01*
X201972333Y-72707500D01*
X201648819Y-72707500D01*
X201325304Y-72707500D01*
X201214873Y-72819319D01*
X201104443Y-72931139D01*
X201104443Y-72931139D01*
X201104443Y-72931139D01*
G37*
X201104443Y-72931139D02*
X201216262Y-73041569D01*
X201275081Y-73098155D01*
X201317957Y-73131104D01*
X201320177Y-73131957D01*
X201320177Y-72939556D01*
X201327232Y-72906407D01*
X201329475Y-72902722D01*
X201346489Y-72886158D01*
X201377984Y-72874772D01*
X201431598Y-72867312D01*
X201514966Y-72862525D01*
X201588299Y-72860265D01*
X201824167Y-72854280D01*
X201824167Y-72929056D01*
X201824167Y-73003833D01*
X201607208Y-73003160D01*
X201493718Y-73000689D01*
X201415661Y-72993547D01*
X201366313Y-72980893D01*
X201348384Y-72970840D01*
X201320177Y-72939556D01*
X201320177Y-73131957D01*
X201358790Y-73146805D01*
X201411478Y-73151647D01*
X201456456Y-73152000D01*
X201539409Y-73150384D01*
X201644877Y-73146096D01*
X201753186Y-73139977D01*
X201778582Y-73138247D01*
X201972333Y-73124494D01*
X201972333Y-73063612D01*
X201972333Y-73002730D01*
X202295125Y-73008573D01*
X202617917Y-73014416D01*
X202618634Y-73083263D01*
X202625321Y-73125565D01*
X202648390Y-73169928D01*
X202693740Y-73225492D01*
X202744971Y-73279054D01*
X202870592Y-73406000D01*
X202746096Y-73531808D01*
X202687966Y-73592106D01*
X202649527Y-73640462D01*
X202626579Y-73688394D01*
X202614920Y-73747418D01*
X202610348Y-73829052D01*
X202609097Y-73907367D01*
X202607333Y-74059484D01*
X202538542Y-74066117D01*
X202490869Y-74075662D01*
X202472371Y-74100366D01*
X202469750Y-74136250D01*
X202469750Y-74199750D01*
X202665542Y-74205835D01*
X202861333Y-74211921D01*
X202861333Y-74137044D01*
X202857889Y-74086922D01*
X202840329Y-74066224D01*
X202797833Y-74062166D01*
X202734333Y-74062166D01*
X202734333Y-73896793D01*
X202735526Y-73811664D01*
X202741266Y-73756704D01*
X202754798Y-73719765D01*
X202779366Y-73688704D01*
X202793700Y-73674543D01*
X202842251Y-73631972D01*
X202869192Y-73622629D01*
X202880560Y-73647684D01*
X202882500Y-73691750D01*
X202886069Y-73741541D01*
X202903991Y-73761962D01*
X202945073Y-73765833D01*
X203007646Y-73765833D01*
X203013865Y-73612375D01*
X203020083Y-73458916D01*
X203268792Y-73452953D01*
X203517500Y-73446989D01*
X203517500Y-73384161D01*
X203517500Y-73321333D01*
X203263500Y-73321333D01*
X203009500Y-73321333D01*
X203009500Y-73173166D01*
X203009500Y-73025000D01*
X202946000Y-73025000D01*
X202905283Y-73028343D01*
X202887183Y-73046461D01*
X202882600Y-73091486D01*
X202882500Y-73109666D01*
X202878026Y-73170136D01*
X202861876Y-73190759D01*
X202829964Y-73173337D01*
X202801523Y-73145344D01*
X202779846Y-73117640D01*
X202766216Y-73083889D01*
X202758831Y-73034139D01*
X202755886Y-72958438D01*
X202755500Y-72891344D01*
X202755500Y-72686333D01*
X202819000Y-72686333D01*
X202882500Y-72686333D01*
X202882500Y-72347666D01*
X202882500Y-72009000D01*
X202821356Y-72009000D01*
X202779104Y-72003317D01*
X202757343Y-71978006D01*
X202746032Y-71933414D01*
X202740070Y-71877692D01*
X202736444Y-71794535D01*
X202735695Y-71698801D01*
X202736245Y-71663539D01*
X202740639Y-71469250D01*
X202673986Y-71462617D01*
X202607333Y-71455984D01*
X202607333Y-71732492D01*
X202607333Y-72009000D01*
X202543833Y-72009000D01*
X202480333Y-72009000D01*
X202480333Y-72346325D01*
X202480333Y-72683651D01*
X202549125Y-72690283D01*
X202592686Y-72697924D01*
X202607333Y-72711912D01*
X202607333Y-72559333D01*
X202607333Y-72347666D01*
X202607333Y-72136000D01*
X202670833Y-72136000D01*
X202734333Y-72136000D01*
X202734333Y-72347666D01*
X202734333Y-72559333D01*
X202670833Y-72559333D01*
X202607333Y-72559333D01*
X202607333Y-72711912D01*
X202613855Y-72718141D01*
X202622562Y-72763668D01*
X202624426Y-72786875D01*
X202630934Y-72876833D01*
X202301634Y-72876833D01*
X201972333Y-72876833D01*
X201972333Y-72792166D01*
X201972333Y-72707500D01*
X201648819Y-72707500D01*
X201325304Y-72707500D01*
X201214873Y-72819319D01*
X201104443Y-72931139D01*
X201104443Y-72931139D01*
G36*
X201146833Y-74210333D02*
X201273833Y-74210333D01*
X201400833Y-74210333D01*
X201400833Y-74136250D01*
X201400833Y-74062166D01*
X201273833Y-74062166D01*
X201146833Y-74062166D01*
X201146833Y-74136250D01*
X201146833Y-74210333D01*
X201146833Y-74210333D01*
X201146833Y-74210333D01*
G37*
X201146833Y-74210333D02*
X201273833Y-74210333D01*
X201400833Y-74210333D01*
X201400833Y-74136250D01*
X201400833Y-74062166D01*
X201273833Y-74062166D01*
X201146833Y-74062166D01*
X201146833Y-74136250D01*
X201146833Y-74210333D01*
X201146833Y-74210333D01*
G36*
X201676000Y-74136250D02*
X201678413Y-74164695D01*
X201692026Y-74180539D01*
X201726405Y-74187460D01*
X201791113Y-74189136D01*
X201813583Y-74189166D01*
X201887542Y-74188238D01*
X201928737Y-74183002D01*
X201946730Y-74169780D01*
X201951087Y-74144892D01*
X201951167Y-74136250D01*
X201948754Y-74107804D01*
X201935141Y-74091960D01*
X201900762Y-74085039D01*
X201836054Y-74083363D01*
X201813583Y-74083333D01*
X201739625Y-74084261D01*
X201698430Y-74089497D01*
X201680437Y-74102719D01*
X201676080Y-74127607D01*
X201676000Y-74136250D01*
X201676000Y-74136250D01*
X201676000Y-74136250D01*
G37*
X201676000Y-74136250D02*
X201678413Y-74164695D01*
X201692026Y-74180539D01*
X201726405Y-74187460D01*
X201791113Y-74189136D01*
X201813583Y-74189166D01*
X201887542Y-74188238D01*
X201928737Y-74183002D01*
X201946730Y-74169780D01*
X201951087Y-74144892D01*
X201951167Y-74136250D01*
X201948754Y-74107804D01*
X201935141Y-74091960D01*
X201900762Y-74085039D01*
X201836054Y-74083363D01*
X201813583Y-74083333D01*
X201739625Y-74084261D01*
X201698430Y-74089497D01*
X201680437Y-74102719D01*
X201676080Y-74127607D01*
X201676000Y-74136250D01*
X201676000Y-74136250D01*
G36*
X201676000Y-73839916D02*
X201678689Y-73869243D01*
X201693383Y-73885077D01*
X201730023Y-73891559D01*
X201798549Y-73892832D01*
X201803000Y-73892833D01*
X201873385Y-73891712D01*
X201911386Y-73885590D01*
X201926943Y-73870323D01*
X201929997Y-73841771D01*
X201930000Y-73839916D01*
X201927311Y-73810589D01*
X201912617Y-73794755D01*
X201875977Y-73788273D01*
X201807452Y-73787001D01*
X201803000Y-73787000D01*
X201732615Y-73788120D01*
X201694614Y-73794242D01*
X201679057Y-73809509D01*
X201676003Y-73838061D01*
X201676000Y-73839916D01*
X201676000Y-73839916D01*
X201676000Y-73839916D01*
G37*
X201676000Y-73839916D02*
X201678689Y-73869243D01*
X201693383Y-73885077D01*
X201730023Y-73891559D01*
X201798549Y-73892832D01*
X201803000Y-73892833D01*
X201873385Y-73891712D01*
X201911386Y-73885590D01*
X201926943Y-73870323D01*
X201929997Y-73841771D01*
X201930000Y-73839916D01*
X201927311Y-73810589D01*
X201912617Y-73794755D01*
X201875977Y-73788273D01*
X201807452Y-73787001D01*
X201803000Y-73787000D01*
X201732615Y-73788120D01*
X201694614Y-73794242D01*
X201679057Y-73809509D01*
X201676003Y-73838061D01*
X201676000Y-73839916D01*
X201676000Y-73839916D01*
G36*
X201149391Y-73867684D02*
X201158589Y-73881676D01*
X201186058Y-73889192D01*
X201239607Y-73892242D01*
X201327045Y-73892832D01*
X201335861Y-73892833D01*
X201426457Y-73892438D01*
X201482835Y-73889738D01*
X201513111Y-73882462D01*
X201525401Y-73868337D01*
X201527820Y-73845092D01*
X201527833Y-73839092D01*
X201527833Y-73785351D01*
X201342625Y-73791467D01*
X201253552Y-73795141D01*
X201198272Y-73800570D01*
X201168251Y-73810143D01*
X201154953Y-73826250D01*
X201150653Y-73845208D01*
X201149391Y-73867684D01*
X201149391Y-73867684D01*
X201149391Y-73867684D01*
G37*
X201149391Y-73867684D02*
X201158589Y-73881676D01*
X201186058Y-73889192D01*
X201239607Y-73892242D01*
X201327045Y-73892832D01*
X201335861Y-73892833D01*
X201426457Y-73892438D01*
X201482835Y-73889738D01*
X201513111Y-73882462D01*
X201525401Y-73868337D01*
X201527820Y-73845092D01*
X201527833Y-73839092D01*
X201527833Y-73785351D01*
X201342625Y-73791467D01*
X201253552Y-73795141D01*
X201198272Y-73800570D01*
X201168251Y-73810143D01*
X201154953Y-73826250D01*
X201150653Y-73845208D01*
X201149391Y-73867684D01*
X201149391Y-73867684D01*
G36*
X137411622Y-71392418D02*
X137413762Y-71986076D01*
X137414000Y-72170945D01*
X137415968Y-72811217D01*
X137422635Y-73301453D01*
X137435144Y-73660914D01*
X137454639Y-73908861D01*
X137482265Y-74064554D01*
X137519165Y-74147252D01*
X137532169Y-74160670D01*
X137699404Y-74232142D01*
X137837333Y-74262474D01*
X137837333Y-73808748D01*
X137837333Y-72215371D01*
X137841389Y-71694909D01*
X137852750Y-71245332D01*
X137870205Y-70891665D01*
X137892547Y-70658937D01*
X137916725Y-70572926D01*
X138028173Y-70542092D01*
X138270448Y-70495619D01*
X138606507Y-70440095D01*
X138953892Y-70388485D01*
X139582360Y-70326536D01*
X140309949Y-70298245D01*
X141079863Y-70302497D01*
X141835308Y-70338179D01*
X142519486Y-70404176D01*
X142917333Y-70466237D01*
X143467667Y-70570859D01*
X143490634Y-72192143D01*
X143513601Y-73813426D01*
X142940301Y-73904198D01*
X142604387Y-73956928D01*
X142299576Y-74004002D01*
X142113000Y-74032091D01*
X141872831Y-74049739D01*
X141501475Y-74056161D01*
X141036617Y-74052617D01*
X140515943Y-74040364D01*
X139977138Y-74020660D01*
X139457888Y-73994761D01*
X138995878Y-73963926D01*
X138628794Y-73929412D01*
X138493500Y-73911306D01*
X137837333Y-73808748D01*
X137837333Y-74262474D01*
X138008725Y-74300166D01*
X138432887Y-74362037D01*
X138944644Y-74415051D01*
X139516751Y-74456504D01*
X140121961Y-74483692D01*
X140733031Y-74493910D01*
X140885333Y-74493483D01*
X141370331Y-74488260D01*
X141809111Y-74480201D01*
X142167846Y-74470183D01*
X142412708Y-74459080D01*
X142494000Y-74451816D01*
X143000572Y-74368236D01*
X143408361Y-74285708D01*
X143693538Y-74209632D01*
X143827500Y-74149674D01*
X143864535Y-74071849D01*
X143892694Y-73896790D01*
X143912802Y-73609075D01*
X143925683Y-73193284D01*
X143932163Y-72633996D01*
X143933333Y-72170945D01*
X143932382Y-71554599D01*
X143928423Y-71086164D01*
X143919800Y-70744224D01*
X143904856Y-70507362D01*
X143881934Y-70354160D01*
X143849378Y-70263203D01*
X143805532Y-70213073D01*
X143780688Y-70197597D01*
X143514800Y-70104179D01*
X143109239Y-70024175D01*
X142593227Y-69958830D01*
X141995985Y-69909389D01*
X141346736Y-69877099D01*
X140674702Y-69863204D01*
X140009104Y-69868950D01*
X139379166Y-69895582D01*
X138814109Y-69944346D01*
X138575807Y-69975783D01*
X138210342Y-70027423D01*
X137930238Y-70072352D01*
X137724234Y-70131847D01*
X137581071Y-70227182D01*
X137489488Y-70379632D01*
X137438225Y-70610471D01*
X137416023Y-70940975D01*
X137411622Y-71392418D01*
X137411622Y-71392418D01*
X137411622Y-71392418D01*
G37*
X137411622Y-71392418D02*
X137413762Y-71986076D01*
X137414000Y-72170945D01*
X137415968Y-72811217D01*
X137422635Y-73301453D01*
X137435144Y-73660914D01*
X137454639Y-73908861D01*
X137482265Y-74064554D01*
X137519165Y-74147252D01*
X137532169Y-74160670D01*
X137699404Y-74232142D01*
X137837333Y-74262474D01*
X137837333Y-73808748D01*
X137837333Y-72215371D01*
X137841389Y-71694909D01*
X137852750Y-71245332D01*
X137870205Y-70891665D01*
X137892547Y-70658937D01*
X137916725Y-70572926D01*
X138028173Y-70542092D01*
X138270448Y-70495619D01*
X138606507Y-70440095D01*
X138953892Y-70388485D01*
X139582360Y-70326536D01*
X140309949Y-70298245D01*
X141079863Y-70302497D01*
X141835308Y-70338179D01*
X142519486Y-70404176D01*
X142917333Y-70466237D01*
X143467667Y-70570859D01*
X143490634Y-72192143D01*
X143513601Y-73813426D01*
X142940301Y-73904198D01*
X142604387Y-73956928D01*
X142299576Y-74004002D01*
X142113000Y-74032091D01*
X141872831Y-74049739D01*
X141501475Y-74056161D01*
X141036617Y-74052617D01*
X140515943Y-74040364D01*
X139977138Y-74020660D01*
X139457888Y-73994761D01*
X138995878Y-73963926D01*
X138628794Y-73929412D01*
X138493500Y-73911306D01*
X137837333Y-73808748D01*
X137837333Y-74262474D01*
X138008725Y-74300166D01*
X138432887Y-74362037D01*
X138944644Y-74415051D01*
X139516751Y-74456504D01*
X140121961Y-74483692D01*
X140733031Y-74493910D01*
X140885333Y-74493483D01*
X141370331Y-74488260D01*
X141809111Y-74480201D01*
X142167846Y-74470183D01*
X142412708Y-74459080D01*
X142494000Y-74451816D01*
X143000572Y-74368236D01*
X143408361Y-74285708D01*
X143693538Y-74209632D01*
X143827500Y-74149674D01*
X143864535Y-74071849D01*
X143892694Y-73896790D01*
X143912802Y-73609075D01*
X143925683Y-73193284D01*
X143932163Y-72633996D01*
X143933333Y-72170945D01*
X143932382Y-71554599D01*
X143928423Y-71086164D01*
X143919800Y-70744224D01*
X143904856Y-70507362D01*
X143881934Y-70354160D01*
X143849378Y-70263203D01*
X143805532Y-70213073D01*
X143780688Y-70197597D01*
X143514800Y-70104179D01*
X143109239Y-70024175D01*
X142593227Y-69958830D01*
X141995985Y-69909389D01*
X141346736Y-69877099D01*
X140674702Y-69863204D01*
X140009104Y-69868950D01*
X139379166Y-69895582D01*
X138814109Y-69944346D01*
X138575807Y-69975783D01*
X138210342Y-70027423D01*
X137930238Y-70072352D01*
X137724234Y-70131847D01*
X137581071Y-70227182D01*
X137489488Y-70379632D01*
X137438225Y-70610471D01*
X137416023Y-70940975D01*
X137411622Y-71392418D01*
X137411622Y-71392418D01*
G36*
X140373330Y-72537396D02*
X140420811Y-72920950D01*
X140585553Y-73270481D01*
X140859839Y-73539811D01*
X141001097Y-73613168D01*
X141189433Y-73663105D01*
X141460285Y-73694878D01*
X141849089Y-73713742D01*
X142070667Y-73719393D01*
X142467061Y-73723691D01*
X142805353Y-73719729D01*
X143047130Y-73708450D01*
X143150167Y-73692953D01*
X143239029Y-73575885D01*
X143247116Y-73397760D01*
X143179306Y-73243596D01*
X143122075Y-73203391D01*
X142983273Y-73181378D01*
X142719201Y-73164077D01*
X142373907Y-73153813D01*
X142148409Y-73152000D01*
X141666865Y-73136429D01*
X141330329Y-73082481D01*
X141116728Y-72979299D01*
X141003987Y-72816028D01*
X140970033Y-72581811D01*
X140970000Y-72572455D01*
X141036498Y-72308492D01*
X141241142Y-72121644D01*
X141591658Y-72006320D01*
X141793076Y-71976904D01*
X142068639Y-71941063D01*
X142215307Y-71895056D01*
X142273127Y-71817255D01*
X142282333Y-71712666D01*
X142271369Y-71598268D01*
X142213036Y-71531955D01*
X142069176Y-71497166D01*
X141801631Y-71477341D01*
X141732000Y-71473817D01*
X141315720Y-71477844D01*
X141016020Y-71542245D01*
X140921721Y-71584786D01*
X140625058Y-71829094D01*
X140441837Y-72160037D01*
X140373330Y-72537396D01*
X140373330Y-72537396D01*
X140373330Y-72537396D01*
G37*
X140373330Y-72537396D02*
X140420811Y-72920950D01*
X140585553Y-73270481D01*
X140859839Y-73539811D01*
X141001097Y-73613168D01*
X141189433Y-73663105D01*
X141460285Y-73694878D01*
X141849089Y-73713742D01*
X142070667Y-73719393D01*
X142467061Y-73723691D01*
X142805353Y-73719729D01*
X143047130Y-73708450D01*
X143150167Y-73692953D01*
X143239029Y-73575885D01*
X143247116Y-73397760D01*
X143179306Y-73243596D01*
X143122075Y-73203391D01*
X142983273Y-73181378D01*
X142719201Y-73164077D01*
X142373907Y-73153813D01*
X142148409Y-73152000D01*
X141666865Y-73136429D01*
X141330329Y-73082481D01*
X141116728Y-72979299D01*
X141003987Y-72816028D01*
X140970033Y-72581811D01*
X140970000Y-72572455D01*
X141036498Y-72308492D01*
X141241142Y-72121644D01*
X141591658Y-72006320D01*
X141793076Y-71976904D01*
X142068639Y-71941063D01*
X142215307Y-71895056D01*
X142273127Y-71817255D01*
X142282333Y-71712666D01*
X142271369Y-71598268D01*
X142213036Y-71531955D01*
X142069176Y-71497166D01*
X141801631Y-71477341D01*
X141732000Y-71473817D01*
X141315720Y-71477844D01*
X141016020Y-71542245D01*
X140921721Y-71584786D01*
X140625058Y-71829094D01*
X140441837Y-72160037D01*
X140373330Y-72537396D01*
X140373330Y-72537396D01*
G36*
X138176932Y-72628399D02*
X138196862Y-73151157D01*
X138257661Y-73514069D01*
X138358706Y-73715846D01*
X138499376Y-73755203D01*
X138667067Y-73643066D01*
X138720318Y-73497488D01*
X138754314Y-73190882D01*
X138768324Y-72730537D01*
X138768667Y-72631050D01*
X138777236Y-72233735D01*
X138800370Y-71881407D01*
X138834210Y-71619877D01*
X138862759Y-71514124D01*
X139006325Y-71344654D01*
X139240672Y-71197565D01*
X139286092Y-71178284D01*
X139507162Y-71067786D01*
X139601993Y-70941972D01*
X139615333Y-70836685D01*
X139551361Y-70660243D01*
X139383431Y-70576667D01*
X139147525Y-70583481D01*
X138879626Y-70678205D01*
X138615716Y-70858361D01*
X138561722Y-70909255D01*
X138410440Y-71085985D01*
X138303784Y-71285797D01*
X138234483Y-71541186D01*
X138195263Y-71884649D01*
X138178851Y-72348682D01*
X138176932Y-72628399D01*
X138176932Y-72628399D01*
X138176932Y-72628399D01*
G37*
X138176932Y-72628399D02*
X138196862Y-73151157D01*
X138257661Y-73514069D01*
X138358706Y-73715846D01*
X138499376Y-73755203D01*
X138667067Y-73643066D01*
X138720318Y-73497488D01*
X138754314Y-73190882D01*
X138768324Y-72730537D01*
X138768667Y-72631050D01*
X138777236Y-72233735D01*
X138800370Y-71881407D01*
X138834210Y-71619877D01*
X138862759Y-71514124D01*
X139006325Y-71344654D01*
X139240672Y-71197565D01*
X139286092Y-71178284D01*
X139507162Y-71067786D01*
X139601993Y-70941972D01*
X139615333Y-70836685D01*
X139551361Y-70660243D01*
X139383431Y-70576667D01*
X139147525Y-70583481D01*
X138879626Y-70678205D01*
X138615716Y-70858361D01*
X138561722Y-70909255D01*
X138410440Y-71085985D01*
X138303784Y-71285797D01*
X138234483Y-71541186D01*
X138195263Y-71884649D01*
X138178851Y-72348682D01*
X138176932Y-72628399D01*
X138176932Y-72628399D01*
G36*
X139520801Y-72262520D02*
X139544826Y-72559519D01*
X139596783Y-72769327D01*
X139657667Y-72843951D01*
X139849695Y-72874023D01*
X139970143Y-72777621D01*
X140028889Y-72540874D01*
X140038667Y-72308909D01*
X140073746Y-71813412D01*
X140181015Y-71463937D01*
X140363521Y-71251931D01*
X140427865Y-71216336D01*
X140605306Y-71173401D01*
X140900414Y-71140319D01*
X141261592Y-71122058D01*
X141428233Y-71120000D01*
X141819858Y-71125548D01*
X142084654Y-71147080D01*
X142264902Y-71191927D01*
X142402886Y-71267422D01*
X142440249Y-71295478D01*
X142619246Y-71524739D01*
X142656798Y-71787950D01*
X142549614Y-72034950D01*
X142492688Y-72094854D01*
X142269794Y-72209454D01*
X141920358Y-72280508D01*
X141836521Y-72288644D01*
X141472152Y-72345077D01*
X141271352Y-72442606D01*
X141233192Y-72582155D01*
X141356743Y-72764647D01*
X141357048Y-72764952D01*
X141554147Y-72862949D01*
X141876777Y-72880715D01*
X142336879Y-72818860D01*
X142353249Y-72815719D01*
X142732998Y-72669080D01*
X143011444Y-72417501D01*
X143184504Y-72094686D01*
X143248099Y-71734335D01*
X143198146Y-71370151D01*
X143030565Y-71035837D01*
X142741274Y-70765094D01*
X142610472Y-70691569D01*
X142427140Y-70612187D01*
X142243711Y-70561824D01*
X142018663Y-70535875D01*
X141710472Y-70529734D01*
X141277616Y-70538796D01*
X141242509Y-70539852D01*
X140749514Y-70562266D01*
X140391565Y-70602823D01*
X140134477Y-70673716D01*
X139944068Y-70787137D01*
X139786155Y-70955277D01*
X139688375Y-71094171D01*
X139608495Y-71294154D01*
X139553418Y-71585259D01*
X139523926Y-71922907D01*
X139520801Y-72262520D01*
X139520801Y-72262520D01*
X139520801Y-72262520D01*
G37*
X139520801Y-72262520D02*
X139544826Y-72559519D01*
X139596783Y-72769327D01*
X139657667Y-72843951D01*
X139849695Y-72874023D01*
X139970143Y-72777621D01*
X140028889Y-72540874D01*
X140038667Y-72308909D01*
X140073746Y-71813412D01*
X140181015Y-71463937D01*
X140363521Y-71251931D01*
X140427865Y-71216336D01*
X140605306Y-71173401D01*
X140900414Y-71140319D01*
X141261592Y-71122058D01*
X141428233Y-71120000D01*
X141819858Y-71125548D01*
X142084654Y-71147080D01*
X142264902Y-71191927D01*
X142402886Y-71267422D01*
X142440249Y-71295478D01*
X142619246Y-71524739D01*
X142656798Y-71787950D01*
X142549614Y-72034950D01*
X142492688Y-72094854D01*
X142269794Y-72209454D01*
X141920358Y-72280508D01*
X141836521Y-72288644D01*
X141472152Y-72345077D01*
X141271352Y-72442606D01*
X141233192Y-72582155D01*
X141356743Y-72764647D01*
X141357048Y-72764952D01*
X141554147Y-72862949D01*
X141876777Y-72880715D01*
X142336879Y-72818860D01*
X142353249Y-72815719D01*
X142732998Y-72669080D01*
X143011444Y-72417501D01*
X143184504Y-72094686D01*
X143248099Y-71734335D01*
X143198146Y-71370151D01*
X143030565Y-71035837D01*
X142741274Y-70765094D01*
X142610472Y-70691569D01*
X142427140Y-70612187D01*
X142243711Y-70561824D01*
X142018663Y-70535875D01*
X141710472Y-70529734D01*
X141277616Y-70538796D01*
X141242509Y-70539852D01*
X140749514Y-70562266D01*
X140391565Y-70602823D01*
X140134477Y-70673716D01*
X139944068Y-70787137D01*
X139786155Y-70955277D01*
X139688375Y-71094171D01*
X139608495Y-71294154D01*
X139553418Y-71585259D01*
X139523926Y-71922907D01*
X139520801Y-72262520D01*
X139520801Y-72262520D01*
D12*
X134493000Y-56388000D02*
X135001000Y-55880000D01*
X135001000Y-55880000D02*
X134493000Y-55372000D01*
X129159000Y-55880000D02*
X129667000Y-55372000D01*
X129667000Y-56388000D02*
X129159000Y-55880000D01*
X134493000Y-55372000D02*
X129667000Y-55372000D01*
X134493000Y-56388000D02*
X129667000Y-56388000D01*
X128778000Y-56007000D02*
X129286000Y-56642000D01*
X128778000Y-56007000D02*
X128397000Y-56515000D01*
X129540000Y-60579000D02*
X129286000Y-56642000D01*
X129540000Y-60579000D02*
X129159000Y-61214000D01*
X128397000Y-56515000D02*
X128651000Y-60706000D01*
X128651000Y-60706000D02*
X129159000Y-61214000D01*
X128397000Y-50673000D02*
X128905000Y-51308000D01*
X128397000Y-50673000D02*
X128016000Y-51181000D01*
X129159000Y-55245000D02*
X128905000Y-51308000D01*
X129159000Y-55245000D02*
X128778000Y-55880000D01*
X128016000Y-51181000D02*
X128270000Y-55372000D01*
X128270000Y-55372000D02*
X128778000Y-55880000D01*
X135509000Y-56007000D02*
X136017000Y-56642000D01*
X135509000Y-56007000D02*
X135128000Y-56515000D01*
X136271000Y-60579000D02*
X136017000Y-56642000D01*
X136271000Y-60579000D02*
X135890000Y-61214000D01*
X135128000Y-56515000D02*
X135382000Y-60706000D01*
X135382000Y-60706000D02*
X135890000Y-61214000D01*
X135128000Y-50673000D02*
X135636000Y-51308000D01*
X135128000Y-50673000D02*
X134747000Y-51181000D01*
X135890000Y-55245000D02*
X135636000Y-51308000D01*
X135890000Y-55245000D02*
X135509000Y-55880000D01*
X134747000Y-51181000D02*
X135001000Y-55372000D01*
X135001000Y-55372000D02*
X135509000Y-55880000D01*
X129794000Y-61976000D02*
X129286000Y-61468000D01*
X129286000Y-61468000D02*
X129794000Y-60960000D01*
X135255000Y-60960000D02*
X129794000Y-60960000D01*
X129794000Y-61976000D02*
X135255000Y-61976000D01*
X135763000Y-61468000D02*
X135255000Y-60960000D01*
X135255000Y-61976000D02*
X135763000Y-61468000D01*
X129032000Y-50800000D02*
X128524000Y-50292000D01*
X128524000Y-50292000D02*
X129032000Y-49784000D01*
X134493000Y-49784000D02*
X129032000Y-49784000D01*
X129032000Y-50800000D02*
X134493000Y-50800000D01*
X135001000Y-50292000D02*
X134493000Y-49784000D01*
X134493000Y-50800000D02*
X135001000Y-50292000D01*
X127577751Y-61277000D02*
G75*
G03X127577751Y-61277000I-671751J0D01*
G01*
X125830000Y-45364000D02*
X138330000Y-45364000D01*
X138330000Y-45364000D02*
X138330000Y-66396000D01*
X138330000Y-66396000D02*
X125830000Y-66396000D01*
X125830000Y-66396000D02*
X125830000Y-45364000D01*
X149733000Y-56388000D02*
X150241000Y-55880000D01*
X150241000Y-55880000D02*
X149733000Y-55372000D01*
X144399000Y-55880000D02*
X144907000Y-55372000D01*
X144907000Y-56388000D02*
X144399000Y-55880000D01*
X149733000Y-55372000D02*
X144907000Y-55372000D01*
X149733000Y-56388000D02*
X144907000Y-56388000D01*
X144018000Y-56007000D02*
X144526000Y-56642000D01*
X144018000Y-56007000D02*
X143637000Y-56515000D01*
X144780000Y-60579000D02*
X144526000Y-56642000D01*
X144780000Y-60579000D02*
X144399000Y-61214000D01*
X143637000Y-56515000D02*
X143891000Y-60706000D01*
X143891000Y-60706000D02*
X144399000Y-61214000D01*
X143637000Y-50673000D02*
X144145000Y-51308000D01*
X143637000Y-50673000D02*
X143256000Y-51181000D01*
X144399000Y-55245000D02*
X144145000Y-51308000D01*
X144399000Y-55245000D02*
X144018000Y-55880000D01*
X143256000Y-51181000D02*
X143510000Y-55372000D01*
X143510000Y-55372000D02*
X144018000Y-55880000D01*
X150749000Y-56007000D02*
X151257000Y-56642000D01*
X150749000Y-56007000D02*
X150368000Y-56515000D01*
X151511000Y-60579000D02*
X151257000Y-56642000D01*
X151511000Y-60579000D02*
X151130000Y-61214000D01*
X150368000Y-56515000D02*
X150622000Y-60706000D01*
X150622000Y-60706000D02*
X151130000Y-61214000D01*
X150368000Y-50673000D02*
X150876000Y-51308000D01*
X150368000Y-50673000D02*
X149987000Y-51181000D01*
X151130000Y-55245000D02*
X150876000Y-51308000D01*
X151130000Y-55245000D02*
X150749000Y-55880000D01*
X149987000Y-51181000D02*
X150241000Y-55372000D01*
X150241000Y-55372000D02*
X150749000Y-55880000D01*
X145034000Y-61976000D02*
X144526000Y-61468000D01*
X144526000Y-61468000D02*
X145034000Y-60960000D01*
X150495000Y-60960000D02*
X145034000Y-60960000D01*
X145034000Y-61976000D02*
X150495000Y-61976000D01*
X151003000Y-61468000D02*
X150495000Y-60960000D01*
X150495000Y-61976000D02*
X151003000Y-61468000D01*
X144272000Y-50800000D02*
X143764000Y-50292000D01*
X143764000Y-50292000D02*
X144272000Y-49784000D01*
X149733000Y-49784000D02*
X144272000Y-49784000D01*
X144272000Y-50800000D02*
X149733000Y-50800000D01*
X150241000Y-50292000D02*
X149733000Y-49784000D01*
X149733000Y-50800000D02*
X150241000Y-50292000D01*
X142817751Y-61277000D02*
G75*
G03X142817751Y-61277000I-671751J0D01*
G01*
X141070000Y-45364000D02*
X153570000Y-45364000D01*
X153570000Y-45364000D02*
X153570000Y-66396000D01*
X153570000Y-66396000D02*
X141070000Y-66396000D01*
X141070000Y-66396000D02*
X141070000Y-45364000D01*
X172593000Y-56388000D02*
X173101000Y-55880000D01*
X173101000Y-55880000D02*
X172593000Y-55372000D01*
X167259000Y-55880000D02*
X167767000Y-55372000D01*
X167767000Y-56388000D02*
X167259000Y-55880000D01*
X172593000Y-55372000D02*
X167767000Y-55372000D01*
X172593000Y-56388000D02*
X167767000Y-56388000D01*
X166878000Y-56007000D02*
X167386000Y-56642000D01*
X166878000Y-56007000D02*
X166497000Y-56515000D01*
X167640000Y-60579000D02*
X167386000Y-56642000D01*
X167640000Y-60579000D02*
X167259000Y-61214000D01*
X166497000Y-56515000D02*
X166751000Y-60706000D01*
X166751000Y-60706000D02*
X167259000Y-61214000D01*
X166497000Y-50673000D02*
X167005000Y-51308000D01*
X166497000Y-50673000D02*
X166116000Y-51181000D01*
X167259000Y-55245000D02*
X167005000Y-51308000D01*
X167259000Y-55245000D02*
X166878000Y-55880000D01*
X166116000Y-51181000D02*
X166370000Y-55372000D01*
X166370000Y-55372000D02*
X166878000Y-55880000D01*
X173609000Y-56007000D02*
X174117000Y-56642000D01*
X173609000Y-56007000D02*
X173228000Y-56515000D01*
X174371000Y-60579000D02*
X174117000Y-56642000D01*
X174371000Y-60579000D02*
X173990000Y-61214000D01*
X173228000Y-56515000D02*
X173482000Y-60706000D01*
X173482000Y-60706000D02*
X173990000Y-61214000D01*
X173228000Y-50673000D02*
X173736000Y-51308000D01*
X173228000Y-50673000D02*
X172847000Y-51181000D01*
X173990000Y-55245000D02*
X173736000Y-51308000D01*
X173990000Y-55245000D02*
X173609000Y-55880000D01*
X172847000Y-51181000D02*
X173101000Y-55372000D01*
X173101000Y-55372000D02*
X173609000Y-55880000D01*
X167894000Y-61976000D02*
X167386000Y-61468000D01*
X167386000Y-61468000D02*
X167894000Y-60960000D01*
X173355000Y-60960000D02*
X167894000Y-60960000D01*
X167894000Y-61976000D02*
X173355000Y-61976000D01*
X173863000Y-61468000D02*
X173355000Y-60960000D01*
X173355000Y-61976000D02*
X173863000Y-61468000D01*
X167132000Y-50800000D02*
X166624000Y-50292000D01*
X166624000Y-50292000D02*
X167132000Y-49784000D01*
X172593000Y-49784000D02*
X167132000Y-49784000D01*
X167132000Y-50800000D02*
X172593000Y-50800000D01*
X173101000Y-50292000D02*
X172593000Y-49784000D01*
X172593000Y-50800000D02*
X173101000Y-50292000D01*
X165677751Y-61277000D02*
G75*
G03X165677751Y-61277000I-671751J0D01*
G01*
X163930000Y-45364000D02*
X176430000Y-45364000D01*
X176430000Y-45364000D02*
X176430000Y-66396000D01*
X176430000Y-66396000D02*
X163930000Y-66396000D01*
X163930000Y-66396000D02*
X163930000Y-45364000D01*
X187833000Y-56388000D02*
X188341000Y-55880000D01*
X188341000Y-55880000D02*
X187833000Y-55372000D01*
X182499000Y-55880000D02*
X183007000Y-55372000D01*
X183007000Y-56388000D02*
X182499000Y-55880000D01*
X187833000Y-55372000D02*
X183007000Y-55372000D01*
X187833000Y-56388000D02*
X183007000Y-56388000D01*
X182118000Y-56007000D02*
X182626000Y-56642000D01*
X182118000Y-56007000D02*
X181737000Y-56515000D01*
X182880000Y-60579000D02*
X182626000Y-56642000D01*
X182880000Y-60579000D02*
X182499000Y-61214000D01*
X181737000Y-56515000D02*
X181991000Y-60706000D01*
X181991000Y-60706000D02*
X182499000Y-61214000D01*
X181737000Y-50673000D02*
X182245000Y-51308000D01*
X181737000Y-50673000D02*
X181356000Y-51181000D01*
X182499000Y-55245000D02*
X182245000Y-51308000D01*
X182499000Y-55245000D02*
X182118000Y-55880000D01*
X181356000Y-51181000D02*
X181610000Y-55372000D01*
X181610000Y-55372000D02*
X182118000Y-55880000D01*
X188849000Y-56007000D02*
X189357000Y-56642000D01*
X188849000Y-56007000D02*
X188468000Y-56515000D01*
X189611000Y-60579000D02*
X189357000Y-56642000D01*
X189611000Y-60579000D02*
X189230000Y-61214000D01*
X188468000Y-56515000D02*
X188722000Y-60706000D01*
X188722000Y-60706000D02*
X189230000Y-61214000D01*
X188468000Y-50673000D02*
X188976000Y-51308000D01*
X188468000Y-50673000D02*
X188087000Y-51181000D01*
X189230000Y-55245000D02*
X188976000Y-51308000D01*
X189230000Y-55245000D02*
X188849000Y-55880000D01*
X188087000Y-51181000D02*
X188341000Y-55372000D01*
X188341000Y-55372000D02*
X188849000Y-55880000D01*
X183134000Y-61976000D02*
X182626000Y-61468000D01*
X182626000Y-61468000D02*
X183134000Y-60960000D01*
X188595000Y-60960000D02*
X183134000Y-60960000D01*
X183134000Y-61976000D02*
X188595000Y-61976000D01*
X189103000Y-61468000D02*
X188595000Y-60960000D01*
X188595000Y-61976000D02*
X189103000Y-61468000D01*
X182372000Y-50800000D02*
X181864000Y-50292000D01*
X181864000Y-50292000D02*
X182372000Y-49784000D01*
X187833000Y-49784000D02*
X182372000Y-49784000D01*
X182372000Y-50800000D02*
X187833000Y-50800000D01*
X188341000Y-50292000D02*
X187833000Y-49784000D01*
X187833000Y-50800000D02*
X188341000Y-50292000D01*
X180917751Y-61277000D02*
G75*
G03X180917751Y-61277000I-671751J0D01*
G01*
X179170000Y-45364000D02*
X191670000Y-45364000D01*
X191670000Y-45364000D02*
X191670000Y-66396000D01*
X191670000Y-66396000D02*
X179170000Y-66396000D01*
X179170000Y-66396000D02*
X179170000Y-45364000D01*
D11*
X160038142Y-58383714D02*
X160038142Y-57621714D01*
X159856714Y-57621714D01*
X159747857Y-57658000D01*
X159675285Y-57730571D01*
X159639000Y-57803143D01*
X159602714Y-57948286D01*
X159602714Y-58057143D01*
X159639000Y-58202286D01*
X159675285Y-58274857D01*
X159747857Y-58347429D01*
X159856714Y-58383714D01*
X160038142Y-58383714D01*
X159312428Y-57694286D02*
X159276142Y-57658000D01*
X159203571Y-57621714D01*
X159022142Y-57621714D01*
X158949571Y-57658000D01*
X158913285Y-57694286D01*
X158877000Y-57766857D01*
X158877000Y-57839429D01*
X158913285Y-57948286D01*
X159348714Y-58383714D01*
X158877000Y-58383714D01*
X158405286Y-57621714D02*
X158332714Y-57621714D01*
X158260143Y-57658000D01*
X158223857Y-57694286D01*
X158187571Y-57766857D01*
X158151286Y-57912000D01*
X158151286Y-58093429D01*
X158187571Y-58238571D01*
X158223857Y-58311143D01*
X158260143Y-58347429D01*
X158332714Y-58383714D01*
X158405286Y-58383714D01*
X158477857Y-58347429D01*
X158514143Y-58311143D01*
X158550428Y-58238571D01*
X158586714Y-58093429D01*
X158586714Y-57912000D01*
X158550428Y-57766857D01*
X158514143Y-57694286D01*
X158477857Y-57658000D01*
X158405286Y-57621714D01*
X157425572Y-58383714D02*
X157861000Y-58383714D01*
X157643286Y-58383714D02*
X157643286Y-57621714D01*
X157715857Y-57730571D01*
X157788429Y-57803143D01*
X157861000Y-57839429D01*
X160038142Y-53684714D02*
X160038142Y-52922714D01*
X159856714Y-52922714D01*
X159747857Y-52959000D01*
X159675285Y-53031571D01*
X159639000Y-53104143D01*
X159602714Y-53249286D01*
X159602714Y-53358143D01*
X159639000Y-53503286D01*
X159675285Y-53575857D01*
X159747857Y-53648429D01*
X159856714Y-53684714D01*
X160038142Y-53684714D01*
X159312428Y-52995286D02*
X159276142Y-52959000D01*
X159203571Y-52922714D01*
X159022142Y-52922714D01*
X158949571Y-52959000D01*
X158913285Y-52995286D01*
X158877000Y-53067857D01*
X158877000Y-53140429D01*
X158913285Y-53249286D01*
X159348714Y-53684714D01*
X158877000Y-53684714D01*
X158405286Y-52922714D02*
X158332714Y-52922714D01*
X158260143Y-52959000D01*
X158223857Y-52995286D01*
X158187571Y-53067857D01*
X158151286Y-53213000D01*
X158151286Y-53394429D01*
X158187571Y-53539571D01*
X158223857Y-53612143D01*
X158260143Y-53648429D01*
X158332714Y-53684714D01*
X158405286Y-53684714D01*
X158477857Y-53648429D01*
X158514143Y-53612143D01*
X158550428Y-53539571D01*
X158586714Y-53394429D01*
X158586714Y-53213000D01*
X158550428Y-53067857D01*
X158514143Y-52995286D01*
X158477857Y-52959000D01*
X158405286Y-52922714D01*
X157861000Y-52995286D02*
X157824714Y-52959000D01*
X157752143Y-52922714D01*
X157570714Y-52922714D01*
X157498143Y-52959000D01*
X157461857Y-52995286D01*
X157425572Y-53067857D01*
X157425572Y-53140429D01*
X157461857Y-53249286D01*
X157897286Y-53684714D01*
X157425572Y-53684714D01*
X194654714Y-46971858D02*
X193892714Y-46971858D01*
X193892714Y-47153286D01*
X193929000Y-47262143D01*
X194001571Y-47334715D01*
X194074143Y-47371000D01*
X194219286Y-47407286D01*
X194328143Y-47407286D01*
X194473286Y-47371000D01*
X194545857Y-47334715D01*
X194618429Y-47262143D01*
X194654714Y-47153286D01*
X194654714Y-46971858D01*
X193965286Y-47697572D02*
X193929000Y-47733858D01*
X193892714Y-47806429D01*
X193892714Y-47987858D01*
X193929000Y-48060429D01*
X193965286Y-48096715D01*
X194037857Y-48133000D01*
X194110429Y-48133000D01*
X194219286Y-48096715D01*
X194654714Y-47661286D01*
X194654714Y-48133000D01*
X193892714Y-48604714D02*
X193892714Y-48677286D01*
X193929000Y-48749857D01*
X193965286Y-48786143D01*
X194037857Y-48822429D01*
X194183000Y-48858714D01*
X194364429Y-48858714D01*
X194509571Y-48822429D01*
X194582143Y-48786143D01*
X194618429Y-48749857D01*
X194654714Y-48677286D01*
X194654714Y-48604714D01*
X194618429Y-48532143D01*
X194582143Y-48495857D01*
X194509571Y-48459572D01*
X194364429Y-48423286D01*
X194183000Y-48423286D01*
X194037857Y-48459572D01*
X193965286Y-48495857D01*
X193929000Y-48532143D01*
X193892714Y-48604714D01*
X193892714Y-49112714D02*
X193892714Y-49584428D01*
X194183000Y-49330428D01*
X194183000Y-49439286D01*
X194219286Y-49511857D01*
X194255571Y-49548143D01*
X194328143Y-49584428D01*
X194509571Y-49584428D01*
X194582143Y-49548143D01*
X194618429Y-49511857D01*
X194654714Y-49439286D01*
X194654714Y-49221571D01*
X194618429Y-49149000D01*
X194582143Y-49112714D01*
X197194714Y-62211858D02*
X196432714Y-62211858D01*
X196432714Y-62393286D01*
X196469000Y-62502143D01*
X196541571Y-62574715D01*
X196614143Y-62611000D01*
X196759286Y-62647286D01*
X196868143Y-62647286D01*
X197013286Y-62611000D01*
X197085857Y-62574715D01*
X197158429Y-62502143D01*
X197194714Y-62393286D01*
X197194714Y-62211858D01*
X196505286Y-62937572D02*
X196469000Y-62973858D01*
X196432714Y-63046429D01*
X196432714Y-63227858D01*
X196469000Y-63300429D01*
X196505286Y-63336715D01*
X196577857Y-63373000D01*
X196650429Y-63373000D01*
X196759286Y-63336715D01*
X197194714Y-62901286D01*
X197194714Y-63373000D01*
X196432714Y-63844714D02*
X196432714Y-63917286D01*
X196469000Y-63989857D01*
X196505286Y-64026143D01*
X196577857Y-64062429D01*
X196723000Y-64098714D01*
X196904429Y-64098714D01*
X197049571Y-64062429D01*
X197122143Y-64026143D01*
X197158429Y-63989857D01*
X197194714Y-63917286D01*
X197194714Y-63844714D01*
X197158429Y-63772143D01*
X197122143Y-63735857D01*
X197049571Y-63699572D01*
X196904429Y-63663286D01*
X196723000Y-63663286D01*
X196577857Y-63699572D01*
X196505286Y-63735857D01*
X196469000Y-63772143D01*
X196432714Y-63844714D01*
X196686714Y-64751857D02*
X197194714Y-64751857D01*
X196396429Y-64570428D02*
X196940714Y-64389000D01*
X196940714Y-64860714D01*
X122264714Y-95231858D02*
X121502714Y-95231858D01*
X121502714Y-95522143D01*
X121539000Y-95594715D01*
X121575286Y-95631000D01*
X121647857Y-95667286D01*
X121756714Y-95667286D01*
X121829286Y-95631000D01*
X121865571Y-95594715D01*
X121901857Y-95522143D01*
X121901857Y-95231858D01*
X121575286Y-95957572D02*
X121539000Y-95993858D01*
X121502714Y-96066429D01*
X121502714Y-96247858D01*
X121539000Y-96320429D01*
X121575286Y-96356715D01*
X121647857Y-96393000D01*
X121720429Y-96393000D01*
X121829286Y-96356715D01*
X122264714Y-95921286D01*
X122264714Y-96393000D01*
X121502714Y-96864714D02*
X121502714Y-96937286D01*
X121539000Y-97009857D01*
X121575286Y-97046143D01*
X121647857Y-97082429D01*
X121793000Y-97118714D01*
X121974429Y-97118714D01*
X122119571Y-97082429D01*
X122192143Y-97046143D01*
X122228429Y-97009857D01*
X122264714Y-96937286D01*
X122264714Y-96864714D01*
X122228429Y-96792143D01*
X122192143Y-96755857D01*
X122119571Y-96719572D01*
X121974429Y-96683286D01*
X121793000Y-96683286D01*
X121647857Y-96719572D01*
X121575286Y-96755857D01*
X121539000Y-96792143D01*
X121502714Y-96864714D01*
X121502714Y-97372714D02*
X121502714Y-97844428D01*
X121793000Y-97590428D01*
X121793000Y-97699286D01*
X121829286Y-97771857D01*
X121865571Y-97808143D01*
X121938143Y-97844428D01*
X122119571Y-97844428D01*
X122192143Y-97808143D01*
X122228429Y-97771857D01*
X122264714Y-97699286D01*
X122264714Y-97481571D01*
X122228429Y-97409000D01*
X122192143Y-97372714D01*
X199734714Y-95231858D02*
X198972714Y-95231858D01*
X198972714Y-95522143D01*
X199009000Y-95594715D01*
X199045286Y-95631000D01*
X199117857Y-95667286D01*
X199226714Y-95667286D01*
X199299286Y-95631000D01*
X199335571Y-95594715D01*
X199371857Y-95522143D01*
X199371857Y-95231858D01*
X199045286Y-95957572D02*
X199009000Y-95993858D01*
X198972714Y-96066429D01*
X198972714Y-96247858D01*
X199009000Y-96320429D01*
X199045286Y-96356715D01*
X199117857Y-96393000D01*
X199190429Y-96393000D01*
X199299286Y-96356715D01*
X199734714Y-95921286D01*
X199734714Y-96393000D01*
X198972714Y-96864714D02*
X198972714Y-96937286D01*
X199009000Y-97009857D01*
X199045286Y-97046143D01*
X199117857Y-97082429D01*
X199263000Y-97118714D01*
X199444429Y-97118714D01*
X199589571Y-97082429D01*
X199662143Y-97046143D01*
X199698429Y-97009857D01*
X199734714Y-96937286D01*
X199734714Y-96864714D01*
X199698429Y-96792143D01*
X199662143Y-96755857D01*
X199589571Y-96719572D01*
X199444429Y-96683286D01*
X199263000Y-96683286D01*
X199117857Y-96719572D01*
X199045286Y-96755857D01*
X199009000Y-96792143D01*
X198972714Y-96864714D01*
X199226714Y-97771857D02*
X199734714Y-97771857D01*
X198936429Y-97590428D02*
X199480714Y-97409000D01*
X199480714Y-97880714D01*
X193824714Y-52487286D02*
X193461857Y-52233286D01*
X193824714Y-52051858D02*
X193062714Y-52051858D01*
X193062714Y-52342143D01*
X193099000Y-52414715D01*
X193135286Y-52451000D01*
X193207857Y-52487286D01*
X193316714Y-52487286D01*
X193389286Y-52451000D01*
X193425571Y-52414715D01*
X193461857Y-52342143D01*
X193461857Y-52051858D01*
X193135286Y-52777572D02*
X193099000Y-52813858D01*
X193062714Y-52886429D01*
X193062714Y-53067858D01*
X193099000Y-53140429D01*
X193135286Y-53176715D01*
X193207857Y-53213000D01*
X193280429Y-53213000D01*
X193389286Y-53176715D01*
X193824714Y-52741286D01*
X193824714Y-53213000D01*
X193062714Y-53684714D02*
X193062714Y-53757286D01*
X193099000Y-53829857D01*
X193135286Y-53866143D01*
X193207857Y-53902429D01*
X193353000Y-53938714D01*
X193534429Y-53938714D01*
X193679571Y-53902429D01*
X193752143Y-53866143D01*
X193788429Y-53829857D01*
X193824714Y-53757286D01*
X193824714Y-53684714D01*
X193788429Y-53612143D01*
X193752143Y-53575857D01*
X193679571Y-53539572D01*
X193534429Y-53503286D01*
X193353000Y-53503286D01*
X193207857Y-53539572D01*
X193135286Y-53575857D01*
X193099000Y-53612143D01*
X193062714Y-53684714D01*
X193062714Y-54192714D02*
X193062714Y-54664428D01*
X193353000Y-54410428D01*
X193353000Y-54519286D01*
X193389286Y-54591857D01*
X193425571Y-54628143D01*
X193498143Y-54664428D01*
X193679571Y-54664428D01*
X193752143Y-54628143D01*
X193788429Y-54591857D01*
X193824714Y-54519286D01*
X193824714Y-54301571D01*
X193788429Y-54229000D01*
X193752143Y-54192714D01*
X198024714Y-57567286D02*
X197661857Y-57313286D01*
X198024714Y-57131858D02*
X197262714Y-57131858D01*
X197262714Y-57422143D01*
X197299000Y-57494715D01*
X197335286Y-57531000D01*
X197407857Y-57567286D01*
X197516714Y-57567286D01*
X197589286Y-57531000D01*
X197625571Y-57494715D01*
X197661857Y-57422143D01*
X197661857Y-57131858D01*
X197335286Y-57857572D02*
X197299000Y-57893858D01*
X197262714Y-57966429D01*
X197262714Y-58147858D01*
X197299000Y-58220429D01*
X197335286Y-58256715D01*
X197407857Y-58293000D01*
X197480429Y-58293000D01*
X197589286Y-58256715D01*
X198024714Y-57821286D01*
X198024714Y-58293000D01*
X197262714Y-58764714D02*
X197262714Y-58837286D01*
X197299000Y-58909857D01*
X197335286Y-58946143D01*
X197407857Y-58982429D01*
X197553000Y-59018714D01*
X197734429Y-59018714D01*
X197879571Y-58982429D01*
X197952143Y-58946143D01*
X197988429Y-58909857D01*
X198024714Y-58837286D01*
X198024714Y-58764714D01*
X197988429Y-58692143D01*
X197952143Y-58655857D01*
X197879571Y-58619572D01*
X197734429Y-58583286D01*
X197553000Y-58583286D01*
X197407857Y-58619572D01*
X197335286Y-58655857D01*
X197299000Y-58692143D01*
X197262714Y-58764714D01*
X197516714Y-59671857D02*
X198024714Y-59671857D01*
X197226429Y-59490428D02*
X197770714Y-59309000D01*
X197770714Y-59780714D01*
X134003142Y-44577000D02*
X133640285Y-44577000D01*
X134075714Y-44794714D02*
X133821714Y-44032714D01*
X133567714Y-44794714D01*
X133059713Y-44395571D02*
X133313713Y-44395571D01*
X133313713Y-44794714D02*
X133313713Y-44032714D01*
X132950856Y-44032714D01*
X132406570Y-44395571D02*
X132660570Y-44395571D01*
X132660570Y-44794714D02*
X132660570Y-44032714D01*
X132297713Y-44032714D01*
X132043713Y-44105286D02*
X132007427Y-44069000D01*
X131934856Y-44032714D01*
X131753427Y-44032714D01*
X131680856Y-44069000D01*
X131644570Y-44105286D01*
X131608285Y-44177857D01*
X131608285Y-44250429D01*
X131644570Y-44359286D01*
X132079999Y-44794714D01*
X131608285Y-44794714D01*
X131136571Y-44032714D02*
X131063999Y-44032714D01*
X130991428Y-44069000D01*
X130955142Y-44105286D01*
X130918856Y-44177857D01*
X130882571Y-44323000D01*
X130882571Y-44504429D01*
X130918856Y-44649571D01*
X130955142Y-44722143D01*
X130991428Y-44758429D01*
X131063999Y-44794714D01*
X131136571Y-44794714D01*
X131209142Y-44758429D01*
X131245428Y-44722143D01*
X131281713Y-44649571D01*
X131317999Y-44504429D01*
X131317999Y-44323000D01*
X131281713Y-44177857D01*
X131245428Y-44105286D01*
X131209142Y-44069000D01*
X131136571Y-44032714D01*
X130229428Y-44286714D02*
X130229428Y-44794714D01*
X130410857Y-43996429D02*
X130592285Y-44540714D01*
X130120571Y-44540714D01*
X137159999Y-61304714D02*
X137159999Y-61486143D01*
X137341428Y-61413571D02*
X137159999Y-61486143D01*
X136978571Y-61413571D01*
X137268856Y-61631286D02*
X137159999Y-61486143D01*
X137051142Y-61631286D01*
X149243142Y-44577000D02*
X148880285Y-44577000D01*
X149315714Y-44794714D02*
X149061714Y-44032714D01*
X148807714Y-44794714D01*
X148299713Y-44395571D02*
X148553713Y-44395571D01*
X148553713Y-44794714D02*
X148553713Y-44032714D01*
X148190856Y-44032714D01*
X147646570Y-44395571D02*
X147900570Y-44395571D01*
X147900570Y-44794714D02*
X147900570Y-44032714D01*
X147537713Y-44032714D01*
X147283713Y-44105286D02*
X147247427Y-44069000D01*
X147174856Y-44032714D01*
X146993427Y-44032714D01*
X146920856Y-44069000D01*
X146884570Y-44105286D01*
X146848285Y-44177857D01*
X146848285Y-44250429D01*
X146884570Y-44359286D01*
X147319999Y-44794714D01*
X146848285Y-44794714D01*
X146376571Y-44032714D02*
X146303999Y-44032714D01*
X146231428Y-44069000D01*
X146195142Y-44105286D01*
X146158856Y-44177857D01*
X146122571Y-44323000D01*
X146122571Y-44504429D01*
X146158856Y-44649571D01*
X146195142Y-44722143D01*
X146231428Y-44758429D01*
X146303999Y-44794714D01*
X146376571Y-44794714D01*
X146449142Y-44758429D01*
X146485428Y-44722143D01*
X146521713Y-44649571D01*
X146557999Y-44504429D01*
X146557999Y-44323000D01*
X146521713Y-44177857D01*
X146485428Y-44105286D01*
X146449142Y-44069000D01*
X146376571Y-44032714D01*
X145868571Y-44032714D02*
X145396857Y-44032714D01*
X145650857Y-44323000D01*
X145541999Y-44323000D01*
X145469428Y-44359286D01*
X145433142Y-44395571D01*
X145396857Y-44468143D01*
X145396857Y-44649571D01*
X145433142Y-44722143D01*
X145469428Y-44758429D01*
X145541999Y-44794714D01*
X145759714Y-44794714D01*
X145832285Y-44758429D01*
X145868571Y-44722143D01*
X152399999Y-61304714D02*
X152399999Y-61486143D01*
X152581428Y-61413571D02*
X152399999Y-61486143D01*
X152218571Y-61413571D01*
X152508856Y-61631286D02*
X152399999Y-61486143D01*
X152291142Y-61631286D01*
X172103142Y-44577000D02*
X171740285Y-44577000D01*
X172175714Y-44794714D02*
X171921714Y-44032714D01*
X171667714Y-44794714D01*
X171159713Y-44395571D02*
X171413713Y-44395571D01*
X171413713Y-44794714D02*
X171413713Y-44032714D01*
X171050856Y-44032714D01*
X170506570Y-44395571D02*
X170760570Y-44395571D01*
X170760570Y-44794714D02*
X170760570Y-44032714D01*
X170397713Y-44032714D01*
X170143713Y-44105286D02*
X170107427Y-44069000D01*
X170034856Y-44032714D01*
X169853427Y-44032714D01*
X169780856Y-44069000D01*
X169744570Y-44105286D01*
X169708285Y-44177857D01*
X169708285Y-44250429D01*
X169744570Y-44359286D01*
X170179999Y-44794714D01*
X169708285Y-44794714D01*
X169236571Y-44032714D02*
X169163999Y-44032714D01*
X169091428Y-44069000D01*
X169055142Y-44105286D01*
X169018856Y-44177857D01*
X168982571Y-44323000D01*
X168982571Y-44504429D01*
X169018856Y-44649571D01*
X169055142Y-44722143D01*
X169091428Y-44758429D01*
X169163999Y-44794714D01*
X169236571Y-44794714D01*
X169309142Y-44758429D01*
X169345428Y-44722143D01*
X169381713Y-44649571D01*
X169417999Y-44504429D01*
X169417999Y-44323000D01*
X169381713Y-44177857D01*
X169345428Y-44105286D01*
X169309142Y-44069000D01*
X169236571Y-44032714D01*
X168692285Y-44105286D02*
X168655999Y-44069000D01*
X168583428Y-44032714D01*
X168401999Y-44032714D01*
X168329428Y-44069000D01*
X168293142Y-44105286D01*
X168256857Y-44177857D01*
X168256857Y-44250429D01*
X168293142Y-44359286D01*
X168728571Y-44794714D01*
X168256857Y-44794714D01*
X175259999Y-61304714D02*
X175259999Y-61486143D01*
X175441428Y-61413571D02*
X175259999Y-61486143D01*
X175078571Y-61413571D01*
X175368856Y-61631286D02*
X175259999Y-61486143D01*
X175151142Y-61631286D01*
X187343142Y-44577000D02*
X186980285Y-44577000D01*
X187415714Y-44794714D02*
X187161714Y-44032714D01*
X186907714Y-44794714D01*
X186399713Y-44395571D02*
X186653713Y-44395571D01*
X186653713Y-44794714D02*
X186653713Y-44032714D01*
X186290856Y-44032714D01*
X185746570Y-44395571D02*
X186000570Y-44395571D01*
X186000570Y-44794714D02*
X186000570Y-44032714D01*
X185637713Y-44032714D01*
X185383713Y-44105286D02*
X185347427Y-44069000D01*
X185274856Y-44032714D01*
X185093427Y-44032714D01*
X185020856Y-44069000D01*
X184984570Y-44105286D01*
X184948285Y-44177857D01*
X184948285Y-44250429D01*
X184984570Y-44359286D01*
X185419999Y-44794714D01*
X184948285Y-44794714D01*
X184476571Y-44032714D02*
X184403999Y-44032714D01*
X184331428Y-44069000D01*
X184295142Y-44105286D01*
X184258856Y-44177857D01*
X184222571Y-44323000D01*
X184222571Y-44504429D01*
X184258856Y-44649571D01*
X184295142Y-44722143D01*
X184331428Y-44758429D01*
X184403999Y-44794714D01*
X184476571Y-44794714D01*
X184549142Y-44758429D01*
X184585428Y-44722143D01*
X184621713Y-44649571D01*
X184657999Y-44504429D01*
X184657999Y-44323000D01*
X184621713Y-44177857D01*
X184585428Y-44105286D01*
X184549142Y-44069000D01*
X184476571Y-44032714D01*
X183496857Y-44794714D02*
X183932285Y-44794714D01*
X183714571Y-44794714D02*
X183714571Y-44032714D01*
X183787142Y-44141571D01*
X183859714Y-44214143D01*
X183932285Y-44250429D01*
X190499999Y-61304714D02*
X190499999Y-61486143D01*
X190681428Y-61413571D02*
X190499999Y-61486143D01*
X190318571Y-61413571D01*
X190608856Y-61631286D02*
X190499999Y-61486143D01*
X190391142Y-61631286D01*
%LPC*%
D13*
X159799020Y-56769000D03*
X157700980Y-56769000D03*
X159799020Y-52070000D03*
X157700980Y-52070000D03*
X195580000Y-49309020D03*
X195580000Y-47210980D03*
X195580000Y-62450980D03*
X195580000Y-64549020D03*
D14*
X119380000Y-83820000D03*
D15*
X119380000Y-86360000D03*
X119380000Y-88900000D03*
X119380000Y-91440000D03*
X119380000Y-93980000D03*
X119380000Y-96520000D03*
D14*
X201930000Y-81280000D03*
D15*
X201930000Y-83820000D03*
X201930000Y-86360000D03*
X201930000Y-88900000D03*
X201930000Y-91440000D03*
X201930000Y-93980000D03*
X201930000Y-96520000D03*
D16*
X195580000Y-51990000D03*
X195580000Y-54690000D03*
X195580000Y-59770000D03*
X195580000Y-57070000D03*
D17*
X172212000Y-93599000D03*
D18*
X172212000Y-96139000D03*
X169672000Y-93599000D03*
X169672000Y-96139000D03*
X167132000Y-93599000D03*
X167132000Y-96139000D03*
D14*
X119380000Y-45720000D03*
D15*
X119380000Y-48260000D03*
X119380000Y-50800000D03*
X119380000Y-53340000D03*
X119380000Y-55880000D03*
X119380000Y-58420000D03*
D14*
X201930000Y-45720000D03*
D15*
X201930000Y-48260000D03*
X201930000Y-50800000D03*
X201930000Y-53340000D03*
X201930000Y-55880000D03*
X201930000Y-58420000D03*
X201930000Y-60960000D03*
D19*
X145542000Y-96139000D03*
D20*
X148082000Y-96139000D03*
X150622000Y-96139000D03*
X153162000Y-96139000D03*
X155702000Y-96139000D03*
X158242000Y-96139000D03*
D21*
X143002000Y-78359000D03*
X144018000Y-78359000D03*
X145034000Y-78359000D03*
X144018000Y-76835000D03*
X143002000Y-76835000D03*
X145034000Y-76835000D03*
X177292000Y-78359000D03*
X178308000Y-78359000D03*
X179324000Y-78359000D03*
X178308000Y-76835000D03*
X177292000Y-76835000D03*
X179324000Y-76835000D03*
D22*
X137160000Y-63500000D03*
D23*
X134620000Y-63500000D03*
X132080000Y-63500000D03*
X129540000Y-63500000D03*
X127000000Y-63500000D03*
X127000000Y-48260000D03*
X129540000Y-48260000D03*
X132080000Y-48260000D03*
X134620000Y-48260000D03*
X137160000Y-48260000D03*
D24*
X137160000Y-65379600D03*
X134620000Y-65379600D03*
X132080000Y-65379600D03*
X129540000Y-65379600D03*
X127000000Y-65379600D03*
X127000000Y-46380400D03*
X129540000Y-46380400D03*
X132080000Y-46380400D03*
X134620000Y-46380400D03*
X137160000Y-46380400D03*
D22*
X152400000Y-63500000D03*
D23*
X149860000Y-63500000D03*
X147320000Y-63500000D03*
X144780000Y-63500000D03*
X142240000Y-63500000D03*
X142240000Y-48260000D03*
X144780000Y-48260000D03*
X147320000Y-48260000D03*
X149860000Y-48260000D03*
X152400000Y-48260000D03*
D24*
X152400000Y-65379600D03*
X149860000Y-65379600D03*
X147320000Y-65379600D03*
X144780000Y-65379600D03*
X142240000Y-65379600D03*
X142240000Y-46380400D03*
X144780000Y-46380400D03*
X147320000Y-46380400D03*
X149860000Y-46380400D03*
X152400000Y-46380400D03*
D22*
X175260000Y-63500000D03*
D23*
X172720000Y-63500000D03*
X170180000Y-63500000D03*
X167640000Y-63500000D03*
X165100000Y-63500000D03*
X165100000Y-48260000D03*
X167640000Y-48260000D03*
X170180000Y-48260000D03*
X172720000Y-48260000D03*
X175260000Y-48260000D03*
D24*
X175260000Y-65379600D03*
X172720000Y-65379600D03*
X170180000Y-65379600D03*
X167640000Y-65379600D03*
X165100000Y-65379600D03*
X165100000Y-46380400D03*
X167640000Y-46380400D03*
X170180000Y-46380400D03*
X172720000Y-46380400D03*
X175260000Y-46380400D03*
D22*
X190500000Y-63500000D03*
D23*
X187960000Y-63500000D03*
X185420000Y-63500000D03*
X182880000Y-63500000D03*
X180340000Y-63500000D03*
X180340000Y-48260000D03*
X182880000Y-48260000D03*
X185420000Y-48260000D03*
X187960000Y-48260000D03*
X190500000Y-48260000D03*
D24*
X190500000Y-65379600D03*
X187960000Y-65379600D03*
X185420000Y-65379600D03*
X182880000Y-65379600D03*
X180340000Y-65379600D03*
X180340000Y-46380400D03*
X182880000Y-46380400D03*
X185420000Y-46380400D03*
X187960000Y-46380400D03*
X190500000Y-46380400D03*
M02*
