G04 #@! TF.FileFunction,Copper,L1,Top,Signal*
%FSLAX46Y46*%
G04 Gerber Fmt 4.6, Leading zero omitted, Abs format (unit mm)*
G04 Created by KiCad (PCBNEW 4.0.0-2.201512072331+6194~38~ubuntu14.04.1-stable) date Sun 31 Jul 2016 10:30:43 AM CEST*
%MOMM*%
G01*
G04 APERTURE LIST*
%ADD10C,0.100000*%
%ADD11R,2.032000X1.727200*%
%ADD12O,2.032000X1.727200*%
%ADD13R,0.300000X0.525000*%
%ADD14R,1.300000X1.500000*%
%ADD15R,1.500000X1.300000*%
%ADD16R,0.600000X1.600000*%
%ADD17R,0.600000X1.500000*%
%ADD18R,1.727200X1.727200*%
%ADD19O,1.727200X1.727200*%
%ADD20R,0.600000X1.200000*%
%ADD21R,1.200000X0.600000*%
%ADD22R,0.700000X1.300000*%
%ADD23R,1.000000X1.250000*%
%ADD24R,1.600000X1.000000*%
%ADD25R,1.500000X1.500000*%
%ADD26C,1.500000*%
%ADD27C,1.524000*%
%ADD28R,1.727200X2.032000*%
%ADD29O,1.727200X2.032000*%
%ADD30C,0.685800*%
%ADD31C,0.304800*%
%ADD32C,0.609600*%
%ADD33C,0.152400*%
G04 APERTURE END LIST*
D10*
D11*
X119380000Y-81280000D03*
D12*
X119380000Y-83820000D03*
X119380000Y-86360000D03*
X119380000Y-88900000D03*
X119380000Y-91440000D03*
X119380000Y-93980000D03*
D11*
X201930000Y-81280000D03*
D12*
X201930000Y-83820000D03*
X201930000Y-86360000D03*
X201930000Y-88900000D03*
X201930000Y-91440000D03*
X201930000Y-93980000D03*
X201930000Y-96520000D03*
D13*
X127000000Y-84125500D03*
X127000000Y-85800500D03*
X127650000Y-85800500D03*
X126350000Y-85800500D03*
X126350000Y-84125500D03*
X127650000Y-84125500D03*
X127000000Y-89078500D03*
X127000000Y-90753500D03*
X127650000Y-90753500D03*
X126350000Y-90753500D03*
X126350000Y-89078500D03*
X127650000Y-89078500D03*
X126873000Y-94412500D03*
X126873000Y-96087500D03*
X127523000Y-96087500D03*
X126223000Y-96087500D03*
X126223000Y-94412500D03*
X127523000Y-94412500D03*
D14*
X164084000Y-95711000D03*
X164084000Y-93011000D03*
X158750000Y-58500000D03*
X158750000Y-55800000D03*
X158750000Y-53293000D03*
X158750000Y-50593000D03*
D15*
X132000000Y-83820000D03*
X134700000Y-83820000D03*
X132000000Y-86360000D03*
X134700000Y-86360000D03*
X132000000Y-88900000D03*
X134700000Y-88900000D03*
X132000000Y-91440000D03*
X134700000Y-91440000D03*
X136191000Y-95885000D03*
X138891000Y-95885000D03*
D14*
X133223000Y-97235000D03*
X133223000Y-94535000D03*
D15*
X190707000Y-85471000D03*
X188007000Y-85471000D03*
X196295000Y-86995000D03*
X193595000Y-86995000D03*
X190580000Y-89027000D03*
X187880000Y-89027000D03*
X190580000Y-91440000D03*
X187880000Y-91440000D03*
X187405000Y-94615000D03*
X184705000Y-94615000D03*
X190453000Y-82042000D03*
X187753000Y-82042000D03*
X196168000Y-82042000D03*
X193468000Y-82042000D03*
D16*
X147447000Y-83822000D03*
X146177000Y-83822000D03*
X144907000Y-83822000D03*
X143637000Y-83822000D03*
X142367000Y-83820000D03*
D17*
X141097000Y-83822000D03*
D16*
X139827000Y-83822000D03*
X138557000Y-83822000D03*
X138557000Y-90422000D03*
X139827000Y-90422000D03*
X141097000Y-90422000D03*
X142367000Y-90422000D03*
X143637000Y-90422000D03*
X144907000Y-90422000D03*
X146177000Y-90422000D03*
X147447000Y-90422000D03*
X173228000Y-90549000D03*
X174498000Y-90549000D03*
X175768000Y-90549000D03*
X177038000Y-90549000D03*
X178308000Y-90551000D03*
D17*
X179578000Y-90549000D03*
D16*
X180848000Y-90549000D03*
X182118000Y-90549000D03*
X182118000Y-83949000D03*
X180848000Y-83949000D03*
X179578000Y-83949000D03*
X178308000Y-83949000D03*
X177038000Y-83949000D03*
X175768000Y-83949000D03*
X174498000Y-83949000D03*
X173228000Y-83949000D03*
D18*
X172212000Y-93599000D03*
D19*
X172212000Y-96139000D03*
X169672000Y-93599000D03*
X169672000Y-96139000D03*
X167132000Y-93599000D03*
X167132000Y-96139000D03*
D11*
X119380000Y-45720000D03*
D12*
X119380000Y-48260000D03*
X119380000Y-50800000D03*
X119380000Y-53340000D03*
X119380000Y-55880000D03*
X119380000Y-58420000D03*
D11*
X201930000Y-45720000D03*
D12*
X201930000Y-48260000D03*
X201930000Y-50800000D03*
X201930000Y-53340000D03*
X201930000Y-55880000D03*
X201930000Y-58420000D03*
X201930000Y-60960000D03*
D20*
X161042000Y-82491000D03*
X160242000Y-82491000D03*
X159442000Y-82491000D03*
X158642000Y-82491000D03*
X157842000Y-82491000D03*
X157042000Y-82491000D03*
X156242000Y-82491000D03*
X155442000Y-82491000D03*
D21*
X153992000Y-83941000D03*
X153992000Y-84741000D03*
X153992000Y-85541000D03*
X153992000Y-86341000D03*
X153992000Y-87141000D03*
X153992000Y-87941000D03*
X153992000Y-88741000D03*
X153992000Y-89541000D03*
D20*
X155442000Y-90991000D03*
X156242000Y-90991000D03*
X157042000Y-90991000D03*
X157842000Y-90991000D03*
X158642000Y-90991000D03*
X159442000Y-90991000D03*
X160242000Y-90991000D03*
X161042000Y-90991000D03*
D21*
X162492000Y-89541000D03*
X162492000Y-88741000D03*
X162492000Y-87941000D03*
X162492000Y-87141000D03*
X162492000Y-86341000D03*
X162492000Y-85541000D03*
X162492000Y-84741000D03*
X162492000Y-83941000D03*
D22*
X153355000Y-93345000D03*
X155255000Y-93345000D03*
D23*
X157369000Y-80264000D03*
X159369000Y-80264000D03*
D24*
X175489000Y-93604000D03*
X181889000Y-93604000D03*
X175489000Y-97404000D03*
X181889000Y-97404000D03*
D25*
X137160000Y-63500000D03*
D26*
X134620000Y-63500000D03*
X132080000Y-63500000D03*
X129540000Y-63500000D03*
X127000000Y-63500000D03*
X127000000Y-48260000D03*
X129540000Y-48260000D03*
X132080000Y-48260000D03*
X134620000Y-48260000D03*
X137160000Y-48260000D03*
D27*
X137160000Y-65379600D03*
X134620000Y-65379600D03*
X132080000Y-65379600D03*
X129540000Y-65379600D03*
X127000000Y-65379600D03*
X127000000Y-46380400D03*
X129540000Y-46380400D03*
X132080000Y-46380400D03*
X134620000Y-46380400D03*
X137160000Y-46380400D03*
D25*
X152400000Y-63500000D03*
D26*
X149860000Y-63500000D03*
X147320000Y-63500000D03*
X144780000Y-63500000D03*
X142240000Y-63500000D03*
X142240000Y-48260000D03*
X144780000Y-48260000D03*
X147320000Y-48260000D03*
X149860000Y-48260000D03*
X152400000Y-48260000D03*
D27*
X152400000Y-65379600D03*
X149860000Y-65379600D03*
X147320000Y-65379600D03*
X144780000Y-65379600D03*
X142240000Y-65379600D03*
X142240000Y-46380400D03*
X144780000Y-46380400D03*
X147320000Y-46380400D03*
X149860000Y-46380400D03*
X152400000Y-46380400D03*
D25*
X175260000Y-63500000D03*
D26*
X172720000Y-63500000D03*
X170180000Y-63500000D03*
X167640000Y-63500000D03*
X165100000Y-63500000D03*
X165100000Y-48260000D03*
X167640000Y-48260000D03*
X170180000Y-48260000D03*
X172720000Y-48260000D03*
X175260000Y-48260000D03*
D27*
X175260000Y-65379600D03*
X172720000Y-65379600D03*
X170180000Y-65379600D03*
X167640000Y-65379600D03*
X165100000Y-65379600D03*
X165100000Y-46380400D03*
X167640000Y-46380400D03*
X170180000Y-46380400D03*
X172720000Y-46380400D03*
X175260000Y-46380400D03*
D25*
X190500000Y-63500000D03*
D26*
X187960000Y-63500000D03*
X185420000Y-63500000D03*
X182880000Y-63500000D03*
X180340000Y-63500000D03*
X180340000Y-48260000D03*
X182880000Y-48260000D03*
X185420000Y-48260000D03*
X187960000Y-48260000D03*
X190500000Y-48260000D03*
D27*
X190500000Y-65379600D03*
X187960000Y-65379600D03*
X185420000Y-65379600D03*
X182880000Y-65379600D03*
X180340000Y-65379600D03*
X180340000Y-46380400D03*
X182880000Y-46380400D03*
X185420000Y-46380400D03*
X187960000Y-46380400D03*
X190500000Y-46380400D03*
D22*
X160213000Y-93218000D03*
X162113000Y-93218000D03*
D28*
X158623000Y-96012000D03*
D29*
X156083000Y-96012000D03*
X153543000Y-96012000D03*
X151003000Y-96012000D03*
X148463000Y-96012000D03*
X145923000Y-96012000D03*
X143383000Y-96012000D03*
D30*
X189230000Y-61023500D03*
X173736000Y-61023500D03*
X151257000Y-61023500D03*
X172275500Y-60325000D03*
X149352000Y-60325000D03*
X186563000Y-60325000D03*
X181356000Y-59436000D03*
X166306500Y-59499500D03*
X143002000Y-59563000D03*
X166814500Y-52641500D03*
X178752500Y-52641500D03*
X156083000Y-50609500D03*
X140081000Y-52768500D03*
X153352500Y-51943000D03*
X181292500Y-51562000D03*
X166116000Y-49847500D03*
X143319500Y-51943000D03*
X186309000Y-50609500D03*
X173799500Y-50609500D03*
X148780500Y-51117500D03*
X176403000Y-49847500D03*
X151320500Y-50228500D03*
X146304000Y-57848500D03*
X157099000Y-83820000D03*
X158623000Y-83820000D03*
X162433000Y-95758000D03*
X155829000Y-80772000D03*
X156210000Y-89535000D03*
X175768000Y-88646000D03*
X173228000Y-82042000D03*
X147447000Y-92456000D03*
X141097000Y-82042000D03*
X128905000Y-96266000D03*
X128905000Y-98171000D03*
X160909000Y-58420000D03*
X160909000Y-53340000D03*
X155702000Y-88011000D03*
X156718000Y-92456000D03*
X152273000Y-88011000D03*
X151638000Y-89535000D03*
X157607000Y-88646000D03*
X150368000Y-83820000D03*
X157988000Y-84709000D03*
X150241000Y-85471000D03*
X159766000Y-85471000D03*
X150241000Y-86487000D03*
X160528000Y-86487000D03*
D31*
X201930000Y-60960000D02*
X201930000Y-62611000D01*
X201041000Y-63500000D02*
X190500000Y-63500000D01*
X201930000Y-62611000D02*
X201041000Y-63500000D01*
X190500000Y-62293500D02*
X190500000Y-63500000D01*
X189230000Y-61023500D02*
X190500000Y-62293500D01*
X175260000Y-62547500D02*
X175260000Y-63500000D01*
X173736000Y-61023500D02*
X175260000Y-62547500D01*
X152400000Y-62166500D02*
X152400000Y-63500000D01*
X151257000Y-61023500D02*
X152400000Y-62166500D01*
X172720000Y-60769500D02*
X172275500Y-60325000D01*
X172720000Y-60769500D02*
X172720000Y-63500000D01*
X149860000Y-63500000D02*
X149860000Y-60833000D01*
X149860000Y-60833000D02*
X149352000Y-60325000D01*
X201930000Y-58420000D02*
X201231500Y-58420000D01*
X201231500Y-58420000D02*
X199326500Y-60325000D01*
X199326500Y-60325000D02*
X186563000Y-60325000D01*
X187960000Y-61722000D02*
X187960000Y-63500000D01*
X186563000Y-60325000D02*
X187960000Y-61722000D01*
X119380000Y-45720000D02*
X123825000Y-45720000D01*
X183426100Y-44386500D02*
X185420000Y-46380400D01*
X125158500Y-44386500D02*
X183426100Y-44386500D01*
X123825000Y-45720000D02*
X125158500Y-44386500D01*
X185420000Y-48260000D02*
X185420000Y-63500000D01*
X201930000Y-55880000D02*
X201930000Y-56578500D01*
X182880000Y-60960000D02*
X182880000Y-63500000D01*
X181356000Y-59436000D02*
X182880000Y-60960000D01*
X167640000Y-60833000D02*
X167640000Y-63500000D01*
X166306500Y-59499500D02*
X167640000Y-60833000D01*
X144780000Y-61341000D02*
X144780000Y-63500000D01*
X143002000Y-59563000D02*
X144780000Y-61341000D01*
X165100000Y-48260000D02*
X165100000Y-50927000D01*
X165100000Y-50927000D02*
X166814500Y-52641500D01*
X180340000Y-51054000D02*
X180340000Y-48260000D01*
X178752500Y-52641500D02*
X180340000Y-51054000D01*
X158750000Y-50593000D02*
X162767000Y-50593000D01*
X162767000Y-50593000D02*
X165100000Y-48260000D01*
X156099500Y-50593000D02*
X158750000Y-50593000D01*
X156083000Y-50609500D02*
X156099500Y-50593000D01*
X142240000Y-50609500D02*
X142240000Y-48260000D01*
X140081000Y-52768500D02*
X142240000Y-50609500D01*
X158750000Y-55800000D02*
X157209500Y-55800000D01*
X157209500Y-55800000D02*
X153352500Y-51943000D01*
X182880000Y-49974500D02*
X182880000Y-48260000D01*
X181292500Y-51562000D02*
X182880000Y-49974500D01*
X166116000Y-49847500D02*
X167640000Y-48323500D01*
X167640000Y-48323500D02*
X167640000Y-48260000D01*
X144780000Y-50482500D02*
X144780000Y-48260000D01*
X143319500Y-51943000D02*
X144780000Y-50482500D01*
X187960000Y-46380400D02*
X187960000Y-46037500D01*
X187960000Y-46037500D02*
X188849000Y-45148500D01*
X188849000Y-45148500D02*
X201358500Y-45148500D01*
X201358500Y-45148500D02*
X201930000Y-45720000D01*
X201930000Y-45720000D02*
X201930000Y-45339000D01*
X172720000Y-48260000D02*
X172720000Y-49530000D01*
X186309000Y-50609500D02*
X187960000Y-48958500D01*
X172720000Y-49530000D02*
X173799500Y-50609500D01*
X187960000Y-48958500D02*
X187960000Y-48260000D01*
X149860000Y-50038000D02*
X149860000Y-48260000D01*
X148780500Y-51117500D02*
X149860000Y-50038000D01*
X190500000Y-46380400D02*
X198526400Y-46380400D01*
X200406000Y-48260000D02*
X201930000Y-48260000D01*
X198526400Y-46380400D02*
X200406000Y-48260000D01*
X201930000Y-48260000D02*
X201041000Y-48260000D01*
X175260000Y-48260000D02*
X175260000Y-48704500D01*
X175260000Y-48704500D02*
X176403000Y-49847500D01*
X152400000Y-49149000D02*
X152400000Y-48260000D01*
X151320500Y-50228500D02*
X152400000Y-49149000D01*
X119380000Y-48260000D02*
X121983500Y-48260000D01*
X168821100Y-45021500D02*
X170180000Y-46380400D01*
X125222000Y-45021500D02*
X168821100Y-45021500D01*
X121983500Y-48260000D02*
X125222000Y-45021500D01*
X170180000Y-48260000D02*
X170180000Y-63500000D01*
X147320000Y-58864500D02*
X147320000Y-63500000D01*
X146304000Y-57848500D02*
X147320000Y-58864500D01*
X147320000Y-48260000D02*
X147320000Y-63500000D01*
X119380000Y-53340000D02*
X121920000Y-53340000D01*
X121920000Y-53340000D02*
X132080000Y-63500000D01*
X132080000Y-48260000D02*
X132080000Y-63500000D01*
X157042000Y-82491000D02*
X157042000Y-83763000D01*
X157042000Y-83763000D02*
X157099000Y-83820000D01*
X158642000Y-82491000D02*
X158642000Y-83801000D01*
X158642000Y-83801000D02*
X158623000Y-83820000D01*
D32*
X164084000Y-95711000D02*
X162480000Y-95711000D01*
X162480000Y-95711000D02*
X162433000Y-95758000D01*
X157369000Y-80264000D02*
X156337000Y-80264000D01*
X156337000Y-80264000D02*
X155829000Y-80772000D01*
X157042000Y-82491000D02*
X157042000Y-80591000D01*
X157042000Y-80591000D02*
X157369000Y-80264000D01*
X156242000Y-90991000D02*
X156242000Y-89567000D01*
X156242000Y-89567000D02*
X156210000Y-89535000D01*
D31*
X175768000Y-90549000D02*
X175768000Y-88646000D01*
D33*
X175768000Y-90549000D02*
X175768000Y-91313000D01*
D31*
X173228000Y-83949000D02*
X173228000Y-82042000D01*
X175768000Y-90549000D02*
X177038000Y-90549000D01*
X147447000Y-90422000D02*
X147447000Y-92456000D01*
X141097000Y-83822000D02*
X141097000Y-82042000D01*
X127523000Y-96087500D02*
X128726500Y-96087500D01*
X128726500Y-96087500D02*
X128905000Y-96266000D01*
D33*
X178308000Y-90551000D02*
X178308000Y-90932000D01*
D31*
X160909000Y-58420000D02*
X160829000Y-58500000D01*
X160829000Y-58500000D02*
X158750000Y-58500000D01*
X160909000Y-53340000D02*
X160862000Y-53293000D01*
X160862000Y-53293000D02*
X158750000Y-53293000D01*
X164084000Y-93011000D02*
X162320000Y-93011000D01*
X162320000Y-93011000D02*
X162113000Y-93218000D01*
X164037000Y-92964000D02*
X164084000Y-93011000D01*
D32*
X175489000Y-93604000D02*
X181889000Y-93604000D01*
D31*
X167132000Y-93599000D02*
X167132000Y-93853000D01*
X167132000Y-93853000D02*
X168148000Y-94869000D01*
X174224000Y-94869000D02*
X175489000Y-93604000D01*
X168148000Y-94869000D02*
X174224000Y-94869000D01*
X164004000Y-93091000D02*
X164084000Y-93011000D01*
D32*
X164084000Y-93011000D02*
X166544000Y-93011000D01*
X166544000Y-93011000D02*
X167132000Y-93599000D01*
D31*
X164592000Y-87122000D02*
X163830000Y-86360000D01*
X163830000Y-86360000D02*
X162511000Y-86360000D01*
X162511000Y-86360000D02*
X162492000Y-86341000D01*
X167005000Y-93726000D02*
X167005000Y-89535000D01*
X167005000Y-89535000D02*
X164592000Y-87122000D01*
X164592000Y-87122000D02*
X164573000Y-87103000D01*
X153992000Y-88741000D02*
X154972000Y-88741000D01*
X154972000Y-88741000D02*
X155702000Y-88011000D01*
X155442000Y-91815000D02*
X155442000Y-90991000D01*
X156083000Y-92456000D02*
X155442000Y-91815000D01*
X156718000Y-92456000D02*
X156083000Y-92456000D01*
X155255000Y-93345000D02*
X155255000Y-91178000D01*
X155255000Y-91178000D02*
X155442000Y-90991000D01*
X169672000Y-93599000D02*
X169672000Y-93726000D01*
X155255000Y-91178000D02*
X155442000Y-90991000D01*
X127650000Y-84125500D02*
X127650000Y-83073000D01*
X125857000Y-81280000D02*
X119380000Y-81280000D01*
X127650000Y-83073000D02*
X125857000Y-81280000D01*
X126350000Y-85800500D02*
X124789500Y-85800500D01*
X122809000Y-83820000D02*
X119380000Y-83820000D01*
X124789500Y-85800500D02*
X122809000Y-83820000D01*
X127650000Y-89078500D02*
X127650000Y-88407000D01*
X125603000Y-86360000D02*
X119380000Y-86360000D01*
X127650000Y-88407000D02*
X125603000Y-86360000D01*
X126350000Y-90753500D02*
X124789500Y-90753500D01*
X122936000Y-88900000D02*
X119380000Y-88900000D01*
X124789500Y-90753500D02*
X122936000Y-88900000D01*
X127523000Y-94412500D02*
X127508000Y-94397500D01*
X127508000Y-94397500D02*
X127508000Y-93726000D01*
X127508000Y-93726000D02*
X125349000Y-91567000D01*
X125349000Y-91567000D02*
X119507000Y-91567000D01*
X119507000Y-91567000D02*
X119380000Y-91440000D01*
X126223000Y-96087500D02*
X124115500Y-93980000D01*
X124115500Y-93980000D02*
X119380000Y-93980000D01*
X132000000Y-83820000D02*
X129667000Y-83820000D01*
X129667000Y-83820000D02*
X128524000Y-84963000D01*
X128524000Y-84963000D02*
X127254000Y-84963000D01*
X127254000Y-84963000D02*
X127000000Y-84709000D01*
X127000000Y-84709000D02*
X127000000Y-84125500D01*
X132000000Y-86360000D02*
X130556000Y-86360000D01*
X130556000Y-86360000D02*
X130048000Y-86868000D01*
X130048000Y-86868000D02*
X127127000Y-86868000D01*
X127127000Y-86868000D02*
X127000000Y-86741000D01*
X127000000Y-86741000D02*
X127000000Y-85800500D01*
X132000000Y-88900000D02*
X129794000Y-88900000D01*
X129794000Y-88900000D02*
X128778000Y-89916000D01*
X128778000Y-89916000D02*
X127381000Y-89916000D01*
X127381000Y-89916000D02*
X127000000Y-89535000D01*
X127000000Y-89535000D02*
X127000000Y-89078500D01*
X132000000Y-91440000D02*
X130302000Y-91440000D01*
X130302000Y-91440000D02*
X129794000Y-91948000D01*
X129794000Y-91948000D02*
X127254000Y-91948000D01*
X127254000Y-91948000D02*
X127000000Y-91694000D01*
X127000000Y-91694000D02*
X127000000Y-90753500D01*
X126873000Y-94412500D02*
X126873000Y-94996000D01*
X126873000Y-94996000D02*
X127127000Y-95250000D01*
X127127000Y-95250000D02*
X130937000Y-95250000D01*
X130937000Y-95250000D02*
X131572000Y-95885000D01*
X131572000Y-95885000D02*
X136191000Y-95885000D01*
X133223000Y-97235000D02*
X127174000Y-97235000D01*
X127174000Y-97235000D02*
X126873000Y-96934000D01*
X126873000Y-96934000D02*
X126873000Y-96087500D01*
X134700000Y-83820000D02*
X135509000Y-83820000D01*
X146177000Y-89154000D02*
X146177000Y-90422000D01*
X144145000Y-87122000D02*
X146177000Y-89154000D01*
X137287000Y-87122000D02*
X144145000Y-87122000D01*
X136779000Y-86614000D02*
X137287000Y-87122000D01*
X136779000Y-85090000D02*
X136779000Y-86614000D01*
X135509000Y-83820000D02*
X136779000Y-85090000D01*
D33*
X134700000Y-83820000D02*
X134700000Y-84027000D01*
X134700000Y-83820000D02*
X135128000Y-83820000D01*
D31*
X134700000Y-86360000D02*
X135763000Y-86360000D01*
X144907000Y-89027000D02*
X144907000Y-90422000D01*
X143510000Y-87630000D02*
X144907000Y-89027000D01*
X137033000Y-87630000D02*
X143510000Y-87630000D01*
X135763000Y-86360000D02*
X137033000Y-87630000D01*
D33*
X134700000Y-86360000D02*
X135128000Y-86360000D01*
D31*
X134700000Y-88900000D02*
X136906000Y-88900000D01*
X143637000Y-89281000D02*
X143637000Y-90422000D01*
X142621000Y-88265000D02*
X143637000Y-89281000D01*
X137541000Y-88265000D02*
X142621000Y-88265000D01*
X136906000Y-88900000D02*
X137541000Y-88265000D01*
X134700000Y-91440000D02*
X135890000Y-91440000D01*
X142367000Y-89535000D02*
X142367000Y-90422000D01*
X141605000Y-88773000D02*
X142367000Y-89535000D01*
X137795000Y-88773000D02*
X141605000Y-88773000D01*
X136779000Y-89789000D02*
X137795000Y-88773000D01*
X136779000Y-90551000D02*
X136779000Y-89789000D01*
X135890000Y-91440000D02*
X136779000Y-90551000D01*
D33*
X138891000Y-95885000D02*
X139446000Y-95885000D01*
D31*
X139446000Y-95885000D02*
X141097000Y-94234000D01*
X141097000Y-94234000D02*
X141097000Y-90422000D01*
X133223000Y-94535000D02*
X138764000Y-94535000D01*
X138764000Y-94535000D02*
X139827000Y-93472000D01*
X139827000Y-93472000D02*
X139827000Y-90422000D01*
X177038000Y-83949000D02*
X177038000Y-83058000D01*
X185928000Y-85471000D02*
X188007000Y-85471000D01*
X185166000Y-84709000D02*
X185928000Y-85471000D01*
X185166000Y-82169000D02*
X185166000Y-84709000D01*
X184023000Y-81026000D02*
X185166000Y-82169000D01*
X179070000Y-81026000D02*
X184023000Y-81026000D01*
X177038000Y-83058000D02*
X179070000Y-81026000D01*
D33*
X188007000Y-85471000D02*
X187579000Y-85471000D01*
D31*
X178308000Y-83949000D02*
X178308000Y-82931000D01*
X185420000Y-86995000D02*
X193595000Y-86995000D01*
X184658000Y-86233000D02*
X185420000Y-86995000D01*
X184658000Y-82423000D02*
X184658000Y-86233000D01*
X183769000Y-81534000D02*
X184658000Y-82423000D01*
X179705000Y-81534000D02*
X183769000Y-81534000D01*
X178308000Y-82931000D02*
X179705000Y-81534000D01*
X179578000Y-83949000D02*
X179578000Y-83439000D01*
X179578000Y-83439000D02*
X180975000Y-82042000D01*
X180975000Y-82042000D02*
X183515000Y-82042000D01*
X183515000Y-82042000D02*
X184150000Y-82677000D01*
X184150000Y-82677000D02*
X184150000Y-88265000D01*
X184150000Y-88265000D02*
X184912000Y-89027000D01*
X184912000Y-89027000D02*
X187880000Y-89027000D01*
D33*
X187880000Y-89027000D02*
X187880000Y-88439000D01*
D31*
X180848000Y-83949000D02*
X180848000Y-82931000D01*
X180848000Y-82931000D02*
X181203598Y-82575402D01*
X181203598Y-82575402D02*
X183286402Y-82575402D01*
X183286402Y-82575402D02*
X183642000Y-82931000D01*
X183642000Y-82931000D02*
X183642000Y-88646000D01*
X183642000Y-88646000D02*
X186436000Y-91440000D01*
X186436000Y-91440000D02*
X187880000Y-91440000D01*
D33*
X187880000Y-91440000D02*
X187579000Y-91440000D01*
X182118000Y-83949000D02*
X182118000Y-84582000D01*
D31*
X182118000Y-84582000D02*
X183134000Y-85598000D01*
X183134000Y-85598000D02*
X183134000Y-88900000D01*
X183134000Y-88900000D02*
X184705000Y-90471000D01*
X184705000Y-90471000D02*
X184705000Y-94615000D01*
D33*
X182372000Y-83820000D02*
X182118000Y-83949000D01*
D31*
X174498000Y-83949000D02*
X174498000Y-83185000D01*
X174498000Y-83185000D02*
X177800000Y-79883000D01*
X177800000Y-79883000D02*
X184404000Y-79883000D01*
X184404000Y-79883000D02*
X186563000Y-82042000D01*
X186563000Y-82042000D02*
X187753000Y-82042000D01*
D33*
X187753000Y-82042000D02*
X187753000Y-81581000D01*
D31*
X175768000Y-83949000D02*
X175768000Y-83058000D01*
X191817000Y-83693000D02*
X193468000Y-82042000D01*
X186182000Y-83693000D02*
X191817000Y-83693000D01*
X185674000Y-83185000D02*
X186182000Y-83693000D01*
X185674000Y-81915000D02*
X185674000Y-83185000D01*
X184277000Y-80518000D02*
X185674000Y-81915000D01*
X178308000Y-80518000D02*
X184277000Y-80518000D01*
X175768000Y-83058000D02*
X178308000Y-80518000D01*
D33*
X193468000Y-82042000D02*
X193468000Y-82122000D01*
D31*
X190707000Y-85471000D02*
X198882000Y-85471000D01*
X198882000Y-85471000D02*
X199771000Y-86360000D01*
X199771000Y-86360000D02*
X201930000Y-86360000D01*
X196295000Y-86995000D02*
X197612000Y-86995000D01*
X197612000Y-86995000D02*
X199517000Y-88900000D01*
X199517000Y-88900000D02*
X201930000Y-88900000D01*
X190580000Y-89027000D02*
X194691000Y-89027000D01*
X194691000Y-89027000D02*
X197104000Y-91440000D01*
X197104000Y-91440000D02*
X201930000Y-91440000D01*
X190580000Y-91440000D02*
X195961000Y-91440000D01*
X195961000Y-91440000D02*
X198501000Y-93980000D01*
X198501000Y-93980000D02*
X201930000Y-93980000D01*
X187405000Y-94615000D02*
X188849000Y-94615000D01*
X188849000Y-94615000D02*
X190754000Y-96520000D01*
X190754000Y-96520000D02*
X201930000Y-96520000D01*
D33*
X190453000Y-82042000D02*
X190453000Y-81454000D01*
D31*
X190453000Y-81454000D02*
X192024000Y-79883000D01*
X200533000Y-79883000D02*
X201930000Y-81280000D01*
X192024000Y-79883000D02*
X200533000Y-79883000D01*
X196168000Y-82042000D02*
X197231000Y-82042000D01*
X197231000Y-82042000D02*
X199009000Y-83820000D01*
X199009000Y-83820000D02*
X201930000Y-83820000D01*
X164719000Y-83312000D02*
X164084000Y-82677000D01*
X164084000Y-82677000D02*
X161228000Y-82677000D01*
X161228000Y-82677000D02*
X161042000Y-82491000D01*
X179578000Y-90549000D02*
X179578000Y-89281000D01*
X168910000Y-87503000D02*
X164719000Y-83312000D01*
X164719000Y-83312000D02*
X164660000Y-83253000D01*
X177800000Y-87503000D02*
X168910000Y-87503000D01*
X179578000Y-89281000D02*
X177800000Y-87503000D01*
X153992000Y-87941000D02*
X152343000Y-87941000D01*
X152343000Y-87941000D02*
X152273000Y-88011000D01*
X153992000Y-89541000D02*
X151644000Y-89541000D01*
X151644000Y-89541000D02*
X151638000Y-89535000D01*
X157607000Y-88646000D02*
X156083000Y-88646000D01*
X155188000Y-89541000D02*
X153992000Y-89541000D01*
X156083000Y-88646000D02*
X155188000Y-89541000D01*
X154553000Y-89541000D02*
X153992000Y-89541000D01*
X157988000Y-84709000D02*
X157988000Y-88011000D01*
X150366000Y-83822000D02*
X150368000Y-83820000D01*
X147447000Y-83822000D02*
X150366000Y-83822000D01*
X160242000Y-90265000D02*
X160242000Y-90991000D01*
X157988000Y-88011000D02*
X160242000Y-90265000D01*
X159766000Y-85471000D02*
X159766000Y-89027000D01*
X146177000Y-84836000D02*
X146812000Y-85471000D01*
X146812000Y-85471000D02*
X150241000Y-85471000D01*
X146177000Y-83822000D02*
X146177000Y-84836000D01*
X161042000Y-90303000D02*
X161042000Y-90991000D01*
X159766000Y-89027000D02*
X161042000Y-90303000D01*
X146177000Y-83822000D02*
X146177000Y-84455000D01*
X160528000Y-86487000D02*
X160528000Y-89027000D01*
X161042000Y-89541000D02*
X162492000Y-89541000D01*
X160528000Y-89027000D02*
X161042000Y-89541000D01*
X144907000Y-85090000D02*
X146304000Y-86487000D01*
X146304000Y-86487000D02*
X150241000Y-86487000D01*
X160528000Y-86487000D02*
X160401000Y-86614000D01*
X144907000Y-83822000D02*
X144907000Y-85090000D01*
X144907000Y-83822000D02*
X144907000Y-84201000D01*
X180848000Y-90549000D02*
X180848000Y-91567000D01*
X180848000Y-91567000D02*
X180213000Y-92202000D01*
X164846000Y-86360000D02*
X164084000Y-85598000D01*
X164084000Y-85598000D02*
X162549000Y-85598000D01*
X162549000Y-85598000D02*
X162492000Y-85541000D01*
X169545000Y-91059000D02*
X164846000Y-86360000D01*
X164846000Y-86360000D02*
X164789000Y-86303000D01*
X171323000Y-91059000D02*
X169545000Y-91059000D01*
X172466000Y-92202000D02*
X171323000Y-91059000D01*
X180213000Y-92202000D02*
X172466000Y-92202000D01*
X165036500Y-85534500D02*
X164211000Y-84709000D01*
X164211000Y-84709000D02*
X162524000Y-84709000D01*
X162524000Y-84709000D02*
X162492000Y-84741000D01*
X173228000Y-90549000D02*
X170051000Y-90549000D01*
X170051000Y-90549000D02*
X165036500Y-85534500D01*
X165036500Y-85534500D02*
X165005000Y-85503000D01*
X165227000Y-84709000D02*
X164465000Y-83947000D01*
X164465000Y-83947000D02*
X162498000Y-83947000D01*
X162498000Y-83947000D02*
X162492000Y-83941000D01*
X174498000Y-90549000D02*
X174498000Y-89662000D01*
X169418000Y-88900000D02*
X165227000Y-84709000D01*
X165227000Y-84709000D02*
X165221000Y-84703000D01*
X173736000Y-88900000D02*
X169418000Y-88900000D01*
X174498000Y-89662000D02*
X173736000Y-88900000D01*
X153355000Y-93345000D02*
X151892000Y-93345000D01*
X151892000Y-93345000D02*
X151003000Y-94234000D01*
X151003000Y-94234000D02*
X151003000Y-96012000D01*
X160213000Y-93218000D02*
X157072219Y-93218000D01*
X157072219Y-93218000D02*
X155599029Y-94691190D01*
X155599029Y-94691190D02*
X153059029Y-94691190D01*
X153059029Y-94691190D02*
X152171410Y-95578809D01*
X152171410Y-95578809D02*
X152171410Y-96648371D01*
X144551410Y-97332810D02*
X143383000Y-96164400D01*
X152171410Y-96648371D02*
X151486971Y-97332810D01*
X151486971Y-97332810D02*
X144551410Y-97332810D01*
X143383000Y-96164400D02*
X143383000Y-96012000D01*
D33*
G36*
X146812000Y-78968600D02*
X175514000Y-78968600D01*
X175641694Y-78943200D01*
X180974306Y-78943200D01*
X181102000Y-78968600D01*
X205511400Y-78968600D01*
X205511400Y-98831400D01*
X117068600Y-98831400D01*
X117068600Y-91440000D01*
X118111017Y-91440000D01*
X118194156Y-91857967D01*
X118430915Y-92212302D01*
X118785250Y-92449061D01*
X119203217Y-92532200D01*
X119556783Y-92532200D01*
X119974750Y-92449061D01*
X120329085Y-92212302D01*
X120505686Y-91948000D01*
X125191184Y-91948000D01*
X127127000Y-93883816D01*
X127127000Y-93944386D01*
X127113680Y-93935285D01*
X127023000Y-93916922D01*
X126723000Y-93916922D01*
X126638286Y-93932862D01*
X126560482Y-93982928D01*
X126508285Y-94059320D01*
X126489922Y-94150000D01*
X126489922Y-94675000D01*
X126492000Y-94686044D01*
X126492000Y-94996000D01*
X126521002Y-95141803D01*
X126603592Y-95265408D01*
X126857592Y-95519408D01*
X126966117Y-95591922D01*
X126723000Y-95591922D01*
X126638286Y-95607862D01*
X126560482Y-95657928D01*
X126548462Y-95675520D01*
X126540072Y-95662482D01*
X126463680Y-95610285D01*
X126373000Y-95591922D01*
X126266238Y-95591922D01*
X124384908Y-93710592D01*
X124261303Y-93628002D01*
X124115500Y-93599000D01*
X120573197Y-93599000D01*
X120565844Y-93562033D01*
X120329085Y-93207698D01*
X119974750Y-92970939D01*
X119556783Y-92887800D01*
X119203217Y-92887800D01*
X118785250Y-92970939D01*
X118430915Y-93207698D01*
X118194156Y-93562033D01*
X118111017Y-93980000D01*
X118194156Y-94397967D01*
X118430915Y-94752302D01*
X118785250Y-94989061D01*
X119203217Y-95072200D01*
X119556783Y-95072200D01*
X119974750Y-94989061D01*
X120329085Y-94752302D01*
X120565844Y-94397967D01*
X120573197Y-94361000D01*
X123957684Y-94361000D01*
X125839922Y-96243238D01*
X125839922Y-96350000D01*
X125855862Y-96434714D01*
X125905928Y-96512518D01*
X125982320Y-96564715D01*
X126073000Y-96583078D01*
X126373000Y-96583078D01*
X126457714Y-96567138D01*
X126492000Y-96545075D01*
X126492000Y-96934000D01*
X126521002Y-97079803D01*
X126603592Y-97203408D01*
X126904590Y-97504405D01*
X126904592Y-97504408D01*
X126978688Y-97553917D01*
X127028197Y-97586998D01*
X127174000Y-97616000D01*
X132339922Y-97616000D01*
X132339922Y-97985000D01*
X132355862Y-98069714D01*
X132405928Y-98147518D01*
X132482320Y-98199715D01*
X132573000Y-98218078D01*
X133873000Y-98218078D01*
X133957714Y-98202138D01*
X134035518Y-98152072D01*
X134087715Y-98075680D01*
X134106078Y-97985000D01*
X134106078Y-96485000D01*
X134090138Y-96400286D01*
X134040072Y-96322482D01*
X133963680Y-96270285D01*
X133942520Y-96266000D01*
X135207922Y-96266000D01*
X135207922Y-96535000D01*
X135223862Y-96619714D01*
X135273928Y-96697518D01*
X135350320Y-96749715D01*
X135441000Y-96768078D01*
X136941000Y-96768078D01*
X137025714Y-96752138D01*
X137103518Y-96702072D01*
X137155715Y-96625680D01*
X137174078Y-96535000D01*
X137174078Y-95235000D01*
X137907922Y-95235000D01*
X137907922Y-96535000D01*
X137923862Y-96619714D01*
X137973928Y-96697518D01*
X138050320Y-96749715D01*
X138141000Y-96768078D01*
X139641000Y-96768078D01*
X139725714Y-96752138D01*
X139803518Y-96702072D01*
X139855715Y-96625680D01*
X139874078Y-96535000D01*
X139874078Y-95995738D01*
X140034598Y-95835217D01*
X142290800Y-95835217D01*
X142290800Y-96188783D01*
X142373939Y-96606750D01*
X142610698Y-96961085D01*
X142965033Y-97197844D01*
X143383000Y-97280983D01*
X143800967Y-97197844D01*
X143846922Y-97167138D01*
X144282000Y-97602215D01*
X144282002Y-97602218D01*
X144356098Y-97651727D01*
X144405607Y-97684808D01*
X144551410Y-97713810D01*
X151486971Y-97713810D01*
X151632774Y-97684808D01*
X151756379Y-97602218D01*
X152440818Y-96917779D01*
X152523408Y-96794174D01*
X152552411Y-96648371D01*
X152552410Y-96648366D01*
X152552410Y-96634394D01*
X152770698Y-96961085D01*
X153125033Y-97197844D01*
X153543000Y-97280983D01*
X153960967Y-97197844D01*
X154315302Y-96961085D01*
X154552061Y-96606750D01*
X154635200Y-96188783D01*
X154635200Y-95835217D01*
X154552061Y-95417250D01*
X154321499Y-95072190D01*
X155304501Y-95072190D01*
X155073939Y-95417250D01*
X154990800Y-95835217D01*
X154990800Y-96188783D01*
X155073939Y-96606750D01*
X155310698Y-96961085D01*
X155665033Y-97197844D01*
X156083000Y-97280983D01*
X156500967Y-97197844D01*
X156855302Y-96961085D01*
X157092061Y-96606750D01*
X157175200Y-96188783D01*
X157175200Y-95835217D01*
X157092061Y-95417250D01*
X156855302Y-95062915D01*
X156755157Y-94996000D01*
X157526322Y-94996000D01*
X157526322Y-97028000D01*
X157542262Y-97112714D01*
X157592328Y-97190518D01*
X157668720Y-97242715D01*
X157759400Y-97261078D01*
X159486600Y-97261078D01*
X159571314Y-97245138D01*
X159649118Y-97195072D01*
X159701315Y-97118680D01*
X159719678Y-97028000D01*
X159719678Y-95871180D01*
X161861401Y-95871180D01*
X161948224Y-96081306D01*
X162108849Y-96242211D01*
X162318823Y-96329400D01*
X162546180Y-96329599D01*
X162752376Y-96244400D01*
X163200922Y-96244400D01*
X163200922Y-96461000D01*
X163216862Y-96545714D01*
X163266928Y-96623518D01*
X163343320Y-96675715D01*
X163434000Y-96694078D01*
X164734000Y-96694078D01*
X164818714Y-96678138D01*
X164896518Y-96628072D01*
X164948715Y-96551680D01*
X164967078Y-96461000D01*
X164967078Y-94961000D01*
X164951138Y-94876286D01*
X164901072Y-94798482D01*
X164824680Y-94746285D01*
X164734000Y-94727922D01*
X163434000Y-94727922D01*
X163349286Y-94743862D01*
X163271482Y-94793928D01*
X163219285Y-94870320D01*
X163200922Y-94961000D01*
X163200922Y-95177600D01*
X162480000Y-95177600D01*
X162435247Y-95186502D01*
X162319820Y-95186401D01*
X162109694Y-95273224D01*
X161948789Y-95433849D01*
X161861600Y-95643823D01*
X161861401Y-95871180D01*
X159719678Y-95871180D01*
X159719678Y-94996000D01*
X159703738Y-94911286D01*
X159653672Y-94833482D01*
X159577280Y-94781285D01*
X159486600Y-94762922D01*
X157759400Y-94762922D01*
X157674686Y-94778862D01*
X157596882Y-94828928D01*
X157544685Y-94905320D01*
X157526322Y-94996000D01*
X156755157Y-94996000D01*
X156500967Y-94826156D01*
X156085517Y-94743518D01*
X157230034Y-93599000D01*
X159629922Y-93599000D01*
X159629922Y-93868000D01*
X159645862Y-93952714D01*
X159695928Y-94030518D01*
X159772320Y-94082715D01*
X159863000Y-94101078D01*
X160563000Y-94101078D01*
X160647714Y-94085138D01*
X160725518Y-94035072D01*
X160777715Y-93958680D01*
X160796078Y-93868000D01*
X160796078Y-92568000D01*
X160780138Y-92483286D01*
X160730072Y-92405482D01*
X160653680Y-92353285D01*
X160563000Y-92334922D01*
X159863000Y-92334922D01*
X159778286Y-92350862D01*
X159700482Y-92400928D01*
X159648285Y-92477320D01*
X159629922Y-92568000D01*
X159629922Y-92837000D01*
X157145263Y-92837000D01*
X157202211Y-92780151D01*
X157289400Y-92570177D01*
X157289599Y-92342820D01*
X157202776Y-92132694D01*
X157042151Y-91971789D01*
X156832177Y-91884600D01*
X156604820Y-91884401D01*
X156394694Y-91971224D01*
X156290737Y-92075000D01*
X156240816Y-92075000D01*
X155989894Y-91824078D01*
X156542000Y-91824078D01*
X156626714Y-91808138D01*
X156641212Y-91798809D01*
X156651320Y-91805715D01*
X156742000Y-91824078D01*
X157342000Y-91824078D01*
X157426714Y-91808138D01*
X157441212Y-91798809D01*
X157451320Y-91805715D01*
X157542000Y-91824078D01*
X158142000Y-91824078D01*
X158226714Y-91808138D01*
X158304518Y-91758072D01*
X158356715Y-91681680D01*
X158375078Y-91591000D01*
X158375078Y-90391000D01*
X158359138Y-90306286D01*
X158309072Y-90228482D01*
X158232680Y-90176285D01*
X158142000Y-90157922D01*
X157542000Y-90157922D01*
X157457286Y-90173862D01*
X157442788Y-90183191D01*
X157432680Y-90176285D01*
X157342000Y-90157922D01*
X156775400Y-90157922D01*
X156775400Y-89663627D01*
X156781400Y-89649177D01*
X156781599Y-89421820D01*
X156694776Y-89211694D01*
X156534151Y-89050789D01*
X156476861Y-89027000D01*
X157179818Y-89027000D01*
X157282849Y-89130211D01*
X157492823Y-89217400D01*
X157720180Y-89217599D01*
X157930306Y-89130776D01*
X158091211Y-88970151D01*
X158178400Y-88760177D01*
X158178417Y-88740233D01*
X159596107Y-90157922D01*
X159142000Y-90157922D01*
X159057286Y-90173862D01*
X158979482Y-90223928D01*
X158927285Y-90300320D01*
X158908922Y-90391000D01*
X158908922Y-91591000D01*
X158924862Y-91675714D01*
X158974928Y-91753518D01*
X159051320Y-91805715D01*
X159142000Y-91824078D01*
X159742000Y-91824078D01*
X159826714Y-91808138D01*
X159841212Y-91798809D01*
X159851320Y-91805715D01*
X159942000Y-91824078D01*
X160542000Y-91824078D01*
X160626714Y-91808138D01*
X160641212Y-91798809D01*
X160651320Y-91805715D01*
X160742000Y-91824078D01*
X161342000Y-91824078D01*
X161426714Y-91808138D01*
X161504518Y-91758072D01*
X161556715Y-91681680D01*
X161575078Y-91591000D01*
X161575078Y-90391000D01*
X161559138Y-90306286D01*
X161509072Y-90228482D01*
X161432680Y-90176285D01*
X161396331Y-90168924D01*
X161393998Y-90157198D01*
X161368607Y-90119197D01*
X161311408Y-90033592D01*
X161311405Y-90033590D01*
X161199815Y-89922000D01*
X161674163Y-89922000D01*
X161674862Y-89925714D01*
X161724928Y-90003518D01*
X161801320Y-90055715D01*
X161892000Y-90074078D01*
X163092000Y-90074078D01*
X163176714Y-90058138D01*
X163254518Y-90008072D01*
X163306715Y-89931680D01*
X163325078Y-89841000D01*
X163325078Y-89241000D01*
X163309138Y-89156286D01*
X163299809Y-89141788D01*
X163306715Y-89131680D01*
X163325078Y-89041000D01*
X163325078Y-88441000D01*
X163309138Y-88356286D01*
X163299809Y-88341788D01*
X163306715Y-88331680D01*
X163325078Y-88241000D01*
X163325078Y-87641000D01*
X163309138Y-87556286D01*
X163299809Y-87541788D01*
X163306715Y-87531680D01*
X163325078Y-87441000D01*
X163325078Y-86841000D01*
X163309138Y-86756286D01*
X163299809Y-86741788D01*
X163300347Y-86741000D01*
X163672184Y-86741000D01*
X164303590Y-87372405D01*
X164303592Y-87372408D01*
X164322592Y-87391408D01*
X166624000Y-89692815D01*
X166624000Y-92493513D01*
X166544000Y-92477600D01*
X164967078Y-92477600D01*
X164967078Y-92261000D01*
X164951138Y-92176286D01*
X164901072Y-92098482D01*
X164824680Y-92046285D01*
X164734000Y-92027922D01*
X163434000Y-92027922D01*
X163349286Y-92043862D01*
X163271482Y-92093928D01*
X163219285Y-92170320D01*
X163200922Y-92261000D01*
X163200922Y-92630000D01*
X162696078Y-92630000D01*
X162696078Y-92568000D01*
X162680138Y-92483286D01*
X162630072Y-92405482D01*
X162553680Y-92353285D01*
X162463000Y-92334922D01*
X161763000Y-92334922D01*
X161678286Y-92350862D01*
X161600482Y-92400928D01*
X161548285Y-92477320D01*
X161529922Y-92568000D01*
X161529922Y-93868000D01*
X161545862Y-93952714D01*
X161595928Y-94030518D01*
X161672320Y-94082715D01*
X161763000Y-94101078D01*
X162463000Y-94101078D01*
X162547714Y-94085138D01*
X162625518Y-94035072D01*
X162677715Y-93958680D01*
X162696078Y-93868000D01*
X162696078Y-93392000D01*
X163200922Y-93392000D01*
X163200922Y-93761000D01*
X163216862Y-93845714D01*
X163266928Y-93923518D01*
X163343320Y-93975715D01*
X163434000Y-93994078D01*
X164734000Y-93994078D01*
X164818714Y-93978138D01*
X164896518Y-93928072D01*
X164948715Y-93851680D01*
X164967078Y-93761000D01*
X164967078Y-93544400D01*
X166046405Y-93544400D01*
X166039800Y-93577603D01*
X166039800Y-93620397D01*
X166122939Y-94038364D01*
X166359698Y-94392699D01*
X166714033Y-94629458D01*
X167132000Y-94712597D01*
X167399560Y-94659376D01*
X167878592Y-95138408D01*
X168002197Y-95220998D01*
X168148000Y-95250000D01*
X169042326Y-95250000D01*
X168899698Y-95345301D01*
X168662939Y-95699636D01*
X168579800Y-96117603D01*
X168579800Y-96160397D01*
X168662939Y-96578364D01*
X168899698Y-96932699D01*
X169254033Y-97169458D01*
X169672000Y-97252597D01*
X170089967Y-97169458D01*
X170444302Y-96932699D01*
X170681061Y-96578364D01*
X170764200Y-96160397D01*
X170764200Y-96117603D01*
X170681061Y-95699636D01*
X170444302Y-95345301D01*
X170301674Y-95250000D01*
X171582326Y-95250000D01*
X171439698Y-95345301D01*
X171202939Y-95699636D01*
X171119800Y-96117603D01*
X171119800Y-96160397D01*
X171202939Y-96578364D01*
X171439698Y-96932699D01*
X171794033Y-97169458D01*
X172212000Y-97252597D01*
X172629967Y-97169458D01*
X172984302Y-96932699D01*
X173221061Y-96578364D01*
X173304200Y-96160397D01*
X173304200Y-96117603D01*
X173221061Y-95699636D01*
X172984302Y-95345301D01*
X172841674Y-95250000D01*
X174224000Y-95250000D01*
X174369803Y-95220998D01*
X174493408Y-95138408D01*
X175294738Y-94337078D01*
X176289000Y-94337078D01*
X176373714Y-94321138D01*
X176451518Y-94271072D01*
X176503715Y-94194680D01*
X176515314Y-94137400D01*
X180862207Y-94137400D01*
X180871862Y-94188714D01*
X180921928Y-94266518D01*
X180998320Y-94318715D01*
X181089000Y-94337078D01*
X182689000Y-94337078D01*
X182773714Y-94321138D01*
X182851518Y-94271072D01*
X182903715Y-94194680D01*
X182922078Y-94104000D01*
X182922078Y-93104000D01*
X182906138Y-93019286D01*
X182856072Y-92941482D01*
X182779680Y-92889285D01*
X182689000Y-92870922D01*
X181089000Y-92870922D01*
X181004286Y-92886862D01*
X180926482Y-92936928D01*
X180874285Y-93013320D01*
X180862686Y-93070600D01*
X176515793Y-93070600D01*
X176506138Y-93019286D01*
X176456072Y-92941482D01*
X176379680Y-92889285D01*
X176289000Y-92870922D01*
X174689000Y-92870922D01*
X174604286Y-92886862D01*
X174526482Y-92936928D01*
X174474285Y-93013320D01*
X174455922Y-93104000D01*
X174455922Y-94098262D01*
X174066184Y-94488000D01*
X173303534Y-94488000D01*
X173308678Y-94462600D01*
X173308678Y-92735400D01*
X173292738Y-92650686D01*
X173249183Y-92583000D01*
X180213000Y-92583000D01*
X180358803Y-92553998D01*
X180482408Y-92471408D01*
X181117405Y-91836410D01*
X181117408Y-91836408D01*
X181199998Y-91712802D01*
X181206803Y-91678592D01*
X181229001Y-91567000D01*
X181229000Y-91566995D01*
X181229000Y-91566837D01*
X181232714Y-91566138D01*
X181310518Y-91516072D01*
X181362715Y-91439680D01*
X181381078Y-91349000D01*
X181381078Y-89749000D01*
X181365138Y-89664286D01*
X181315072Y-89586482D01*
X181238680Y-89534285D01*
X181148000Y-89515922D01*
X180548000Y-89515922D01*
X180463286Y-89531862D01*
X180385482Y-89581928D01*
X180333285Y-89658320D01*
X180314922Y-89749000D01*
X180314922Y-91349000D01*
X180330862Y-91433714D01*
X180374561Y-91501624D01*
X180055184Y-91821000D01*
X172623816Y-91821000D01*
X171732816Y-90930000D01*
X172694922Y-90930000D01*
X172694922Y-91349000D01*
X172710862Y-91433714D01*
X172760928Y-91511518D01*
X172837320Y-91563715D01*
X172928000Y-91582078D01*
X173528000Y-91582078D01*
X173612714Y-91566138D01*
X173690518Y-91516072D01*
X173742715Y-91439680D01*
X173761078Y-91349000D01*
X173761078Y-89749000D01*
X173745138Y-89664286D01*
X173695072Y-89586482D01*
X173618680Y-89534285D01*
X173528000Y-89515922D01*
X172928000Y-89515922D01*
X172843286Y-89531862D01*
X172765482Y-89581928D01*
X172713285Y-89658320D01*
X172694922Y-89749000D01*
X172694922Y-90168000D01*
X170208816Y-90168000D01*
X169297933Y-89257117D01*
X169418000Y-89281000D01*
X173578184Y-89281000D01*
X173978607Y-89681422D01*
X173964922Y-89749000D01*
X173964922Y-91349000D01*
X173980862Y-91433714D01*
X174030928Y-91511518D01*
X174107320Y-91563715D01*
X174198000Y-91582078D01*
X174798000Y-91582078D01*
X174882714Y-91566138D01*
X174960518Y-91516072D01*
X175012715Y-91439680D01*
X175031078Y-91349000D01*
X175031078Y-89749000D01*
X175015138Y-89664286D01*
X174965072Y-89586482D01*
X174888680Y-89534285D01*
X174852123Y-89526882D01*
X174849998Y-89516198D01*
X174793525Y-89431680D01*
X174767408Y-89392592D01*
X174767405Y-89392590D01*
X174133996Y-88759180D01*
X175196401Y-88759180D01*
X175283224Y-88969306D01*
X175387000Y-89073263D01*
X175387000Y-89531163D01*
X175383286Y-89531862D01*
X175305482Y-89581928D01*
X175253285Y-89658320D01*
X175234922Y-89749000D01*
X175234922Y-91349000D01*
X175250862Y-91433714D01*
X175300928Y-91511518D01*
X175377320Y-91563715D01*
X175468000Y-91582078D01*
X175632620Y-91582078D01*
X175651358Y-91594598D01*
X175768000Y-91617800D01*
X175884642Y-91594598D01*
X175903380Y-91582078D01*
X176068000Y-91582078D01*
X176152714Y-91566138D01*
X176230518Y-91516072D01*
X176282715Y-91439680D01*
X176301078Y-91349000D01*
X176301078Y-90930000D01*
X176504922Y-90930000D01*
X176504922Y-91349000D01*
X176520862Y-91433714D01*
X176570928Y-91511518D01*
X176647320Y-91563715D01*
X176738000Y-91582078D01*
X177338000Y-91582078D01*
X177422714Y-91566138D01*
X177500518Y-91516072D01*
X177552715Y-91439680D01*
X177571078Y-91349000D01*
X177571078Y-89749000D01*
X177555138Y-89664286D01*
X177505072Y-89586482D01*
X177428680Y-89534285D01*
X177338000Y-89515922D01*
X176738000Y-89515922D01*
X176653286Y-89531862D01*
X176575482Y-89581928D01*
X176523285Y-89658320D01*
X176504922Y-89749000D01*
X176504922Y-90168000D01*
X176301078Y-90168000D01*
X176301078Y-89749000D01*
X176285138Y-89664286D01*
X176235072Y-89586482D01*
X176158680Y-89534285D01*
X176149000Y-89532325D01*
X176149000Y-89073182D01*
X176252211Y-88970151D01*
X176339400Y-88760177D01*
X176339599Y-88532820D01*
X176252776Y-88322694D01*
X176092151Y-88161789D01*
X175882177Y-88074600D01*
X175654820Y-88074401D01*
X175444694Y-88161224D01*
X175283789Y-88321849D01*
X175196600Y-88531823D01*
X175196401Y-88759180D01*
X174133996Y-88759180D01*
X174005408Y-88630592D01*
X173881803Y-88548002D01*
X173736000Y-88519000D01*
X169575816Y-88519000D01*
X168940816Y-87884000D01*
X177642184Y-87884000D01*
X179197000Y-89438815D01*
X179197000Y-89581163D01*
X179193286Y-89581862D01*
X179115482Y-89631928D01*
X179063285Y-89708320D01*
X179044922Y-89799000D01*
X179044922Y-91299000D01*
X179060862Y-91383714D01*
X179110928Y-91461518D01*
X179187320Y-91513715D01*
X179278000Y-91532078D01*
X179878000Y-91532078D01*
X179962714Y-91516138D01*
X180040518Y-91466072D01*
X180092715Y-91389680D01*
X180111078Y-91299000D01*
X180111078Y-89799000D01*
X180095138Y-89714286D01*
X180045072Y-89636482D01*
X179968680Y-89584285D01*
X179959000Y-89582325D01*
X179959000Y-89281005D01*
X179959001Y-89281000D01*
X179929998Y-89135198D01*
X179873598Y-89050789D01*
X179847408Y-89011592D01*
X179847405Y-89011590D01*
X178069408Y-87233592D01*
X177945803Y-87151002D01*
X177800000Y-87122000D01*
X169067816Y-87122000D01*
X164988408Y-83042592D01*
X164988405Y-83042590D01*
X164929408Y-82983592D01*
X164929405Y-82983590D01*
X164353408Y-82407592D01*
X164229803Y-82325002D01*
X164084000Y-82296000D01*
X161575078Y-82296000D01*
X161575078Y-82155180D01*
X172656401Y-82155180D01*
X172743224Y-82365306D01*
X172847000Y-82469263D01*
X172847000Y-82931163D01*
X172843286Y-82931862D01*
X172765482Y-82981928D01*
X172713285Y-83058320D01*
X172694922Y-83149000D01*
X172694922Y-84749000D01*
X172710862Y-84833714D01*
X172760928Y-84911518D01*
X172837320Y-84963715D01*
X172928000Y-84982078D01*
X173528000Y-84982078D01*
X173612714Y-84966138D01*
X173690518Y-84916072D01*
X173742715Y-84839680D01*
X173761078Y-84749000D01*
X173761078Y-83149000D01*
X173964922Y-83149000D01*
X173964922Y-84749000D01*
X173980862Y-84833714D01*
X174030928Y-84911518D01*
X174107320Y-84963715D01*
X174198000Y-84982078D01*
X174798000Y-84982078D01*
X174882714Y-84966138D01*
X174960518Y-84916072D01*
X175012715Y-84839680D01*
X175031078Y-84749000D01*
X175031078Y-83190738D01*
X177957816Y-80264000D01*
X178023185Y-80264000D01*
X175498592Y-82788592D01*
X175416002Y-82912197D01*
X175413210Y-82926231D01*
X175383286Y-82931862D01*
X175305482Y-82981928D01*
X175253285Y-83058320D01*
X175234922Y-83149000D01*
X175234922Y-84749000D01*
X175250862Y-84833714D01*
X175300928Y-84911518D01*
X175377320Y-84963715D01*
X175468000Y-84982078D01*
X176068000Y-84982078D01*
X176152714Y-84966138D01*
X176230518Y-84916072D01*
X176282715Y-84839680D01*
X176301078Y-84749000D01*
X176301078Y-83149000D01*
X176287576Y-83077240D01*
X178465815Y-80899000D01*
X178658184Y-80899000D01*
X176768592Y-82788592D01*
X176686002Y-82912197D01*
X176683210Y-82926231D01*
X176653286Y-82931862D01*
X176575482Y-82981928D01*
X176523285Y-83058320D01*
X176504922Y-83149000D01*
X176504922Y-84749000D01*
X176520862Y-84833714D01*
X176570928Y-84911518D01*
X176647320Y-84963715D01*
X176738000Y-84982078D01*
X177338000Y-84982078D01*
X177422714Y-84966138D01*
X177500518Y-84916072D01*
X177552715Y-84839680D01*
X177571078Y-84749000D01*
X177571078Y-83149000D01*
X177557576Y-83077240D01*
X179227816Y-81407000D01*
X179293185Y-81407000D01*
X178038592Y-82661592D01*
X177956002Y-82785197D01*
X177938736Y-82872000D01*
X177927000Y-82931000D01*
X177927000Y-82931163D01*
X177923286Y-82931862D01*
X177845482Y-82981928D01*
X177793285Y-83058320D01*
X177774922Y-83149000D01*
X177774922Y-84749000D01*
X177790862Y-84833714D01*
X177840928Y-84911518D01*
X177917320Y-84963715D01*
X178008000Y-84982078D01*
X178608000Y-84982078D01*
X178692714Y-84966138D01*
X178770518Y-84916072D01*
X178822715Y-84839680D01*
X178841078Y-84749000D01*
X178841078Y-83149000D01*
X178825138Y-83064286D01*
X178781439Y-82996377D01*
X179862815Y-81915000D01*
X180563185Y-81915000D01*
X179562262Y-82915922D01*
X179278000Y-82915922D01*
X179193286Y-82931862D01*
X179115482Y-82981928D01*
X179063285Y-83058320D01*
X179044922Y-83149000D01*
X179044922Y-84749000D01*
X179060862Y-84833714D01*
X179110928Y-84911518D01*
X179187320Y-84963715D01*
X179278000Y-84982078D01*
X179878000Y-84982078D01*
X179962714Y-84966138D01*
X180040518Y-84916072D01*
X180092715Y-84839680D01*
X180111078Y-84749000D01*
X180111078Y-83444738D01*
X180314922Y-83240894D01*
X180314922Y-84749000D01*
X180330862Y-84833714D01*
X180380928Y-84911518D01*
X180457320Y-84963715D01*
X180548000Y-84982078D01*
X181148000Y-84982078D01*
X181232714Y-84966138D01*
X181310518Y-84916072D01*
X181362715Y-84839680D01*
X181381078Y-84749000D01*
X181381078Y-83149000D01*
X181365138Y-83064286D01*
X181321439Y-82996376D01*
X181361413Y-82956402D01*
X181695150Y-82956402D01*
X181655482Y-82981928D01*
X181603285Y-83058320D01*
X181584922Y-83149000D01*
X181584922Y-84749000D01*
X181600862Y-84833714D01*
X181650928Y-84911518D01*
X181727320Y-84963715D01*
X181818000Y-84982078D01*
X181979262Y-84982078D01*
X182753000Y-85755816D01*
X182753000Y-88900000D01*
X182782002Y-89045803D01*
X182864592Y-89169408D01*
X184324000Y-90628815D01*
X184324000Y-93731922D01*
X183955000Y-93731922D01*
X183870286Y-93747862D01*
X183792482Y-93797928D01*
X183740285Y-93874320D01*
X183721922Y-93965000D01*
X183721922Y-95265000D01*
X183737862Y-95349714D01*
X183787928Y-95427518D01*
X183864320Y-95479715D01*
X183955000Y-95498078D01*
X185455000Y-95498078D01*
X185539714Y-95482138D01*
X185617518Y-95432072D01*
X185669715Y-95355680D01*
X185688078Y-95265000D01*
X185688078Y-93965000D01*
X186421922Y-93965000D01*
X186421922Y-95265000D01*
X186437862Y-95349714D01*
X186487928Y-95427518D01*
X186564320Y-95479715D01*
X186655000Y-95498078D01*
X188155000Y-95498078D01*
X188239714Y-95482138D01*
X188317518Y-95432072D01*
X188369715Y-95355680D01*
X188388078Y-95265000D01*
X188388078Y-94996000D01*
X188691184Y-94996000D01*
X190484592Y-96789408D01*
X190608198Y-96871998D01*
X190754000Y-96901001D01*
X190754005Y-96901000D01*
X200736803Y-96901000D01*
X200744156Y-96937967D01*
X200980915Y-97292302D01*
X201335250Y-97529061D01*
X201753217Y-97612200D01*
X202106783Y-97612200D01*
X202524750Y-97529061D01*
X202879085Y-97292302D01*
X203115844Y-96937967D01*
X203198983Y-96520000D01*
X203115844Y-96102033D01*
X202879085Y-95747698D01*
X202524750Y-95510939D01*
X202106783Y-95427800D01*
X201753217Y-95427800D01*
X201335250Y-95510939D01*
X200980915Y-95747698D01*
X200744156Y-96102033D01*
X200736803Y-96139000D01*
X190911816Y-96139000D01*
X189118408Y-94345592D01*
X188994803Y-94263002D01*
X188849000Y-94234000D01*
X188388078Y-94234000D01*
X188388078Y-93965000D01*
X188372138Y-93880286D01*
X188322072Y-93802482D01*
X188245680Y-93750285D01*
X188155000Y-93731922D01*
X186655000Y-93731922D01*
X186570286Y-93747862D01*
X186492482Y-93797928D01*
X186440285Y-93874320D01*
X186421922Y-93965000D01*
X185688078Y-93965000D01*
X185672138Y-93880286D01*
X185622072Y-93802482D01*
X185545680Y-93750285D01*
X185455000Y-93731922D01*
X185086000Y-93731922D01*
X185086000Y-90628815D01*
X186166590Y-91709405D01*
X186166592Y-91709408D01*
X186232608Y-91753518D01*
X186290198Y-91791998D01*
X186436000Y-91821001D01*
X186436005Y-91821000D01*
X186896922Y-91821000D01*
X186896922Y-92090000D01*
X186912862Y-92174714D01*
X186962928Y-92252518D01*
X187039320Y-92304715D01*
X187130000Y-92323078D01*
X188630000Y-92323078D01*
X188714714Y-92307138D01*
X188792518Y-92257072D01*
X188844715Y-92180680D01*
X188863078Y-92090000D01*
X188863078Y-90790000D01*
X189596922Y-90790000D01*
X189596922Y-92090000D01*
X189612862Y-92174714D01*
X189662928Y-92252518D01*
X189739320Y-92304715D01*
X189830000Y-92323078D01*
X191330000Y-92323078D01*
X191414714Y-92307138D01*
X191492518Y-92257072D01*
X191544715Y-92180680D01*
X191563078Y-92090000D01*
X191563078Y-91821000D01*
X195803184Y-91821000D01*
X198231590Y-94249405D01*
X198231592Y-94249408D01*
X198355198Y-94331998D01*
X198501000Y-94361000D01*
X200736803Y-94361000D01*
X200744156Y-94397967D01*
X200980915Y-94752302D01*
X201335250Y-94989061D01*
X201753217Y-95072200D01*
X202106783Y-95072200D01*
X202524750Y-94989061D01*
X202879085Y-94752302D01*
X203115844Y-94397967D01*
X203198983Y-93980000D01*
X203115844Y-93562033D01*
X202879085Y-93207698D01*
X202524750Y-92970939D01*
X202106783Y-92887800D01*
X201753217Y-92887800D01*
X201335250Y-92970939D01*
X200980915Y-93207698D01*
X200744156Y-93562033D01*
X200736803Y-93599000D01*
X198658815Y-93599000D01*
X196230408Y-91170592D01*
X196106803Y-91088002D01*
X195961000Y-91059000D01*
X191563078Y-91059000D01*
X191563078Y-90790000D01*
X191547138Y-90705286D01*
X191497072Y-90627482D01*
X191420680Y-90575285D01*
X191330000Y-90556922D01*
X189830000Y-90556922D01*
X189745286Y-90572862D01*
X189667482Y-90622928D01*
X189615285Y-90699320D01*
X189596922Y-90790000D01*
X188863078Y-90790000D01*
X188847138Y-90705286D01*
X188797072Y-90627482D01*
X188720680Y-90575285D01*
X188630000Y-90556922D01*
X187130000Y-90556922D01*
X187045286Y-90572862D01*
X186967482Y-90622928D01*
X186915285Y-90699320D01*
X186896922Y-90790000D01*
X186896922Y-91059000D01*
X186593815Y-91059000D01*
X184942816Y-89408000D01*
X186896922Y-89408000D01*
X186896922Y-89677000D01*
X186912862Y-89761714D01*
X186962928Y-89839518D01*
X187039320Y-89891715D01*
X187130000Y-89910078D01*
X188630000Y-89910078D01*
X188714714Y-89894138D01*
X188792518Y-89844072D01*
X188844715Y-89767680D01*
X188863078Y-89677000D01*
X188863078Y-88377000D01*
X189596922Y-88377000D01*
X189596922Y-89677000D01*
X189612862Y-89761714D01*
X189662928Y-89839518D01*
X189739320Y-89891715D01*
X189830000Y-89910078D01*
X191330000Y-89910078D01*
X191414714Y-89894138D01*
X191492518Y-89844072D01*
X191544715Y-89767680D01*
X191563078Y-89677000D01*
X191563078Y-89408000D01*
X194533184Y-89408000D01*
X196834590Y-91709405D01*
X196834592Y-91709408D01*
X196900608Y-91753518D01*
X196958197Y-91791998D01*
X197104000Y-91821000D01*
X200736803Y-91821000D01*
X200744156Y-91857967D01*
X200980915Y-92212302D01*
X201335250Y-92449061D01*
X201753217Y-92532200D01*
X202106783Y-92532200D01*
X202524750Y-92449061D01*
X202879085Y-92212302D01*
X203115844Y-91857967D01*
X203198983Y-91440000D01*
X203115844Y-91022033D01*
X202879085Y-90667698D01*
X202524750Y-90430939D01*
X202106783Y-90347800D01*
X201753217Y-90347800D01*
X201335250Y-90430939D01*
X200980915Y-90667698D01*
X200744156Y-91022033D01*
X200736803Y-91059000D01*
X197261815Y-91059000D01*
X194960408Y-88757592D01*
X194836803Y-88675002D01*
X194691000Y-88646000D01*
X191563078Y-88646000D01*
X191563078Y-88377000D01*
X191547138Y-88292286D01*
X191497072Y-88214482D01*
X191420680Y-88162285D01*
X191330000Y-88143922D01*
X189830000Y-88143922D01*
X189745286Y-88159862D01*
X189667482Y-88209928D01*
X189615285Y-88286320D01*
X189596922Y-88377000D01*
X188863078Y-88377000D01*
X188847138Y-88292286D01*
X188797072Y-88214482D01*
X188720680Y-88162285D01*
X188630000Y-88143922D01*
X187928875Y-88143922D01*
X187880000Y-88134200D01*
X187831125Y-88143922D01*
X187130000Y-88143922D01*
X187045286Y-88159862D01*
X186967482Y-88209928D01*
X186915285Y-88286320D01*
X186896922Y-88377000D01*
X186896922Y-88646000D01*
X185069815Y-88646000D01*
X184531000Y-88107184D01*
X184531000Y-86644816D01*
X185150590Y-87264405D01*
X185150592Y-87264408D01*
X185274198Y-87346998D01*
X185420000Y-87376001D01*
X185420005Y-87376000D01*
X192611922Y-87376000D01*
X192611922Y-87645000D01*
X192627862Y-87729714D01*
X192677928Y-87807518D01*
X192754320Y-87859715D01*
X192845000Y-87878078D01*
X194345000Y-87878078D01*
X194429714Y-87862138D01*
X194507518Y-87812072D01*
X194559715Y-87735680D01*
X194578078Y-87645000D01*
X194578078Y-86345000D01*
X195311922Y-86345000D01*
X195311922Y-87645000D01*
X195327862Y-87729714D01*
X195377928Y-87807518D01*
X195454320Y-87859715D01*
X195545000Y-87878078D01*
X197045000Y-87878078D01*
X197129714Y-87862138D01*
X197207518Y-87812072D01*
X197259715Y-87735680D01*
X197278078Y-87645000D01*
X197278078Y-87376000D01*
X197454184Y-87376000D01*
X199247592Y-89169408D01*
X199371198Y-89251998D01*
X199517000Y-89281001D01*
X199517005Y-89281000D01*
X200736803Y-89281000D01*
X200744156Y-89317967D01*
X200980915Y-89672302D01*
X201335250Y-89909061D01*
X201753217Y-89992200D01*
X202106783Y-89992200D01*
X202524750Y-89909061D01*
X202879085Y-89672302D01*
X203115844Y-89317967D01*
X203198983Y-88900000D01*
X203115844Y-88482033D01*
X202879085Y-88127698D01*
X202524750Y-87890939D01*
X202106783Y-87807800D01*
X201753217Y-87807800D01*
X201335250Y-87890939D01*
X200980915Y-88127698D01*
X200744156Y-88482033D01*
X200736803Y-88519000D01*
X199674816Y-88519000D01*
X197881408Y-86725592D01*
X197757803Y-86643002D01*
X197612000Y-86614000D01*
X197278078Y-86614000D01*
X197278078Y-86345000D01*
X197262138Y-86260286D01*
X197212072Y-86182482D01*
X197135680Y-86130285D01*
X197045000Y-86111922D01*
X195545000Y-86111922D01*
X195460286Y-86127862D01*
X195382482Y-86177928D01*
X195330285Y-86254320D01*
X195311922Y-86345000D01*
X194578078Y-86345000D01*
X194562138Y-86260286D01*
X194512072Y-86182482D01*
X194435680Y-86130285D01*
X194345000Y-86111922D01*
X192845000Y-86111922D01*
X192760286Y-86127862D01*
X192682482Y-86177928D01*
X192630285Y-86254320D01*
X192611922Y-86345000D01*
X192611922Y-86614000D01*
X185577815Y-86614000D01*
X185039000Y-86075184D01*
X185039000Y-85120816D01*
X185658590Y-85740405D01*
X185658592Y-85740408D01*
X185759635Y-85807922D01*
X185782198Y-85822998D01*
X185928000Y-85852001D01*
X185928005Y-85852000D01*
X187023922Y-85852000D01*
X187023922Y-86121000D01*
X187039862Y-86205714D01*
X187089928Y-86283518D01*
X187166320Y-86335715D01*
X187257000Y-86354078D01*
X188757000Y-86354078D01*
X188841714Y-86338138D01*
X188919518Y-86288072D01*
X188971715Y-86211680D01*
X188990078Y-86121000D01*
X188990078Y-84821000D01*
X189723922Y-84821000D01*
X189723922Y-86121000D01*
X189739862Y-86205714D01*
X189789928Y-86283518D01*
X189866320Y-86335715D01*
X189957000Y-86354078D01*
X191457000Y-86354078D01*
X191541714Y-86338138D01*
X191619518Y-86288072D01*
X191671715Y-86211680D01*
X191690078Y-86121000D01*
X191690078Y-85852000D01*
X198724184Y-85852000D01*
X199501592Y-86629408D01*
X199625198Y-86711998D01*
X199771000Y-86741001D01*
X199771005Y-86741000D01*
X200736803Y-86741000D01*
X200744156Y-86777967D01*
X200980915Y-87132302D01*
X201335250Y-87369061D01*
X201753217Y-87452200D01*
X202106783Y-87452200D01*
X202524750Y-87369061D01*
X202879085Y-87132302D01*
X203115844Y-86777967D01*
X203198983Y-86360000D01*
X203115844Y-85942033D01*
X202879085Y-85587698D01*
X202524750Y-85350939D01*
X202106783Y-85267800D01*
X201753217Y-85267800D01*
X201335250Y-85350939D01*
X200980915Y-85587698D01*
X200744156Y-85942033D01*
X200736803Y-85979000D01*
X199928816Y-85979000D01*
X199151408Y-85201592D01*
X199027803Y-85119002D01*
X198882000Y-85090000D01*
X191690078Y-85090000D01*
X191690078Y-84821000D01*
X191674138Y-84736286D01*
X191624072Y-84658482D01*
X191547680Y-84606285D01*
X191457000Y-84587922D01*
X189957000Y-84587922D01*
X189872286Y-84603862D01*
X189794482Y-84653928D01*
X189742285Y-84730320D01*
X189723922Y-84821000D01*
X188990078Y-84821000D01*
X188974138Y-84736286D01*
X188924072Y-84658482D01*
X188847680Y-84606285D01*
X188757000Y-84587922D01*
X187257000Y-84587922D01*
X187172286Y-84603862D01*
X187094482Y-84653928D01*
X187042285Y-84730320D01*
X187023922Y-84821000D01*
X187023922Y-85090000D01*
X186085815Y-85090000D01*
X185547000Y-84551184D01*
X185547000Y-83596816D01*
X185912590Y-83962405D01*
X185912592Y-83962408D01*
X186036198Y-84044998D01*
X186182000Y-84074000D01*
X191817000Y-84074000D01*
X191962803Y-84044998D01*
X192086408Y-83962408D01*
X193123737Y-82925078D01*
X194218000Y-82925078D01*
X194302714Y-82909138D01*
X194380518Y-82859072D01*
X194432715Y-82782680D01*
X194451078Y-82692000D01*
X194451078Y-81392000D01*
X195184922Y-81392000D01*
X195184922Y-82692000D01*
X195200862Y-82776714D01*
X195250928Y-82854518D01*
X195327320Y-82906715D01*
X195418000Y-82925078D01*
X196918000Y-82925078D01*
X197002714Y-82909138D01*
X197080518Y-82859072D01*
X197132715Y-82782680D01*
X197151078Y-82692000D01*
X197151078Y-82500894D01*
X198739590Y-84089405D01*
X198739592Y-84089408D01*
X198820257Y-84143306D01*
X198863198Y-84171998D01*
X199009000Y-84201001D01*
X199009005Y-84201000D01*
X200736803Y-84201000D01*
X200744156Y-84237967D01*
X200980915Y-84592302D01*
X201335250Y-84829061D01*
X201753217Y-84912200D01*
X202106783Y-84912200D01*
X202524750Y-84829061D01*
X202879085Y-84592302D01*
X203115844Y-84237967D01*
X203198983Y-83820000D01*
X203115844Y-83402033D01*
X202879085Y-83047698D01*
X202524750Y-82810939D01*
X202106783Y-82727800D01*
X201753217Y-82727800D01*
X201335250Y-82810939D01*
X200980915Y-83047698D01*
X200744156Y-83402033D01*
X200736803Y-83439000D01*
X199166815Y-83439000D01*
X197500408Y-81772592D01*
X197376803Y-81690002D01*
X197231000Y-81661000D01*
X197151078Y-81661000D01*
X197151078Y-81392000D01*
X197135138Y-81307286D01*
X197085072Y-81229482D01*
X197008680Y-81177285D01*
X196918000Y-81158922D01*
X195418000Y-81158922D01*
X195333286Y-81174862D01*
X195255482Y-81224928D01*
X195203285Y-81301320D01*
X195184922Y-81392000D01*
X194451078Y-81392000D01*
X194435138Y-81307286D01*
X194385072Y-81229482D01*
X194308680Y-81177285D01*
X194218000Y-81158922D01*
X192718000Y-81158922D01*
X192633286Y-81174862D01*
X192555482Y-81224928D01*
X192503285Y-81301320D01*
X192484922Y-81392000D01*
X192484922Y-82486263D01*
X191659184Y-83312000D01*
X186339815Y-83312000D01*
X186055000Y-83027184D01*
X186055000Y-82072816D01*
X186293592Y-82311408D01*
X186417197Y-82393998D01*
X186563000Y-82423000D01*
X186769922Y-82423000D01*
X186769922Y-82692000D01*
X186785862Y-82776714D01*
X186835928Y-82854518D01*
X186912320Y-82906715D01*
X187003000Y-82925078D01*
X188503000Y-82925078D01*
X188587714Y-82909138D01*
X188665518Y-82859072D01*
X188717715Y-82782680D01*
X188736078Y-82692000D01*
X188736078Y-81392000D01*
X189469922Y-81392000D01*
X189469922Y-82692000D01*
X189485862Y-82776714D01*
X189535928Y-82854518D01*
X189612320Y-82906715D01*
X189703000Y-82925078D01*
X191203000Y-82925078D01*
X191287714Y-82909138D01*
X191365518Y-82859072D01*
X191417715Y-82782680D01*
X191436078Y-82692000D01*
X191436078Y-81392000D01*
X191420138Y-81307286D01*
X191370072Y-81229482D01*
X191293680Y-81177285D01*
X191272766Y-81173050D01*
X192181815Y-80264000D01*
X200375184Y-80264000D01*
X200680922Y-80569738D01*
X200680922Y-82143600D01*
X200696862Y-82228314D01*
X200746928Y-82306118D01*
X200823320Y-82358315D01*
X200914000Y-82376678D01*
X202946000Y-82376678D01*
X203030714Y-82360738D01*
X203108518Y-82310672D01*
X203160715Y-82234280D01*
X203179078Y-82143600D01*
X203179078Y-80416400D01*
X203163138Y-80331686D01*
X203113072Y-80253882D01*
X203036680Y-80201685D01*
X202946000Y-80183322D01*
X201372138Y-80183322D01*
X200802408Y-79613592D01*
X200678803Y-79531002D01*
X200533000Y-79502000D01*
X192024005Y-79502000D01*
X192024000Y-79501999D01*
X191878198Y-79531002D01*
X191754592Y-79613592D01*
X191754590Y-79613595D01*
X190209262Y-81158922D01*
X189703000Y-81158922D01*
X189618286Y-81174862D01*
X189540482Y-81224928D01*
X189488285Y-81301320D01*
X189469922Y-81392000D01*
X188736078Y-81392000D01*
X188720138Y-81307286D01*
X188670072Y-81229482D01*
X188593680Y-81177285D01*
X188503000Y-81158922D01*
X187003000Y-81158922D01*
X186918286Y-81174862D01*
X186840482Y-81224928D01*
X186788285Y-81301320D01*
X186769922Y-81392000D01*
X186769922Y-81661000D01*
X186720816Y-81661000D01*
X184673408Y-79613592D01*
X184549803Y-79531002D01*
X184404000Y-79502000D01*
X177800000Y-79502000D01*
X177654197Y-79531002D01*
X177530592Y-79613592D01*
X174228592Y-82915592D01*
X174228372Y-82915922D01*
X174198000Y-82915922D01*
X174113286Y-82931862D01*
X174035482Y-82981928D01*
X173983285Y-83058320D01*
X173964922Y-83149000D01*
X173761078Y-83149000D01*
X173745138Y-83064286D01*
X173695072Y-82986482D01*
X173618680Y-82934285D01*
X173609000Y-82932325D01*
X173609000Y-82469182D01*
X173712211Y-82366151D01*
X173799400Y-82156177D01*
X173799599Y-81928820D01*
X173712776Y-81718694D01*
X173552151Y-81557789D01*
X173342177Y-81470600D01*
X173114820Y-81470401D01*
X172904694Y-81557224D01*
X172743789Y-81717849D01*
X172656600Y-81927823D01*
X172656401Y-82155180D01*
X161575078Y-82155180D01*
X161575078Y-81891000D01*
X161559138Y-81806286D01*
X161509072Y-81728482D01*
X161432680Y-81676285D01*
X161342000Y-81657922D01*
X160742000Y-81657922D01*
X160657286Y-81673862D01*
X160642788Y-81683191D01*
X160632680Y-81676285D01*
X160542000Y-81657922D01*
X159942000Y-81657922D01*
X159857286Y-81673862D01*
X159779482Y-81723928D01*
X159727285Y-81800320D01*
X159708922Y-81891000D01*
X159708922Y-83091000D01*
X159724862Y-83175714D01*
X159774928Y-83253518D01*
X159851320Y-83305715D01*
X159942000Y-83324078D01*
X160542000Y-83324078D01*
X160626714Y-83308138D01*
X160641212Y-83298809D01*
X160651320Y-83305715D01*
X160742000Y-83324078D01*
X161342000Y-83324078D01*
X161426714Y-83308138D01*
X161504518Y-83258072D01*
X161556715Y-83181680D01*
X161575078Y-83091000D01*
X161575078Y-83058000D01*
X163926184Y-83058000D01*
X164390590Y-83522405D01*
X164390592Y-83522408D01*
X164420777Y-83552592D01*
X164434185Y-83566000D01*
X163310966Y-83566000D01*
X163309138Y-83556286D01*
X163259072Y-83478482D01*
X163182680Y-83426285D01*
X163092000Y-83407922D01*
X161892000Y-83407922D01*
X161807286Y-83423862D01*
X161729482Y-83473928D01*
X161677285Y-83550320D01*
X161658922Y-83641000D01*
X161658922Y-84241000D01*
X161674862Y-84325714D01*
X161684191Y-84340212D01*
X161677285Y-84350320D01*
X161658922Y-84441000D01*
X161658922Y-85041000D01*
X161674862Y-85125714D01*
X161684191Y-85140212D01*
X161677285Y-85150320D01*
X161658922Y-85241000D01*
X161658922Y-85841000D01*
X161674862Y-85925714D01*
X161684191Y-85940212D01*
X161677285Y-85950320D01*
X161658922Y-86041000D01*
X161658922Y-86641000D01*
X161674862Y-86725714D01*
X161684191Y-86740212D01*
X161677285Y-86750320D01*
X161658922Y-86841000D01*
X161658922Y-87441000D01*
X161674862Y-87525714D01*
X161684191Y-87540212D01*
X161677285Y-87550320D01*
X161658922Y-87641000D01*
X161658922Y-88241000D01*
X161674862Y-88325714D01*
X161684191Y-88340212D01*
X161677285Y-88350320D01*
X161658922Y-88441000D01*
X161658922Y-89041000D01*
X161674862Y-89125714D01*
X161684191Y-89140212D01*
X161677285Y-89150320D01*
X161675325Y-89160000D01*
X161199816Y-89160000D01*
X160909000Y-88869184D01*
X160909000Y-86914182D01*
X161012211Y-86811151D01*
X161099400Y-86601177D01*
X161099599Y-86373820D01*
X161012776Y-86163694D01*
X160852151Y-86002789D01*
X160642177Y-85915600D01*
X160414820Y-85915401D01*
X160204694Y-86002224D01*
X160147000Y-86059818D01*
X160147000Y-85898182D01*
X160250211Y-85795151D01*
X160337400Y-85585177D01*
X160337599Y-85357820D01*
X160250776Y-85147694D01*
X160090151Y-84986789D01*
X159880177Y-84899600D01*
X159652820Y-84899401D01*
X159442694Y-84986224D01*
X159281789Y-85146849D01*
X159194600Y-85356823D01*
X159194401Y-85584180D01*
X159281224Y-85794306D01*
X159385000Y-85898263D01*
X159385000Y-88869185D01*
X158369000Y-87853184D01*
X158369000Y-85136182D01*
X158472211Y-85033151D01*
X158559400Y-84823177D01*
X158559599Y-84595820D01*
X158472776Y-84385694D01*
X158456984Y-84369875D01*
X158508823Y-84391400D01*
X158736180Y-84391599D01*
X158946306Y-84304776D01*
X159107211Y-84144151D01*
X159194400Y-83934177D01*
X159194599Y-83706820D01*
X159107776Y-83496694D01*
X159023000Y-83411770D01*
X159023000Y-83308837D01*
X159026714Y-83308138D01*
X159104518Y-83258072D01*
X159156715Y-83181680D01*
X159175078Y-83091000D01*
X159175078Y-81891000D01*
X159159138Y-81806286D01*
X159109072Y-81728482D01*
X159032680Y-81676285D01*
X158942000Y-81657922D01*
X158342000Y-81657922D01*
X158257286Y-81673862D01*
X158179482Y-81723928D01*
X158127285Y-81800320D01*
X158108922Y-81891000D01*
X158108922Y-83091000D01*
X158124862Y-83175714D01*
X158174928Y-83253518D01*
X158251320Y-83305715D01*
X158261000Y-83307675D01*
X158261000Y-83373851D01*
X158138789Y-83495849D01*
X158051600Y-83705823D01*
X158051401Y-83933180D01*
X158138224Y-84143306D01*
X158154016Y-84159125D01*
X158102177Y-84137600D01*
X157874820Y-84137401D01*
X157664694Y-84224224D01*
X157503789Y-84384849D01*
X157416600Y-84594823D01*
X157416401Y-84822180D01*
X157503224Y-85032306D01*
X157607000Y-85136263D01*
X157607000Y-88011000D01*
X157619633Y-88074511D01*
X157493820Y-88074401D01*
X157283694Y-88161224D01*
X157179737Y-88265000D01*
X156215340Y-88265000D01*
X156273400Y-88125177D01*
X156273599Y-87897820D01*
X156186776Y-87687694D01*
X156026151Y-87526789D01*
X155816177Y-87439600D01*
X155588820Y-87439401D01*
X155378694Y-87526224D01*
X155217789Y-87686849D01*
X155130600Y-87896823D01*
X155130471Y-88043713D01*
X154814184Y-88360000D01*
X154809837Y-88360000D01*
X154809138Y-88356286D01*
X154799809Y-88341788D01*
X154806715Y-88331680D01*
X154825078Y-88241000D01*
X154825078Y-87641000D01*
X154809138Y-87556286D01*
X154799809Y-87541788D01*
X154806715Y-87531680D01*
X154825078Y-87441000D01*
X154825078Y-86841000D01*
X154809138Y-86756286D01*
X154799809Y-86741788D01*
X154806715Y-86731680D01*
X154825078Y-86641000D01*
X154825078Y-86041000D01*
X154809138Y-85956286D01*
X154799809Y-85941788D01*
X154806715Y-85931680D01*
X154825078Y-85841000D01*
X154825078Y-85241000D01*
X154809138Y-85156286D01*
X154799809Y-85141788D01*
X154806715Y-85131680D01*
X154825078Y-85041000D01*
X154825078Y-84441000D01*
X154809138Y-84356286D01*
X154799809Y-84341788D01*
X154806715Y-84331680D01*
X154825078Y-84241000D01*
X154825078Y-83641000D01*
X154809138Y-83556286D01*
X154759072Y-83478482D01*
X154682680Y-83426285D01*
X154592000Y-83407922D01*
X153392000Y-83407922D01*
X153307286Y-83423862D01*
X153229482Y-83473928D01*
X153177285Y-83550320D01*
X153158922Y-83641000D01*
X153158922Y-84241000D01*
X153174862Y-84325714D01*
X153184191Y-84340212D01*
X153177285Y-84350320D01*
X153158922Y-84441000D01*
X153158922Y-85041000D01*
X153174862Y-85125714D01*
X153184191Y-85140212D01*
X153177285Y-85150320D01*
X153158922Y-85241000D01*
X153158922Y-85841000D01*
X153174862Y-85925714D01*
X153184191Y-85940212D01*
X153177285Y-85950320D01*
X153158922Y-86041000D01*
X153158922Y-86641000D01*
X153174862Y-86725714D01*
X153184191Y-86740212D01*
X153177285Y-86750320D01*
X153158922Y-86841000D01*
X153158922Y-87441000D01*
X153174862Y-87525714D01*
X153184191Y-87540212D01*
X153177285Y-87550320D01*
X153175325Y-87560000D01*
X152630304Y-87560000D01*
X152597151Y-87526789D01*
X152387177Y-87439600D01*
X152159820Y-87439401D01*
X151949694Y-87526224D01*
X151788789Y-87686849D01*
X151701600Y-87896823D01*
X151701401Y-88124180D01*
X151788224Y-88334306D01*
X151948849Y-88495211D01*
X152158823Y-88582400D01*
X152386180Y-88582599D01*
X152596306Y-88495776D01*
X152757211Y-88335151D01*
X152762672Y-88322000D01*
X153174163Y-88322000D01*
X153174862Y-88325714D01*
X153184191Y-88340212D01*
X153177285Y-88350320D01*
X153158922Y-88441000D01*
X153158922Y-89041000D01*
X153174862Y-89125714D01*
X153184191Y-89140212D01*
X153177285Y-89150320D01*
X153175325Y-89160000D01*
X152071172Y-89160000D01*
X151962151Y-89050789D01*
X151752177Y-88963600D01*
X151524820Y-88963401D01*
X151314694Y-89050224D01*
X151153789Y-89210849D01*
X151066600Y-89420823D01*
X151066401Y-89648180D01*
X151153224Y-89858306D01*
X151313849Y-90019211D01*
X151523823Y-90106400D01*
X151751180Y-90106599D01*
X151961306Y-90019776D01*
X152059252Y-89922000D01*
X153174163Y-89922000D01*
X153174862Y-89925714D01*
X153224928Y-90003518D01*
X153301320Y-90055715D01*
X153392000Y-90074078D01*
X154592000Y-90074078D01*
X154676714Y-90058138D01*
X154754518Y-90008072D01*
X154806715Y-89931680D01*
X154808675Y-89922000D01*
X155188000Y-89922000D01*
X155333803Y-89892998D01*
X155457408Y-89810408D01*
X155638417Y-89629399D01*
X155638401Y-89648180D01*
X155708600Y-89818073D01*
X155708600Y-90157922D01*
X155142000Y-90157922D01*
X155057286Y-90173862D01*
X154979482Y-90223928D01*
X154927285Y-90300320D01*
X154908922Y-90391000D01*
X154908922Y-91023337D01*
X154903002Y-91032197D01*
X154882195Y-91136802D01*
X154874000Y-91178000D01*
X154874000Y-92467755D01*
X154820286Y-92477862D01*
X154742482Y-92527928D01*
X154690285Y-92604320D01*
X154671922Y-92695000D01*
X154671922Y-93995000D01*
X154687862Y-94079714D01*
X154737928Y-94157518D01*
X154814320Y-94209715D01*
X154905000Y-94228078D01*
X155523325Y-94228078D01*
X155441213Y-94310190D01*
X153059034Y-94310190D01*
X153059029Y-94310189D01*
X152913227Y-94339192D01*
X152789621Y-94421782D01*
X151924779Y-95286624D01*
X151775302Y-95062915D01*
X151420967Y-94826156D01*
X151384000Y-94818803D01*
X151384000Y-94391816D01*
X152049816Y-93726000D01*
X152771922Y-93726000D01*
X152771922Y-93995000D01*
X152787862Y-94079714D01*
X152837928Y-94157518D01*
X152914320Y-94209715D01*
X153005000Y-94228078D01*
X153705000Y-94228078D01*
X153789714Y-94212138D01*
X153867518Y-94162072D01*
X153919715Y-94085680D01*
X153938078Y-93995000D01*
X153938078Y-92695000D01*
X153922138Y-92610286D01*
X153872072Y-92532482D01*
X153795680Y-92480285D01*
X153705000Y-92461922D01*
X153005000Y-92461922D01*
X152920286Y-92477862D01*
X152842482Y-92527928D01*
X152790285Y-92604320D01*
X152771922Y-92695000D01*
X152771922Y-92964000D01*
X151892005Y-92964000D01*
X151892000Y-92963999D01*
X151746198Y-92993002D01*
X151622592Y-93075592D01*
X150733592Y-93964592D01*
X150651002Y-94088197D01*
X150642209Y-94132401D01*
X150622000Y-94234000D01*
X150622000Y-94818803D01*
X150585033Y-94826156D01*
X150230698Y-95062915D01*
X149993939Y-95417250D01*
X149910800Y-95835217D01*
X149910800Y-96188783D01*
X149993939Y-96606750D01*
X150224501Y-96951810D01*
X149241499Y-96951810D01*
X149472061Y-96606750D01*
X149555200Y-96188783D01*
X149555200Y-95835217D01*
X149472061Y-95417250D01*
X149235302Y-95062915D01*
X148880967Y-94826156D01*
X148463000Y-94743017D01*
X148045033Y-94826156D01*
X147690698Y-95062915D01*
X147453939Y-95417250D01*
X147370800Y-95835217D01*
X147370800Y-96188783D01*
X147453939Y-96606750D01*
X147684501Y-96951810D01*
X144709225Y-96951810D01*
X144380888Y-96623472D01*
X144392061Y-96606750D01*
X144475200Y-96188783D01*
X144475200Y-95835217D01*
X144392061Y-95417250D01*
X144155302Y-95062915D01*
X143800967Y-94826156D01*
X143383000Y-94743017D01*
X142965033Y-94826156D01*
X142610698Y-95062915D01*
X142373939Y-95417250D01*
X142290800Y-95835217D01*
X140034598Y-95835217D01*
X141366405Y-94503410D01*
X141366408Y-94503408D01*
X141448998Y-94379802D01*
X141457076Y-94339192D01*
X141478001Y-94234000D01*
X141478000Y-94233995D01*
X141478000Y-92569180D01*
X146875401Y-92569180D01*
X146962224Y-92779306D01*
X147122849Y-92940211D01*
X147332823Y-93027400D01*
X147560180Y-93027599D01*
X147770306Y-92940776D01*
X147931211Y-92780151D01*
X148018400Y-92570177D01*
X148018599Y-92342820D01*
X147931776Y-92132694D01*
X147828000Y-92028737D01*
X147828000Y-91439837D01*
X147831714Y-91439138D01*
X147909518Y-91389072D01*
X147961715Y-91312680D01*
X147980078Y-91222000D01*
X147980078Y-89622000D01*
X147964138Y-89537286D01*
X147914072Y-89459482D01*
X147837680Y-89407285D01*
X147747000Y-89388922D01*
X147147000Y-89388922D01*
X147062286Y-89404862D01*
X146984482Y-89454928D01*
X146932285Y-89531320D01*
X146913922Y-89622000D01*
X146913922Y-91222000D01*
X146929862Y-91306714D01*
X146979928Y-91384518D01*
X147056320Y-91436715D01*
X147066000Y-91438675D01*
X147066000Y-92028818D01*
X146962789Y-92131849D01*
X146875600Y-92341823D01*
X146875401Y-92569180D01*
X141478000Y-92569180D01*
X141478000Y-91439837D01*
X141481714Y-91439138D01*
X141559518Y-91389072D01*
X141611715Y-91312680D01*
X141630078Y-91222000D01*
X141630078Y-89622000D01*
X141614138Y-89537286D01*
X141564072Y-89459482D01*
X141487680Y-89407285D01*
X141397000Y-89388922D01*
X140797000Y-89388922D01*
X140712286Y-89404862D01*
X140634482Y-89454928D01*
X140582285Y-89531320D01*
X140563922Y-89622000D01*
X140563922Y-91222000D01*
X140579862Y-91306714D01*
X140629928Y-91384518D01*
X140706320Y-91436715D01*
X140716000Y-91438675D01*
X140716000Y-94076185D01*
X139755573Y-95036611D01*
X139731680Y-95020285D01*
X139641000Y-95001922D01*
X138141000Y-95001922D01*
X138056286Y-95017862D01*
X137978482Y-95067928D01*
X137926285Y-95144320D01*
X137907922Y-95235000D01*
X137174078Y-95235000D01*
X137158138Y-95150286D01*
X137108072Y-95072482D01*
X137031680Y-95020285D01*
X136941000Y-95001922D01*
X135441000Y-95001922D01*
X135356286Y-95017862D01*
X135278482Y-95067928D01*
X135226285Y-95144320D01*
X135207922Y-95235000D01*
X135207922Y-95504000D01*
X133947818Y-95504000D01*
X133957714Y-95502138D01*
X134035518Y-95452072D01*
X134087715Y-95375680D01*
X134106078Y-95285000D01*
X134106078Y-94916000D01*
X138764000Y-94916000D01*
X138909803Y-94886998D01*
X139033408Y-94804408D01*
X140096408Y-93741408D01*
X140178998Y-93617803D01*
X140208000Y-93472000D01*
X140208000Y-91439837D01*
X140211714Y-91439138D01*
X140289518Y-91389072D01*
X140341715Y-91312680D01*
X140360078Y-91222000D01*
X140360078Y-89622000D01*
X140344138Y-89537286D01*
X140294072Y-89459482D01*
X140217680Y-89407285D01*
X140127000Y-89388922D01*
X139527000Y-89388922D01*
X139442286Y-89404862D01*
X139364482Y-89454928D01*
X139312285Y-89531320D01*
X139293922Y-89622000D01*
X139293922Y-91222000D01*
X139309862Y-91306714D01*
X139359928Y-91384518D01*
X139436320Y-91436715D01*
X139446000Y-91438675D01*
X139446000Y-93314184D01*
X138606184Y-94154000D01*
X134106078Y-94154000D01*
X134106078Y-93785000D01*
X134090138Y-93700286D01*
X134040072Y-93622482D01*
X133963680Y-93570285D01*
X133873000Y-93551922D01*
X132573000Y-93551922D01*
X132488286Y-93567862D01*
X132410482Y-93617928D01*
X132358285Y-93694320D01*
X132339922Y-93785000D01*
X132339922Y-95285000D01*
X132355862Y-95369714D01*
X132405928Y-95447518D01*
X132482320Y-95499715D01*
X132503480Y-95504000D01*
X131729815Y-95504000D01*
X131206408Y-94980592D01*
X131082803Y-94898002D01*
X130937000Y-94869000D01*
X127793671Y-94869000D01*
X127835518Y-94842072D01*
X127887715Y-94765680D01*
X127906078Y-94675000D01*
X127906078Y-94150000D01*
X127890138Y-94065286D01*
X127889000Y-94063518D01*
X127889000Y-93726000D01*
X127859998Y-93580198D01*
X127859998Y-93580197D01*
X127777408Y-93456592D01*
X125618408Y-91297592D01*
X125494803Y-91215002D01*
X125349000Y-91186000D01*
X120598459Y-91186000D01*
X120565844Y-91022033D01*
X120329085Y-90667698D01*
X119974750Y-90430939D01*
X119556783Y-90347800D01*
X119203217Y-90347800D01*
X118785250Y-90430939D01*
X118430915Y-90667698D01*
X118194156Y-91022033D01*
X118111017Y-91440000D01*
X117068600Y-91440000D01*
X117068600Y-88900000D01*
X118111017Y-88900000D01*
X118194156Y-89317967D01*
X118430915Y-89672302D01*
X118785250Y-89909061D01*
X119203217Y-89992200D01*
X119556783Y-89992200D01*
X119974750Y-89909061D01*
X120329085Y-89672302D01*
X120565844Y-89317967D01*
X120573197Y-89281000D01*
X122778184Y-89281000D01*
X124520092Y-91022908D01*
X124643698Y-91105498D01*
X124789500Y-91134501D01*
X124789505Y-91134500D01*
X126004603Y-91134500D01*
X126032928Y-91178518D01*
X126109320Y-91230715D01*
X126200000Y-91249078D01*
X126500000Y-91249078D01*
X126584714Y-91233138D01*
X126619000Y-91211075D01*
X126619000Y-91694000D01*
X126648002Y-91839803D01*
X126730592Y-91963408D01*
X126984592Y-92217408D01*
X127108197Y-92299998D01*
X127254000Y-92329000D01*
X129794000Y-92329000D01*
X129939803Y-92299998D01*
X130063408Y-92217408D01*
X130459815Y-91821000D01*
X131016922Y-91821000D01*
X131016922Y-92090000D01*
X131032862Y-92174714D01*
X131082928Y-92252518D01*
X131159320Y-92304715D01*
X131250000Y-92323078D01*
X132750000Y-92323078D01*
X132834714Y-92307138D01*
X132912518Y-92257072D01*
X132964715Y-92180680D01*
X132983078Y-92090000D01*
X132983078Y-90790000D01*
X132967138Y-90705286D01*
X132917072Y-90627482D01*
X132840680Y-90575285D01*
X132750000Y-90556922D01*
X131250000Y-90556922D01*
X131165286Y-90572862D01*
X131087482Y-90622928D01*
X131035285Y-90699320D01*
X131016922Y-90790000D01*
X131016922Y-91059000D01*
X130302000Y-91059000D01*
X130156198Y-91088002D01*
X130032592Y-91170592D01*
X130032590Y-91170595D01*
X129636184Y-91567000D01*
X127411816Y-91567000D01*
X127381000Y-91536184D01*
X127381000Y-91026262D01*
X127383078Y-91016000D01*
X127383078Y-90491000D01*
X127367138Y-90406286D01*
X127317072Y-90328482D01*
X127240680Y-90276285D01*
X127150000Y-90257922D01*
X126850000Y-90257922D01*
X126765286Y-90273862D01*
X126687482Y-90323928D01*
X126675462Y-90341520D01*
X126667072Y-90328482D01*
X126590680Y-90276285D01*
X126500000Y-90257922D01*
X126200000Y-90257922D01*
X126115286Y-90273862D01*
X126037482Y-90323928D01*
X126004294Y-90372500D01*
X124947316Y-90372500D01*
X123205408Y-88630592D01*
X123081803Y-88548002D01*
X122936000Y-88519000D01*
X120573197Y-88519000D01*
X120565844Y-88482033D01*
X120329085Y-88127698D01*
X119974750Y-87890939D01*
X119556783Y-87807800D01*
X119203217Y-87807800D01*
X118785250Y-87890939D01*
X118430915Y-88127698D01*
X118194156Y-88482033D01*
X118111017Y-88900000D01*
X117068600Y-88900000D01*
X117068600Y-83820000D01*
X118111017Y-83820000D01*
X118194156Y-84237967D01*
X118430915Y-84592302D01*
X118785250Y-84829061D01*
X119203217Y-84912200D01*
X119556783Y-84912200D01*
X119974750Y-84829061D01*
X120329085Y-84592302D01*
X120565844Y-84237967D01*
X120573197Y-84201000D01*
X122651184Y-84201000D01*
X124429184Y-85979000D01*
X120573197Y-85979000D01*
X120565844Y-85942033D01*
X120329085Y-85587698D01*
X119974750Y-85350939D01*
X119556783Y-85267800D01*
X119203217Y-85267800D01*
X118785250Y-85350939D01*
X118430915Y-85587698D01*
X118194156Y-85942033D01*
X118111017Y-86360000D01*
X118194156Y-86777967D01*
X118430915Y-87132302D01*
X118785250Y-87369061D01*
X119203217Y-87452200D01*
X119556783Y-87452200D01*
X119974750Y-87369061D01*
X120329085Y-87132302D01*
X120565844Y-86777967D01*
X120573197Y-86741000D01*
X125445184Y-86741000D01*
X127269000Y-88564816D01*
X127269000Y-88620635D01*
X127240680Y-88601285D01*
X127150000Y-88582922D01*
X126850000Y-88582922D01*
X126765286Y-88598862D01*
X126687482Y-88648928D01*
X126635285Y-88725320D01*
X126616922Y-88816000D01*
X126616922Y-89341000D01*
X126619000Y-89352044D01*
X126619000Y-89535000D01*
X126648002Y-89680803D01*
X126730592Y-89804408D01*
X127111590Y-90185405D01*
X127111592Y-90185408D01*
X127235198Y-90267998D01*
X127381000Y-90297000D01*
X128778000Y-90297000D01*
X128923803Y-90267998D01*
X129047408Y-90185408D01*
X129951816Y-89281000D01*
X131016922Y-89281000D01*
X131016922Y-89550000D01*
X131032862Y-89634714D01*
X131082928Y-89712518D01*
X131159320Y-89764715D01*
X131250000Y-89783078D01*
X132750000Y-89783078D01*
X132834714Y-89767138D01*
X132912518Y-89717072D01*
X132964715Y-89640680D01*
X132983078Y-89550000D01*
X132983078Y-88250000D01*
X132967138Y-88165286D01*
X132917072Y-88087482D01*
X132840680Y-88035285D01*
X132750000Y-88016922D01*
X131250000Y-88016922D01*
X131165286Y-88032862D01*
X131087482Y-88082928D01*
X131035285Y-88159320D01*
X131016922Y-88250000D01*
X131016922Y-88519000D01*
X129794000Y-88519000D01*
X129648197Y-88548002D01*
X129524592Y-88630592D01*
X128620184Y-89535000D01*
X127920671Y-89535000D01*
X127962518Y-89508072D01*
X128014715Y-89431680D01*
X128033078Y-89341000D01*
X128033078Y-88816000D01*
X128031000Y-88804956D01*
X128031000Y-88407000D01*
X128014831Y-88325714D01*
X128001998Y-88261197D01*
X127919408Y-88137592D01*
X127006933Y-87225117D01*
X127127000Y-87249000D01*
X130048000Y-87249000D01*
X130193803Y-87219998D01*
X130317408Y-87137408D01*
X130713815Y-86741000D01*
X131016922Y-86741000D01*
X131016922Y-87010000D01*
X131032862Y-87094714D01*
X131082928Y-87172518D01*
X131159320Y-87224715D01*
X131250000Y-87243078D01*
X132750000Y-87243078D01*
X132834714Y-87227138D01*
X132912518Y-87177072D01*
X132964715Y-87100680D01*
X132983078Y-87010000D01*
X132983078Y-85710000D01*
X132967138Y-85625286D01*
X132917072Y-85547482D01*
X132840680Y-85495285D01*
X132750000Y-85476922D01*
X131250000Y-85476922D01*
X131165286Y-85492862D01*
X131087482Y-85542928D01*
X131035285Y-85619320D01*
X131016922Y-85710000D01*
X131016922Y-85979000D01*
X130556000Y-85979000D01*
X130410198Y-86008002D01*
X130286592Y-86090592D01*
X130286590Y-86090595D01*
X129890184Y-86487000D01*
X127381000Y-86487000D01*
X127381000Y-86073262D01*
X127383078Y-86063000D01*
X127383078Y-85538000D01*
X127367138Y-85453286D01*
X127317072Y-85375482D01*
X127270997Y-85344000D01*
X128524000Y-85344000D01*
X128669803Y-85314998D01*
X128793408Y-85232408D01*
X129824816Y-84201000D01*
X131016922Y-84201000D01*
X131016922Y-84470000D01*
X131032862Y-84554714D01*
X131082928Y-84632518D01*
X131159320Y-84684715D01*
X131250000Y-84703078D01*
X132750000Y-84703078D01*
X132834714Y-84687138D01*
X132912518Y-84637072D01*
X132964715Y-84560680D01*
X132983078Y-84470000D01*
X132983078Y-83170000D01*
X133716922Y-83170000D01*
X133716922Y-84470000D01*
X133732862Y-84554714D01*
X133782928Y-84632518D01*
X133859320Y-84684715D01*
X133950000Y-84703078D01*
X135450000Y-84703078D01*
X135534714Y-84687138D01*
X135612518Y-84637072D01*
X135664715Y-84560680D01*
X135672487Y-84522303D01*
X136398000Y-85247816D01*
X136398000Y-86456184D01*
X136032408Y-86090592D01*
X135908803Y-86008002D01*
X135763000Y-85979000D01*
X135683078Y-85979000D01*
X135683078Y-85710000D01*
X135667138Y-85625286D01*
X135617072Y-85547482D01*
X135540680Y-85495285D01*
X135450000Y-85476922D01*
X133950000Y-85476922D01*
X133865286Y-85492862D01*
X133787482Y-85542928D01*
X133735285Y-85619320D01*
X133716922Y-85710000D01*
X133716922Y-87010000D01*
X133732862Y-87094714D01*
X133782928Y-87172518D01*
X133859320Y-87224715D01*
X133950000Y-87243078D01*
X135450000Y-87243078D01*
X135534714Y-87227138D01*
X135612518Y-87177072D01*
X135664715Y-87100680D01*
X135683078Y-87010000D01*
X135683078Y-86818894D01*
X136763592Y-87899408D01*
X136887197Y-87981998D01*
X137033000Y-88011000D01*
X137256185Y-88011000D01*
X136748184Y-88519000D01*
X135683078Y-88519000D01*
X135683078Y-88250000D01*
X135667138Y-88165286D01*
X135617072Y-88087482D01*
X135540680Y-88035285D01*
X135450000Y-88016922D01*
X133950000Y-88016922D01*
X133865286Y-88032862D01*
X133787482Y-88082928D01*
X133735285Y-88159320D01*
X133716922Y-88250000D01*
X133716922Y-89550000D01*
X133732862Y-89634714D01*
X133782928Y-89712518D01*
X133859320Y-89764715D01*
X133950000Y-89783078D01*
X135450000Y-89783078D01*
X135534714Y-89767138D01*
X135612518Y-89717072D01*
X135664715Y-89640680D01*
X135683078Y-89550000D01*
X135683078Y-89281000D01*
X136748184Y-89281000D01*
X136509592Y-89519592D01*
X136427002Y-89643197D01*
X136403428Y-89761714D01*
X136398000Y-89789000D01*
X136398000Y-90393184D01*
X135732184Y-91059000D01*
X135683078Y-91059000D01*
X135683078Y-90790000D01*
X135667138Y-90705286D01*
X135617072Y-90627482D01*
X135540680Y-90575285D01*
X135450000Y-90556922D01*
X133950000Y-90556922D01*
X133865286Y-90572862D01*
X133787482Y-90622928D01*
X133735285Y-90699320D01*
X133716922Y-90790000D01*
X133716922Y-92090000D01*
X133732862Y-92174714D01*
X133782928Y-92252518D01*
X133859320Y-92304715D01*
X133950000Y-92323078D01*
X135450000Y-92323078D01*
X135534714Y-92307138D01*
X135612518Y-92257072D01*
X135664715Y-92180680D01*
X135683078Y-92090000D01*
X135683078Y-91821000D01*
X135890000Y-91821000D01*
X136035803Y-91791998D01*
X136159408Y-91709408D01*
X137048408Y-90820408D01*
X137130998Y-90696802D01*
X137160001Y-90551000D01*
X137160000Y-90550995D01*
X137160000Y-89946816D01*
X137484816Y-89622000D01*
X138023922Y-89622000D01*
X138023922Y-91222000D01*
X138039862Y-91306714D01*
X138089928Y-91384518D01*
X138166320Y-91436715D01*
X138257000Y-91455078D01*
X138857000Y-91455078D01*
X138941714Y-91439138D01*
X139019518Y-91389072D01*
X139071715Y-91312680D01*
X139090078Y-91222000D01*
X139090078Y-89622000D01*
X139074138Y-89537286D01*
X139024072Y-89459482D01*
X138947680Y-89407285D01*
X138857000Y-89388922D01*
X138257000Y-89388922D01*
X138172286Y-89404862D01*
X138094482Y-89454928D01*
X138042285Y-89531320D01*
X138023922Y-89622000D01*
X137484816Y-89622000D01*
X137952816Y-89154000D01*
X141447184Y-89154000D01*
X141847607Y-89554422D01*
X141833922Y-89622000D01*
X141833922Y-91222000D01*
X141849862Y-91306714D01*
X141899928Y-91384518D01*
X141976320Y-91436715D01*
X142067000Y-91455078D01*
X142667000Y-91455078D01*
X142751714Y-91439138D01*
X142829518Y-91389072D01*
X142881715Y-91312680D01*
X142900078Y-91222000D01*
X142900078Y-89622000D01*
X142884138Y-89537286D01*
X142834072Y-89459482D01*
X142757680Y-89407285D01*
X142721123Y-89399882D01*
X142718998Y-89389198D01*
X142680646Y-89331800D01*
X142636408Y-89265592D01*
X142636405Y-89265590D01*
X142016816Y-88646000D01*
X142463184Y-88646000D01*
X143233886Y-89416702D01*
X143174482Y-89454928D01*
X143122285Y-89531320D01*
X143103922Y-89622000D01*
X143103922Y-91222000D01*
X143119862Y-91306714D01*
X143169928Y-91384518D01*
X143246320Y-91436715D01*
X143337000Y-91455078D01*
X143937000Y-91455078D01*
X144021714Y-91439138D01*
X144099518Y-91389072D01*
X144151715Y-91312680D01*
X144170078Y-91222000D01*
X144170078Y-89622000D01*
X144154138Y-89537286D01*
X144104072Y-89459482D01*
X144027680Y-89407285D01*
X144018000Y-89405325D01*
X144018000Y-89281000D01*
X144013452Y-89258138D01*
X143988998Y-89135197D01*
X143906408Y-89011592D01*
X142905816Y-88011000D01*
X143352184Y-88011000D01*
X144526000Y-89184815D01*
X144526000Y-89404163D01*
X144522286Y-89404862D01*
X144444482Y-89454928D01*
X144392285Y-89531320D01*
X144373922Y-89622000D01*
X144373922Y-91222000D01*
X144389862Y-91306714D01*
X144439928Y-91384518D01*
X144516320Y-91436715D01*
X144607000Y-91455078D01*
X145207000Y-91455078D01*
X145291714Y-91439138D01*
X145369518Y-91389072D01*
X145421715Y-91312680D01*
X145440078Y-91222000D01*
X145440078Y-89622000D01*
X145424138Y-89537286D01*
X145374072Y-89459482D01*
X145297680Y-89407285D01*
X145288000Y-89405325D01*
X145288000Y-89027000D01*
X145258998Y-88881198D01*
X145258998Y-88881197D01*
X145225917Y-88831688D01*
X145176408Y-88757592D01*
X145176405Y-88757590D01*
X143921816Y-87503000D01*
X143987184Y-87503000D01*
X145796000Y-89311816D01*
X145796000Y-89404163D01*
X145792286Y-89404862D01*
X145714482Y-89454928D01*
X145662285Y-89531320D01*
X145643922Y-89622000D01*
X145643922Y-91222000D01*
X145659862Y-91306714D01*
X145709928Y-91384518D01*
X145786320Y-91436715D01*
X145877000Y-91455078D01*
X146477000Y-91455078D01*
X146561714Y-91439138D01*
X146639518Y-91389072D01*
X146691715Y-91312680D01*
X146710078Y-91222000D01*
X146710078Y-89622000D01*
X146694138Y-89537286D01*
X146644072Y-89459482D01*
X146567680Y-89407285D01*
X146558000Y-89405325D01*
X146558000Y-89154000D01*
X146542982Y-89078500D01*
X146528998Y-89008197D01*
X146446408Y-88884592D01*
X144414408Y-86852592D01*
X144290803Y-86770002D01*
X144145000Y-86741000D01*
X137444815Y-86741000D01*
X137160000Y-86456184D01*
X137160000Y-85090000D01*
X137137803Y-84978407D01*
X137130998Y-84944197D01*
X137048408Y-84820592D01*
X135778408Y-83550592D01*
X135683078Y-83486895D01*
X135683078Y-83170000D01*
X135667138Y-83085286D01*
X135626415Y-83022000D01*
X139293922Y-83022000D01*
X139293922Y-84622000D01*
X139309862Y-84706714D01*
X139359928Y-84784518D01*
X139436320Y-84836715D01*
X139527000Y-84855078D01*
X140127000Y-84855078D01*
X140211714Y-84839138D01*
X140289518Y-84789072D01*
X140341715Y-84712680D01*
X140360078Y-84622000D01*
X140360078Y-83022000D01*
X140344138Y-82937286D01*
X140294072Y-82859482D01*
X140217680Y-82807285D01*
X140127000Y-82788922D01*
X139527000Y-82788922D01*
X139442286Y-82804862D01*
X139364482Y-82854928D01*
X139312285Y-82931320D01*
X139293922Y-83022000D01*
X135626415Y-83022000D01*
X135617072Y-83007482D01*
X135540680Y-82955285D01*
X135450000Y-82936922D01*
X133950000Y-82936922D01*
X133865286Y-82952862D01*
X133787482Y-83002928D01*
X133735285Y-83079320D01*
X133716922Y-83170000D01*
X132983078Y-83170000D01*
X132967138Y-83085286D01*
X132917072Y-83007482D01*
X132840680Y-82955285D01*
X132750000Y-82936922D01*
X131250000Y-82936922D01*
X131165286Y-82952862D01*
X131087482Y-83002928D01*
X131035285Y-83079320D01*
X131016922Y-83170000D01*
X131016922Y-83439000D01*
X129667000Y-83439000D01*
X129521197Y-83468002D01*
X129397592Y-83550592D01*
X128366184Y-84582000D01*
X127920671Y-84582000D01*
X127962518Y-84555072D01*
X128014715Y-84478680D01*
X128033078Y-84388000D01*
X128033078Y-83863000D01*
X128031000Y-83851956D01*
X128031000Y-83073005D01*
X128031001Y-83073000D01*
X128001998Y-82927197D01*
X127919408Y-82803592D01*
X127270996Y-82155180D01*
X140525401Y-82155180D01*
X140612224Y-82365306D01*
X140716000Y-82469263D01*
X140716000Y-82854163D01*
X140712286Y-82854862D01*
X140634482Y-82904928D01*
X140582285Y-82981320D01*
X140563922Y-83072000D01*
X140563922Y-84572000D01*
X140579862Y-84656714D01*
X140629928Y-84734518D01*
X140706320Y-84786715D01*
X140797000Y-84805078D01*
X141397000Y-84805078D01*
X141481714Y-84789138D01*
X141559518Y-84739072D01*
X141611715Y-84662680D01*
X141630078Y-84572000D01*
X141630078Y-83072000D01*
X141620670Y-83022000D01*
X144373922Y-83022000D01*
X144373922Y-84622000D01*
X144389862Y-84706714D01*
X144439928Y-84784518D01*
X144516320Y-84836715D01*
X144526000Y-84838675D01*
X144526000Y-85090000D01*
X144555002Y-85235803D01*
X144637592Y-85359408D01*
X146034590Y-86756405D01*
X146034592Y-86756408D01*
X146105098Y-86803518D01*
X146158197Y-86838998D01*
X146304000Y-86868000D01*
X149813818Y-86868000D01*
X149916849Y-86971211D01*
X150126823Y-87058400D01*
X150354180Y-87058599D01*
X150564306Y-86971776D01*
X150725211Y-86811151D01*
X150812400Y-86601177D01*
X150812599Y-86373820D01*
X150725776Y-86163694D01*
X150565151Y-86002789D01*
X150507980Y-85979050D01*
X150564306Y-85955776D01*
X150725211Y-85795151D01*
X150812400Y-85585177D01*
X150812599Y-85357820D01*
X150725776Y-85147694D01*
X150565151Y-84986789D01*
X150355177Y-84899600D01*
X150127820Y-84899401D01*
X149917694Y-84986224D01*
X149813737Y-85090000D01*
X146969815Y-85090000D01*
X146651440Y-84771624D01*
X146691715Y-84712680D01*
X146710078Y-84622000D01*
X146710078Y-83022000D01*
X146913922Y-83022000D01*
X146913922Y-84622000D01*
X146929862Y-84706714D01*
X146979928Y-84784518D01*
X147056320Y-84836715D01*
X147147000Y-84855078D01*
X147747000Y-84855078D01*
X147831714Y-84839138D01*
X147909518Y-84789072D01*
X147961715Y-84712680D01*
X147980078Y-84622000D01*
X147980078Y-84203000D01*
X149942814Y-84203000D01*
X150043849Y-84304211D01*
X150253823Y-84391400D01*
X150481180Y-84391599D01*
X150691306Y-84304776D01*
X150852211Y-84144151D01*
X150939400Y-83934177D01*
X150939599Y-83706820D01*
X150852776Y-83496694D01*
X150692151Y-83335789D01*
X150482177Y-83248600D01*
X150254820Y-83248401D01*
X150044694Y-83335224D01*
X149938734Y-83441000D01*
X147980078Y-83441000D01*
X147980078Y-83022000D01*
X147964138Y-82937286D01*
X147914072Y-82859482D01*
X147837680Y-82807285D01*
X147747000Y-82788922D01*
X147147000Y-82788922D01*
X147062286Y-82804862D01*
X146984482Y-82854928D01*
X146932285Y-82931320D01*
X146913922Y-83022000D01*
X146710078Y-83022000D01*
X146694138Y-82937286D01*
X146644072Y-82859482D01*
X146567680Y-82807285D01*
X146477000Y-82788922D01*
X145877000Y-82788922D01*
X145792286Y-82804862D01*
X145714482Y-82854928D01*
X145662285Y-82931320D01*
X145643922Y-83022000D01*
X145643922Y-84622000D01*
X145659862Y-84706714D01*
X145709928Y-84784518D01*
X145786320Y-84836715D01*
X145796554Y-84838788D01*
X145825002Y-84981803D01*
X145907592Y-85105408D01*
X146542590Y-85740405D01*
X146542592Y-85740408D01*
X146643635Y-85807922D01*
X146666198Y-85822998D01*
X146812000Y-85852001D01*
X146812005Y-85852000D01*
X149813818Y-85852000D01*
X149916849Y-85955211D01*
X149974020Y-85978950D01*
X149917694Y-86002224D01*
X149813737Y-86106000D01*
X146461815Y-86106000D01*
X145288000Y-84932184D01*
X145288000Y-84839837D01*
X145291714Y-84839138D01*
X145369518Y-84789072D01*
X145421715Y-84712680D01*
X145440078Y-84622000D01*
X145440078Y-83022000D01*
X145424138Y-82937286D01*
X145374072Y-82859482D01*
X145297680Y-82807285D01*
X145207000Y-82788922D01*
X144607000Y-82788922D01*
X144522286Y-82804862D01*
X144444482Y-82854928D01*
X144392285Y-82931320D01*
X144373922Y-83022000D01*
X141620670Y-83022000D01*
X141614138Y-82987286D01*
X141564072Y-82909482D01*
X141487680Y-82857285D01*
X141478000Y-82855325D01*
X141478000Y-82469182D01*
X141581211Y-82366151D01*
X141668400Y-82156177D01*
X141668599Y-81928820D01*
X141652972Y-81891000D01*
X154908922Y-81891000D01*
X154908922Y-83091000D01*
X154924862Y-83175714D01*
X154974928Y-83253518D01*
X155051320Y-83305715D01*
X155142000Y-83324078D01*
X155742000Y-83324078D01*
X155826714Y-83308138D01*
X155841212Y-83298809D01*
X155851320Y-83305715D01*
X155942000Y-83324078D01*
X156542000Y-83324078D01*
X156626714Y-83308138D01*
X156641212Y-83298809D01*
X156651320Y-83305715D01*
X156661000Y-83307675D01*
X156661000Y-83449718D01*
X156614789Y-83495849D01*
X156527600Y-83705823D01*
X156527401Y-83933180D01*
X156614224Y-84143306D01*
X156774849Y-84304211D01*
X156984823Y-84391400D01*
X157212180Y-84391599D01*
X157422306Y-84304776D01*
X157583211Y-84144151D01*
X157670400Y-83934177D01*
X157670599Y-83706820D01*
X157583776Y-83496694D01*
X157423151Y-83335789D01*
X157423000Y-83335726D01*
X157423000Y-83308837D01*
X157426714Y-83308138D01*
X157504518Y-83258072D01*
X157556715Y-83181680D01*
X157575078Y-83091000D01*
X157575078Y-82492619D01*
X157575400Y-82491000D01*
X157575400Y-81122078D01*
X157869000Y-81122078D01*
X157953714Y-81106138D01*
X158031518Y-81056072D01*
X158083715Y-80979680D01*
X158102078Y-80889000D01*
X158102078Y-79639000D01*
X158086138Y-79554286D01*
X158036072Y-79476482D01*
X157959680Y-79424285D01*
X157869000Y-79405922D01*
X156869000Y-79405922D01*
X156784286Y-79421862D01*
X156706482Y-79471928D01*
X156654285Y-79548320D01*
X156635922Y-79639000D01*
X156635922Y-79730600D01*
X156337000Y-79730600D01*
X156132876Y-79771203D01*
X156063563Y-79817516D01*
X155959829Y-79886829D01*
X155959827Y-79886832D01*
X155597275Y-80249383D01*
X155505694Y-80287224D01*
X155344789Y-80447849D01*
X155257600Y-80657823D01*
X155257401Y-80885180D01*
X155344224Y-81095306D01*
X155504849Y-81256211D01*
X155714823Y-81343400D01*
X155942180Y-81343599D01*
X156152306Y-81256776D01*
X156313211Y-81096151D01*
X156351571Y-81003771D01*
X156508600Y-80846741D01*
X156508600Y-81657922D01*
X155942000Y-81657922D01*
X155857286Y-81673862D01*
X155842788Y-81683191D01*
X155832680Y-81676285D01*
X155742000Y-81657922D01*
X155142000Y-81657922D01*
X155057286Y-81673862D01*
X154979482Y-81723928D01*
X154927285Y-81800320D01*
X154908922Y-81891000D01*
X141652972Y-81891000D01*
X141581776Y-81718694D01*
X141421151Y-81557789D01*
X141211177Y-81470600D01*
X140983820Y-81470401D01*
X140773694Y-81557224D01*
X140612789Y-81717849D01*
X140525600Y-81927823D01*
X140525401Y-82155180D01*
X127270996Y-82155180D01*
X126126408Y-81010592D01*
X126002803Y-80928002D01*
X125857000Y-80899000D01*
X120629078Y-80899000D01*
X120629078Y-80416400D01*
X120613138Y-80331686D01*
X120563072Y-80253882D01*
X120486680Y-80201685D01*
X120396000Y-80183322D01*
X118364000Y-80183322D01*
X118279286Y-80199262D01*
X118201482Y-80249328D01*
X118149285Y-80325720D01*
X118130922Y-80416400D01*
X118130922Y-82143600D01*
X118146862Y-82228314D01*
X118196928Y-82306118D01*
X118273320Y-82358315D01*
X118364000Y-82376678D01*
X120396000Y-82376678D01*
X120480714Y-82360738D01*
X120558518Y-82310672D01*
X120610715Y-82234280D01*
X120629078Y-82143600D01*
X120629078Y-81661000D01*
X125699184Y-81661000D01*
X127269000Y-83230816D01*
X127269000Y-83667635D01*
X127240680Y-83648285D01*
X127150000Y-83629922D01*
X126850000Y-83629922D01*
X126765286Y-83645862D01*
X126687482Y-83695928D01*
X126635285Y-83772320D01*
X126616922Y-83863000D01*
X126616922Y-84388000D01*
X126619000Y-84399044D01*
X126619000Y-84709000D01*
X126648002Y-84854803D01*
X126730592Y-84978408D01*
X126984592Y-85232408D01*
X127093117Y-85304922D01*
X126850000Y-85304922D01*
X126765286Y-85320862D01*
X126687482Y-85370928D01*
X126675462Y-85388520D01*
X126667072Y-85375482D01*
X126590680Y-85323285D01*
X126500000Y-85304922D01*
X126200000Y-85304922D01*
X126115286Y-85320862D01*
X126037482Y-85370928D01*
X126004294Y-85419500D01*
X124947316Y-85419500D01*
X123078408Y-83550592D01*
X122954803Y-83468002D01*
X122809000Y-83439000D01*
X120573197Y-83439000D01*
X120565844Y-83402033D01*
X120329085Y-83047698D01*
X119974750Y-82810939D01*
X119556783Y-82727800D01*
X119203217Y-82727800D01*
X118785250Y-82810939D01*
X118430915Y-83047698D01*
X118194156Y-83402033D01*
X118111017Y-83820000D01*
X117068600Y-83820000D01*
X117068600Y-78968600D01*
X141224000Y-78968600D01*
X141351694Y-78943200D01*
X146684306Y-78943200D01*
X146812000Y-78968600D01*
X146812000Y-78968600D01*
G37*
X146812000Y-78968600D02*
X175514000Y-78968600D01*
X175641694Y-78943200D01*
X180974306Y-78943200D01*
X181102000Y-78968600D01*
X205511400Y-78968600D01*
X205511400Y-98831400D01*
X117068600Y-98831400D01*
X117068600Y-91440000D01*
X118111017Y-91440000D01*
X118194156Y-91857967D01*
X118430915Y-92212302D01*
X118785250Y-92449061D01*
X119203217Y-92532200D01*
X119556783Y-92532200D01*
X119974750Y-92449061D01*
X120329085Y-92212302D01*
X120505686Y-91948000D01*
X125191184Y-91948000D01*
X127127000Y-93883816D01*
X127127000Y-93944386D01*
X127113680Y-93935285D01*
X127023000Y-93916922D01*
X126723000Y-93916922D01*
X126638286Y-93932862D01*
X126560482Y-93982928D01*
X126508285Y-94059320D01*
X126489922Y-94150000D01*
X126489922Y-94675000D01*
X126492000Y-94686044D01*
X126492000Y-94996000D01*
X126521002Y-95141803D01*
X126603592Y-95265408D01*
X126857592Y-95519408D01*
X126966117Y-95591922D01*
X126723000Y-95591922D01*
X126638286Y-95607862D01*
X126560482Y-95657928D01*
X126548462Y-95675520D01*
X126540072Y-95662482D01*
X126463680Y-95610285D01*
X126373000Y-95591922D01*
X126266238Y-95591922D01*
X124384908Y-93710592D01*
X124261303Y-93628002D01*
X124115500Y-93599000D01*
X120573197Y-93599000D01*
X120565844Y-93562033D01*
X120329085Y-93207698D01*
X119974750Y-92970939D01*
X119556783Y-92887800D01*
X119203217Y-92887800D01*
X118785250Y-92970939D01*
X118430915Y-93207698D01*
X118194156Y-93562033D01*
X118111017Y-93980000D01*
X118194156Y-94397967D01*
X118430915Y-94752302D01*
X118785250Y-94989061D01*
X119203217Y-95072200D01*
X119556783Y-95072200D01*
X119974750Y-94989061D01*
X120329085Y-94752302D01*
X120565844Y-94397967D01*
X120573197Y-94361000D01*
X123957684Y-94361000D01*
X125839922Y-96243238D01*
X125839922Y-96350000D01*
X125855862Y-96434714D01*
X125905928Y-96512518D01*
X125982320Y-96564715D01*
X126073000Y-96583078D01*
X126373000Y-96583078D01*
X126457714Y-96567138D01*
X126492000Y-96545075D01*
X126492000Y-96934000D01*
X126521002Y-97079803D01*
X126603592Y-97203408D01*
X126904590Y-97504405D01*
X126904592Y-97504408D01*
X126978688Y-97553917D01*
X127028197Y-97586998D01*
X127174000Y-97616000D01*
X132339922Y-97616000D01*
X132339922Y-97985000D01*
X132355862Y-98069714D01*
X132405928Y-98147518D01*
X132482320Y-98199715D01*
X132573000Y-98218078D01*
X133873000Y-98218078D01*
X133957714Y-98202138D01*
X134035518Y-98152072D01*
X134087715Y-98075680D01*
X134106078Y-97985000D01*
X134106078Y-96485000D01*
X134090138Y-96400286D01*
X134040072Y-96322482D01*
X133963680Y-96270285D01*
X133942520Y-96266000D01*
X135207922Y-96266000D01*
X135207922Y-96535000D01*
X135223862Y-96619714D01*
X135273928Y-96697518D01*
X135350320Y-96749715D01*
X135441000Y-96768078D01*
X136941000Y-96768078D01*
X137025714Y-96752138D01*
X137103518Y-96702072D01*
X137155715Y-96625680D01*
X137174078Y-96535000D01*
X137174078Y-95235000D01*
X137907922Y-95235000D01*
X137907922Y-96535000D01*
X137923862Y-96619714D01*
X137973928Y-96697518D01*
X138050320Y-96749715D01*
X138141000Y-96768078D01*
X139641000Y-96768078D01*
X139725714Y-96752138D01*
X139803518Y-96702072D01*
X139855715Y-96625680D01*
X139874078Y-96535000D01*
X139874078Y-95995738D01*
X140034598Y-95835217D01*
X142290800Y-95835217D01*
X142290800Y-96188783D01*
X142373939Y-96606750D01*
X142610698Y-96961085D01*
X142965033Y-97197844D01*
X143383000Y-97280983D01*
X143800967Y-97197844D01*
X143846922Y-97167138D01*
X144282000Y-97602215D01*
X144282002Y-97602218D01*
X144356098Y-97651727D01*
X144405607Y-97684808D01*
X144551410Y-97713810D01*
X151486971Y-97713810D01*
X151632774Y-97684808D01*
X151756379Y-97602218D01*
X152440818Y-96917779D01*
X152523408Y-96794174D01*
X152552411Y-96648371D01*
X152552410Y-96648366D01*
X152552410Y-96634394D01*
X152770698Y-96961085D01*
X153125033Y-97197844D01*
X153543000Y-97280983D01*
X153960967Y-97197844D01*
X154315302Y-96961085D01*
X154552061Y-96606750D01*
X154635200Y-96188783D01*
X154635200Y-95835217D01*
X154552061Y-95417250D01*
X154321499Y-95072190D01*
X155304501Y-95072190D01*
X155073939Y-95417250D01*
X154990800Y-95835217D01*
X154990800Y-96188783D01*
X155073939Y-96606750D01*
X155310698Y-96961085D01*
X155665033Y-97197844D01*
X156083000Y-97280983D01*
X156500967Y-97197844D01*
X156855302Y-96961085D01*
X157092061Y-96606750D01*
X157175200Y-96188783D01*
X157175200Y-95835217D01*
X157092061Y-95417250D01*
X156855302Y-95062915D01*
X156755157Y-94996000D01*
X157526322Y-94996000D01*
X157526322Y-97028000D01*
X157542262Y-97112714D01*
X157592328Y-97190518D01*
X157668720Y-97242715D01*
X157759400Y-97261078D01*
X159486600Y-97261078D01*
X159571314Y-97245138D01*
X159649118Y-97195072D01*
X159701315Y-97118680D01*
X159719678Y-97028000D01*
X159719678Y-95871180D01*
X161861401Y-95871180D01*
X161948224Y-96081306D01*
X162108849Y-96242211D01*
X162318823Y-96329400D01*
X162546180Y-96329599D01*
X162752376Y-96244400D01*
X163200922Y-96244400D01*
X163200922Y-96461000D01*
X163216862Y-96545714D01*
X163266928Y-96623518D01*
X163343320Y-96675715D01*
X163434000Y-96694078D01*
X164734000Y-96694078D01*
X164818714Y-96678138D01*
X164896518Y-96628072D01*
X164948715Y-96551680D01*
X164967078Y-96461000D01*
X164967078Y-94961000D01*
X164951138Y-94876286D01*
X164901072Y-94798482D01*
X164824680Y-94746285D01*
X164734000Y-94727922D01*
X163434000Y-94727922D01*
X163349286Y-94743862D01*
X163271482Y-94793928D01*
X163219285Y-94870320D01*
X163200922Y-94961000D01*
X163200922Y-95177600D01*
X162480000Y-95177600D01*
X162435247Y-95186502D01*
X162319820Y-95186401D01*
X162109694Y-95273224D01*
X161948789Y-95433849D01*
X161861600Y-95643823D01*
X161861401Y-95871180D01*
X159719678Y-95871180D01*
X159719678Y-94996000D01*
X159703738Y-94911286D01*
X159653672Y-94833482D01*
X159577280Y-94781285D01*
X159486600Y-94762922D01*
X157759400Y-94762922D01*
X157674686Y-94778862D01*
X157596882Y-94828928D01*
X157544685Y-94905320D01*
X157526322Y-94996000D01*
X156755157Y-94996000D01*
X156500967Y-94826156D01*
X156085517Y-94743518D01*
X157230034Y-93599000D01*
X159629922Y-93599000D01*
X159629922Y-93868000D01*
X159645862Y-93952714D01*
X159695928Y-94030518D01*
X159772320Y-94082715D01*
X159863000Y-94101078D01*
X160563000Y-94101078D01*
X160647714Y-94085138D01*
X160725518Y-94035072D01*
X160777715Y-93958680D01*
X160796078Y-93868000D01*
X160796078Y-92568000D01*
X160780138Y-92483286D01*
X160730072Y-92405482D01*
X160653680Y-92353285D01*
X160563000Y-92334922D01*
X159863000Y-92334922D01*
X159778286Y-92350862D01*
X159700482Y-92400928D01*
X159648285Y-92477320D01*
X159629922Y-92568000D01*
X159629922Y-92837000D01*
X157145263Y-92837000D01*
X157202211Y-92780151D01*
X157289400Y-92570177D01*
X157289599Y-92342820D01*
X157202776Y-92132694D01*
X157042151Y-91971789D01*
X156832177Y-91884600D01*
X156604820Y-91884401D01*
X156394694Y-91971224D01*
X156290737Y-92075000D01*
X156240816Y-92075000D01*
X155989894Y-91824078D01*
X156542000Y-91824078D01*
X156626714Y-91808138D01*
X156641212Y-91798809D01*
X156651320Y-91805715D01*
X156742000Y-91824078D01*
X157342000Y-91824078D01*
X157426714Y-91808138D01*
X157441212Y-91798809D01*
X157451320Y-91805715D01*
X157542000Y-91824078D01*
X158142000Y-91824078D01*
X158226714Y-91808138D01*
X158304518Y-91758072D01*
X158356715Y-91681680D01*
X158375078Y-91591000D01*
X158375078Y-90391000D01*
X158359138Y-90306286D01*
X158309072Y-90228482D01*
X158232680Y-90176285D01*
X158142000Y-90157922D01*
X157542000Y-90157922D01*
X157457286Y-90173862D01*
X157442788Y-90183191D01*
X157432680Y-90176285D01*
X157342000Y-90157922D01*
X156775400Y-90157922D01*
X156775400Y-89663627D01*
X156781400Y-89649177D01*
X156781599Y-89421820D01*
X156694776Y-89211694D01*
X156534151Y-89050789D01*
X156476861Y-89027000D01*
X157179818Y-89027000D01*
X157282849Y-89130211D01*
X157492823Y-89217400D01*
X157720180Y-89217599D01*
X157930306Y-89130776D01*
X158091211Y-88970151D01*
X158178400Y-88760177D01*
X158178417Y-88740233D01*
X159596107Y-90157922D01*
X159142000Y-90157922D01*
X159057286Y-90173862D01*
X158979482Y-90223928D01*
X158927285Y-90300320D01*
X158908922Y-90391000D01*
X158908922Y-91591000D01*
X158924862Y-91675714D01*
X158974928Y-91753518D01*
X159051320Y-91805715D01*
X159142000Y-91824078D01*
X159742000Y-91824078D01*
X159826714Y-91808138D01*
X159841212Y-91798809D01*
X159851320Y-91805715D01*
X159942000Y-91824078D01*
X160542000Y-91824078D01*
X160626714Y-91808138D01*
X160641212Y-91798809D01*
X160651320Y-91805715D01*
X160742000Y-91824078D01*
X161342000Y-91824078D01*
X161426714Y-91808138D01*
X161504518Y-91758072D01*
X161556715Y-91681680D01*
X161575078Y-91591000D01*
X161575078Y-90391000D01*
X161559138Y-90306286D01*
X161509072Y-90228482D01*
X161432680Y-90176285D01*
X161396331Y-90168924D01*
X161393998Y-90157198D01*
X161368607Y-90119197D01*
X161311408Y-90033592D01*
X161311405Y-90033590D01*
X161199815Y-89922000D01*
X161674163Y-89922000D01*
X161674862Y-89925714D01*
X161724928Y-90003518D01*
X161801320Y-90055715D01*
X161892000Y-90074078D01*
X163092000Y-90074078D01*
X163176714Y-90058138D01*
X163254518Y-90008072D01*
X163306715Y-89931680D01*
X163325078Y-89841000D01*
X163325078Y-89241000D01*
X163309138Y-89156286D01*
X163299809Y-89141788D01*
X163306715Y-89131680D01*
X163325078Y-89041000D01*
X163325078Y-88441000D01*
X163309138Y-88356286D01*
X163299809Y-88341788D01*
X163306715Y-88331680D01*
X163325078Y-88241000D01*
X163325078Y-87641000D01*
X163309138Y-87556286D01*
X163299809Y-87541788D01*
X163306715Y-87531680D01*
X163325078Y-87441000D01*
X163325078Y-86841000D01*
X163309138Y-86756286D01*
X163299809Y-86741788D01*
X163300347Y-86741000D01*
X163672184Y-86741000D01*
X164303590Y-87372405D01*
X164303592Y-87372408D01*
X164322592Y-87391408D01*
X166624000Y-89692815D01*
X166624000Y-92493513D01*
X166544000Y-92477600D01*
X164967078Y-92477600D01*
X164967078Y-92261000D01*
X164951138Y-92176286D01*
X164901072Y-92098482D01*
X164824680Y-92046285D01*
X164734000Y-92027922D01*
X163434000Y-92027922D01*
X163349286Y-92043862D01*
X163271482Y-92093928D01*
X163219285Y-92170320D01*
X163200922Y-92261000D01*
X163200922Y-92630000D01*
X162696078Y-92630000D01*
X162696078Y-92568000D01*
X162680138Y-92483286D01*
X162630072Y-92405482D01*
X162553680Y-92353285D01*
X162463000Y-92334922D01*
X161763000Y-92334922D01*
X161678286Y-92350862D01*
X161600482Y-92400928D01*
X161548285Y-92477320D01*
X161529922Y-92568000D01*
X161529922Y-93868000D01*
X161545862Y-93952714D01*
X161595928Y-94030518D01*
X161672320Y-94082715D01*
X161763000Y-94101078D01*
X162463000Y-94101078D01*
X162547714Y-94085138D01*
X162625518Y-94035072D01*
X162677715Y-93958680D01*
X162696078Y-93868000D01*
X162696078Y-93392000D01*
X163200922Y-93392000D01*
X163200922Y-93761000D01*
X163216862Y-93845714D01*
X163266928Y-93923518D01*
X163343320Y-93975715D01*
X163434000Y-93994078D01*
X164734000Y-93994078D01*
X164818714Y-93978138D01*
X164896518Y-93928072D01*
X164948715Y-93851680D01*
X164967078Y-93761000D01*
X164967078Y-93544400D01*
X166046405Y-93544400D01*
X166039800Y-93577603D01*
X166039800Y-93620397D01*
X166122939Y-94038364D01*
X166359698Y-94392699D01*
X166714033Y-94629458D01*
X167132000Y-94712597D01*
X167399560Y-94659376D01*
X167878592Y-95138408D01*
X168002197Y-95220998D01*
X168148000Y-95250000D01*
X169042326Y-95250000D01*
X168899698Y-95345301D01*
X168662939Y-95699636D01*
X168579800Y-96117603D01*
X168579800Y-96160397D01*
X168662939Y-96578364D01*
X168899698Y-96932699D01*
X169254033Y-97169458D01*
X169672000Y-97252597D01*
X170089967Y-97169458D01*
X170444302Y-96932699D01*
X170681061Y-96578364D01*
X170764200Y-96160397D01*
X170764200Y-96117603D01*
X170681061Y-95699636D01*
X170444302Y-95345301D01*
X170301674Y-95250000D01*
X171582326Y-95250000D01*
X171439698Y-95345301D01*
X171202939Y-95699636D01*
X171119800Y-96117603D01*
X171119800Y-96160397D01*
X171202939Y-96578364D01*
X171439698Y-96932699D01*
X171794033Y-97169458D01*
X172212000Y-97252597D01*
X172629967Y-97169458D01*
X172984302Y-96932699D01*
X173221061Y-96578364D01*
X173304200Y-96160397D01*
X173304200Y-96117603D01*
X173221061Y-95699636D01*
X172984302Y-95345301D01*
X172841674Y-95250000D01*
X174224000Y-95250000D01*
X174369803Y-95220998D01*
X174493408Y-95138408D01*
X175294738Y-94337078D01*
X176289000Y-94337078D01*
X176373714Y-94321138D01*
X176451518Y-94271072D01*
X176503715Y-94194680D01*
X176515314Y-94137400D01*
X180862207Y-94137400D01*
X180871862Y-94188714D01*
X180921928Y-94266518D01*
X180998320Y-94318715D01*
X181089000Y-94337078D01*
X182689000Y-94337078D01*
X182773714Y-94321138D01*
X182851518Y-94271072D01*
X182903715Y-94194680D01*
X182922078Y-94104000D01*
X182922078Y-93104000D01*
X182906138Y-93019286D01*
X182856072Y-92941482D01*
X182779680Y-92889285D01*
X182689000Y-92870922D01*
X181089000Y-92870922D01*
X181004286Y-92886862D01*
X180926482Y-92936928D01*
X180874285Y-93013320D01*
X180862686Y-93070600D01*
X176515793Y-93070600D01*
X176506138Y-93019286D01*
X176456072Y-92941482D01*
X176379680Y-92889285D01*
X176289000Y-92870922D01*
X174689000Y-92870922D01*
X174604286Y-92886862D01*
X174526482Y-92936928D01*
X174474285Y-93013320D01*
X174455922Y-93104000D01*
X174455922Y-94098262D01*
X174066184Y-94488000D01*
X173303534Y-94488000D01*
X173308678Y-94462600D01*
X173308678Y-92735400D01*
X173292738Y-92650686D01*
X173249183Y-92583000D01*
X180213000Y-92583000D01*
X180358803Y-92553998D01*
X180482408Y-92471408D01*
X181117405Y-91836410D01*
X181117408Y-91836408D01*
X181199998Y-91712802D01*
X181206803Y-91678592D01*
X181229001Y-91567000D01*
X181229000Y-91566995D01*
X181229000Y-91566837D01*
X181232714Y-91566138D01*
X181310518Y-91516072D01*
X181362715Y-91439680D01*
X181381078Y-91349000D01*
X181381078Y-89749000D01*
X181365138Y-89664286D01*
X181315072Y-89586482D01*
X181238680Y-89534285D01*
X181148000Y-89515922D01*
X180548000Y-89515922D01*
X180463286Y-89531862D01*
X180385482Y-89581928D01*
X180333285Y-89658320D01*
X180314922Y-89749000D01*
X180314922Y-91349000D01*
X180330862Y-91433714D01*
X180374561Y-91501624D01*
X180055184Y-91821000D01*
X172623816Y-91821000D01*
X171732816Y-90930000D01*
X172694922Y-90930000D01*
X172694922Y-91349000D01*
X172710862Y-91433714D01*
X172760928Y-91511518D01*
X172837320Y-91563715D01*
X172928000Y-91582078D01*
X173528000Y-91582078D01*
X173612714Y-91566138D01*
X173690518Y-91516072D01*
X173742715Y-91439680D01*
X173761078Y-91349000D01*
X173761078Y-89749000D01*
X173745138Y-89664286D01*
X173695072Y-89586482D01*
X173618680Y-89534285D01*
X173528000Y-89515922D01*
X172928000Y-89515922D01*
X172843286Y-89531862D01*
X172765482Y-89581928D01*
X172713285Y-89658320D01*
X172694922Y-89749000D01*
X172694922Y-90168000D01*
X170208816Y-90168000D01*
X169297933Y-89257117D01*
X169418000Y-89281000D01*
X173578184Y-89281000D01*
X173978607Y-89681422D01*
X173964922Y-89749000D01*
X173964922Y-91349000D01*
X173980862Y-91433714D01*
X174030928Y-91511518D01*
X174107320Y-91563715D01*
X174198000Y-91582078D01*
X174798000Y-91582078D01*
X174882714Y-91566138D01*
X174960518Y-91516072D01*
X175012715Y-91439680D01*
X175031078Y-91349000D01*
X175031078Y-89749000D01*
X175015138Y-89664286D01*
X174965072Y-89586482D01*
X174888680Y-89534285D01*
X174852123Y-89526882D01*
X174849998Y-89516198D01*
X174793525Y-89431680D01*
X174767408Y-89392592D01*
X174767405Y-89392590D01*
X174133996Y-88759180D01*
X175196401Y-88759180D01*
X175283224Y-88969306D01*
X175387000Y-89073263D01*
X175387000Y-89531163D01*
X175383286Y-89531862D01*
X175305482Y-89581928D01*
X175253285Y-89658320D01*
X175234922Y-89749000D01*
X175234922Y-91349000D01*
X175250862Y-91433714D01*
X175300928Y-91511518D01*
X175377320Y-91563715D01*
X175468000Y-91582078D01*
X175632620Y-91582078D01*
X175651358Y-91594598D01*
X175768000Y-91617800D01*
X175884642Y-91594598D01*
X175903380Y-91582078D01*
X176068000Y-91582078D01*
X176152714Y-91566138D01*
X176230518Y-91516072D01*
X176282715Y-91439680D01*
X176301078Y-91349000D01*
X176301078Y-90930000D01*
X176504922Y-90930000D01*
X176504922Y-91349000D01*
X176520862Y-91433714D01*
X176570928Y-91511518D01*
X176647320Y-91563715D01*
X176738000Y-91582078D01*
X177338000Y-91582078D01*
X177422714Y-91566138D01*
X177500518Y-91516072D01*
X177552715Y-91439680D01*
X177571078Y-91349000D01*
X177571078Y-89749000D01*
X177555138Y-89664286D01*
X177505072Y-89586482D01*
X177428680Y-89534285D01*
X177338000Y-89515922D01*
X176738000Y-89515922D01*
X176653286Y-89531862D01*
X176575482Y-89581928D01*
X176523285Y-89658320D01*
X176504922Y-89749000D01*
X176504922Y-90168000D01*
X176301078Y-90168000D01*
X176301078Y-89749000D01*
X176285138Y-89664286D01*
X176235072Y-89586482D01*
X176158680Y-89534285D01*
X176149000Y-89532325D01*
X176149000Y-89073182D01*
X176252211Y-88970151D01*
X176339400Y-88760177D01*
X176339599Y-88532820D01*
X176252776Y-88322694D01*
X176092151Y-88161789D01*
X175882177Y-88074600D01*
X175654820Y-88074401D01*
X175444694Y-88161224D01*
X175283789Y-88321849D01*
X175196600Y-88531823D01*
X175196401Y-88759180D01*
X174133996Y-88759180D01*
X174005408Y-88630592D01*
X173881803Y-88548002D01*
X173736000Y-88519000D01*
X169575816Y-88519000D01*
X168940816Y-87884000D01*
X177642184Y-87884000D01*
X179197000Y-89438815D01*
X179197000Y-89581163D01*
X179193286Y-89581862D01*
X179115482Y-89631928D01*
X179063285Y-89708320D01*
X179044922Y-89799000D01*
X179044922Y-91299000D01*
X179060862Y-91383714D01*
X179110928Y-91461518D01*
X179187320Y-91513715D01*
X179278000Y-91532078D01*
X179878000Y-91532078D01*
X179962714Y-91516138D01*
X180040518Y-91466072D01*
X180092715Y-91389680D01*
X180111078Y-91299000D01*
X180111078Y-89799000D01*
X180095138Y-89714286D01*
X180045072Y-89636482D01*
X179968680Y-89584285D01*
X179959000Y-89582325D01*
X179959000Y-89281005D01*
X179959001Y-89281000D01*
X179929998Y-89135198D01*
X179873598Y-89050789D01*
X179847408Y-89011592D01*
X179847405Y-89011590D01*
X178069408Y-87233592D01*
X177945803Y-87151002D01*
X177800000Y-87122000D01*
X169067816Y-87122000D01*
X164988408Y-83042592D01*
X164988405Y-83042590D01*
X164929408Y-82983592D01*
X164929405Y-82983590D01*
X164353408Y-82407592D01*
X164229803Y-82325002D01*
X164084000Y-82296000D01*
X161575078Y-82296000D01*
X161575078Y-82155180D01*
X172656401Y-82155180D01*
X172743224Y-82365306D01*
X172847000Y-82469263D01*
X172847000Y-82931163D01*
X172843286Y-82931862D01*
X172765482Y-82981928D01*
X172713285Y-83058320D01*
X172694922Y-83149000D01*
X172694922Y-84749000D01*
X172710862Y-84833714D01*
X172760928Y-84911518D01*
X172837320Y-84963715D01*
X172928000Y-84982078D01*
X173528000Y-84982078D01*
X173612714Y-84966138D01*
X173690518Y-84916072D01*
X173742715Y-84839680D01*
X173761078Y-84749000D01*
X173761078Y-83149000D01*
X173964922Y-83149000D01*
X173964922Y-84749000D01*
X173980862Y-84833714D01*
X174030928Y-84911518D01*
X174107320Y-84963715D01*
X174198000Y-84982078D01*
X174798000Y-84982078D01*
X174882714Y-84966138D01*
X174960518Y-84916072D01*
X175012715Y-84839680D01*
X175031078Y-84749000D01*
X175031078Y-83190738D01*
X177957816Y-80264000D01*
X178023185Y-80264000D01*
X175498592Y-82788592D01*
X175416002Y-82912197D01*
X175413210Y-82926231D01*
X175383286Y-82931862D01*
X175305482Y-82981928D01*
X175253285Y-83058320D01*
X175234922Y-83149000D01*
X175234922Y-84749000D01*
X175250862Y-84833714D01*
X175300928Y-84911518D01*
X175377320Y-84963715D01*
X175468000Y-84982078D01*
X176068000Y-84982078D01*
X176152714Y-84966138D01*
X176230518Y-84916072D01*
X176282715Y-84839680D01*
X176301078Y-84749000D01*
X176301078Y-83149000D01*
X176287576Y-83077240D01*
X178465815Y-80899000D01*
X178658184Y-80899000D01*
X176768592Y-82788592D01*
X176686002Y-82912197D01*
X176683210Y-82926231D01*
X176653286Y-82931862D01*
X176575482Y-82981928D01*
X176523285Y-83058320D01*
X176504922Y-83149000D01*
X176504922Y-84749000D01*
X176520862Y-84833714D01*
X176570928Y-84911518D01*
X176647320Y-84963715D01*
X176738000Y-84982078D01*
X177338000Y-84982078D01*
X177422714Y-84966138D01*
X177500518Y-84916072D01*
X177552715Y-84839680D01*
X177571078Y-84749000D01*
X177571078Y-83149000D01*
X177557576Y-83077240D01*
X179227816Y-81407000D01*
X179293185Y-81407000D01*
X178038592Y-82661592D01*
X177956002Y-82785197D01*
X177938736Y-82872000D01*
X177927000Y-82931000D01*
X177927000Y-82931163D01*
X177923286Y-82931862D01*
X177845482Y-82981928D01*
X177793285Y-83058320D01*
X177774922Y-83149000D01*
X177774922Y-84749000D01*
X177790862Y-84833714D01*
X177840928Y-84911518D01*
X177917320Y-84963715D01*
X178008000Y-84982078D01*
X178608000Y-84982078D01*
X178692714Y-84966138D01*
X178770518Y-84916072D01*
X178822715Y-84839680D01*
X178841078Y-84749000D01*
X178841078Y-83149000D01*
X178825138Y-83064286D01*
X178781439Y-82996377D01*
X179862815Y-81915000D01*
X180563185Y-81915000D01*
X179562262Y-82915922D01*
X179278000Y-82915922D01*
X179193286Y-82931862D01*
X179115482Y-82981928D01*
X179063285Y-83058320D01*
X179044922Y-83149000D01*
X179044922Y-84749000D01*
X179060862Y-84833714D01*
X179110928Y-84911518D01*
X179187320Y-84963715D01*
X179278000Y-84982078D01*
X179878000Y-84982078D01*
X179962714Y-84966138D01*
X180040518Y-84916072D01*
X180092715Y-84839680D01*
X180111078Y-84749000D01*
X180111078Y-83444738D01*
X180314922Y-83240894D01*
X180314922Y-84749000D01*
X180330862Y-84833714D01*
X180380928Y-84911518D01*
X180457320Y-84963715D01*
X180548000Y-84982078D01*
X181148000Y-84982078D01*
X181232714Y-84966138D01*
X181310518Y-84916072D01*
X181362715Y-84839680D01*
X181381078Y-84749000D01*
X181381078Y-83149000D01*
X181365138Y-83064286D01*
X181321439Y-82996376D01*
X181361413Y-82956402D01*
X181695150Y-82956402D01*
X181655482Y-82981928D01*
X181603285Y-83058320D01*
X181584922Y-83149000D01*
X181584922Y-84749000D01*
X181600862Y-84833714D01*
X181650928Y-84911518D01*
X181727320Y-84963715D01*
X181818000Y-84982078D01*
X181979262Y-84982078D01*
X182753000Y-85755816D01*
X182753000Y-88900000D01*
X182782002Y-89045803D01*
X182864592Y-89169408D01*
X184324000Y-90628815D01*
X184324000Y-93731922D01*
X183955000Y-93731922D01*
X183870286Y-93747862D01*
X183792482Y-93797928D01*
X183740285Y-93874320D01*
X183721922Y-93965000D01*
X183721922Y-95265000D01*
X183737862Y-95349714D01*
X183787928Y-95427518D01*
X183864320Y-95479715D01*
X183955000Y-95498078D01*
X185455000Y-95498078D01*
X185539714Y-95482138D01*
X185617518Y-95432072D01*
X185669715Y-95355680D01*
X185688078Y-95265000D01*
X185688078Y-93965000D01*
X186421922Y-93965000D01*
X186421922Y-95265000D01*
X186437862Y-95349714D01*
X186487928Y-95427518D01*
X186564320Y-95479715D01*
X186655000Y-95498078D01*
X188155000Y-95498078D01*
X188239714Y-95482138D01*
X188317518Y-95432072D01*
X188369715Y-95355680D01*
X188388078Y-95265000D01*
X188388078Y-94996000D01*
X188691184Y-94996000D01*
X190484592Y-96789408D01*
X190608198Y-96871998D01*
X190754000Y-96901001D01*
X190754005Y-96901000D01*
X200736803Y-96901000D01*
X200744156Y-96937967D01*
X200980915Y-97292302D01*
X201335250Y-97529061D01*
X201753217Y-97612200D01*
X202106783Y-97612200D01*
X202524750Y-97529061D01*
X202879085Y-97292302D01*
X203115844Y-96937967D01*
X203198983Y-96520000D01*
X203115844Y-96102033D01*
X202879085Y-95747698D01*
X202524750Y-95510939D01*
X202106783Y-95427800D01*
X201753217Y-95427800D01*
X201335250Y-95510939D01*
X200980915Y-95747698D01*
X200744156Y-96102033D01*
X200736803Y-96139000D01*
X190911816Y-96139000D01*
X189118408Y-94345592D01*
X188994803Y-94263002D01*
X188849000Y-94234000D01*
X188388078Y-94234000D01*
X188388078Y-93965000D01*
X188372138Y-93880286D01*
X188322072Y-93802482D01*
X188245680Y-93750285D01*
X188155000Y-93731922D01*
X186655000Y-93731922D01*
X186570286Y-93747862D01*
X186492482Y-93797928D01*
X186440285Y-93874320D01*
X186421922Y-93965000D01*
X185688078Y-93965000D01*
X185672138Y-93880286D01*
X185622072Y-93802482D01*
X185545680Y-93750285D01*
X185455000Y-93731922D01*
X185086000Y-93731922D01*
X185086000Y-90628815D01*
X186166590Y-91709405D01*
X186166592Y-91709408D01*
X186232608Y-91753518D01*
X186290198Y-91791998D01*
X186436000Y-91821001D01*
X186436005Y-91821000D01*
X186896922Y-91821000D01*
X186896922Y-92090000D01*
X186912862Y-92174714D01*
X186962928Y-92252518D01*
X187039320Y-92304715D01*
X187130000Y-92323078D01*
X188630000Y-92323078D01*
X188714714Y-92307138D01*
X188792518Y-92257072D01*
X188844715Y-92180680D01*
X188863078Y-92090000D01*
X188863078Y-90790000D01*
X189596922Y-90790000D01*
X189596922Y-92090000D01*
X189612862Y-92174714D01*
X189662928Y-92252518D01*
X189739320Y-92304715D01*
X189830000Y-92323078D01*
X191330000Y-92323078D01*
X191414714Y-92307138D01*
X191492518Y-92257072D01*
X191544715Y-92180680D01*
X191563078Y-92090000D01*
X191563078Y-91821000D01*
X195803184Y-91821000D01*
X198231590Y-94249405D01*
X198231592Y-94249408D01*
X198355198Y-94331998D01*
X198501000Y-94361000D01*
X200736803Y-94361000D01*
X200744156Y-94397967D01*
X200980915Y-94752302D01*
X201335250Y-94989061D01*
X201753217Y-95072200D01*
X202106783Y-95072200D01*
X202524750Y-94989061D01*
X202879085Y-94752302D01*
X203115844Y-94397967D01*
X203198983Y-93980000D01*
X203115844Y-93562033D01*
X202879085Y-93207698D01*
X202524750Y-92970939D01*
X202106783Y-92887800D01*
X201753217Y-92887800D01*
X201335250Y-92970939D01*
X200980915Y-93207698D01*
X200744156Y-93562033D01*
X200736803Y-93599000D01*
X198658815Y-93599000D01*
X196230408Y-91170592D01*
X196106803Y-91088002D01*
X195961000Y-91059000D01*
X191563078Y-91059000D01*
X191563078Y-90790000D01*
X191547138Y-90705286D01*
X191497072Y-90627482D01*
X191420680Y-90575285D01*
X191330000Y-90556922D01*
X189830000Y-90556922D01*
X189745286Y-90572862D01*
X189667482Y-90622928D01*
X189615285Y-90699320D01*
X189596922Y-90790000D01*
X188863078Y-90790000D01*
X188847138Y-90705286D01*
X188797072Y-90627482D01*
X188720680Y-90575285D01*
X188630000Y-90556922D01*
X187130000Y-90556922D01*
X187045286Y-90572862D01*
X186967482Y-90622928D01*
X186915285Y-90699320D01*
X186896922Y-90790000D01*
X186896922Y-91059000D01*
X186593815Y-91059000D01*
X184942816Y-89408000D01*
X186896922Y-89408000D01*
X186896922Y-89677000D01*
X186912862Y-89761714D01*
X186962928Y-89839518D01*
X187039320Y-89891715D01*
X187130000Y-89910078D01*
X188630000Y-89910078D01*
X188714714Y-89894138D01*
X188792518Y-89844072D01*
X188844715Y-89767680D01*
X188863078Y-89677000D01*
X188863078Y-88377000D01*
X189596922Y-88377000D01*
X189596922Y-89677000D01*
X189612862Y-89761714D01*
X189662928Y-89839518D01*
X189739320Y-89891715D01*
X189830000Y-89910078D01*
X191330000Y-89910078D01*
X191414714Y-89894138D01*
X191492518Y-89844072D01*
X191544715Y-89767680D01*
X191563078Y-89677000D01*
X191563078Y-89408000D01*
X194533184Y-89408000D01*
X196834590Y-91709405D01*
X196834592Y-91709408D01*
X196900608Y-91753518D01*
X196958197Y-91791998D01*
X197104000Y-91821000D01*
X200736803Y-91821000D01*
X200744156Y-91857967D01*
X200980915Y-92212302D01*
X201335250Y-92449061D01*
X201753217Y-92532200D01*
X202106783Y-92532200D01*
X202524750Y-92449061D01*
X202879085Y-92212302D01*
X203115844Y-91857967D01*
X203198983Y-91440000D01*
X203115844Y-91022033D01*
X202879085Y-90667698D01*
X202524750Y-90430939D01*
X202106783Y-90347800D01*
X201753217Y-90347800D01*
X201335250Y-90430939D01*
X200980915Y-90667698D01*
X200744156Y-91022033D01*
X200736803Y-91059000D01*
X197261815Y-91059000D01*
X194960408Y-88757592D01*
X194836803Y-88675002D01*
X194691000Y-88646000D01*
X191563078Y-88646000D01*
X191563078Y-88377000D01*
X191547138Y-88292286D01*
X191497072Y-88214482D01*
X191420680Y-88162285D01*
X191330000Y-88143922D01*
X189830000Y-88143922D01*
X189745286Y-88159862D01*
X189667482Y-88209928D01*
X189615285Y-88286320D01*
X189596922Y-88377000D01*
X188863078Y-88377000D01*
X188847138Y-88292286D01*
X188797072Y-88214482D01*
X188720680Y-88162285D01*
X188630000Y-88143922D01*
X187928875Y-88143922D01*
X187880000Y-88134200D01*
X187831125Y-88143922D01*
X187130000Y-88143922D01*
X187045286Y-88159862D01*
X186967482Y-88209928D01*
X186915285Y-88286320D01*
X186896922Y-88377000D01*
X186896922Y-88646000D01*
X185069815Y-88646000D01*
X184531000Y-88107184D01*
X184531000Y-86644816D01*
X185150590Y-87264405D01*
X185150592Y-87264408D01*
X185274198Y-87346998D01*
X185420000Y-87376001D01*
X185420005Y-87376000D01*
X192611922Y-87376000D01*
X192611922Y-87645000D01*
X192627862Y-87729714D01*
X192677928Y-87807518D01*
X192754320Y-87859715D01*
X192845000Y-87878078D01*
X194345000Y-87878078D01*
X194429714Y-87862138D01*
X194507518Y-87812072D01*
X194559715Y-87735680D01*
X194578078Y-87645000D01*
X194578078Y-86345000D01*
X195311922Y-86345000D01*
X195311922Y-87645000D01*
X195327862Y-87729714D01*
X195377928Y-87807518D01*
X195454320Y-87859715D01*
X195545000Y-87878078D01*
X197045000Y-87878078D01*
X197129714Y-87862138D01*
X197207518Y-87812072D01*
X197259715Y-87735680D01*
X197278078Y-87645000D01*
X197278078Y-87376000D01*
X197454184Y-87376000D01*
X199247592Y-89169408D01*
X199371198Y-89251998D01*
X199517000Y-89281001D01*
X199517005Y-89281000D01*
X200736803Y-89281000D01*
X200744156Y-89317967D01*
X200980915Y-89672302D01*
X201335250Y-89909061D01*
X201753217Y-89992200D01*
X202106783Y-89992200D01*
X202524750Y-89909061D01*
X202879085Y-89672302D01*
X203115844Y-89317967D01*
X203198983Y-88900000D01*
X203115844Y-88482033D01*
X202879085Y-88127698D01*
X202524750Y-87890939D01*
X202106783Y-87807800D01*
X201753217Y-87807800D01*
X201335250Y-87890939D01*
X200980915Y-88127698D01*
X200744156Y-88482033D01*
X200736803Y-88519000D01*
X199674816Y-88519000D01*
X197881408Y-86725592D01*
X197757803Y-86643002D01*
X197612000Y-86614000D01*
X197278078Y-86614000D01*
X197278078Y-86345000D01*
X197262138Y-86260286D01*
X197212072Y-86182482D01*
X197135680Y-86130285D01*
X197045000Y-86111922D01*
X195545000Y-86111922D01*
X195460286Y-86127862D01*
X195382482Y-86177928D01*
X195330285Y-86254320D01*
X195311922Y-86345000D01*
X194578078Y-86345000D01*
X194562138Y-86260286D01*
X194512072Y-86182482D01*
X194435680Y-86130285D01*
X194345000Y-86111922D01*
X192845000Y-86111922D01*
X192760286Y-86127862D01*
X192682482Y-86177928D01*
X192630285Y-86254320D01*
X192611922Y-86345000D01*
X192611922Y-86614000D01*
X185577815Y-86614000D01*
X185039000Y-86075184D01*
X185039000Y-85120816D01*
X185658590Y-85740405D01*
X185658592Y-85740408D01*
X185759635Y-85807922D01*
X185782198Y-85822998D01*
X185928000Y-85852001D01*
X185928005Y-85852000D01*
X187023922Y-85852000D01*
X187023922Y-86121000D01*
X187039862Y-86205714D01*
X187089928Y-86283518D01*
X187166320Y-86335715D01*
X187257000Y-86354078D01*
X188757000Y-86354078D01*
X188841714Y-86338138D01*
X188919518Y-86288072D01*
X188971715Y-86211680D01*
X188990078Y-86121000D01*
X188990078Y-84821000D01*
X189723922Y-84821000D01*
X189723922Y-86121000D01*
X189739862Y-86205714D01*
X189789928Y-86283518D01*
X189866320Y-86335715D01*
X189957000Y-86354078D01*
X191457000Y-86354078D01*
X191541714Y-86338138D01*
X191619518Y-86288072D01*
X191671715Y-86211680D01*
X191690078Y-86121000D01*
X191690078Y-85852000D01*
X198724184Y-85852000D01*
X199501592Y-86629408D01*
X199625198Y-86711998D01*
X199771000Y-86741001D01*
X199771005Y-86741000D01*
X200736803Y-86741000D01*
X200744156Y-86777967D01*
X200980915Y-87132302D01*
X201335250Y-87369061D01*
X201753217Y-87452200D01*
X202106783Y-87452200D01*
X202524750Y-87369061D01*
X202879085Y-87132302D01*
X203115844Y-86777967D01*
X203198983Y-86360000D01*
X203115844Y-85942033D01*
X202879085Y-85587698D01*
X202524750Y-85350939D01*
X202106783Y-85267800D01*
X201753217Y-85267800D01*
X201335250Y-85350939D01*
X200980915Y-85587698D01*
X200744156Y-85942033D01*
X200736803Y-85979000D01*
X199928816Y-85979000D01*
X199151408Y-85201592D01*
X199027803Y-85119002D01*
X198882000Y-85090000D01*
X191690078Y-85090000D01*
X191690078Y-84821000D01*
X191674138Y-84736286D01*
X191624072Y-84658482D01*
X191547680Y-84606285D01*
X191457000Y-84587922D01*
X189957000Y-84587922D01*
X189872286Y-84603862D01*
X189794482Y-84653928D01*
X189742285Y-84730320D01*
X189723922Y-84821000D01*
X188990078Y-84821000D01*
X188974138Y-84736286D01*
X188924072Y-84658482D01*
X188847680Y-84606285D01*
X188757000Y-84587922D01*
X187257000Y-84587922D01*
X187172286Y-84603862D01*
X187094482Y-84653928D01*
X187042285Y-84730320D01*
X187023922Y-84821000D01*
X187023922Y-85090000D01*
X186085815Y-85090000D01*
X185547000Y-84551184D01*
X185547000Y-83596816D01*
X185912590Y-83962405D01*
X185912592Y-83962408D01*
X186036198Y-84044998D01*
X186182000Y-84074000D01*
X191817000Y-84074000D01*
X191962803Y-84044998D01*
X192086408Y-83962408D01*
X193123737Y-82925078D01*
X194218000Y-82925078D01*
X194302714Y-82909138D01*
X194380518Y-82859072D01*
X194432715Y-82782680D01*
X194451078Y-82692000D01*
X194451078Y-81392000D01*
X195184922Y-81392000D01*
X195184922Y-82692000D01*
X195200862Y-82776714D01*
X195250928Y-82854518D01*
X195327320Y-82906715D01*
X195418000Y-82925078D01*
X196918000Y-82925078D01*
X197002714Y-82909138D01*
X197080518Y-82859072D01*
X197132715Y-82782680D01*
X197151078Y-82692000D01*
X197151078Y-82500894D01*
X198739590Y-84089405D01*
X198739592Y-84089408D01*
X198820257Y-84143306D01*
X198863198Y-84171998D01*
X199009000Y-84201001D01*
X199009005Y-84201000D01*
X200736803Y-84201000D01*
X200744156Y-84237967D01*
X200980915Y-84592302D01*
X201335250Y-84829061D01*
X201753217Y-84912200D01*
X202106783Y-84912200D01*
X202524750Y-84829061D01*
X202879085Y-84592302D01*
X203115844Y-84237967D01*
X203198983Y-83820000D01*
X203115844Y-83402033D01*
X202879085Y-83047698D01*
X202524750Y-82810939D01*
X202106783Y-82727800D01*
X201753217Y-82727800D01*
X201335250Y-82810939D01*
X200980915Y-83047698D01*
X200744156Y-83402033D01*
X200736803Y-83439000D01*
X199166815Y-83439000D01*
X197500408Y-81772592D01*
X197376803Y-81690002D01*
X197231000Y-81661000D01*
X197151078Y-81661000D01*
X197151078Y-81392000D01*
X197135138Y-81307286D01*
X197085072Y-81229482D01*
X197008680Y-81177285D01*
X196918000Y-81158922D01*
X195418000Y-81158922D01*
X195333286Y-81174862D01*
X195255482Y-81224928D01*
X195203285Y-81301320D01*
X195184922Y-81392000D01*
X194451078Y-81392000D01*
X194435138Y-81307286D01*
X194385072Y-81229482D01*
X194308680Y-81177285D01*
X194218000Y-81158922D01*
X192718000Y-81158922D01*
X192633286Y-81174862D01*
X192555482Y-81224928D01*
X192503285Y-81301320D01*
X192484922Y-81392000D01*
X192484922Y-82486263D01*
X191659184Y-83312000D01*
X186339815Y-83312000D01*
X186055000Y-83027184D01*
X186055000Y-82072816D01*
X186293592Y-82311408D01*
X186417197Y-82393998D01*
X186563000Y-82423000D01*
X186769922Y-82423000D01*
X186769922Y-82692000D01*
X186785862Y-82776714D01*
X186835928Y-82854518D01*
X186912320Y-82906715D01*
X187003000Y-82925078D01*
X188503000Y-82925078D01*
X188587714Y-82909138D01*
X188665518Y-82859072D01*
X188717715Y-82782680D01*
X188736078Y-82692000D01*
X188736078Y-81392000D01*
X189469922Y-81392000D01*
X189469922Y-82692000D01*
X189485862Y-82776714D01*
X189535928Y-82854518D01*
X189612320Y-82906715D01*
X189703000Y-82925078D01*
X191203000Y-82925078D01*
X191287714Y-82909138D01*
X191365518Y-82859072D01*
X191417715Y-82782680D01*
X191436078Y-82692000D01*
X191436078Y-81392000D01*
X191420138Y-81307286D01*
X191370072Y-81229482D01*
X191293680Y-81177285D01*
X191272766Y-81173050D01*
X192181815Y-80264000D01*
X200375184Y-80264000D01*
X200680922Y-80569738D01*
X200680922Y-82143600D01*
X200696862Y-82228314D01*
X200746928Y-82306118D01*
X200823320Y-82358315D01*
X200914000Y-82376678D01*
X202946000Y-82376678D01*
X203030714Y-82360738D01*
X203108518Y-82310672D01*
X203160715Y-82234280D01*
X203179078Y-82143600D01*
X203179078Y-80416400D01*
X203163138Y-80331686D01*
X203113072Y-80253882D01*
X203036680Y-80201685D01*
X202946000Y-80183322D01*
X201372138Y-80183322D01*
X200802408Y-79613592D01*
X200678803Y-79531002D01*
X200533000Y-79502000D01*
X192024005Y-79502000D01*
X192024000Y-79501999D01*
X191878198Y-79531002D01*
X191754592Y-79613592D01*
X191754590Y-79613595D01*
X190209262Y-81158922D01*
X189703000Y-81158922D01*
X189618286Y-81174862D01*
X189540482Y-81224928D01*
X189488285Y-81301320D01*
X189469922Y-81392000D01*
X188736078Y-81392000D01*
X188720138Y-81307286D01*
X188670072Y-81229482D01*
X188593680Y-81177285D01*
X188503000Y-81158922D01*
X187003000Y-81158922D01*
X186918286Y-81174862D01*
X186840482Y-81224928D01*
X186788285Y-81301320D01*
X186769922Y-81392000D01*
X186769922Y-81661000D01*
X186720816Y-81661000D01*
X184673408Y-79613592D01*
X184549803Y-79531002D01*
X184404000Y-79502000D01*
X177800000Y-79502000D01*
X177654197Y-79531002D01*
X177530592Y-79613592D01*
X174228592Y-82915592D01*
X174228372Y-82915922D01*
X174198000Y-82915922D01*
X174113286Y-82931862D01*
X174035482Y-82981928D01*
X173983285Y-83058320D01*
X173964922Y-83149000D01*
X173761078Y-83149000D01*
X173745138Y-83064286D01*
X173695072Y-82986482D01*
X173618680Y-82934285D01*
X173609000Y-82932325D01*
X173609000Y-82469182D01*
X173712211Y-82366151D01*
X173799400Y-82156177D01*
X173799599Y-81928820D01*
X173712776Y-81718694D01*
X173552151Y-81557789D01*
X173342177Y-81470600D01*
X173114820Y-81470401D01*
X172904694Y-81557224D01*
X172743789Y-81717849D01*
X172656600Y-81927823D01*
X172656401Y-82155180D01*
X161575078Y-82155180D01*
X161575078Y-81891000D01*
X161559138Y-81806286D01*
X161509072Y-81728482D01*
X161432680Y-81676285D01*
X161342000Y-81657922D01*
X160742000Y-81657922D01*
X160657286Y-81673862D01*
X160642788Y-81683191D01*
X160632680Y-81676285D01*
X160542000Y-81657922D01*
X159942000Y-81657922D01*
X159857286Y-81673862D01*
X159779482Y-81723928D01*
X159727285Y-81800320D01*
X159708922Y-81891000D01*
X159708922Y-83091000D01*
X159724862Y-83175714D01*
X159774928Y-83253518D01*
X159851320Y-83305715D01*
X159942000Y-83324078D01*
X160542000Y-83324078D01*
X160626714Y-83308138D01*
X160641212Y-83298809D01*
X160651320Y-83305715D01*
X160742000Y-83324078D01*
X161342000Y-83324078D01*
X161426714Y-83308138D01*
X161504518Y-83258072D01*
X161556715Y-83181680D01*
X161575078Y-83091000D01*
X161575078Y-83058000D01*
X163926184Y-83058000D01*
X164390590Y-83522405D01*
X164390592Y-83522408D01*
X164420777Y-83552592D01*
X164434185Y-83566000D01*
X163310966Y-83566000D01*
X163309138Y-83556286D01*
X163259072Y-83478482D01*
X163182680Y-83426285D01*
X163092000Y-83407922D01*
X161892000Y-83407922D01*
X161807286Y-83423862D01*
X161729482Y-83473928D01*
X161677285Y-83550320D01*
X161658922Y-83641000D01*
X161658922Y-84241000D01*
X161674862Y-84325714D01*
X161684191Y-84340212D01*
X161677285Y-84350320D01*
X161658922Y-84441000D01*
X161658922Y-85041000D01*
X161674862Y-85125714D01*
X161684191Y-85140212D01*
X161677285Y-85150320D01*
X161658922Y-85241000D01*
X161658922Y-85841000D01*
X161674862Y-85925714D01*
X161684191Y-85940212D01*
X161677285Y-85950320D01*
X161658922Y-86041000D01*
X161658922Y-86641000D01*
X161674862Y-86725714D01*
X161684191Y-86740212D01*
X161677285Y-86750320D01*
X161658922Y-86841000D01*
X161658922Y-87441000D01*
X161674862Y-87525714D01*
X161684191Y-87540212D01*
X161677285Y-87550320D01*
X161658922Y-87641000D01*
X161658922Y-88241000D01*
X161674862Y-88325714D01*
X161684191Y-88340212D01*
X161677285Y-88350320D01*
X161658922Y-88441000D01*
X161658922Y-89041000D01*
X161674862Y-89125714D01*
X161684191Y-89140212D01*
X161677285Y-89150320D01*
X161675325Y-89160000D01*
X161199816Y-89160000D01*
X160909000Y-88869184D01*
X160909000Y-86914182D01*
X161012211Y-86811151D01*
X161099400Y-86601177D01*
X161099599Y-86373820D01*
X161012776Y-86163694D01*
X160852151Y-86002789D01*
X160642177Y-85915600D01*
X160414820Y-85915401D01*
X160204694Y-86002224D01*
X160147000Y-86059818D01*
X160147000Y-85898182D01*
X160250211Y-85795151D01*
X160337400Y-85585177D01*
X160337599Y-85357820D01*
X160250776Y-85147694D01*
X160090151Y-84986789D01*
X159880177Y-84899600D01*
X159652820Y-84899401D01*
X159442694Y-84986224D01*
X159281789Y-85146849D01*
X159194600Y-85356823D01*
X159194401Y-85584180D01*
X159281224Y-85794306D01*
X159385000Y-85898263D01*
X159385000Y-88869185D01*
X158369000Y-87853184D01*
X158369000Y-85136182D01*
X158472211Y-85033151D01*
X158559400Y-84823177D01*
X158559599Y-84595820D01*
X158472776Y-84385694D01*
X158456984Y-84369875D01*
X158508823Y-84391400D01*
X158736180Y-84391599D01*
X158946306Y-84304776D01*
X159107211Y-84144151D01*
X159194400Y-83934177D01*
X159194599Y-83706820D01*
X159107776Y-83496694D01*
X159023000Y-83411770D01*
X159023000Y-83308837D01*
X159026714Y-83308138D01*
X159104518Y-83258072D01*
X159156715Y-83181680D01*
X159175078Y-83091000D01*
X159175078Y-81891000D01*
X159159138Y-81806286D01*
X159109072Y-81728482D01*
X159032680Y-81676285D01*
X158942000Y-81657922D01*
X158342000Y-81657922D01*
X158257286Y-81673862D01*
X158179482Y-81723928D01*
X158127285Y-81800320D01*
X158108922Y-81891000D01*
X158108922Y-83091000D01*
X158124862Y-83175714D01*
X158174928Y-83253518D01*
X158251320Y-83305715D01*
X158261000Y-83307675D01*
X158261000Y-83373851D01*
X158138789Y-83495849D01*
X158051600Y-83705823D01*
X158051401Y-83933180D01*
X158138224Y-84143306D01*
X158154016Y-84159125D01*
X158102177Y-84137600D01*
X157874820Y-84137401D01*
X157664694Y-84224224D01*
X157503789Y-84384849D01*
X157416600Y-84594823D01*
X157416401Y-84822180D01*
X157503224Y-85032306D01*
X157607000Y-85136263D01*
X157607000Y-88011000D01*
X157619633Y-88074511D01*
X157493820Y-88074401D01*
X157283694Y-88161224D01*
X157179737Y-88265000D01*
X156215340Y-88265000D01*
X156273400Y-88125177D01*
X156273599Y-87897820D01*
X156186776Y-87687694D01*
X156026151Y-87526789D01*
X155816177Y-87439600D01*
X155588820Y-87439401D01*
X155378694Y-87526224D01*
X155217789Y-87686849D01*
X155130600Y-87896823D01*
X155130471Y-88043713D01*
X154814184Y-88360000D01*
X154809837Y-88360000D01*
X154809138Y-88356286D01*
X154799809Y-88341788D01*
X154806715Y-88331680D01*
X154825078Y-88241000D01*
X154825078Y-87641000D01*
X154809138Y-87556286D01*
X154799809Y-87541788D01*
X154806715Y-87531680D01*
X154825078Y-87441000D01*
X154825078Y-86841000D01*
X154809138Y-86756286D01*
X154799809Y-86741788D01*
X154806715Y-86731680D01*
X154825078Y-86641000D01*
X154825078Y-86041000D01*
X154809138Y-85956286D01*
X154799809Y-85941788D01*
X154806715Y-85931680D01*
X154825078Y-85841000D01*
X154825078Y-85241000D01*
X154809138Y-85156286D01*
X154799809Y-85141788D01*
X154806715Y-85131680D01*
X154825078Y-85041000D01*
X154825078Y-84441000D01*
X154809138Y-84356286D01*
X154799809Y-84341788D01*
X154806715Y-84331680D01*
X154825078Y-84241000D01*
X154825078Y-83641000D01*
X154809138Y-83556286D01*
X154759072Y-83478482D01*
X154682680Y-83426285D01*
X154592000Y-83407922D01*
X153392000Y-83407922D01*
X153307286Y-83423862D01*
X153229482Y-83473928D01*
X153177285Y-83550320D01*
X153158922Y-83641000D01*
X153158922Y-84241000D01*
X153174862Y-84325714D01*
X153184191Y-84340212D01*
X153177285Y-84350320D01*
X153158922Y-84441000D01*
X153158922Y-85041000D01*
X153174862Y-85125714D01*
X153184191Y-85140212D01*
X153177285Y-85150320D01*
X153158922Y-85241000D01*
X153158922Y-85841000D01*
X153174862Y-85925714D01*
X153184191Y-85940212D01*
X153177285Y-85950320D01*
X153158922Y-86041000D01*
X153158922Y-86641000D01*
X153174862Y-86725714D01*
X153184191Y-86740212D01*
X153177285Y-86750320D01*
X153158922Y-86841000D01*
X153158922Y-87441000D01*
X153174862Y-87525714D01*
X153184191Y-87540212D01*
X153177285Y-87550320D01*
X153175325Y-87560000D01*
X152630304Y-87560000D01*
X152597151Y-87526789D01*
X152387177Y-87439600D01*
X152159820Y-87439401D01*
X151949694Y-87526224D01*
X151788789Y-87686849D01*
X151701600Y-87896823D01*
X151701401Y-88124180D01*
X151788224Y-88334306D01*
X151948849Y-88495211D01*
X152158823Y-88582400D01*
X152386180Y-88582599D01*
X152596306Y-88495776D01*
X152757211Y-88335151D01*
X152762672Y-88322000D01*
X153174163Y-88322000D01*
X153174862Y-88325714D01*
X153184191Y-88340212D01*
X153177285Y-88350320D01*
X153158922Y-88441000D01*
X153158922Y-89041000D01*
X153174862Y-89125714D01*
X153184191Y-89140212D01*
X153177285Y-89150320D01*
X153175325Y-89160000D01*
X152071172Y-89160000D01*
X151962151Y-89050789D01*
X151752177Y-88963600D01*
X151524820Y-88963401D01*
X151314694Y-89050224D01*
X151153789Y-89210849D01*
X151066600Y-89420823D01*
X151066401Y-89648180D01*
X151153224Y-89858306D01*
X151313849Y-90019211D01*
X151523823Y-90106400D01*
X151751180Y-90106599D01*
X151961306Y-90019776D01*
X152059252Y-89922000D01*
X153174163Y-89922000D01*
X153174862Y-89925714D01*
X153224928Y-90003518D01*
X153301320Y-90055715D01*
X153392000Y-90074078D01*
X154592000Y-90074078D01*
X154676714Y-90058138D01*
X154754518Y-90008072D01*
X154806715Y-89931680D01*
X154808675Y-89922000D01*
X155188000Y-89922000D01*
X155333803Y-89892998D01*
X155457408Y-89810408D01*
X155638417Y-89629399D01*
X155638401Y-89648180D01*
X155708600Y-89818073D01*
X155708600Y-90157922D01*
X155142000Y-90157922D01*
X155057286Y-90173862D01*
X154979482Y-90223928D01*
X154927285Y-90300320D01*
X154908922Y-90391000D01*
X154908922Y-91023337D01*
X154903002Y-91032197D01*
X154882195Y-91136802D01*
X154874000Y-91178000D01*
X154874000Y-92467755D01*
X154820286Y-92477862D01*
X154742482Y-92527928D01*
X154690285Y-92604320D01*
X154671922Y-92695000D01*
X154671922Y-93995000D01*
X154687862Y-94079714D01*
X154737928Y-94157518D01*
X154814320Y-94209715D01*
X154905000Y-94228078D01*
X155523325Y-94228078D01*
X155441213Y-94310190D01*
X153059034Y-94310190D01*
X153059029Y-94310189D01*
X152913227Y-94339192D01*
X152789621Y-94421782D01*
X151924779Y-95286624D01*
X151775302Y-95062915D01*
X151420967Y-94826156D01*
X151384000Y-94818803D01*
X151384000Y-94391816D01*
X152049816Y-93726000D01*
X152771922Y-93726000D01*
X152771922Y-93995000D01*
X152787862Y-94079714D01*
X152837928Y-94157518D01*
X152914320Y-94209715D01*
X153005000Y-94228078D01*
X153705000Y-94228078D01*
X153789714Y-94212138D01*
X153867518Y-94162072D01*
X153919715Y-94085680D01*
X153938078Y-93995000D01*
X153938078Y-92695000D01*
X153922138Y-92610286D01*
X153872072Y-92532482D01*
X153795680Y-92480285D01*
X153705000Y-92461922D01*
X153005000Y-92461922D01*
X152920286Y-92477862D01*
X152842482Y-92527928D01*
X152790285Y-92604320D01*
X152771922Y-92695000D01*
X152771922Y-92964000D01*
X151892005Y-92964000D01*
X151892000Y-92963999D01*
X151746198Y-92993002D01*
X151622592Y-93075592D01*
X150733592Y-93964592D01*
X150651002Y-94088197D01*
X150642209Y-94132401D01*
X150622000Y-94234000D01*
X150622000Y-94818803D01*
X150585033Y-94826156D01*
X150230698Y-95062915D01*
X149993939Y-95417250D01*
X149910800Y-95835217D01*
X149910800Y-96188783D01*
X149993939Y-96606750D01*
X150224501Y-96951810D01*
X149241499Y-96951810D01*
X149472061Y-96606750D01*
X149555200Y-96188783D01*
X149555200Y-95835217D01*
X149472061Y-95417250D01*
X149235302Y-95062915D01*
X148880967Y-94826156D01*
X148463000Y-94743017D01*
X148045033Y-94826156D01*
X147690698Y-95062915D01*
X147453939Y-95417250D01*
X147370800Y-95835217D01*
X147370800Y-96188783D01*
X147453939Y-96606750D01*
X147684501Y-96951810D01*
X144709225Y-96951810D01*
X144380888Y-96623472D01*
X144392061Y-96606750D01*
X144475200Y-96188783D01*
X144475200Y-95835217D01*
X144392061Y-95417250D01*
X144155302Y-95062915D01*
X143800967Y-94826156D01*
X143383000Y-94743017D01*
X142965033Y-94826156D01*
X142610698Y-95062915D01*
X142373939Y-95417250D01*
X142290800Y-95835217D01*
X140034598Y-95835217D01*
X141366405Y-94503410D01*
X141366408Y-94503408D01*
X141448998Y-94379802D01*
X141457076Y-94339192D01*
X141478001Y-94234000D01*
X141478000Y-94233995D01*
X141478000Y-92569180D01*
X146875401Y-92569180D01*
X146962224Y-92779306D01*
X147122849Y-92940211D01*
X147332823Y-93027400D01*
X147560180Y-93027599D01*
X147770306Y-92940776D01*
X147931211Y-92780151D01*
X148018400Y-92570177D01*
X148018599Y-92342820D01*
X147931776Y-92132694D01*
X147828000Y-92028737D01*
X147828000Y-91439837D01*
X147831714Y-91439138D01*
X147909518Y-91389072D01*
X147961715Y-91312680D01*
X147980078Y-91222000D01*
X147980078Y-89622000D01*
X147964138Y-89537286D01*
X147914072Y-89459482D01*
X147837680Y-89407285D01*
X147747000Y-89388922D01*
X147147000Y-89388922D01*
X147062286Y-89404862D01*
X146984482Y-89454928D01*
X146932285Y-89531320D01*
X146913922Y-89622000D01*
X146913922Y-91222000D01*
X146929862Y-91306714D01*
X146979928Y-91384518D01*
X147056320Y-91436715D01*
X147066000Y-91438675D01*
X147066000Y-92028818D01*
X146962789Y-92131849D01*
X146875600Y-92341823D01*
X146875401Y-92569180D01*
X141478000Y-92569180D01*
X141478000Y-91439837D01*
X141481714Y-91439138D01*
X141559518Y-91389072D01*
X141611715Y-91312680D01*
X141630078Y-91222000D01*
X141630078Y-89622000D01*
X141614138Y-89537286D01*
X141564072Y-89459482D01*
X141487680Y-89407285D01*
X141397000Y-89388922D01*
X140797000Y-89388922D01*
X140712286Y-89404862D01*
X140634482Y-89454928D01*
X140582285Y-89531320D01*
X140563922Y-89622000D01*
X140563922Y-91222000D01*
X140579862Y-91306714D01*
X140629928Y-91384518D01*
X140706320Y-91436715D01*
X140716000Y-91438675D01*
X140716000Y-94076185D01*
X139755573Y-95036611D01*
X139731680Y-95020285D01*
X139641000Y-95001922D01*
X138141000Y-95001922D01*
X138056286Y-95017862D01*
X137978482Y-95067928D01*
X137926285Y-95144320D01*
X137907922Y-95235000D01*
X137174078Y-95235000D01*
X137158138Y-95150286D01*
X137108072Y-95072482D01*
X137031680Y-95020285D01*
X136941000Y-95001922D01*
X135441000Y-95001922D01*
X135356286Y-95017862D01*
X135278482Y-95067928D01*
X135226285Y-95144320D01*
X135207922Y-95235000D01*
X135207922Y-95504000D01*
X133947818Y-95504000D01*
X133957714Y-95502138D01*
X134035518Y-95452072D01*
X134087715Y-95375680D01*
X134106078Y-95285000D01*
X134106078Y-94916000D01*
X138764000Y-94916000D01*
X138909803Y-94886998D01*
X139033408Y-94804408D01*
X140096408Y-93741408D01*
X140178998Y-93617803D01*
X140208000Y-93472000D01*
X140208000Y-91439837D01*
X140211714Y-91439138D01*
X140289518Y-91389072D01*
X140341715Y-91312680D01*
X140360078Y-91222000D01*
X140360078Y-89622000D01*
X140344138Y-89537286D01*
X140294072Y-89459482D01*
X140217680Y-89407285D01*
X140127000Y-89388922D01*
X139527000Y-89388922D01*
X139442286Y-89404862D01*
X139364482Y-89454928D01*
X139312285Y-89531320D01*
X139293922Y-89622000D01*
X139293922Y-91222000D01*
X139309862Y-91306714D01*
X139359928Y-91384518D01*
X139436320Y-91436715D01*
X139446000Y-91438675D01*
X139446000Y-93314184D01*
X138606184Y-94154000D01*
X134106078Y-94154000D01*
X134106078Y-93785000D01*
X134090138Y-93700286D01*
X134040072Y-93622482D01*
X133963680Y-93570285D01*
X133873000Y-93551922D01*
X132573000Y-93551922D01*
X132488286Y-93567862D01*
X132410482Y-93617928D01*
X132358285Y-93694320D01*
X132339922Y-93785000D01*
X132339922Y-95285000D01*
X132355862Y-95369714D01*
X132405928Y-95447518D01*
X132482320Y-95499715D01*
X132503480Y-95504000D01*
X131729815Y-95504000D01*
X131206408Y-94980592D01*
X131082803Y-94898002D01*
X130937000Y-94869000D01*
X127793671Y-94869000D01*
X127835518Y-94842072D01*
X127887715Y-94765680D01*
X127906078Y-94675000D01*
X127906078Y-94150000D01*
X127890138Y-94065286D01*
X127889000Y-94063518D01*
X127889000Y-93726000D01*
X127859998Y-93580198D01*
X127859998Y-93580197D01*
X127777408Y-93456592D01*
X125618408Y-91297592D01*
X125494803Y-91215002D01*
X125349000Y-91186000D01*
X120598459Y-91186000D01*
X120565844Y-91022033D01*
X120329085Y-90667698D01*
X119974750Y-90430939D01*
X119556783Y-90347800D01*
X119203217Y-90347800D01*
X118785250Y-90430939D01*
X118430915Y-90667698D01*
X118194156Y-91022033D01*
X118111017Y-91440000D01*
X117068600Y-91440000D01*
X117068600Y-88900000D01*
X118111017Y-88900000D01*
X118194156Y-89317967D01*
X118430915Y-89672302D01*
X118785250Y-89909061D01*
X119203217Y-89992200D01*
X119556783Y-89992200D01*
X119974750Y-89909061D01*
X120329085Y-89672302D01*
X120565844Y-89317967D01*
X120573197Y-89281000D01*
X122778184Y-89281000D01*
X124520092Y-91022908D01*
X124643698Y-91105498D01*
X124789500Y-91134501D01*
X124789505Y-91134500D01*
X126004603Y-91134500D01*
X126032928Y-91178518D01*
X126109320Y-91230715D01*
X126200000Y-91249078D01*
X126500000Y-91249078D01*
X126584714Y-91233138D01*
X126619000Y-91211075D01*
X126619000Y-91694000D01*
X126648002Y-91839803D01*
X126730592Y-91963408D01*
X126984592Y-92217408D01*
X127108197Y-92299998D01*
X127254000Y-92329000D01*
X129794000Y-92329000D01*
X129939803Y-92299998D01*
X130063408Y-92217408D01*
X130459815Y-91821000D01*
X131016922Y-91821000D01*
X131016922Y-92090000D01*
X131032862Y-92174714D01*
X131082928Y-92252518D01*
X131159320Y-92304715D01*
X131250000Y-92323078D01*
X132750000Y-92323078D01*
X132834714Y-92307138D01*
X132912518Y-92257072D01*
X132964715Y-92180680D01*
X132983078Y-92090000D01*
X132983078Y-90790000D01*
X132967138Y-90705286D01*
X132917072Y-90627482D01*
X132840680Y-90575285D01*
X132750000Y-90556922D01*
X131250000Y-90556922D01*
X131165286Y-90572862D01*
X131087482Y-90622928D01*
X131035285Y-90699320D01*
X131016922Y-90790000D01*
X131016922Y-91059000D01*
X130302000Y-91059000D01*
X130156198Y-91088002D01*
X130032592Y-91170592D01*
X130032590Y-91170595D01*
X129636184Y-91567000D01*
X127411816Y-91567000D01*
X127381000Y-91536184D01*
X127381000Y-91026262D01*
X127383078Y-91016000D01*
X127383078Y-90491000D01*
X127367138Y-90406286D01*
X127317072Y-90328482D01*
X127240680Y-90276285D01*
X127150000Y-90257922D01*
X126850000Y-90257922D01*
X126765286Y-90273862D01*
X126687482Y-90323928D01*
X126675462Y-90341520D01*
X126667072Y-90328482D01*
X126590680Y-90276285D01*
X126500000Y-90257922D01*
X126200000Y-90257922D01*
X126115286Y-90273862D01*
X126037482Y-90323928D01*
X126004294Y-90372500D01*
X124947316Y-90372500D01*
X123205408Y-88630592D01*
X123081803Y-88548002D01*
X122936000Y-88519000D01*
X120573197Y-88519000D01*
X120565844Y-88482033D01*
X120329085Y-88127698D01*
X119974750Y-87890939D01*
X119556783Y-87807800D01*
X119203217Y-87807800D01*
X118785250Y-87890939D01*
X118430915Y-88127698D01*
X118194156Y-88482033D01*
X118111017Y-88900000D01*
X117068600Y-88900000D01*
X117068600Y-83820000D01*
X118111017Y-83820000D01*
X118194156Y-84237967D01*
X118430915Y-84592302D01*
X118785250Y-84829061D01*
X119203217Y-84912200D01*
X119556783Y-84912200D01*
X119974750Y-84829061D01*
X120329085Y-84592302D01*
X120565844Y-84237967D01*
X120573197Y-84201000D01*
X122651184Y-84201000D01*
X124429184Y-85979000D01*
X120573197Y-85979000D01*
X120565844Y-85942033D01*
X120329085Y-85587698D01*
X119974750Y-85350939D01*
X119556783Y-85267800D01*
X119203217Y-85267800D01*
X118785250Y-85350939D01*
X118430915Y-85587698D01*
X118194156Y-85942033D01*
X118111017Y-86360000D01*
X118194156Y-86777967D01*
X118430915Y-87132302D01*
X118785250Y-87369061D01*
X119203217Y-87452200D01*
X119556783Y-87452200D01*
X119974750Y-87369061D01*
X120329085Y-87132302D01*
X120565844Y-86777967D01*
X120573197Y-86741000D01*
X125445184Y-86741000D01*
X127269000Y-88564816D01*
X127269000Y-88620635D01*
X127240680Y-88601285D01*
X127150000Y-88582922D01*
X126850000Y-88582922D01*
X126765286Y-88598862D01*
X126687482Y-88648928D01*
X126635285Y-88725320D01*
X126616922Y-88816000D01*
X126616922Y-89341000D01*
X126619000Y-89352044D01*
X126619000Y-89535000D01*
X126648002Y-89680803D01*
X126730592Y-89804408D01*
X127111590Y-90185405D01*
X127111592Y-90185408D01*
X127235198Y-90267998D01*
X127381000Y-90297000D01*
X128778000Y-90297000D01*
X128923803Y-90267998D01*
X129047408Y-90185408D01*
X129951816Y-89281000D01*
X131016922Y-89281000D01*
X131016922Y-89550000D01*
X131032862Y-89634714D01*
X131082928Y-89712518D01*
X131159320Y-89764715D01*
X131250000Y-89783078D01*
X132750000Y-89783078D01*
X132834714Y-89767138D01*
X132912518Y-89717072D01*
X132964715Y-89640680D01*
X132983078Y-89550000D01*
X132983078Y-88250000D01*
X132967138Y-88165286D01*
X132917072Y-88087482D01*
X132840680Y-88035285D01*
X132750000Y-88016922D01*
X131250000Y-88016922D01*
X131165286Y-88032862D01*
X131087482Y-88082928D01*
X131035285Y-88159320D01*
X131016922Y-88250000D01*
X131016922Y-88519000D01*
X129794000Y-88519000D01*
X129648197Y-88548002D01*
X129524592Y-88630592D01*
X128620184Y-89535000D01*
X127920671Y-89535000D01*
X127962518Y-89508072D01*
X128014715Y-89431680D01*
X128033078Y-89341000D01*
X128033078Y-88816000D01*
X128031000Y-88804956D01*
X128031000Y-88407000D01*
X128014831Y-88325714D01*
X128001998Y-88261197D01*
X127919408Y-88137592D01*
X127006933Y-87225117D01*
X127127000Y-87249000D01*
X130048000Y-87249000D01*
X130193803Y-87219998D01*
X130317408Y-87137408D01*
X130713815Y-86741000D01*
X131016922Y-86741000D01*
X131016922Y-87010000D01*
X131032862Y-87094714D01*
X131082928Y-87172518D01*
X131159320Y-87224715D01*
X131250000Y-87243078D01*
X132750000Y-87243078D01*
X132834714Y-87227138D01*
X132912518Y-87177072D01*
X132964715Y-87100680D01*
X132983078Y-87010000D01*
X132983078Y-85710000D01*
X132967138Y-85625286D01*
X132917072Y-85547482D01*
X132840680Y-85495285D01*
X132750000Y-85476922D01*
X131250000Y-85476922D01*
X131165286Y-85492862D01*
X131087482Y-85542928D01*
X131035285Y-85619320D01*
X131016922Y-85710000D01*
X131016922Y-85979000D01*
X130556000Y-85979000D01*
X130410198Y-86008002D01*
X130286592Y-86090592D01*
X130286590Y-86090595D01*
X129890184Y-86487000D01*
X127381000Y-86487000D01*
X127381000Y-86073262D01*
X127383078Y-86063000D01*
X127383078Y-85538000D01*
X127367138Y-85453286D01*
X127317072Y-85375482D01*
X127270997Y-85344000D01*
X128524000Y-85344000D01*
X128669803Y-85314998D01*
X128793408Y-85232408D01*
X129824816Y-84201000D01*
X131016922Y-84201000D01*
X131016922Y-84470000D01*
X131032862Y-84554714D01*
X131082928Y-84632518D01*
X131159320Y-84684715D01*
X131250000Y-84703078D01*
X132750000Y-84703078D01*
X132834714Y-84687138D01*
X132912518Y-84637072D01*
X132964715Y-84560680D01*
X132983078Y-84470000D01*
X132983078Y-83170000D01*
X133716922Y-83170000D01*
X133716922Y-84470000D01*
X133732862Y-84554714D01*
X133782928Y-84632518D01*
X133859320Y-84684715D01*
X133950000Y-84703078D01*
X135450000Y-84703078D01*
X135534714Y-84687138D01*
X135612518Y-84637072D01*
X135664715Y-84560680D01*
X135672487Y-84522303D01*
X136398000Y-85247816D01*
X136398000Y-86456184D01*
X136032408Y-86090592D01*
X135908803Y-86008002D01*
X135763000Y-85979000D01*
X135683078Y-85979000D01*
X135683078Y-85710000D01*
X135667138Y-85625286D01*
X135617072Y-85547482D01*
X135540680Y-85495285D01*
X135450000Y-85476922D01*
X133950000Y-85476922D01*
X133865286Y-85492862D01*
X133787482Y-85542928D01*
X133735285Y-85619320D01*
X133716922Y-85710000D01*
X133716922Y-87010000D01*
X133732862Y-87094714D01*
X133782928Y-87172518D01*
X133859320Y-87224715D01*
X133950000Y-87243078D01*
X135450000Y-87243078D01*
X135534714Y-87227138D01*
X135612518Y-87177072D01*
X135664715Y-87100680D01*
X135683078Y-87010000D01*
X135683078Y-86818894D01*
X136763592Y-87899408D01*
X136887197Y-87981998D01*
X137033000Y-88011000D01*
X137256185Y-88011000D01*
X136748184Y-88519000D01*
X135683078Y-88519000D01*
X135683078Y-88250000D01*
X135667138Y-88165286D01*
X135617072Y-88087482D01*
X135540680Y-88035285D01*
X135450000Y-88016922D01*
X133950000Y-88016922D01*
X133865286Y-88032862D01*
X133787482Y-88082928D01*
X133735285Y-88159320D01*
X133716922Y-88250000D01*
X133716922Y-89550000D01*
X133732862Y-89634714D01*
X133782928Y-89712518D01*
X133859320Y-89764715D01*
X133950000Y-89783078D01*
X135450000Y-89783078D01*
X135534714Y-89767138D01*
X135612518Y-89717072D01*
X135664715Y-89640680D01*
X135683078Y-89550000D01*
X135683078Y-89281000D01*
X136748184Y-89281000D01*
X136509592Y-89519592D01*
X136427002Y-89643197D01*
X136403428Y-89761714D01*
X136398000Y-89789000D01*
X136398000Y-90393184D01*
X135732184Y-91059000D01*
X135683078Y-91059000D01*
X135683078Y-90790000D01*
X135667138Y-90705286D01*
X135617072Y-90627482D01*
X135540680Y-90575285D01*
X135450000Y-90556922D01*
X133950000Y-90556922D01*
X133865286Y-90572862D01*
X133787482Y-90622928D01*
X133735285Y-90699320D01*
X133716922Y-90790000D01*
X133716922Y-92090000D01*
X133732862Y-92174714D01*
X133782928Y-92252518D01*
X133859320Y-92304715D01*
X133950000Y-92323078D01*
X135450000Y-92323078D01*
X135534714Y-92307138D01*
X135612518Y-92257072D01*
X135664715Y-92180680D01*
X135683078Y-92090000D01*
X135683078Y-91821000D01*
X135890000Y-91821000D01*
X136035803Y-91791998D01*
X136159408Y-91709408D01*
X137048408Y-90820408D01*
X137130998Y-90696802D01*
X137160001Y-90551000D01*
X137160000Y-90550995D01*
X137160000Y-89946816D01*
X137484816Y-89622000D01*
X138023922Y-89622000D01*
X138023922Y-91222000D01*
X138039862Y-91306714D01*
X138089928Y-91384518D01*
X138166320Y-91436715D01*
X138257000Y-91455078D01*
X138857000Y-91455078D01*
X138941714Y-91439138D01*
X139019518Y-91389072D01*
X139071715Y-91312680D01*
X139090078Y-91222000D01*
X139090078Y-89622000D01*
X139074138Y-89537286D01*
X139024072Y-89459482D01*
X138947680Y-89407285D01*
X138857000Y-89388922D01*
X138257000Y-89388922D01*
X138172286Y-89404862D01*
X138094482Y-89454928D01*
X138042285Y-89531320D01*
X138023922Y-89622000D01*
X137484816Y-89622000D01*
X137952816Y-89154000D01*
X141447184Y-89154000D01*
X141847607Y-89554422D01*
X141833922Y-89622000D01*
X141833922Y-91222000D01*
X141849862Y-91306714D01*
X141899928Y-91384518D01*
X141976320Y-91436715D01*
X142067000Y-91455078D01*
X142667000Y-91455078D01*
X142751714Y-91439138D01*
X142829518Y-91389072D01*
X142881715Y-91312680D01*
X142900078Y-91222000D01*
X142900078Y-89622000D01*
X142884138Y-89537286D01*
X142834072Y-89459482D01*
X142757680Y-89407285D01*
X142721123Y-89399882D01*
X142718998Y-89389198D01*
X142680646Y-89331800D01*
X142636408Y-89265592D01*
X142636405Y-89265590D01*
X142016816Y-88646000D01*
X142463184Y-88646000D01*
X143233886Y-89416702D01*
X143174482Y-89454928D01*
X143122285Y-89531320D01*
X143103922Y-89622000D01*
X143103922Y-91222000D01*
X143119862Y-91306714D01*
X143169928Y-91384518D01*
X143246320Y-91436715D01*
X143337000Y-91455078D01*
X143937000Y-91455078D01*
X144021714Y-91439138D01*
X144099518Y-91389072D01*
X144151715Y-91312680D01*
X144170078Y-91222000D01*
X144170078Y-89622000D01*
X144154138Y-89537286D01*
X144104072Y-89459482D01*
X144027680Y-89407285D01*
X144018000Y-89405325D01*
X144018000Y-89281000D01*
X144013452Y-89258138D01*
X143988998Y-89135197D01*
X143906408Y-89011592D01*
X142905816Y-88011000D01*
X143352184Y-88011000D01*
X144526000Y-89184815D01*
X144526000Y-89404163D01*
X144522286Y-89404862D01*
X144444482Y-89454928D01*
X144392285Y-89531320D01*
X144373922Y-89622000D01*
X144373922Y-91222000D01*
X144389862Y-91306714D01*
X144439928Y-91384518D01*
X144516320Y-91436715D01*
X144607000Y-91455078D01*
X145207000Y-91455078D01*
X145291714Y-91439138D01*
X145369518Y-91389072D01*
X145421715Y-91312680D01*
X145440078Y-91222000D01*
X145440078Y-89622000D01*
X145424138Y-89537286D01*
X145374072Y-89459482D01*
X145297680Y-89407285D01*
X145288000Y-89405325D01*
X145288000Y-89027000D01*
X145258998Y-88881198D01*
X145258998Y-88881197D01*
X145225917Y-88831688D01*
X145176408Y-88757592D01*
X145176405Y-88757590D01*
X143921816Y-87503000D01*
X143987184Y-87503000D01*
X145796000Y-89311816D01*
X145796000Y-89404163D01*
X145792286Y-89404862D01*
X145714482Y-89454928D01*
X145662285Y-89531320D01*
X145643922Y-89622000D01*
X145643922Y-91222000D01*
X145659862Y-91306714D01*
X145709928Y-91384518D01*
X145786320Y-91436715D01*
X145877000Y-91455078D01*
X146477000Y-91455078D01*
X146561714Y-91439138D01*
X146639518Y-91389072D01*
X146691715Y-91312680D01*
X146710078Y-91222000D01*
X146710078Y-89622000D01*
X146694138Y-89537286D01*
X146644072Y-89459482D01*
X146567680Y-89407285D01*
X146558000Y-89405325D01*
X146558000Y-89154000D01*
X146542982Y-89078500D01*
X146528998Y-89008197D01*
X146446408Y-88884592D01*
X144414408Y-86852592D01*
X144290803Y-86770002D01*
X144145000Y-86741000D01*
X137444815Y-86741000D01*
X137160000Y-86456184D01*
X137160000Y-85090000D01*
X137137803Y-84978407D01*
X137130998Y-84944197D01*
X137048408Y-84820592D01*
X135778408Y-83550592D01*
X135683078Y-83486895D01*
X135683078Y-83170000D01*
X135667138Y-83085286D01*
X135626415Y-83022000D01*
X139293922Y-83022000D01*
X139293922Y-84622000D01*
X139309862Y-84706714D01*
X139359928Y-84784518D01*
X139436320Y-84836715D01*
X139527000Y-84855078D01*
X140127000Y-84855078D01*
X140211714Y-84839138D01*
X140289518Y-84789072D01*
X140341715Y-84712680D01*
X140360078Y-84622000D01*
X140360078Y-83022000D01*
X140344138Y-82937286D01*
X140294072Y-82859482D01*
X140217680Y-82807285D01*
X140127000Y-82788922D01*
X139527000Y-82788922D01*
X139442286Y-82804862D01*
X139364482Y-82854928D01*
X139312285Y-82931320D01*
X139293922Y-83022000D01*
X135626415Y-83022000D01*
X135617072Y-83007482D01*
X135540680Y-82955285D01*
X135450000Y-82936922D01*
X133950000Y-82936922D01*
X133865286Y-82952862D01*
X133787482Y-83002928D01*
X133735285Y-83079320D01*
X133716922Y-83170000D01*
X132983078Y-83170000D01*
X132967138Y-83085286D01*
X132917072Y-83007482D01*
X132840680Y-82955285D01*
X132750000Y-82936922D01*
X131250000Y-82936922D01*
X131165286Y-82952862D01*
X131087482Y-83002928D01*
X131035285Y-83079320D01*
X131016922Y-83170000D01*
X131016922Y-83439000D01*
X129667000Y-83439000D01*
X129521197Y-83468002D01*
X129397592Y-83550592D01*
X128366184Y-84582000D01*
X127920671Y-84582000D01*
X127962518Y-84555072D01*
X128014715Y-84478680D01*
X128033078Y-84388000D01*
X128033078Y-83863000D01*
X128031000Y-83851956D01*
X128031000Y-83073005D01*
X128031001Y-83073000D01*
X128001998Y-82927197D01*
X127919408Y-82803592D01*
X127270996Y-82155180D01*
X140525401Y-82155180D01*
X140612224Y-82365306D01*
X140716000Y-82469263D01*
X140716000Y-82854163D01*
X140712286Y-82854862D01*
X140634482Y-82904928D01*
X140582285Y-82981320D01*
X140563922Y-83072000D01*
X140563922Y-84572000D01*
X140579862Y-84656714D01*
X140629928Y-84734518D01*
X140706320Y-84786715D01*
X140797000Y-84805078D01*
X141397000Y-84805078D01*
X141481714Y-84789138D01*
X141559518Y-84739072D01*
X141611715Y-84662680D01*
X141630078Y-84572000D01*
X141630078Y-83072000D01*
X141620670Y-83022000D01*
X144373922Y-83022000D01*
X144373922Y-84622000D01*
X144389862Y-84706714D01*
X144439928Y-84784518D01*
X144516320Y-84836715D01*
X144526000Y-84838675D01*
X144526000Y-85090000D01*
X144555002Y-85235803D01*
X144637592Y-85359408D01*
X146034590Y-86756405D01*
X146034592Y-86756408D01*
X146105098Y-86803518D01*
X146158197Y-86838998D01*
X146304000Y-86868000D01*
X149813818Y-86868000D01*
X149916849Y-86971211D01*
X150126823Y-87058400D01*
X150354180Y-87058599D01*
X150564306Y-86971776D01*
X150725211Y-86811151D01*
X150812400Y-86601177D01*
X150812599Y-86373820D01*
X150725776Y-86163694D01*
X150565151Y-86002789D01*
X150507980Y-85979050D01*
X150564306Y-85955776D01*
X150725211Y-85795151D01*
X150812400Y-85585177D01*
X150812599Y-85357820D01*
X150725776Y-85147694D01*
X150565151Y-84986789D01*
X150355177Y-84899600D01*
X150127820Y-84899401D01*
X149917694Y-84986224D01*
X149813737Y-85090000D01*
X146969815Y-85090000D01*
X146651440Y-84771624D01*
X146691715Y-84712680D01*
X146710078Y-84622000D01*
X146710078Y-83022000D01*
X146913922Y-83022000D01*
X146913922Y-84622000D01*
X146929862Y-84706714D01*
X146979928Y-84784518D01*
X147056320Y-84836715D01*
X147147000Y-84855078D01*
X147747000Y-84855078D01*
X147831714Y-84839138D01*
X147909518Y-84789072D01*
X147961715Y-84712680D01*
X147980078Y-84622000D01*
X147980078Y-84203000D01*
X149942814Y-84203000D01*
X150043849Y-84304211D01*
X150253823Y-84391400D01*
X150481180Y-84391599D01*
X150691306Y-84304776D01*
X150852211Y-84144151D01*
X150939400Y-83934177D01*
X150939599Y-83706820D01*
X150852776Y-83496694D01*
X150692151Y-83335789D01*
X150482177Y-83248600D01*
X150254820Y-83248401D01*
X150044694Y-83335224D01*
X149938734Y-83441000D01*
X147980078Y-83441000D01*
X147980078Y-83022000D01*
X147964138Y-82937286D01*
X147914072Y-82859482D01*
X147837680Y-82807285D01*
X147747000Y-82788922D01*
X147147000Y-82788922D01*
X147062286Y-82804862D01*
X146984482Y-82854928D01*
X146932285Y-82931320D01*
X146913922Y-83022000D01*
X146710078Y-83022000D01*
X146694138Y-82937286D01*
X146644072Y-82859482D01*
X146567680Y-82807285D01*
X146477000Y-82788922D01*
X145877000Y-82788922D01*
X145792286Y-82804862D01*
X145714482Y-82854928D01*
X145662285Y-82931320D01*
X145643922Y-83022000D01*
X145643922Y-84622000D01*
X145659862Y-84706714D01*
X145709928Y-84784518D01*
X145786320Y-84836715D01*
X145796554Y-84838788D01*
X145825002Y-84981803D01*
X145907592Y-85105408D01*
X146542590Y-85740405D01*
X146542592Y-85740408D01*
X146643635Y-85807922D01*
X146666198Y-85822998D01*
X146812000Y-85852001D01*
X146812005Y-85852000D01*
X149813818Y-85852000D01*
X149916849Y-85955211D01*
X149974020Y-85978950D01*
X149917694Y-86002224D01*
X149813737Y-86106000D01*
X146461815Y-86106000D01*
X145288000Y-84932184D01*
X145288000Y-84839837D01*
X145291714Y-84839138D01*
X145369518Y-84789072D01*
X145421715Y-84712680D01*
X145440078Y-84622000D01*
X145440078Y-83022000D01*
X145424138Y-82937286D01*
X145374072Y-82859482D01*
X145297680Y-82807285D01*
X145207000Y-82788922D01*
X144607000Y-82788922D01*
X144522286Y-82804862D01*
X144444482Y-82854928D01*
X144392285Y-82931320D01*
X144373922Y-83022000D01*
X141620670Y-83022000D01*
X141614138Y-82987286D01*
X141564072Y-82909482D01*
X141487680Y-82857285D01*
X141478000Y-82855325D01*
X141478000Y-82469182D01*
X141581211Y-82366151D01*
X141668400Y-82156177D01*
X141668599Y-81928820D01*
X141652972Y-81891000D01*
X154908922Y-81891000D01*
X154908922Y-83091000D01*
X154924862Y-83175714D01*
X154974928Y-83253518D01*
X155051320Y-83305715D01*
X155142000Y-83324078D01*
X155742000Y-83324078D01*
X155826714Y-83308138D01*
X155841212Y-83298809D01*
X155851320Y-83305715D01*
X155942000Y-83324078D01*
X156542000Y-83324078D01*
X156626714Y-83308138D01*
X156641212Y-83298809D01*
X156651320Y-83305715D01*
X156661000Y-83307675D01*
X156661000Y-83449718D01*
X156614789Y-83495849D01*
X156527600Y-83705823D01*
X156527401Y-83933180D01*
X156614224Y-84143306D01*
X156774849Y-84304211D01*
X156984823Y-84391400D01*
X157212180Y-84391599D01*
X157422306Y-84304776D01*
X157583211Y-84144151D01*
X157670400Y-83934177D01*
X157670599Y-83706820D01*
X157583776Y-83496694D01*
X157423151Y-83335789D01*
X157423000Y-83335726D01*
X157423000Y-83308837D01*
X157426714Y-83308138D01*
X157504518Y-83258072D01*
X157556715Y-83181680D01*
X157575078Y-83091000D01*
X157575078Y-82492619D01*
X157575400Y-82491000D01*
X157575400Y-81122078D01*
X157869000Y-81122078D01*
X157953714Y-81106138D01*
X158031518Y-81056072D01*
X158083715Y-80979680D01*
X158102078Y-80889000D01*
X158102078Y-79639000D01*
X158086138Y-79554286D01*
X158036072Y-79476482D01*
X157959680Y-79424285D01*
X157869000Y-79405922D01*
X156869000Y-79405922D01*
X156784286Y-79421862D01*
X156706482Y-79471928D01*
X156654285Y-79548320D01*
X156635922Y-79639000D01*
X156635922Y-79730600D01*
X156337000Y-79730600D01*
X156132876Y-79771203D01*
X156063563Y-79817516D01*
X155959829Y-79886829D01*
X155959827Y-79886832D01*
X155597275Y-80249383D01*
X155505694Y-80287224D01*
X155344789Y-80447849D01*
X155257600Y-80657823D01*
X155257401Y-80885180D01*
X155344224Y-81095306D01*
X155504849Y-81256211D01*
X155714823Y-81343400D01*
X155942180Y-81343599D01*
X156152306Y-81256776D01*
X156313211Y-81096151D01*
X156351571Y-81003771D01*
X156508600Y-80846741D01*
X156508600Y-81657922D01*
X155942000Y-81657922D01*
X155857286Y-81673862D01*
X155842788Y-81683191D01*
X155832680Y-81676285D01*
X155742000Y-81657922D01*
X155142000Y-81657922D01*
X155057286Y-81673862D01*
X154979482Y-81723928D01*
X154927285Y-81800320D01*
X154908922Y-81891000D01*
X141652972Y-81891000D01*
X141581776Y-81718694D01*
X141421151Y-81557789D01*
X141211177Y-81470600D01*
X140983820Y-81470401D01*
X140773694Y-81557224D01*
X140612789Y-81717849D01*
X140525600Y-81927823D01*
X140525401Y-82155180D01*
X127270996Y-82155180D01*
X126126408Y-81010592D01*
X126002803Y-80928002D01*
X125857000Y-80899000D01*
X120629078Y-80899000D01*
X120629078Y-80416400D01*
X120613138Y-80331686D01*
X120563072Y-80253882D01*
X120486680Y-80201685D01*
X120396000Y-80183322D01*
X118364000Y-80183322D01*
X118279286Y-80199262D01*
X118201482Y-80249328D01*
X118149285Y-80325720D01*
X118130922Y-80416400D01*
X118130922Y-82143600D01*
X118146862Y-82228314D01*
X118196928Y-82306118D01*
X118273320Y-82358315D01*
X118364000Y-82376678D01*
X120396000Y-82376678D01*
X120480714Y-82360738D01*
X120558518Y-82310672D01*
X120610715Y-82234280D01*
X120629078Y-82143600D01*
X120629078Y-81661000D01*
X125699184Y-81661000D01*
X127269000Y-83230816D01*
X127269000Y-83667635D01*
X127240680Y-83648285D01*
X127150000Y-83629922D01*
X126850000Y-83629922D01*
X126765286Y-83645862D01*
X126687482Y-83695928D01*
X126635285Y-83772320D01*
X126616922Y-83863000D01*
X126616922Y-84388000D01*
X126619000Y-84399044D01*
X126619000Y-84709000D01*
X126648002Y-84854803D01*
X126730592Y-84978408D01*
X126984592Y-85232408D01*
X127093117Y-85304922D01*
X126850000Y-85304922D01*
X126765286Y-85320862D01*
X126687482Y-85370928D01*
X126675462Y-85388520D01*
X126667072Y-85375482D01*
X126590680Y-85323285D01*
X126500000Y-85304922D01*
X126200000Y-85304922D01*
X126115286Y-85320862D01*
X126037482Y-85370928D01*
X126004294Y-85419500D01*
X124947316Y-85419500D01*
X123078408Y-83550592D01*
X122954803Y-83468002D01*
X122809000Y-83439000D01*
X120573197Y-83439000D01*
X120565844Y-83402033D01*
X120329085Y-83047698D01*
X119974750Y-82810939D01*
X119556783Y-82727800D01*
X119203217Y-82727800D01*
X118785250Y-82810939D01*
X118430915Y-83047698D01*
X118194156Y-83402033D01*
X118111017Y-83820000D01*
X117068600Y-83820000D01*
X117068600Y-78968600D01*
X141224000Y-78968600D01*
X141351694Y-78943200D01*
X146684306Y-78943200D01*
X146812000Y-78968600D01*
G36*
X131302590Y-96154405D02*
X131302592Y-96154408D01*
X131376509Y-96203797D01*
X131426198Y-96236998D01*
X131572000Y-96266001D01*
X131572005Y-96266000D01*
X132498182Y-96266000D01*
X132488286Y-96267862D01*
X132410482Y-96317928D01*
X132358285Y-96394320D01*
X132339922Y-96485000D01*
X132339922Y-96854000D01*
X127331815Y-96854000D01*
X127254000Y-96776184D01*
X127254000Y-96360262D01*
X127256078Y-96350000D01*
X127256078Y-95825000D01*
X127240138Y-95740286D01*
X127190072Y-95662482D01*
X127143997Y-95631000D01*
X130779184Y-95631000D01*
X131302590Y-96154405D01*
X131302590Y-96154405D01*
G37*
X131302590Y-96154405D02*
X131302592Y-96154408D01*
X131376509Y-96203797D01*
X131426198Y-96236998D01*
X131572000Y-96266001D01*
X131572005Y-96266000D01*
X132498182Y-96266000D01*
X132488286Y-96267862D01*
X132410482Y-96317928D01*
X132358285Y-96394320D01*
X132339922Y-96485000D01*
X132339922Y-96854000D01*
X127331815Y-96854000D01*
X127254000Y-96776184D01*
X127254000Y-96360262D01*
X127256078Y-96350000D01*
X127256078Y-95825000D01*
X127240138Y-95740286D01*
X127190072Y-95662482D01*
X127143997Y-95631000D01*
X130779184Y-95631000D01*
X131302590Y-96154405D01*
M02*
