G04 #@! TF.FileFunction,Legend,Top*
%FSLAX46Y46*%
G04 Gerber Fmt 4.6, Leading zero omitted, Abs format (unit mm)*
G04 Created by KiCad (PCBNEW 4.0.1-2.201512121406+6195~38~ubuntu14.04.1-stable) date Sun 06 Mar 2016 05:51:02 PM CET*
%MOMM*%
G01*
G04 APERTURE LIST*
%ADD10C,0.100000*%
%ADD11C,0.500000*%
%ADD12C,0.127000*%
%ADD13C,0.150000*%
%ADD14R,2.032000X1.727200*%
%ADD15O,2.032000X1.727200*%
%ADD16R,0.300000X0.525000*%
%ADD17R,1.300000X1.500000*%
%ADD18R,1.500000X1.300000*%
%ADD19R,0.600000X1.600000*%
%ADD20R,0.600000X1.500000*%
%ADD21R,1.727200X1.727200*%
%ADD22O,1.727200X1.727200*%
%ADD23R,0.600000X1.200000*%
%ADD24R,1.200000X0.600000*%
%ADD25R,1.300000X0.700000*%
%ADD26R,0.700000X1.300000*%
%ADD27R,1.000000X1.250000*%
%ADD28R,1.727200X2.032000*%
%ADD29O,1.727200X2.032000*%
%ADD30C,0.609600*%
%ADD31R,1.600000X1.000000*%
%ADD32R,1.500000X1.500000*%
%ADD33C,1.500000*%
%ADD34C,1.524000*%
G04 APERTURE END LIST*
D10*
D11*
X167513000Y-91186000D02*
X171577000Y-91186000D01*
D12*
X121756714Y-61050714D02*
X121321286Y-61050714D01*
X121539000Y-61050714D02*
X121539000Y-60288714D01*
X121466429Y-60397571D01*
X121393857Y-60470143D01*
X121321286Y-60506429D01*
X199734714Y-58764714D02*
X199299286Y-58764714D01*
X199517000Y-58764714D02*
X199517000Y-58002714D01*
X199444429Y-58111571D01*
X199371857Y-58184143D01*
X199299286Y-58220429D01*
X118853857Y-80193243D02*
X118817571Y-80229529D01*
X118708714Y-80265814D01*
X118636143Y-80265814D01*
X118527286Y-80229529D01*
X118454714Y-80156957D01*
X118418429Y-80084386D01*
X118382143Y-79939243D01*
X118382143Y-79830386D01*
X118418429Y-79685243D01*
X118454714Y-79612671D01*
X118527286Y-79540100D01*
X118636143Y-79503814D01*
X118708714Y-79503814D01*
X118817571Y-79540100D01*
X118853857Y-79576386D01*
X119289286Y-80265814D02*
X119216714Y-80229529D01*
X119180429Y-80156957D01*
X119180429Y-79503814D01*
X119688429Y-80265814D02*
X119615857Y-80229529D01*
X119579572Y-80193243D01*
X119543286Y-80120671D01*
X119543286Y-79902957D01*
X119579572Y-79830386D01*
X119615857Y-79794100D01*
X119688429Y-79757814D01*
X119797286Y-79757814D01*
X119869857Y-79794100D01*
X119906143Y-79830386D01*
X119942429Y-79902957D01*
X119942429Y-80120671D01*
X119906143Y-80193243D01*
X119869857Y-80229529D01*
X119797286Y-80265814D01*
X119688429Y-80265814D01*
X120595572Y-80229529D02*
X120523001Y-80265814D01*
X120377858Y-80265814D01*
X120305286Y-80229529D01*
X120269001Y-80193243D01*
X120232715Y-80120671D01*
X120232715Y-79902957D01*
X120269001Y-79830386D01*
X120305286Y-79794100D01*
X120377858Y-79757814D01*
X120523001Y-79757814D01*
X120595572Y-79794100D01*
X120922144Y-80265814D02*
X120922144Y-79503814D01*
X120994715Y-79975529D02*
X121212429Y-80265814D01*
X121212429Y-79757814D02*
X120922144Y-80048100D01*
X122446143Y-80265814D02*
X122446143Y-79503814D01*
X122446143Y-80229529D02*
X122373572Y-80265814D01*
X122228429Y-80265814D01*
X122155857Y-80229529D01*
X122119572Y-80193243D01*
X122083286Y-80120671D01*
X122083286Y-79902957D01*
X122119572Y-79830386D01*
X122155857Y-79794100D01*
X122228429Y-79757814D01*
X122373572Y-79757814D01*
X122446143Y-79794100D01*
X122809001Y-80265814D02*
X122809001Y-79757814D01*
X122809001Y-79503814D02*
X122772715Y-79540100D01*
X122809001Y-79576386D01*
X122845286Y-79540100D01*
X122809001Y-79503814D01*
X122809001Y-79576386D01*
X123135572Y-80229529D02*
X123208143Y-80265814D01*
X123353286Y-80265814D01*
X123425858Y-80229529D01*
X123462143Y-80156957D01*
X123462143Y-80120671D01*
X123425858Y-80048100D01*
X123353286Y-80011814D01*
X123244429Y-80011814D01*
X123171858Y-79975529D01*
X123135572Y-79902957D01*
X123135572Y-79866671D01*
X123171858Y-79794100D01*
X123244429Y-79757814D01*
X123353286Y-79757814D01*
X123425858Y-79794100D01*
X123788715Y-79757814D02*
X123788715Y-80519814D01*
X123788715Y-79794100D02*
X123861286Y-79757814D01*
X124006429Y-79757814D01*
X124079000Y-79794100D01*
X124115286Y-79830386D01*
X124151572Y-79902957D01*
X124151572Y-80120671D01*
X124115286Y-80193243D01*
X124079000Y-80229529D01*
X124006429Y-80265814D01*
X123861286Y-80265814D01*
X123788715Y-80229529D01*
X124587001Y-80265814D02*
X124514429Y-80229529D01*
X124478144Y-80156957D01*
X124478144Y-79503814D01*
X125203858Y-80265814D02*
X125203858Y-79866671D01*
X125167572Y-79794100D01*
X125095001Y-79757814D01*
X124949858Y-79757814D01*
X124877287Y-79794100D01*
X125203858Y-80229529D02*
X125131287Y-80265814D01*
X124949858Y-80265814D01*
X124877287Y-80229529D01*
X124841001Y-80156957D01*
X124841001Y-80084386D01*
X124877287Y-80011814D01*
X124949858Y-79975529D01*
X125131287Y-79975529D01*
X125203858Y-79939243D01*
X125494144Y-79757814D02*
X125675573Y-80265814D01*
X125857001Y-79757814D02*
X125675573Y-80265814D01*
X125603001Y-80447243D01*
X125566716Y-80483529D01*
X125494144Y-80519814D01*
X126727858Y-80265814D02*
X126727858Y-79503814D01*
X126981858Y-80048100D01*
X127235858Y-79503814D01*
X127235858Y-80265814D01*
X127707572Y-80265814D02*
X127635000Y-80229529D01*
X127598715Y-80193243D01*
X127562429Y-80120671D01*
X127562429Y-79902957D01*
X127598715Y-79830386D01*
X127635000Y-79794100D01*
X127707572Y-79757814D01*
X127816429Y-79757814D01*
X127889000Y-79794100D01*
X127925286Y-79830386D01*
X127961572Y-79902957D01*
X127961572Y-80120671D01*
X127925286Y-80193243D01*
X127889000Y-80229529D01*
X127816429Y-80265814D01*
X127707572Y-80265814D01*
X128614715Y-80265814D02*
X128614715Y-79503814D01*
X128614715Y-80229529D02*
X128542144Y-80265814D01*
X128397001Y-80265814D01*
X128324429Y-80229529D01*
X128288144Y-80193243D01*
X128251858Y-80120671D01*
X128251858Y-79902957D01*
X128288144Y-79830386D01*
X128324429Y-79794100D01*
X128397001Y-79757814D01*
X128542144Y-79757814D01*
X128614715Y-79794100D01*
X129304144Y-79757814D02*
X129304144Y-80265814D01*
X128977573Y-79757814D02*
X128977573Y-80156957D01*
X129013858Y-80229529D01*
X129086430Y-80265814D01*
X129195287Y-80265814D01*
X129267858Y-80229529D01*
X129304144Y-80193243D01*
X129775859Y-80265814D02*
X129703287Y-80229529D01*
X129667002Y-80156957D01*
X129667002Y-79503814D01*
X130356430Y-80229529D02*
X130283859Y-80265814D01*
X130138716Y-80265814D01*
X130066145Y-80229529D01*
X130029859Y-80156957D01*
X130029859Y-79866671D01*
X130066145Y-79794100D01*
X130138716Y-79757814D01*
X130283859Y-79757814D01*
X130356430Y-79794100D01*
X130392716Y-79866671D01*
X130392716Y-79939243D01*
X130029859Y-80011814D01*
X131263573Y-79576386D02*
X131299859Y-79540100D01*
X131372430Y-79503814D01*
X131553859Y-79503814D01*
X131626430Y-79540100D01*
X131662716Y-79576386D01*
X131699001Y-79648957D01*
X131699001Y-79721529D01*
X131662716Y-79830386D01*
X131227287Y-80265814D01*
X131699001Y-80265814D01*
X132388430Y-80265814D02*
X132025573Y-80265814D01*
X132025573Y-79503814D01*
X132642430Y-80193243D02*
X132678715Y-80229529D01*
X132642430Y-80265814D01*
X132606144Y-80229529D01*
X132642430Y-80193243D01*
X132642430Y-80265814D01*
X133331858Y-79757814D02*
X133331858Y-80265814D01*
X133150429Y-79467529D02*
X132969001Y-80011814D01*
X133440715Y-80011814D01*
X118853857Y-81387043D02*
X118817571Y-81423329D01*
X118708714Y-81459614D01*
X118636143Y-81459614D01*
X118527286Y-81423329D01*
X118454714Y-81350757D01*
X118418429Y-81278186D01*
X118382143Y-81133043D01*
X118382143Y-81024186D01*
X118418429Y-80879043D01*
X118454714Y-80806471D01*
X118527286Y-80733900D01*
X118636143Y-80697614D01*
X118708714Y-80697614D01*
X118817571Y-80733900D01*
X118853857Y-80770186D01*
X119289286Y-81459614D02*
X119216714Y-81423329D01*
X119180429Y-81387043D01*
X119144143Y-81314471D01*
X119144143Y-81096757D01*
X119180429Y-81024186D01*
X119216714Y-80987900D01*
X119289286Y-80951614D01*
X119398143Y-80951614D01*
X119470714Y-80987900D01*
X119507000Y-81024186D01*
X119543286Y-81096757D01*
X119543286Y-81314471D01*
X119507000Y-81387043D01*
X119470714Y-81423329D01*
X119398143Y-81459614D01*
X119289286Y-81459614D01*
X119869858Y-80951614D02*
X119869858Y-81459614D01*
X119869858Y-81024186D02*
X119906143Y-80987900D01*
X119978715Y-80951614D01*
X120087572Y-80951614D01*
X120160143Y-80987900D01*
X120196429Y-81060471D01*
X120196429Y-81459614D01*
X120450429Y-80951614D02*
X120740715Y-80951614D01*
X120559287Y-80697614D02*
X120559287Y-81350757D01*
X120595572Y-81423329D01*
X120668144Y-81459614D01*
X120740715Y-81459614D01*
X120994716Y-81459614D02*
X120994716Y-80951614D01*
X120994716Y-81096757D02*
X121031001Y-81024186D01*
X121067287Y-80987900D01*
X121139858Y-80951614D01*
X121212430Y-80951614D01*
X121575287Y-81459614D02*
X121502715Y-81423329D01*
X121466430Y-81387043D01*
X121430144Y-81314471D01*
X121430144Y-81096757D01*
X121466430Y-81024186D01*
X121502715Y-80987900D01*
X121575287Y-80951614D01*
X121684144Y-80951614D01*
X121756715Y-80987900D01*
X121793001Y-81024186D01*
X121829287Y-81096757D01*
X121829287Y-81314471D01*
X121793001Y-81387043D01*
X121756715Y-81423329D01*
X121684144Y-81459614D01*
X121575287Y-81459614D01*
X122264716Y-81459614D02*
X122192144Y-81423329D01*
X122155859Y-81350757D01*
X122155859Y-80697614D01*
X123135573Y-81459614D02*
X123135573Y-80697614D01*
X123135573Y-80987900D02*
X123208144Y-80951614D01*
X123353287Y-80951614D01*
X123425858Y-80987900D01*
X123462144Y-81024186D01*
X123498430Y-81096757D01*
X123498430Y-81314471D01*
X123462144Y-81387043D01*
X123425858Y-81423329D01*
X123353287Y-81459614D01*
X123208144Y-81459614D01*
X123135573Y-81423329D01*
X123933859Y-81459614D02*
X123861287Y-81423329D01*
X123825002Y-81387043D01*
X123788716Y-81314471D01*
X123788716Y-81096757D01*
X123825002Y-81024186D01*
X123861287Y-80987900D01*
X123933859Y-80951614D01*
X124042716Y-80951614D01*
X124115287Y-80987900D01*
X124151573Y-81024186D01*
X124187859Y-81096757D01*
X124187859Y-81314471D01*
X124151573Y-81387043D01*
X124115287Y-81423329D01*
X124042716Y-81459614D01*
X123933859Y-81459614D01*
X124841002Y-81459614D02*
X124841002Y-81060471D01*
X124804716Y-80987900D01*
X124732145Y-80951614D01*
X124587002Y-80951614D01*
X124514431Y-80987900D01*
X124841002Y-81423329D02*
X124768431Y-81459614D01*
X124587002Y-81459614D01*
X124514431Y-81423329D01*
X124478145Y-81350757D01*
X124478145Y-81278186D01*
X124514431Y-81205614D01*
X124587002Y-81169329D01*
X124768431Y-81169329D01*
X124841002Y-81133043D01*
X125203860Y-81459614D02*
X125203860Y-80951614D01*
X125203860Y-81096757D02*
X125240145Y-81024186D01*
X125276431Y-80987900D01*
X125349002Y-80951614D01*
X125421574Y-80951614D01*
X126002145Y-81459614D02*
X126002145Y-80697614D01*
X126002145Y-81423329D02*
X125929574Y-81459614D01*
X125784431Y-81459614D01*
X125711859Y-81423329D01*
X125675574Y-81387043D01*
X125639288Y-81314471D01*
X125639288Y-81096757D01*
X125675574Y-81024186D01*
X125711859Y-80987900D01*
X125784431Y-80951614D01*
X125929574Y-80951614D01*
X126002145Y-80987900D01*
X162560001Y-82870524D02*
X162560001Y-83172905D01*
X162257620Y-83051952D02*
X162560001Y-83172905D01*
X162862381Y-83051952D01*
X162378572Y-83414810D02*
X162560001Y-83172905D01*
X162741429Y-83414810D01*
X144145002Y-98642714D02*
X144145002Y-97880714D01*
X144399002Y-98425000D01*
X144653002Y-97880714D01*
X144653002Y-98642714D01*
X145161001Y-97880714D02*
X145306144Y-97880714D01*
X145378716Y-97917000D01*
X145451287Y-97989571D01*
X145487573Y-98134714D01*
X145487573Y-98388714D01*
X145451287Y-98533857D01*
X145378716Y-98606429D01*
X145306144Y-98642714D01*
X145161001Y-98642714D01*
X145088430Y-98606429D01*
X145015859Y-98533857D01*
X144979573Y-98388714D01*
X144979573Y-98134714D01*
X145015859Y-97989571D01*
X145088430Y-97917000D01*
X145161001Y-97880714D01*
X145777859Y-98606429D02*
X145886716Y-98642714D01*
X146068145Y-98642714D01*
X146140716Y-98606429D01*
X146177002Y-98570143D01*
X146213287Y-98497571D01*
X146213287Y-98425000D01*
X146177002Y-98352429D01*
X146140716Y-98316143D01*
X146068145Y-98279857D01*
X145923002Y-98243571D01*
X145850430Y-98207286D01*
X145814145Y-98171000D01*
X145777859Y-98098429D01*
X145777859Y-98025857D01*
X145814145Y-97953286D01*
X145850430Y-97917000D01*
X145923002Y-97880714D01*
X146104430Y-97880714D01*
X146213287Y-97917000D01*
X146539859Y-98642714D02*
X146539859Y-97880714D01*
X147447001Y-98606429D02*
X147555858Y-98642714D01*
X147737287Y-98642714D01*
X147809858Y-98606429D01*
X147846144Y-98570143D01*
X147882429Y-98497571D01*
X147882429Y-98425000D01*
X147846144Y-98352429D01*
X147809858Y-98316143D01*
X147737287Y-98279857D01*
X147592144Y-98243571D01*
X147519572Y-98207286D01*
X147483287Y-98171000D01*
X147447001Y-98098429D01*
X147447001Y-98025857D01*
X147483287Y-97953286D01*
X147519572Y-97917000D01*
X147592144Y-97880714D01*
X147773572Y-97880714D01*
X147882429Y-97917000D01*
X148172715Y-98606429D02*
X148281572Y-98642714D01*
X148463001Y-98642714D01*
X148535572Y-98606429D01*
X148571858Y-98570143D01*
X148608143Y-98497571D01*
X148608143Y-98425000D01*
X148571858Y-98352429D01*
X148535572Y-98316143D01*
X148463001Y-98279857D01*
X148317858Y-98243571D01*
X148245286Y-98207286D01*
X148209001Y-98171000D01*
X148172715Y-98098429D01*
X148172715Y-98025857D01*
X148209001Y-97953286D01*
X148245286Y-97917000D01*
X148317858Y-97880714D01*
X148499286Y-97880714D01*
X148608143Y-97917000D01*
X147301858Y-97749360D02*
X148753286Y-97749360D01*
X149950714Y-98570143D02*
X149914428Y-98606429D01*
X149805571Y-98642714D01*
X149733000Y-98642714D01*
X149624143Y-98606429D01*
X149551571Y-98533857D01*
X149515286Y-98461286D01*
X149479000Y-98316143D01*
X149479000Y-98207286D01*
X149515286Y-98062143D01*
X149551571Y-97989571D01*
X149624143Y-97917000D01*
X149733000Y-97880714D01*
X149805571Y-97880714D01*
X149914428Y-97917000D01*
X149950714Y-97953286D01*
X150640143Y-98642714D02*
X150277286Y-98642714D01*
X150277286Y-97880714D01*
X150894143Y-98642714D02*
X150894143Y-97880714D01*
X151329571Y-98642714D02*
X151003000Y-98207286D01*
X151329571Y-97880714D02*
X150894143Y-98316143D01*
X152127856Y-97880714D02*
X152381856Y-98642714D01*
X152635856Y-97880714D01*
X153216428Y-98606429D02*
X153143857Y-98642714D01*
X152998714Y-98642714D01*
X152926142Y-98606429D01*
X152889857Y-98570143D01*
X152853571Y-98497571D01*
X152853571Y-98279857D01*
X152889857Y-98207286D01*
X152926142Y-98171000D01*
X152998714Y-98134714D01*
X153143857Y-98134714D01*
X153216428Y-98171000D01*
X153869571Y-98606429D02*
X153797000Y-98642714D01*
X153651857Y-98642714D01*
X153579285Y-98606429D01*
X153543000Y-98570143D01*
X153506714Y-98497571D01*
X153506714Y-98279857D01*
X153543000Y-98207286D01*
X153579285Y-98171000D01*
X153651857Y-98134714D01*
X153797000Y-98134714D01*
X153869571Y-98171000D01*
X155175856Y-97917000D02*
X155103285Y-97880714D01*
X154994428Y-97880714D01*
X154885571Y-97917000D01*
X154812999Y-97989571D01*
X154776714Y-98062143D01*
X154740428Y-98207286D01*
X154740428Y-98316143D01*
X154776714Y-98461286D01*
X154812999Y-98533857D01*
X154885571Y-98606429D01*
X154994428Y-98642714D01*
X155066999Y-98642714D01*
X155175856Y-98606429D01*
X155212142Y-98570143D01*
X155212142Y-98316143D01*
X155066999Y-98316143D01*
X155538714Y-98642714D02*
X155538714Y-97880714D01*
X155974142Y-98642714D01*
X155974142Y-97880714D01*
X156337000Y-98642714D02*
X156337000Y-97880714D01*
X156518428Y-97880714D01*
X156627285Y-97917000D01*
X156699857Y-97989571D01*
X156736142Y-98062143D01*
X156772428Y-98207286D01*
X156772428Y-98316143D01*
X156736142Y-98461286D01*
X156699857Y-98533857D01*
X156627285Y-98606429D01*
X156518428Y-98642714D01*
X156337000Y-98642714D01*
X158114999Y-98642714D02*
X157860999Y-98279857D01*
X157679571Y-98642714D02*
X157679571Y-97880714D01*
X157969856Y-97880714D01*
X158042428Y-97917000D01*
X158078713Y-97953286D01*
X158114999Y-98025857D01*
X158114999Y-98134714D01*
X158078713Y-98207286D01*
X158042428Y-98243571D01*
X157969856Y-98279857D01*
X157679571Y-98279857D01*
X158405285Y-98606429D02*
X158514142Y-98642714D01*
X158695571Y-98642714D01*
X158768142Y-98606429D01*
X158804428Y-98570143D01*
X158840713Y-98497571D01*
X158840713Y-98425000D01*
X158804428Y-98352429D01*
X158768142Y-98316143D01*
X158695571Y-98279857D01*
X158550428Y-98243571D01*
X158477856Y-98207286D01*
X158441571Y-98171000D01*
X158405285Y-98098429D01*
X158405285Y-98025857D01*
X158441571Y-97953286D01*
X158477856Y-97917000D01*
X158550428Y-97880714D01*
X158731856Y-97880714D01*
X158840713Y-97917000D01*
X159058427Y-97880714D02*
X159493856Y-97880714D01*
X159276142Y-98642714D02*
X159276142Y-97880714D01*
D13*
X128016000Y-85344000D02*
X125984000Y-85344000D01*
X125984000Y-85344000D02*
X125984000Y-84582000D01*
X125984000Y-84582000D02*
X128016000Y-84582000D01*
X128016000Y-84582000D02*
X128016000Y-85344000D01*
X128016000Y-90297000D02*
X125984000Y-90297000D01*
X125984000Y-90297000D02*
X125984000Y-89535000D01*
X125984000Y-89535000D02*
X128016000Y-89535000D01*
X128016000Y-89535000D02*
X128016000Y-90297000D01*
X127889000Y-95631000D02*
X125857000Y-95631000D01*
X125857000Y-95631000D02*
X125857000Y-94869000D01*
X125857000Y-94869000D02*
X127889000Y-94869000D01*
X127889000Y-94869000D02*
X127889000Y-95631000D01*
X164959000Y-93761000D02*
X164959000Y-94961000D01*
X163209000Y-94961000D02*
X163209000Y-93761000D01*
X159625000Y-56550000D02*
X159625000Y-57750000D01*
X157875000Y-57750000D02*
X157875000Y-56550000D01*
X159625000Y-51343000D02*
X159625000Y-52543000D01*
X157875000Y-52543000D02*
X157875000Y-51343000D01*
X133950000Y-84695000D02*
X132750000Y-84695000D01*
X132750000Y-82945000D02*
X133950000Y-82945000D01*
X133950000Y-87235000D02*
X132750000Y-87235000D01*
X132750000Y-85485000D02*
X133950000Y-85485000D01*
X133950000Y-89775000D02*
X132750000Y-89775000D01*
X132750000Y-88025000D02*
X133950000Y-88025000D01*
X133950000Y-92315000D02*
X132750000Y-92315000D01*
X132750000Y-90565000D02*
X133950000Y-90565000D01*
X138141000Y-96760000D02*
X136941000Y-96760000D01*
X136941000Y-95010000D02*
X138141000Y-95010000D01*
X134098000Y-95285000D02*
X134098000Y-96485000D01*
X132348000Y-96485000D02*
X132348000Y-95285000D01*
X188757000Y-84596000D02*
X189957000Y-84596000D01*
X189957000Y-86346000D02*
X188757000Y-86346000D01*
X194345000Y-86120000D02*
X195545000Y-86120000D01*
X195545000Y-87870000D02*
X194345000Y-87870000D01*
X188630000Y-88152000D02*
X189830000Y-88152000D01*
X189830000Y-89902000D02*
X188630000Y-89902000D01*
X188630000Y-90565000D02*
X189830000Y-90565000D01*
X189830000Y-92315000D02*
X188630000Y-92315000D01*
X185455000Y-93740000D02*
X186655000Y-93740000D01*
X186655000Y-95490000D02*
X185455000Y-95490000D01*
X188503000Y-81167000D02*
X189703000Y-81167000D01*
X189703000Y-82917000D02*
X188503000Y-82917000D01*
X194218000Y-81167000D02*
X195418000Y-81167000D01*
X195418000Y-82917000D02*
X194218000Y-82917000D01*
X148082000Y-87630000D02*
X147320000Y-87630000D01*
X147320000Y-87630000D02*
X147320000Y-86487000D01*
X147320000Y-86487000D02*
X148082000Y-86487000D01*
X148082000Y-89154000D02*
X137922000Y-89154000D01*
X137922000Y-89154000D02*
X137922000Y-85090000D01*
X137922000Y-85090000D02*
X148082000Y-85090000D01*
X148082000Y-85090000D02*
X148082000Y-89154000D01*
X172593000Y-86741000D02*
X173355000Y-86741000D01*
X173355000Y-86741000D02*
X173355000Y-87884000D01*
X173355000Y-87884000D02*
X172593000Y-87884000D01*
X172593000Y-85217000D02*
X182753000Y-85217000D01*
X182753000Y-85217000D02*
X182753000Y-89281000D01*
X182753000Y-89281000D02*
X172593000Y-89281000D01*
X172593000Y-89281000D02*
X172593000Y-85217000D01*
X170942000Y-92329000D02*
X165862000Y-92329000D01*
X173762000Y-92049000D02*
X173762000Y-93599000D01*
X173482000Y-94869000D02*
X170942000Y-94869000D01*
X170942000Y-94869000D02*
X170942000Y-92329000D01*
X165862000Y-92329000D02*
X165862000Y-97409000D01*
X165862000Y-97409000D02*
X170942000Y-97409000D01*
X173762000Y-92049000D02*
X172212000Y-92049000D01*
X173482000Y-97409000D02*
X173482000Y-94869000D01*
X170942000Y-97409000D02*
X173482000Y-97409000D01*
X120650000Y-46990000D02*
X120650000Y-59690000D01*
X120650000Y-59690000D02*
X118110000Y-59690000D01*
X118110000Y-59690000D02*
X118110000Y-46990000D01*
X120930000Y-44170000D02*
X120930000Y-45720000D01*
X120650000Y-46990000D02*
X118110000Y-46990000D01*
X117830000Y-45720000D02*
X117830000Y-44170000D01*
X117830000Y-44170000D02*
X120930000Y-44170000D01*
X203200000Y-46990000D02*
X203200000Y-62230000D01*
X203200000Y-62230000D02*
X200660000Y-62230000D01*
X200660000Y-62230000D02*
X200660000Y-46990000D01*
X203480000Y-44170000D02*
X203480000Y-45720000D01*
X203200000Y-46990000D02*
X200660000Y-46990000D01*
X200380000Y-45720000D02*
X200380000Y-44170000D01*
X200380000Y-44170000D02*
X203480000Y-44170000D01*
X161867000Y-83116000D02*
X161567000Y-83116000D01*
X161867000Y-90366000D02*
X161567000Y-90366000D01*
X154617000Y-90366000D02*
X154917000Y-90366000D01*
X154617000Y-83116000D02*
X154917000Y-83116000D01*
X161867000Y-83116000D02*
X161867000Y-83416000D01*
X154617000Y-83116000D02*
X154617000Y-83416000D01*
X154617000Y-90366000D02*
X154617000Y-90066000D01*
X161867000Y-90366000D02*
X161867000Y-90066000D01*
X161567000Y-83116000D02*
X161567000Y-81891000D01*
D10*
G36*
X171198378Y-81298418D02*
X171196238Y-81892076D01*
X171196000Y-82076945D01*
X171194032Y-82717217D01*
X171187365Y-83207453D01*
X171174856Y-83566914D01*
X171155361Y-83814861D01*
X171127735Y-83970554D01*
X171090835Y-84053252D01*
X171077831Y-84066670D01*
X170910596Y-84138142D01*
X170772667Y-84168474D01*
X170772667Y-83714748D01*
X170772667Y-82121371D01*
X170768611Y-81600909D01*
X170757250Y-81151332D01*
X170739795Y-80797665D01*
X170717453Y-80564937D01*
X170693275Y-80478926D01*
X170581827Y-80448092D01*
X170339552Y-80401619D01*
X170003493Y-80346095D01*
X169656108Y-80294485D01*
X169027640Y-80232536D01*
X168300051Y-80204245D01*
X167530137Y-80208497D01*
X166774692Y-80244179D01*
X166090514Y-80310176D01*
X165692667Y-80372237D01*
X165142333Y-80476859D01*
X165119366Y-82098143D01*
X165096399Y-83719426D01*
X165669699Y-83810198D01*
X166005613Y-83862928D01*
X166310424Y-83910002D01*
X166497000Y-83938091D01*
X166737169Y-83955739D01*
X167108525Y-83962161D01*
X167573383Y-83958617D01*
X168094057Y-83946364D01*
X168632862Y-83926660D01*
X169152112Y-83900761D01*
X169614122Y-83869926D01*
X169981206Y-83835412D01*
X170116500Y-83817306D01*
X170772667Y-83714748D01*
X170772667Y-84168474D01*
X170601275Y-84206166D01*
X170177113Y-84268037D01*
X169665356Y-84321051D01*
X169093249Y-84362504D01*
X168488039Y-84389692D01*
X167876969Y-84399910D01*
X167724667Y-84399483D01*
X167239669Y-84394260D01*
X166800889Y-84386201D01*
X166442154Y-84376183D01*
X166197292Y-84365080D01*
X166116000Y-84357816D01*
X165609428Y-84274236D01*
X165201639Y-84191708D01*
X164916462Y-84115632D01*
X164782500Y-84055674D01*
X164745465Y-83977849D01*
X164717306Y-83802790D01*
X164697198Y-83515075D01*
X164684317Y-83099284D01*
X164677837Y-82539996D01*
X164676667Y-82076945D01*
X164677618Y-81460599D01*
X164681577Y-80992164D01*
X164690200Y-80650224D01*
X164705144Y-80413362D01*
X164728066Y-80260160D01*
X164760622Y-80169203D01*
X164804468Y-80119073D01*
X164829312Y-80103597D01*
X165095200Y-80010179D01*
X165500761Y-79930175D01*
X166016773Y-79864830D01*
X166614015Y-79815389D01*
X167263264Y-79783099D01*
X167935298Y-79769204D01*
X168600896Y-79774950D01*
X169230834Y-79801582D01*
X169795891Y-79850346D01*
X170034193Y-79881783D01*
X170399658Y-79933423D01*
X170679762Y-79978352D01*
X170885766Y-80037847D01*
X171028929Y-80133182D01*
X171120512Y-80285632D01*
X171171775Y-80516471D01*
X171193977Y-80846975D01*
X171198378Y-81298418D01*
X171198378Y-81298418D01*
X171198378Y-81298418D01*
G37*
X171198378Y-81298418D02*
X171196238Y-81892076D01*
X171196000Y-82076945D01*
X171194032Y-82717217D01*
X171187365Y-83207453D01*
X171174856Y-83566914D01*
X171155361Y-83814861D01*
X171127735Y-83970554D01*
X171090835Y-84053252D01*
X171077831Y-84066670D01*
X170910596Y-84138142D01*
X170772667Y-84168474D01*
X170772667Y-83714748D01*
X170772667Y-82121371D01*
X170768611Y-81600909D01*
X170757250Y-81151332D01*
X170739795Y-80797665D01*
X170717453Y-80564937D01*
X170693275Y-80478926D01*
X170581827Y-80448092D01*
X170339552Y-80401619D01*
X170003493Y-80346095D01*
X169656108Y-80294485D01*
X169027640Y-80232536D01*
X168300051Y-80204245D01*
X167530137Y-80208497D01*
X166774692Y-80244179D01*
X166090514Y-80310176D01*
X165692667Y-80372237D01*
X165142333Y-80476859D01*
X165119366Y-82098143D01*
X165096399Y-83719426D01*
X165669699Y-83810198D01*
X166005613Y-83862928D01*
X166310424Y-83910002D01*
X166497000Y-83938091D01*
X166737169Y-83955739D01*
X167108525Y-83962161D01*
X167573383Y-83958617D01*
X168094057Y-83946364D01*
X168632862Y-83926660D01*
X169152112Y-83900761D01*
X169614122Y-83869926D01*
X169981206Y-83835412D01*
X170116500Y-83817306D01*
X170772667Y-83714748D01*
X170772667Y-84168474D01*
X170601275Y-84206166D01*
X170177113Y-84268037D01*
X169665356Y-84321051D01*
X169093249Y-84362504D01*
X168488039Y-84389692D01*
X167876969Y-84399910D01*
X167724667Y-84399483D01*
X167239669Y-84394260D01*
X166800889Y-84386201D01*
X166442154Y-84376183D01*
X166197292Y-84365080D01*
X166116000Y-84357816D01*
X165609428Y-84274236D01*
X165201639Y-84191708D01*
X164916462Y-84115632D01*
X164782500Y-84055674D01*
X164745465Y-83977849D01*
X164717306Y-83802790D01*
X164697198Y-83515075D01*
X164684317Y-83099284D01*
X164677837Y-82539996D01*
X164676667Y-82076945D01*
X164677618Y-81460599D01*
X164681577Y-80992164D01*
X164690200Y-80650224D01*
X164705144Y-80413362D01*
X164728066Y-80260160D01*
X164760622Y-80169203D01*
X164804468Y-80119073D01*
X164829312Y-80103597D01*
X165095200Y-80010179D01*
X165500761Y-79930175D01*
X166016773Y-79864830D01*
X166614015Y-79815389D01*
X167263264Y-79783099D01*
X167935298Y-79769204D01*
X168600896Y-79774950D01*
X169230834Y-79801582D01*
X169795891Y-79850346D01*
X170034193Y-79881783D01*
X170399658Y-79933423D01*
X170679762Y-79978352D01*
X170885766Y-80037847D01*
X171028929Y-80133182D01*
X171120512Y-80285632D01*
X171171775Y-80516471D01*
X171193977Y-80846975D01*
X171198378Y-81298418D01*
X171198378Y-81298418D01*
G36*
X168236670Y-82443396D02*
X168189189Y-82826950D01*
X168024447Y-83176481D01*
X167750161Y-83445811D01*
X167608903Y-83519168D01*
X167420567Y-83569105D01*
X167149715Y-83600878D01*
X166760911Y-83619742D01*
X166539333Y-83625393D01*
X166142939Y-83629691D01*
X165804647Y-83625729D01*
X165562870Y-83614450D01*
X165459833Y-83598953D01*
X165370971Y-83481885D01*
X165362884Y-83303760D01*
X165430694Y-83149596D01*
X165487925Y-83109391D01*
X165626727Y-83087378D01*
X165890799Y-83070077D01*
X166236093Y-83059813D01*
X166461591Y-83058000D01*
X166943135Y-83042429D01*
X167279671Y-82988481D01*
X167493272Y-82885299D01*
X167606013Y-82722028D01*
X167639967Y-82487811D01*
X167640000Y-82478455D01*
X167573502Y-82214492D01*
X167368858Y-82027644D01*
X167018342Y-81912320D01*
X166816924Y-81882904D01*
X166541361Y-81847063D01*
X166394693Y-81801056D01*
X166336873Y-81723255D01*
X166327667Y-81618666D01*
X166338631Y-81504268D01*
X166396964Y-81437955D01*
X166540824Y-81403166D01*
X166808369Y-81383341D01*
X166878000Y-81379817D01*
X167294280Y-81383844D01*
X167593980Y-81448245D01*
X167688279Y-81490786D01*
X167984942Y-81735094D01*
X168168163Y-82066037D01*
X168236670Y-82443396D01*
X168236670Y-82443396D01*
X168236670Y-82443396D01*
G37*
X168236670Y-82443396D02*
X168189189Y-82826950D01*
X168024447Y-83176481D01*
X167750161Y-83445811D01*
X167608903Y-83519168D01*
X167420567Y-83569105D01*
X167149715Y-83600878D01*
X166760911Y-83619742D01*
X166539333Y-83625393D01*
X166142939Y-83629691D01*
X165804647Y-83625729D01*
X165562870Y-83614450D01*
X165459833Y-83598953D01*
X165370971Y-83481885D01*
X165362884Y-83303760D01*
X165430694Y-83149596D01*
X165487925Y-83109391D01*
X165626727Y-83087378D01*
X165890799Y-83070077D01*
X166236093Y-83059813D01*
X166461591Y-83058000D01*
X166943135Y-83042429D01*
X167279671Y-82988481D01*
X167493272Y-82885299D01*
X167606013Y-82722028D01*
X167639967Y-82487811D01*
X167640000Y-82478455D01*
X167573502Y-82214492D01*
X167368858Y-82027644D01*
X167018342Y-81912320D01*
X166816924Y-81882904D01*
X166541361Y-81847063D01*
X166394693Y-81801056D01*
X166336873Y-81723255D01*
X166327667Y-81618666D01*
X166338631Y-81504268D01*
X166396964Y-81437955D01*
X166540824Y-81403166D01*
X166808369Y-81383341D01*
X166878000Y-81379817D01*
X167294280Y-81383844D01*
X167593980Y-81448245D01*
X167688279Y-81490786D01*
X167984942Y-81735094D01*
X168168163Y-82066037D01*
X168236670Y-82443396D01*
X168236670Y-82443396D01*
G36*
X170433068Y-82534399D02*
X170413138Y-83057157D01*
X170352339Y-83420069D01*
X170251294Y-83621846D01*
X170110624Y-83661203D01*
X169942933Y-83549066D01*
X169889682Y-83403488D01*
X169855686Y-83096882D01*
X169841676Y-82636537D01*
X169841333Y-82537050D01*
X169832764Y-82139735D01*
X169809630Y-81787407D01*
X169775790Y-81525877D01*
X169747241Y-81420124D01*
X169603675Y-81250654D01*
X169369328Y-81103565D01*
X169323908Y-81084284D01*
X169102838Y-80973786D01*
X169008007Y-80847972D01*
X168994667Y-80742685D01*
X169058639Y-80566243D01*
X169226569Y-80482667D01*
X169462475Y-80489481D01*
X169730374Y-80584205D01*
X169994284Y-80764361D01*
X170048278Y-80815255D01*
X170199560Y-80991985D01*
X170306216Y-81191797D01*
X170375517Y-81447186D01*
X170414737Y-81790649D01*
X170431149Y-82254682D01*
X170433068Y-82534399D01*
X170433068Y-82534399D01*
X170433068Y-82534399D01*
G37*
X170433068Y-82534399D02*
X170413138Y-83057157D01*
X170352339Y-83420069D01*
X170251294Y-83621846D01*
X170110624Y-83661203D01*
X169942933Y-83549066D01*
X169889682Y-83403488D01*
X169855686Y-83096882D01*
X169841676Y-82636537D01*
X169841333Y-82537050D01*
X169832764Y-82139735D01*
X169809630Y-81787407D01*
X169775790Y-81525877D01*
X169747241Y-81420124D01*
X169603675Y-81250654D01*
X169369328Y-81103565D01*
X169323908Y-81084284D01*
X169102838Y-80973786D01*
X169008007Y-80847972D01*
X168994667Y-80742685D01*
X169058639Y-80566243D01*
X169226569Y-80482667D01*
X169462475Y-80489481D01*
X169730374Y-80584205D01*
X169994284Y-80764361D01*
X170048278Y-80815255D01*
X170199560Y-80991985D01*
X170306216Y-81191797D01*
X170375517Y-81447186D01*
X170414737Y-81790649D01*
X170431149Y-82254682D01*
X170433068Y-82534399D01*
X170433068Y-82534399D01*
G36*
X169089199Y-82168520D02*
X169065174Y-82465519D01*
X169013217Y-82675327D01*
X168952333Y-82749951D01*
X168760305Y-82780023D01*
X168639857Y-82683621D01*
X168581111Y-82446874D01*
X168571333Y-82214909D01*
X168536254Y-81719412D01*
X168428985Y-81369937D01*
X168246479Y-81157931D01*
X168182135Y-81122336D01*
X168004694Y-81079401D01*
X167709586Y-81046319D01*
X167348408Y-81028058D01*
X167181767Y-81026000D01*
X166790142Y-81031548D01*
X166525346Y-81053080D01*
X166345098Y-81097927D01*
X166207114Y-81173422D01*
X166169751Y-81201478D01*
X165990754Y-81430739D01*
X165953202Y-81693950D01*
X166060386Y-81940950D01*
X166117312Y-82000854D01*
X166340206Y-82115454D01*
X166689642Y-82186508D01*
X166773479Y-82194644D01*
X167137848Y-82251077D01*
X167338648Y-82348606D01*
X167376808Y-82488155D01*
X167253257Y-82670647D01*
X167252952Y-82670952D01*
X167055853Y-82768949D01*
X166733223Y-82786715D01*
X166273121Y-82724860D01*
X166256751Y-82721719D01*
X165877002Y-82575080D01*
X165598556Y-82323501D01*
X165425496Y-82000686D01*
X165361901Y-81640335D01*
X165411854Y-81276151D01*
X165579435Y-80941837D01*
X165868726Y-80671094D01*
X165999528Y-80597569D01*
X166182860Y-80518187D01*
X166366289Y-80467824D01*
X166591337Y-80441875D01*
X166899528Y-80435734D01*
X167332384Y-80444796D01*
X167367491Y-80445852D01*
X167860486Y-80468266D01*
X168218435Y-80508823D01*
X168475523Y-80579716D01*
X168665932Y-80693137D01*
X168823845Y-80861277D01*
X168921625Y-81000171D01*
X169001505Y-81200154D01*
X169056582Y-81491259D01*
X169086074Y-81828907D01*
X169089199Y-82168520D01*
X169089199Y-82168520D01*
X169089199Y-82168520D01*
G37*
X169089199Y-82168520D02*
X169065174Y-82465519D01*
X169013217Y-82675327D01*
X168952333Y-82749951D01*
X168760305Y-82780023D01*
X168639857Y-82683621D01*
X168581111Y-82446874D01*
X168571333Y-82214909D01*
X168536254Y-81719412D01*
X168428985Y-81369937D01*
X168246479Y-81157931D01*
X168182135Y-81122336D01*
X168004694Y-81079401D01*
X167709586Y-81046319D01*
X167348408Y-81028058D01*
X167181767Y-81026000D01*
X166790142Y-81031548D01*
X166525346Y-81053080D01*
X166345098Y-81097927D01*
X166207114Y-81173422D01*
X166169751Y-81201478D01*
X165990754Y-81430739D01*
X165953202Y-81693950D01*
X166060386Y-81940950D01*
X166117312Y-82000854D01*
X166340206Y-82115454D01*
X166689642Y-82186508D01*
X166773479Y-82194644D01*
X167137848Y-82251077D01*
X167338648Y-82348606D01*
X167376808Y-82488155D01*
X167253257Y-82670647D01*
X167252952Y-82670952D01*
X167055853Y-82768949D01*
X166733223Y-82786715D01*
X166273121Y-82724860D01*
X166256751Y-82721719D01*
X165877002Y-82575080D01*
X165598556Y-82323501D01*
X165425496Y-82000686D01*
X165361901Y-81640335D01*
X165411854Y-81276151D01*
X165579435Y-80941837D01*
X165868726Y-80671094D01*
X165999528Y-80597569D01*
X166182860Y-80518187D01*
X166366289Y-80467824D01*
X166591337Y-80441875D01*
X166899528Y-80435734D01*
X167332384Y-80444796D01*
X167367491Y-80445852D01*
X167860486Y-80468266D01*
X168218435Y-80508823D01*
X168475523Y-80579716D01*
X168665932Y-80693137D01*
X168823845Y-80861277D01*
X168921625Y-81000171D01*
X169001505Y-81200154D01*
X169056582Y-81491259D01*
X169086074Y-81828907D01*
X169089199Y-82168520D01*
X169089199Y-82168520D01*
D13*
X150354000Y-90840000D02*
X150354000Y-92040000D01*
X148604000Y-92040000D02*
X148604000Y-90840000D01*
X152513000Y-90840000D02*
X152513000Y-92040000D01*
X150763000Y-92040000D02*
X150763000Y-90840000D01*
X154905000Y-94220000D02*
X153705000Y-94220000D01*
X153705000Y-92470000D02*
X154905000Y-92470000D01*
X158869000Y-79414000D02*
X157869000Y-79414000D01*
X157869000Y-81114000D02*
X158869000Y-81114000D01*
X146812000Y-94869000D02*
X159512000Y-94869000D01*
X159512000Y-94869000D02*
X159512000Y-97409000D01*
X159512000Y-97409000D02*
X146812000Y-97409000D01*
X143992000Y-94589000D02*
X145542000Y-94589000D01*
X146812000Y-94869000D02*
X146812000Y-97409000D01*
X145542000Y-97689000D02*
X143992000Y-97689000D01*
X143992000Y-97689000D02*
X143992000Y-94589000D01*
X177089000Y-92604000D02*
X174289000Y-92604000D01*
X174289000Y-92604000D02*
X174289000Y-94604000D01*
X178689000Y-97404000D02*
X178689000Y-96404000D01*
X178689000Y-93604000D02*
X178689000Y-94704000D01*
X176989000Y-97404000D02*
X180389000Y-97404000D01*
X176889000Y-93604000D02*
X180489000Y-93604000D01*
X161763000Y-94093000D02*
X160563000Y-94093000D01*
X160563000Y-92343000D02*
X161763000Y-92343000D01*
D12*
X126328715Y-87412286D02*
X126256143Y-87376000D01*
X126183572Y-87303429D01*
X126074715Y-87194571D01*
X126002143Y-87158286D01*
X125929572Y-87158286D01*
X125965857Y-87339714D02*
X125893286Y-87303429D01*
X125820715Y-87230857D01*
X125784429Y-87085714D01*
X125784429Y-86831714D01*
X125820715Y-86686571D01*
X125893286Y-86614000D01*
X125965857Y-86577714D01*
X126111000Y-86577714D01*
X126183572Y-86614000D01*
X126256143Y-86686571D01*
X126292429Y-86831714D01*
X126292429Y-87085714D01*
X126256143Y-87230857D01*
X126183572Y-87303429D01*
X126111000Y-87339714D01*
X125965857Y-87339714D01*
X126582715Y-86650286D02*
X126619001Y-86614000D01*
X126691572Y-86577714D01*
X126873001Y-86577714D01*
X126945572Y-86614000D01*
X126981858Y-86650286D01*
X127018143Y-86722857D01*
X127018143Y-86795429D01*
X126981858Y-86904286D01*
X126546429Y-87339714D01*
X127018143Y-87339714D01*
X127489857Y-86577714D02*
X127562429Y-86577714D01*
X127635000Y-86614000D01*
X127671286Y-86650286D01*
X127707572Y-86722857D01*
X127743857Y-86868000D01*
X127743857Y-87049429D01*
X127707572Y-87194571D01*
X127671286Y-87267143D01*
X127635000Y-87303429D01*
X127562429Y-87339714D01*
X127489857Y-87339714D01*
X127417286Y-87303429D01*
X127381000Y-87267143D01*
X127344715Y-87194571D01*
X127308429Y-87049429D01*
X127308429Y-86868000D01*
X127344715Y-86722857D01*
X127381000Y-86650286D01*
X127417286Y-86614000D01*
X127489857Y-86577714D01*
X128469571Y-87339714D02*
X128034143Y-87339714D01*
X128251857Y-87339714D02*
X128251857Y-86577714D01*
X128179286Y-86686571D01*
X128106714Y-86759143D01*
X128034143Y-86795429D01*
X128397001Y-83275714D02*
X128397001Y-83457143D01*
X128215572Y-83384571D02*
X128397001Y-83457143D01*
X128578429Y-83384571D01*
X128288144Y-83602286D02*
X128397001Y-83457143D01*
X128505858Y-83602286D01*
X126328715Y-92365286D02*
X126256143Y-92329000D01*
X126183572Y-92256429D01*
X126074715Y-92147571D01*
X126002143Y-92111286D01*
X125929572Y-92111286D01*
X125965857Y-92292714D02*
X125893286Y-92256429D01*
X125820715Y-92183857D01*
X125784429Y-92038714D01*
X125784429Y-91784714D01*
X125820715Y-91639571D01*
X125893286Y-91567000D01*
X125965857Y-91530714D01*
X126111000Y-91530714D01*
X126183572Y-91567000D01*
X126256143Y-91639571D01*
X126292429Y-91784714D01*
X126292429Y-92038714D01*
X126256143Y-92183857D01*
X126183572Y-92256429D01*
X126111000Y-92292714D01*
X125965857Y-92292714D01*
X126582715Y-91603286D02*
X126619001Y-91567000D01*
X126691572Y-91530714D01*
X126873001Y-91530714D01*
X126945572Y-91567000D01*
X126981858Y-91603286D01*
X127018143Y-91675857D01*
X127018143Y-91748429D01*
X126981858Y-91857286D01*
X126546429Y-92292714D01*
X127018143Y-92292714D01*
X127489857Y-91530714D02*
X127562429Y-91530714D01*
X127635000Y-91567000D01*
X127671286Y-91603286D01*
X127707572Y-91675857D01*
X127743857Y-91821000D01*
X127743857Y-92002429D01*
X127707572Y-92147571D01*
X127671286Y-92220143D01*
X127635000Y-92256429D01*
X127562429Y-92292714D01*
X127489857Y-92292714D01*
X127417286Y-92256429D01*
X127381000Y-92220143D01*
X127344715Y-92147571D01*
X127308429Y-92002429D01*
X127308429Y-91821000D01*
X127344715Y-91675857D01*
X127381000Y-91603286D01*
X127417286Y-91567000D01*
X127489857Y-91530714D01*
X128034143Y-91603286D02*
X128070429Y-91567000D01*
X128143000Y-91530714D01*
X128324429Y-91530714D01*
X128397000Y-91567000D01*
X128433286Y-91603286D01*
X128469571Y-91675857D01*
X128469571Y-91748429D01*
X128433286Y-91857286D01*
X127997857Y-92292714D01*
X128469571Y-92292714D01*
X128397001Y-88228714D02*
X128397001Y-88410143D01*
X128215572Y-88337571D02*
X128397001Y-88410143D01*
X128578429Y-88337571D01*
X128288144Y-88555286D02*
X128397001Y-88410143D01*
X128505858Y-88555286D01*
X125947715Y-97699286D02*
X125875143Y-97663000D01*
X125802572Y-97590429D01*
X125693715Y-97481571D01*
X125621143Y-97445286D01*
X125548572Y-97445286D01*
X125584857Y-97626714D02*
X125512286Y-97590429D01*
X125439715Y-97517857D01*
X125403429Y-97372714D01*
X125403429Y-97118714D01*
X125439715Y-96973571D01*
X125512286Y-96901000D01*
X125584857Y-96864714D01*
X125730000Y-96864714D01*
X125802572Y-96901000D01*
X125875143Y-96973571D01*
X125911429Y-97118714D01*
X125911429Y-97372714D01*
X125875143Y-97517857D01*
X125802572Y-97590429D01*
X125730000Y-97626714D01*
X125584857Y-97626714D01*
X126201715Y-96937286D02*
X126238001Y-96901000D01*
X126310572Y-96864714D01*
X126492001Y-96864714D01*
X126564572Y-96901000D01*
X126600858Y-96937286D01*
X126637143Y-97009857D01*
X126637143Y-97082429D01*
X126600858Y-97191286D01*
X126165429Y-97626714D01*
X126637143Y-97626714D01*
X127108857Y-96864714D02*
X127181429Y-96864714D01*
X127254000Y-96901000D01*
X127290286Y-96937286D01*
X127326572Y-97009857D01*
X127362857Y-97155000D01*
X127362857Y-97336429D01*
X127326572Y-97481571D01*
X127290286Y-97554143D01*
X127254000Y-97590429D01*
X127181429Y-97626714D01*
X127108857Y-97626714D01*
X127036286Y-97590429D01*
X127000000Y-97554143D01*
X126963715Y-97481571D01*
X126927429Y-97336429D01*
X126927429Y-97155000D01*
X126963715Y-97009857D01*
X127000000Y-96937286D01*
X127036286Y-96901000D01*
X127108857Y-96864714D01*
X127616857Y-96864714D02*
X128088571Y-96864714D01*
X127834571Y-97155000D01*
X127943429Y-97155000D01*
X128016000Y-97191286D01*
X128052286Y-97227571D01*
X128088571Y-97300143D01*
X128088571Y-97481571D01*
X128052286Y-97554143D01*
X128016000Y-97590429D01*
X127943429Y-97626714D01*
X127725714Y-97626714D01*
X127653143Y-97590429D01*
X127616857Y-97554143D01*
X128270001Y-93562714D02*
X128270001Y-93744143D01*
X128088572Y-93671571D02*
X128270001Y-93744143D01*
X128451429Y-93671571D01*
X128161144Y-93889286D02*
X128270001Y-93744143D01*
X128378858Y-93889286D01*
X165063714Y-91022714D02*
X164700857Y-91276714D01*
X165063714Y-91458142D02*
X164301714Y-91458142D01*
X164301714Y-91167857D01*
X164338000Y-91095285D01*
X164374286Y-91059000D01*
X164446857Y-91022714D01*
X164555714Y-91022714D01*
X164628286Y-91059000D01*
X164664571Y-91095285D01*
X164700857Y-91167857D01*
X164700857Y-91458142D01*
X165063714Y-90297000D02*
X165063714Y-90732428D01*
X165063714Y-90514714D02*
X164301714Y-90514714D01*
X164410571Y-90587285D01*
X164483143Y-90659857D01*
X164519429Y-90732428D01*
X164301714Y-89825286D02*
X164301714Y-89752714D01*
X164338000Y-89680143D01*
X164374286Y-89643857D01*
X164446857Y-89607571D01*
X164592000Y-89571286D01*
X164773429Y-89571286D01*
X164918571Y-89607571D01*
X164991143Y-89643857D01*
X165027429Y-89680143D01*
X165063714Y-89752714D01*
X165063714Y-89825286D01*
X165027429Y-89897857D01*
X164991143Y-89934143D01*
X164918571Y-89970428D01*
X164773429Y-90006714D01*
X164592000Y-90006714D01*
X164446857Y-89970428D01*
X164374286Y-89934143D01*
X164338000Y-89897857D01*
X164301714Y-89825286D01*
X165063714Y-88845572D02*
X165063714Y-89281000D01*
X165063714Y-89063286D02*
X164301714Y-89063286D01*
X164410571Y-89135857D01*
X164483143Y-89208429D01*
X164519429Y-89281000D01*
X156994714Y-58002714D02*
X156631857Y-58256714D01*
X156994714Y-58438142D02*
X156232714Y-58438142D01*
X156232714Y-58147857D01*
X156269000Y-58075285D01*
X156305286Y-58039000D01*
X156377857Y-58002714D01*
X156486714Y-58002714D01*
X156559286Y-58039000D01*
X156595571Y-58075285D01*
X156631857Y-58147857D01*
X156631857Y-58438142D01*
X156305286Y-57712428D02*
X156269000Y-57676142D01*
X156232714Y-57603571D01*
X156232714Y-57422142D01*
X156269000Y-57349571D01*
X156305286Y-57313285D01*
X156377857Y-57277000D01*
X156450429Y-57277000D01*
X156559286Y-57313285D01*
X156994714Y-57748714D01*
X156994714Y-57277000D01*
X156232714Y-56805286D02*
X156232714Y-56732714D01*
X156269000Y-56660143D01*
X156305286Y-56623857D01*
X156377857Y-56587571D01*
X156523000Y-56551286D01*
X156704429Y-56551286D01*
X156849571Y-56587571D01*
X156922143Y-56623857D01*
X156958429Y-56660143D01*
X156994714Y-56732714D01*
X156994714Y-56805286D01*
X156958429Y-56877857D01*
X156922143Y-56914143D01*
X156849571Y-56950428D01*
X156704429Y-56986714D01*
X156523000Y-56986714D01*
X156377857Y-56950428D01*
X156305286Y-56914143D01*
X156269000Y-56877857D01*
X156232714Y-56805286D01*
X156994714Y-55825572D02*
X156994714Y-56261000D01*
X156994714Y-56043286D02*
X156232714Y-56043286D01*
X156341571Y-56115857D01*
X156414143Y-56188429D01*
X156450429Y-56261000D01*
X156994714Y-52795714D02*
X156631857Y-53049714D01*
X156994714Y-53231142D02*
X156232714Y-53231142D01*
X156232714Y-52940857D01*
X156269000Y-52868285D01*
X156305286Y-52832000D01*
X156377857Y-52795714D01*
X156486714Y-52795714D01*
X156559286Y-52832000D01*
X156595571Y-52868285D01*
X156631857Y-52940857D01*
X156631857Y-53231142D01*
X156305286Y-52505428D02*
X156269000Y-52469142D01*
X156232714Y-52396571D01*
X156232714Y-52215142D01*
X156269000Y-52142571D01*
X156305286Y-52106285D01*
X156377857Y-52070000D01*
X156450429Y-52070000D01*
X156559286Y-52106285D01*
X156994714Y-52541714D01*
X156994714Y-52070000D01*
X156232714Y-51598286D02*
X156232714Y-51525714D01*
X156269000Y-51453143D01*
X156305286Y-51416857D01*
X156377857Y-51380571D01*
X156523000Y-51344286D01*
X156704429Y-51344286D01*
X156849571Y-51380571D01*
X156922143Y-51416857D01*
X156958429Y-51453143D01*
X156994714Y-51525714D01*
X156994714Y-51598286D01*
X156958429Y-51670857D01*
X156922143Y-51707143D01*
X156849571Y-51743428D01*
X156704429Y-51779714D01*
X156523000Y-51779714D01*
X156377857Y-51743428D01*
X156305286Y-51707143D01*
X156269000Y-51670857D01*
X156232714Y-51598286D01*
X156305286Y-51054000D02*
X156269000Y-51017714D01*
X156232714Y-50945143D01*
X156232714Y-50763714D01*
X156269000Y-50691143D01*
X156305286Y-50654857D01*
X156377857Y-50618572D01*
X156450429Y-50618572D01*
X156559286Y-50654857D01*
X156994714Y-51090286D01*
X156994714Y-50618572D01*
X132497286Y-82064714D02*
X132243286Y-81701857D01*
X132061858Y-82064714D02*
X132061858Y-81302714D01*
X132352143Y-81302714D01*
X132424715Y-81339000D01*
X132461000Y-81375286D01*
X132497286Y-81447857D01*
X132497286Y-81556714D01*
X132461000Y-81629286D01*
X132424715Y-81665571D01*
X132352143Y-81701857D01*
X132061858Y-81701857D01*
X132787572Y-81375286D02*
X132823858Y-81339000D01*
X132896429Y-81302714D01*
X133077858Y-81302714D01*
X133150429Y-81339000D01*
X133186715Y-81375286D01*
X133223000Y-81447857D01*
X133223000Y-81520429D01*
X133186715Y-81629286D01*
X132751286Y-82064714D01*
X133223000Y-82064714D01*
X133694714Y-81302714D02*
X133767286Y-81302714D01*
X133839857Y-81339000D01*
X133876143Y-81375286D01*
X133912429Y-81447857D01*
X133948714Y-81593000D01*
X133948714Y-81774429D01*
X133912429Y-81919571D01*
X133876143Y-81992143D01*
X133839857Y-82028429D01*
X133767286Y-82064714D01*
X133694714Y-82064714D01*
X133622143Y-82028429D01*
X133585857Y-81992143D01*
X133549572Y-81919571D01*
X133513286Y-81774429D01*
X133513286Y-81593000D01*
X133549572Y-81447857D01*
X133585857Y-81375286D01*
X133622143Y-81339000D01*
X133694714Y-81302714D01*
X134638143Y-81302714D02*
X134275286Y-81302714D01*
X134239000Y-81665571D01*
X134275286Y-81629286D01*
X134347857Y-81593000D01*
X134529286Y-81593000D01*
X134601857Y-81629286D01*
X134638143Y-81665571D01*
X134674428Y-81738143D01*
X134674428Y-81919571D01*
X134638143Y-81992143D01*
X134601857Y-82028429D01*
X134529286Y-82064714D01*
X134347857Y-82064714D01*
X134275286Y-82028429D01*
X134239000Y-81992143D01*
X136996714Y-87212714D02*
X136633857Y-87466714D01*
X136996714Y-87648142D02*
X136234714Y-87648142D01*
X136234714Y-87357857D01*
X136271000Y-87285285D01*
X136307286Y-87249000D01*
X136379857Y-87212714D01*
X136488714Y-87212714D01*
X136561286Y-87249000D01*
X136597571Y-87285285D01*
X136633857Y-87357857D01*
X136633857Y-87648142D01*
X136307286Y-86922428D02*
X136271000Y-86886142D01*
X136234714Y-86813571D01*
X136234714Y-86632142D01*
X136271000Y-86559571D01*
X136307286Y-86523285D01*
X136379857Y-86487000D01*
X136452429Y-86487000D01*
X136561286Y-86523285D01*
X136996714Y-86958714D01*
X136996714Y-86487000D01*
X136234714Y-86015286D02*
X136234714Y-85942714D01*
X136271000Y-85870143D01*
X136307286Y-85833857D01*
X136379857Y-85797571D01*
X136525000Y-85761286D01*
X136706429Y-85761286D01*
X136851571Y-85797571D01*
X136924143Y-85833857D01*
X136960429Y-85870143D01*
X136996714Y-85942714D01*
X136996714Y-86015286D01*
X136960429Y-86087857D01*
X136924143Y-86124143D01*
X136851571Y-86160428D01*
X136706429Y-86196714D01*
X136525000Y-86196714D01*
X136379857Y-86160428D01*
X136307286Y-86124143D01*
X136271000Y-86087857D01*
X136234714Y-86015286D01*
X136234714Y-85108143D02*
X136234714Y-85253286D01*
X136271000Y-85325857D01*
X136307286Y-85362143D01*
X136416143Y-85434714D01*
X136561286Y-85471000D01*
X136851571Y-85471000D01*
X136924143Y-85434714D01*
X136960429Y-85398429D01*
X136996714Y-85325857D01*
X136996714Y-85180714D01*
X136960429Y-85108143D01*
X136924143Y-85071857D01*
X136851571Y-85035572D01*
X136670143Y-85035572D01*
X136597571Y-85071857D01*
X136561286Y-85108143D01*
X136525000Y-85180714D01*
X136525000Y-85325857D01*
X136561286Y-85398429D01*
X136597571Y-85434714D01*
X136670143Y-85471000D01*
X130519714Y-89625714D02*
X130156857Y-89879714D01*
X130519714Y-90061142D02*
X129757714Y-90061142D01*
X129757714Y-89770857D01*
X129794000Y-89698285D01*
X129830286Y-89662000D01*
X129902857Y-89625714D01*
X130011714Y-89625714D01*
X130084286Y-89662000D01*
X130120571Y-89698285D01*
X130156857Y-89770857D01*
X130156857Y-90061142D01*
X129830286Y-89335428D02*
X129794000Y-89299142D01*
X129757714Y-89226571D01*
X129757714Y-89045142D01*
X129794000Y-88972571D01*
X129830286Y-88936285D01*
X129902857Y-88900000D01*
X129975429Y-88900000D01*
X130084286Y-88936285D01*
X130519714Y-89371714D01*
X130519714Y-88900000D01*
X129757714Y-88428286D02*
X129757714Y-88355714D01*
X129794000Y-88283143D01*
X129830286Y-88246857D01*
X129902857Y-88210571D01*
X130048000Y-88174286D01*
X130229429Y-88174286D01*
X130374571Y-88210571D01*
X130447143Y-88246857D01*
X130483429Y-88283143D01*
X130519714Y-88355714D01*
X130519714Y-88428286D01*
X130483429Y-88500857D01*
X130447143Y-88537143D01*
X130374571Y-88573428D01*
X130229429Y-88609714D01*
X130048000Y-88609714D01*
X129902857Y-88573428D01*
X129830286Y-88537143D01*
X129794000Y-88500857D01*
X129757714Y-88428286D01*
X129757714Y-87920286D02*
X129757714Y-87412286D01*
X130519714Y-87738857D01*
X136742714Y-92419714D02*
X136379857Y-92673714D01*
X136742714Y-92855142D02*
X135980714Y-92855142D01*
X135980714Y-92564857D01*
X136017000Y-92492285D01*
X136053286Y-92456000D01*
X136125857Y-92419714D01*
X136234714Y-92419714D01*
X136307286Y-92456000D01*
X136343571Y-92492285D01*
X136379857Y-92564857D01*
X136379857Y-92855142D01*
X136053286Y-92129428D02*
X136017000Y-92093142D01*
X135980714Y-92020571D01*
X135980714Y-91839142D01*
X136017000Y-91766571D01*
X136053286Y-91730285D01*
X136125857Y-91694000D01*
X136198429Y-91694000D01*
X136307286Y-91730285D01*
X136742714Y-92165714D01*
X136742714Y-91694000D01*
X135980714Y-91222286D02*
X135980714Y-91149714D01*
X136017000Y-91077143D01*
X136053286Y-91040857D01*
X136125857Y-91004571D01*
X136271000Y-90968286D01*
X136452429Y-90968286D01*
X136597571Y-91004571D01*
X136670143Y-91040857D01*
X136706429Y-91077143D01*
X136742714Y-91149714D01*
X136742714Y-91222286D01*
X136706429Y-91294857D01*
X136670143Y-91331143D01*
X136597571Y-91367428D01*
X136452429Y-91403714D01*
X136271000Y-91403714D01*
X136125857Y-91367428D01*
X136053286Y-91331143D01*
X136017000Y-91294857D01*
X135980714Y-91222286D01*
X136307286Y-90532857D02*
X136271000Y-90605429D01*
X136234714Y-90641714D01*
X136162143Y-90678000D01*
X136125857Y-90678000D01*
X136053286Y-90641714D01*
X136017000Y-90605429D01*
X135980714Y-90532857D01*
X135980714Y-90387714D01*
X136017000Y-90315143D01*
X136053286Y-90278857D01*
X136125857Y-90242572D01*
X136162143Y-90242572D01*
X136234714Y-90278857D01*
X136271000Y-90315143D01*
X136307286Y-90387714D01*
X136307286Y-90532857D01*
X136343571Y-90605429D01*
X136379857Y-90641714D01*
X136452429Y-90678000D01*
X136597571Y-90678000D01*
X136670143Y-90641714D01*
X136706429Y-90605429D01*
X136742714Y-90532857D01*
X136742714Y-90387714D01*
X136706429Y-90315143D01*
X136670143Y-90278857D01*
X136597571Y-90242572D01*
X136452429Y-90242572D01*
X136379857Y-90278857D01*
X136343571Y-90315143D01*
X136307286Y-90387714D01*
X136688286Y-97880714D02*
X136434286Y-97517857D01*
X136252858Y-97880714D02*
X136252858Y-97118714D01*
X136543143Y-97118714D01*
X136615715Y-97155000D01*
X136652000Y-97191286D01*
X136688286Y-97263857D01*
X136688286Y-97372714D01*
X136652000Y-97445286D01*
X136615715Y-97481571D01*
X136543143Y-97517857D01*
X136252858Y-97517857D01*
X136978572Y-97191286D02*
X137014858Y-97155000D01*
X137087429Y-97118714D01*
X137268858Y-97118714D01*
X137341429Y-97155000D01*
X137377715Y-97191286D01*
X137414000Y-97263857D01*
X137414000Y-97336429D01*
X137377715Y-97445286D01*
X136942286Y-97880714D01*
X137414000Y-97880714D01*
X137885714Y-97118714D02*
X137958286Y-97118714D01*
X138030857Y-97155000D01*
X138067143Y-97191286D01*
X138103429Y-97263857D01*
X138139714Y-97409000D01*
X138139714Y-97590429D01*
X138103429Y-97735571D01*
X138067143Y-97808143D01*
X138030857Y-97844429D01*
X137958286Y-97880714D01*
X137885714Y-97880714D01*
X137813143Y-97844429D01*
X137776857Y-97808143D01*
X137740572Y-97735571D01*
X137704286Y-97590429D01*
X137704286Y-97409000D01*
X137740572Y-97263857D01*
X137776857Y-97191286D01*
X137813143Y-97155000D01*
X137885714Y-97118714D01*
X138502571Y-97880714D02*
X138647714Y-97880714D01*
X138720286Y-97844429D01*
X138756571Y-97808143D01*
X138829143Y-97699286D01*
X138865428Y-97554143D01*
X138865428Y-97263857D01*
X138829143Y-97191286D01*
X138792857Y-97155000D01*
X138720286Y-97118714D01*
X138575143Y-97118714D01*
X138502571Y-97155000D01*
X138466286Y-97191286D01*
X138430000Y-97263857D01*
X138430000Y-97445286D01*
X138466286Y-97517857D01*
X138502571Y-97554143D01*
X138575143Y-97590429D01*
X138720286Y-97590429D01*
X138792857Y-97554143D01*
X138829143Y-97517857D01*
X138865428Y-97445286D01*
X129703286Y-98261714D02*
X129449286Y-97898857D01*
X129267858Y-98261714D02*
X129267858Y-97499714D01*
X129558143Y-97499714D01*
X129630715Y-97536000D01*
X129667000Y-97572286D01*
X129703286Y-97644857D01*
X129703286Y-97753714D01*
X129667000Y-97826286D01*
X129630715Y-97862571D01*
X129558143Y-97898857D01*
X129267858Y-97898857D01*
X129993572Y-97572286D02*
X130029858Y-97536000D01*
X130102429Y-97499714D01*
X130283858Y-97499714D01*
X130356429Y-97536000D01*
X130392715Y-97572286D01*
X130429000Y-97644857D01*
X130429000Y-97717429D01*
X130392715Y-97826286D01*
X129957286Y-98261714D01*
X130429000Y-98261714D01*
X131154714Y-98261714D02*
X130719286Y-98261714D01*
X130937000Y-98261714D02*
X130937000Y-97499714D01*
X130864429Y-97608571D01*
X130791857Y-97681143D01*
X130719286Y-97717429D01*
X131626428Y-97499714D02*
X131699000Y-97499714D01*
X131771571Y-97536000D01*
X131807857Y-97572286D01*
X131844143Y-97644857D01*
X131880428Y-97790000D01*
X131880428Y-97971429D01*
X131844143Y-98116571D01*
X131807857Y-98189143D01*
X131771571Y-98225429D01*
X131699000Y-98261714D01*
X131626428Y-98261714D01*
X131553857Y-98225429D01*
X131517571Y-98189143D01*
X131481286Y-98116571D01*
X131445000Y-97971429D01*
X131445000Y-97790000D01*
X131481286Y-97644857D01*
X131517571Y-97572286D01*
X131553857Y-97536000D01*
X131626428Y-97499714D01*
X188529686Y-84215514D02*
X188275686Y-83852657D01*
X188094258Y-84215514D02*
X188094258Y-83453514D01*
X188384543Y-83453514D01*
X188457115Y-83489800D01*
X188493400Y-83526086D01*
X188529686Y-83598657D01*
X188529686Y-83707514D01*
X188493400Y-83780086D01*
X188457115Y-83816371D01*
X188384543Y-83852657D01*
X188094258Y-83852657D01*
X188819972Y-83526086D02*
X188856258Y-83489800D01*
X188928829Y-83453514D01*
X189110258Y-83453514D01*
X189182829Y-83489800D01*
X189219115Y-83526086D01*
X189255400Y-83598657D01*
X189255400Y-83671229D01*
X189219115Y-83780086D01*
X188783686Y-84215514D01*
X189255400Y-84215514D01*
X189981114Y-84215514D02*
X189545686Y-84215514D01*
X189763400Y-84215514D02*
X189763400Y-83453514D01*
X189690829Y-83562371D01*
X189618257Y-83634943D01*
X189545686Y-83671229D01*
X190706828Y-84215514D02*
X190271400Y-84215514D01*
X190489114Y-84215514D02*
X190489114Y-83453514D01*
X190416543Y-83562371D01*
X190343971Y-83634943D01*
X190271400Y-83671229D01*
X194346286Y-89117714D02*
X194092286Y-88754857D01*
X193910858Y-89117714D02*
X193910858Y-88355714D01*
X194201143Y-88355714D01*
X194273715Y-88392000D01*
X194310000Y-88428286D01*
X194346286Y-88500857D01*
X194346286Y-88609714D01*
X194310000Y-88682286D01*
X194273715Y-88718571D01*
X194201143Y-88754857D01*
X193910858Y-88754857D01*
X194636572Y-88428286D02*
X194672858Y-88392000D01*
X194745429Y-88355714D01*
X194926858Y-88355714D01*
X194999429Y-88392000D01*
X195035715Y-88428286D01*
X195072000Y-88500857D01*
X195072000Y-88573429D01*
X195035715Y-88682286D01*
X194600286Y-89117714D01*
X195072000Y-89117714D01*
X195797714Y-89117714D02*
X195362286Y-89117714D01*
X195580000Y-89117714D02*
X195580000Y-88355714D01*
X195507429Y-88464571D01*
X195434857Y-88537143D01*
X195362286Y-88573429D01*
X196088000Y-88428286D02*
X196124286Y-88392000D01*
X196196857Y-88355714D01*
X196378286Y-88355714D01*
X196450857Y-88392000D01*
X196487143Y-88428286D01*
X196523428Y-88500857D01*
X196523428Y-88573429D01*
X196487143Y-88682286D01*
X196051714Y-89117714D01*
X196523428Y-89117714D01*
X188377286Y-87771514D02*
X188123286Y-87408657D01*
X187941858Y-87771514D02*
X187941858Y-87009514D01*
X188232143Y-87009514D01*
X188304715Y-87045800D01*
X188341000Y-87082086D01*
X188377286Y-87154657D01*
X188377286Y-87263514D01*
X188341000Y-87336086D01*
X188304715Y-87372371D01*
X188232143Y-87408657D01*
X187941858Y-87408657D01*
X188667572Y-87082086D02*
X188703858Y-87045800D01*
X188776429Y-87009514D01*
X188957858Y-87009514D01*
X189030429Y-87045800D01*
X189066715Y-87082086D01*
X189103000Y-87154657D01*
X189103000Y-87227229D01*
X189066715Y-87336086D01*
X188631286Y-87771514D01*
X189103000Y-87771514D01*
X189828714Y-87771514D02*
X189393286Y-87771514D01*
X189611000Y-87771514D02*
X189611000Y-87009514D01*
X189538429Y-87118371D01*
X189465857Y-87190943D01*
X189393286Y-87227229D01*
X190082714Y-87009514D02*
X190554428Y-87009514D01*
X190300428Y-87299800D01*
X190409286Y-87299800D01*
X190481857Y-87336086D01*
X190518143Y-87372371D01*
X190554428Y-87444943D01*
X190554428Y-87626371D01*
X190518143Y-87698943D01*
X190481857Y-87735229D01*
X190409286Y-87771514D01*
X190191571Y-87771514D01*
X190119000Y-87735229D01*
X190082714Y-87698943D01*
X188377286Y-93410314D02*
X188123286Y-93047457D01*
X187941858Y-93410314D02*
X187941858Y-92648314D01*
X188232143Y-92648314D01*
X188304715Y-92684600D01*
X188341000Y-92720886D01*
X188377286Y-92793457D01*
X188377286Y-92902314D01*
X188341000Y-92974886D01*
X188304715Y-93011171D01*
X188232143Y-93047457D01*
X187941858Y-93047457D01*
X188667572Y-92720886D02*
X188703858Y-92684600D01*
X188776429Y-92648314D01*
X188957858Y-92648314D01*
X189030429Y-92684600D01*
X189066715Y-92720886D01*
X189103000Y-92793457D01*
X189103000Y-92866029D01*
X189066715Y-92974886D01*
X188631286Y-93410314D01*
X189103000Y-93410314D01*
X189828714Y-93410314D02*
X189393286Y-93410314D01*
X189611000Y-93410314D02*
X189611000Y-92648314D01*
X189538429Y-92757171D01*
X189465857Y-92829743D01*
X189393286Y-92866029D01*
X190481857Y-92902314D02*
X190481857Y-93410314D01*
X190300428Y-92612029D02*
X190119000Y-93156314D01*
X190590714Y-93156314D01*
X185176886Y-96661514D02*
X184922886Y-96298657D01*
X184741458Y-96661514D02*
X184741458Y-95899514D01*
X185031743Y-95899514D01*
X185104315Y-95935800D01*
X185140600Y-95972086D01*
X185176886Y-96044657D01*
X185176886Y-96153514D01*
X185140600Y-96226086D01*
X185104315Y-96262371D01*
X185031743Y-96298657D01*
X184741458Y-96298657D01*
X185467172Y-95972086D02*
X185503458Y-95935800D01*
X185576029Y-95899514D01*
X185757458Y-95899514D01*
X185830029Y-95935800D01*
X185866315Y-95972086D01*
X185902600Y-96044657D01*
X185902600Y-96117229D01*
X185866315Y-96226086D01*
X185430886Y-96661514D01*
X185902600Y-96661514D01*
X186628314Y-96661514D02*
X186192886Y-96661514D01*
X186410600Y-96661514D02*
X186410600Y-95899514D01*
X186338029Y-96008371D01*
X186265457Y-96080943D01*
X186192886Y-96117229D01*
X187317743Y-95899514D02*
X186954886Y-95899514D01*
X186918600Y-96262371D01*
X186954886Y-96226086D01*
X187027457Y-96189800D01*
X187208886Y-96189800D01*
X187281457Y-96226086D01*
X187317743Y-96262371D01*
X187354028Y-96334943D01*
X187354028Y-96516371D01*
X187317743Y-96588943D01*
X187281457Y-96625229D01*
X187208886Y-96661514D01*
X187027457Y-96661514D01*
X186954886Y-96625229D01*
X186918600Y-96588943D01*
X188123286Y-80735714D02*
X187869286Y-80372857D01*
X187687858Y-80735714D02*
X187687858Y-79973714D01*
X187978143Y-79973714D01*
X188050715Y-80010000D01*
X188087000Y-80046286D01*
X188123286Y-80118857D01*
X188123286Y-80227714D01*
X188087000Y-80300286D01*
X188050715Y-80336571D01*
X187978143Y-80372857D01*
X187687858Y-80372857D01*
X188413572Y-80046286D02*
X188449858Y-80010000D01*
X188522429Y-79973714D01*
X188703858Y-79973714D01*
X188776429Y-80010000D01*
X188812715Y-80046286D01*
X188849000Y-80118857D01*
X188849000Y-80191429D01*
X188812715Y-80300286D01*
X188377286Y-80735714D01*
X188849000Y-80735714D01*
X189574714Y-80735714D02*
X189139286Y-80735714D01*
X189357000Y-80735714D02*
X189357000Y-79973714D01*
X189284429Y-80082571D01*
X189211857Y-80155143D01*
X189139286Y-80191429D01*
X190227857Y-79973714D02*
X190082714Y-79973714D01*
X190010143Y-80010000D01*
X189973857Y-80046286D01*
X189901286Y-80155143D01*
X189865000Y-80300286D01*
X189865000Y-80590571D01*
X189901286Y-80663143D01*
X189937571Y-80699429D01*
X190010143Y-80735714D01*
X190155286Y-80735714D01*
X190227857Y-80699429D01*
X190264143Y-80663143D01*
X190300428Y-80590571D01*
X190300428Y-80409143D01*
X190264143Y-80336571D01*
X190227857Y-80300286D01*
X190155286Y-80264000D01*
X190010143Y-80264000D01*
X189937571Y-80300286D01*
X189901286Y-80336571D01*
X189865000Y-80409143D01*
X193838286Y-80608714D02*
X193584286Y-80245857D01*
X193402858Y-80608714D02*
X193402858Y-79846714D01*
X193693143Y-79846714D01*
X193765715Y-79883000D01*
X193802000Y-79919286D01*
X193838286Y-79991857D01*
X193838286Y-80100714D01*
X193802000Y-80173286D01*
X193765715Y-80209571D01*
X193693143Y-80245857D01*
X193402858Y-80245857D01*
X194128572Y-79919286D02*
X194164858Y-79883000D01*
X194237429Y-79846714D01*
X194418858Y-79846714D01*
X194491429Y-79883000D01*
X194527715Y-79919286D01*
X194564000Y-79991857D01*
X194564000Y-80064429D01*
X194527715Y-80173286D01*
X194092286Y-80608714D01*
X194564000Y-80608714D01*
X195289714Y-80608714D02*
X194854286Y-80608714D01*
X195072000Y-80608714D02*
X195072000Y-79846714D01*
X194999429Y-79955571D01*
X194926857Y-80028143D01*
X194854286Y-80064429D01*
X195543714Y-79846714D02*
X196051714Y-79846714D01*
X195725143Y-80608714D01*
X141695715Y-91784714D02*
X141695715Y-92401571D01*
X141732000Y-92474143D01*
X141768286Y-92510429D01*
X141840857Y-92546714D01*
X141986000Y-92546714D01*
X142058572Y-92510429D01*
X142094857Y-92474143D01*
X142131143Y-92401571D01*
X142131143Y-91784714D01*
X142457715Y-91857286D02*
X142494001Y-91821000D01*
X142566572Y-91784714D01*
X142748001Y-91784714D01*
X142820572Y-91821000D01*
X142856858Y-91857286D01*
X142893143Y-91929857D01*
X142893143Y-92002429D01*
X142856858Y-92111286D01*
X142421429Y-92546714D01*
X142893143Y-92546714D01*
X143364857Y-91784714D02*
X143437429Y-91784714D01*
X143510000Y-91821000D01*
X143546286Y-91857286D01*
X143582572Y-91929857D01*
X143618857Y-92075000D01*
X143618857Y-92256429D01*
X143582572Y-92401571D01*
X143546286Y-92474143D01*
X143510000Y-92510429D01*
X143437429Y-92546714D01*
X143364857Y-92546714D01*
X143292286Y-92510429D01*
X143256000Y-92474143D01*
X143219715Y-92401571D01*
X143183429Y-92256429D01*
X143183429Y-92075000D01*
X143219715Y-91929857D01*
X143256000Y-91857286D01*
X143292286Y-91821000D01*
X143364857Y-91784714D01*
X144344571Y-92546714D02*
X143909143Y-92546714D01*
X144126857Y-92546714D02*
X144126857Y-91784714D01*
X144054286Y-91893571D01*
X143981714Y-91966143D01*
X143909143Y-92002429D01*
X171413714Y-87158285D02*
X172030571Y-87158285D01*
X172103143Y-87122000D01*
X172139429Y-87085714D01*
X172175714Y-87013143D01*
X172175714Y-86868000D01*
X172139429Y-86795428D01*
X172103143Y-86759143D01*
X172030571Y-86722857D01*
X171413714Y-86722857D01*
X171486286Y-86396285D02*
X171450000Y-86359999D01*
X171413714Y-86287428D01*
X171413714Y-86105999D01*
X171450000Y-86033428D01*
X171486286Y-85997142D01*
X171558857Y-85960857D01*
X171631429Y-85960857D01*
X171740286Y-85997142D01*
X172175714Y-86432571D01*
X172175714Y-85960857D01*
X171413714Y-85489143D02*
X171413714Y-85416571D01*
X171450000Y-85344000D01*
X171486286Y-85307714D01*
X171558857Y-85271428D01*
X171704000Y-85235143D01*
X171885429Y-85235143D01*
X172030571Y-85271428D01*
X172103143Y-85307714D01*
X172139429Y-85344000D01*
X172175714Y-85416571D01*
X172175714Y-85489143D01*
X172139429Y-85561714D01*
X172103143Y-85598000D01*
X172030571Y-85634285D01*
X171885429Y-85670571D01*
X171704000Y-85670571D01*
X171558857Y-85634285D01*
X171486286Y-85598000D01*
X171450000Y-85561714D01*
X171413714Y-85489143D01*
X171486286Y-84944857D02*
X171450000Y-84908571D01*
X171413714Y-84836000D01*
X171413714Y-84654571D01*
X171450000Y-84582000D01*
X171486286Y-84545714D01*
X171558857Y-84509429D01*
X171631429Y-84509429D01*
X171740286Y-84545714D01*
X172175714Y-84981143D01*
X172175714Y-84509429D01*
X162541858Y-97880714D02*
X162541858Y-97118714D01*
X162832143Y-97118714D01*
X162904715Y-97155000D01*
X162941000Y-97191286D01*
X162977286Y-97263857D01*
X162977286Y-97372714D01*
X162941000Y-97445286D01*
X162904715Y-97481571D01*
X162832143Y-97517857D01*
X162541858Y-97517857D01*
X163703000Y-97880714D02*
X163267572Y-97880714D01*
X163485286Y-97880714D02*
X163485286Y-97118714D01*
X163412715Y-97227571D01*
X163340143Y-97300143D01*
X163267572Y-97336429D01*
X164174714Y-97118714D02*
X164247286Y-97118714D01*
X164319857Y-97155000D01*
X164356143Y-97191286D01*
X164392429Y-97263857D01*
X164428714Y-97409000D01*
X164428714Y-97590429D01*
X164392429Y-97735571D01*
X164356143Y-97808143D01*
X164319857Y-97844429D01*
X164247286Y-97880714D01*
X164174714Y-97880714D01*
X164102143Y-97844429D01*
X164065857Y-97808143D01*
X164029572Y-97735571D01*
X163993286Y-97590429D01*
X163993286Y-97409000D01*
X164029572Y-97263857D01*
X164065857Y-97191286D01*
X164102143Y-97155000D01*
X164174714Y-97118714D01*
X165154428Y-97880714D02*
X164719000Y-97880714D01*
X164936714Y-97880714D02*
X164936714Y-97118714D01*
X164864143Y-97227571D01*
X164791571Y-97300143D01*
X164719000Y-97336429D01*
X122264714Y-59962142D02*
X121502714Y-59962142D01*
X121502714Y-59671857D01*
X121539000Y-59599285D01*
X121575286Y-59563000D01*
X121647857Y-59526714D01*
X121756714Y-59526714D01*
X121829286Y-59563000D01*
X121865571Y-59599285D01*
X121901857Y-59671857D01*
X121901857Y-59962142D01*
X121575286Y-59236428D02*
X121539000Y-59200142D01*
X121502714Y-59127571D01*
X121502714Y-58946142D01*
X121539000Y-58873571D01*
X121575286Y-58837285D01*
X121647857Y-58801000D01*
X121720429Y-58801000D01*
X121829286Y-58837285D01*
X122264714Y-59272714D01*
X122264714Y-58801000D01*
X121502714Y-58329286D02*
X121502714Y-58256714D01*
X121539000Y-58184143D01*
X121575286Y-58147857D01*
X121647857Y-58111571D01*
X121793000Y-58075286D01*
X121974429Y-58075286D01*
X122119571Y-58111571D01*
X122192143Y-58147857D01*
X122228429Y-58184143D01*
X122264714Y-58256714D01*
X122264714Y-58329286D01*
X122228429Y-58401857D01*
X122192143Y-58438143D01*
X122119571Y-58474428D01*
X121974429Y-58510714D01*
X121793000Y-58510714D01*
X121647857Y-58474428D01*
X121575286Y-58438143D01*
X121539000Y-58401857D01*
X121502714Y-58329286D01*
X122264714Y-57349572D02*
X122264714Y-57785000D01*
X122264714Y-57567286D02*
X121502714Y-57567286D01*
X121611571Y-57639857D01*
X121684143Y-57712429D01*
X121720429Y-57785000D01*
X199607714Y-62629142D02*
X198845714Y-62629142D01*
X198845714Y-62338857D01*
X198882000Y-62266285D01*
X198918286Y-62230000D01*
X198990857Y-62193714D01*
X199099714Y-62193714D01*
X199172286Y-62230000D01*
X199208571Y-62266285D01*
X199244857Y-62338857D01*
X199244857Y-62629142D01*
X198918286Y-61903428D02*
X198882000Y-61867142D01*
X198845714Y-61794571D01*
X198845714Y-61613142D01*
X198882000Y-61540571D01*
X198918286Y-61504285D01*
X198990857Y-61468000D01*
X199063429Y-61468000D01*
X199172286Y-61504285D01*
X199607714Y-61939714D01*
X199607714Y-61468000D01*
X198845714Y-60996286D02*
X198845714Y-60923714D01*
X198882000Y-60851143D01*
X198918286Y-60814857D01*
X198990857Y-60778571D01*
X199136000Y-60742286D01*
X199317429Y-60742286D01*
X199462571Y-60778571D01*
X199535143Y-60814857D01*
X199571429Y-60851143D01*
X199607714Y-60923714D01*
X199607714Y-60996286D01*
X199571429Y-61068857D01*
X199535143Y-61105143D01*
X199462571Y-61141428D01*
X199317429Y-61177714D01*
X199136000Y-61177714D01*
X198990857Y-61141428D01*
X198918286Y-61105143D01*
X198882000Y-61068857D01*
X198845714Y-60996286D01*
X198918286Y-60452000D02*
X198882000Y-60415714D01*
X198845714Y-60343143D01*
X198845714Y-60161714D01*
X198882000Y-60089143D01*
X198918286Y-60052857D01*
X198990857Y-60016572D01*
X199063429Y-60016572D01*
X199172286Y-60052857D01*
X199607714Y-60488286D01*
X199607714Y-60016572D01*
X161968544Y-81319914D02*
X161968544Y-80557914D01*
X162766829Y-81247343D02*
X162730543Y-81283629D01*
X162621686Y-81319914D01*
X162549115Y-81319914D01*
X162440258Y-81283629D01*
X162367686Y-81211057D01*
X162331401Y-81138486D01*
X162295115Y-80993343D01*
X162295115Y-80884486D01*
X162331401Y-80739343D01*
X162367686Y-80666771D01*
X162440258Y-80594200D01*
X162549115Y-80557914D01*
X162621686Y-80557914D01*
X162730543Y-80594200D01*
X162766829Y-80630486D01*
X163492543Y-81319914D02*
X163057115Y-81319914D01*
X163274829Y-81319914D02*
X163274829Y-80557914D01*
X163202258Y-80666771D01*
X163129686Y-80739343D01*
X163057115Y-80775629D01*
X149950714Y-89117714D02*
X149587857Y-89371714D01*
X149950714Y-89553142D02*
X149188714Y-89553142D01*
X149188714Y-89262857D01*
X149225000Y-89190285D01*
X149261286Y-89154000D01*
X149333857Y-89117714D01*
X149442714Y-89117714D01*
X149515286Y-89154000D01*
X149551571Y-89190285D01*
X149587857Y-89262857D01*
X149587857Y-89553142D01*
X149950714Y-88392000D02*
X149950714Y-88827428D01*
X149950714Y-88609714D02*
X149188714Y-88609714D01*
X149297571Y-88682285D01*
X149370143Y-88754857D01*
X149406429Y-88827428D01*
X149188714Y-87920286D02*
X149188714Y-87847714D01*
X149225000Y-87775143D01*
X149261286Y-87738857D01*
X149333857Y-87702571D01*
X149479000Y-87666286D01*
X149660429Y-87666286D01*
X149805571Y-87702571D01*
X149878143Y-87738857D01*
X149914429Y-87775143D01*
X149950714Y-87847714D01*
X149950714Y-87920286D01*
X149914429Y-87992857D01*
X149878143Y-88029143D01*
X149805571Y-88065428D01*
X149660429Y-88101714D01*
X149479000Y-88101714D01*
X149333857Y-88065428D01*
X149261286Y-88029143D01*
X149225000Y-87992857D01*
X149188714Y-87920286D01*
X149261286Y-87376000D02*
X149225000Y-87339714D01*
X149188714Y-87267143D01*
X149188714Y-87085714D01*
X149225000Y-87013143D01*
X149261286Y-86976857D01*
X149333857Y-86940572D01*
X149406429Y-86940572D01*
X149515286Y-86976857D01*
X149950714Y-87412286D01*
X149950714Y-86940572D01*
X152490714Y-89117714D02*
X152127857Y-89371714D01*
X152490714Y-89553142D02*
X151728714Y-89553142D01*
X151728714Y-89262857D01*
X151765000Y-89190285D01*
X151801286Y-89154000D01*
X151873857Y-89117714D01*
X151982714Y-89117714D01*
X152055286Y-89154000D01*
X152091571Y-89190285D01*
X152127857Y-89262857D01*
X152127857Y-89553142D01*
X152490714Y-88392000D02*
X152490714Y-88827428D01*
X152490714Y-88609714D02*
X151728714Y-88609714D01*
X151837571Y-88682285D01*
X151910143Y-88754857D01*
X151946429Y-88827428D01*
X151728714Y-87920286D02*
X151728714Y-87847714D01*
X151765000Y-87775143D01*
X151801286Y-87738857D01*
X151873857Y-87702571D01*
X152019000Y-87666286D01*
X152200429Y-87666286D01*
X152345571Y-87702571D01*
X152418143Y-87738857D01*
X152454429Y-87775143D01*
X152490714Y-87847714D01*
X152490714Y-87920286D01*
X152454429Y-87992857D01*
X152418143Y-88029143D01*
X152345571Y-88065428D01*
X152200429Y-88101714D01*
X152019000Y-88101714D01*
X151873857Y-88065428D01*
X151801286Y-88029143D01*
X151765000Y-87992857D01*
X151728714Y-87920286D01*
X151728714Y-87412286D02*
X151728714Y-86940572D01*
X152019000Y-87194572D01*
X152019000Y-87085714D01*
X152055286Y-87013143D01*
X152091571Y-86976857D01*
X152164143Y-86940572D01*
X152345571Y-86940572D01*
X152418143Y-86976857D01*
X152454429Y-87013143D01*
X152490714Y-87085714D01*
X152490714Y-87303429D01*
X152454429Y-87376000D01*
X152418143Y-87412286D01*
X156627286Y-94197714D02*
X156373286Y-93834857D01*
X156191858Y-94197714D02*
X156191858Y-93435714D01*
X156482143Y-93435714D01*
X156554715Y-93472000D01*
X156591000Y-93508286D01*
X156627286Y-93580857D01*
X156627286Y-93689714D01*
X156591000Y-93762286D01*
X156554715Y-93798571D01*
X156482143Y-93834857D01*
X156191858Y-93834857D01*
X157353000Y-94197714D02*
X156917572Y-94197714D01*
X157135286Y-94197714D02*
X157135286Y-93435714D01*
X157062715Y-93544571D01*
X156990143Y-93617143D01*
X156917572Y-93653429D01*
X157824714Y-93435714D02*
X157897286Y-93435714D01*
X157969857Y-93472000D01*
X158006143Y-93508286D01*
X158042429Y-93580857D01*
X158078714Y-93726000D01*
X158078714Y-93907429D01*
X158042429Y-94052571D01*
X158006143Y-94125143D01*
X157969857Y-94161429D01*
X157897286Y-94197714D01*
X157824714Y-94197714D01*
X157752143Y-94161429D01*
X157715857Y-94125143D01*
X157679572Y-94052571D01*
X157643286Y-93907429D01*
X157643286Y-93726000D01*
X157679572Y-93580857D01*
X157715857Y-93508286D01*
X157752143Y-93472000D01*
X157824714Y-93435714D01*
X158731857Y-93689714D02*
X158731857Y-94197714D01*
X158550428Y-93399429D02*
X158369000Y-93943714D01*
X158840714Y-93943714D01*
X154087286Y-80078943D02*
X154051000Y-80115229D01*
X153942143Y-80151514D01*
X153869572Y-80151514D01*
X153760715Y-80115229D01*
X153688143Y-80042657D01*
X153651858Y-79970086D01*
X153615572Y-79824943D01*
X153615572Y-79716086D01*
X153651858Y-79570943D01*
X153688143Y-79498371D01*
X153760715Y-79425800D01*
X153869572Y-79389514D01*
X153942143Y-79389514D01*
X154051000Y-79425800D01*
X154087286Y-79462086D01*
X154813000Y-80151514D02*
X154377572Y-80151514D01*
X154595286Y-80151514D02*
X154595286Y-79389514D01*
X154522715Y-79498371D01*
X154450143Y-79570943D01*
X154377572Y-79607229D01*
X155284714Y-79389514D02*
X155357286Y-79389514D01*
X155429857Y-79425800D01*
X155466143Y-79462086D01*
X155502429Y-79534657D01*
X155538714Y-79679800D01*
X155538714Y-79861229D01*
X155502429Y-80006371D01*
X155466143Y-80078943D01*
X155429857Y-80115229D01*
X155357286Y-80151514D01*
X155284714Y-80151514D01*
X155212143Y-80115229D01*
X155175857Y-80078943D01*
X155139572Y-80006371D01*
X155103286Y-79861229D01*
X155103286Y-79679800D01*
X155139572Y-79534657D01*
X155175857Y-79462086D01*
X155212143Y-79425800D01*
X155284714Y-79389514D01*
X156264428Y-80151514D02*
X155829000Y-80151514D01*
X156046714Y-80151514D02*
X156046714Y-79389514D01*
X155974143Y-79498371D01*
X155901571Y-79570943D01*
X155829000Y-79607229D01*
X143473714Y-97427142D02*
X142711714Y-97427142D01*
X142711714Y-97136857D01*
X142748000Y-97064285D01*
X142784286Y-97028000D01*
X142856857Y-96991714D01*
X142965714Y-96991714D01*
X143038286Y-97028000D01*
X143074571Y-97064285D01*
X143110857Y-97136857D01*
X143110857Y-97427142D01*
X143473714Y-96266000D02*
X143473714Y-96701428D01*
X143473714Y-96483714D02*
X142711714Y-96483714D01*
X142820571Y-96556285D01*
X142893143Y-96628857D01*
X142929429Y-96701428D01*
X142711714Y-95794286D02*
X142711714Y-95721714D01*
X142748000Y-95649143D01*
X142784286Y-95612857D01*
X142856857Y-95576571D01*
X143002000Y-95540286D01*
X143183429Y-95540286D01*
X143328571Y-95576571D01*
X143401143Y-95612857D01*
X143437429Y-95649143D01*
X143473714Y-95721714D01*
X143473714Y-95794286D01*
X143437429Y-95866857D01*
X143401143Y-95903143D01*
X143328571Y-95939428D01*
X143183429Y-95975714D01*
X143002000Y-95975714D01*
X142856857Y-95939428D01*
X142784286Y-95903143D01*
X142748000Y-95866857D01*
X142711714Y-95794286D01*
X142784286Y-95250000D02*
X142748000Y-95213714D01*
X142711714Y-95141143D01*
X142711714Y-94959714D01*
X142748000Y-94887143D01*
X142784286Y-94850857D01*
X142856857Y-94814572D01*
X142929429Y-94814572D01*
X143038286Y-94850857D01*
X143473714Y-95286286D01*
X143473714Y-94814572D01*
X176921887Y-98403229D02*
X177030744Y-98439514D01*
X177212173Y-98439514D01*
X177284744Y-98403229D01*
X177321030Y-98366943D01*
X177357315Y-98294371D01*
X177357315Y-98221800D01*
X177321030Y-98149229D01*
X177284744Y-98112943D01*
X177212173Y-98076657D01*
X177067030Y-98040371D01*
X176994458Y-98004086D01*
X176958173Y-97967800D01*
X176921887Y-97895229D01*
X176921887Y-97822657D01*
X176958173Y-97750086D01*
X176994458Y-97713800D01*
X177067030Y-97677514D01*
X177248458Y-97677514D01*
X177357315Y-97713800D01*
X177611315Y-97677514D02*
X177792744Y-98439514D01*
X177937887Y-97895229D01*
X178083029Y-98439514D01*
X178264458Y-97677514D01*
X178953886Y-98439514D02*
X178518458Y-98439514D01*
X178736172Y-98439514D02*
X178736172Y-97677514D01*
X178663601Y-97786371D01*
X178591029Y-97858943D01*
X178518458Y-97895229D01*
X179425600Y-97677514D02*
X179498172Y-97677514D01*
X179570743Y-97713800D01*
X179607029Y-97750086D01*
X179643315Y-97822657D01*
X179679600Y-97967800D01*
X179679600Y-98149229D01*
X179643315Y-98294371D01*
X179607029Y-98366943D01*
X179570743Y-98403229D01*
X179498172Y-98439514D01*
X179425600Y-98439514D01*
X179353029Y-98403229D01*
X179316743Y-98366943D01*
X179280458Y-98294371D01*
X179244172Y-98149229D01*
X179244172Y-97967800D01*
X179280458Y-97822657D01*
X179316743Y-97750086D01*
X179353029Y-97713800D01*
X179425600Y-97677514D01*
X180405314Y-98439514D02*
X179969886Y-98439514D01*
X180187600Y-98439514D02*
X180187600Y-97677514D01*
X180115029Y-97786371D01*
X180042457Y-97858943D01*
X179969886Y-97895229D01*
X161380714Y-97118714D02*
X161017857Y-97372714D01*
X161380714Y-97554142D02*
X160618714Y-97554142D01*
X160618714Y-97263857D01*
X160655000Y-97191285D01*
X160691286Y-97155000D01*
X160763857Y-97118714D01*
X160872714Y-97118714D01*
X160945286Y-97155000D01*
X160981571Y-97191285D01*
X161017857Y-97263857D01*
X161017857Y-97554142D01*
X161380714Y-96393000D02*
X161380714Y-96828428D01*
X161380714Y-96610714D02*
X160618714Y-96610714D01*
X160727571Y-96683285D01*
X160800143Y-96755857D01*
X160836429Y-96828428D01*
X160618714Y-95921286D02*
X160618714Y-95848714D01*
X160655000Y-95776143D01*
X160691286Y-95739857D01*
X160763857Y-95703571D01*
X160909000Y-95667286D01*
X161090429Y-95667286D01*
X161235571Y-95703571D01*
X161308143Y-95739857D01*
X161344429Y-95776143D01*
X161380714Y-95848714D01*
X161380714Y-95921286D01*
X161344429Y-95993857D01*
X161308143Y-96030143D01*
X161235571Y-96066428D01*
X161090429Y-96102714D01*
X160909000Y-96102714D01*
X160763857Y-96066428D01*
X160691286Y-96030143D01*
X160655000Y-95993857D01*
X160618714Y-95921286D01*
X160618714Y-94977857D02*
X160618714Y-95340714D01*
X160981571Y-95377000D01*
X160945286Y-95340714D01*
X160909000Y-95268143D01*
X160909000Y-95086714D01*
X160945286Y-95014143D01*
X160981571Y-94977857D01*
X161054143Y-94941572D01*
X161235571Y-94941572D01*
X161308143Y-94977857D01*
X161344429Y-95014143D01*
X161380714Y-95086714D01*
X161380714Y-95268143D01*
X161344429Y-95340714D01*
X161308143Y-95377000D01*
%LPC*%
D14*
X119380000Y-83820000D03*
D15*
X119380000Y-86360000D03*
X119380000Y-88900000D03*
X119380000Y-91440000D03*
X119380000Y-93980000D03*
X119380000Y-96520000D03*
D14*
X201930000Y-81280000D03*
D15*
X201930000Y-83820000D03*
X201930000Y-86360000D03*
X201930000Y-88900000D03*
X201930000Y-91440000D03*
X201930000Y-93980000D03*
X201930000Y-96520000D03*
D16*
X127000000Y-84125500D03*
X127000000Y-85800500D03*
X127650000Y-85800500D03*
X126350000Y-85800500D03*
X126350000Y-84125500D03*
X127650000Y-84125500D03*
X127000000Y-89078500D03*
X127000000Y-90753500D03*
X127650000Y-90753500D03*
X126350000Y-90753500D03*
X126350000Y-89078500D03*
X127650000Y-89078500D03*
X126873000Y-94412500D03*
X126873000Y-96087500D03*
X127523000Y-96087500D03*
X126223000Y-96087500D03*
X126223000Y-94412500D03*
X127523000Y-94412500D03*
D17*
X164084000Y-95711000D03*
X164084000Y-93011000D03*
X158750000Y-58500000D03*
X158750000Y-55800000D03*
X158750000Y-53293000D03*
X158750000Y-50593000D03*
D18*
X132000000Y-83820000D03*
X134700000Y-83820000D03*
X132000000Y-86360000D03*
X134700000Y-86360000D03*
X132000000Y-88900000D03*
X134700000Y-88900000D03*
X132000000Y-91440000D03*
X134700000Y-91440000D03*
X136191000Y-95885000D03*
X138891000Y-95885000D03*
D17*
X133223000Y-97235000D03*
X133223000Y-94535000D03*
D18*
X190707000Y-85471000D03*
X188007000Y-85471000D03*
X196295000Y-86995000D03*
X193595000Y-86995000D03*
X190580000Y-89027000D03*
X187880000Y-89027000D03*
X190580000Y-91440000D03*
X187880000Y-91440000D03*
X187405000Y-94615000D03*
X184705000Y-94615000D03*
X190453000Y-82042000D03*
X187753000Y-82042000D03*
X196168000Y-82042000D03*
X193468000Y-82042000D03*
D19*
X147447000Y-83822000D03*
X146177000Y-83822000D03*
X144907000Y-83822000D03*
X143637000Y-83822000D03*
X142367000Y-83820000D03*
D20*
X141097000Y-83822000D03*
D19*
X139827000Y-83822000D03*
X138557000Y-83822000D03*
X138557000Y-90422000D03*
X139827000Y-90422000D03*
X141097000Y-90422000D03*
X142367000Y-90422000D03*
X143637000Y-90422000D03*
X144907000Y-90422000D03*
X146177000Y-90422000D03*
X147447000Y-90422000D03*
X173228000Y-90549000D03*
X174498000Y-90549000D03*
X175768000Y-90549000D03*
X177038000Y-90549000D03*
X178308000Y-90551000D03*
D20*
X179578000Y-90549000D03*
D19*
X180848000Y-90549000D03*
X182118000Y-90549000D03*
X182118000Y-83949000D03*
X180848000Y-83949000D03*
X179578000Y-83949000D03*
X178308000Y-83949000D03*
X177038000Y-83949000D03*
X175768000Y-83949000D03*
X174498000Y-83949000D03*
X173228000Y-83949000D03*
D21*
X172212000Y-93599000D03*
D22*
X172212000Y-96139000D03*
X169672000Y-93599000D03*
X169672000Y-96139000D03*
X167132000Y-93599000D03*
X167132000Y-96139000D03*
D14*
X119380000Y-45720000D03*
D15*
X119380000Y-48260000D03*
X119380000Y-50800000D03*
X119380000Y-53340000D03*
X119380000Y-55880000D03*
X119380000Y-58420000D03*
D14*
X201930000Y-45720000D03*
D15*
X201930000Y-48260000D03*
X201930000Y-50800000D03*
X201930000Y-53340000D03*
X201930000Y-55880000D03*
X201930000Y-58420000D03*
X201930000Y-60960000D03*
D23*
X161042000Y-82491000D03*
X160242000Y-82491000D03*
X159442000Y-82491000D03*
X158642000Y-82491000D03*
X157842000Y-82491000D03*
X157042000Y-82491000D03*
X156242000Y-82491000D03*
X155442000Y-82491000D03*
D24*
X153992000Y-83941000D03*
X153992000Y-84741000D03*
X153992000Y-85541000D03*
X153992000Y-86341000D03*
X153992000Y-87141000D03*
X153992000Y-87941000D03*
X153992000Y-88741000D03*
X153992000Y-89541000D03*
D23*
X155442000Y-90991000D03*
X156242000Y-90991000D03*
X157042000Y-90991000D03*
X157842000Y-90991000D03*
X158642000Y-90991000D03*
X159442000Y-90991000D03*
X160242000Y-90991000D03*
X161042000Y-90991000D03*
D24*
X162492000Y-89541000D03*
X162492000Y-88741000D03*
X162492000Y-87941000D03*
X162492000Y-87141000D03*
X162492000Y-86341000D03*
X162492000Y-85541000D03*
X162492000Y-84741000D03*
X162492000Y-83941000D03*
D25*
X149479000Y-92390000D03*
X149479000Y-90490000D03*
X151638000Y-92390000D03*
X151638000Y-90490000D03*
D26*
X153355000Y-93345000D03*
X155255000Y-93345000D03*
D27*
X157369000Y-80264000D03*
X159369000Y-80264000D03*
D28*
X145542000Y-96139000D03*
D29*
X148082000Y-96139000D03*
X150622000Y-96139000D03*
X153162000Y-96139000D03*
X155702000Y-96139000D03*
X158242000Y-96139000D03*
D30*
X143002000Y-78359000D03*
X144018000Y-78359000D03*
X145034000Y-78359000D03*
X144018000Y-76835000D03*
X143002000Y-76835000D03*
X145034000Y-76835000D03*
X177292000Y-78359000D03*
X178308000Y-78359000D03*
X179324000Y-78359000D03*
X178308000Y-76835000D03*
X177292000Y-76835000D03*
X179324000Y-76835000D03*
D31*
X175489000Y-93604000D03*
X181889000Y-93604000D03*
X175489000Y-97404000D03*
X181889000Y-97404000D03*
D32*
X137160000Y-63500000D03*
D33*
X134620000Y-63500000D03*
X132080000Y-63500000D03*
X129540000Y-63500000D03*
X127000000Y-63500000D03*
X127000000Y-48260000D03*
X129540000Y-48260000D03*
X132080000Y-48260000D03*
X134620000Y-48260000D03*
X137160000Y-48260000D03*
D34*
X137160000Y-65379600D03*
X134620000Y-65379600D03*
X132080000Y-65379600D03*
X129540000Y-65379600D03*
X127000000Y-65379600D03*
X127000000Y-46380400D03*
X129540000Y-46380400D03*
X132080000Y-46380400D03*
X134620000Y-46380400D03*
X137160000Y-46380400D03*
D32*
X152400000Y-63500000D03*
D33*
X149860000Y-63500000D03*
X147320000Y-63500000D03*
X144780000Y-63500000D03*
X142240000Y-63500000D03*
X142240000Y-48260000D03*
X144780000Y-48260000D03*
X147320000Y-48260000D03*
X149860000Y-48260000D03*
X152400000Y-48260000D03*
D34*
X152400000Y-65379600D03*
X149860000Y-65379600D03*
X147320000Y-65379600D03*
X144780000Y-65379600D03*
X142240000Y-65379600D03*
X142240000Y-46380400D03*
X144780000Y-46380400D03*
X147320000Y-46380400D03*
X149860000Y-46380400D03*
X152400000Y-46380400D03*
D32*
X175260000Y-63500000D03*
D33*
X172720000Y-63500000D03*
X170180000Y-63500000D03*
X167640000Y-63500000D03*
X165100000Y-63500000D03*
X165100000Y-48260000D03*
X167640000Y-48260000D03*
X170180000Y-48260000D03*
X172720000Y-48260000D03*
X175260000Y-48260000D03*
D34*
X175260000Y-65379600D03*
X172720000Y-65379600D03*
X170180000Y-65379600D03*
X167640000Y-65379600D03*
X165100000Y-65379600D03*
X165100000Y-46380400D03*
X167640000Y-46380400D03*
X170180000Y-46380400D03*
X172720000Y-46380400D03*
X175260000Y-46380400D03*
D32*
X190500000Y-63500000D03*
D33*
X187960000Y-63500000D03*
X185420000Y-63500000D03*
X182880000Y-63500000D03*
X180340000Y-63500000D03*
X180340000Y-48260000D03*
X182880000Y-48260000D03*
X185420000Y-48260000D03*
X187960000Y-48260000D03*
X190500000Y-48260000D03*
D34*
X190500000Y-65379600D03*
X187960000Y-65379600D03*
X185420000Y-65379600D03*
X182880000Y-65379600D03*
X180340000Y-65379600D03*
X180340000Y-46380400D03*
X182880000Y-46380400D03*
X185420000Y-46380400D03*
X187960000Y-46380400D03*
X190500000Y-46380400D03*
D26*
X160213000Y-93218000D03*
X162113000Y-93218000D03*
M02*
