G04 #@! TF.FileFunction,Soldermask,Bot*
%FSLAX46Y46*%
G04 Gerber Fmt 4.6, Leading zero omitted, Abs format (unit mm)*
G04 Created by KiCad (PCBNEW (2015-05-26 BZR 5680)-product) date 2015 June 10, Wednesday 08:28:10*
%MOMM*%
G01*
G04 APERTURE LIST*
%ADD10C,0.100000*%
%ADD11R,1.198880X1.198880*%
%ADD12R,1.727200X2.032000*%
%ADD13O,1.727200X2.032000*%
%ADD14R,1.500000X1.500000*%
%ADD15C,1.500000*%
%ADD16R,1.500000X1.300000*%
G04 APERTURE END LIST*
D10*
D11*
X115570000Y-54643020D03*
X115570000Y-52544980D03*
X146050000Y-62009020D03*
X146050000Y-59910980D03*
X145796000Y-40860980D03*
X145796000Y-42959020D03*
D12*
X157480000Y-66040000D03*
D13*
X154940000Y-66040000D03*
X152400000Y-66040000D03*
X149860000Y-66040000D03*
X147320000Y-66040000D03*
D11*
X115570000Y-47718980D03*
X115570000Y-49817020D03*
D14*
X98552000Y-59690000D03*
D15*
X96012000Y-59690000D03*
X93472000Y-59690000D03*
X90932000Y-59690000D03*
X88392000Y-59690000D03*
X88392000Y-44450000D03*
X90932000Y-44450000D03*
X93472000Y-44450000D03*
X96012000Y-44450000D03*
X98552000Y-44450000D03*
D14*
X111506000Y-59690000D03*
D15*
X108966000Y-59690000D03*
X106426000Y-59690000D03*
X103886000Y-59690000D03*
X101346000Y-59690000D03*
X101346000Y-44450000D03*
X103886000Y-44450000D03*
X106426000Y-44450000D03*
X108966000Y-44450000D03*
X111506000Y-44450000D03*
D14*
X128778000Y-59690000D03*
D15*
X126238000Y-59690000D03*
X123698000Y-59690000D03*
X121158000Y-59690000D03*
X118618000Y-59690000D03*
X118618000Y-44450000D03*
X121158000Y-44450000D03*
X123698000Y-44450000D03*
X126238000Y-44450000D03*
X128778000Y-44450000D03*
D14*
X141732000Y-59690000D03*
D15*
X139192000Y-59690000D03*
X136652000Y-59690000D03*
X134112000Y-59690000D03*
X131572000Y-59690000D03*
X131572000Y-44450000D03*
X134112000Y-44450000D03*
X136652000Y-44450000D03*
X139192000Y-44450000D03*
X141732000Y-44450000D03*
D16*
X148764000Y-61976000D03*
X151464000Y-61976000D03*
X145970000Y-38100000D03*
X148670000Y-38100000D03*
M02*
