G04 #@! TF.FileFunction,Copper,L1,Top,Signal*
%FSLAX46Y46*%
G04 Gerber Fmt 4.6, Leading zero omitted, Abs format (unit mm)*
G04 Created by KiCad (PCBNEW no-vcs-found-product) date Fri 24 Jul 2015 19:01:22 CEST*
%MOMM*%
G01*
G04 APERTURE LIST*
%ADD10C,0.100000*%
%ADD11R,1.500000X1.250000*%
%ADD12R,2.032000X1.727200*%
%ADD13O,2.032000X1.727200*%
%ADD14R,0.300000X0.525000*%
%ADD15R,1.500000X1.300000*%
%ADD16R,1.300000X1.500000*%
%ADD17R,0.600000X1.600000*%
%ADD18R,0.600000X1.500000*%
%ADD19R,1.727200X1.727200*%
%ADD20O,1.727200X1.727200*%
%ADD21R,1.727200X2.032000*%
%ADD22O,1.727200X2.032000*%
%ADD23R,0.600000X1.200000*%
%ADD24R,1.200000X0.600000*%
%ADD25C,0.685800*%
%ADD26C,0.609600*%
%ADD27C,0.304800*%
%ADD28C,0.152400*%
G04 APERTURE END LIST*
D10*
D11*
X157587000Y-80899000D03*
X155087000Y-80899000D03*
D12*
X119380000Y-83820000D03*
D13*
X119380000Y-86360000D03*
X119380000Y-88900000D03*
X119380000Y-91440000D03*
X119380000Y-93980000D03*
X119380000Y-96520000D03*
D12*
X201930000Y-81280000D03*
D13*
X201930000Y-83820000D03*
X201930000Y-86360000D03*
X201930000Y-88900000D03*
X201930000Y-91440000D03*
X201930000Y-93980000D03*
X201930000Y-96520000D03*
D14*
X127000000Y-84125500D03*
X127000000Y-85800500D03*
X127650000Y-85800500D03*
X126350000Y-85800500D03*
X126350000Y-84125500D03*
X127650000Y-84125500D03*
X127000000Y-89078500D03*
X127000000Y-90753500D03*
X127650000Y-90753500D03*
X126350000Y-90753500D03*
X126350000Y-89078500D03*
X127650000Y-89078500D03*
X126873000Y-94412500D03*
X126873000Y-96087500D03*
X127523000Y-96087500D03*
X126223000Y-96087500D03*
X126223000Y-94412500D03*
X127523000Y-94412500D03*
D15*
X160067000Y-80899000D03*
X162767000Y-80899000D03*
X132000000Y-83820000D03*
X134700000Y-83820000D03*
X132000000Y-86360000D03*
X134700000Y-86360000D03*
X132000000Y-88900000D03*
X134700000Y-88900000D03*
X132000000Y-91440000D03*
X134700000Y-91440000D03*
X136191000Y-95885000D03*
X138891000Y-95885000D03*
D16*
X133223000Y-97235000D03*
X133223000Y-94535000D03*
D15*
X190707000Y-85471000D03*
X188007000Y-85471000D03*
X196295000Y-86995000D03*
X193595000Y-86995000D03*
X190580000Y-89027000D03*
X187880000Y-89027000D03*
X190580000Y-91440000D03*
X187880000Y-91440000D03*
X187405000Y-94615000D03*
X184705000Y-94615000D03*
X190453000Y-82042000D03*
X187753000Y-82042000D03*
X196168000Y-82042000D03*
X193468000Y-82042000D03*
D17*
X147447000Y-83822000D03*
X146177000Y-83822000D03*
X144907000Y-83822000D03*
X143637000Y-83822000D03*
X142367000Y-83820000D03*
D18*
X141097000Y-83822000D03*
D17*
X139827000Y-83822000D03*
X138557000Y-83822000D03*
X138557000Y-90422000D03*
X139827000Y-90422000D03*
X141097000Y-90422000D03*
X142367000Y-90422000D03*
X143637000Y-90422000D03*
X144907000Y-90422000D03*
X146177000Y-90422000D03*
X147447000Y-90422000D03*
X173228000Y-90549000D03*
X174498000Y-90549000D03*
X175768000Y-90549000D03*
X177038000Y-90549000D03*
X178308000Y-90551000D03*
D18*
X179578000Y-90549000D03*
D17*
X180848000Y-90549000D03*
X182118000Y-90549000D03*
X182118000Y-83949000D03*
X180848000Y-83949000D03*
X179578000Y-83949000D03*
X178308000Y-83949000D03*
X177038000Y-83949000D03*
X175768000Y-83949000D03*
X174498000Y-83949000D03*
X173228000Y-83949000D03*
D19*
X171069000Y-94234000D03*
D20*
X171069000Y-96774000D03*
X168529000Y-94234000D03*
X168529000Y-96774000D03*
X165989000Y-94234000D03*
X165989000Y-96774000D03*
D21*
X143256000Y-95631000D03*
D22*
X145796000Y-95631000D03*
X148336000Y-95631000D03*
X150876000Y-95631000D03*
X153416000Y-95631000D03*
D23*
X161042000Y-83253000D03*
X160242000Y-83253000D03*
X159442000Y-83253000D03*
X158642000Y-83253000D03*
X157842000Y-83253000D03*
X157042000Y-83253000D03*
X156242000Y-83253000D03*
X155442000Y-83253000D03*
D24*
X153992000Y-84703000D03*
X153992000Y-85503000D03*
X153992000Y-86303000D03*
X153992000Y-87103000D03*
X153992000Y-87903000D03*
X153992000Y-88703000D03*
X153992000Y-89503000D03*
X153992000Y-90303000D03*
D23*
X155442000Y-91753000D03*
X156242000Y-91753000D03*
X157042000Y-91753000D03*
X157842000Y-91753000D03*
X158642000Y-91753000D03*
X159442000Y-91753000D03*
X160242000Y-91753000D03*
X161042000Y-91753000D03*
D24*
X162492000Y-90303000D03*
X162492000Y-89503000D03*
X162492000Y-88703000D03*
X162492000Y-87903000D03*
X162492000Y-87103000D03*
X162492000Y-86303000D03*
X162492000Y-85503000D03*
X162492000Y-84703000D03*
D25*
X164846000Y-80899000D03*
X175768000Y-88646000D03*
X173228000Y-82042000D03*
X147447000Y-92456000D03*
X141097000Y-82042000D03*
X128905000Y-96266000D03*
X128905000Y-98171000D03*
X156210000Y-93472000D03*
X152527000Y-89535000D03*
X155321000Y-90297000D03*
X157988000Y-84709000D03*
X150368000Y-83820000D03*
X159766000Y-85471000D03*
X150241000Y-85471000D03*
X160528000Y-86487000D03*
X150241000Y-86487000D03*
D26*
X162767000Y-80899000D02*
X164846000Y-80899000D01*
D27*
X175768000Y-90549000D02*
X175768000Y-88646000D01*
D28*
X175768000Y-90549000D02*
X175768000Y-91313000D01*
D27*
X173228000Y-83949000D02*
X173228000Y-82042000D01*
X175768000Y-90549000D02*
X177038000Y-90549000D01*
X147447000Y-90422000D02*
X147447000Y-92456000D01*
X141097000Y-83822000D02*
X141097000Y-82042000D01*
X127523000Y-96087500D02*
X128726500Y-96087500D01*
X128726500Y-96087500D02*
X128905000Y-96266000D01*
D28*
X178308000Y-90551000D02*
X178308000Y-90932000D01*
D27*
X156210000Y-93472000D02*
X156242000Y-93440000D01*
X156242000Y-93440000D02*
X156242000Y-91753000D01*
X157587000Y-80899000D02*
X157587000Y-81300000D01*
X157587000Y-81300000D02*
X157042000Y-81845000D01*
X157042000Y-81845000D02*
X157042000Y-83253000D01*
X157587000Y-80899000D02*
X157587000Y-81006000D01*
X157587000Y-81006000D02*
X158642000Y-82061000D01*
X158642000Y-82061000D02*
X158642000Y-83253000D01*
D26*
X160067000Y-80899000D02*
X157587000Y-80899000D01*
D27*
X157042000Y-83253000D02*
X157042000Y-88576000D01*
X157042000Y-88576000D02*
X156242000Y-89376000D01*
X156242000Y-89376000D02*
X156242000Y-91753000D01*
X152559000Y-89503000D02*
X153992000Y-89503000D01*
X152527000Y-89535000D02*
X152559000Y-89503000D01*
X148336000Y-95631000D02*
X148336000Y-95504000D01*
X148336000Y-95504000D02*
X150368000Y-93472000D01*
X155442000Y-92589000D02*
X155442000Y-91753000D01*
X154559000Y-93472000D02*
X155442000Y-92589000D01*
X150368000Y-93472000D02*
X154559000Y-93472000D01*
X119380000Y-83820000D02*
X121412000Y-83820000D01*
X121412000Y-83820000D02*
X122809000Y-82423000D01*
X122809000Y-82423000D02*
X127000000Y-82423000D01*
X127000000Y-82423000D02*
X127650000Y-83073000D01*
X127650000Y-83073000D02*
X127650000Y-84125500D01*
X119380000Y-86360000D02*
X121539000Y-86360000D01*
X121539000Y-86360000D02*
X122098500Y-85800500D01*
X122098500Y-85800500D02*
X126350000Y-85800500D01*
X119380000Y-88900000D02*
X123571000Y-88900000D01*
X123571000Y-88900000D02*
X124587000Y-87884000D01*
X124587000Y-87884000D02*
X127254000Y-87884000D01*
X127254000Y-87884000D02*
X127650000Y-88280000D01*
X127650000Y-88280000D02*
X127650000Y-89078500D01*
X119380000Y-91440000D02*
X124079000Y-91440000D01*
X124079000Y-91440000D02*
X124765500Y-90753500D01*
X124765500Y-90753500D02*
X126350000Y-90753500D01*
X119380000Y-93980000D02*
X123063000Y-93980000D01*
X123063000Y-93980000D02*
X123825000Y-93218000D01*
X123825000Y-93218000D02*
X127127000Y-93218000D01*
X127127000Y-93218000D02*
X127523000Y-93614000D01*
X127523000Y-93614000D02*
X127523000Y-94412500D01*
X119380000Y-96520000D02*
X123952000Y-96520000D01*
X123952000Y-96520000D02*
X124384500Y-96087500D01*
X124384500Y-96087500D02*
X126223000Y-96087500D01*
X132000000Y-83820000D02*
X129667000Y-83820000D01*
X129667000Y-83820000D02*
X128524000Y-84963000D01*
X128524000Y-84963000D02*
X127254000Y-84963000D01*
X127254000Y-84963000D02*
X127000000Y-84709000D01*
X127000000Y-84709000D02*
X127000000Y-84125500D01*
X132000000Y-86360000D02*
X130556000Y-86360000D01*
X130556000Y-86360000D02*
X130048000Y-86868000D01*
X130048000Y-86868000D02*
X127127000Y-86868000D01*
X127127000Y-86868000D02*
X127000000Y-86741000D01*
X127000000Y-86741000D02*
X127000000Y-85800500D01*
X132000000Y-88900000D02*
X129794000Y-88900000D01*
X129794000Y-88900000D02*
X128778000Y-89916000D01*
X128778000Y-89916000D02*
X127381000Y-89916000D01*
X127381000Y-89916000D02*
X127000000Y-89535000D01*
X127000000Y-89535000D02*
X127000000Y-89078500D01*
X132000000Y-91440000D02*
X130302000Y-91440000D01*
X130302000Y-91440000D02*
X129794000Y-91948000D01*
X129794000Y-91948000D02*
X127254000Y-91948000D01*
X127254000Y-91948000D02*
X127000000Y-91694000D01*
X127000000Y-91694000D02*
X127000000Y-90753500D01*
X126873000Y-94412500D02*
X126873000Y-94996000D01*
X126873000Y-94996000D02*
X127127000Y-95250000D01*
X127127000Y-95250000D02*
X130937000Y-95250000D01*
X130937000Y-95250000D02*
X131572000Y-95885000D01*
X131572000Y-95885000D02*
X136191000Y-95885000D01*
X133223000Y-97235000D02*
X127174000Y-97235000D01*
X127174000Y-97235000D02*
X126873000Y-96934000D01*
X126873000Y-96934000D02*
X126873000Y-96087500D01*
X134700000Y-83820000D02*
X135509000Y-83820000D01*
X146177000Y-89154000D02*
X146177000Y-90422000D01*
X144145000Y-87122000D02*
X146177000Y-89154000D01*
X137287000Y-87122000D02*
X144145000Y-87122000D01*
X136779000Y-86614000D02*
X137287000Y-87122000D01*
X136779000Y-85090000D02*
X136779000Y-86614000D01*
X135509000Y-83820000D02*
X136779000Y-85090000D01*
D28*
X134700000Y-83820000D02*
X134700000Y-84027000D01*
X134700000Y-83820000D02*
X135128000Y-83820000D01*
D27*
X134700000Y-86360000D02*
X135763000Y-86360000D01*
X144907000Y-89027000D02*
X144907000Y-90422000D01*
X143510000Y-87630000D02*
X144907000Y-89027000D01*
X137033000Y-87630000D02*
X143510000Y-87630000D01*
X135763000Y-86360000D02*
X137033000Y-87630000D01*
D28*
X134700000Y-86360000D02*
X135128000Y-86360000D01*
D27*
X134700000Y-88900000D02*
X136906000Y-88900000D01*
X143637000Y-89281000D02*
X143637000Y-90422000D01*
X142621000Y-88265000D02*
X143637000Y-89281000D01*
X137541000Y-88265000D02*
X142621000Y-88265000D01*
X136906000Y-88900000D02*
X137541000Y-88265000D01*
X134700000Y-91440000D02*
X135890000Y-91440000D01*
X142367000Y-89535000D02*
X142367000Y-90422000D01*
X141605000Y-88773000D02*
X142367000Y-89535000D01*
X137795000Y-88773000D02*
X141605000Y-88773000D01*
X136779000Y-89789000D02*
X137795000Y-88773000D01*
X136779000Y-90551000D02*
X136779000Y-89789000D01*
X135890000Y-91440000D02*
X136779000Y-90551000D01*
D28*
X138891000Y-95885000D02*
X139446000Y-95885000D01*
D27*
X139446000Y-95885000D02*
X141097000Y-94234000D01*
X141097000Y-94234000D02*
X141097000Y-90422000D01*
X133223000Y-94535000D02*
X138764000Y-94535000D01*
X138764000Y-94535000D02*
X139827000Y-93472000D01*
X139827000Y-93472000D02*
X139827000Y-90422000D01*
X177038000Y-83949000D02*
X177038000Y-83058000D01*
X185928000Y-85471000D02*
X188007000Y-85471000D01*
X185166000Y-84709000D02*
X185928000Y-85471000D01*
X185166000Y-82169000D02*
X185166000Y-84709000D01*
X184023000Y-81026000D02*
X185166000Y-82169000D01*
X179070000Y-81026000D02*
X184023000Y-81026000D01*
X177038000Y-83058000D02*
X179070000Y-81026000D01*
D28*
X188007000Y-85471000D02*
X187579000Y-85471000D01*
D27*
X178308000Y-83949000D02*
X178308000Y-82931000D01*
X185420000Y-86995000D02*
X193595000Y-86995000D01*
X184658000Y-86233000D02*
X185420000Y-86995000D01*
X184658000Y-82423000D02*
X184658000Y-86233000D01*
X183769000Y-81534000D02*
X184658000Y-82423000D01*
X179705000Y-81534000D02*
X183769000Y-81534000D01*
X178308000Y-82931000D02*
X179705000Y-81534000D01*
X179578000Y-83949000D02*
X179578000Y-83439000D01*
X179578000Y-83439000D02*
X180975000Y-82042000D01*
X180975000Y-82042000D02*
X183515000Y-82042000D01*
X183515000Y-82042000D02*
X184150000Y-82677000D01*
X184150000Y-82677000D02*
X184150000Y-88265000D01*
X184150000Y-88265000D02*
X184912000Y-89027000D01*
X184912000Y-89027000D02*
X187880000Y-89027000D01*
D28*
X187880000Y-89027000D02*
X187880000Y-88439000D01*
D27*
X180848000Y-83949000D02*
X180848000Y-82931000D01*
X180848000Y-82931000D02*
X181203598Y-82575402D01*
X181203598Y-82575402D02*
X183286402Y-82575402D01*
X183286402Y-82575402D02*
X183642000Y-82931000D01*
X183642000Y-82931000D02*
X183642000Y-88646000D01*
X183642000Y-88646000D02*
X186436000Y-91440000D01*
X186436000Y-91440000D02*
X187880000Y-91440000D01*
D28*
X187880000Y-91440000D02*
X187579000Y-91440000D01*
X182118000Y-83949000D02*
X182118000Y-84582000D01*
D27*
X182118000Y-84582000D02*
X183134000Y-85598000D01*
X183134000Y-85598000D02*
X183134000Y-88900000D01*
X183134000Y-88900000D02*
X184705000Y-90471000D01*
X184705000Y-90471000D02*
X184705000Y-94615000D01*
D28*
X182372000Y-83820000D02*
X182118000Y-83949000D01*
X187753000Y-82042000D02*
X187753000Y-81581000D01*
D27*
X187753000Y-81581000D02*
X186182000Y-80010000D01*
X174498000Y-81661000D02*
X174498000Y-83949000D01*
X176149000Y-80010000D02*
X174498000Y-81661000D01*
X186182000Y-80010000D02*
X176149000Y-80010000D01*
X175768000Y-83949000D02*
X175768000Y-83058000D01*
X191817000Y-83693000D02*
X193468000Y-82042000D01*
X186182000Y-83693000D02*
X191817000Y-83693000D01*
X185674000Y-83185000D02*
X186182000Y-83693000D01*
X185674000Y-81915000D02*
X185674000Y-83185000D01*
X184277000Y-80518000D02*
X185674000Y-81915000D01*
X178308000Y-80518000D02*
X184277000Y-80518000D01*
X175768000Y-83058000D02*
X178308000Y-80518000D01*
D28*
X193468000Y-82042000D02*
X193468000Y-82122000D01*
D27*
X190707000Y-85471000D02*
X198882000Y-85471000D01*
X198882000Y-85471000D02*
X199771000Y-86360000D01*
X199771000Y-86360000D02*
X201930000Y-86360000D01*
X196295000Y-86995000D02*
X197612000Y-86995000D01*
X197612000Y-86995000D02*
X199517000Y-88900000D01*
X199517000Y-88900000D02*
X201930000Y-88900000D01*
X190580000Y-89027000D02*
X194691000Y-89027000D01*
X194691000Y-89027000D02*
X197104000Y-91440000D01*
X197104000Y-91440000D02*
X201930000Y-91440000D01*
X190580000Y-91440000D02*
X195961000Y-91440000D01*
X195961000Y-91440000D02*
X198501000Y-93980000D01*
X198501000Y-93980000D02*
X201930000Y-93980000D01*
X187405000Y-94615000D02*
X188849000Y-94615000D01*
X188849000Y-94615000D02*
X190754000Y-96520000D01*
X190754000Y-96520000D02*
X201930000Y-96520000D01*
D28*
X190453000Y-82042000D02*
X190453000Y-81454000D01*
D27*
X190453000Y-81454000D02*
X192024000Y-79883000D01*
X200533000Y-79883000D02*
X201930000Y-81280000D01*
X192024000Y-79883000D02*
X200533000Y-79883000D01*
X196168000Y-82042000D02*
X197231000Y-82042000D01*
X197231000Y-82042000D02*
X199009000Y-83820000D01*
X199009000Y-83820000D02*
X201930000Y-83820000D01*
X179578000Y-90549000D02*
X179578000Y-89281000D01*
X164660000Y-83253000D02*
X161042000Y-83253000D01*
X168910000Y-87503000D02*
X164660000Y-83253000D01*
X177800000Y-87503000D02*
X168910000Y-87503000D01*
X179578000Y-89281000D02*
X177800000Y-87503000D01*
X145796000Y-95631000D02*
X145796000Y-95250000D01*
X145796000Y-95250000D02*
X152343000Y-88703000D01*
X152343000Y-88703000D02*
X153992000Y-88703000D01*
X145796000Y-95631000D02*
X145923000Y-95631000D01*
X155321000Y-90297000D02*
X155315000Y-90303000D01*
X155315000Y-90303000D02*
X153992000Y-90303000D01*
X147447000Y-83822000D02*
X150366000Y-83822000D01*
X160242000Y-90138000D02*
X160242000Y-91753000D01*
X159004000Y-88900000D02*
X160242000Y-90138000D01*
X159004000Y-85725000D02*
X159004000Y-88900000D01*
X157988000Y-84709000D02*
X159004000Y-85725000D01*
X150366000Y-83822000D02*
X150368000Y-83820000D01*
X146177000Y-83822000D02*
X146177000Y-84836000D01*
X161042000Y-90049000D02*
X161042000Y-91753000D01*
X159766000Y-88773000D02*
X161042000Y-90049000D01*
X159766000Y-85471000D02*
X159766000Y-88773000D01*
X146812000Y-85471000D02*
X150241000Y-85471000D01*
X146177000Y-84836000D02*
X146812000Y-85471000D01*
X146177000Y-83822000D02*
X146177000Y-84455000D01*
X144907000Y-83822000D02*
X144907000Y-85090000D01*
X161677000Y-90303000D02*
X162492000Y-90303000D01*
X161544000Y-90170000D02*
X161677000Y-90303000D01*
X161544000Y-89662000D02*
X161544000Y-90170000D01*
X160401000Y-88519000D02*
X161544000Y-89662000D01*
X160401000Y-86614000D02*
X160401000Y-88519000D01*
X160528000Y-86487000D02*
X160401000Y-86614000D01*
X146304000Y-86487000D02*
X150241000Y-86487000D01*
X144907000Y-85090000D02*
X146304000Y-86487000D01*
X144907000Y-83822000D02*
X144907000Y-84201000D01*
X180848000Y-90549000D02*
X180848000Y-91567000D01*
X164789000Y-86303000D02*
X162492000Y-86303000D01*
X169545000Y-91059000D02*
X164789000Y-86303000D01*
X171323000Y-91059000D02*
X169545000Y-91059000D01*
X172466000Y-92202000D02*
X171323000Y-91059000D01*
X180213000Y-92202000D02*
X172466000Y-92202000D01*
X180848000Y-91567000D02*
X180213000Y-92202000D01*
X173228000Y-90549000D02*
X170051000Y-90549000D01*
X165005000Y-85503000D02*
X162492000Y-85503000D01*
X170051000Y-90549000D02*
X165005000Y-85503000D01*
X174498000Y-90549000D02*
X174498000Y-89662000D01*
X165221000Y-84703000D02*
X162492000Y-84703000D01*
X169418000Y-88900000D02*
X165221000Y-84703000D01*
X173736000Y-88900000D02*
X169418000Y-88900000D01*
X174498000Y-89662000D02*
X173736000Y-88900000D01*
D28*
G36*
X205461400Y-98781400D02*
X117118600Y-98781400D01*
X117118600Y-93980000D01*
X118111017Y-93980000D01*
X118194156Y-94397967D01*
X118430915Y-94752302D01*
X118785250Y-94989061D01*
X119203217Y-95072200D01*
X119556783Y-95072200D01*
X119974750Y-94989061D01*
X120329085Y-94752302D01*
X120565844Y-94397967D01*
X120573197Y-94361000D01*
X123063000Y-94361000D01*
X123208803Y-94331998D01*
X123332408Y-94249408D01*
X123982815Y-93599000D01*
X126969184Y-93599000D01*
X127142000Y-93771815D01*
X127142000Y-93954607D01*
X127112871Y-93934944D01*
X127023000Y-93916921D01*
X126723000Y-93916921D01*
X126635836Y-93933833D01*
X126559226Y-93984158D01*
X126507944Y-94060129D01*
X126489921Y-94150000D01*
X126489921Y-94675000D01*
X126492000Y-94685715D01*
X126492000Y-94996000D01*
X126521002Y-95141803D01*
X126603592Y-95265408D01*
X126857592Y-95519408D01*
X126966116Y-95591921D01*
X126723000Y-95591921D01*
X126635836Y-95608833D01*
X126559226Y-95659158D01*
X126548207Y-95675482D01*
X126538842Y-95661226D01*
X126462871Y-95609944D01*
X126373000Y-95591921D01*
X126073000Y-95591921D01*
X125985836Y-95608833D01*
X125909226Y-95659158D01*
X125877269Y-95706500D01*
X124384500Y-95706500D01*
X124238698Y-95735502D01*
X124115092Y-95818092D01*
X124115090Y-95818095D01*
X123794184Y-96139000D01*
X120573197Y-96139000D01*
X120565844Y-96102033D01*
X120329085Y-95747698D01*
X119974750Y-95510939D01*
X119556783Y-95427800D01*
X119203217Y-95427800D01*
X118785250Y-95510939D01*
X118430915Y-95747698D01*
X118194156Y-96102033D01*
X118111017Y-96520000D01*
X118194156Y-96937967D01*
X118430915Y-97292302D01*
X118785250Y-97529061D01*
X119203217Y-97612200D01*
X119556783Y-97612200D01*
X119974750Y-97529061D01*
X120329085Y-97292302D01*
X120565844Y-96937967D01*
X120573197Y-96901000D01*
X123952000Y-96901000D01*
X124097803Y-96871998D01*
X124221408Y-96789408D01*
X124542315Y-96468500D01*
X125877418Y-96468500D01*
X125907158Y-96513774D01*
X125983129Y-96565056D01*
X126073000Y-96583079D01*
X126373000Y-96583079D01*
X126460164Y-96566167D01*
X126492000Y-96545254D01*
X126492000Y-96934000D01*
X126521002Y-97079803D01*
X126603592Y-97203408D01*
X126904590Y-97504405D01*
X126904592Y-97504408D01*
X126978688Y-97553917D01*
X127028197Y-97586998D01*
X127174000Y-97616000D01*
X132339921Y-97616000D01*
X132339921Y-97985000D01*
X132356833Y-98072164D01*
X132407158Y-98148774D01*
X132483129Y-98200056D01*
X132573000Y-98218079D01*
X133873000Y-98218079D01*
X133960164Y-98201167D01*
X134036774Y-98150842D01*
X134088056Y-98074871D01*
X134106079Y-97985000D01*
X134106079Y-96485000D01*
X134089167Y-96397836D01*
X134038842Y-96321226D01*
X133962871Y-96269944D01*
X133943204Y-96266000D01*
X135207921Y-96266000D01*
X135207921Y-96535000D01*
X135224833Y-96622164D01*
X135275158Y-96698774D01*
X135351129Y-96750056D01*
X135441000Y-96768079D01*
X136941000Y-96768079D01*
X137028164Y-96751167D01*
X137104774Y-96700842D01*
X137156056Y-96624871D01*
X137174079Y-96535000D01*
X137174079Y-95235000D01*
X137907921Y-95235000D01*
X137907921Y-96535000D01*
X137924833Y-96622164D01*
X137975158Y-96698774D01*
X138051129Y-96750056D01*
X138141000Y-96768079D01*
X139641000Y-96768079D01*
X139728164Y-96751167D01*
X139804774Y-96700842D01*
X139856056Y-96624871D01*
X139874079Y-96535000D01*
X139874079Y-95995737D01*
X141254815Y-94615000D01*
X142159321Y-94615000D01*
X142159321Y-96647000D01*
X142176233Y-96734164D01*
X142226558Y-96810774D01*
X142302529Y-96862056D01*
X142392400Y-96880079D01*
X144119600Y-96880079D01*
X144206764Y-96863167D01*
X144283374Y-96812842D01*
X144334656Y-96736871D01*
X144352679Y-96647000D01*
X144352679Y-95454217D01*
X144703800Y-95454217D01*
X144703800Y-95807783D01*
X144786939Y-96225750D01*
X145023698Y-96580085D01*
X145378033Y-96816844D01*
X145796000Y-96899983D01*
X146213967Y-96816844D01*
X146568302Y-96580085D01*
X146805061Y-96225750D01*
X146888200Y-95807783D01*
X146888200Y-95454217D01*
X146805061Y-95036250D01*
X146702324Y-94882492D01*
X151955417Y-89629399D01*
X151955401Y-89648180D01*
X152042224Y-89858306D01*
X152202849Y-90019211D01*
X152412823Y-90106400D01*
X152640180Y-90106599D01*
X152850306Y-90019776D01*
X152986319Y-89884000D01*
X153174637Y-89884000D01*
X153175833Y-89890164D01*
X153184026Y-89902637D01*
X153176944Y-89913129D01*
X153158921Y-90003000D01*
X153158921Y-90603000D01*
X153175833Y-90690164D01*
X153226158Y-90766774D01*
X153302129Y-90818056D01*
X153392000Y-90836079D01*
X154592000Y-90836079D01*
X154679164Y-90819167D01*
X154755774Y-90768842D01*
X154807056Y-90692871D01*
X154808835Y-90684000D01*
X154899807Y-90684000D01*
X154996849Y-90781211D01*
X155206823Y-90868400D01*
X155434180Y-90868599D01*
X155644306Y-90781776D01*
X155805211Y-90621151D01*
X155861000Y-90486796D01*
X155861000Y-90935637D01*
X155854836Y-90936833D01*
X155842363Y-90945026D01*
X155831871Y-90937944D01*
X155742000Y-90919921D01*
X155142000Y-90919921D01*
X155054836Y-90936833D01*
X154978226Y-90987158D01*
X154926944Y-91063129D01*
X154908921Y-91153000D01*
X154908921Y-92353000D01*
X154925833Y-92440164D01*
X154975862Y-92516323D01*
X154401184Y-93091000D01*
X150368000Y-93091000D01*
X150222197Y-93120002D01*
X150098592Y-93202592D01*
X148815148Y-94486036D01*
X148753967Y-94445156D01*
X148336000Y-94362017D01*
X147918033Y-94445156D01*
X147563698Y-94681915D01*
X147326939Y-95036250D01*
X147243800Y-95454217D01*
X147243800Y-95807783D01*
X147326939Y-96225750D01*
X147563698Y-96580085D01*
X147918033Y-96816844D01*
X148336000Y-96899983D01*
X148753967Y-96816844D01*
X149108302Y-96580085D01*
X149345061Y-96225750D01*
X149428200Y-95807783D01*
X149428200Y-95454217D01*
X149783800Y-95454217D01*
X149783800Y-95807783D01*
X149866939Y-96225750D01*
X150103698Y-96580085D01*
X150458033Y-96816844D01*
X150876000Y-96899983D01*
X151293967Y-96816844D01*
X151390110Y-96752603D01*
X167436800Y-96752603D01*
X167436800Y-96795397D01*
X167519939Y-97213364D01*
X167756698Y-97567699D01*
X168111033Y-97804458D01*
X168529000Y-97887597D01*
X168946967Y-97804458D01*
X169301302Y-97567699D01*
X169538061Y-97213364D01*
X169621200Y-96795397D01*
X169621200Y-96752603D01*
X169976800Y-96752603D01*
X169976800Y-96795397D01*
X170059939Y-97213364D01*
X170296698Y-97567699D01*
X170651033Y-97804458D01*
X171069000Y-97887597D01*
X171486967Y-97804458D01*
X171841302Y-97567699D01*
X172078061Y-97213364D01*
X172161200Y-96795397D01*
X172161200Y-96752603D01*
X172078061Y-96334636D01*
X171841302Y-95980301D01*
X171486967Y-95743542D01*
X171069000Y-95660403D01*
X170651033Y-95743542D01*
X170296698Y-95980301D01*
X170059939Y-96334636D01*
X169976800Y-96752603D01*
X169621200Y-96752603D01*
X169621200Y-96752603D01*
X169538061Y-96334636D01*
X169301302Y-95980301D01*
X168946967Y-95743542D01*
X168529000Y-95660403D01*
X168111033Y-95743542D01*
X167756698Y-95980301D01*
X167519939Y-96334636D01*
X167436800Y-96752603D01*
X151390110Y-96752603D01*
X151648302Y-96580085D01*
X151885061Y-96225750D01*
X151968200Y-95807783D01*
X151968200Y-95454217D01*
X151885061Y-95036250D01*
X151648302Y-94681915D01*
X151293967Y-94445156D01*
X150876000Y-94362017D01*
X150458033Y-94445156D01*
X150103698Y-94681915D01*
X149866939Y-95036250D01*
X149783800Y-95454217D01*
X149428200Y-95454217D01*
X149428200Y-95454217D01*
X149345061Y-95036250D01*
X149344062Y-95034754D01*
X150166213Y-94212603D01*
X164896800Y-94212603D01*
X164896800Y-94255397D01*
X164979939Y-94673364D01*
X165216698Y-95027699D01*
X165571033Y-95264458D01*
X165989000Y-95347597D01*
X166406967Y-95264458D01*
X166761302Y-95027699D01*
X166998061Y-94673364D01*
X167081200Y-94255397D01*
X167081200Y-94212603D01*
X167436800Y-94212603D01*
X167436800Y-94255397D01*
X167519939Y-94673364D01*
X167756698Y-95027699D01*
X168111033Y-95264458D01*
X168529000Y-95347597D01*
X168946967Y-95264458D01*
X169301302Y-95027699D01*
X169538061Y-94673364D01*
X169621200Y-94255397D01*
X169621200Y-94212603D01*
X169538061Y-93794636D01*
X169301302Y-93440301D01*
X169196688Y-93370400D01*
X169972321Y-93370400D01*
X169972321Y-95097600D01*
X169989233Y-95184764D01*
X170039558Y-95261374D01*
X170115529Y-95312656D01*
X170205400Y-95330679D01*
X171932600Y-95330679D01*
X172019764Y-95313767D01*
X172096374Y-95263442D01*
X172147656Y-95187471D01*
X172165679Y-95097600D01*
X172165679Y-93370400D01*
X172148767Y-93283236D01*
X172098442Y-93206626D01*
X172022471Y-93155344D01*
X171932600Y-93137321D01*
X170205400Y-93137321D01*
X170118236Y-93154233D01*
X170041626Y-93204558D01*
X169990344Y-93280529D01*
X169972321Y-93370400D01*
X169196688Y-93370400D01*
X168946967Y-93203542D01*
X168529000Y-93120403D01*
X168111033Y-93203542D01*
X167756698Y-93440301D01*
X167519939Y-93794636D01*
X167436800Y-94212603D01*
X167081200Y-94212603D01*
X167081200Y-94212603D01*
X166998061Y-93794636D01*
X166761302Y-93440301D01*
X166406967Y-93203542D01*
X165989000Y-93120403D01*
X165571033Y-93203542D01*
X165216698Y-93440301D01*
X164979939Y-93794636D01*
X164896800Y-94212603D01*
X150166213Y-94212603D01*
X150525816Y-93853000D01*
X154559000Y-93853000D01*
X154704803Y-93823998D01*
X154828408Y-93741408D01*
X155711405Y-92858410D01*
X155711408Y-92858408D01*
X155793998Y-92734802D01*
X155820454Y-92601802D01*
X155823001Y-92589000D01*
X155823000Y-92588995D01*
X155823000Y-92570363D01*
X155829164Y-92569167D01*
X155841637Y-92560974D01*
X155852129Y-92568056D01*
X155861000Y-92569835D01*
X155861000Y-93012873D01*
X155725789Y-93147849D01*
X155638600Y-93357823D01*
X155638401Y-93585180D01*
X155725224Y-93795306D01*
X155885849Y-93956211D01*
X156095823Y-94043400D01*
X156323180Y-94043599D01*
X156533306Y-93956776D01*
X156694211Y-93796151D01*
X156781400Y-93586177D01*
X156781599Y-93358820D01*
X156694776Y-93148694D01*
X156623000Y-93076793D01*
X156623000Y-92570363D01*
X156629164Y-92569167D01*
X156641637Y-92560974D01*
X156652129Y-92568056D01*
X156742000Y-92586079D01*
X157342000Y-92586079D01*
X157429164Y-92569167D01*
X157441637Y-92560974D01*
X157452129Y-92568056D01*
X157542000Y-92586079D01*
X158142000Y-92586079D01*
X158229164Y-92569167D01*
X158305774Y-92518842D01*
X158357056Y-92442871D01*
X158375079Y-92353000D01*
X158375079Y-91153000D01*
X158358167Y-91065836D01*
X158307842Y-90989226D01*
X158231871Y-90937944D01*
X158142000Y-90919921D01*
X157542000Y-90919921D01*
X157454836Y-90936833D01*
X157442363Y-90945026D01*
X157431871Y-90937944D01*
X157342000Y-90919921D01*
X156742000Y-90919921D01*
X156654836Y-90936833D01*
X156642363Y-90945026D01*
X156631871Y-90937944D01*
X156623000Y-90936165D01*
X156623000Y-89533816D01*
X157311408Y-88845408D01*
X157393998Y-88721802D01*
X157423001Y-88576000D01*
X157423000Y-88575995D01*
X157423000Y-84838151D01*
X157503224Y-85032306D01*
X157663849Y-85193211D01*
X157873823Y-85280400D01*
X158020713Y-85280529D01*
X158623000Y-85882816D01*
X158623000Y-88900000D01*
X158652002Y-89045803D01*
X158734592Y-89169408D01*
X159861000Y-90295815D01*
X159861000Y-90935637D01*
X159854836Y-90936833D01*
X159842363Y-90945026D01*
X159831871Y-90937944D01*
X159742000Y-90919921D01*
X159142000Y-90919921D01*
X159054836Y-90936833D01*
X158978226Y-90987158D01*
X158926944Y-91063129D01*
X158908921Y-91153000D01*
X158908921Y-92353000D01*
X158925833Y-92440164D01*
X158976158Y-92516774D01*
X159052129Y-92568056D01*
X159142000Y-92586079D01*
X159742000Y-92586079D01*
X159829164Y-92569167D01*
X159841637Y-92560974D01*
X159852129Y-92568056D01*
X159942000Y-92586079D01*
X160542000Y-92586079D01*
X160629164Y-92569167D01*
X160641637Y-92560974D01*
X160652129Y-92568056D01*
X160742000Y-92586079D01*
X161342000Y-92586079D01*
X161429164Y-92569167D01*
X161505774Y-92518842D01*
X161557056Y-92442871D01*
X161575079Y-92353000D01*
X161575079Y-91153000D01*
X161558167Y-91065836D01*
X161507842Y-90989226D01*
X161431871Y-90937944D01*
X161423000Y-90936165D01*
X161423000Y-90582703D01*
X161531198Y-90654998D01*
X161674542Y-90683511D01*
X161675833Y-90690164D01*
X161726158Y-90766774D01*
X161802129Y-90818056D01*
X161892000Y-90836079D01*
X163092000Y-90836079D01*
X163179164Y-90819167D01*
X163255774Y-90768842D01*
X163307056Y-90692871D01*
X163325079Y-90603000D01*
X163325079Y-90003000D01*
X163308167Y-89915836D01*
X163299974Y-89903363D01*
X163307056Y-89892871D01*
X163325079Y-89803000D01*
X163325079Y-89203000D01*
X163308167Y-89115836D01*
X163299974Y-89103363D01*
X163307056Y-89092871D01*
X163325079Y-89003000D01*
X163325079Y-88403000D01*
X163308167Y-88315836D01*
X163299974Y-88303363D01*
X163307056Y-88292871D01*
X163325079Y-88203000D01*
X163325079Y-87603000D01*
X163308167Y-87515836D01*
X163299974Y-87503363D01*
X163307056Y-87492871D01*
X163325079Y-87403000D01*
X163325079Y-86803000D01*
X163308167Y-86715836D01*
X163299974Y-86703363D01*
X163307056Y-86692871D01*
X163308835Y-86684000D01*
X164631184Y-86684000D01*
X169275590Y-91328405D01*
X169275592Y-91328408D01*
X169384238Y-91401002D01*
X169399198Y-91410998D01*
X169545000Y-91440001D01*
X169545005Y-91440000D01*
X171165184Y-91440000D01*
X172196592Y-92471408D01*
X172320197Y-92553998D01*
X172466000Y-92583000D01*
X180213000Y-92583000D01*
X180358803Y-92553998D01*
X180482408Y-92471408D01*
X181117405Y-91836410D01*
X181117408Y-91836408D01*
X181199998Y-91712802D01*
X181211391Y-91655526D01*
X181229001Y-91567000D01*
X181229000Y-91566995D01*
X181229000Y-91566363D01*
X181235164Y-91565167D01*
X181311774Y-91514842D01*
X181363056Y-91438871D01*
X181381079Y-91349000D01*
X181381079Y-89749000D01*
X181364167Y-89661836D01*
X181313842Y-89585226D01*
X181237871Y-89533944D01*
X181148000Y-89515921D01*
X180548000Y-89515921D01*
X180460836Y-89532833D01*
X180384226Y-89583158D01*
X180332944Y-89659129D01*
X180314921Y-89749000D01*
X180314921Y-91349000D01*
X180331833Y-91436164D01*
X180374725Y-91501459D01*
X180055184Y-91821000D01*
X172623816Y-91821000D01*
X171732816Y-90930000D01*
X172694921Y-90930000D01*
X172694921Y-91349000D01*
X172711833Y-91436164D01*
X172762158Y-91512774D01*
X172838129Y-91564056D01*
X172928000Y-91582079D01*
X173528000Y-91582079D01*
X173615164Y-91565167D01*
X173691774Y-91514842D01*
X173743056Y-91438871D01*
X173761079Y-91349000D01*
X173761079Y-89749000D01*
X173744167Y-89661836D01*
X173693842Y-89585226D01*
X173617871Y-89533944D01*
X173528000Y-89515921D01*
X172928000Y-89515921D01*
X172840836Y-89532833D01*
X172764226Y-89583158D01*
X172712944Y-89659129D01*
X172694921Y-89749000D01*
X172694921Y-90168000D01*
X170208815Y-90168000D01*
X169297932Y-89257117D01*
X169418000Y-89281000D01*
X173578184Y-89281000D01*
X173978496Y-89681311D01*
X173964921Y-89749000D01*
X173964921Y-91349000D01*
X173981833Y-91436164D01*
X174032158Y-91512774D01*
X174108129Y-91564056D01*
X174198000Y-91582079D01*
X174798000Y-91582079D01*
X174885164Y-91565167D01*
X174961774Y-91514842D01*
X175013056Y-91438871D01*
X175031079Y-91349000D01*
X175031079Y-89749000D01*
X175014167Y-89661836D01*
X174963842Y-89585226D01*
X174887871Y-89533944D01*
X174852101Y-89526771D01*
X174849998Y-89516198D01*
X174812114Y-89459500D01*
X174767408Y-89392592D01*
X174767405Y-89392590D01*
X174133996Y-88759180D01*
X175196401Y-88759180D01*
X175283224Y-88969306D01*
X175387000Y-89073263D01*
X175387000Y-89531637D01*
X175380836Y-89532833D01*
X175304226Y-89583158D01*
X175252944Y-89659129D01*
X175234921Y-89749000D01*
X175234921Y-91349000D01*
X175251833Y-91436164D01*
X175302158Y-91512774D01*
X175378129Y-91564056D01*
X175468000Y-91582079D01*
X175632622Y-91582079D01*
X175651358Y-91594598D01*
X175768000Y-91617800D01*
X175884642Y-91594598D01*
X175903378Y-91582079D01*
X176068000Y-91582079D01*
X176155164Y-91565167D01*
X176231774Y-91514842D01*
X176283056Y-91438871D01*
X176301079Y-91349000D01*
X176301079Y-90930000D01*
X176504921Y-90930000D01*
X176504921Y-91349000D01*
X176521833Y-91436164D01*
X176572158Y-91512774D01*
X176648129Y-91564056D01*
X176738000Y-91582079D01*
X177338000Y-91582079D01*
X177425164Y-91565167D01*
X177501774Y-91514842D01*
X177553056Y-91438871D01*
X177571079Y-91349000D01*
X177571079Y-89749000D01*
X177554167Y-89661836D01*
X177503842Y-89585226D01*
X177427871Y-89533944D01*
X177338000Y-89515921D01*
X176738000Y-89515921D01*
X176650836Y-89532833D01*
X176574226Y-89583158D01*
X176522944Y-89659129D01*
X176504921Y-89749000D01*
X176504921Y-90168000D01*
X176301079Y-90168000D01*
X176301079Y-89749000D01*
X176284167Y-89661836D01*
X176233842Y-89585226D01*
X176157871Y-89533944D01*
X176149000Y-89532165D01*
X176149000Y-89073182D01*
X176252211Y-88970151D01*
X176339400Y-88760177D01*
X176339599Y-88532820D01*
X176252776Y-88322694D01*
X176092151Y-88161789D01*
X175882177Y-88074600D01*
X175654820Y-88074401D01*
X175444694Y-88161224D01*
X175283789Y-88321849D01*
X175196600Y-88531823D01*
X175196401Y-88759180D01*
X174133996Y-88759180D01*
X174005408Y-88630592D01*
X173881803Y-88548002D01*
X173736000Y-88519000D01*
X169575815Y-88519000D01*
X168940815Y-87884000D01*
X177642184Y-87884000D01*
X179197000Y-89438815D01*
X179197000Y-89581637D01*
X179190836Y-89582833D01*
X179114226Y-89633158D01*
X179062944Y-89709129D01*
X179044921Y-89799000D01*
X179044921Y-91299000D01*
X179061833Y-91386164D01*
X179112158Y-91462774D01*
X179188129Y-91514056D01*
X179278000Y-91532079D01*
X179878000Y-91532079D01*
X179965164Y-91515167D01*
X180041774Y-91464842D01*
X180093056Y-91388871D01*
X180111079Y-91299000D01*
X180111079Y-89799000D01*
X180094167Y-89711836D01*
X180043842Y-89635226D01*
X179967871Y-89583944D01*
X179959000Y-89582165D01*
X179959000Y-89281005D01*
X179959001Y-89281000D01*
X179929998Y-89135198D01*
X179901716Y-89092871D01*
X179847408Y-89011592D01*
X179847405Y-89011590D01*
X178069408Y-87233592D01*
X177945803Y-87151002D01*
X177800000Y-87122000D01*
X169067815Y-87122000D01*
X164929408Y-82983592D01*
X164805803Y-82901002D01*
X164660000Y-82872000D01*
X161575079Y-82872000D01*
X161575079Y-82653000D01*
X161558167Y-82565836D01*
X161507842Y-82489226D01*
X161431871Y-82437944D01*
X161342000Y-82419921D01*
X160742000Y-82419921D01*
X160654836Y-82436833D01*
X160642363Y-82445026D01*
X160631871Y-82437944D01*
X160542000Y-82419921D01*
X159942000Y-82419921D01*
X159854836Y-82436833D01*
X159778226Y-82487158D01*
X159726944Y-82563129D01*
X159708921Y-82653000D01*
X159708921Y-83853000D01*
X159725833Y-83940164D01*
X159776158Y-84016774D01*
X159852129Y-84068056D01*
X159942000Y-84086079D01*
X160542000Y-84086079D01*
X160629164Y-84069167D01*
X160641637Y-84060974D01*
X160652129Y-84068056D01*
X160742000Y-84086079D01*
X161342000Y-84086079D01*
X161429164Y-84069167D01*
X161505774Y-84018842D01*
X161557056Y-83942871D01*
X161575079Y-83853000D01*
X161575079Y-83634000D01*
X164502184Y-83634000D01*
X165190184Y-84322000D01*
X163309363Y-84322000D01*
X163308167Y-84315836D01*
X163257842Y-84239226D01*
X163181871Y-84187944D01*
X163092000Y-84169921D01*
X161892000Y-84169921D01*
X161804836Y-84186833D01*
X161728226Y-84237158D01*
X161676944Y-84313129D01*
X161658921Y-84403000D01*
X161658921Y-85003000D01*
X161675833Y-85090164D01*
X161684026Y-85102637D01*
X161676944Y-85113129D01*
X161658921Y-85203000D01*
X161658921Y-85803000D01*
X161675833Y-85890164D01*
X161684026Y-85902637D01*
X161676944Y-85913129D01*
X161658921Y-86003000D01*
X161658921Y-86603000D01*
X161675833Y-86690164D01*
X161684026Y-86702637D01*
X161676944Y-86713129D01*
X161658921Y-86803000D01*
X161658921Y-87403000D01*
X161675833Y-87490164D01*
X161684026Y-87502637D01*
X161676944Y-87513129D01*
X161658921Y-87603000D01*
X161658921Y-88203000D01*
X161675833Y-88290164D01*
X161684026Y-88302637D01*
X161676944Y-88313129D01*
X161658921Y-88403000D01*
X161658921Y-89003000D01*
X161675833Y-89090164D01*
X161684026Y-89102637D01*
X161676944Y-89113129D01*
X161658921Y-89203000D01*
X161658921Y-89238105D01*
X160782000Y-88361184D01*
X160782000Y-87000413D01*
X160851306Y-86971776D01*
X161012211Y-86811151D01*
X161099400Y-86601177D01*
X161099599Y-86373820D01*
X161012776Y-86163694D01*
X160852151Y-86002789D01*
X160642177Y-85915600D01*
X160414820Y-85915401D01*
X160204694Y-86002224D01*
X160147000Y-86059818D01*
X160147000Y-85898182D01*
X160250211Y-85795151D01*
X160337400Y-85585177D01*
X160337599Y-85357820D01*
X160250776Y-85147694D01*
X160090151Y-84986789D01*
X159880177Y-84899600D01*
X159652820Y-84899401D01*
X159442694Y-84986224D01*
X159281789Y-85146849D01*
X159194600Y-85356823D01*
X159194583Y-85376767D01*
X158559471Y-84741655D01*
X158559599Y-84595820D01*
X158472776Y-84385694D01*
X158312151Y-84224789D01*
X158102177Y-84137600D01*
X157874820Y-84137401D01*
X157664694Y-84224224D01*
X157503789Y-84384849D01*
X157423000Y-84579410D01*
X157423000Y-84070363D01*
X157429164Y-84069167D01*
X157505774Y-84018842D01*
X157557056Y-83942871D01*
X157575079Y-83853000D01*
X157575079Y-82653000D01*
X157558167Y-82565836D01*
X157507842Y-82489226D01*
X157431871Y-82437944D01*
X157423000Y-82436165D01*
X157423000Y-82002816D01*
X157668736Y-81757079D01*
X157799263Y-81757079D01*
X158261000Y-82218815D01*
X158261000Y-82435637D01*
X158254836Y-82436833D01*
X158178226Y-82487158D01*
X158126944Y-82563129D01*
X158108921Y-82653000D01*
X158108921Y-83853000D01*
X158125833Y-83940164D01*
X158176158Y-84016774D01*
X158252129Y-84068056D01*
X158342000Y-84086079D01*
X158942000Y-84086079D01*
X159029164Y-84069167D01*
X159105774Y-84018842D01*
X159157056Y-83942871D01*
X159175079Y-83853000D01*
X159175079Y-82653000D01*
X159158167Y-82565836D01*
X159107842Y-82489226D01*
X159031871Y-82437944D01*
X159023000Y-82436165D01*
X159023000Y-82155180D01*
X172656401Y-82155180D01*
X172743224Y-82365306D01*
X172847000Y-82469263D01*
X172847000Y-82931637D01*
X172840836Y-82932833D01*
X172764226Y-82983158D01*
X172712944Y-83059129D01*
X172694921Y-83149000D01*
X172694921Y-84749000D01*
X172711833Y-84836164D01*
X172762158Y-84912774D01*
X172838129Y-84964056D01*
X172928000Y-84982079D01*
X173528000Y-84982079D01*
X173615164Y-84965167D01*
X173691774Y-84914842D01*
X173743056Y-84838871D01*
X173761079Y-84749000D01*
X173761079Y-83149000D01*
X173964921Y-83149000D01*
X173964921Y-84749000D01*
X173981833Y-84836164D01*
X174032158Y-84912774D01*
X174108129Y-84964056D01*
X174198000Y-84982079D01*
X174798000Y-84982079D01*
X174885164Y-84965167D01*
X174961774Y-84914842D01*
X175013056Y-84838871D01*
X175031079Y-84749000D01*
X175031079Y-83149000D01*
X175014167Y-83061836D01*
X174963842Y-82985226D01*
X174887871Y-82933944D01*
X174879000Y-82932165D01*
X174879000Y-81818816D01*
X176306815Y-80391000D01*
X177896185Y-80391000D01*
X175498592Y-82788592D01*
X175416002Y-82912197D01*
X175413144Y-82926564D01*
X175380836Y-82932833D01*
X175304226Y-82983158D01*
X175252944Y-83059129D01*
X175234921Y-83149000D01*
X175234921Y-84749000D01*
X175251833Y-84836164D01*
X175302158Y-84912774D01*
X175378129Y-84964056D01*
X175468000Y-84982079D01*
X176068000Y-84982079D01*
X176155164Y-84965167D01*
X176231774Y-84914842D01*
X176283056Y-84838871D01*
X176301079Y-84749000D01*
X176301079Y-83149000D01*
X176287224Y-83077592D01*
X178465815Y-80899000D01*
X178658184Y-80899000D01*
X176768592Y-82788592D01*
X176686002Y-82912197D01*
X176683144Y-82926564D01*
X176650836Y-82932833D01*
X176574226Y-82983158D01*
X176522944Y-83059129D01*
X176504921Y-83149000D01*
X176504921Y-84749000D01*
X176521833Y-84836164D01*
X176572158Y-84912774D01*
X176648129Y-84964056D01*
X176738000Y-84982079D01*
X177338000Y-84982079D01*
X177425164Y-84965167D01*
X177501774Y-84914842D01*
X177553056Y-84838871D01*
X177571079Y-84749000D01*
X177571079Y-83149000D01*
X177557224Y-83077592D01*
X179227816Y-81407000D01*
X179293185Y-81407000D01*
X178038592Y-82661592D01*
X177956002Y-82785197D01*
X177944144Y-82844810D01*
X177927000Y-82931000D01*
X177927000Y-82931637D01*
X177920836Y-82932833D01*
X177844226Y-82983158D01*
X177792944Y-83059129D01*
X177774921Y-83149000D01*
X177774921Y-84749000D01*
X177791833Y-84836164D01*
X177842158Y-84912774D01*
X177918129Y-84964056D01*
X178008000Y-84982079D01*
X178608000Y-84982079D01*
X178695164Y-84965167D01*
X178771774Y-84914842D01*
X178823056Y-84838871D01*
X178841079Y-84749000D01*
X178841079Y-83149000D01*
X178824167Y-83061836D01*
X178781275Y-82996541D01*
X179862815Y-81915000D01*
X180563185Y-81915000D01*
X179562263Y-82915921D01*
X179278000Y-82915921D01*
X179190836Y-82932833D01*
X179114226Y-82983158D01*
X179062944Y-83059129D01*
X179044921Y-83149000D01*
X179044921Y-84749000D01*
X179061833Y-84836164D01*
X179112158Y-84912774D01*
X179188129Y-84964056D01*
X179278000Y-84982079D01*
X179878000Y-84982079D01*
X179965164Y-84965167D01*
X180041774Y-84914842D01*
X180093056Y-84838871D01*
X180111079Y-84749000D01*
X180111079Y-83444737D01*
X180314921Y-83240895D01*
X180314921Y-84749000D01*
X180331833Y-84836164D01*
X180382158Y-84912774D01*
X180458129Y-84964056D01*
X180548000Y-84982079D01*
X181148000Y-84982079D01*
X181235164Y-84965167D01*
X181311774Y-84914842D01*
X181363056Y-84838871D01*
X181381079Y-84749000D01*
X181381079Y-83149000D01*
X181364167Y-83061836D01*
X181321275Y-82996541D01*
X181361413Y-82956402D01*
X181694957Y-82956402D01*
X181654226Y-82983158D01*
X181602944Y-83059129D01*
X181584921Y-83149000D01*
X181584921Y-84749000D01*
X181601833Y-84836164D01*
X181652158Y-84912774D01*
X181728129Y-84964056D01*
X181818000Y-84982079D01*
X181979263Y-84982079D01*
X182753000Y-85755816D01*
X182753000Y-88900000D01*
X182782002Y-89045803D01*
X182864592Y-89169408D01*
X184324000Y-90628815D01*
X184324000Y-93731921D01*
X183955000Y-93731921D01*
X183867836Y-93748833D01*
X183791226Y-93799158D01*
X183739944Y-93875129D01*
X183721921Y-93965000D01*
X183721921Y-95265000D01*
X183738833Y-95352164D01*
X183789158Y-95428774D01*
X183865129Y-95480056D01*
X183955000Y-95498079D01*
X185455000Y-95498079D01*
X185542164Y-95481167D01*
X185618774Y-95430842D01*
X185670056Y-95354871D01*
X185688079Y-95265000D01*
X185688079Y-93965000D01*
X186421921Y-93965000D01*
X186421921Y-95265000D01*
X186438833Y-95352164D01*
X186489158Y-95428774D01*
X186565129Y-95480056D01*
X186655000Y-95498079D01*
X188155000Y-95498079D01*
X188242164Y-95481167D01*
X188318774Y-95430842D01*
X188370056Y-95354871D01*
X188388079Y-95265000D01*
X188388079Y-94996000D01*
X188691184Y-94996000D01*
X190484592Y-96789408D01*
X190608198Y-96871998D01*
X190754000Y-96901001D01*
X190754005Y-96901000D01*
X200736803Y-96901000D01*
X200744156Y-96937967D01*
X200980915Y-97292302D01*
X201335250Y-97529061D01*
X201753217Y-97612200D01*
X202106783Y-97612200D01*
X202524750Y-97529061D01*
X202879085Y-97292302D01*
X203115844Y-96937967D01*
X203198983Y-96520000D01*
X203115844Y-96102033D01*
X202879085Y-95747698D01*
X202524750Y-95510939D01*
X202106783Y-95427800D01*
X201753217Y-95427800D01*
X201335250Y-95510939D01*
X200980915Y-95747698D01*
X200744156Y-96102033D01*
X200736803Y-96139000D01*
X190911816Y-96139000D01*
X189118408Y-94345592D01*
X188994803Y-94263002D01*
X188849000Y-94234000D01*
X188388079Y-94234000D01*
X188388079Y-93965000D01*
X188371167Y-93877836D01*
X188320842Y-93801226D01*
X188244871Y-93749944D01*
X188155000Y-93731921D01*
X186655000Y-93731921D01*
X186567836Y-93748833D01*
X186491226Y-93799158D01*
X186439944Y-93875129D01*
X186421921Y-93965000D01*
X185688079Y-93965000D01*
X185688079Y-93965000D01*
X185671167Y-93877836D01*
X185620842Y-93801226D01*
X185544871Y-93749944D01*
X185455000Y-93731921D01*
X185086000Y-93731921D01*
X185086000Y-90628815D01*
X186166590Y-91709405D01*
X186166592Y-91709408D01*
X186231833Y-91753000D01*
X186290198Y-91791998D01*
X186436000Y-91821001D01*
X186436005Y-91821000D01*
X186896921Y-91821000D01*
X186896921Y-92090000D01*
X186913833Y-92177164D01*
X186964158Y-92253774D01*
X187040129Y-92305056D01*
X187130000Y-92323079D01*
X188630000Y-92323079D01*
X188717164Y-92306167D01*
X188793774Y-92255842D01*
X188845056Y-92179871D01*
X188863079Y-92090000D01*
X188863079Y-90790000D01*
X189596921Y-90790000D01*
X189596921Y-92090000D01*
X189613833Y-92177164D01*
X189664158Y-92253774D01*
X189740129Y-92305056D01*
X189830000Y-92323079D01*
X191330000Y-92323079D01*
X191417164Y-92306167D01*
X191493774Y-92255842D01*
X191545056Y-92179871D01*
X191563079Y-92090000D01*
X191563079Y-91821000D01*
X195803184Y-91821000D01*
X198231590Y-94249405D01*
X198231592Y-94249408D01*
X198355198Y-94331998D01*
X198501000Y-94361000D01*
X200736803Y-94361000D01*
X200744156Y-94397967D01*
X200980915Y-94752302D01*
X201335250Y-94989061D01*
X201753217Y-95072200D01*
X202106783Y-95072200D01*
X202524750Y-94989061D01*
X202879085Y-94752302D01*
X203115844Y-94397967D01*
X203198983Y-93980000D01*
X203115844Y-93562033D01*
X202879085Y-93207698D01*
X202524750Y-92970939D01*
X202106783Y-92887800D01*
X201753217Y-92887800D01*
X201335250Y-92970939D01*
X200980915Y-93207698D01*
X200744156Y-93562033D01*
X200736803Y-93599000D01*
X198658815Y-93599000D01*
X196230408Y-91170592D01*
X196106803Y-91088002D01*
X195961000Y-91059000D01*
X191563079Y-91059000D01*
X191563079Y-90790000D01*
X191546167Y-90702836D01*
X191495842Y-90626226D01*
X191419871Y-90574944D01*
X191330000Y-90556921D01*
X189830000Y-90556921D01*
X189742836Y-90573833D01*
X189666226Y-90624158D01*
X189614944Y-90700129D01*
X189596921Y-90790000D01*
X188863079Y-90790000D01*
X188863079Y-90790000D01*
X188846167Y-90702836D01*
X188795842Y-90626226D01*
X188719871Y-90574944D01*
X188630000Y-90556921D01*
X187130000Y-90556921D01*
X187042836Y-90573833D01*
X186966226Y-90624158D01*
X186914944Y-90700129D01*
X186896921Y-90790000D01*
X186896921Y-91059000D01*
X186593815Y-91059000D01*
X184942816Y-89408000D01*
X186896921Y-89408000D01*
X186896921Y-89677000D01*
X186913833Y-89764164D01*
X186964158Y-89840774D01*
X187040129Y-89892056D01*
X187130000Y-89910079D01*
X188630000Y-89910079D01*
X188717164Y-89893167D01*
X188793774Y-89842842D01*
X188845056Y-89766871D01*
X188863079Y-89677000D01*
X188863079Y-88377000D01*
X189596921Y-88377000D01*
X189596921Y-89677000D01*
X189613833Y-89764164D01*
X189664158Y-89840774D01*
X189740129Y-89892056D01*
X189830000Y-89910079D01*
X191330000Y-89910079D01*
X191417164Y-89893167D01*
X191493774Y-89842842D01*
X191545056Y-89766871D01*
X191563079Y-89677000D01*
X191563079Y-89408000D01*
X194533184Y-89408000D01*
X196834590Y-91709405D01*
X196834592Y-91709408D01*
X196899833Y-91753000D01*
X196958197Y-91791998D01*
X197104000Y-91821000D01*
X200736803Y-91821000D01*
X200744156Y-91857967D01*
X200980915Y-92212302D01*
X201335250Y-92449061D01*
X201753217Y-92532200D01*
X202106783Y-92532200D01*
X202524750Y-92449061D01*
X202879085Y-92212302D01*
X203115844Y-91857967D01*
X203198983Y-91440000D01*
X203115844Y-91022033D01*
X202879085Y-90667698D01*
X202524750Y-90430939D01*
X202106783Y-90347800D01*
X201753217Y-90347800D01*
X201335250Y-90430939D01*
X200980915Y-90667698D01*
X200744156Y-91022033D01*
X200736803Y-91059000D01*
X197261815Y-91059000D01*
X194960408Y-88757592D01*
X194836803Y-88675002D01*
X194691000Y-88646000D01*
X191563079Y-88646000D01*
X191563079Y-88377000D01*
X191546167Y-88289836D01*
X191495842Y-88213226D01*
X191419871Y-88161944D01*
X191330000Y-88143921D01*
X189830000Y-88143921D01*
X189742836Y-88160833D01*
X189666226Y-88211158D01*
X189614944Y-88287129D01*
X189596921Y-88377000D01*
X188863079Y-88377000D01*
X188863079Y-88377000D01*
X188846167Y-88289836D01*
X188795842Y-88213226D01*
X188719871Y-88161944D01*
X188630000Y-88143921D01*
X187928870Y-88143921D01*
X187880000Y-88134200D01*
X187831130Y-88143921D01*
X187130000Y-88143921D01*
X187042836Y-88160833D01*
X186966226Y-88211158D01*
X186914944Y-88287129D01*
X186896921Y-88377000D01*
X186896921Y-88646000D01*
X185069815Y-88646000D01*
X184531000Y-88107184D01*
X184531000Y-86644816D01*
X185150590Y-87264405D01*
X185150592Y-87264408D01*
X185274198Y-87346998D01*
X185420000Y-87376001D01*
X185420005Y-87376000D01*
X192611921Y-87376000D01*
X192611921Y-87645000D01*
X192628833Y-87732164D01*
X192679158Y-87808774D01*
X192755129Y-87860056D01*
X192845000Y-87878079D01*
X194345000Y-87878079D01*
X194432164Y-87861167D01*
X194508774Y-87810842D01*
X194560056Y-87734871D01*
X194578079Y-87645000D01*
X194578079Y-86345000D01*
X195311921Y-86345000D01*
X195311921Y-87645000D01*
X195328833Y-87732164D01*
X195379158Y-87808774D01*
X195455129Y-87860056D01*
X195545000Y-87878079D01*
X197045000Y-87878079D01*
X197132164Y-87861167D01*
X197208774Y-87810842D01*
X197260056Y-87734871D01*
X197278079Y-87645000D01*
X197278079Y-87376000D01*
X197454184Y-87376000D01*
X199247592Y-89169408D01*
X199371198Y-89251998D01*
X199517000Y-89281001D01*
X199517005Y-89281000D01*
X200736803Y-89281000D01*
X200744156Y-89317967D01*
X200980915Y-89672302D01*
X201335250Y-89909061D01*
X201753217Y-89992200D01*
X202106783Y-89992200D01*
X202524750Y-89909061D01*
X202879085Y-89672302D01*
X203115844Y-89317967D01*
X203198983Y-88900000D01*
X203115844Y-88482033D01*
X202879085Y-88127698D01*
X202524750Y-87890939D01*
X202106783Y-87807800D01*
X201753217Y-87807800D01*
X201335250Y-87890939D01*
X200980915Y-88127698D01*
X200744156Y-88482033D01*
X200736803Y-88519000D01*
X199674816Y-88519000D01*
X197881408Y-86725592D01*
X197757803Y-86643002D01*
X197612000Y-86614000D01*
X197278079Y-86614000D01*
X197278079Y-86345000D01*
X197261167Y-86257836D01*
X197210842Y-86181226D01*
X197134871Y-86129944D01*
X197045000Y-86111921D01*
X195545000Y-86111921D01*
X195457836Y-86128833D01*
X195381226Y-86179158D01*
X195329944Y-86255129D01*
X195311921Y-86345000D01*
X194578079Y-86345000D01*
X194578079Y-86345000D01*
X194561167Y-86257836D01*
X194510842Y-86181226D01*
X194434871Y-86129944D01*
X194345000Y-86111921D01*
X192845000Y-86111921D01*
X192757836Y-86128833D01*
X192681226Y-86179158D01*
X192629944Y-86255129D01*
X192611921Y-86345000D01*
X192611921Y-86614000D01*
X185577815Y-86614000D01*
X185039000Y-86075184D01*
X185039000Y-85120816D01*
X185658590Y-85740405D01*
X185658592Y-85740408D01*
X185739257Y-85794306D01*
X185782198Y-85822998D01*
X185928000Y-85852001D01*
X185928005Y-85852000D01*
X187023921Y-85852000D01*
X187023921Y-86121000D01*
X187040833Y-86208164D01*
X187091158Y-86284774D01*
X187167129Y-86336056D01*
X187257000Y-86354079D01*
X188757000Y-86354079D01*
X188844164Y-86337167D01*
X188920774Y-86286842D01*
X188972056Y-86210871D01*
X188990079Y-86121000D01*
X188990079Y-84821000D01*
X189723921Y-84821000D01*
X189723921Y-86121000D01*
X189740833Y-86208164D01*
X189791158Y-86284774D01*
X189867129Y-86336056D01*
X189957000Y-86354079D01*
X191457000Y-86354079D01*
X191544164Y-86337167D01*
X191620774Y-86286842D01*
X191672056Y-86210871D01*
X191690079Y-86121000D01*
X191690079Y-85852000D01*
X198724184Y-85852000D01*
X199501592Y-86629408D01*
X199625198Y-86711998D01*
X199771000Y-86741001D01*
X199771005Y-86741000D01*
X200736803Y-86741000D01*
X200744156Y-86777967D01*
X200980915Y-87132302D01*
X201335250Y-87369061D01*
X201753217Y-87452200D01*
X202106783Y-87452200D01*
X202524750Y-87369061D01*
X202879085Y-87132302D01*
X203115844Y-86777967D01*
X203198983Y-86360000D01*
X203115844Y-85942033D01*
X202879085Y-85587698D01*
X202524750Y-85350939D01*
X202106783Y-85267800D01*
X201753217Y-85267800D01*
X201335250Y-85350939D01*
X200980915Y-85587698D01*
X200744156Y-85942033D01*
X200736803Y-85979000D01*
X199928816Y-85979000D01*
X199151408Y-85201592D01*
X199027803Y-85119002D01*
X198882000Y-85090000D01*
X191690079Y-85090000D01*
X191690079Y-84821000D01*
X191673167Y-84733836D01*
X191622842Y-84657226D01*
X191546871Y-84605944D01*
X191457000Y-84587921D01*
X189957000Y-84587921D01*
X189869836Y-84604833D01*
X189793226Y-84655158D01*
X189741944Y-84731129D01*
X189723921Y-84821000D01*
X188990079Y-84821000D01*
X188990079Y-84821000D01*
X188973167Y-84733836D01*
X188922842Y-84657226D01*
X188846871Y-84605944D01*
X188757000Y-84587921D01*
X187257000Y-84587921D01*
X187169836Y-84604833D01*
X187093226Y-84655158D01*
X187041944Y-84731129D01*
X187023921Y-84821000D01*
X187023921Y-85090000D01*
X186085815Y-85090000D01*
X185547000Y-84551184D01*
X185547000Y-83596816D01*
X185912590Y-83962405D01*
X185912592Y-83962408D01*
X186036198Y-84044998D01*
X186182000Y-84074000D01*
X191817000Y-84074000D01*
X191962803Y-84044998D01*
X192086408Y-83962408D01*
X193123736Y-82925079D01*
X194218000Y-82925079D01*
X194305164Y-82908167D01*
X194381774Y-82857842D01*
X194433056Y-82781871D01*
X194451079Y-82692000D01*
X194451079Y-81392000D01*
X195184921Y-81392000D01*
X195184921Y-82692000D01*
X195201833Y-82779164D01*
X195252158Y-82855774D01*
X195328129Y-82907056D01*
X195418000Y-82925079D01*
X196918000Y-82925079D01*
X197005164Y-82908167D01*
X197081774Y-82857842D01*
X197133056Y-82781871D01*
X197151079Y-82692000D01*
X197151079Y-82500895D01*
X198739590Y-84089405D01*
X198739592Y-84089408D01*
X198820257Y-84143306D01*
X198863198Y-84171998D01*
X199009000Y-84201001D01*
X199009005Y-84201000D01*
X200736803Y-84201000D01*
X200744156Y-84237967D01*
X200980915Y-84592302D01*
X201335250Y-84829061D01*
X201753217Y-84912200D01*
X202106783Y-84912200D01*
X202524750Y-84829061D01*
X202879085Y-84592302D01*
X203115844Y-84237967D01*
X203198983Y-83820000D01*
X203115844Y-83402033D01*
X202879085Y-83047698D01*
X202524750Y-82810939D01*
X202106783Y-82727800D01*
X201753217Y-82727800D01*
X201335250Y-82810939D01*
X200980915Y-83047698D01*
X200744156Y-83402033D01*
X200736803Y-83439000D01*
X199166815Y-83439000D01*
X197500408Y-81772592D01*
X197376803Y-81690002D01*
X197231000Y-81661000D01*
X197151079Y-81661000D01*
X197151079Y-81392000D01*
X197134167Y-81304836D01*
X197083842Y-81228226D01*
X197007871Y-81176944D01*
X196918000Y-81158921D01*
X195418000Y-81158921D01*
X195330836Y-81175833D01*
X195254226Y-81226158D01*
X195202944Y-81302129D01*
X195184921Y-81392000D01*
X194451079Y-81392000D01*
X194451079Y-81392000D01*
X194434167Y-81304836D01*
X194383842Y-81228226D01*
X194307871Y-81176944D01*
X194218000Y-81158921D01*
X192718000Y-81158921D01*
X192630836Y-81175833D01*
X192554226Y-81226158D01*
X192502944Y-81302129D01*
X192484921Y-81392000D01*
X192484921Y-82486264D01*
X191659184Y-83312000D01*
X186339815Y-83312000D01*
X186055000Y-83027184D01*
X186055000Y-81915000D01*
X186032803Y-81803408D01*
X186025998Y-81769197D01*
X185973081Y-81690002D01*
X185943408Y-81645592D01*
X185943405Y-81645590D01*
X184688816Y-80391000D01*
X186024184Y-80391000D01*
X186851367Y-81218183D01*
X186839226Y-81226158D01*
X186787944Y-81302129D01*
X186769921Y-81392000D01*
X186769921Y-82692000D01*
X186786833Y-82779164D01*
X186837158Y-82855774D01*
X186913129Y-82907056D01*
X187003000Y-82925079D01*
X188503000Y-82925079D01*
X188590164Y-82908167D01*
X188666774Y-82857842D01*
X188718056Y-82781871D01*
X188736079Y-82692000D01*
X188736079Y-81392000D01*
X189469921Y-81392000D01*
X189469921Y-82692000D01*
X189486833Y-82779164D01*
X189537158Y-82855774D01*
X189613129Y-82907056D01*
X189703000Y-82925079D01*
X191203000Y-82925079D01*
X191290164Y-82908167D01*
X191366774Y-82857842D01*
X191418056Y-82781871D01*
X191436079Y-82692000D01*
X191436079Y-81392000D01*
X191419167Y-81304836D01*
X191368842Y-81228226D01*
X191292871Y-81176944D01*
X191272881Y-81172935D01*
X192181815Y-80264000D01*
X200375184Y-80264000D01*
X200680921Y-80569737D01*
X200680921Y-82143600D01*
X200697833Y-82230764D01*
X200748158Y-82307374D01*
X200824129Y-82358656D01*
X200914000Y-82376679D01*
X202946000Y-82376679D01*
X203033164Y-82359767D01*
X203109774Y-82309442D01*
X203161056Y-82233471D01*
X203179079Y-82143600D01*
X203179079Y-80416400D01*
X203162167Y-80329236D01*
X203111842Y-80252626D01*
X203035871Y-80201344D01*
X202946000Y-80183321D01*
X201372137Y-80183321D01*
X200802408Y-79613592D01*
X200678803Y-79531002D01*
X200533000Y-79502000D01*
X192024005Y-79502000D01*
X192024000Y-79501999D01*
X191878198Y-79531002D01*
X191754592Y-79613592D01*
X191754590Y-79613595D01*
X190209263Y-81158921D01*
X189703000Y-81158921D01*
X189615836Y-81175833D01*
X189539226Y-81226158D01*
X189487944Y-81302129D01*
X189469921Y-81392000D01*
X188736079Y-81392000D01*
X188736079Y-81392000D01*
X188719167Y-81304836D01*
X188668842Y-81228226D01*
X188592871Y-81176944D01*
X188503000Y-81158921D01*
X187869736Y-81158921D01*
X186451408Y-79740592D01*
X186327803Y-79658002D01*
X186182000Y-79629000D01*
X176149005Y-79629000D01*
X176149000Y-79628999D01*
X176003198Y-79658002D01*
X175879592Y-79740592D01*
X175879590Y-79740595D01*
X174228592Y-81391592D01*
X174146002Y-81515197D01*
X174146002Y-81515198D01*
X174117000Y-81661000D01*
X174117000Y-82931637D01*
X174110836Y-82932833D01*
X174034226Y-82983158D01*
X173982944Y-83059129D01*
X173964921Y-83149000D01*
X173761079Y-83149000D01*
X173761079Y-83149000D01*
X173744167Y-83061836D01*
X173693842Y-82985226D01*
X173617871Y-82933944D01*
X173609000Y-82932165D01*
X173609000Y-82469182D01*
X173712211Y-82366151D01*
X173799400Y-82156177D01*
X173799599Y-81928820D01*
X173712776Y-81718694D01*
X173552151Y-81557789D01*
X173342177Y-81470600D01*
X173114820Y-81470401D01*
X172904694Y-81557224D01*
X172743789Y-81717849D01*
X172656600Y-81927823D01*
X172656401Y-82155180D01*
X159023000Y-82155180D01*
X159023000Y-82061000D01*
X159015481Y-82023198D01*
X158993998Y-81915197D01*
X158950707Y-81850408D01*
X158911408Y-81791592D01*
X158911405Y-81791590D01*
X158570079Y-81450264D01*
X158570079Y-81432400D01*
X159083921Y-81432400D01*
X159083921Y-81549000D01*
X159100833Y-81636164D01*
X159151158Y-81712774D01*
X159227129Y-81764056D01*
X159317000Y-81782079D01*
X160817000Y-81782079D01*
X160904164Y-81765167D01*
X160980774Y-81714842D01*
X161032056Y-81638871D01*
X161050079Y-81549000D01*
X161050079Y-80249000D01*
X161783921Y-80249000D01*
X161783921Y-81549000D01*
X161800833Y-81636164D01*
X161851158Y-81712774D01*
X161927129Y-81764056D01*
X162017000Y-81782079D01*
X163517000Y-81782079D01*
X163604164Y-81765167D01*
X163680774Y-81714842D01*
X163732056Y-81638871D01*
X163750079Y-81549000D01*
X163750079Y-81432400D01*
X164640309Y-81432400D01*
X164731823Y-81470400D01*
X164959180Y-81470599D01*
X165169306Y-81383776D01*
X165330211Y-81223151D01*
X165417400Y-81013177D01*
X165417599Y-80785820D01*
X165330776Y-80575694D01*
X165170151Y-80414789D01*
X164960177Y-80327600D01*
X164732820Y-80327401D01*
X164640372Y-80365600D01*
X163750079Y-80365600D01*
X163750079Y-80249000D01*
X163733167Y-80161836D01*
X163682842Y-80085226D01*
X163606871Y-80033944D01*
X163517000Y-80015921D01*
X162017000Y-80015921D01*
X161929836Y-80032833D01*
X161853226Y-80083158D01*
X161801944Y-80159129D01*
X161783921Y-80249000D01*
X161050079Y-80249000D01*
X161050079Y-80249000D01*
X161033167Y-80161836D01*
X160982842Y-80085226D01*
X160906871Y-80033944D01*
X160817000Y-80015921D01*
X159317000Y-80015921D01*
X159229836Y-80032833D01*
X159153226Y-80083158D01*
X159101944Y-80159129D01*
X159083921Y-80249000D01*
X159083921Y-80365600D01*
X158570079Y-80365600D01*
X158570079Y-80274000D01*
X158553167Y-80186836D01*
X158502842Y-80110226D01*
X158426871Y-80058944D01*
X158337000Y-80040921D01*
X156837000Y-80040921D01*
X156749836Y-80057833D01*
X156673226Y-80108158D01*
X156621944Y-80184129D01*
X156603921Y-80274000D01*
X156603921Y-81524000D01*
X156620833Y-81611164D01*
X156671158Y-81687774D01*
X156689775Y-81700341D01*
X156686890Y-81714842D01*
X156661000Y-81845000D01*
X156661000Y-82435637D01*
X156654836Y-82436833D01*
X156642363Y-82445026D01*
X156631871Y-82437944D01*
X156542000Y-82419921D01*
X155942000Y-82419921D01*
X155854836Y-82436833D01*
X155842363Y-82445026D01*
X155831871Y-82437944D01*
X155742000Y-82419921D01*
X155142000Y-82419921D01*
X155054836Y-82436833D01*
X154978226Y-82487158D01*
X154926944Y-82563129D01*
X154908921Y-82653000D01*
X154908921Y-83853000D01*
X154925833Y-83940164D01*
X154976158Y-84016774D01*
X155052129Y-84068056D01*
X155142000Y-84086079D01*
X155742000Y-84086079D01*
X155829164Y-84069167D01*
X155841637Y-84060974D01*
X155852129Y-84068056D01*
X155942000Y-84086079D01*
X156542000Y-84086079D01*
X156629164Y-84069167D01*
X156641637Y-84060974D01*
X156652129Y-84068056D01*
X156661000Y-84069835D01*
X156661000Y-88418184D01*
X155972592Y-89106592D01*
X155890002Y-89230197D01*
X155869792Y-89331800D01*
X155861000Y-89376000D01*
X155861000Y-90107345D01*
X155805776Y-89973694D01*
X155645151Y-89812789D01*
X155435177Y-89725600D01*
X155207820Y-89725401D01*
X154997694Y-89812224D01*
X154887727Y-89922000D01*
X154809363Y-89922000D01*
X154808167Y-89915836D01*
X154799974Y-89903363D01*
X154807056Y-89892871D01*
X154825079Y-89803000D01*
X154825079Y-89203000D01*
X154808167Y-89115836D01*
X154799974Y-89103363D01*
X154807056Y-89092871D01*
X154825079Y-89003000D01*
X154825079Y-88403000D01*
X154808167Y-88315836D01*
X154799974Y-88303363D01*
X154807056Y-88292871D01*
X154825079Y-88203000D01*
X154825079Y-87603000D01*
X154808167Y-87515836D01*
X154799974Y-87503363D01*
X154807056Y-87492871D01*
X154825079Y-87403000D01*
X154825079Y-86803000D01*
X154808167Y-86715836D01*
X154799974Y-86703363D01*
X154807056Y-86692871D01*
X154825079Y-86603000D01*
X154825079Y-86003000D01*
X154808167Y-85915836D01*
X154799974Y-85903363D01*
X154807056Y-85892871D01*
X154825079Y-85803000D01*
X154825079Y-85203000D01*
X154808167Y-85115836D01*
X154799974Y-85103363D01*
X154807056Y-85092871D01*
X154825079Y-85003000D01*
X154825079Y-84403000D01*
X154808167Y-84315836D01*
X154757842Y-84239226D01*
X154681871Y-84187944D01*
X154592000Y-84169921D01*
X153392000Y-84169921D01*
X153304836Y-84186833D01*
X153228226Y-84237158D01*
X153176944Y-84313129D01*
X153158921Y-84403000D01*
X153158921Y-85003000D01*
X153175833Y-85090164D01*
X153184026Y-85102637D01*
X153176944Y-85113129D01*
X153158921Y-85203000D01*
X153158921Y-85803000D01*
X153175833Y-85890164D01*
X153184026Y-85902637D01*
X153176944Y-85913129D01*
X153158921Y-86003000D01*
X153158921Y-86603000D01*
X153175833Y-86690164D01*
X153184026Y-86702637D01*
X153176944Y-86713129D01*
X153158921Y-86803000D01*
X153158921Y-87403000D01*
X153175833Y-87490164D01*
X153184026Y-87502637D01*
X153176944Y-87513129D01*
X153158921Y-87603000D01*
X153158921Y-88203000D01*
X153175833Y-88290164D01*
X153184026Y-88302637D01*
X153176944Y-88313129D01*
X153175165Y-88322000D01*
X152343000Y-88322000D01*
X152197197Y-88351002D01*
X152073592Y-88433592D01*
X148018471Y-92488713D01*
X148018599Y-92342820D01*
X147931776Y-92132694D01*
X147828000Y-92028737D01*
X147828000Y-91439363D01*
X147834164Y-91438167D01*
X147910774Y-91387842D01*
X147962056Y-91311871D01*
X147980079Y-91222000D01*
X147980079Y-89622000D01*
X147963167Y-89534836D01*
X147912842Y-89458226D01*
X147836871Y-89406944D01*
X147747000Y-89388921D01*
X147147000Y-89388921D01*
X147059836Y-89405833D01*
X146983226Y-89456158D01*
X146931944Y-89532129D01*
X146913921Y-89622000D01*
X146913921Y-91222000D01*
X146930833Y-91309164D01*
X146981158Y-91385774D01*
X147057129Y-91437056D01*
X147066000Y-91438835D01*
X147066000Y-92028818D01*
X146962789Y-92131849D01*
X146875600Y-92341823D01*
X146875401Y-92569180D01*
X146962224Y-92779306D01*
X147122849Y-92940211D01*
X147332823Y-93027400D01*
X147479655Y-93027529D01*
X146087236Y-94419948D01*
X145796000Y-94362017D01*
X145378033Y-94445156D01*
X145023698Y-94681915D01*
X144786939Y-95036250D01*
X144703800Y-95454217D01*
X144352679Y-95454217D01*
X144352679Y-94615000D01*
X144335767Y-94527836D01*
X144285442Y-94451226D01*
X144209471Y-94399944D01*
X144119600Y-94381921D01*
X142392400Y-94381921D01*
X142305236Y-94398833D01*
X142228626Y-94449158D01*
X142177344Y-94525129D01*
X142159321Y-94615000D01*
X141254815Y-94615000D01*
X141366405Y-94503410D01*
X141366408Y-94503408D01*
X141448998Y-94379802D01*
X141458507Y-94331997D01*
X141478001Y-94234000D01*
X141478000Y-94233995D01*
X141478000Y-91439363D01*
X141484164Y-91438167D01*
X141560774Y-91387842D01*
X141612056Y-91311871D01*
X141630079Y-91222000D01*
X141630079Y-89622000D01*
X141613167Y-89534836D01*
X141562842Y-89458226D01*
X141486871Y-89406944D01*
X141397000Y-89388921D01*
X140797000Y-89388921D01*
X140709836Y-89405833D01*
X140633226Y-89456158D01*
X140581944Y-89532129D01*
X140563921Y-89622000D01*
X140563921Y-91222000D01*
X140580833Y-91309164D01*
X140631158Y-91385774D01*
X140707129Y-91437056D01*
X140716000Y-91438835D01*
X140716000Y-94076185D01*
X139755569Y-95036616D01*
X139730871Y-95019944D01*
X139641000Y-95001921D01*
X138141000Y-95001921D01*
X138053836Y-95018833D01*
X137977226Y-95069158D01*
X137925944Y-95145129D01*
X137907921Y-95235000D01*
X137174079Y-95235000D01*
X137174079Y-95235000D01*
X137157167Y-95147836D01*
X137106842Y-95071226D01*
X137030871Y-95019944D01*
X136941000Y-95001921D01*
X135441000Y-95001921D01*
X135353836Y-95018833D01*
X135277226Y-95069158D01*
X135225944Y-95145129D01*
X135207921Y-95235000D01*
X135207921Y-95504000D01*
X133945563Y-95504000D01*
X133960164Y-95501167D01*
X134036774Y-95450842D01*
X134088056Y-95374871D01*
X134106079Y-95285000D01*
X134106079Y-94916000D01*
X138764000Y-94916000D01*
X138909803Y-94886998D01*
X139033408Y-94804408D01*
X140096408Y-93741408D01*
X140178998Y-93617803D01*
X140208000Y-93472000D01*
X140208000Y-91439363D01*
X140214164Y-91438167D01*
X140290774Y-91387842D01*
X140342056Y-91311871D01*
X140360079Y-91222000D01*
X140360079Y-89622000D01*
X140343167Y-89534836D01*
X140292842Y-89458226D01*
X140216871Y-89406944D01*
X140127000Y-89388921D01*
X139527000Y-89388921D01*
X139439836Y-89405833D01*
X139363226Y-89456158D01*
X139311944Y-89532129D01*
X139293921Y-89622000D01*
X139293921Y-91222000D01*
X139310833Y-91309164D01*
X139361158Y-91385774D01*
X139437129Y-91437056D01*
X139446000Y-91438835D01*
X139446000Y-93314184D01*
X138606184Y-94154000D01*
X134106079Y-94154000D01*
X134106079Y-93785000D01*
X134089167Y-93697836D01*
X134038842Y-93621226D01*
X133962871Y-93569944D01*
X133873000Y-93551921D01*
X132573000Y-93551921D01*
X132485836Y-93568833D01*
X132409226Y-93619158D01*
X132357944Y-93695129D01*
X132339921Y-93785000D01*
X132339921Y-95285000D01*
X132356833Y-95372164D01*
X132407158Y-95448774D01*
X132483129Y-95500056D01*
X132502796Y-95504000D01*
X131729815Y-95504000D01*
X131206408Y-94980592D01*
X131082803Y-94898002D01*
X130937000Y-94869000D01*
X127793909Y-94869000D01*
X127836774Y-94840842D01*
X127888056Y-94764871D01*
X127906079Y-94675000D01*
X127906079Y-94150000D01*
X127904000Y-94139285D01*
X127904000Y-93614005D01*
X127904001Y-93614000D01*
X127874998Y-93468198D01*
X127805244Y-93363803D01*
X127792408Y-93344592D01*
X127792405Y-93344590D01*
X127396408Y-92948592D01*
X127272803Y-92866002D01*
X127127000Y-92837000D01*
X123825005Y-92837000D01*
X123825000Y-92836999D01*
X123679198Y-92866002D01*
X123555592Y-92948592D01*
X123555590Y-92948595D01*
X122905184Y-93599000D01*
X120573197Y-93599000D01*
X120565844Y-93562033D01*
X120329085Y-93207698D01*
X119974750Y-92970939D01*
X119556783Y-92887800D01*
X119203217Y-92887800D01*
X118785250Y-92970939D01*
X118430915Y-93207698D01*
X118194156Y-93562033D01*
X118111017Y-93980000D01*
X117118600Y-93980000D01*
X117118600Y-91440000D01*
X118111017Y-91440000D01*
X118194156Y-91857967D01*
X118430915Y-92212302D01*
X118785250Y-92449061D01*
X119203217Y-92532200D01*
X119556783Y-92532200D01*
X119974750Y-92449061D01*
X120329085Y-92212302D01*
X120565844Y-91857967D01*
X120573197Y-91821000D01*
X124079000Y-91821000D01*
X124224803Y-91791998D01*
X124348408Y-91709408D01*
X124923315Y-91134500D01*
X126004418Y-91134500D01*
X126034158Y-91179774D01*
X126110129Y-91231056D01*
X126200000Y-91249079D01*
X126500000Y-91249079D01*
X126587164Y-91232167D01*
X126619000Y-91211254D01*
X126619000Y-91694000D01*
X126648002Y-91839803D01*
X126730592Y-91963408D01*
X126984592Y-92217408D01*
X127108197Y-92299998D01*
X127254000Y-92329000D01*
X129794000Y-92329000D01*
X129939803Y-92299998D01*
X130063408Y-92217408D01*
X130459815Y-91821000D01*
X131016921Y-91821000D01*
X131016921Y-92090000D01*
X131033833Y-92177164D01*
X131084158Y-92253774D01*
X131160129Y-92305056D01*
X131250000Y-92323079D01*
X132750000Y-92323079D01*
X132837164Y-92306167D01*
X132913774Y-92255842D01*
X132965056Y-92179871D01*
X132983079Y-92090000D01*
X132983079Y-90790000D01*
X132966167Y-90702836D01*
X132915842Y-90626226D01*
X132839871Y-90574944D01*
X132750000Y-90556921D01*
X131250000Y-90556921D01*
X131162836Y-90573833D01*
X131086226Y-90624158D01*
X131034944Y-90700129D01*
X131016921Y-90790000D01*
X131016921Y-91059000D01*
X130302000Y-91059000D01*
X130156198Y-91088002D01*
X130032592Y-91170592D01*
X130032590Y-91170595D01*
X129636184Y-91567000D01*
X127411816Y-91567000D01*
X127381000Y-91536184D01*
X127381000Y-91026367D01*
X127383079Y-91016000D01*
X127383079Y-90491000D01*
X127366167Y-90403836D01*
X127315842Y-90327226D01*
X127239871Y-90275944D01*
X127150000Y-90257921D01*
X126850000Y-90257921D01*
X126762836Y-90274833D01*
X126686226Y-90325158D01*
X126675207Y-90341482D01*
X126665842Y-90327226D01*
X126589871Y-90275944D01*
X126500000Y-90257921D01*
X126200000Y-90257921D01*
X126112836Y-90274833D01*
X126036226Y-90325158D01*
X126004269Y-90372500D01*
X124765505Y-90372500D01*
X124765500Y-90372499D01*
X124622232Y-90400998D01*
X124619698Y-90401502D01*
X124496092Y-90484092D01*
X124496090Y-90484095D01*
X123921184Y-91059000D01*
X120573197Y-91059000D01*
X120565844Y-91022033D01*
X120329085Y-90667698D01*
X119974750Y-90430939D01*
X119556783Y-90347800D01*
X119203217Y-90347800D01*
X118785250Y-90430939D01*
X118430915Y-90667698D01*
X118194156Y-91022033D01*
X118111017Y-91440000D01*
X117118600Y-91440000D01*
X117118600Y-88900000D01*
X118111017Y-88900000D01*
X118194156Y-89317967D01*
X118430915Y-89672302D01*
X118785250Y-89909061D01*
X119203217Y-89992200D01*
X119556783Y-89992200D01*
X119974750Y-89909061D01*
X120329085Y-89672302D01*
X120565844Y-89317967D01*
X120573197Y-89281000D01*
X123571000Y-89281000D01*
X123716803Y-89251998D01*
X123840408Y-89169408D01*
X124744816Y-88265000D01*
X127096184Y-88265000D01*
X127269000Y-88437815D01*
X127269000Y-88620607D01*
X127239871Y-88600944D01*
X127150000Y-88582921D01*
X126850000Y-88582921D01*
X126762836Y-88599833D01*
X126686226Y-88650158D01*
X126634944Y-88726129D01*
X126616921Y-88816000D01*
X126616921Y-89341000D01*
X126619000Y-89351715D01*
X126619000Y-89535000D01*
X126648002Y-89680803D01*
X126730592Y-89804408D01*
X127111590Y-90185405D01*
X127111592Y-90185408D01*
X127235198Y-90267998D01*
X127381000Y-90297000D01*
X128778000Y-90297000D01*
X128923803Y-90267998D01*
X129047408Y-90185408D01*
X129951816Y-89281000D01*
X131016921Y-89281000D01*
X131016921Y-89550000D01*
X131033833Y-89637164D01*
X131084158Y-89713774D01*
X131160129Y-89765056D01*
X131250000Y-89783079D01*
X132750000Y-89783079D01*
X132837164Y-89766167D01*
X132913774Y-89715842D01*
X132965056Y-89639871D01*
X132983079Y-89550000D01*
X132983079Y-88250000D01*
X132966167Y-88162836D01*
X132915842Y-88086226D01*
X132839871Y-88034944D01*
X132750000Y-88016921D01*
X131250000Y-88016921D01*
X131162836Y-88033833D01*
X131086226Y-88084158D01*
X131034944Y-88160129D01*
X131016921Y-88250000D01*
X131016921Y-88519000D01*
X129794000Y-88519000D01*
X129648197Y-88548002D01*
X129524592Y-88630592D01*
X128620184Y-89535000D01*
X127920909Y-89535000D01*
X127963774Y-89506842D01*
X128015056Y-89430871D01*
X128033079Y-89341000D01*
X128033079Y-88816000D01*
X128031000Y-88805285D01*
X128031000Y-88280005D01*
X128031001Y-88280000D01*
X128001998Y-88134198D01*
X127969944Y-88086226D01*
X127919408Y-88010592D01*
X127919405Y-88010590D01*
X127523408Y-87614592D01*
X127399803Y-87532002D01*
X127254000Y-87503000D01*
X124587000Y-87503000D01*
X124441197Y-87532002D01*
X124317592Y-87614592D01*
X123413184Y-88519000D01*
X120573197Y-88519000D01*
X120565844Y-88482033D01*
X120329085Y-88127698D01*
X119974750Y-87890939D01*
X119556783Y-87807800D01*
X119203217Y-87807800D01*
X118785250Y-87890939D01*
X118430915Y-88127698D01*
X118194156Y-88482033D01*
X118111017Y-88900000D01*
X117118600Y-88900000D01*
X117118600Y-86360000D01*
X118111017Y-86360000D01*
X118194156Y-86777967D01*
X118430915Y-87132302D01*
X118785250Y-87369061D01*
X119203217Y-87452200D01*
X119556783Y-87452200D01*
X119974750Y-87369061D01*
X120329085Y-87132302D01*
X120565844Y-86777967D01*
X120573197Y-86741000D01*
X121539000Y-86741000D01*
X121684803Y-86711998D01*
X121808408Y-86629408D01*
X122256315Y-86181500D01*
X126004418Y-86181500D01*
X126034158Y-86226774D01*
X126110129Y-86278056D01*
X126200000Y-86296079D01*
X126500000Y-86296079D01*
X126587164Y-86279167D01*
X126619000Y-86258254D01*
X126619000Y-86741000D01*
X126648002Y-86886803D01*
X126730592Y-87010408D01*
X126857592Y-87137408D01*
X126981197Y-87219998D01*
X127127000Y-87249000D01*
X130048000Y-87249000D01*
X130193803Y-87219998D01*
X130317408Y-87137408D01*
X130713815Y-86741000D01*
X131016921Y-86741000D01*
X131016921Y-87010000D01*
X131033833Y-87097164D01*
X131084158Y-87173774D01*
X131160129Y-87225056D01*
X131250000Y-87243079D01*
X132750000Y-87243079D01*
X132837164Y-87226167D01*
X132913774Y-87175842D01*
X132965056Y-87099871D01*
X132983079Y-87010000D01*
X132983079Y-85710000D01*
X133716921Y-85710000D01*
X133716921Y-87010000D01*
X133733833Y-87097164D01*
X133784158Y-87173774D01*
X133860129Y-87225056D01*
X133950000Y-87243079D01*
X135450000Y-87243079D01*
X135537164Y-87226167D01*
X135613774Y-87175842D01*
X135665056Y-87099871D01*
X135683079Y-87010000D01*
X135683079Y-86818895D01*
X136763592Y-87899408D01*
X136887197Y-87981998D01*
X137033000Y-88011000D01*
X137256185Y-88011000D01*
X136748184Y-88519000D01*
X135683079Y-88519000D01*
X135683079Y-88250000D01*
X135666167Y-88162836D01*
X135615842Y-88086226D01*
X135539871Y-88034944D01*
X135450000Y-88016921D01*
X133950000Y-88016921D01*
X133862836Y-88033833D01*
X133786226Y-88084158D01*
X133734944Y-88160129D01*
X133716921Y-88250000D01*
X133716921Y-89550000D01*
X133733833Y-89637164D01*
X133784158Y-89713774D01*
X133860129Y-89765056D01*
X133950000Y-89783079D01*
X135450000Y-89783079D01*
X135537164Y-89766167D01*
X135613774Y-89715842D01*
X135665056Y-89639871D01*
X135683079Y-89550000D01*
X135683079Y-89281000D01*
X136748184Y-89281000D01*
X136509592Y-89519592D01*
X136427002Y-89643197D01*
X136404365Y-89757000D01*
X136398000Y-89789000D01*
X136398000Y-90393184D01*
X135732184Y-91059000D01*
X135683079Y-91059000D01*
X135683079Y-90790000D01*
X135666167Y-90702836D01*
X135615842Y-90626226D01*
X135539871Y-90574944D01*
X135450000Y-90556921D01*
X133950000Y-90556921D01*
X133862836Y-90573833D01*
X133786226Y-90624158D01*
X133734944Y-90700129D01*
X133716921Y-90790000D01*
X133716921Y-92090000D01*
X133733833Y-92177164D01*
X133784158Y-92253774D01*
X133860129Y-92305056D01*
X133950000Y-92323079D01*
X135450000Y-92323079D01*
X135537164Y-92306167D01*
X135613774Y-92255842D01*
X135665056Y-92179871D01*
X135683079Y-92090000D01*
X135683079Y-91821000D01*
X135890000Y-91821000D01*
X136035803Y-91791998D01*
X136159408Y-91709408D01*
X137048408Y-90820408D01*
X137130998Y-90696802D01*
X137160001Y-90551000D01*
X137160000Y-90550995D01*
X137160000Y-89946816D01*
X137484816Y-89622000D01*
X138023921Y-89622000D01*
X138023921Y-91222000D01*
X138040833Y-91309164D01*
X138091158Y-91385774D01*
X138167129Y-91437056D01*
X138257000Y-91455079D01*
X138857000Y-91455079D01*
X138944164Y-91438167D01*
X139020774Y-91387842D01*
X139072056Y-91311871D01*
X139090079Y-91222000D01*
X139090079Y-89622000D01*
X139073167Y-89534836D01*
X139022842Y-89458226D01*
X138946871Y-89406944D01*
X138857000Y-89388921D01*
X138257000Y-89388921D01*
X138169836Y-89405833D01*
X138093226Y-89456158D01*
X138041944Y-89532129D01*
X138023921Y-89622000D01*
X137484816Y-89622000D01*
X137952816Y-89154000D01*
X141447184Y-89154000D01*
X141847496Y-89554311D01*
X141833921Y-89622000D01*
X141833921Y-91222000D01*
X141850833Y-91309164D01*
X141901158Y-91385774D01*
X141977129Y-91437056D01*
X142067000Y-91455079D01*
X142667000Y-91455079D01*
X142754164Y-91438167D01*
X142830774Y-91387842D01*
X142882056Y-91311871D01*
X142900079Y-91222000D01*
X142900079Y-89622000D01*
X142883167Y-89534836D01*
X142832842Y-89458226D01*
X142756871Y-89406944D01*
X142721101Y-89399771D01*
X142718998Y-89389198D01*
X142710179Y-89376000D01*
X142636408Y-89265592D01*
X142636405Y-89265590D01*
X142016816Y-88646000D01*
X142463184Y-88646000D01*
X143233650Y-89416466D01*
X143173226Y-89456158D01*
X143121944Y-89532129D01*
X143103921Y-89622000D01*
X143103921Y-91222000D01*
X143120833Y-91309164D01*
X143171158Y-91385774D01*
X143247129Y-91437056D01*
X143337000Y-91455079D01*
X143937000Y-91455079D01*
X144024164Y-91438167D01*
X144100774Y-91387842D01*
X144152056Y-91311871D01*
X144170079Y-91222000D01*
X144170079Y-89622000D01*
X144153167Y-89534836D01*
X144102842Y-89458226D01*
X144026871Y-89406944D01*
X144018000Y-89405165D01*
X144018000Y-89281000D01*
X143988998Y-89135198D01*
X143988998Y-89135197D01*
X143906408Y-89011592D01*
X142905816Y-88011000D01*
X143352184Y-88011000D01*
X144526000Y-89184815D01*
X144526000Y-89404637D01*
X144519836Y-89405833D01*
X144443226Y-89456158D01*
X144391944Y-89532129D01*
X144373921Y-89622000D01*
X144373921Y-91222000D01*
X144390833Y-91309164D01*
X144441158Y-91385774D01*
X144517129Y-91437056D01*
X144607000Y-91455079D01*
X145207000Y-91455079D01*
X145294164Y-91438167D01*
X145370774Y-91387842D01*
X145422056Y-91311871D01*
X145440079Y-91222000D01*
X145440079Y-89622000D01*
X145423167Y-89534836D01*
X145372842Y-89458226D01*
X145296871Y-89406944D01*
X145288000Y-89405165D01*
X145288000Y-89027000D01*
X145258998Y-88881198D01*
X145258998Y-88881197D01*
X145225917Y-88831688D01*
X145176408Y-88757592D01*
X145176405Y-88757590D01*
X143921816Y-87503000D01*
X143987184Y-87503000D01*
X145796000Y-89311816D01*
X145796000Y-89404637D01*
X145789836Y-89405833D01*
X145713226Y-89456158D01*
X145661944Y-89532129D01*
X145643921Y-89622000D01*
X145643921Y-91222000D01*
X145660833Y-91309164D01*
X145711158Y-91385774D01*
X145787129Y-91437056D01*
X145877000Y-91455079D01*
X146477000Y-91455079D01*
X146564164Y-91438167D01*
X146640774Y-91387842D01*
X146692056Y-91311871D01*
X146710079Y-91222000D01*
X146710079Y-89622000D01*
X146693167Y-89534836D01*
X146642842Y-89458226D01*
X146566871Y-89406944D01*
X146558000Y-89405165D01*
X146558000Y-89154000D01*
X146532142Y-89024002D01*
X146528998Y-89008197D01*
X146446408Y-88884592D01*
X144414408Y-86852592D01*
X144290803Y-86770002D01*
X144145000Y-86741000D01*
X137444815Y-86741000D01*
X137160000Y-86456184D01*
X137160000Y-85090000D01*
X137137803Y-84978408D01*
X137130998Y-84944197D01*
X137048408Y-84820592D01*
X135778408Y-83550592D01*
X135683079Y-83486895D01*
X135683079Y-83170000D01*
X135666167Y-83082836D01*
X135626204Y-83022000D01*
X139293921Y-83022000D01*
X139293921Y-84622000D01*
X139310833Y-84709164D01*
X139361158Y-84785774D01*
X139437129Y-84837056D01*
X139527000Y-84855079D01*
X140127000Y-84855079D01*
X140214164Y-84838167D01*
X140290774Y-84787842D01*
X140342056Y-84711871D01*
X140360079Y-84622000D01*
X140360079Y-83022000D01*
X140343167Y-82934836D01*
X140292842Y-82858226D01*
X140216871Y-82806944D01*
X140127000Y-82788921D01*
X139527000Y-82788921D01*
X139439836Y-82805833D01*
X139363226Y-82856158D01*
X139311944Y-82932129D01*
X139293921Y-83022000D01*
X135626204Y-83022000D01*
X135615842Y-83006226D01*
X135539871Y-82954944D01*
X135450000Y-82936921D01*
X133950000Y-82936921D01*
X133862836Y-82953833D01*
X133786226Y-83004158D01*
X133734944Y-83080129D01*
X133716921Y-83170000D01*
X133716921Y-84470000D01*
X133733833Y-84557164D01*
X133784158Y-84633774D01*
X133860129Y-84685056D01*
X133950000Y-84703079D01*
X135450000Y-84703079D01*
X135537164Y-84686167D01*
X135613774Y-84635842D01*
X135665056Y-84559871D01*
X135672573Y-84522389D01*
X136398000Y-85247816D01*
X136398000Y-86456184D01*
X136032408Y-86090592D01*
X135908803Y-86008002D01*
X135763000Y-85979000D01*
X135683079Y-85979000D01*
X135683079Y-85710000D01*
X135666167Y-85622836D01*
X135615842Y-85546226D01*
X135539871Y-85494944D01*
X135450000Y-85476921D01*
X133950000Y-85476921D01*
X133862836Y-85493833D01*
X133786226Y-85544158D01*
X133734944Y-85620129D01*
X133716921Y-85710000D01*
X132983079Y-85710000D01*
X132983079Y-85710000D01*
X132966167Y-85622836D01*
X132915842Y-85546226D01*
X132839871Y-85494944D01*
X132750000Y-85476921D01*
X131250000Y-85476921D01*
X131162836Y-85493833D01*
X131086226Y-85544158D01*
X131034944Y-85620129D01*
X131016921Y-85710000D01*
X131016921Y-85979000D01*
X130556000Y-85979000D01*
X130410198Y-86008002D01*
X130286592Y-86090592D01*
X130286590Y-86090595D01*
X129890184Y-86487000D01*
X127381000Y-86487000D01*
X127381000Y-86073367D01*
X127383079Y-86063000D01*
X127383079Y-85538000D01*
X127366167Y-85450836D01*
X127315842Y-85374226D01*
X127271064Y-85344000D01*
X128524000Y-85344000D01*
X128669803Y-85314998D01*
X128793408Y-85232408D01*
X129824816Y-84201000D01*
X131016921Y-84201000D01*
X131016921Y-84470000D01*
X131033833Y-84557164D01*
X131084158Y-84633774D01*
X131160129Y-84685056D01*
X131250000Y-84703079D01*
X132750000Y-84703079D01*
X132837164Y-84686167D01*
X132913774Y-84635842D01*
X132965056Y-84559871D01*
X132983079Y-84470000D01*
X132983079Y-83170000D01*
X132966167Y-83082836D01*
X132915842Y-83006226D01*
X132839871Y-82954944D01*
X132750000Y-82936921D01*
X131250000Y-82936921D01*
X131162836Y-82953833D01*
X131086226Y-83004158D01*
X131034944Y-83080129D01*
X131016921Y-83170000D01*
X131016921Y-83439000D01*
X129667000Y-83439000D01*
X129521197Y-83468002D01*
X129397592Y-83550592D01*
X128366184Y-84582000D01*
X127920909Y-84582000D01*
X127963774Y-84553842D01*
X128015056Y-84477871D01*
X128033079Y-84388000D01*
X128033079Y-83863000D01*
X128031000Y-83852285D01*
X128031000Y-83073005D01*
X128031001Y-83073000D01*
X128001998Y-82927198D01*
X127919408Y-82803592D01*
X127270996Y-82155180D01*
X140525401Y-82155180D01*
X140612224Y-82365306D01*
X140716000Y-82469263D01*
X140716000Y-82854637D01*
X140709836Y-82855833D01*
X140633226Y-82906158D01*
X140581944Y-82982129D01*
X140563921Y-83072000D01*
X140563921Y-84572000D01*
X140580833Y-84659164D01*
X140631158Y-84735774D01*
X140707129Y-84787056D01*
X140797000Y-84805079D01*
X141397000Y-84805079D01*
X141484164Y-84788167D01*
X141560774Y-84737842D01*
X141612056Y-84661871D01*
X141630079Y-84572000D01*
X141630079Y-83072000D01*
X141620378Y-83022000D01*
X144373921Y-83022000D01*
X144373921Y-84622000D01*
X144390833Y-84709164D01*
X144441158Y-84785774D01*
X144517129Y-84837056D01*
X144526000Y-84838835D01*
X144526000Y-85090000D01*
X144555002Y-85235803D01*
X144637592Y-85359408D01*
X146034590Y-86756405D01*
X146034592Y-86756408D01*
X146104323Y-86803000D01*
X146158197Y-86838998D01*
X146304000Y-86868000D01*
X149813818Y-86868000D01*
X149916849Y-86971211D01*
X150126823Y-87058400D01*
X150354180Y-87058599D01*
X150564306Y-86971776D01*
X150725211Y-86811151D01*
X150812400Y-86601177D01*
X150812599Y-86373820D01*
X150725776Y-86163694D01*
X150565151Y-86002789D01*
X150507980Y-85979050D01*
X150564306Y-85955776D01*
X150725211Y-85795151D01*
X150812400Y-85585177D01*
X150812599Y-85357820D01*
X150725776Y-85147694D01*
X150565151Y-84986789D01*
X150355177Y-84899600D01*
X150127820Y-84899401D01*
X149917694Y-84986224D01*
X149813737Y-85090000D01*
X146969815Y-85090000D01*
X146651608Y-84771792D01*
X146692056Y-84711871D01*
X146710079Y-84622000D01*
X146710079Y-83022000D01*
X146913921Y-83022000D01*
X146913921Y-84622000D01*
X146930833Y-84709164D01*
X146981158Y-84785774D01*
X147057129Y-84837056D01*
X147147000Y-84855079D01*
X147747000Y-84855079D01*
X147834164Y-84838167D01*
X147910774Y-84787842D01*
X147962056Y-84711871D01*
X147980079Y-84622000D01*
X147980079Y-84203000D01*
X149942814Y-84203000D01*
X150043849Y-84304211D01*
X150253823Y-84391400D01*
X150481180Y-84391599D01*
X150691306Y-84304776D01*
X150852211Y-84144151D01*
X150939400Y-83934177D01*
X150939599Y-83706820D01*
X150852776Y-83496694D01*
X150692151Y-83335789D01*
X150482177Y-83248600D01*
X150254820Y-83248401D01*
X150044694Y-83335224D01*
X149938734Y-83441000D01*
X147980079Y-83441000D01*
X147980079Y-83022000D01*
X147963167Y-82934836D01*
X147912842Y-82858226D01*
X147836871Y-82806944D01*
X147747000Y-82788921D01*
X147147000Y-82788921D01*
X147059836Y-82805833D01*
X146983226Y-82856158D01*
X146931944Y-82932129D01*
X146913921Y-83022000D01*
X146710079Y-83022000D01*
X146710079Y-83022000D01*
X146693167Y-82934836D01*
X146642842Y-82858226D01*
X146566871Y-82806944D01*
X146477000Y-82788921D01*
X145877000Y-82788921D01*
X145789836Y-82805833D01*
X145713226Y-82856158D01*
X145661944Y-82932129D01*
X145643921Y-83022000D01*
X145643921Y-84622000D01*
X145660833Y-84709164D01*
X145711158Y-84785774D01*
X145787129Y-84837056D01*
X145796587Y-84838953D01*
X145825002Y-84981803D01*
X145907592Y-85105408D01*
X146542590Y-85740405D01*
X146542592Y-85740408D01*
X146623257Y-85794306D01*
X146666198Y-85822998D01*
X146812000Y-85852001D01*
X146812005Y-85852000D01*
X149813818Y-85852000D01*
X149916849Y-85955211D01*
X149974020Y-85978950D01*
X149917694Y-86002224D01*
X149813737Y-86106000D01*
X146461815Y-86106000D01*
X145288000Y-84932184D01*
X145288000Y-84839363D01*
X145294164Y-84838167D01*
X145370774Y-84787842D01*
X145422056Y-84711871D01*
X145440079Y-84622000D01*
X145440079Y-83022000D01*
X145423167Y-82934836D01*
X145372842Y-82858226D01*
X145296871Y-82806944D01*
X145207000Y-82788921D01*
X144607000Y-82788921D01*
X144519836Y-82805833D01*
X144443226Y-82856158D01*
X144391944Y-82932129D01*
X144373921Y-83022000D01*
X141620378Y-83022000D01*
X141613167Y-82984836D01*
X141562842Y-82908226D01*
X141486871Y-82856944D01*
X141478000Y-82855165D01*
X141478000Y-82469182D01*
X141581211Y-82366151D01*
X141668400Y-82156177D01*
X141668599Y-81928820D01*
X141581776Y-81718694D01*
X141421151Y-81557789D01*
X141211177Y-81470600D01*
X140983820Y-81470401D01*
X140773694Y-81557224D01*
X140612789Y-81717849D01*
X140525600Y-81927823D01*
X140525401Y-82155180D01*
X127270996Y-82155180D01*
X127269408Y-82153592D01*
X127145803Y-82071002D01*
X127000000Y-82042000D01*
X122809000Y-82042000D01*
X122663197Y-82071002D01*
X122613688Y-82104083D01*
X122539592Y-82153592D01*
X122539590Y-82153595D01*
X121254184Y-83439000D01*
X120629079Y-83439000D01*
X120629079Y-82956400D01*
X120612167Y-82869236D01*
X120561842Y-82792626D01*
X120485871Y-82741344D01*
X120396000Y-82723321D01*
X118364000Y-82723321D01*
X118276836Y-82740233D01*
X118200226Y-82790558D01*
X118148944Y-82866529D01*
X118130921Y-82956400D01*
X118130921Y-84683600D01*
X118147833Y-84770764D01*
X118198158Y-84847374D01*
X118274129Y-84898656D01*
X118364000Y-84916679D01*
X120396000Y-84916679D01*
X120483164Y-84899767D01*
X120559774Y-84849442D01*
X120611056Y-84773471D01*
X120629079Y-84683600D01*
X120629079Y-84201000D01*
X121412000Y-84201000D01*
X121557803Y-84171998D01*
X121681408Y-84089408D01*
X122966815Y-82804000D01*
X126842184Y-82804000D01*
X127269000Y-83230816D01*
X127269000Y-83667607D01*
X127239871Y-83647944D01*
X127150000Y-83629921D01*
X126850000Y-83629921D01*
X126762836Y-83646833D01*
X126686226Y-83697158D01*
X126634944Y-83773129D01*
X126616921Y-83863000D01*
X126616921Y-84388000D01*
X126619000Y-84398715D01*
X126619000Y-84709000D01*
X126648002Y-84854803D01*
X126730592Y-84978408D01*
X126984592Y-85232408D01*
X127093116Y-85304921D01*
X126850000Y-85304921D01*
X126762836Y-85321833D01*
X126686226Y-85372158D01*
X126675207Y-85388482D01*
X126665842Y-85374226D01*
X126589871Y-85322944D01*
X126500000Y-85304921D01*
X126200000Y-85304921D01*
X126112836Y-85321833D01*
X126036226Y-85372158D01*
X126004269Y-85419500D01*
X122098500Y-85419500D01*
X121952698Y-85448502D01*
X121829092Y-85531092D01*
X121829090Y-85531095D01*
X121381184Y-85979000D01*
X120573197Y-85979000D01*
X120565844Y-85942033D01*
X120329085Y-85587698D01*
X119974750Y-85350939D01*
X119556783Y-85267800D01*
X119203217Y-85267800D01*
X118785250Y-85350939D01*
X118430915Y-85587698D01*
X118194156Y-85942033D01*
X118111017Y-86360000D01*
X117118600Y-86360000D01*
X117118600Y-79018600D01*
X205461400Y-79018600D01*
X205461400Y-98781400D01*
X205461400Y-98781400D01*
G37*
X205461400Y-98781400D02*
X117118600Y-98781400D01*
X117118600Y-93980000D01*
X118111017Y-93980000D01*
X118194156Y-94397967D01*
X118430915Y-94752302D01*
X118785250Y-94989061D01*
X119203217Y-95072200D01*
X119556783Y-95072200D01*
X119974750Y-94989061D01*
X120329085Y-94752302D01*
X120565844Y-94397967D01*
X120573197Y-94361000D01*
X123063000Y-94361000D01*
X123208803Y-94331998D01*
X123332408Y-94249408D01*
X123982815Y-93599000D01*
X126969184Y-93599000D01*
X127142000Y-93771815D01*
X127142000Y-93954607D01*
X127112871Y-93934944D01*
X127023000Y-93916921D01*
X126723000Y-93916921D01*
X126635836Y-93933833D01*
X126559226Y-93984158D01*
X126507944Y-94060129D01*
X126489921Y-94150000D01*
X126489921Y-94675000D01*
X126492000Y-94685715D01*
X126492000Y-94996000D01*
X126521002Y-95141803D01*
X126603592Y-95265408D01*
X126857592Y-95519408D01*
X126966116Y-95591921D01*
X126723000Y-95591921D01*
X126635836Y-95608833D01*
X126559226Y-95659158D01*
X126548207Y-95675482D01*
X126538842Y-95661226D01*
X126462871Y-95609944D01*
X126373000Y-95591921D01*
X126073000Y-95591921D01*
X125985836Y-95608833D01*
X125909226Y-95659158D01*
X125877269Y-95706500D01*
X124384500Y-95706500D01*
X124238698Y-95735502D01*
X124115092Y-95818092D01*
X124115090Y-95818095D01*
X123794184Y-96139000D01*
X120573197Y-96139000D01*
X120565844Y-96102033D01*
X120329085Y-95747698D01*
X119974750Y-95510939D01*
X119556783Y-95427800D01*
X119203217Y-95427800D01*
X118785250Y-95510939D01*
X118430915Y-95747698D01*
X118194156Y-96102033D01*
X118111017Y-96520000D01*
X118194156Y-96937967D01*
X118430915Y-97292302D01*
X118785250Y-97529061D01*
X119203217Y-97612200D01*
X119556783Y-97612200D01*
X119974750Y-97529061D01*
X120329085Y-97292302D01*
X120565844Y-96937967D01*
X120573197Y-96901000D01*
X123952000Y-96901000D01*
X124097803Y-96871998D01*
X124221408Y-96789408D01*
X124542315Y-96468500D01*
X125877418Y-96468500D01*
X125907158Y-96513774D01*
X125983129Y-96565056D01*
X126073000Y-96583079D01*
X126373000Y-96583079D01*
X126460164Y-96566167D01*
X126492000Y-96545254D01*
X126492000Y-96934000D01*
X126521002Y-97079803D01*
X126603592Y-97203408D01*
X126904590Y-97504405D01*
X126904592Y-97504408D01*
X126978688Y-97553917D01*
X127028197Y-97586998D01*
X127174000Y-97616000D01*
X132339921Y-97616000D01*
X132339921Y-97985000D01*
X132356833Y-98072164D01*
X132407158Y-98148774D01*
X132483129Y-98200056D01*
X132573000Y-98218079D01*
X133873000Y-98218079D01*
X133960164Y-98201167D01*
X134036774Y-98150842D01*
X134088056Y-98074871D01*
X134106079Y-97985000D01*
X134106079Y-96485000D01*
X134089167Y-96397836D01*
X134038842Y-96321226D01*
X133962871Y-96269944D01*
X133943204Y-96266000D01*
X135207921Y-96266000D01*
X135207921Y-96535000D01*
X135224833Y-96622164D01*
X135275158Y-96698774D01*
X135351129Y-96750056D01*
X135441000Y-96768079D01*
X136941000Y-96768079D01*
X137028164Y-96751167D01*
X137104774Y-96700842D01*
X137156056Y-96624871D01*
X137174079Y-96535000D01*
X137174079Y-95235000D01*
X137907921Y-95235000D01*
X137907921Y-96535000D01*
X137924833Y-96622164D01*
X137975158Y-96698774D01*
X138051129Y-96750056D01*
X138141000Y-96768079D01*
X139641000Y-96768079D01*
X139728164Y-96751167D01*
X139804774Y-96700842D01*
X139856056Y-96624871D01*
X139874079Y-96535000D01*
X139874079Y-95995737D01*
X141254815Y-94615000D01*
X142159321Y-94615000D01*
X142159321Y-96647000D01*
X142176233Y-96734164D01*
X142226558Y-96810774D01*
X142302529Y-96862056D01*
X142392400Y-96880079D01*
X144119600Y-96880079D01*
X144206764Y-96863167D01*
X144283374Y-96812842D01*
X144334656Y-96736871D01*
X144352679Y-96647000D01*
X144352679Y-95454217D01*
X144703800Y-95454217D01*
X144703800Y-95807783D01*
X144786939Y-96225750D01*
X145023698Y-96580085D01*
X145378033Y-96816844D01*
X145796000Y-96899983D01*
X146213967Y-96816844D01*
X146568302Y-96580085D01*
X146805061Y-96225750D01*
X146888200Y-95807783D01*
X146888200Y-95454217D01*
X146805061Y-95036250D01*
X146702324Y-94882492D01*
X151955417Y-89629399D01*
X151955401Y-89648180D01*
X152042224Y-89858306D01*
X152202849Y-90019211D01*
X152412823Y-90106400D01*
X152640180Y-90106599D01*
X152850306Y-90019776D01*
X152986319Y-89884000D01*
X153174637Y-89884000D01*
X153175833Y-89890164D01*
X153184026Y-89902637D01*
X153176944Y-89913129D01*
X153158921Y-90003000D01*
X153158921Y-90603000D01*
X153175833Y-90690164D01*
X153226158Y-90766774D01*
X153302129Y-90818056D01*
X153392000Y-90836079D01*
X154592000Y-90836079D01*
X154679164Y-90819167D01*
X154755774Y-90768842D01*
X154807056Y-90692871D01*
X154808835Y-90684000D01*
X154899807Y-90684000D01*
X154996849Y-90781211D01*
X155206823Y-90868400D01*
X155434180Y-90868599D01*
X155644306Y-90781776D01*
X155805211Y-90621151D01*
X155861000Y-90486796D01*
X155861000Y-90935637D01*
X155854836Y-90936833D01*
X155842363Y-90945026D01*
X155831871Y-90937944D01*
X155742000Y-90919921D01*
X155142000Y-90919921D01*
X155054836Y-90936833D01*
X154978226Y-90987158D01*
X154926944Y-91063129D01*
X154908921Y-91153000D01*
X154908921Y-92353000D01*
X154925833Y-92440164D01*
X154975862Y-92516323D01*
X154401184Y-93091000D01*
X150368000Y-93091000D01*
X150222197Y-93120002D01*
X150098592Y-93202592D01*
X148815148Y-94486036D01*
X148753967Y-94445156D01*
X148336000Y-94362017D01*
X147918033Y-94445156D01*
X147563698Y-94681915D01*
X147326939Y-95036250D01*
X147243800Y-95454217D01*
X147243800Y-95807783D01*
X147326939Y-96225750D01*
X147563698Y-96580085D01*
X147918033Y-96816844D01*
X148336000Y-96899983D01*
X148753967Y-96816844D01*
X149108302Y-96580085D01*
X149345061Y-96225750D01*
X149428200Y-95807783D01*
X149428200Y-95454217D01*
X149783800Y-95454217D01*
X149783800Y-95807783D01*
X149866939Y-96225750D01*
X150103698Y-96580085D01*
X150458033Y-96816844D01*
X150876000Y-96899983D01*
X151293967Y-96816844D01*
X151390110Y-96752603D01*
X167436800Y-96752603D01*
X167436800Y-96795397D01*
X167519939Y-97213364D01*
X167756698Y-97567699D01*
X168111033Y-97804458D01*
X168529000Y-97887597D01*
X168946967Y-97804458D01*
X169301302Y-97567699D01*
X169538061Y-97213364D01*
X169621200Y-96795397D01*
X169621200Y-96752603D01*
X169976800Y-96752603D01*
X169976800Y-96795397D01*
X170059939Y-97213364D01*
X170296698Y-97567699D01*
X170651033Y-97804458D01*
X171069000Y-97887597D01*
X171486967Y-97804458D01*
X171841302Y-97567699D01*
X172078061Y-97213364D01*
X172161200Y-96795397D01*
X172161200Y-96752603D01*
X172078061Y-96334636D01*
X171841302Y-95980301D01*
X171486967Y-95743542D01*
X171069000Y-95660403D01*
X170651033Y-95743542D01*
X170296698Y-95980301D01*
X170059939Y-96334636D01*
X169976800Y-96752603D01*
X169621200Y-96752603D01*
X169621200Y-96752603D01*
X169538061Y-96334636D01*
X169301302Y-95980301D01*
X168946967Y-95743542D01*
X168529000Y-95660403D01*
X168111033Y-95743542D01*
X167756698Y-95980301D01*
X167519939Y-96334636D01*
X167436800Y-96752603D01*
X151390110Y-96752603D01*
X151648302Y-96580085D01*
X151885061Y-96225750D01*
X151968200Y-95807783D01*
X151968200Y-95454217D01*
X151885061Y-95036250D01*
X151648302Y-94681915D01*
X151293967Y-94445156D01*
X150876000Y-94362017D01*
X150458033Y-94445156D01*
X150103698Y-94681915D01*
X149866939Y-95036250D01*
X149783800Y-95454217D01*
X149428200Y-95454217D01*
X149428200Y-95454217D01*
X149345061Y-95036250D01*
X149344062Y-95034754D01*
X150166213Y-94212603D01*
X164896800Y-94212603D01*
X164896800Y-94255397D01*
X164979939Y-94673364D01*
X165216698Y-95027699D01*
X165571033Y-95264458D01*
X165989000Y-95347597D01*
X166406967Y-95264458D01*
X166761302Y-95027699D01*
X166998061Y-94673364D01*
X167081200Y-94255397D01*
X167081200Y-94212603D01*
X167436800Y-94212603D01*
X167436800Y-94255397D01*
X167519939Y-94673364D01*
X167756698Y-95027699D01*
X168111033Y-95264458D01*
X168529000Y-95347597D01*
X168946967Y-95264458D01*
X169301302Y-95027699D01*
X169538061Y-94673364D01*
X169621200Y-94255397D01*
X169621200Y-94212603D01*
X169538061Y-93794636D01*
X169301302Y-93440301D01*
X169196688Y-93370400D01*
X169972321Y-93370400D01*
X169972321Y-95097600D01*
X169989233Y-95184764D01*
X170039558Y-95261374D01*
X170115529Y-95312656D01*
X170205400Y-95330679D01*
X171932600Y-95330679D01*
X172019764Y-95313767D01*
X172096374Y-95263442D01*
X172147656Y-95187471D01*
X172165679Y-95097600D01*
X172165679Y-93370400D01*
X172148767Y-93283236D01*
X172098442Y-93206626D01*
X172022471Y-93155344D01*
X171932600Y-93137321D01*
X170205400Y-93137321D01*
X170118236Y-93154233D01*
X170041626Y-93204558D01*
X169990344Y-93280529D01*
X169972321Y-93370400D01*
X169196688Y-93370400D01*
X168946967Y-93203542D01*
X168529000Y-93120403D01*
X168111033Y-93203542D01*
X167756698Y-93440301D01*
X167519939Y-93794636D01*
X167436800Y-94212603D01*
X167081200Y-94212603D01*
X167081200Y-94212603D01*
X166998061Y-93794636D01*
X166761302Y-93440301D01*
X166406967Y-93203542D01*
X165989000Y-93120403D01*
X165571033Y-93203542D01*
X165216698Y-93440301D01*
X164979939Y-93794636D01*
X164896800Y-94212603D01*
X150166213Y-94212603D01*
X150525816Y-93853000D01*
X154559000Y-93853000D01*
X154704803Y-93823998D01*
X154828408Y-93741408D01*
X155711405Y-92858410D01*
X155711408Y-92858408D01*
X155793998Y-92734802D01*
X155820454Y-92601802D01*
X155823001Y-92589000D01*
X155823000Y-92588995D01*
X155823000Y-92570363D01*
X155829164Y-92569167D01*
X155841637Y-92560974D01*
X155852129Y-92568056D01*
X155861000Y-92569835D01*
X155861000Y-93012873D01*
X155725789Y-93147849D01*
X155638600Y-93357823D01*
X155638401Y-93585180D01*
X155725224Y-93795306D01*
X155885849Y-93956211D01*
X156095823Y-94043400D01*
X156323180Y-94043599D01*
X156533306Y-93956776D01*
X156694211Y-93796151D01*
X156781400Y-93586177D01*
X156781599Y-93358820D01*
X156694776Y-93148694D01*
X156623000Y-93076793D01*
X156623000Y-92570363D01*
X156629164Y-92569167D01*
X156641637Y-92560974D01*
X156652129Y-92568056D01*
X156742000Y-92586079D01*
X157342000Y-92586079D01*
X157429164Y-92569167D01*
X157441637Y-92560974D01*
X157452129Y-92568056D01*
X157542000Y-92586079D01*
X158142000Y-92586079D01*
X158229164Y-92569167D01*
X158305774Y-92518842D01*
X158357056Y-92442871D01*
X158375079Y-92353000D01*
X158375079Y-91153000D01*
X158358167Y-91065836D01*
X158307842Y-90989226D01*
X158231871Y-90937944D01*
X158142000Y-90919921D01*
X157542000Y-90919921D01*
X157454836Y-90936833D01*
X157442363Y-90945026D01*
X157431871Y-90937944D01*
X157342000Y-90919921D01*
X156742000Y-90919921D01*
X156654836Y-90936833D01*
X156642363Y-90945026D01*
X156631871Y-90937944D01*
X156623000Y-90936165D01*
X156623000Y-89533816D01*
X157311408Y-88845408D01*
X157393998Y-88721802D01*
X157423001Y-88576000D01*
X157423000Y-88575995D01*
X157423000Y-84838151D01*
X157503224Y-85032306D01*
X157663849Y-85193211D01*
X157873823Y-85280400D01*
X158020713Y-85280529D01*
X158623000Y-85882816D01*
X158623000Y-88900000D01*
X158652002Y-89045803D01*
X158734592Y-89169408D01*
X159861000Y-90295815D01*
X159861000Y-90935637D01*
X159854836Y-90936833D01*
X159842363Y-90945026D01*
X159831871Y-90937944D01*
X159742000Y-90919921D01*
X159142000Y-90919921D01*
X159054836Y-90936833D01*
X158978226Y-90987158D01*
X158926944Y-91063129D01*
X158908921Y-91153000D01*
X158908921Y-92353000D01*
X158925833Y-92440164D01*
X158976158Y-92516774D01*
X159052129Y-92568056D01*
X159142000Y-92586079D01*
X159742000Y-92586079D01*
X159829164Y-92569167D01*
X159841637Y-92560974D01*
X159852129Y-92568056D01*
X159942000Y-92586079D01*
X160542000Y-92586079D01*
X160629164Y-92569167D01*
X160641637Y-92560974D01*
X160652129Y-92568056D01*
X160742000Y-92586079D01*
X161342000Y-92586079D01*
X161429164Y-92569167D01*
X161505774Y-92518842D01*
X161557056Y-92442871D01*
X161575079Y-92353000D01*
X161575079Y-91153000D01*
X161558167Y-91065836D01*
X161507842Y-90989226D01*
X161431871Y-90937944D01*
X161423000Y-90936165D01*
X161423000Y-90582703D01*
X161531198Y-90654998D01*
X161674542Y-90683511D01*
X161675833Y-90690164D01*
X161726158Y-90766774D01*
X161802129Y-90818056D01*
X161892000Y-90836079D01*
X163092000Y-90836079D01*
X163179164Y-90819167D01*
X163255774Y-90768842D01*
X163307056Y-90692871D01*
X163325079Y-90603000D01*
X163325079Y-90003000D01*
X163308167Y-89915836D01*
X163299974Y-89903363D01*
X163307056Y-89892871D01*
X163325079Y-89803000D01*
X163325079Y-89203000D01*
X163308167Y-89115836D01*
X163299974Y-89103363D01*
X163307056Y-89092871D01*
X163325079Y-89003000D01*
X163325079Y-88403000D01*
X163308167Y-88315836D01*
X163299974Y-88303363D01*
X163307056Y-88292871D01*
X163325079Y-88203000D01*
X163325079Y-87603000D01*
X163308167Y-87515836D01*
X163299974Y-87503363D01*
X163307056Y-87492871D01*
X163325079Y-87403000D01*
X163325079Y-86803000D01*
X163308167Y-86715836D01*
X163299974Y-86703363D01*
X163307056Y-86692871D01*
X163308835Y-86684000D01*
X164631184Y-86684000D01*
X169275590Y-91328405D01*
X169275592Y-91328408D01*
X169384238Y-91401002D01*
X169399198Y-91410998D01*
X169545000Y-91440001D01*
X169545005Y-91440000D01*
X171165184Y-91440000D01*
X172196592Y-92471408D01*
X172320197Y-92553998D01*
X172466000Y-92583000D01*
X180213000Y-92583000D01*
X180358803Y-92553998D01*
X180482408Y-92471408D01*
X181117405Y-91836410D01*
X181117408Y-91836408D01*
X181199998Y-91712802D01*
X181211391Y-91655526D01*
X181229001Y-91567000D01*
X181229000Y-91566995D01*
X181229000Y-91566363D01*
X181235164Y-91565167D01*
X181311774Y-91514842D01*
X181363056Y-91438871D01*
X181381079Y-91349000D01*
X181381079Y-89749000D01*
X181364167Y-89661836D01*
X181313842Y-89585226D01*
X181237871Y-89533944D01*
X181148000Y-89515921D01*
X180548000Y-89515921D01*
X180460836Y-89532833D01*
X180384226Y-89583158D01*
X180332944Y-89659129D01*
X180314921Y-89749000D01*
X180314921Y-91349000D01*
X180331833Y-91436164D01*
X180374725Y-91501459D01*
X180055184Y-91821000D01*
X172623816Y-91821000D01*
X171732816Y-90930000D01*
X172694921Y-90930000D01*
X172694921Y-91349000D01*
X172711833Y-91436164D01*
X172762158Y-91512774D01*
X172838129Y-91564056D01*
X172928000Y-91582079D01*
X173528000Y-91582079D01*
X173615164Y-91565167D01*
X173691774Y-91514842D01*
X173743056Y-91438871D01*
X173761079Y-91349000D01*
X173761079Y-89749000D01*
X173744167Y-89661836D01*
X173693842Y-89585226D01*
X173617871Y-89533944D01*
X173528000Y-89515921D01*
X172928000Y-89515921D01*
X172840836Y-89532833D01*
X172764226Y-89583158D01*
X172712944Y-89659129D01*
X172694921Y-89749000D01*
X172694921Y-90168000D01*
X170208815Y-90168000D01*
X169297932Y-89257117D01*
X169418000Y-89281000D01*
X173578184Y-89281000D01*
X173978496Y-89681311D01*
X173964921Y-89749000D01*
X173964921Y-91349000D01*
X173981833Y-91436164D01*
X174032158Y-91512774D01*
X174108129Y-91564056D01*
X174198000Y-91582079D01*
X174798000Y-91582079D01*
X174885164Y-91565167D01*
X174961774Y-91514842D01*
X175013056Y-91438871D01*
X175031079Y-91349000D01*
X175031079Y-89749000D01*
X175014167Y-89661836D01*
X174963842Y-89585226D01*
X174887871Y-89533944D01*
X174852101Y-89526771D01*
X174849998Y-89516198D01*
X174812114Y-89459500D01*
X174767408Y-89392592D01*
X174767405Y-89392590D01*
X174133996Y-88759180D01*
X175196401Y-88759180D01*
X175283224Y-88969306D01*
X175387000Y-89073263D01*
X175387000Y-89531637D01*
X175380836Y-89532833D01*
X175304226Y-89583158D01*
X175252944Y-89659129D01*
X175234921Y-89749000D01*
X175234921Y-91349000D01*
X175251833Y-91436164D01*
X175302158Y-91512774D01*
X175378129Y-91564056D01*
X175468000Y-91582079D01*
X175632622Y-91582079D01*
X175651358Y-91594598D01*
X175768000Y-91617800D01*
X175884642Y-91594598D01*
X175903378Y-91582079D01*
X176068000Y-91582079D01*
X176155164Y-91565167D01*
X176231774Y-91514842D01*
X176283056Y-91438871D01*
X176301079Y-91349000D01*
X176301079Y-90930000D01*
X176504921Y-90930000D01*
X176504921Y-91349000D01*
X176521833Y-91436164D01*
X176572158Y-91512774D01*
X176648129Y-91564056D01*
X176738000Y-91582079D01*
X177338000Y-91582079D01*
X177425164Y-91565167D01*
X177501774Y-91514842D01*
X177553056Y-91438871D01*
X177571079Y-91349000D01*
X177571079Y-89749000D01*
X177554167Y-89661836D01*
X177503842Y-89585226D01*
X177427871Y-89533944D01*
X177338000Y-89515921D01*
X176738000Y-89515921D01*
X176650836Y-89532833D01*
X176574226Y-89583158D01*
X176522944Y-89659129D01*
X176504921Y-89749000D01*
X176504921Y-90168000D01*
X176301079Y-90168000D01*
X176301079Y-89749000D01*
X176284167Y-89661836D01*
X176233842Y-89585226D01*
X176157871Y-89533944D01*
X176149000Y-89532165D01*
X176149000Y-89073182D01*
X176252211Y-88970151D01*
X176339400Y-88760177D01*
X176339599Y-88532820D01*
X176252776Y-88322694D01*
X176092151Y-88161789D01*
X175882177Y-88074600D01*
X175654820Y-88074401D01*
X175444694Y-88161224D01*
X175283789Y-88321849D01*
X175196600Y-88531823D01*
X175196401Y-88759180D01*
X174133996Y-88759180D01*
X174005408Y-88630592D01*
X173881803Y-88548002D01*
X173736000Y-88519000D01*
X169575815Y-88519000D01*
X168940815Y-87884000D01*
X177642184Y-87884000D01*
X179197000Y-89438815D01*
X179197000Y-89581637D01*
X179190836Y-89582833D01*
X179114226Y-89633158D01*
X179062944Y-89709129D01*
X179044921Y-89799000D01*
X179044921Y-91299000D01*
X179061833Y-91386164D01*
X179112158Y-91462774D01*
X179188129Y-91514056D01*
X179278000Y-91532079D01*
X179878000Y-91532079D01*
X179965164Y-91515167D01*
X180041774Y-91464842D01*
X180093056Y-91388871D01*
X180111079Y-91299000D01*
X180111079Y-89799000D01*
X180094167Y-89711836D01*
X180043842Y-89635226D01*
X179967871Y-89583944D01*
X179959000Y-89582165D01*
X179959000Y-89281005D01*
X179959001Y-89281000D01*
X179929998Y-89135198D01*
X179901716Y-89092871D01*
X179847408Y-89011592D01*
X179847405Y-89011590D01*
X178069408Y-87233592D01*
X177945803Y-87151002D01*
X177800000Y-87122000D01*
X169067815Y-87122000D01*
X164929408Y-82983592D01*
X164805803Y-82901002D01*
X164660000Y-82872000D01*
X161575079Y-82872000D01*
X161575079Y-82653000D01*
X161558167Y-82565836D01*
X161507842Y-82489226D01*
X161431871Y-82437944D01*
X161342000Y-82419921D01*
X160742000Y-82419921D01*
X160654836Y-82436833D01*
X160642363Y-82445026D01*
X160631871Y-82437944D01*
X160542000Y-82419921D01*
X159942000Y-82419921D01*
X159854836Y-82436833D01*
X159778226Y-82487158D01*
X159726944Y-82563129D01*
X159708921Y-82653000D01*
X159708921Y-83853000D01*
X159725833Y-83940164D01*
X159776158Y-84016774D01*
X159852129Y-84068056D01*
X159942000Y-84086079D01*
X160542000Y-84086079D01*
X160629164Y-84069167D01*
X160641637Y-84060974D01*
X160652129Y-84068056D01*
X160742000Y-84086079D01*
X161342000Y-84086079D01*
X161429164Y-84069167D01*
X161505774Y-84018842D01*
X161557056Y-83942871D01*
X161575079Y-83853000D01*
X161575079Y-83634000D01*
X164502184Y-83634000D01*
X165190184Y-84322000D01*
X163309363Y-84322000D01*
X163308167Y-84315836D01*
X163257842Y-84239226D01*
X163181871Y-84187944D01*
X163092000Y-84169921D01*
X161892000Y-84169921D01*
X161804836Y-84186833D01*
X161728226Y-84237158D01*
X161676944Y-84313129D01*
X161658921Y-84403000D01*
X161658921Y-85003000D01*
X161675833Y-85090164D01*
X161684026Y-85102637D01*
X161676944Y-85113129D01*
X161658921Y-85203000D01*
X161658921Y-85803000D01*
X161675833Y-85890164D01*
X161684026Y-85902637D01*
X161676944Y-85913129D01*
X161658921Y-86003000D01*
X161658921Y-86603000D01*
X161675833Y-86690164D01*
X161684026Y-86702637D01*
X161676944Y-86713129D01*
X161658921Y-86803000D01*
X161658921Y-87403000D01*
X161675833Y-87490164D01*
X161684026Y-87502637D01*
X161676944Y-87513129D01*
X161658921Y-87603000D01*
X161658921Y-88203000D01*
X161675833Y-88290164D01*
X161684026Y-88302637D01*
X161676944Y-88313129D01*
X161658921Y-88403000D01*
X161658921Y-89003000D01*
X161675833Y-89090164D01*
X161684026Y-89102637D01*
X161676944Y-89113129D01*
X161658921Y-89203000D01*
X161658921Y-89238105D01*
X160782000Y-88361184D01*
X160782000Y-87000413D01*
X160851306Y-86971776D01*
X161012211Y-86811151D01*
X161099400Y-86601177D01*
X161099599Y-86373820D01*
X161012776Y-86163694D01*
X160852151Y-86002789D01*
X160642177Y-85915600D01*
X160414820Y-85915401D01*
X160204694Y-86002224D01*
X160147000Y-86059818D01*
X160147000Y-85898182D01*
X160250211Y-85795151D01*
X160337400Y-85585177D01*
X160337599Y-85357820D01*
X160250776Y-85147694D01*
X160090151Y-84986789D01*
X159880177Y-84899600D01*
X159652820Y-84899401D01*
X159442694Y-84986224D01*
X159281789Y-85146849D01*
X159194600Y-85356823D01*
X159194583Y-85376767D01*
X158559471Y-84741655D01*
X158559599Y-84595820D01*
X158472776Y-84385694D01*
X158312151Y-84224789D01*
X158102177Y-84137600D01*
X157874820Y-84137401D01*
X157664694Y-84224224D01*
X157503789Y-84384849D01*
X157423000Y-84579410D01*
X157423000Y-84070363D01*
X157429164Y-84069167D01*
X157505774Y-84018842D01*
X157557056Y-83942871D01*
X157575079Y-83853000D01*
X157575079Y-82653000D01*
X157558167Y-82565836D01*
X157507842Y-82489226D01*
X157431871Y-82437944D01*
X157423000Y-82436165D01*
X157423000Y-82002816D01*
X157668736Y-81757079D01*
X157799263Y-81757079D01*
X158261000Y-82218815D01*
X158261000Y-82435637D01*
X158254836Y-82436833D01*
X158178226Y-82487158D01*
X158126944Y-82563129D01*
X158108921Y-82653000D01*
X158108921Y-83853000D01*
X158125833Y-83940164D01*
X158176158Y-84016774D01*
X158252129Y-84068056D01*
X158342000Y-84086079D01*
X158942000Y-84086079D01*
X159029164Y-84069167D01*
X159105774Y-84018842D01*
X159157056Y-83942871D01*
X159175079Y-83853000D01*
X159175079Y-82653000D01*
X159158167Y-82565836D01*
X159107842Y-82489226D01*
X159031871Y-82437944D01*
X159023000Y-82436165D01*
X159023000Y-82155180D01*
X172656401Y-82155180D01*
X172743224Y-82365306D01*
X172847000Y-82469263D01*
X172847000Y-82931637D01*
X172840836Y-82932833D01*
X172764226Y-82983158D01*
X172712944Y-83059129D01*
X172694921Y-83149000D01*
X172694921Y-84749000D01*
X172711833Y-84836164D01*
X172762158Y-84912774D01*
X172838129Y-84964056D01*
X172928000Y-84982079D01*
X173528000Y-84982079D01*
X173615164Y-84965167D01*
X173691774Y-84914842D01*
X173743056Y-84838871D01*
X173761079Y-84749000D01*
X173761079Y-83149000D01*
X173964921Y-83149000D01*
X173964921Y-84749000D01*
X173981833Y-84836164D01*
X174032158Y-84912774D01*
X174108129Y-84964056D01*
X174198000Y-84982079D01*
X174798000Y-84982079D01*
X174885164Y-84965167D01*
X174961774Y-84914842D01*
X175013056Y-84838871D01*
X175031079Y-84749000D01*
X175031079Y-83149000D01*
X175014167Y-83061836D01*
X174963842Y-82985226D01*
X174887871Y-82933944D01*
X174879000Y-82932165D01*
X174879000Y-81818816D01*
X176306815Y-80391000D01*
X177896185Y-80391000D01*
X175498592Y-82788592D01*
X175416002Y-82912197D01*
X175413144Y-82926564D01*
X175380836Y-82932833D01*
X175304226Y-82983158D01*
X175252944Y-83059129D01*
X175234921Y-83149000D01*
X175234921Y-84749000D01*
X175251833Y-84836164D01*
X175302158Y-84912774D01*
X175378129Y-84964056D01*
X175468000Y-84982079D01*
X176068000Y-84982079D01*
X176155164Y-84965167D01*
X176231774Y-84914842D01*
X176283056Y-84838871D01*
X176301079Y-84749000D01*
X176301079Y-83149000D01*
X176287224Y-83077592D01*
X178465815Y-80899000D01*
X178658184Y-80899000D01*
X176768592Y-82788592D01*
X176686002Y-82912197D01*
X176683144Y-82926564D01*
X176650836Y-82932833D01*
X176574226Y-82983158D01*
X176522944Y-83059129D01*
X176504921Y-83149000D01*
X176504921Y-84749000D01*
X176521833Y-84836164D01*
X176572158Y-84912774D01*
X176648129Y-84964056D01*
X176738000Y-84982079D01*
X177338000Y-84982079D01*
X177425164Y-84965167D01*
X177501774Y-84914842D01*
X177553056Y-84838871D01*
X177571079Y-84749000D01*
X177571079Y-83149000D01*
X177557224Y-83077592D01*
X179227816Y-81407000D01*
X179293185Y-81407000D01*
X178038592Y-82661592D01*
X177956002Y-82785197D01*
X177944144Y-82844810D01*
X177927000Y-82931000D01*
X177927000Y-82931637D01*
X177920836Y-82932833D01*
X177844226Y-82983158D01*
X177792944Y-83059129D01*
X177774921Y-83149000D01*
X177774921Y-84749000D01*
X177791833Y-84836164D01*
X177842158Y-84912774D01*
X177918129Y-84964056D01*
X178008000Y-84982079D01*
X178608000Y-84982079D01*
X178695164Y-84965167D01*
X178771774Y-84914842D01*
X178823056Y-84838871D01*
X178841079Y-84749000D01*
X178841079Y-83149000D01*
X178824167Y-83061836D01*
X178781275Y-82996541D01*
X179862815Y-81915000D01*
X180563185Y-81915000D01*
X179562263Y-82915921D01*
X179278000Y-82915921D01*
X179190836Y-82932833D01*
X179114226Y-82983158D01*
X179062944Y-83059129D01*
X179044921Y-83149000D01*
X179044921Y-84749000D01*
X179061833Y-84836164D01*
X179112158Y-84912774D01*
X179188129Y-84964056D01*
X179278000Y-84982079D01*
X179878000Y-84982079D01*
X179965164Y-84965167D01*
X180041774Y-84914842D01*
X180093056Y-84838871D01*
X180111079Y-84749000D01*
X180111079Y-83444737D01*
X180314921Y-83240895D01*
X180314921Y-84749000D01*
X180331833Y-84836164D01*
X180382158Y-84912774D01*
X180458129Y-84964056D01*
X180548000Y-84982079D01*
X181148000Y-84982079D01*
X181235164Y-84965167D01*
X181311774Y-84914842D01*
X181363056Y-84838871D01*
X181381079Y-84749000D01*
X181381079Y-83149000D01*
X181364167Y-83061836D01*
X181321275Y-82996541D01*
X181361413Y-82956402D01*
X181694957Y-82956402D01*
X181654226Y-82983158D01*
X181602944Y-83059129D01*
X181584921Y-83149000D01*
X181584921Y-84749000D01*
X181601833Y-84836164D01*
X181652158Y-84912774D01*
X181728129Y-84964056D01*
X181818000Y-84982079D01*
X181979263Y-84982079D01*
X182753000Y-85755816D01*
X182753000Y-88900000D01*
X182782002Y-89045803D01*
X182864592Y-89169408D01*
X184324000Y-90628815D01*
X184324000Y-93731921D01*
X183955000Y-93731921D01*
X183867836Y-93748833D01*
X183791226Y-93799158D01*
X183739944Y-93875129D01*
X183721921Y-93965000D01*
X183721921Y-95265000D01*
X183738833Y-95352164D01*
X183789158Y-95428774D01*
X183865129Y-95480056D01*
X183955000Y-95498079D01*
X185455000Y-95498079D01*
X185542164Y-95481167D01*
X185618774Y-95430842D01*
X185670056Y-95354871D01*
X185688079Y-95265000D01*
X185688079Y-93965000D01*
X186421921Y-93965000D01*
X186421921Y-95265000D01*
X186438833Y-95352164D01*
X186489158Y-95428774D01*
X186565129Y-95480056D01*
X186655000Y-95498079D01*
X188155000Y-95498079D01*
X188242164Y-95481167D01*
X188318774Y-95430842D01*
X188370056Y-95354871D01*
X188388079Y-95265000D01*
X188388079Y-94996000D01*
X188691184Y-94996000D01*
X190484592Y-96789408D01*
X190608198Y-96871998D01*
X190754000Y-96901001D01*
X190754005Y-96901000D01*
X200736803Y-96901000D01*
X200744156Y-96937967D01*
X200980915Y-97292302D01*
X201335250Y-97529061D01*
X201753217Y-97612200D01*
X202106783Y-97612200D01*
X202524750Y-97529061D01*
X202879085Y-97292302D01*
X203115844Y-96937967D01*
X203198983Y-96520000D01*
X203115844Y-96102033D01*
X202879085Y-95747698D01*
X202524750Y-95510939D01*
X202106783Y-95427800D01*
X201753217Y-95427800D01*
X201335250Y-95510939D01*
X200980915Y-95747698D01*
X200744156Y-96102033D01*
X200736803Y-96139000D01*
X190911816Y-96139000D01*
X189118408Y-94345592D01*
X188994803Y-94263002D01*
X188849000Y-94234000D01*
X188388079Y-94234000D01*
X188388079Y-93965000D01*
X188371167Y-93877836D01*
X188320842Y-93801226D01*
X188244871Y-93749944D01*
X188155000Y-93731921D01*
X186655000Y-93731921D01*
X186567836Y-93748833D01*
X186491226Y-93799158D01*
X186439944Y-93875129D01*
X186421921Y-93965000D01*
X185688079Y-93965000D01*
X185688079Y-93965000D01*
X185671167Y-93877836D01*
X185620842Y-93801226D01*
X185544871Y-93749944D01*
X185455000Y-93731921D01*
X185086000Y-93731921D01*
X185086000Y-90628815D01*
X186166590Y-91709405D01*
X186166592Y-91709408D01*
X186231833Y-91753000D01*
X186290198Y-91791998D01*
X186436000Y-91821001D01*
X186436005Y-91821000D01*
X186896921Y-91821000D01*
X186896921Y-92090000D01*
X186913833Y-92177164D01*
X186964158Y-92253774D01*
X187040129Y-92305056D01*
X187130000Y-92323079D01*
X188630000Y-92323079D01*
X188717164Y-92306167D01*
X188793774Y-92255842D01*
X188845056Y-92179871D01*
X188863079Y-92090000D01*
X188863079Y-90790000D01*
X189596921Y-90790000D01*
X189596921Y-92090000D01*
X189613833Y-92177164D01*
X189664158Y-92253774D01*
X189740129Y-92305056D01*
X189830000Y-92323079D01*
X191330000Y-92323079D01*
X191417164Y-92306167D01*
X191493774Y-92255842D01*
X191545056Y-92179871D01*
X191563079Y-92090000D01*
X191563079Y-91821000D01*
X195803184Y-91821000D01*
X198231590Y-94249405D01*
X198231592Y-94249408D01*
X198355198Y-94331998D01*
X198501000Y-94361000D01*
X200736803Y-94361000D01*
X200744156Y-94397967D01*
X200980915Y-94752302D01*
X201335250Y-94989061D01*
X201753217Y-95072200D01*
X202106783Y-95072200D01*
X202524750Y-94989061D01*
X202879085Y-94752302D01*
X203115844Y-94397967D01*
X203198983Y-93980000D01*
X203115844Y-93562033D01*
X202879085Y-93207698D01*
X202524750Y-92970939D01*
X202106783Y-92887800D01*
X201753217Y-92887800D01*
X201335250Y-92970939D01*
X200980915Y-93207698D01*
X200744156Y-93562033D01*
X200736803Y-93599000D01*
X198658815Y-93599000D01*
X196230408Y-91170592D01*
X196106803Y-91088002D01*
X195961000Y-91059000D01*
X191563079Y-91059000D01*
X191563079Y-90790000D01*
X191546167Y-90702836D01*
X191495842Y-90626226D01*
X191419871Y-90574944D01*
X191330000Y-90556921D01*
X189830000Y-90556921D01*
X189742836Y-90573833D01*
X189666226Y-90624158D01*
X189614944Y-90700129D01*
X189596921Y-90790000D01*
X188863079Y-90790000D01*
X188863079Y-90790000D01*
X188846167Y-90702836D01*
X188795842Y-90626226D01*
X188719871Y-90574944D01*
X188630000Y-90556921D01*
X187130000Y-90556921D01*
X187042836Y-90573833D01*
X186966226Y-90624158D01*
X186914944Y-90700129D01*
X186896921Y-90790000D01*
X186896921Y-91059000D01*
X186593815Y-91059000D01*
X184942816Y-89408000D01*
X186896921Y-89408000D01*
X186896921Y-89677000D01*
X186913833Y-89764164D01*
X186964158Y-89840774D01*
X187040129Y-89892056D01*
X187130000Y-89910079D01*
X188630000Y-89910079D01*
X188717164Y-89893167D01*
X188793774Y-89842842D01*
X188845056Y-89766871D01*
X188863079Y-89677000D01*
X188863079Y-88377000D01*
X189596921Y-88377000D01*
X189596921Y-89677000D01*
X189613833Y-89764164D01*
X189664158Y-89840774D01*
X189740129Y-89892056D01*
X189830000Y-89910079D01*
X191330000Y-89910079D01*
X191417164Y-89893167D01*
X191493774Y-89842842D01*
X191545056Y-89766871D01*
X191563079Y-89677000D01*
X191563079Y-89408000D01*
X194533184Y-89408000D01*
X196834590Y-91709405D01*
X196834592Y-91709408D01*
X196899833Y-91753000D01*
X196958197Y-91791998D01*
X197104000Y-91821000D01*
X200736803Y-91821000D01*
X200744156Y-91857967D01*
X200980915Y-92212302D01*
X201335250Y-92449061D01*
X201753217Y-92532200D01*
X202106783Y-92532200D01*
X202524750Y-92449061D01*
X202879085Y-92212302D01*
X203115844Y-91857967D01*
X203198983Y-91440000D01*
X203115844Y-91022033D01*
X202879085Y-90667698D01*
X202524750Y-90430939D01*
X202106783Y-90347800D01*
X201753217Y-90347800D01*
X201335250Y-90430939D01*
X200980915Y-90667698D01*
X200744156Y-91022033D01*
X200736803Y-91059000D01*
X197261815Y-91059000D01*
X194960408Y-88757592D01*
X194836803Y-88675002D01*
X194691000Y-88646000D01*
X191563079Y-88646000D01*
X191563079Y-88377000D01*
X191546167Y-88289836D01*
X191495842Y-88213226D01*
X191419871Y-88161944D01*
X191330000Y-88143921D01*
X189830000Y-88143921D01*
X189742836Y-88160833D01*
X189666226Y-88211158D01*
X189614944Y-88287129D01*
X189596921Y-88377000D01*
X188863079Y-88377000D01*
X188863079Y-88377000D01*
X188846167Y-88289836D01*
X188795842Y-88213226D01*
X188719871Y-88161944D01*
X188630000Y-88143921D01*
X187928870Y-88143921D01*
X187880000Y-88134200D01*
X187831130Y-88143921D01*
X187130000Y-88143921D01*
X187042836Y-88160833D01*
X186966226Y-88211158D01*
X186914944Y-88287129D01*
X186896921Y-88377000D01*
X186896921Y-88646000D01*
X185069815Y-88646000D01*
X184531000Y-88107184D01*
X184531000Y-86644816D01*
X185150590Y-87264405D01*
X185150592Y-87264408D01*
X185274198Y-87346998D01*
X185420000Y-87376001D01*
X185420005Y-87376000D01*
X192611921Y-87376000D01*
X192611921Y-87645000D01*
X192628833Y-87732164D01*
X192679158Y-87808774D01*
X192755129Y-87860056D01*
X192845000Y-87878079D01*
X194345000Y-87878079D01*
X194432164Y-87861167D01*
X194508774Y-87810842D01*
X194560056Y-87734871D01*
X194578079Y-87645000D01*
X194578079Y-86345000D01*
X195311921Y-86345000D01*
X195311921Y-87645000D01*
X195328833Y-87732164D01*
X195379158Y-87808774D01*
X195455129Y-87860056D01*
X195545000Y-87878079D01*
X197045000Y-87878079D01*
X197132164Y-87861167D01*
X197208774Y-87810842D01*
X197260056Y-87734871D01*
X197278079Y-87645000D01*
X197278079Y-87376000D01*
X197454184Y-87376000D01*
X199247592Y-89169408D01*
X199371198Y-89251998D01*
X199517000Y-89281001D01*
X199517005Y-89281000D01*
X200736803Y-89281000D01*
X200744156Y-89317967D01*
X200980915Y-89672302D01*
X201335250Y-89909061D01*
X201753217Y-89992200D01*
X202106783Y-89992200D01*
X202524750Y-89909061D01*
X202879085Y-89672302D01*
X203115844Y-89317967D01*
X203198983Y-88900000D01*
X203115844Y-88482033D01*
X202879085Y-88127698D01*
X202524750Y-87890939D01*
X202106783Y-87807800D01*
X201753217Y-87807800D01*
X201335250Y-87890939D01*
X200980915Y-88127698D01*
X200744156Y-88482033D01*
X200736803Y-88519000D01*
X199674816Y-88519000D01*
X197881408Y-86725592D01*
X197757803Y-86643002D01*
X197612000Y-86614000D01*
X197278079Y-86614000D01*
X197278079Y-86345000D01*
X197261167Y-86257836D01*
X197210842Y-86181226D01*
X197134871Y-86129944D01*
X197045000Y-86111921D01*
X195545000Y-86111921D01*
X195457836Y-86128833D01*
X195381226Y-86179158D01*
X195329944Y-86255129D01*
X195311921Y-86345000D01*
X194578079Y-86345000D01*
X194578079Y-86345000D01*
X194561167Y-86257836D01*
X194510842Y-86181226D01*
X194434871Y-86129944D01*
X194345000Y-86111921D01*
X192845000Y-86111921D01*
X192757836Y-86128833D01*
X192681226Y-86179158D01*
X192629944Y-86255129D01*
X192611921Y-86345000D01*
X192611921Y-86614000D01*
X185577815Y-86614000D01*
X185039000Y-86075184D01*
X185039000Y-85120816D01*
X185658590Y-85740405D01*
X185658592Y-85740408D01*
X185739257Y-85794306D01*
X185782198Y-85822998D01*
X185928000Y-85852001D01*
X185928005Y-85852000D01*
X187023921Y-85852000D01*
X187023921Y-86121000D01*
X187040833Y-86208164D01*
X187091158Y-86284774D01*
X187167129Y-86336056D01*
X187257000Y-86354079D01*
X188757000Y-86354079D01*
X188844164Y-86337167D01*
X188920774Y-86286842D01*
X188972056Y-86210871D01*
X188990079Y-86121000D01*
X188990079Y-84821000D01*
X189723921Y-84821000D01*
X189723921Y-86121000D01*
X189740833Y-86208164D01*
X189791158Y-86284774D01*
X189867129Y-86336056D01*
X189957000Y-86354079D01*
X191457000Y-86354079D01*
X191544164Y-86337167D01*
X191620774Y-86286842D01*
X191672056Y-86210871D01*
X191690079Y-86121000D01*
X191690079Y-85852000D01*
X198724184Y-85852000D01*
X199501592Y-86629408D01*
X199625198Y-86711998D01*
X199771000Y-86741001D01*
X199771005Y-86741000D01*
X200736803Y-86741000D01*
X200744156Y-86777967D01*
X200980915Y-87132302D01*
X201335250Y-87369061D01*
X201753217Y-87452200D01*
X202106783Y-87452200D01*
X202524750Y-87369061D01*
X202879085Y-87132302D01*
X203115844Y-86777967D01*
X203198983Y-86360000D01*
X203115844Y-85942033D01*
X202879085Y-85587698D01*
X202524750Y-85350939D01*
X202106783Y-85267800D01*
X201753217Y-85267800D01*
X201335250Y-85350939D01*
X200980915Y-85587698D01*
X200744156Y-85942033D01*
X200736803Y-85979000D01*
X199928816Y-85979000D01*
X199151408Y-85201592D01*
X199027803Y-85119002D01*
X198882000Y-85090000D01*
X191690079Y-85090000D01*
X191690079Y-84821000D01*
X191673167Y-84733836D01*
X191622842Y-84657226D01*
X191546871Y-84605944D01*
X191457000Y-84587921D01*
X189957000Y-84587921D01*
X189869836Y-84604833D01*
X189793226Y-84655158D01*
X189741944Y-84731129D01*
X189723921Y-84821000D01*
X188990079Y-84821000D01*
X188990079Y-84821000D01*
X188973167Y-84733836D01*
X188922842Y-84657226D01*
X188846871Y-84605944D01*
X188757000Y-84587921D01*
X187257000Y-84587921D01*
X187169836Y-84604833D01*
X187093226Y-84655158D01*
X187041944Y-84731129D01*
X187023921Y-84821000D01*
X187023921Y-85090000D01*
X186085815Y-85090000D01*
X185547000Y-84551184D01*
X185547000Y-83596816D01*
X185912590Y-83962405D01*
X185912592Y-83962408D01*
X186036198Y-84044998D01*
X186182000Y-84074000D01*
X191817000Y-84074000D01*
X191962803Y-84044998D01*
X192086408Y-83962408D01*
X193123736Y-82925079D01*
X194218000Y-82925079D01*
X194305164Y-82908167D01*
X194381774Y-82857842D01*
X194433056Y-82781871D01*
X194451079Y-82692000D01*
X194451079Y-81392000D01*
X195184921Y-81392000D01*
X195184921Y-82692000D01*
X195201833Y-82779164D01*
X195252158Y-82855774D01*
X195328129Y-82907056D01*
X195418000Y-82925079D01*
X196918000Y-82925079D01*
X197005164Y-82908167D01*
X197081774Y-82857842D01*
X197133056Y-82781871D01*
X197151079Y-82692000D01*
X197151079Y-82500895D01*
X198739590Y-84089405D01*
X198739592Y-84089408D01*
X198820257Y-84143306D01*
X198863198Y-84171998D01*
X199009000Y-84201001D01*
X199009005Y-84201000D01*
X200736803Y-84201000D01*
X200744156Y-84237967D01*
X200980915Y-84592302D01*
X201335250Y-84829061D01*
X201753217Y-84912200D01*
X202106783Y-84912200D01*
X202524750Y-84829061D01*
X202879085Y-84592302D01*
X203115844Y-84237967D01*
X203198983Y-83820000D01*
X203115844Y-83402033D01*
X202879085Y-83047698D01*
X202524750Y-82810939D01*
X202106783Y-82727800D01*
X201753217Y-82727800D01*
X201335250Y-82810939D01*
X200980915Y-83047698D01*
X200744156Y-83402033D01*
X200736803Y-83439000D01*
X199166815Y-83439000D01*
X197500408Y-81772592D01*
X197376803Y-81690002D01*
X197231000Y-81661000D01*
X197151079Y-81661000D01*
X197151079Y-81392000D01*
X197134167Y-81304836D01*
X197083842Y-81228226D01*
X197007871Y-81176944D01*
X196918000Y-81158921D01*
X195418000Y-81158921D01*
X195330836Y-81175833D01*
X195254226Y-81226158D01*
X195202944Y-81302129D01*
X195184921Y-81392000D01*
X194451079Y-81392000D01*
X194451079Y-81392000D01*
X194434167Y-81304836D01*
X194383842Y-81228226D01*
X194307871Y-81176944D01*
X194218000Y-81158921D01*
X192718000Y-81158921D01*
X192630836Y-81175833D01*
X192554226Y-81226158D01*
X192502944Y-81302129D01*
X192484921Y-81392000D01*
X192484921Y-82486264D01*
X191659184Y-83312000D01*
X186339815Y-83312000D01*
X186055000Y-83027184D01*
X186055000Y-81915000D01*
X186032803Y-81803408D01*
X186025998Y-81769197D01*
X185973081Y-81690002D01*
X185943408Y-81645592D01*
X185943405Y-81645590D01*
X184688816Y-80391000D01*
X186024184Y-80391000D01*
X186851367Y-81218183D01*
X186839226Y-81226158D01*
X186787944Y-81302129D01*
X186769921Y-81392000D01*
X186769921Y-82692000D01*
X186786833Y-82779164D01*
X186837158Y-82855774D01*
X186913129Y-82907056D01*
X187003000Y-82925079D01*
X188503000Y-82925079D01*
X188590164Y-82908167D01*
X188666774Y-82857842D01*
X188718056Y-82781871D01*
X188736079Y-82692000D01*
X188736079Y-81392000D01*
X189469921Y-81392000D01*
X189469921Y-82692000D01*
X189486833Y-82779164D01*
X189537158Y-82855774D01*
X189613129Y-82907056D01*
X189703000Y-82925079D01*
X191203000Y-82925079D01*
X191290164Y-82908167D01*
X191366774Y-82857842D01*
X191418056Y-82781871D01*
X191436079Y-82692000D01*
X191436079Y-81392000D01*
X191419167Y-81304836D01*
X191368842Y-81228226D01*
X191292871Y-81176944D01*
X191272881Y-81172935D01*
X192181815Y-80264000D01*
X200375184Y-80264000D01*
X200680921Y-80569737D01*
X200680921Y-82143600D01*
X200697833Y-82230764D01*
X200748158Y-82307374D01*
X200824129Y-82358656D01*
X200914000Y-82376679D01*
X202946000Y-82376679D01*
X203033164Y-82359767D01*
X203109774Y-82309442D01*
X203161056Y-82233471D01*
X203179079Y-82143600D01*
X203179079Y-80416400D01*
X203162167Y-80329236D01*
X203111842Y-80252626D01*
X203035871Y-80201344D01*
X202946000Y-80183321D01*
X201372137Y-80183321D01*
X200802408Y-79613592D01*
X200678803Y-79531002D01*
X200533000Y-79502000D01*
X192024005Y-79502000D01*
X192024000Y-79501999D01*
X191878198Y-79531002D01*
X191754592Y-79613592D01*
X191754590Y-79613595D01*
X190209263Y-81158921D01*
X189703000Y-81158921D01*
X189615836Y-81175833D01*
X189539226Y-81226158D01*
X189487944Y-81302129D01*
X189469921Y-81392000D01*
X188736079Y-81392000D01*
X188736079Y-81392000D01*
X188719167Y-81304836D01*
X188668842Y-81228226D01*
X188592871Y-81176944D01*
X188503000Y-81158921D01*
X187869736Y-81158921D01*
X186451408Y-79740592D01*
X186327803Y-79658002D01*
X186182000Y-79629000D01*
X176149005Y-79629000D01*
X176149000Y-79628999D01*
X176003198Y-79658002D01*
X175879592Y-79740592D01*
X175879590Y-79740595D01*
X174228592Y-81391592D01*
X174146002Y-81515197D01*
X174146002Y-81515198D01*
X174117000Y-81661000D01*
X174117000Y-82931637D01*
X174110836Y-82932833D01*
X174034226Y-82983158D01*
X173982944Y-83059129D01*
X173964921Y-83149000D01*
X173761079Y-83149000D01*
X173761079Y-83149000D01*
X173744167Y-83061836D01*
X173693842Y-82985226D01*
X173617871Y-82933944D01*
X173609000Y-82932165D01*
X173609000Y-82469182D01*
X173712211Y-82366151D01*
X173799400Y-82156177D01*
X173799599Y-81928820D01*
X173712776Y-81718694D01*
X173552151Y-81557789D01*
X173342177Y-81470600D01*
X173114820Y-81470401D01*
X172904694Y-81557224D01*
X172743789Y-81717849D01*
X172656600Y-81927823D01*
X172656401Y-82155180D01*
X159023000Y-82155180D01*
X159023000Y-82061000D01*
X159015481Y-82023198D01*
X158993998Y-81915197D01*
X158950707Y-81850408D01*
X158911408Y-81791592D01*
X158911405Y-81791590D01*
X158570079Y-81450264D01*
X158570079Y-81432400D01*
X159083921Y-81432400D01*
X159083921Y-81549000D01*
X159100833Y-81636164D01*
X159151158Y-81712774D01*
X159227129Y-81764056D01*
X159317000Y-81782079D01*
X160817000Y-81782079D01*
X160904164Y-81765167D01*
X160980774Y-81714842D01*
X161032056Y-81638871D01*
X161050079Y-81549000D01*
X161050079Y-80249000D01*
X161783921Y-80249000D01*
X161783921Y-81549000D01*
X161800833Y-81636164D01*
X161851158Y-81712774D01*
X161927129Y-81764056D01*
X162017000Y-81782079D01*
X163517000Y-81782079D01*
X163604164Y-81765167D01*
X163680774Y-81714842D01*
X163732056Y-81638871D01*
X163750079Y-81549000D01*
X163750079Y-81432400D01*
X164640309Y-81432400D01*
X164731823Y-81470400D01*
X164959180Y-81470599D01*
X165169306Y-81383776D01*
X165330211Y-81223151D01*
X165417400Y-81013177D01*
X165417599Y-80785820D01*
X165330776Y-80575694D01*
X165170151Y-80414789D01*
X164960177Y-80327600D01*
X164732820Y-80327401D01*
X164640372Y-80365600D01*
X163750079Y-80365600D01*
X163750079Y-80249000D01*
X163733167Y-80161836D01*
X163682842Y-80085226D01*
X163606871Y-80033944D01*
X163517000Y-80015921D01*
X162017000Y-80015921D01*
X161929836Y-80032833D01*
X161853226Y-80083158D01*
X161801944Y-80159129D01*
X161783921Y-80249000D01*
X161050079Y-80249000D01*
X161050079Y-80249000D01*
X161033167Y-80161836D01*
X160982842Y-80085226D01*
X160906871Y-80033944D01*
X160817000Y-80015921D01*
X159317000Y-80015921D01*
X159229836Y-80032833D01*
X159153226Y-80083158D01*
X159101944Y-80159129D01*
X159083921Y-80249000D01*
X159083921Y-80365600D01*
X158570079Y-80365600D01*
X158570079Y-80274000D01*
X158553167Y-80186836D01*
X158502842Y-80110226D01*
X158426871Y-80058944D01*
X158337000Y-80040921D01*
X156837000Y-80040921D01*
X156749836Y-80057833D01*
X156673226Y-80108158D01*
X156621944Y-80184129D01*
X156603921Y-80274000D01*
X156603921Y-81524000D01*
X156620833Y-81611164D01*
X156671158Y-81687774D01*
X156689775Y-81700341D01*
X156686890Y-81714842D01*
X156661000Y-81845000D01*
X156661000Y-82435637D01*
X156654836Y-82436833D01*
X156642363Y-82445026D01*
X156631871Y-82437944D01*
X156542000Y-82419921D01*
X155942000Y-82419921D01*
X155854836Y-82436833D01*
X155842363Y-82445026D01*
X155831871Y-82437944D01*
X155742000Y-82419921D01*
X155142000Y-82419921D01*
X155054836Y-82436833D01*
X154978226Y-82487158D01*
X154926944Y-82563129D01*
X154908921Y-82653000D01*
X154908921Y-83853000D01*
X154925833Y-83940164D01*
X154976158Y-84016774D01*
X155052129Y-84068056D01*
X155142000Y-84086079D01*
X155742000Y-84086079D01*
X155829164Y-84069167D01*
X155841637Y-84060974D01*
X155852129Y-84068056D01*
X155942000Y-84086079D01*
X156542000Y-84086079D01*
X156629164Y-84069167D01*
X156641637Y-84060974D01*
X156652129Y-84068056D01*
X156661000Y-84069835D01*
X156661000Y-88418184D01*
X155972592Y-89106592D01*
X155890002Y-89230197D01*
X155869792Y-89331800D01*
X155861000Y-89376000D01*
X155861000Y-90107345D01*
X155805776Y-89973694D01*
X155645151Y-89812789D01*
X155435177Y-89725600D01*
X155207820Y-89725401D01*
X154997694Y-89812224D01*
X154887727Y-89922000D01*
X154809363Y-89922000D01*
X154808167Y-89915836D01*
X154799974Y-89903363D01*
X154807056Y-89892871D01*
X154825079Y-89803000D01*
X154825079Y-89203000D01*
X154808167Y-89115836D01*
X154799974Y-89103363D01*
X154807056Y-89092871D01*
X154825079Y-89003000D01*
X154825079Y-88403000D01*
X154808167Y-88315836D01*
X154799974Y-88303363D01*
X154807056Y-88292871D01*
X154825079Y-88203000D01*
X154825079Y-87603000D01*
X154808167Y-87515836D01*
X154799974Y-87503363D01*
X154807056Y-87492871D01*
X154825079Y-87403000D01*
X154825079Y-86803000D01*
X154808167Y-86715836D01*
X154799974Y-86703363D01*
X154807056Y-86692871D01*
X154825079Y-86603000D01*
X154825079Y-86003000D01*
X154808167Y-85915836D01*
X154799974Y-85903363D01*
X154807056Y-85892871D01*
X154825079Y-85803000D01*
X154825079Y-85203000D01*
X154808167Y-85115836D01*
X154799974Y-85103363D01*
X154807056Y-85092871D01*
X154825079Y-85003000D01*
X154825079Y-84403000D01*
X154808167Y-84315836D01*
X154757842Y-84239226D01*
X154681871Y-84187944D01*
X154592000Y-84169921D01*
X153392000Y-84169921D01*
X153304836Y-84186833D01*
X153228226Y-84237158D01*
X153176944Y-84313129D01*
X153158921Y-84403000D01*
X153158921Y-85003000D01*
X153175833Y-85090164D01*
X153184026Y-85102637D01*
X153176944Y-85113129D01*
X153158921Y-85203000D01*
X153158921Y-85803000D01*
X153175833Y-85890164D01*
X153184026Y-85902637D01*
X153176944Y-85913129D01*
X153158921Y-86003000D01*
X153158921Y-86603000D01*
X153175833Y-86690164D01*
X153184026Y-86702637D01*
X153176944Y-86713129D01*
X153158921Y-86803000D01*
X153158921Y-87403000D01*
X153175833Y-87490164D01*
X153184026Y-87502637D01*
X153176944Y-87513129D01*
X153158921Y-87603000D01*
X153158921Y-88203000D01*
X153175833Y-88290164D01*
X153184026Y-88302637D01*
X153176944Y-88313129D01*
X153175165Y-88322000D01*
X152343000Y-88322000D01*
X152197197Y-88351002D01*
X152073592Y-88433592D01*
X148018471Y-92488713D01*
X148018599Y-92342820D01*
X147931776Y-92132694D01*
X147828000Y-92028737D01*
X147828000Y-91439363D01*
X147834164Y-91438167D01*
X147910774Y-91387842D01*
X147962056Y-91311871D01*
X147980079Y-91222000D01*
X147980079Y-89622000D01*
X147963167Y-89534836D01*
X147912842Y-89458226D01*
X147836871Y-89406944D01*
X147747000Y-89388921D01*
X147147000Y-89388921D01*
X147059836Y-89405833D01*
X146983226Y-89456158D01*
X146931944Y-89532129D01*
X146913921Y-89622000D01*
X146913921Y-91222000D01*
X146930833Y-91309164D01*
X146981158Y-91385774D01*
X147057129Y-91437056D01*
X147066000Y-91438835D01*
X147066000Y-92028818D01*
X146962789Y-92131849D01*
X146875600Y-92341823D01*
X146875401Y-92569180D01*
X146962224Y-92779306D01*
X147122849Y-92940211D01*
X147332823Y-93027400D01*
X147479655Y-93027529D01*
X146087236Y-94419948D01*
X145796000Y-94362017D01*
X145378033Y-94445156D01*
X145023698Y-94681915D01*
X144786939Y-95036250D01*
X144703800Y-95454217D01*
X144352679Y-95454217D01*
X144352679Y-94615000D01*
X144335767Y-94527836D01*
X144285442Y-94451226D01*
X144209471Y-94399944D01*
X144119600Y-94381921D01*
X142392400Y-94381921D01*
X142305236Y-94398833D01*
X142228626Y-94449158D01*
X142177344Y-94525129D01*
X142159321Y-94615000D01*
X141254815Y-94615000D01*
X141366405Y-94503410D01*
X141366408Y-94503408D01*
X141448998Y-94379802D01*
X141458507Y-94331997D01*
X141478001Y-94234000D01*
X141478000Y-94233995D01*
X141478000Y-91439363D01*
X141484164Y-91438167D01*
X141560774Y-91387842D01*
X141612056Y-91311871D01*
X141630079Y-91222000D01*
X141630079Y-89622000D01*
X141613167Y-89534836D01*
X141562842Y-89458226D01*
X141486871Y-89406944D01*
X141397000Y-89388921D01*
X140797000Y-89388921D01*
X140709836Y-89405833D01*
X140633226Y-89456158D01*
X140581944Y-89532129D01*
X140563921Y-89622000D01*
X140563921Y-91222000D01*
X140580833Y-91309164D01*
X140631158Y-91385774D01*
X140707129Y-91437056D01*
X140716000Y-91438835D01*
X140716000Y-94076185D01*
X139755569Y-95036616D01*
X139730871Y-95019944D01*
X139641000Y-95001921D01*
X138141000Y-95001921D01*
X138053836Y-95018833D01*
X137977226Y-95069158D01*
X137925944Y-95145129D01*
X137907921Y-95235000D01*
X137174079Y-95235000D01*
X137174079Y-95235000D01*
X137157167Y-95147836D01*
X137106842Y-95071226D01*
X137030871Y-95019944D01*
X136941000Y-95001921D01*
X135441000Y-95001921D01*
X135353836Y-95018833D01*
X135277226Y-95069158D01*
X135225944Y-95145129D01*
X135207921Y-95235000D01*
X135207921Y-95504000D01*
X133945563Y-95504000D01*
X133960164Y-95501167D01*
X134036774Y-95450842D01*
X134088056Y-95374871D01*
X134106079Y-95285000D01*
X134106079Y-94916000D01*
X138764000Y-94916000D01*
X138909803Y-94886998D01*
X139033408Y-94804408D01*
X140096408Y-93741408D01*
X140178998Y-93617803D01*
X140208000Y-93472000D01*
X140208000Y-91439363D01*
X140214164Y-91438167D01*
X140290774Y-91387842D01*
X140342056Y-91311871D01*
X140360079Y-91222000D01*
X140360079Y-89622000D01*
X140343167Y-89534836D01*
X140292842Y-89458226D01*
X140216871Y-89406944D01*
X140127000Y-89388921D01*
X139527000Y-89388921D01*
X139439836Y-89405833D01*
X139363226Y-89456158D01*
X139311944Y-89532129D01*
X139293921Y-89622000D01*
X139293921Y-91222000D01*
X139310833Y-91309164D01*
X139361158Y-91385774D01*
X139437129Y-91437056D01*
X139446000Y-91438835D01*
X139446000Y-93314184D01*
X138606184Y-94154000D01*
X134106079Y-94154000D01*
X134106079Y-93785000D01*
X134089167Y-93697836D01*
X134038842Y-93621226D01*
X133962871Y-93569944D01*
X133873000Y-93551921D01*
X132573000Y-93551921D01*
X132485836Y-93568833D01*
X132409226Y-93619158D01*
X132357944Y-93695129D01*
X132339921Y-93785000D01*
X132339921Y-95285000D01*
X132356833Y-95372164D01*
X132407158Y-95448774D01*
X132483129Y-95500056D01*
X132502796Y-95504000D01*
X131729815Y-95504000D01*
X131206408Y-94980592D01*
X131082803Y-94898002D01*
X130937000Y-94869000D01*
X127793909Y-94869000D01*
X127836774Y-94840842D01*
X127888056Y-94764871D01*
X127906079Y-94675000D01*
X127906079Y-94150000D01*
X127904000Y-94139285D01*
X127904000Y-93614005D01*
X127904001Y-93614000D01*
X127874998Y-93468198D01*
X127805244Y-93363803D01*
X127792408Y-93344592D01*
X127792405Y-93344590D01*
X127396408Y-92948592D01*
X127272803Y-92866002D01*
X127127000Y-92837000D01*
X123825005Y-92837000D01*
X123825000Y-92836999D01*
X123679198Y-92866002D01*
X123555592Y-92948592D01*
X123555590Y-92948595D01*
X122905184Y-93599000D01*
X120573197Y-93599000D01*
X120565844Y-93562033D01*
X120329085Y-93207698D01*
X119974750Y-92970939D01*
X119556783Y-92887800D01*
X119203217Y-92887800D01*
X118785250Y-92970939D01*
X118430915Y-93207698D01*
X118194156Y-93562033D01*
X118111017Y-93980000D01*
X117118600Y-93980000D01*
X117118600Y-91440000D01*
X118111017Y-91440000D01*
X118194156Y-91857967D01*
X118430915Y-92212302D01*
X118785250Y-92449061D01*
X119203217Y-92532200D01*
X119556783Y-92532200D01*
X119974750Y-92449061D01*
X120329085Y-92212302D01*
X120565844Y-91857967D01*
X120573197Y-91821000D01*
X124079000Y-91821000D01*
X124224803Y-91791998D01*
X124348408Y-91709408D01*
X124923315Y-91134500D01*
X126004418Y-91134500D01*
X126034158Y-91179774D01*
X126110129Y-91231056D01*
X126200000Y-91249079D01*
X126500000Y-91249079D01*
X126587164Y-91232167D01*
X126619000Y-91211254D01*
X126619000Y-91694000D01*
X126648002Y-91839803D01*
X126730592Y-91963408D01*
X126984592Y-92217408D01*
X127108197Y-92299998D01*
X127254000Y-92329000D01*
X129794000Y-92329000D01*
X129939803Y-92299998D01*
X130063408Y-92217408D01*
X130459815Y-91821000D01*
X131016921Y-91821000D01*
X131016921Y-92090000D01*
X131033833Y-92177164D01*
X131084158Y-92253774D01*
X131160129Y-92305056D01*
X131250000Y-92323079D01*
X132750000Y-92323079D01*
X132837164Y-92306167D01*
X132913774Y-92255842D01*
X132965056Y-92179871D01*
X132983079Y-92090000D01*
X132983079Y-90790000D01*
X132966167Y-90702836D01*
X132915842Y-90626226D01*
X132839871Y-90574944D01*
X132750000Y-90556921D01*
X131250000Y-90556921D01*
X131162836Y-90573833D01*
X131086226Y-90624158D01*
X131034944Y-90700129D01*
X131016921Y-90790000D01*
X131016921Y-91059000D01*
X130302000Y-91059000D01*
X130156198Y-91088002D01*
X130032592Y-91170592D01*
X130032590Y-91170595D01*
X129636184Y-91567000D01*
X127411816Y-91567000D01*
X127381000Y-91536184D01*
X127381000Y-91026367D01*
X127383079Y-91016000D01*
X127383079Y-90491000D01*
X127366167Y-90403836D01*
X127315842Y-90327226D01*
X127239871Y-90275944D01*
X127150000Y-90257921D01*
X126850000Y-90257921D01*
X126762836Y-90274833D01*
X126686226Y-90325158D01*
X126675207Y-90341482D01*
X126665842Y-90327226D01*
X126589871Y-90275944D01*
X126500000Y-90257921D01*
X126200000Y-90257921D01*
X126112836Y-90274833D01*
X126036226Y-90325158D01*
X126004269Y-90372500D01*
X124765505Y-90372500D01*
X124765500Y-90372499D01*
X124622232Y-90400998D01*
X124619698Y-90401502D01*
X124496092Y-90484092D01*
X124496090Y-90484095D01*
X123921184Y-91059000D01*
X120573197Y-91059000D01*
X120565844Y-91022033D01*
X120329085Y-90667698D01*
X119974750Y-90430939D01*
X119556783Y-90347800D01*
X119203217Y-90347800D01*
X118785250Y-90430939D01*
X118430915Y-90667698D01*
X118194156Y-91022033D01*
X118111017Y-91440000D01*
X117118600Y-91440000D01*
X117118600Y-88900000D01*
X118111017Y-88900000D01*
X118194156Y-89317967D01*
X118430915Y-89672302D01*
X118785250Y-89909061D01*
X119203217Y-89992200D01*
X119556783Y-89992200D01*
X119974750Y-89909061D01*
X120329085Y-89672302D01*
X120565844Y-89317967D01*
X120573197Y-89281000D01*
X123571000Y-89281000D01*
X123716803Y-89251998D01*
X123840408Y-89169408D01*
X124744816Y-88265000D01*
X127096184Y-88265000D01*
X127269000Y-88437815D01*
X127269000Y-88620607D01*
X127239871Y-88600944D01*
X127150000Y-88582921D01*
X126850000Y-88582921D01*
X126762836Y-88599833D01*
X126686226Y-88650158D01*
X126634944Y-88726129D01*
X126616921Y-88816000D01*
X126616921Y-89341000D01*
X126619000Y-89351715D01*
X126619000Y-89535000D01*
X126648002Y-89680803D01*
X126730592Y-89804408D01*
X127111590Y-90185405D01*
X127111592Y-90185408D01*
X127235198Y-90267998D01*
X127381000Y-90297000D01*
X128778000Y-90297000D01*
X128923803Y-90267998D01*
X129047408Y-90185408D01*
X129951816Y-89281000D01*
X131016921Y-89281000D01*
X131016921Y-89550000D01*
X131033833Y-89637164D01*
X131084158Y-89713774D01*
X131160129Y-89765056D01*
X131250000Y-89783079D01*
X132750000Y-89783079D01*
X132837164Y-89766167D01*
X132913774Y-89715842D01*
X132965056Y-89639871D01*
X132983079Y-89550000D01*
X132983079Y-88250000D01*
X132966167Y-88162836D01*
X132915842Y-88086226D01*
X132839871Y-88034944D01*
X132750000Y-88016921D01*
X131250000Y-88016921D01*
X131162836Y-88033833D01*
X131086226Y-88084158D01*
X131034944Y-88160129D01*
X131016921Y-88250000D01*
X131016921Y-88519000D01*
X129794000Y-88519000D01*
X129648197Y-88548002D01*
X129524592Y-88630592D01*
X128620184Y-89535000D01*
X127920909Y-89535000D01*
X127963774Y-89506842D01*
X128015056Y-89430871D01*
X128033079Y-89341000D01*
X128033079Y-88816000D01*
X128031000Y-88805285D01*
X128031000Y-88280005D01*
X128031001Y-88280000D01*
X128001998Y-88134198D01*
X127969944Y-88086226D01*
X127919408Y-88010592D01*
X127919405Y-88010590D01*
X127523408Y-87614592D01*
X127399803Y-87532002D01*
X127254000Y-87503000D01*
X124587000Y-87503000D01*
X124441197Y-87532002D01*
X124317592Y-87614592D01*
X123413184Y-88519000D01*
X120573197Y-88519000D01*
X120565844Y-88482033D01*
X120329085Y-88127698D01*
X119974750Y-87890939D01*
X119556783Y-87807800D01*
X119203217Y-87807800D01*
X118785250Y-87890939D01*
X118430915Y-88127698D01*
X118194156Y-88482033D01*
X118111017Y-88900000D01*
X117118600Y-88900000D01*
X117118600Y-86360000D01*
X118111017Y-86360000D01*
X118194156Y-86777967D01*
X118430915Y-87132302D01*
X118785250Y-87369061D01*
X119203217Y-87452200D01*
X119556783Y-87452200D01*
X119974750Y-87369061D01*
X120329085Y-87132302D01*
X120565844Y-86777967D01*
X120573197Y-86741000D01*
X121539000Y-86741000D01*
X121684803Y-86711998D01*
X121808408Y-86629408D01*
X122256315Y-86181500D01*
X126004418Y-86181500D01*
X126034158Y-86226774D01*
X126110129Y-86278056D01*
X126200000Y-86296079D01*
X126500000Y-86296079D01*
X126587164Y-86279167D01*
X126619000Y-86258254D01*
X126619000Y-86741000D01*
X126648002Y-86886803D01*
X126730592Y-87010408D01*
X126857592Y-87137408D01*
X126981197Y-87219998D01*
X127127000Y-87249000D01*
X130048000Y-87249000D01*
X130193803Y-87219998D01*
X130317408Y-87137408D01*
X130713815Y-86741000D01*
X131016921Y-86741000D01*
X131016921Y-87010000D01*
X131033833Y-87097164D01*
X131084158Y-87173774D01*
X131160129Y-87225056D01*
X131250000Y-87243079D01*
X132750000Y-87243079D01*
X132837164Y-87226167D01*
X132913774Y-87175842D01*
X132965056Y-87099871D01*
X132983079Y-87010000D01*
X132983079Y-85710000D01*
X133716921Y-85710000D01*
X133716921Y-87010000D01*
X133733833Y-87097164D01*
X133784158Y-87173774D01*
X133860129Y-87225056D01*
X133950000Y-87243079D01*
X135450000Y-87243079D01*
X135537164Y-87226167D01*
X135613774Y-87175842D01*
X135665056Y-87099871D01*
X135683079Y-87010000D01*
X135683079Y-86818895D01*
X136763592Y-87899408D01*
X136887197Y-87981998D01*
X137033000Y-88011000D01*
X137256185Y-88011000D01*
X136748184Y-88519000D01*
X135683079Y-88519000D01*
X135683079Y-88250000D01*
X135666167Y-88162836D01*
X135615842Y-88086226D01*
X135539871Y-88034944D01*
X135450000Y-88016921D01*
X133950000Y-88016921D01*
X133862836Y-88033833D01*
X133786226Y-88084158D01*
X133734944Y-88160129D01*
X133716921Y-88250000D01*
X133716921Y-89550000D01*
X133733833Y-89637164D01*
X133784158Y-89713774D01*
X133860129Y-89765056D01*
X133950000Y-89783079D01*
X135450000Y-89783079D01*
X135537164Y-89766167D01*
X135613774Y-89715842D01*
X135665056Y-89639871D01*
X135683079Y-89550000D01*
X135683079Y-89281000D01*
X136748184Y-89281000D01*
X136509592Y-89519592D01*
X136427002Y-89643197D01*
X136404365Y-89757000D01*
X136398000Y-89789000D01*
X136398000Y-90393184D01*
X135732184Y-91059000D01*
X135683079Y-91059000D01*
X135683079Y-90790000D01*
X135666167Y-90702836D01*
X135615842Y-90626226D01*
X135539871Y-90574944D01*
X135450000Y-90556921D01*
X133950000Y-90556921D01*
X133862836Y-90573833D01*
X133786226Y-90624158D01*
X133734944Y-90700129D01*
X133716921Y-90790000D01*
X133716921Y-92090000D01*
X133733833Y-92177164D01*
X133784158Y-92253774D01*
X133860129Y-92305056D01*
X133950000Y-92323079D01*
X135450000Y-92323079D01*
X135537164Y-92306167D01*
X135613774Y-92255842D01*
X135665056Y-92179871D01*
X135683079Y-92090000D01*
X135683079Y-91821000D01*
X135890000Y-91821000D01*
X136035803Y-91791998D01*
X136159408Y-91709408D01*
X137048408Y-90820408D01*
X137130998Y-90696802D01*
X137160001Y-90551000D01*
X137160000Y-90550995D01*
X137160000Y-89946816D01*
X137484816Y-89622000D01*
X138023921Y-89622000D01*
X138023921Y-91222000D01*
X138040833Y-91309164D01*
X138091158Y-91385774D01*
X138167129Y-91437056D01*
X138257000Y-91455079D01*
X138857000Y-91455079D01*
X138944164Y-91438167D01*
X139020774Y-91387842D01*
X139072056Y-91311871D01*
X139090079Y-91222000D01*
X139090079Y-89622000D01*
X139073167Y-89534836D01*
X139022842Y-89458226D01*
X138946871Y-89406944D01*
X138857000Y-89388921D01*
X138257000Y-89388921D01*
X138169836Y-89405833D01*
X138093226Y-89456158D01*
X138041944Y-89532129D01*
X138023921Y-89622000D01*
X137484816Y-89622000D01*
X137952816Y-89154000D01*
X141447184Y-89154000D01*
X141847496Y-89554311D01*
X141833921Y-89622000D01*
X141833921Y-91222000D01*
X141850833Y-91309164D01*
X141901158Y-91385774D01*
X141977129Y-91437056D01*
X142067000Y-91455079D01*
X142667000Y-91455079D01*
X142754164Y-91438167D01*
X142830774Y-91387842D01*
X142882056Y-91311871D01*
X142900079Y-91222000D01*
X142900079Y-89622000D01*
X142883167Y-89534836D01*
X142832842Y-89458226D01*
X142756871Y-89406944D01*
X142721101Y-89399771D01*
X142718998Y-89389198D01*
X142710179Y-89376000D01*
X142636408Y-89265592D01*
X142636405Y-89265590D01*
X142016816Y-88646000D01*
X142463184Y-88646000D01*
X143233650Y-89416466D01*
X143173226Y-89456158D01*
X143121944Y-89532129D01*
X143103921Y-89622000D01*
X143103921Y-91222000D01*
X143120833Y-91309164D01*
X143171158Y-91385774D01*
X143247129Y-91437056D01*
X143337000Y-91455079D01*
X143937000Y-91455079D01*
X144024164Y-91438167D01*
X144100774Y-91387842D01*
X144152056Y-91311871D01*
X144170079Y-91222000D01*
X144170079Y-89622000D01*
X144153167Y-89534836D01*
X144102842Y-89458226D01*
X144026871Y-89406944D01*
X144018000Y-89405165D01*
X144018000Y-89281000D01*
X143988998Y-89135198D01*
X143988998Y-89135197D01*
X143906408Y-89011592D01*
X142905816Y-88011000D01*
X143352184Y-88011000D01*
X144526000Y-89184815D01*
X144526000Y-89404637D01*
X144519836Y-89405833D01*
X144443226Y-89456158D01*
X144391944Y-89532129D01*
X144373921Y-89622000D01*
X144373921Y-91222000D01*
X144390833Y-91309164D01*
X144441158Y-91385774D01*
X144517129Y-91437056D01*
X144607000Y-91455079D01*
X145207000Y-91455079D01*
X145294164Y-91438167D01*
X145370774Y-91387842D01*
X145422056Y-91311871D01*
X145440079Y-91222000D01*
X145440079Y-89622000D01*
X145423167Y-89534836D01*
X145372842Y-89458226D01*
X145296871Y-89406944D01*
X145288000Y-89405165D01*
X145288000Y-89027000D01*
X145258998Y-88881198D01*
X145258998Y-88881197D01*
X145225917Y-88831688D01*
X145176408Y-88757592D01*
X145176405Y-88757590D01*
X143921816Y-87503000D01*
X143987184Y-87503000D01*
X145796000Y-89311816D01*
X145796000Y-89404637D01*
X145789836Y-89405833D01*
X145713226Y-89456158D01*
X145661944Y-89532129D01*
X145643921Y-89622000D01*
X145643921Y-91222000D01*
X145660833Y-91309164D01*
X145711158Y-91385774D01*
X145787129Y-91437056D01*
X145877000Y-91455079D01*
X146477000Y-91455079D01*
X146564164Y-91438167D01*
X146640774Y-91387842D01*
X146692056Y-91311871D01*
X146710079Y-91222000D01*
X146710079Y-89622000D01*
X146693167Y-89534836D01*
X146642842Y-89458226D01*
X146566871Y-89406944D01*
X146558000Y-89405165D01*
X146558000Y-89154000D01*
X146532142Y-89024002D01*
X146528998Y-89008197D01*
X146446408Y-88884592D01*
X144414408Y-86852592D01*
X144290803Y-86770002D01*
X144145000Y-86741000D01*
X137444815Y-86741000D01*
X137160000Y-86456184D01*
X137160000Y-85090000D01*
X137137803Y-84978408D01*
X137130998Y-84944197D01*
X137048408Y-84820592D01*
X135778408Y-83550592D01*
X135683079Y-83486895D01*
X135683079Y-83170000D01*
X135666167Y-83082836D01*
X135626204Y-83022000D01*
X139293921Y-83022000D01*
X139293921Y-84622000D01*
X139310833Y-84709164D01*
X139361158Y-84785774D01*
X139437129Y-84837056D01*
X139527000Y-84855079D01*
X140127000Y-84855079D01*
X140214164Y-84838167D01*
X140290774Y-84787842D01*
X140342056Y-84711871D01*
X140360079Y-84622000D01*
X140360079Y-83022000D01*
X140343167Y-82934836D01*
X140292842Y-82858226D01*
X140216871Y-82806944D01*
X140127000Y-82788921D01*
X139527000Y-82788921D01*
X139439836Y-82805833D01*
X139363226Y-82856158D01*
X139311944Y-82932129D01*
X139293921Y-83022000D01*
X135626204Y-83022000D01*
X135615842Y-83006226D01*
X135539871Y-82954944D01*
X135450000Y-82936921D01*
X133950000Y-82936921D01*
X133862836Y-82953833D01*
X133786226Y-83004158D01*
X133734944Y-83080129D01*
X133716921Y-83170000D01*
X133716921Y-84470000D01*
X133733833Y-84557164D01*
X133784158Y-84633774D01*
X133860129Y-84685056D01*
X133950000Y-84703079D01*
X135450000Y-84703079D01*
X135537164Y-84686167D01*
X135613774Y-84635842D01*
X135665056Y-84559871D01*
X135672573Y-84522389D01*
X136398000Y-85247816D01*
X136398000Y-86456184D01*
X136032408Y-86090592D01*
X135908803Y-86008002D01*
X135763000Y-85979000D01*
X135683079Y-85979000D01*
X135683079Y-85710000D01*
X135666167Y-85622836D01*
X135615842Y-85546226D01*
X135539871Y-85494944D01*
X135450000Y-85476921D01*
X133950000Y-85476921D01*
X133862836Y-85493833D01*
X133786226Y-85544158D01*
X133734944Y-85620129D01*
X133716921Y-85710000D01*
X132983079Y-85710000D01*
X132983079Y-85710000D01*
X132966167Y-85622836D01*
X132915842Y-85546226D01*
X132839871Y-85494944D01*
X132750000Y-85476921D01*
X131250000Y-85476921D01*
X131162836Y-85493833D01*
X131086226Y-85544158D01*
X131034944Y-85620129D01*
X131016921Y-85710000D01*
X131016921Y-85979000D01*
X130556000Y-85979000D01*
X130410198Y-86008002D01*
X130286592Y-86090592D01*
X130286590Y-86090595D01*
X129890184Y-86487000D01*
X127381000Y-86487000D01*
X127381000Y-86073367D01*
X127383079Y-86063000D01*
X127383079Y-85538000D01*
X127366167Y-85450836D01*
X127315842Y-85374226D01*
X127271064Y-85344000D01*
X128524000Y-85344000D01*
X128669803Y-85314998D01*
X128793408Y-85232408D01*
X129824816Y-84201000D01*
X131016921Y-84201000D01*
X131016921Y-84470000D01*
X131033833Y-84557164D01*
X131084158Y-84633774D01*
X131160129Y-84685056D01*
X131250000Y-84703079D01*
X132750000Y-84703079D01*
X132837164Y-84686167D01*
X132913774Y-84635842D01*
X132965056Y-84559871D01*
X132983079Y-84470000D01*
X132983079Y-83170000D01*
X132966167Y-83082836D01*
X132915842Y-83006226D01*
X132839871Y-82954944D01*
X132750000Y-82936921D01*
X131250000Y-82936921D01*
X131162836Y-82953833D01*
X131086226Y-83004158D01*
X131034944Y-83080129D01*
X131016921Y-83170000D01*
X131016921Y-83439000D01*
X129667000Y-83439000D01*
X129521197Y-83468002D01*
X129397592Y-83550592D01*
X128366184Y-84582000D01*
X127920909Y-84582000D01*
X127963774Y-84553842D01*
X128015056Y-84477871D01*
X128033079Y-84388000D01*
X128033079Y-83863000D01*
X128031000Y-83852285D01*
X128031000Y-83073005D01*
X128031001Y-83073000D01*
X128001998Y-82927198D01*
X127919408Y-82803592D01*
X127270996Y-82155180D01*
X140525401Y-82155180D01*
X140612224Y-82365306D01*
X140716000Y-82469263D01*
X140716000Y-82854637D01*
X140709836Y-82855833D01*
X140633226Y-82906158D01*
X140581944Y-82982129D01*
X140563921Y-83072000D01*
X140563921Y-84572000D01*
X140580833Y-84659164D01*
X140631158Y-84735774D01*
X140707129Y-84787056D01*
X140797000Y-84805079D01*
X141397000Y-84805079D01*
X141484164Y-84788167D01*
X141560774Y-84737842D01*
X141612056Y-84661871D01*
X141630079Y-84572000D01*
X141630079Y-83072000D01*
X141620378Y-83022000D01*
X144373921Y-83022000D01*
X144373921Y-84622000D01*
X144390833Y-84709164D01*
X144441158Y-84785774D01*
X144517129Y-84837056D01*
X144526000Y-84838835D01*
X144526000Y-85090000D01*
X144555002Y-85235803D01*
X144637592Y-85359408D01*
X146034590Y-86756405D01*
X146034592Y-86756408D01*
X146104323Y-86803000D01*
X146158197Y-86838998D01*
X146304000Y-86868000D01*
X149813818Y-86868000D01*
X149916849Y-86971211D01*
X150126823Y-87058400D01*
X150354180Y-87058599D01*
X150564306Y-86971776D01*
X150725211Y-86811151D01*
X150812400Y-86601177D01*
X150812599Y-86373820D01*
X150725776Y-86163694D01*
X150565151Y-86002789D01*
X150507980Y-85979050D01*
X150564306Y-85955776D01*
X150725211Y-85795151D01*
X150812400Y-85585177D01*
X150812599Y-85357820D01*
X150725776Y-85147694D01*
X150565151Y-84986789D01*
X150355177Y-84899600D01*
X150127820Y-84899401D01*
X149917694Y-84986224D01*
X149813737Y-85090000D01*
X146969815Y-85090000D01*
X146651608Y-84771792D01*
X146692056Y-84711871D01*
X146710079Y-84622000D01*
X146710079Y-83022000D01*
X146913921Y-83022000D01*
X146913921Y-84622000D01*
X146930833Y-84709164D01*
X146981158Y-84785774D01*
X147057129Y-84837056D01*
X147147000Y-84855079D01*
X147747000Y-84855079D01*
X147834164Y-84838167D01*
X147910774Y-84787842D01*
X147962056Y-84711871D01*
X147980079Y-84622000D01*
X147980079Y-84203000D01*
X149942814Y-84203000D01*
X150043849Y-84304211D01*
X150253823Y-84391400D01*
X150481180Y-84391599D01*
X150691306Y-84304776D01*
X150852211Y-84144151D01*
X150939400Y-83934177D01*
X150939599Y-83706820D01*
X150852776Y-83496694D01*
X150692151Y-83335789D01*
X150482177Y-83248600D01*
X150254820Y-83248401D01*
X150044694Y-83335224D01*
X149938734Y-83441000D01*
X147980079Y-83441000D01*
X147980079Y-83022000D01*
X147963167Y-82934836D01*
X147912842Y-82858226D01*
X147836871Y-82806944D01*
X147747000Y-82788921D01*
X147147000Y-82788921D01*
X147059836Y-82805833D01*
X146983226Y-82856158D01*
X146931944Y-82932129D01*
X146913921Y-83022000D01*
X146710079Y-83022000D01*
X146710079Y-83022000D01*
X146693167Y-82934836D01*
X146642842Y-82858226D01*
X146566871Y-82806944D01*
X146477000Y-82788921D01*
X145877000Y-82788921D01*
X145789836Y-82805833D01*
X145713226Y-82856158D01*
X145661944Y-82932129D01*
X145643921Y-83022000D01*
X145643921Y-84622000D01*
X145660833Y-84709164D01*
X145711158Y-84785774D01*
X145787129Y-84837056D01*
X145796587Y-84838953D01*
X145825002Y-84981803D01*
X145907592Y-85105408D01*
X146542590Y-85740405D01*
X146542592Y-85740408D01*
X146623257Y-85794306D01*
X146666198Y-85822998D01*
X146812000Y-85852001D01*
X146812005Y-85852000D01*
X149813818Y-85852000D01*
X149916849Y-85955211D01*
X149974020Y-85978950D01*
X149917694Y-86002224D01*
X149813737Y-86106000D01*
X146461815Y-86106000D01*
X145288000Y-84932184D01*
X145288000Y-84839363D01*
X145294164Y-84838167D01*
X145370774Y-84787842D01*
X145422056Y-84711871D01*
X145440079Y-84622000D01*
X145440079Y-83022000D01*
X145423167Y-82934836D01*
X145372842Y-82858226D01*
X145296871Y-82806944D01*
X145207000Y-82788921D01*
X144607000Y-82788921D01*
X144519836Y-82805833D01*
X144443226Y-82856158D01*
X144391944Y-82932129D01*
X144373921Y-83022000D01*
X141620378Y-83022000D01*
X141613167Y-82984836D01*
X141562842Y-82908226D01*
X141486871Y-82856944D01*
X141478000Y-82855165D01*
X141478000Y-82469182D01*
X141581211Y-82366151D01*
X141668400Y-82156177D01*
X141668599Y-81928820D01*
X141581776Y-81718694D01*
X141421151Y-81557789D01*
X141211177Y-81470600D01*
X140983820Y-81470401D01*
X140773694Y-81557224D01*
X140612789Y-81717849D01*
X140525600Y-81927823D01*
X140525401Y-82155180D01*
X127270996Y-82155180D01*
X127269408Y-82153592D01*
X127145803Y-82071002D01*
X127000000Y-82042000D01*
X122809000Y-82042000D01*
X122663197Y-82071002D01*
X122613688Y-82104083D01*
X122539592Y-82153592D01*
X122539590Y-82153595D01*
X121254184Y-83439000D01*
X120629079Y-83439000D01*
X120629079Y-82956400D01*
X120612167Y-82869236D01*
X120561842Y-82792626D01*
X120485871Y-82741344D01*
X120396000Y-82723321D01*
X118364000Y-82723321D01*
X118276836Y-82740233D01*
X118200226Y-82790558D01*
X118148944Y-82866529D01*
X118130921Y-82956400D01*
X118130921Y-84683600D01*
X118147833Y-84770764D01*
X118198158Y-84847374D01*
X118274129Y-84898656D01*
X118364000Y-84916679D01*
X120396000Y-84916679D01*
X120483164Y-84899767D01*
X120559774Y-84849442D01*
X120611056Y-84773471D01*
X120629079Y-84683600D01*
X120629079Y-84201000D01*
X121412000Y-84201000D01*
X121557803Y-84171998D01*
X121681408Y-84089408D01*
X122966815Y-82804000D01*
X126842184Y-82804000D01*
X127269000Y-83230816D01*
X127269000Y-83667607D01*
X127239871Y-83647944D01*
X127150000Y-83629921D01*
X126850000Y-83629921D01*
X126762836Y-83646833D01*
X126686226Y-83697158D01*
X126634944Y-83773129D01*
X126616921Y-83863000D01*
X126616921Y-84388000D01*
X126619000Y-84398715D01*
X126619000Y-84709000D01*
X126648002Y-84854803D01*
X126730592Y-84978408D01*
X126984592Y-85232408D01*
X127093116Y-85304921D01*
X126850000Y-85304921D01*
X126762836Y-85321833D01*
X126686226Y-85372158D01*
X126675207Y-85388482D01*
X126665842Y-85374226D01*
X126589871Y-85322944D01*
X126500000Y-85304921D01*
X126200000Y-85304921D01*
X126112836Y-85321833D01*
X126036226Y-85372158D01*
X126004269Y-85419500D01*
X122098500Y-85419500D01*
X121952698Y-85448502D01*
X121829092Y-85531092D01*
X121829090Y-85531095D01*
X121381184Y-85979000D01*
X120573197Y-85979000D01*
X120565844Y-85942033D01*
X120329085Y-85587698D01*
X119974750Y-85350939D01*
X119556783Y-85267800D01*
X119203217Y-85267800D01*
X118785250Y-85350939D01*
X118430915Y-85587698D01*
X118194156Y-85942033D01*
X118111017Y-86360000D01*
X117118600Y-86360000D01*
X117118600Y-79018600D01*
X205461400Y-79018600D01*
X205461400Y-98781400D01*
G36*
X131302590Y-96154405D02*
X131302592Y-96154408D01*
X131420668Y-96233303D01*
X131426198Y-96236998D01*
X131572000Y-96266001D01*
X131572005Y-96266000D01*
X132500437Y-96266000D01*
X132485836Y-96268833D01*
X132409226Y-96319158D01*
X132357944Y-96395129D01*
X132339921Y-96485000D01*
X132339921Y-96854000D01*
X127331815Y-96854000D01*
X127254000Y-96776184D01*
X127254000Y-96360367D01*
X127256079Y-96350000D01*
X127256079Y-95825000D01*
X127239167Y-95737836D01*
X127188842Y-95661226D01*
X127144064Y-95631000D01*
X130779184Y-95631000D01*
X131302590Y-96154405D01*
X131302590Y-96154405D01*
G37*
X131302590Y-96154405D02*
X131302592Y-96154408D01*
X131420668Y-96233303D01*
X131426198Y-96236998D01*
X131572000Y-96266001D01*
X131572005Y-96266000D01*
X132500437Y-96266000D01*
X132485836Y-96268833D01*
X132409226Y-96319158D01*
X132357944Y-96395129D01*
X132339921Y-96485000D01*
X132339921Y-96854000D01*
X127331815Y-96854000D01*
X127254000Y-96776184D01*
X127254000Y-96360367D01*
X127256079Y-96350000D01*
X127256079Y-95825000D01*
X127239167Y-95737836D01*
X127188842Y-95661226D01*
X127144064Y-95631000D01*
X130779184Y-95631000D01*
X131302590Y-96154405D01*
M02*
