G04 #@! TF.FileFunction,Soldermask,Top*
%FSLAX46Y46*%
G04 Gerber Fmt 4.6, Leading zero omitted, Abs format (unit mm)*
G04 Created by KiCad (PCBNEW 0.201508140901+6091~28~ubuntu14.04.1-product) date Tue 08 Dec 2015 09:17:10 PM CET*
%MOMM*%
G01*
G04 APERTURE LIST*
%ADD10C,0.100000*%
%ADD11R,1.500000X1.500000*%
%ADD12C,1.500000*%
%ADD13R,2.032000X1.727200*%
%ADD14O,2.032000X1.727200*%
%ADD15R,0.300000X0.525000*%
%ADD16R,1.300000X1.500000*%
%ADD17R,1.500000X1.300000*%
%ADD18R,0.600000X1.600000*%
%ADD19R,0.600000X1.500000*%
%ADD20R,1.727200X1.727200*%
%ADD21O,1.727200X1.727200*%
%ADD22R,0.600000X1.200000*%
%ADD23R,1.200000X0.600000*%
%ADD24R,1.300000X0.700000*%
%ADD25R,0.700000X1.300000*%
%ADD26R,1.000000X1.250000*%
%ADD27R,1.727200X2.032000*%
%ADD28O,1.727200X2.032000*%
%ADD29C,0.609600*%
%ADD30R,1.600000X1.000000*%
G04 APERTURE END LIST*
D10*
D11*
X190500000Y-63500000D03*
D12*
X187960000Y-63500000D03*
X185420000Y-63500000D03*
X182880000Y-63500000D03*
X180340000Y-63500000D03*
X180340000Y-48260000D03*
X182880000Y-48260000D03*
X185420000Y-48260000D03*
X187960000Y-48260000D03*
X190500000Y-48260000D03*
D11*
X175260000Y-63500000D03*
D12*
X172720000Y-63500000D03*
X170180000Y-63500000D03*
X167640000Y-63500000D03*
X165100000Y-63500000D03*
X165100000Y-48260000D03*
X167640000Y-48260000D03*
X170180000Y-48260000D03*
X172720000Y-48260000D03*
X175260000Y-48260000D03*
D11*
X152400000Y-63500000D03*
D12*
X149860000Y-63500000D03*
X147320000Y-63500000D03*
X144780000Y-63500000D03*
X142240000Y-63500000D03*
X142240000Y-48260000D03*
X144780000Y-48260000D03*
X147320000Y-48260000D03*
X149860000Y-48260000D03*
X152400000Y-48260000D03*
D11*
X137160000Y-63500000D03*
D12*
X134620000Y-63500000D03*
X132080000Y-63500000D03*
X129540000Y-63500000D03*
X127000000Y-63500000D03*
X127000000Y-48260000D03*
X129540000Y-48260000D03*
X132080000Y-48260000D03*
X134620000Y-48260000D03*
X137160000Y-48260000D03*
D13*
X119380000Y-83820000D03*
D14*
X119380000Y-86360000D03*
X119380000Y-88900000D03*
X119380000Y-91440000D03*
X119380000Y-93980000D03*
X119380000Y-96520000D03*
D13*
X201930000Y-81280000D03*
D14*
X201930000Y-83820000D03*
X201930000Y-86360000D03*
X201930000Y-88900000D03*
X201930000Y-91440000D03*
X201930000Y-93980000D03*
X201930000Y-96520000D03*
D15*
X127000000Y-84125500D03*
X127000000Y-85800500D03*
X127650000Y-85800500D03*
X126350000Y-85800500D03*
X126350000Y-84125500D03*
X127650000Y-84125500D03*
X127000000Y-89078500D03*
X127000000Y-90753500D03*
X127650000Y-90753500D03*
X126350000Y-90753500D03*
X126350000Y-89078500D03*
X127650000Y-89078500D03*
X126873000Y-94412500D03*
X126873000Y-96087500D03*
X127523000Y-96087500D03*
X126223000Y-96087500D03*
X126223000Y-94412500D03*
X127523000Y-94412500D03*
D16*
X164084000Y-95711000D03*
X164084000Y-93011000D03*
X158750000Y-58500000D03*
X158750000Y-55800000D03*
X158750000Y-53293000D03*
X158750000Y-50593000D03*
D17*
X132000000Y-83820000D03*
X134700000Y-83820000D03*
X132000000Y-86360000D03*
X134700000Y-86360000D03*
X132000000Y-88900000D03*
X134700000Y-88900000D03*
X132000000Y-91440000D03*
X134700000Y-91440000D03*
X136191000Y-95885000D03*
X138891000Y-95885000D03*
D16*
X133223000Y-97235000D03*
X133223000Y-94535000D03*
D17*
X190707000Y-85471000D03*
X188007000Y-85471000D03*
X196295000Y-86995000D03*
X193595000Y-86995000D03*
X190580000Y-89027000D03*
X187880000Y-89027000D03*
X190580000Y-91440000D03*
X187880000Y-91440000D03*
X187405000Y-94615000D03*
X184705000Y-94615000D03*
X190453000Y-82042000D03*
X187753000Y-82042000D03*
X196168000Y-82042000D03*
X193468000Y-82042000D03*
D18*
X147447000Y-83822000D03*
X146177000Y-83822000D03*
X144907000Y-83822000D03*
X143637000Y-83822000D03*
X142367000Y-83820000D03*
D19*
X141097000Y-83822000D03*
D18*
X139827000Y-83822000D03*
X138557000Y-83822000D03*
X138557000Y-90422000D03*
X139827000Y-90422000D03*
X141097000Y-90422000D03*
X142367000Y-90422000D03*
X143637000Y-90422000D03*
X144907000Y-90422000D03*
X146177000Y-90422000D03*
X147447000Y-90422000D03*
X173228000Y-90549000D03*
X174498000Y-90549000D03*
X175768000Y-90549000D03*
X177038000Y-90549000D03*
X178308000Y-90551000D03*
D19*
X179578000Y-90549000D03*
D18*
X180848000Y-90549000D03*
X182118000Y-90549000D03*
X182118000Y-83949000D03*
X180848000Y-83949000D03*
X179578000Y-83949000D03*
X178308000Y-83949000D03*
X177038000Y-83949000D03*
X175768000Y-83949000D03*
X174498000Y-83949000D03*
X173228000Y-83949000D03*
D20*
X172212000Y-93599000D03*
D21*
X172212000Y-96139000D03*
X169672000Y-93599000D03*
X169672000Y-96139000D03*
X167132000Y-93599000D03*
X167132000Y-96139000D03*
D13*
X119380000Y-60960000D03*
D14*
X119380000Y-63500000D03*
X119380000Y-66040000D03*
X119380000Y-68580000D03*
X119380000Y-71120000D03*
X119380000Y-73660000D03*
D13*
X201930000Y-58420000D03*
D14*
X201930000Y-60960000D03*
X201930000Y-63500000D03*
X201930000Y-66040000D03*
X201930000Y-68580000D03*
X201930000Y-71120000D03*
X201930000Y-73660000D03*
D22*
X161042000Y-82491000D03*
X160242000Y-82491000D03*
X159442000Y-82491000D03*
X158642000Y-82491000D03*
X157842000Y-82491000D03*
X157042000Y-82491000D03*
X156242000Y-82491000D03*
X155442000Y-82491000D03*
D23*
X153992000Y-83941000D03*
X153992000Y-84741000D03*
X153992000Y-85541000D03*
X153992000Y-86341000D03*
X153992000Y-87141000D03*
X153992000Y-87941000D03*
X153992000Y-88741000D03*
X153992000Y-89541000D03*
D22*
X155442000Y-90991000D03*
X156242000Y-90991000D03*
X157042000Y-90991000D03*
X157842000Y-90991000D03*
X158642000Y-90991000D03*
X159442000Y-90991000D03*
X160242000Y-90991000D03*
X161042000Y-90991000D03*
D23*
X162492000Y-89541000D03*
X162492000Y-88741000D03*
X162492000Y-87941000D03*
X162492000Y-87141000D03*
X162492000Y-86341000D03*
X162492000Y-85541000D03*
X162492000Y-84741000D03*
X162492000Y-83941000D03*
D24*
X149479000Y-92390000D03*
X149479000Y-90490000D03*
X151638000Y-92390000D03*
X151638000Y-90490000D03*
D25*
X153355000Y-93345000D03*
X155255000Y-93345000D03*
D26*
X157369000Y-80264000D03*
X159369000Y-80264000D03*
D27*
X145542000Y-96139000D03*
D28*
X148082000Y-96139000D03*
X150622000Y-96139000D03*
X153162000Y-96139000D03*
X155702000Y-96139000D03*
X158242000Y-96139000D03*
D29*
X143002000Y-78359000D03*
X144018000Y-78359000D03*
X145034000Y-78359000D03*
X144018000Y-76835000D03*
X143002000Y-76835000D03*
X145034000Y-76835000D03*
X177292000Y-78359000D03*
X178308000Y-78359000D03*
X179324000Y-78359000D03*
X178308000Y-76835000D03*
X177292000Y-76835000D03*
X179324000Y-76835000D03*
D30*
X175489000Y-93604000D03*
X181889000Y-93604000D03*
X175489000Y-97404000D03*
X181889000Y-97404000D03*
M02*
