M48
;DRILL file {KiCad no-vcs-found-product} date Fri 24 Jul 2015 18:45:50 CEST
;FORMAT={-:-/ absolute / inch / decimal}
FMAT,2
INCH,TZ
T1C0.013
T2C0.024
T3C0.031
T4C0.040
%
G90
G05
M72
T1
X5.075Y-3.79
X5.075Y-3.865
X5.135Y-2.1
X5.14Y-2.05
X5.555Y-3.23
X5.805Y-3.64
X5.915Y-3.365
X5.915Y-3.405
X5.92Y-3.3
X6.005Y-3.525
X6.06Y-3.605
X6.22Y-3.335
X6.29Y-3.365
X6.32Y-3.405
X6.33Y-2.115
X6.33Y-2.31
X6.49Y-3.185
X6.82Y-3.23
X6.92Y-3.49
X8.02Y-2.475
T2
X5.63Y-3.025
X5.63Y-3.085
X5.67Y-3.015
X5.67Y-3.095
X5.71Y-3.025
X5.71Y-3.085
X6.98Y-3.025
X6.98Y-3.085
X7.02Y-3.015
X7.02Y-3.095
X7.06Y-3.025
X7.06Y-3.085
T3
X5.Y-1.9
X5.Y-2.5
X5.1Y-1.9
X5.1Y-2.5
X5.2Y-1.9
X5.2Y-2.5
X5.3Y-1.9
X5.3Y-2.5
X5.4Y-1.9
X5.4Y-2.5
X5.6Y-1.9
X5.6Y-2.5
X5.7Y-1.9
X5.7Y-2.5
X5.8Y-1.9
X5.8Y-2.5
X5.9Y-1.9
X5.9Y-2.5
X6.Y-1.9
X6.Y-2.5
X6.5Y-1.9
X6.5Y-2.5
X6.6Y-1.9
X6.6Y-2.5
X6.7Y-1.9
X6.7Y-2.5
X6.8Y-1.9
X6.8Y-2.5
X6.9Y-1.9
X6.9Y-2.5
X7.1Y-1.9
X7.1Y-2.5
X7.2Y-1.9
X7.2Y-2.5
X7.3Y-1.9
X7.3Y-2.5
X7.4Y-1.9
X7.4Y-2.5
X7.5Y-1.9
X7.5Y-2.5
T4
X4.7Y-2.4
X4.7Y-2.5
X4.7Y-2.6
X4.7Y-2.7
X4.7Y-2.8
X4.7Y-2.9
X4.7Y-3.3
X4.7Y-3.4
X4.7Y-3.5
X4.7Y-3.6
X4.7Y-3.7
X4.7Y-3.8
X5.64Y-3.765
X5.74Y-3.765
X5.84Y-3.765
X5.94Y-3.765
X6.04Y-3.765
X6.575Y-3.69
X6.575Y-3.79
X6.675Y-3.69
X6.675Y-3.79
X6.775Y-3.69
X6.775Y-3.79
X7.95Y-2.3
X7.95Y-2.4
X7.95Y-2.5
X7.95Y-2.6
X7.95Y-2.7
X7.95Y-2.8
X7.95Y-2.9
X7.95Y-3.2
X7.95Y-3.3
X7.95Y-3.4
X7.95Y-3.5
X7.95Y-3.6
X7.95Y-3.7
X7.95Y-3.8
T0
M30
