G04 #@! TF.FileFunction,Copper,L1,Top,Signal*
%FSLAX46Y46*%
G04 Gerber Fmt 4.6, Leading zero omitted, Abs format (unit mm)*
G04 Created by KiCad (PCBNEW (2015-05-26 BZR 5680)-product) date 2015 June 10, Wednesday 08:28:09*
%MOMM*%
G01*
G04 APERTURE LIST*
%ADD10C,0.100000*%
%ADD11R,2.600960X1.600200*%
%ADD12R,1.250000X1.500000*%
%ADD13R,1.727200X2.032000*%
%ADD14O,1.727200X2.032000*%
%ADD15R,1.500000X1.300000*%
%ADD16R,1.500000X1.500000*%
%ADD17C,1.500000*%
%ADD18R,1.524000X0.762000*%
%ADD19C,0.685800*%
%ADD20C,0.254000*%
G04 APERTURE END LIST*
D10*
D11*
X138198860Y-53340000D03*
X134597140Y-53340000D03*
D12*
X142240000Y-53360000D03*
X142240000Y-55860000D03*
D13*
X157480000Y-66040000D03*
D14*
X154940000Y-66040000D03*
X152400000Y-66040000D03*
X149860000Y-66040000D03*
X147320000Y-66040000D03*
D15*
X138604000Y-49276000D03*
X141304000Y-49276000D03*
D16*
X98552000Y-59690000D03*
D17*
X96012000Y-59690000D03*
X93472000Y-59690000D03*
X90932000Y-59690000D03*
X88392000Y-59690000D03*
X88392000Y-44450000D03*
X90932000Y-44450000D03*
X93472000Y-44450000D03*
X96012000Y-44450000D03*
X98552000Y-44450000D03*
D16*
X111506000Y-59690000D03*
D17*
X108966000Y-59690000D03*
X106426000Y-59690000D03*
X103886000Y-59690000D03*
X101346000Y-59690000D03*
X101346000Y-44450000D03*
X103886000Y-44450000D03*
X106426000Y-44450000D03*
X108966000Y-44450000D03*
X111506000Y-44450000D03*
D16*
X128778000Y-59690000D03*
D17*
X126238000Y-59690000D03*
X123698000Y-59690000D03*
X121158000Y-59690000D03*
X118618000Y-59690000D03*
X118618000Y-44450000D03*
X121158000Y-44450000D03*
X123698000Y-44450000D03*
X126238000Y-44450000D03*
X128778000Y-44450000D03*
D16*
X141732000Y-59690000D03*
D17*
X139192000Y-59690000D03*
X136652000Y-59690000D03*
X134112000Y-59690000D03*
X131572000Y-59690000D03*
X131572000Y-44450000D03*
X134112000Y-44450000D03*
X136652000Y-44450000D03*
X139192000Y-44450000D03*
X141732000Y-44450000D03*
D18*
X154063700Y-59563000D03*
X154063700Y-58293000D03*
X154063700Y-57023000D03*
X154063700Y-55753000D03*
X154063700Y-54483000D03*
X154063700Y-53213000D03*
X154063700Y-51943000D03*
X154063700Y-50673000D03*
X154063700Y-49403000D03*
X154063700Y-48133000D03*
X154063700Y-46863000D03*
X154063700Y-45466000D03*
X145148300Y-59563000D03*
X145148300Y-58293000D03*
X145148300Y-57023000D03*
X145148300Y-55753000D03*
X145148300Y-54483000D03*
X145148300Y-53213000D03*
X145148300Y-51943000D03*
X145148300Y-50673000D03*
X145148300Y-49403000D03*
X145148300Y-48133000D03*
X145148300Y-46863000D03*
X145148300Y-45593000D03*
D15*
X111332000Y-47752000D03*
X108632000Y-47752000D03*
X118792000Y-54610000D03*
X121492000Y-54610000D03*
D19*
X141732000Y-64262000D03*
X128778000Y-64262000D03*
X111506000Y-64262000D03*
X98552000Y-64262000D03*
X139192000Y-63246000D03*
X126238000Y-63246000D03*
X108966000Y-63246000D03*
X96012000Y-63246000D03*
X136652000Y-36830000D03*
X151892000Y-56896000D03*
X153162000Y-41910000D03*
X143764000Y-54610000D03*
X150368000Y-42164000D03*
X150368000Y-49276000D03*
X148082000Y-52324000D03*
X148590000Y-40894000D03*
X148590000Y-46736000D03*
X134112000Y-40894000D03*
X121158000Y-40894000D03*
X103886000Y-40894000D03*
X90932000Y-41148000D03*
X149352000Y-39878000D03*
X149352000Y-48006000D03*
X139192000Y-39878000D03*
X126238000Y-39878000D03*
X108966000Y-39878000D03*
X96012000Y-39878000D03*
X151130000Y-38862000D03*
X151130000Y-50546000D03*
X141732000Y-38862000D03*
X128778000Y-38862000D03*
X111506000Y-38862000D03*
X98552000Y-38862000D03*
X123698000Y-37846000D03*
X106426000Y-66294000D03*
X93472000Y-65278000D03*
X136398000Y-49530000D03*
X140208000Y-51816000D03*
X147066000Y-52578000D03*
X156210000Y-55880000D03*
X156210000Y-49530000D03*
X138938000Y-56642000D03*
X132334000Y-51054000D03*
X147320000Y-44450000D03*
X156972000Y-45466000D03*
X150622000Y-56896000D03*
X147574000Y-45466000D03*
X114808000Y-45720000D03*
X156210000Y-57150000D03*
X115570000Y-56896000D03*
D20*
X141732000Y-64262000D02*
X143256000Y-64262000D01*
X145923000Y-55753000D02*
X145148300Y-55753000D01*
X147066000Y-56896000D02*
X145923000Y-55753000D01*
X147066000Y-60452000D02*
X147066000Y-56896000D01*
X143256000Y-64262000D02*
X147066000Y-60452000D01*
X128778000Y-64262000D02*
X141732000Y-64262000D01*
X111506000Y-64262000D02*
X128778000Y-64262000D01*
X98552000Y-64262000D02*
X111506000Y-64262000D01*
X139192000Y-59690000D02*
X139192000Y-59436000D01*
X139192000Y-59436000D02*
X140335000Y-58293000D01*
X140335000Y-58293000D02*
X145148300Y-58293000D01*
X126238000Y-63246000D02*
X139192000Y-63246000D01*
X108966000Y-63246000D02*
X126238000Y-63246000D01*
X96012000Y-63246000D02*
X108966000Y-63246000D01*
X136652000Y-36830000D02*
X151892000Y-36830000D01*
X153289000Y-58293000D02*
X154063700Y-58293000D01*
X151892000Y-56896000D02*
X153289000Y-58293000D01*
X153162000Y-38100000D02*
X153162000Y-41910000D01*
X151892000Y-36830000D02*
X153162000Y-38100000D01*
X136652000Y-44450000D02*
X136652000Y-46228000D01*
X136652000Y-57912000D02*
X136652000Y-59690000D01*
X136144000Y-57404000D02*
X136652000Y-57912000D01*
X132334000Y-57404000D02*
X136144000Y-57404000D01*
X130302000Y-55372000D02*
X132334000Y-57404000D01*
X130302000Y-50800000D02*
X130302000Y-55372000D01*
X132334000Y-48768000D02*
X130302000Y-50800000D01*
X134112000Y-48768000D02*
X132334000Y-48768000D01*
X136652000Y-46228000D02*
X134112000Y-48768000D01*
X143764000Y-54610000D02*
X144653000Y-54483000D01*
X144653000Y-54483000D02*
X145148300Y-54483000D01*
X121158000Y-61468000D02*
X120396000Y-62230000D01*
X103886000Y-61468000D02*
X103886000Y-61214000D01*
X104648000Y-62230000D02*
X103886000Y-61468000D01*
X120396000Y-62230000D02*
X104648000Y-62230000D01*
X121158000Y-61468000D02*
X121920000Y-62230000D01*
X134112000Y-61468000D02*
X134112000Y-59690000D01*
X133350000Y-62230000D02*
X134112000Y-61468000D01*
X121920000Y-62230000D02*
X133350000Y-62230000D01*
X121158000Y-61468000D02*
X121158000Y-59690000D01*
X90932000Y-59690000D02*
X90932000Y-61214000D01*
X90932000Y-61214000D02*
X91948000Y-62230000D01*
X91948000Y-62230000D02*
X102870000Y-62230000D01*
X103759000Y-61341000D02*
X103886000Y-61214000D01*
X102870000Y-62230000D02*
X103759000Y-61341000D01*
X103886000Y-61214000D02*
X103886000Y-59690000D01*
X121492000Y-54610000D02*
X121492000Y-49864000D01*
X118618000Y-46990000D02*
X118618000Y-44450000D01*
X121492000Y-49864000D02*
X118618000Y-46990000D01*
X145148300Y-49403000D02*
X150241000Y-49403000D01*
X150368000Y-49276000D02*
X150241000Y-49403000D01*
X131572000Y-44450000D02*
X131572000Y-42164000D01*
X118618000Y-44450000D02*
X118618000Y-42164000D01*
X101346000Y-44450000D02*
X101346000Y-42164000D01*
X88392000Y-44450000D02*
X88392000Y-42672000D01*
X88900000Y-42164000D02*
X101346000Y-42164000D01*
X101346000Y-42164000D02*
X115824000Y-42164000D01*
X115824000Y-42164000D02*
X118618000Y-42164000D01*
X118618000Y-42164000D02*
X131572000Y-42164000D01*
X131572000Y-42164000D02*
X150368000Y-42164000D01*
X88392000Y-42672000D02*
X88900000Y-42164000D01*
X108632000Y-47752000D02*
X108632000Y-47164000D01*
X108632000Y-47164000D02*
X107696000Y-46228000D01*
X107696000Y-46228000D02*
X107696000Y-43434000D01*
X107696000Y-43434000D02*
X107188000Y-42926000D01*
X107188000Y-42926000D02*
X105410000Y-42926000D01*
X105410000Y-42926000D02*
X103886000Y-44450000D01*
X150622000Y-46736000D02*
X148590000Y-46736000D01*
X151892000Y-48006000D02*
X150622000Y-46736000D01*
X151892000Y-51054000D02*
X151892000Y-48006000D01*
X151511002Y-51434998D02*
X151892000Y-51054000D01*
X148971002Y-51434998D02*
X151511002Y-51434998D01*
X148082000Y-52324000D02*
X148971002Y-51434998D01*
X145148300Y-46863000D02*
X148463000Y-46863000D01*
X148590000Y-46736000D02*
X148463000Y-46863000D01*
X91186000Y-40894000D02*
X103886000Y-40894000D01*
X103886000Y-40894000D02*
X115570000Y-40894000D01*
X115570000Y-40894000D02*
X121158000Y-40894000D01*
X121158000Y-40894000D02*
X134112000Y-40894000D01*
X134112000Y-40894000D02*
X148590000Y-40894000D01*
X90932000Y-41148000D02*
X91186000Y-40894000D01*
X145148300Y-48133000D02*
X149225000Y-48133000D01*
X149352000Y-48006000D02*
X149225000Y-48133000D01*
X96012000Y-39878000D02*
X108966000Y-39878000D01*
X108966000Y-39878000D02*
X126238000Y-39878000D01*
X126238000Y-39878000D02*
X139192000Y-39878000D01*
X139192000Y-39878000D02*
X149352000Y-39878000D01*
X145148300Y-50673000D02*
X151003000Y-50673000D01*
X151130000Y-50546000D02*
X151003000Y-50673000D01*
X98552000Y-38862000D02*
X111506000Y-38862000D01*
X111506000Y-38862000D02*
X128778000Y-38862000D01*
X128778000Y-38862000D02*
X141732000Y-38862000D01*
X141732000Y-38862000D02*
X151130000Y-38862000D01*
X152527000Y-46863000D02*
X154063700Y-46863000D01*
X152146000Y-46482000D02*
X152527000Y-46863000D01*
X152146000Y-38354000D02*
X152146000Y-46482000D01*
X151638000Y-37846000D02*
X152146000Y-38354000D01*
X150876000Y-37846000D02*
X151638000Y-37846000D01*
X123698000Y-37846000D02*
X150876000Y-37846000D01*
X123698000Y-44450000D02*
X123698000Y-59690000D01*
X149479000Y-53213000D02*
X154063700Y-53213000D01*
X148590000Y-54102000D02*
X149479000Y-53213000D01*
X148590000Y-60960000D02*
X148590000Y-54102000D01*
X143510000Y-66040000D02*
X148590000Y-60960000D01*
X106680000Y-66040000D02*
X143510000Y-66040000D01*
X106426000Y-66294000D02*
X106680000Y-66040000D01*
X106426000Y-44450000D02*
X106426000Y-59690000D01*
X93472000Y-65278000D02*
X143256000Y-65278000D01*
X149733000Y-51943000D02*
X154063700Y-51943000D01*
X147828000Y-53848000D02*
X149733000Y-51943000D01*
X147828000Y-60706000D02*
X147828000Y-53848000D01*
X143256000Y-65278000D02*
X147828000Y-60706000D01*
X93472000Y-44450000D02*
X93472000Y-59690000D01*
X138604000Y-49276000D02*
X136652000Y-49276000D01*
X136652000Y-49276000D02*
X136398000Y-49530000D01*
X138198860Y-53340000D02*
X138684000Y-53340000D01*
X138684000Y-53340000D02*
X140208000Y-51816000D01*
X145148300Y-53213000D02*
X146431000Y-53213000D01*
X146431000Y-53213000D02*
X147066000Y-52578000D01*
X138198860Y-53340000D02*
X138198860Y-49681140D01*
X138198860Y-49681140D02*
X138604000Y-49276000D01*
X142240000Y-53360000D02*
X138218860Y-53360000D01*
X138218860Y-53360000D02*
X138198860Y-53340000D01*
X145148300Y-53213000D02*
X142387000Y-53213000D01*
X142387000Y-53213000D02*
X142240000Y-53360000D01*
X154063700Y-55753000D02*
X156083000Y-55753000D01*
X156083000Y-55753000D02*
X156210000Y-55880000D01*
X154063700Y-49403000D02*
X156083000Y-49403000D01*
X156083000Y-49403000D02*
X156210000Y-49530000D01*
X142240000Y-55860000D02*
X139720000Y-55860000D01*
X139720000Y-55860000D02*
X138938000Y-56642000D01*
X134597140Y-53340000D02*
X134597140Y-53317140D01*
X134597140Y-53317140D02*
X132334000Y-51054000D01*
X152781000Y-48133000D02*
X154063700Y-48133000D01*
X149352000Y-44704000D02*
X152781000Y-48133000D01*
X147574000Y-44704000D02*
X149352000Y-44704000D01*
X147320000Y-44450000D02*
X147574000Y-44704000D01*
X157480000Y-66040000D02*
X157480000Y-61976000D01*
X155067000Y-59563000D02*
X154063700Y-59563000D01*
X157480000Y-61976000D02*
X155067000Y-59563000D01*
X153936700Y-59436000D02*
X154063700Y-59563000D01*
X156972000Y-45466000D02*
X154063700Y-45466000D01*
X152400000Y-58674000D02*
X150622000Y-56896000D01*
X152400000Y-66040000D02*
X152400000Y-58674000D01*
X147447000Y-45593000D02*
X145148300Y-45593000D01*
X147574000Y-45466000D02*
X147447000Y-45593000D01*
X141304000Y-49276000D02*
X141304000Y-50880000D01*
X142367000Y-51943000D02*
X145148300Y-51943000D01*
X141304000Y-50880000D02*
X142367000Y-51943000D01*
X113284000Y-45720000D02*
X111332000Y-47672000D01*
X114808000Y-45720000D02*
X113284000Y-45720000D01*
X111332000Y-47672000D02*
X111332000Y-47752000D01*
X156083000Y-57023000D02*
X154063700Y-57023000D01*
X156210000Y-57150000D02*
X156083000Y-57023000D01*
X118792000Y-54610000D02*
X118792000Y-54690000D01*
X118792000Y-54690000D02*
X116586000Y-56896000D01*
X116586000Y-56896000D02*
X115570000Y-56896000D01*
M02*
