G04 #@! TF.FileFunction,Copper,L1,Top,Signal*
%FSLAX46Y46*%
G04 Gerber Fmt 4.6, Leading zero omitted, Abs format (unit mm)*
G04 Created by KiCad (PCBNEW 0.201506222247+5806~23~ubuntu14.04.1-product) date Wed 01 Jul 2015 19:30:32 CEST*
%MOMM*%
G01*
G04 APERTURE LIST*
%ADD10C,0.100000*%
%ADD11R,1.500000X1.500000*%
%ADD12C,1.500000*%
%ADD13R,1.250000X1.500000*%
%ADD14R,1.600000X0.550000*%
%ADD15R,0.550000X1.600000*%
%ADD16R,2.032000X1.727200*%
%ADD17O,2.032000X1.727200*%
%ADD18R,0.300000X0.525000*%
%ADD19R,1.500000X1.300000*%
%ADD20R,1.300000X1.500000*%
%ADD21R,0.600000X1.600000*%
%ADD22R,0.600000X1.500000*%
%ADD23R,1.727200X1.727200*%
%ADD24O,1.727200X1.727200*%
%ADD25R,1.727200X2.032000*%
%ADD26O,1.727200X2.032000*%
%ADD27C,0.685800*%
%ADD28C,0.304800*%
%ADD29C,0.152400*%
G04 APERTURE END LIST*
D10*
D11*
X190500000Y-63500000D03*
D12*
X187960000Y-63500000D03*
X185420000Y-63500000D03*
X182880000Y-63500000D03*
X180340000Y-63500000D03*
X180340000Y-48260000D03*
X182880000Y-48260000D03*
X185420000Y-48260000D03*
X187960000Y-48260000D03*
X190500000Y-48260000D03*
D11*
X175260000Y-63500000D03*
D12*
X172720000Y-63500000D03*
X170180000Y-63500000D03*
X167640000Y-63500000D03*
X165100000Y-63500000D03*
X165100000Y-48260000D03*
X167640000Y-48260000D03*
X170180000Y-48260000D03*
X172720000Y-48260000D03*
X175260000Y-48260000D03*
D11*
X152400000Y-63500000D03*
D12*
X149860000Y-63500000D03*
X147320000Y-63500000D03*
X144780000Y-63500000D03*
X142240000Y-63500000D03*
X142240000Y-48260000D03*
X144780000Y-48260000D03*
X147320000Y-48260000D03*
X149860000Y-48260000D03*
X152400000Y-48260000D03*
D11*
X137160000Y-63500000D03*
D12*
X134620000Y-63500000D03*
X132080000Y-63500000D03*
X129540000Y-63500000D03*
X127000000Y-63500000D03*
X127000000Y-48260000D03*
X129540000Y-48260000D03*
X132080000Y-48260000D03*
X134620000Y-48260000D03*
X137160000Y-48260000D03*
D13*
X167640000Y-86467000D03*
X167640000Y-83967000D03*
D14*
X165286000Y-91954000D03*
X165286000Y-91154000D03*
X165286000Y-90354000D03*
X165286000Y-89554000D03*
X165286000Y-88754000D03*
X165286000Y-87954000D03*
X165286000Y-87154000D03*
X165286000Y-86354000D03*
D15*
X163836000Y-84904000D03*
X163036000Y-84904000D03*
X162236000Y-84904000D03*
X161436000Y-84904000D03*
X160636000Y-84904000D03*
X159836000Y-84904000D03*
X159036000Y-84904000D03*
X158236000Y-84904000D03*
D14*
X156786000Y-86354000D03*
X156786000Y-87154000D03*
X156786000Y-87954000D03*
X156786000Y-88754000D03*
X156786000Y-89554000D03*
X156786000Y-90354000D03*
X156786000Y-91154000D03*
X156786000Y-91954000D03*
D15*
X158236000Y-93404000D03*
X159036000Y-93404000D03*
X159836000Y-93404000D03*
X160636000Y-93404000D03*
X161436000Y-93404000D03*
X162236000Y-93404000D03*
X163036000Y-93404000D03*
X163836000Y-93404000D03*
D16*
X119380000Y-83820000D03*
D17*
X119380000Y-86360000D03*
X119380000Y-88900000D03*
X119380000Y-91440000D03*
X119380000Y-93980000D03*
X119380000Y-96520000D03*
D16*
X201930000Y-81280000D03*
D17*
X201930000Y-83820000D03*
X201930000Y-86360000D03*
X201930000Y-88900000D03*
X201930000Y-91440000D03*
X201930000Y-93980000D03*
X201930000Y-96520000D03*
D18*
X127000000Y-84125500D03*
X127000000Y-85800500D03*
X127650000Y-85800500D03*
X126350000Y-85800500D03*
X126350000Y-84125500D03*
X127650000Y-84125500D03*
X127000000Y-89078500D03*
X127000000Y-90753500D03*
X127650000Y-90753500D03*
X126350000Y-90753500D03*
X126350000Y-89078500D03*
X127650000Y-89078500D03*
X126873000Y-94412500D03*
X126873000Y-96087500D03*
X127523000Y-96087500D03*
X126223000Y-96087500D03*
X126223000Y-94412500D03*
X127523000Y-94412500D03*
D19*
X170260000Y-92710000D03*
X167560000Y-92710000D03*
D20*
X158750000Y-58500000D03*
X158750000Y-55800000D03*
X158750000Y-53293000D03*
X158750000Y-50593000D03*
D19*
X132000000Y-83820000D03*
X134700000Y-83820000D03*
X132000000Y-86360000D03*
X134700000Y-86360000D03*
X132000000Y-88900000D03*
X134700000Y-88900000D03*
X132000000Y-91440000D03*
X134700000Y-91440000D03*
X136191000Y-95885000D03*
X138891000Y-95885000D03*
D20*
X133223000Y-97235000D03*
X133223000Y-94535000D03*
D19*
X190707000Y-85471000D03*
X188007000Y-85471000D03*
X196295000Y-86995000D03*
X193595000Y-86995000D03*
X190580000Y-89027000D03*
X187880000Y-89027000D03*
X190580000Y-91440000D03*
X187880000Y-91440000D03*
X187405000Y-94615000D03*
X184705000Y-94615000D03*
X190453000Y-82042000D03*
X187753000Y-82042000D03*
X196168000Y-82042000D03*
X193468000Y-82042000D03*
D21*
X147447000Y-83822000D03*
X146177000Y-83822000D03*
X144907000Y-83822000D03*
X143637000Y-83822000D03*
X142367000Y-83820000D03*
D22*
X141097000Y-83822000D03*
D21*
X139827000Y-83822000D03*
X138557000Y-83822000D03*
X138557000Y-90422000D03*
X139827000Y-90422000D03*
X141097000Y-90422000D03*
X142367000Y-90422000D03*
X143637000Y-90422000D03*
X144907000Y-90422000D03*
X146177000Y-90422000D03*
X147447000Y-90422000D03*
X173228000Y-90549000D03*
X174498000Y-90549000D03*
X175768000Y-90549000D03*
X177038000Y-90549000D03*
X178308000Y-90551000D03*
D22*
X179578000Y-90549000D03*
D21*
X180848000Y-90549000D03*
X182118000Y-90549000D03*
X182118000Y-83949000D03*
X180848000Y-83949000D03*
X179578000Y-83949000D03*
X178308000Y-83949000D03*
X177038000Y-83949000D03*
X175768000Y-83949000D03*
X174498000Y-83949000D03*
X173228000Y-83949000D03*
D23*
X150368000Y-92075000D03*
D24*
X152908000Y-92075000D03*
X150368000Y-94615000D03*
X152908000Y-94615000D03*
X150368000Y-97155000D03*
X152908000Y-97155000D03*
D25*
X170180000Y-96520000D03*
D26*
X172720000Y-96520000D03*
X175260000Y-96520000D03*
X177800000Y-96520000D03*
X180340000Y-96520000D03*
D16*
X119380000Y-60960000D03*
D17*
X119380000Y-63500000D03*
X119380000Y-66040000D03*
X119380000Y-68580000D03*
X119380000Y-71120000D03*
X119380000Y-73660000D03*
D16*
X201930000Y-58420000D03*
D17*
X201930000Y-60960000D03*
X201930000Y-63500000D03*
X201930000Y-66040000D03*
X201930000Y-68580000D03*
X201930000Y-71120000D03*
X201930000Y-73660000D03*
D27*
X130556000Y-52070000D03*
X130429000Y-53340000D03*
X158623000Y-88773000D03*
X175006000Y-92075000D03*
X173228000Y-82042000D03*
X172085000Y-93726000D03*
X169418000Y-87122000D03*
X147447000Y-92456000D03*
X141097000Y-82042000D03*
X128905000Y-96266000D03*
X128905000Y-98171000D03*
X181483000Y-92710000D03*
X177165000Y-92075000D03*
X160782000Y-58674000D03*
X160782000Y-53721000D03*
X203708000Y-62865000D03*
X160147000Y-88011000D03*
X159385000Y-87249000D03*
X154686000Y-88011000D03*
X154051000Y-87122000D03*
D28*
X152400000Y-63500000D02*
X163068000Y-63500000D01*
X173228000Y-65532000D02*
X175260000Y-63500000D01*
X165100000Y-65532000D02*
X173228000Y-65532000D01*
X163068000Y-63500000D02*
X165100000Y-65532000D01*
D29*
X134620000Y-63500000D02*
X134620000Y-63119000D01*
D28*
X134620000Y-63119000D02*
X135763000Y-61976000D01*
X135763000Y-61976000D02*
X148336000Y-61976000D01*
X148336000Y-61976000D02*
X149860000Y-63500000D01*
X172720000Y-63500000D02*
X172720000Y-62357000D01*
X172720000Y-62357000D02*
X173736000Y-61341000D01*
X173736000Y-61341000D02*
X187071000Y-61341000D01*
X187071000Y-61341000D02*
X187960000Y-62230000D01*
X187960000Y-62230000D02*
X187960000Y-63500000D01*
D29*
X134620000Y-63500000D02*
X134620000Y-62992000D01*
D28*
X181991000Y-61849000D02*
X174752000Y-61849000D01*
X181991000Y-61849000D02*
X182880000Y-62738000D01*
X182880000Y-63500000D02*
X182880000Y-62738000D01*
X168910000Y-64770000D02*
X167640000Y-63500000D01*
X173228000Y-64770000D02*
X168910000Y-64770000D01*
X173990000Y-64008000D02*
X173228000Y-64770000D01*
X173990000Y-62611000D02*
X173990000Y-64008000D01*
X174752000Y-61849000D02*
X173990000Y-62611000D01*
D29*
X144780000Y-63500000D02*
X144780000Y-64008000D01*
D28*
X144780000Y-64008000D02*
X145796000Y-65024000D01*
X166243000Y-62103000D02*
X167640000Y-63500000D01*
X151384000Y-62103000D02*
X166243000Y-62103000D01*
X151003000Y-62484000D02*
X151384000Y-62103000D01*
X151003000Y-64389000D02*
X151003000Y-62484000D01*
X150368000Y-65024000D02*
X151003000Y-64389000D01*
X145796000Y-65024000D02*
X150368000Y-65024000D01*
D29*
X129540000Y-63500000D02*
X129540000Y-64008000D01*
D28*
X129540000Y-64008000D02*
X130429000Y-64897000D01*
X130429000Y-64897000D02*
X143383000Y-64897000D01*
X143383000Y-64897000D02*
X144780000Y-63500000D01*
D29*
X182880000Y-63500000D02*
X182880000Y-63627000D01*
D28*
X182880000Y-63627000D02*
X184277000Y-65024000D01*
X184277000Y-65024000D02*
X193802000Y-65024000D01*
X193802000Y-65024000D02*
X194691000Y-65913000D01*
X194691000Y-65913000D02*
X199517000Y-65913000D01*
X199517000Y-65913000D02*
X201930000Y-63500000D01*
D29*
X167640000Y-63500000D02*
X167640000Y-63754000D01*
X144780000Y-63500000D02*
X144780000Y-63627000D01*
X142240000Y-48260000D02*
X142621000Y-48260000D01*
D28*
X142621000Y-48260000D02*
X143891000Y-46990000D01*
X152701000Y-50593000D02*
X158750000Y-50593000D01*
X151130000Y-49022000D02*
X152701000Y-50593000D01*
X151130000Y-47752000D02*
X151130000Y-49022000D01*
X150368000Y-46990000D02*
X151130000Y-47752000D01*
X143891000Y-46990000D02*
X150368000Y-46990000D01*
D29*
X142240000Y-48260000D02*
X142240000Y-48006000D01*
D28*
X142240000Y-49403000D02*
X140970000Y-50673000D01*
X142240000Y-49403000D02*
X142240000Y-48260000D01*
X127000000Y-49530000D02*
X127000000Y-48260000D01*
X128143000Y-50673000D02*
X127000000Y-49530000D01*
X140970000Y-50673000D02*
X128143000Y-50673000D01*
X158750000Y-50593000D02*
X162767000Y-50593000D01*
X162767000Y-50593000D02*
X165100000Y-48260000D01*
D29*
X142240000Y-48260000D02*
X142240000Y-47879000D01*
D28*
X158750000Y-55800000D02*
X134286000Y-55800000D01*
X134286000Y-55800000D02*
X130556000Y-52070000D01*
D29*
X129540000Y-48260000D02*
X129540000Y-47625000D01*
D28*
X165989000Y-51943000D02*
X153289000Y-51943000D01*
X172720000Y-48260000D02*
X171323000Y-46863000D01*
X169672000Y-46863000D02*
X171323000Y-46863000D01*
X168910000Y-47625000D02*
X169672000Y-46863000D01*
X168910000Y-49022000D02*
X168910000Y-47625000D01*
X165989000Y-51943000D02*
X168910000Y-49022000D01*
X153289000Y-51943000D02*
X149860000Y-48514000D01*
X149860000Y-48514000D02*
X149860000Y-48260000D01*
D29*
X187960000Y-48260000D02*
X188214000Y-48260000D01*
D28*
X188214000Y-48260000D02*
X195072000Y-55118000D01*
X195072000Y-55118000D02*
X202311000Y-55118000D01*
X202311000Y-55118000D02*
X204470000Y-57277000D01*
X204470000Y-57277000D02*
X204470000Y-70358000D01*
X204470000Y-70358000D02*
X203708000Y-71120000D01*
X203708000Y-71120000D02*
X201930000Y-71120000D01*
D29*
X172720000Y-48260000D02*
X173355000Y-48260000D01*
D28*
X173355000Y-48260000D02*
X174752000Y-49657000D01*
X174752000Y-49657000D02*
X186563000Y-49657000D01*
X186563000Y-49657000D02*
X187960000Y-48260000D01*
D29*
X172720000Y-48260000D02*
X172974000Y-48260000D01*
X149860000Y-48260000D02*
X149860000Y-48387000D01*
X187960000Y-48260000D02*
X187960000Y-48768000D01*
X137160000Y-48260000D02*
X137160000Y-47879000D01*
D28*
X137160000Y-47879000D02*
X138684000Y-46355000D01*
X138684000Y-46355000D02*
X150495000Y-46355000D01*
X150495000Y-46355000D02*
X152400000Y-48260000D01*
X190500000Y-48260000D02*
X190500000Y-49403000D01*
X190500000Y-49403000D02*
X195580000Y-54483000D01*
X195580000Y-54483000D02*
X202819000Y-54483000D01*
X202819000Y-54483000D02*
X204978000Y-56642000D01*
X204978000Y-56642000D02*
X204978000Y-72644000D01*
X204978000Y-72644000D02*
X203962000Y-73660000D01*
X203962000Y-73660000D02*
X201930000Y-73660000D01*
D29*
X175260000Y-48260000D02*
X175641000Y-48260000D01*
D28*
X175641000Y-48260000D02*
X176911000Y-46990000D01*
X176911000Y-46990000D02*
X189230000Y-46990000D01*
X189230000Y-46990000D02*
X190500000Y-48260000D01*
D29*
X137160000Y-48260000D02*
X137160000Y-47752000D01*
X175260000Y-48260000D02*
X175260000Y-47752000D01*
D28*
X170180000Y-48260000D02*
X170180000Y-63500000D01*
X170180000Y-63500000D02*
X170180000Y-62738000D01*
X170180000Y-62738000D02*
X167513000Y-60071000D01*
X167513000Y-60071000D02*
X137668000Y-60071000D01*
X137668000Y-60071000D02*
X130937000Y-53340000D01*
X130937000Y-53340000D02*
X130429000Y-53340000D01*
D29*
X147320000Y-48260000D02*
X147320000Y-48895000D01*
D28*
X147320000Y-48895000D02*
X144907000Y-51308000D01*
X122555000Y-62865000D02*
X119380000Y-66040000D01*
X122555000Y-58928000D02*
X122555000Y-62865000D01*
X130175000Y-51308000D02*
X122555000Y-58928000D01*
X144907000Y-51308000D02*
X130175000Y-51308000D01*
D29*
X132080000Y-48260000D02*
X132080000Y-48133000D01*
D28*
X132080000Y-48133000D02*
X130683000Y-46736000D01*
X130683000Y-46736000D02*
X125730000Y-46736000D01*
X125730000Y-46736000D02*
X117602000Y-54864000D01*
X117602000Y-54864000D02*
X117602000Y-66802000D01*
X117602000Y-66802000D02*
X119380000Y-68580000D01*
D29*
X132080000Y-63500000D02*
X132080000Y-63373000D01*
D28*
X132080000Y-63373000D02*
X130683000Y-61976000D01*
X122174000Y-65786000D02*
X119380000Y-68580000D01*
X122174000Y-64516000D02*
X122174000Y-65786000D01*
X124714000Y-61976000D02*
X122174000Y-64516000D01*
X130683000Y-61976000D02*
X124714000Y-61976000D01*
D29*
X132080000Y-48260000D02*
X131572000Y-48260000D01*
D28*
X156786000Y-88754000D02*
X158604000Y-88754000D01*
D29*
X158604000Y-88754000D02*
X158623000Y-88773000D01*
X175768000Y-90549000D02*
X175768000Y-91313000D01*
D28*
X175768000Y-91313000D02*
X175006000Y-92075000D01*
X173228000Y-83949000D02*
X173228000Y-82042000D01*
X175768000Y-90549000D02*
X177038000Y-90549000D01*
X170260000Y-92710000D02*
X171069000Y-92710000D01*
X171069000Y-92710000D02*
X172085000Y-93726000D01*
X167640000Y-86467000D02*
X168763000Y-86467000D01*
X168763000Y-86467000D02*
X169418000Y-87122000D01*
X165286000Y-87154000D02*
X166953000Y-87154000D01*
X166953000Y-87154000D02*
X167640000Y-86467000D01*
X147447000Y-90422000D02*
X147447000Y-92456000D01*
X141097000Y-83822000D02*
X141097000Y-82042000D01*
X127523000Y-96087500D02*
X128726500Y-96087500D01*
X128726500Y-96087500D02*
X128905000Y-96266000D01*
D29*
X178308000Y-90551000D02*
X178308000Y-90932000D01*
D28*
X178308000Y-90932000D02*
X177165000Y-92075000D01*
X182118000Y-92075000D02*
X182118000Y-90549000D01*
X181483000Y-92710000D02*
X182118000Y-92075000D01*
X160782000Y-58674000D02*
X160608000Y-58500000D01*
X160608000Y-58500000D02*
X158750000Y-58500000D01*
X160782000Y-53721000D02*
X160354000Y-53293000D01*
X160354000Y-53293000D02*
X158750000Y-53293000D01*
X121412000Y-73660000D02*
X119380000Y-73660000D01*
X125222000Y-69850000D02*
X121412000Y-73660000D01*
X202692000Y-69850000D02*
X125222000Y-69850000D01*
X203708000Y-68834000D02*
X202692000Y-69850000D01*
X203708000Y-62865000D02*
X203708000Y-68834000D01*
D29*
X150368000Y-97155000D02*
X150622000Y-97155000D01*
D28*
X150622000Y-97155000D02*
X151892000Y-95885000D01*
X164385000Y-95885000D02*
X167560000Y-92710000D01*
X151892000Y-95885000D02*
X164385000Y-95885000D01*
X167560000Y-92710000D02*
X165862000Y-92710000D01*
X165862000Y-92710000D02*
X165286000Y-92134000D01*
D29*
X165286000Y-92134000D02*
X165286000Y-91954000D01*
D28*
X180848000Y-90549000D02*
X180848000Y-91948000D01*
X180848000Y-91948000D02*
X179959000Y-92837000D01*
X179959000Y-92837000D02*
X172593000Y-92837000D01*
X172593000Y-92837000D02*
X171958000Y-92202000D01*
X171958000Y-92202000D02*
X171958000Y-91567000D01*
X171958000Y-91567000D02*
X171545000Y-91154000D01*
X171545000Y-91154000D02*
X165286000Y-91154000D01*
X173228000Y-90549000D02*
X170432000Y-90549000D01*
X170432000Y-90549000D02*
X170237000Y-90354000D01*
X170237000Y-90354000D02*
X165286000Y-90354000D01*
X174498000Y-90549000D02*
X174498000Y-89154000D01*
X174498000Y-89154000D02*
X174371000Y-89027000D01*
X174371000Y-89027000D02*
X172212000Y-89027000D01*
X172212000Y-89027000D02*
X171685000Y-89554000D01*
X171685000Y-89554000D02*
X165286000Y-89554000D01*
X179578000Y-90549000D02*
X179578000Y-89281000D01*
X179578000Y-89281000D02*
X178816000Y-88519000D01*
X178816000Y-88519000D02*
X171577000Y-88519000D01*
X171577000Y-88519000D02*
X171342000Y-88754000D01*
X171342000Y-88754000D02*
X165286000Y-88754000D01*
X160147000Y-88011000D02*
X160147000Y-86995000D01*
X160147000Y-86995000D02*
X159512000Y-86360000D01*
X159512000Y-86360000D02*
X158623000Y-86360000D01*
X158623000Y-86360000D02*
X158236000Y-85973000D01*
X158236000Y-85973000D02*
X158236000Y-84904000D01*
X159385000Y-87249000D02*
X158623000Y-87249000D01*
X157728000Y-86354000D02*
X156786000Y-86354000D01*
X158623000Y-87249000D02*
X157728000Y-86354000D01*
D29*
X156919000Y-86487000D02*
X156786000Y-86354000D01*
D28*
X154743000Y-87954000D02*
X156786000Y-87954000D01*
D29*
X154686000Y-88011000D02*
X154743000Y-87954000D01*
D28*
X147447000Y-83822000D02*
X148973000Y-83822000D01*
X155416000Y-91154000D02*
X156786000Y-91154000D01*
X155067000Y-90805000D02*
X155416000Y-91154000D01*
X155067000Y-89916000D02*
X155067000Y-90805000D01*
X148973000Y-83822000D02*
X155067000Y-89916000D01*
X146177000Y-83822000D02*
X146177000Y-84709000D01*
X155327000Y-91954000D02*
X156786000Y-91954000D01*
X149606000Y-86233000D02*
X155327000Y-91954000D01*
X147701000Y-86233000D02*
X149606000Y-86233000D01*
X146177000Y-84709000D02*
X147701000Y-86233000D01*
X144907000Y-83822000D02*
X144907000Y-84201000D01*
X144907000Y-84201000D02*
X147574000Y-86868000D01*
X147574000Y-86868000D02*
X149479000Y-86868000D01*
X149479000Y-86868000D02*
X156015000Y-93404000D01*
X156015000Y-93404000D02*
X158236000Y-93404000D01*
X119380000Y-83820000D02*
X121412000Y-83820000D01*
X121412000Y-83820000D02*
X122809000Y-82423000D01*
X122809000Y-82423000D02*
X127000000Y-82423000D01*
X127000000Y-82423000D02*
X127650000Y-83073000D01*
X127650000Y-83073000D02*
X127650000Y-84125500D01*
X119380000Y-86360000D02*
X121539000Y-86360000D01*
X121539000Y-86360000D02*
X122098500Y-85800500D01*
X122098500Y-85800500D02*
X126350000Y-85800500D01*
X119380000Y-88900000D02*
X123571000Y-88900000D01*
X123571000Y-88900000D02*
X124587000Y-87884000D01*
X124587000Y-87884000D02*
X127254000Y-87884000D01*
X127254000Y-87884000D02*
X127650000Y-88280000D01*
X127650000Y-88280000D02*
X127650000Y-89078500D01*
X119380000Y-91440000D02*
X124079000Y-91440000D01*
X124079000Y-91440000D02*
X124765500Y-90753500D01*
X124765500Y-90753500D02*
X126350000Y-90753500D01*
X119380000Y-93980000D02*
X123063000Y-93980000D01*
X123063000Y-93980000D02*
X123825000Y-93218000D01*
X123825000Y-93218000D02*
X127127000Y-93218000D01*
X127127000Y-93218000D02*
X127523000Y-93614000D01*
X127523000Y-93614000D02*
X127523000Y-94412500D01*
X119380000Y-96520000D02*
X123952000Y-96520000D01*
X123952000Y-96520000D02*
X124384500Y-96087500D01*
X124384500Y-96087500D02*
X126223000Y-96087500D01*
X132000000Y-83820000D02*
X129667000Y-83820000D01*
X129667000Y-83820000D02*
X128524000Y-84963000D01*
X128524000Y-84963000D02*
X127254000Y-84963000D01*
X127254000Y-84963000D02*
X127000000Y-84709000D01*
X127000000Y-84709000D02*
X127000000Y-84125500D01*
X132000000Y-86360000D02*
X130556000Y-86360000D01*
X130556000Y-86360000D02*
X130048000Y-86868000D01*
X130048000Y-86868000D02*
X127127000Y-86868000D01*
X127127000Y-86868000D02*
X127000000Y-86741000D01*
X127000000Y-86741000D02*
X127000000Y-85800500D01*
X132000000Y-88900000D02*
X129794000Y-88900000D01*
X129794000Y-88900000D02*
X128778000Y-89916000D01*
X128778000Y-89916000D02*
X127381000Y-89916000D01*
X127381000Y-89916000D02*
X127000000Y-89535000D01*
X127000000Y-89535000D02*
X127000000Y-89078500D01*
X132000000Y-91440000D02*
X130302000Y-91440000D01*
X130302000Y-91440000D02*
X129794000Y-91948000D01*
X129794000Y-91948000D02*
X127254000Y-91948000D01*
X127254000Y-91948000D02*
X127000000Y-91694000D01*
X127000000Y-91694000D02*
X127000000Y-90753500D01*
X126873000Y-94412500D02*
X126873000Y-94996000D01*
X126873000Y-94996000D02*
X127127000Y-95250000D01*
X127127000Y-95250000D02*
X130937000Y-95250000D01*
X130937000Y-95250000D02*
X131572000Y-95885000D01*
X131572000Y-95885000D02*
X136191000Y-95885000D01*
X133223000Y-97235000D02*
X127174000Y-97235000D01*
X127174000Y-97235000D02*
X126873000Y-96934000D01*
X126873000Y-96934000D02*
X126873000Y-96087500D01*
X134700000Y-83820000D02*
X135509000Y-83820000D01*
X146177000Y-89154000D02*
X146177000Y-90422000D01*
X144145000Y-87122000D02*
X146177000Y-89154000D01*
X137287000Y-87122000D02*
X144145000Y-87122000D01*
X136779000Y-86614000D02*
X137287000Y-87122000D01*
X136779000Y-85090000D02*
X136779000Y-86614000D01*
X135509000Y-83820000D02*
X136779000Y-85090000D01*
D29*
X134700000Y-83820000D02*
X134700000Y-84027000D01*
X134700000Y-83820000D02*
X135128000Y-83820000D01*
D28*
X134700000Y-86360000D02*
X135763000Y-86360000D01*
X144907000Y-89027000D02*
X144907000Y-90422000D01*
X143510000Y-87630000D02*
X144907000Y-89027000D01*
X137033000Y-87630000D02*
X143510000Y-87630000D01*
X135763000Y-86360000D02*
X137033000Y-87630000D01*
D29*
X134700000Y-86360000D02*
X135128000Y-86360000D01*
D28*
X134700000Y-88900000D02*
X136906000Y-88900000D01*
X143637000Y-89281000D02*
X143637000Y-90422000D01*
X142621000Y-88265000D02*
X143637000Y-89281000D01*
X137541000Y-88265000D02*
X142621000Y-88265000D01*
X136906000Y-88900000D02*
X137541000Y-88265000D01*
X134700000Y-91440000D02*
X135890000Y-91440000D01*
X142367000Y-89535000D02*
X142367000Y-90422000D01*
X141605000Y-88773000D02*
X142367000Y-89535000D01*
X137795000Y-88773000D02*
X141605000Y-88773000D01*
X136779000Y-89789000D02*
X137795000Y-88773000D01*
X136779000Y-90551000D02*
X136779000Y-89789000D01*
X135890000Y-91440000D02*
X136779000Y-90551000D01*
D29*
X138891000Y-95885000D02*
X139446000Y-95885000D01*
D28*
X139446000Y-95885000D02*
X141097000Y-94234000D01*
X141097000Y-94234000D02*
X141097000Y-90422000D01*
X133223000Y-94535000D02*
X138764000Y-94535000D01*
X138764000Y-94535000D02*
X139827000Y-93472000D01*
X139827000Y-93472000D02*
X139827000Y-90422000D01*
X177038000Y-83949000D02*
X177038000Y-83058000D01*
X185928000Y-85471000D02*
X188007000Y-85471000D01*
X185166000Y-84709000D02*
X185928000Y-85471000D01*
X185166000Y-82169000D02*
X185166000Y-84709000D01*
X184023000Y-81026000D02*
X185166000Y-82169000D01*
X179070000Y-81026000D02*
X184023000Y-81026000D01*
X177038000Y-83058000D02*
X179070000Y-81026000D01*
D29*
X188007000Y-85471000D02*
X187579000Y-85471000D01*
D28*
X178308000Y-83949000D02*
X178308000Y-82931000D01*
X185420000Y-86995000D02*
X193595000Y-86995000D01*
X184658000Y-86233000D02*
X185420000Y-86995000D01*
X184658000Y-82423000D02*
X184658000Y-86233000D01*
X183769000Y-81534000D02*
X184658000Y-82423000D01*
X179705000Y-81534000D02*
X183769000Y-81534000D01*
X178308000Y-82931000D02*
X179705000Y-81534000D01*
X179578000Y-83949000D02*
X179578000Y-83439000D01*
X179578000Y-83439000D02*
X180975000Y-82042000D01*
X180975000Y-82042000D02*
X183515000Y-82042000D01*
X183515000Y-82042000D02*
X184150000Y-82677000D01*
X184150000Y-82677000D02*
X184150000Y-88265000D01*
X184150000Y-88265000D02*
X184912000Y-89027000D01*
X184912000Y-89027000D02*
X187880000Y-89027000D01*
D29*
X187880000Y-89027000D02*
X187880000Y-88439000D01*
D28*
X180848000Y-83949000D02*
X180848000Y-82931000D01*
X180848000Y-82931000D02*
X181203598Y-82575402D01*
X181203598Y-82575402D02*
X183286402Y-82575402D01*
X183286402Y-82575402D02*
X183642000Y-82931000D01*
X183642000Y-82931000D02*
X183642000Y-88646000D01*
X183642000Y-88646000D02*
X186436000Y-91440000D01*
X186436000Y-91440000D02*
X187880000Y-91440000D01*
D29*
X187880000Y-91440000D02*
X187579000Y-91440000D01*
X182118000Y-83949000D02*
X182118000Y-84582000D01*
D28*
X182118000Y-84582000D02*
X183134000Y-85598000D01*
X183134000Y-85598000D02*
X183134000Y-88900000D01*
X183134000Y-88900000D02*
X184705000Y-90471000D01*
X184705000Y-90471000D02*
X184705000Y-94615000D01*
D29*
X182372000Y-83820000D02*
X182118000Y-83949000D01*
X187753000Y-82042000D02*
X187753000Y-81581000D01*
D28*
X187753000Y-81581000D02*
X186182000Y-80010000D01*
X174498000Y-81661000D02*
X174498000Y-83949000D01*
X176149000Y-80010000D02*
X174498000Y-81661000D01*
X186182000Y-80010000D02*
X176149000Y-80010000D01*
X175768000Y-83949000D02*
X175768000Y-83058000D01*
X191817000Y-83693000D02*
X193468000Y-82042000D01*
X186182000Y-83693000D02*
X191817000Y-83693000D01*
X185674000Y-83185000D02*
X186182000Y-83693000D01*
X185674000Y-81915000D02*
X185674000Y-83185000D01*
X184277000Y-80518000D02*
X185674000Y-81915000D01*
X178308000Y-80518000D02*
X184277000Y-80518000D01*
X175768000Y-83058000D02*
X178308000Y-80518000D01*
D29*
X193468000Y-82042000D02*
X193468000Y-82122000D01*
D28*
X190707000Y-85471000D02*
X198882000Y-85471000D01*
X198882000Y-85471000D02*
X199771000Y-86360000D01*
X199771000Y-86360000D02*
X201930000Y-86360000D01*
X196295000Y-86995000D02*
X197612000Y-86995000D01*
X197612000Y-86995000D02*
X199517000Y-88900000D01*
X199517000Y-88900000D02*
X201930000Y-88900000D01*
X190580000Y-89027000D02*
X194691000Y-89027000D01*
X194691000Y-89027000D02*
X197104000Y-91440000D01*
X197104000Y-91440000D02*
X201930000Y-91440000D01*
X190580000Y-91440000D02*
X195961000Y-91440000D01*
X195961000Y-91440000D02*
X198501000Y-93980000D01*
X198501000Y-93980000D02*
X201930000Y-93980000D01*
X187405000Y-94615000D02*
X188849000Y-94615000D01*
X188849000Y-94615000D02*
X190754000Y-96520000D01*
X190754000Y-96520000D02*
X201930000Y-96520000D01*
D29*
X190453000Y-82042000D02*
X190453000Y-81454000D01*
D28*
X190453000Y-81454000D02*
X192024000Y-79883000D01*
X200533000Y-79883000D02*
X201930000Y-81280000D01*
X192024000Y-79883000D02*
X200533000Y-79883000D01*
X196168000Y-82042000D02*
X197231000Y-82042000D01*
X197231000Y-82042000D02*
X199009000Y-83820000D01*
X199009000Y-83820000D02*
X201930000Y-83820000D01*
X154083000Y-87154000D02*
X156786000Y-87154000D01*
D29*
X154051000Y-87122000D02*
X154083000Y-87154000D01*
G36*
X146619511Y-78854526D02*
X147193000Y-78968600D01*
X175133000Y-78968600D01*
X175706489Y-78854526D01*
X175763848Y-78816200D01*
X180979152Y-78816200D01*
X181036511Y-78854526D01*
X181610000Y-78968600D01*
X205511400Y-78968600D01*
X205511400Y-98831400D01*
X117068600Y-98831400D01*
X117068600Y-98247200D01*
X150346603Y-98247200D01*
X150389397Y-98247200D01*
X150807364Y-98164061D01*
X151161699Y-97927302D01*
X151398458Y-97572967D01*
X151460200Y-97262570D01*
X151460200Y-97332802D01*
X151618449Y-97332802D01*
X151516663Y-97555382D01*
X151641052Y-97855719D01*
X152005646Y-98287220D01*
X152507615Y-98546351D01*
X152730200Y-98445805D01*
X152730200Y-97332800D01*
X153085800Y-97332800D01*
X153085800Y-98445805D01*
X153308385Y-98546351D01*
X153810354Y-98287220D01*
X154173558Y-97857363D01*
X179510470Y-97857363D01*
X179939618Y-98063737D01*
X180162200Y-97961950D01*
X180162200Y-96697800D01*
X180517800Y-96697800D01*
X180162200Y-96697800D01*
X180162200Y-96697800D01*
X180517800Y-96697800D01*
X180517800Y-97961950D01*
X180740382Y-98063737D01*
X181169530Y-97857363D01*
X181559852Y-97449716D01*
X181764462Y-96923729D01*
X181690580Y-96789408D01*
X190484592Y-96789408D01*
X190608198Y-96871998D01*
X190754000Y-96901001D01*
X190754005Y-96901000D01*
X200736803Y-96901000D01*
X200744156Y-96937967D01*
X200980915Y-97292302D01*
X201335250Y-97529061D01*
X201753217Y-97612200D01*
X202106783Y-97612200D01*
X202524750Y-97529061D01*
X202879085Y-97292302D01*
X203115844Y-96937967D01*
X203198983Y-96520000D01*
X203115844Y-96102033D01*
X202879085Y-95747698D01*
X202524750Y-95510939D01*
X202106783Y-95427800D01*
X201753217Y-95427800D01*
X201335250Y-95510939D01*
X200980915Y-95747698D01*
X200744156Y-96102033D01*
X200736803Y-96139000D01*
X190911816Y-96139000D01*
X189118408Y-94345592D01*
X188994803Y-94263002D01*
X188849000Y-94234000D01*
X188388079Y-94234000D01*
X188388079Y-93965000D01*
X188371167Y-93877836D01*
X188320842Y-93801226D01*
X188244871Y-93749944D01*
X188155000Y-93731921D01*
X186655000Y-93731921D01*
X185455000Y-93731921D01*
X185455000Y-93731921D01*
X185086000Y-93731921D01*
X185086000Y-90628815D01*
X186166590Y-91709405D01*
X186166592Y-91709408D01*
X186231833Y-91753000D01*
X186290198Y-91791998D01*
X186436000Y-91821001D01*
X186436005Y-91821000D01*
X186896921Y-91821000D01*
X186896921Y-92090000D01*
X186913833Y-92177164D01*
X186964158Y-92253774D01*
X187040129Y-92305056D01*
X187130000Y-92323079D01*
X188630000Y-92323079D01*
X188717164Y-92306167D01*
X188793774Y-92255842D01*
X188845056Y-92179871D01*
X188863079Y-92090000D01*
X188863079Y-90790000D01*
X188846167Y-90702836D01*
X188795842Y-90626226D01*
X188719871Y-90574944D01*
X188630000Y-90556921D01*
X189830000Y-90556921D01*
X189742836Y-90573833D01*
X189666226Y-90624158D01*
X189614944Y-90700129D01*
X189596921Y-90790000D01*
X189596921Y-92090000D01*
X189613833Y-92177164D01*
X189664158Y-92253774D01*
X189740129Y-92305056D01*
X189830000Y-92323079D01*
X191330000Y-92323079D01*
X191417164Y-92306167D01*
X191493774Y-92255842D01*
X191545056Y-92179871D01*
X191563079Y-92090000D01*
X191563079Y-91821000D01*
X195803184Y-91821000D01*
X198231590Y-94249405D01*
X198231592Y-94249408D01*
X198355198Y-94331998D01*
X198501000Y-94361000D01*
X200736803Y-94361000D01*
X200744156Y-94397967D01*
X200980915Y-94752302D01*
X201335250Y-94989061D01*
X201753217Y-95072200D01*
X202106783Y-95072200D01*
X202524750Y-94989061D01*
X202879085Y-94752302D01*
X203115844Y-94397967D01*
X203198983Y-93980000D01*
X203115844Y-93562033D01*
X202879085Y-93207698D01*
X202524750Y-92970939D01*
X202106783Y-92887800D01*
X201753217Y-92887800D01*
X201335250Y-92970939D01*
X200980915Y-93207698D01*
X200744156Y-93562033D01*
X200736803Y-93599000D01*
X198658815Y-93599000D01*
X196230408Y-91170592D01*
X196106803Y-91088002D01*
X195961000Y-91059000D01*
X191563079Y-91059000D01*
X191563079Y-90790000D01*
X191546167Y-90702836D01*
X191495842Y-90626226D01*
X191419871Y-90574944D01*
X191330000Y-90556921D01*
X189830000Y-90556921D01*
X188630000Y-90556921D01*
X188630000Y-90556921D01*
X187130000Y-90556921D01*
X187042836Y-90573833D01*
X186966226Y-90624158D01*
X186914944Y-90700129D01*
X186896921Y-90790000D01*
X186896921Y-91059000D01*
X186593815Y-91059000D01*
X184942816Y-89408000D01*
X186896921Y-89408000D01*
X186896921Y-89677000D01*
X186913833Y-89764164D01*
X186964158Y-89840774D01*
X187040129Y-89892056D01*
X187130000Y-89910079D01*
X188630000Y-89910079D01*
X188717164Y-89893167D01*
X188793774Y-89842842D01*
X188845056Y-89766871D01*
X188863079Y-89677000D01*
X188863079Y-88377000D01*
X188846167Y-88289836D01*
X188795842Y-88213226D01*
X188719871Y-88161944D01*
X188630000Y-88143921D01*
X189830000Y-88143921D01*
X189742836Y-88160833D01*
X189666226Y-88211158D01*
X189614944Y-88287129D01*
X189596921Y-88377000D01*
X189596921Y-89677000D01*
X189613833Y-89764164D01*
X189664158Y-89840774D01*
X189740129Y-89892056D01*
X189830000Y-89910079D01*
X191330000Y-89910079D01*
X191417164Y-89893167D01*
X191493774Y-89842842D01*
X191545056Y-89766871D01*
X191563079Y-89677000D01*
X191563079Y-89408000D01*
X194533184Y-89408000D01*
X196834590Y-91709405D01*
X196834592Y-91709408D01*
X196896614Y-91750849D01*
X196958197Y-91791998D01*
X197104000Y-91821000D01*
X200736803Y-91821000D01*
X200744156Y-91857967D01*
X200980915Y-92212302D01*
X201335250Y-92449061D01*
X201753217Y-92532200D01*
X202106783Y-92532200D01*
X202524750Y-92449061D01*
X202879085Y-92212302D01*
X203115844Y-91857967D01*
X203198983Y-91440000D01*
X203115844Y-91022033D01*
X202879085Y-90667698D01*
X202524750Y-90430939D01*
X202106783Y-90347800D01*
X201753217Y-90347800D01*
X201335250Y-90430939D01*
X200980915Y-90667698D01*
X200744156Y-91022033D01*
X200736803Y-91059000D01*
X197261815Y-91059000D01*
X194960408Y-88757592D01*
X194836803Y-88675002D01*
X194691000Y-88646000D01*
X191563079Y-88646000D01*
X191563079Y-88377000D01*
X191546167Y-88289836D01*
X191495842Y-88213226D01*
X191419871Y-88161944D01*
X191330000Y-88143921D01*
X189830000Y-88143921D01*
X188630000Y-88143921D01*
X188630000Y-88143921D01*
X187928870Y-88143921D01*
X187880000Y-88134200D01*
X187831130Y-88143921D01*
X187130000Y-88143921D01*
X187042836Y-88160833D01*
X186966226Y-88211158D01*
X186914944Y-88287129D01*
X186896921Y-88377000D01*
X186896921Y-88646000D01*
X185069815Y-88646000D01*
X184531000Y-88107184D01*
X184531000Y-86644816D01*
X185150590Y-87264405D01*
X185150592Y-87264408D01*
X185260022Y-87337526D01*
X185274198Y-87346998D01*
X185420000Y-87376001D01*
X185420005Y-87376000D01*
X192611921Y-87376000D01*
X192611921Y-87645000D01*
X192628833Y-87732164D01*
X192679158Y-87808774D01*
X192755129Y-87860056D01*
X192845000Y-87878079D01*
X194345000Y-87878079D01*
X194432164Y-87861167D01*
X194508774Y-87810842D01*
X194560056Y-87734871D01*
X194578079Y-87645000D01*
X194578079Y-86345000D01*
X194561167Y-86257836D01*
X194510842Y-86181226D01*
X194434871Y-86129944D01*
X194345000Y-86111921D01*
X195545000Y-86111921D01*
X195457836Y-86128833D01*
X195381226Y-86179158D01*
X195329944Y-86255129D01*
X195311921Y-86345000D01*
X195311921Y-87645000D01*
X195328833Y-87732164D01*
X195379158Y-87808774D01*
X195455129Y-87860056D01*
X195545000Y-87878079D01*
X197045000Y-87878079D01*
X197132164Y-87861167D01*
X197208774Y-87810842D01*
X197260056Y-87734871D01*
X197278079Y-87645000D01*
X197278079Y-87376000D01*
X197454184Y-87376000D01*
X199247592Y-89169408D01*
X199371198Y-89251998D01*
X199517000Y-89281001D01*
X199517005Y-89281000D01*
X200736803Y-89281000D01*
X200744156Y-89317967D01*
X200980915Y-89672302D01*
X201335250Y-89909061D01*
X201753217Y-89992200D01*
X202106783Y-89992200D01*
X202524750Y-89909061D01*
X202879085Y-89672302D01*
X203115844Y-89317967D01*
X203198983Y-88900000D01*
X203115844Y-88482033D01*
X202879085Y-88127698D01*
X202524750Y-87890939D01*
X202106783Y-87807800D01*
X201753217Y-87807800D01*
X201335250Y-87890939D01*
X200980915Y-88127698D01*
X200744156Y-88482033D01*
X200736803Y-88519000D01*
X199674816Y-88519000D01*
X197881408Y-86725592D01*
X197757803Y-86643002D01*
X197612000Y-86614000D01*
X197278079Y-86614000D01*
X197278079Y-86345000D01*
X197261167Y-86257836D01*
X197210842Y-86181226D01*
X197134871Y-86129944D01*
X197045000Y-86111921D01*
X195545000Y-86111921D01*
X194345000Y-86111921D01*
X194345000Y-86111921D01*
X192845000Y-86111921D01*
X192757836Y-86128833D01*
X192681226Y-86179158D01*
X192629944Y-86255129D01*
X192611921Y-86345000D01*
X192611921Y-86614000D01*
X185577815Y-86614000D01*
X185039000Y-86075184D01*
X185039000Y-85120816D01*
X185658590Y-85740405D01*
X185658592Y-85740408D01*
X185734555Y-85791164D01*
X185782198Y-85822998D01*
X185928000Y-85852001D01*
X185928005Y-85852000D01*
X187023921Y-85852000D01*
X187023921Y-86121000D01*
X187040833Y-86208164D01*
X187091158Y-86284774D01*
X187167129Y-86336056D01*
X187257000Y-86354079D01*
X188757000Y-86354079D01*
X188844164Y-86337167D01*
X188920774Y-86286842D01*
X188972056Y-86210871D01*
X188990079Y-86121000D01*
X188990079Y-84821000D01*
X188973167Y-84733836D01*
X188922842Y-84657226D01*
X188846871Y-84605944D01*
X188757000Y-84587921D01*
X189957000Y-84587921D01*
X189869836Y-84604833D01*
X189793226Y-84655158D01*
X189741944Y-84731129D01*
X189723921Y-84821000D01*
X189723921Y-86121000D01*
X189740833Y-86208164D01*
X189791158Y-86284774D01*
X189867129Y-86336056D01*
X189957000Y-86354079D01*
X191457000Y-86354079D01*
X191544164Y-86337167D01*
X191620774Y-86286842D01*
X191672056Y-86210871D01*
X191690079Y-86121000D01*
X191690079Y-85852000D01*
X198724184Y-85852000D01*
X199501592Y-86629408D01*
X199625198Y-86711998D01*
X199771000Y-86741001D01*
X199771005Y-86741000D01*
X200736803Y-86741000D01*
X200744156Y-86777967D01*
X200980915Y-87132302D01*
X201335250Y-87369061D01*
X201753217Y-87452200D01*
X202106783Y-87452200D01*
X202524750Y-87369061D01*
X202879085Y-87132302D01*
X203115844Y-86777967D01*
X203198983Y-86360000D01*
X203115844Y-85942033D01*
X202879085Y-85587698D01*
X202524750Y-85350939D01*
X202106783Y-85267800D01*
X201753217Y-85267800D01*
X201335250Y-85350939D01*
X200980915Y-85587698D01*
X200744156Y-85942033D01*
X200736803Y-85979000D01*
X199928816Y-85979000D01*
X199151408Y-85201592D01*
X199027803Y-85119002D01*
X198882000Y-85090000D01*
X191690079Y-85090000D01*
X191690079Y-84821000D01*
X191673167Y-84733836D01*
X191622842Y-84657226D01*
X191546871Y-84605944D01*
X191457000Y-84587921D01*
X189957000Y-84587921D01*
X188757000Y-84587921D01*
X188757000Y-84587921D01*
X187257000Y-84587921D01*
X187169836Y-84604833D01*
X187093226Y-84655158D01*
X187041944Y-84731129D01*
X187023921Y-84821000D01*
X187023921Y-85090000D01*
X186085815Y-85090000D01*
X185547000Y-84551184D01*
X185547000Y-83596816D01*
X185912590Y-83962405D01*
X185912592Y-83962408D01*
X186036198Y-84044998D01*
X186182000Y-84074000D01*
X191817000Y-84074000D01*
X191962803Y-84044998D01*
X192086408Y-83962408D01*
X193123736Y-82925079D01*
X194218000Y-82925079D01*
X194305164Y-82908167D01*
X194381774Y-82857842D01*
X194433056Y-82781871D01*
X194451079Y-82692000D01*
X194451079Y-81392000D01*
X194434167Y-81304836D01*
X194383842Y-81228226D01*
X194307871Y-81176944D01*
X194218000Y-81158921D01*
X195418000Y-81158921D01*
X195330836Y-81175833D01*
X195254226Y-81226158D01*
X195202944Y-81302129D01*
X195184921Y-81392000D01*
X195184921Y-82692000D01*
X195201833Y-82779164D01*
X195252158Y-82855774D01*
X195328129Y-82907056D01*
X195418000Y-82925079D01*
X196918000Y-82925079D01*
X197005164Y-82908167D01*
X197081774Y-82857842D01*
X197133056Y-82781871D01*
X197151079Y-82692000D01*
X197151079Y-82500895D01*
X198739590Y-84089405D01*
X198739592Y-84089408D01*
X198863198Y-84171998D01*
X199009000Y-84201001D01*
X199009005Y-84201000D01*
X200736803Y-84201000D01*
X200744156Y-84237967D01*
X200980915Y-84592302D01*
X201335250Y-84829061D01*
X201753217Y-84912200D01*
X202106783Y-84912200D01*
X202524750Y-84829061D01*
X202879085Y-84592302D01*
X203115844Y-84237967D01*
X203198983Y-83820000D01*
X203115844Y-83402033D01*
X202879085Y-83047698D01*
X202524750Y-82810939D01*
X202106783Y-82727800D01*
X201753217Y-82727800D01*
X201335250Y-82810939D01*
X200980915Y-83047698D01*
X200744156Y-83402033D01*
X200736803Y-83439000D01*
X199166815Y-83439000D01*
X197500408Y-81772592D01*
X197376803Y-81690002D01*
X197231000Y-81661000D01*
X197151079Y-81661000D01*
X197151079Y-81392000D01*
X197134167Y-81304836D01*
X197083842Y-81228226D01*
X197007871Y-81176944D01*
X196918000Y-81158921D01*
X195418000Y-81158921D01*
X194218000Y-81158921D01*
X194218000Y-81158921D01*
X192718000Y-81158921D01*
X192630836Y-81175833D01*
X192554226Y-81226158D01*
X192502944Y-81302129D01*
X192484921Y-81392000D01*
X192484921Y-82486264D01*
X191659184Y-83312000D01*
X186339815Y-83312000D01*
X186055000Y-83027184D01*
X186055000Y-81915000D01*
X186029738Y-81788000D01*
X186025998Y-81769197D01*
X185973081Y-81690002D01*
X185943408Y-81645592D01*
X185943405Y-81645590D01*
X184688816Y-80391000D01*
X186024184Y-80391000D01*
X186851367Y-81218183D01*
X186839226Y-81226158D01*
X186787944Y-81302129D01*
X186769921Y-81392000D01*
X186769921Y-82692000D01*
X186786833Y-82779164D01*
X186837158Y-82855774D01*
X186913129Y-82907056D01*
X187003000Y-82925079D01*
X188503000Y-82925079D01*
X188590164Y-82908167D01*
X188666774Y-82857842D01*
X188718056Y-82781871D01*
X188736079Y-82692000D01*
X188736079Y-81392000D01*
X188719167Y-81304836D01*
X188668842Y-81228226D01*
X188592871Y-81176944D01*
X188503000Y-81158921D01*
X187869736Y-81158921D01*
X186451408Y-79740592D01*
X186327803Y-79658002D01*
X186182000Y-79629000D01*
X176149005Y-79629000D01*
X176149000Y-79628999D01*
X176003198Y-79658002D01*
X175879592Y-79740592D01*
X175879590Y-79740595D01*
X174228592Y-81391592D01*
X174146002Y-81515197D01*
X174146002Y-81515198D01*
X174117000Y-81661000D01*
X174117000Y-82931637D01*
X174110836Y-82932833D01*
X174034226Y-82983158D01*
X173982944Y-83059129D01*
X173964921Y-83149000D01*
X173964921Y-84749000D01*
X173981833Y-84836164D01*
X174032158Y-84912774D01*
X174108129Y-84964056D01*
X174198000Y-84982079D01*
X174798000Y-84982079D01*
X174885164Y-84965167D01*
X174961774Y-84914842D01*
X175013056Y-84838871D01*
X175031079Y-84749000D01*
X175031079Y-83149000D01*
X175014167Y-83061836D01*
X174963842Y-82985226D01*
X174887871Y-82933944D01*
X174879000Y-82932165D01*
X174879000Y-81818816D01*
X176306815Y-80391000D01*
X177896185Y-80391000D01*
X175498592Y-82788592D01*
X175416002Y-82912197D01*
X175413144Y-82926564D01*
X175380836Y-82932833D01*
X175304226Y-82983158D01*
X175252944Y-83059129D01*
X175234921Y-83149000D01*
X175234921Y-84749000D01*
X175251833Y-84836164D01*
X175302158Y-84912774D01*
X175378129Y-84964056D01*
X175468000Y-84982079D01*
X176068000Y-84982079D01*
X176155164Y-84965167D01*
X176231774Y-84914842D01*
X176283056Y-84838871D01*
X176301079Y-84749000D01*
X176301079Y-83149000D01*
X176287224Y-83077592D01*
X178465815Y-80899000D01*
X178658184Y-80899000D01*
X176768592Y-82788592D01*
X176686002Y-82912197D01*
X176683144Y-82926564D01*
X176650836Y-82932833D01*
X176574226Y-82983158D01*
X176522944Y-83059129D01*
X176504921Y-83149000D01*
X176504921Y-84749000D01*
X176521833Y-84836164D01*
X176572158Y-84912774D01*
X176648129Y-84964056D01*
X176738000Y-84982079D01*
X177338000Y-84982079D01*
X177425164Y-84965167D01*
X177501774Y-84914842D01*
X177553056Y-84838871D01*
X177571079Y-84749000D01*
X177571079Y-83149000D01*
X177557224Y-83077592D01*
X179227816Y-81407000D01*
X179293185Y-81407000D01*
X178038592Y-82661592D01*
X177956002Y-82785197D01*
X177944144Y-82844810D01*
X177927000Y-82931000D01*
X177927000Y-82931637D01*
X177920836Y-82932833D01*
X177844226Y-82983158D01*
X177792944Y-83059129D01*
X177774921Y-83149000D01*
X177774921Y-84749000D01*
X177791833Y-84836164D01*
X177842158Y-84912774D01*
X177918129Y-84964056D01*
X178008000Y-84982079D01*
X178608000Y-84982079D01*
X178695164Y-84965167D01*
X178771774Y-84914842D01*
X178823056Y-84838871D01*
X178841079Y-84749000D01*
X178841079Y-83149000D01*
X178824167Y-83061836D01*
X178781275Y-82996541D01*
X179862815Y-81915000D01*
X180563185Y-81915000D01*
X179562263Y-82915921D01*
X179278000Y-82915921D01*
X179190836Y-82932833D01*
X179114226Y-82983158D01*
X179062944Y-83059129D01*
X179044921Y-83149000D01*
X179044921Y-84749000D01*
X179061833Y-84836164D01*
X179112158Y-84912774D01*
X179188129Y-84964056D01*
X179278000Y-84982079D01*
X179878000Y-84982079D01*
X179965164Y-84965167D01*
X180041774Y-84914842D01*
X180093056Y-84838871D01*
X180111079Y-84749000D01*
X180111079Y-83444737D01*
X180314921Y-83240895D01*
X180314921Y-84749000D01*
X180331833Y-84836164D01*
X180382158Y-84912774D01*
X180458129Y-84964056D01*
X180548000Y-84982079D01*
X181148000Y-84982079D01*
X181235164Y-84965167D01*
X181311774Y-84914842D01*
X181363056Y-84838871D01*
X181381079Y-84749000D01*
X181381079Y-83149000D01*
X181364167Y-83061836D01*
X181321275Y-82996541D01*
X181361413Y-82956402D01*
X181694957Y-82956402D01*
X181654226Y-82983158D01*
X181602944Y-83059129D01*
X181584921Y-83149000D01*
X181584921Y-84749000D01*
X181601833Y-84836164D01*
X181652158Y-84912774D01*
X181728129Y-84964056D01*
X181818000Y-84982079D01*
X181979263Y-84982079D01*
X182753000Y-85755816D01*
X182753000Y-88900000D01*
X182782002Y-89045803D01*
X182864592Y-89169408D01*
X184324000Y-90628815D01*
X184324000Y-93731921D01*
X183955000Y-93731921D01*
X183867836Y-93748833D01*
X183791226Y-93799158D01*
X183739944Y-93875129D01*
X183721921Y-93965000D01*
X183721921Y-95265000D01*
X183738833Y-95352164D01*
X183789158Y-95428774D01*
X183865129Y-95480056D01*
X183955000Y-95498079D01*
X185455000Y-95498079D01*
X185542164Y-95481167D01*
X185618774Y-95430842D01*
X185670056Y-95354871D01*
X185688079Y-95265000D01*
X185688079Y-93965000D01*
X185671167Y-93877836D01*
X185620842Y-93801226D01*
X185544871Y-93749944D01*
X185455000Y-93731921D01*
X186655000Y-93731921D01*
X185455000Y-93731921D01*
X185455000Y-93731921D01*
X186655000Y-93731921D01*
X186567836Y-93748833D01*
X186491226Y-93799158D01*
X186439944Y-93875129D01*
X186421921Y-93965000D01*
X186421921Y-95265000D01*
X186438833Y-95352164D01*
X186489158Y-95428774D01*
X186565129Y-95480056D01*
X186655000Y-95498079D01*
X188155000Y-95498079D01*
X188242164Y-95481167D01*
X188318774Y-95430842D01*
X188370056Y-95354871D01*
X188388079Y-95265000D01*
X188388079Y-94996000D01*
X188691184Y-94996000D01*
X190484592Y-96789408D01*
X181690580Y-96789408D01*
X181640191Y-96697800D01*
X180517800Y-96697800D01*
X180162200Y-96697800D01*
X180162200Y-96697800D01*
X179039809Y-96697800D01*
X178891997Y-96697800D01*
X178892200Y-96696783D01*
X178892200Y-96343217D01*
X178809061Y-95925250D01*
X178572302Y-95570915D01*
X178217967Y-95334156D01*
X177800000Y-95251017D01*
X177382033Y-95334156D01*
X177027698Y-95570915D01*
X176790939Y-95925250D01*
X176707800Y-96343217D01*
X176707800Y-96696783D01*
X176790939Y-97114750D01*
X177027698Y-97469085D01*
X177382033Y-97705844D01*
X177800000Y-97788983D01*
X178217967Y-97705844D01*
X178572302Y-97469085D01*
X178809061Y-97114750D01*
X178891997Y-96697800D01*
X179039809Y-96697800D01*
X178891997Y-96697800D01*
X178891997Y-96697800D01*
X179039809Y-96697800D01*
X178915538Y-96923729D01*
X179120148Y-97449716D01*
X179510470Y-97857363D01*
X154173558Y-97857363D01*
X154174948Y-97855719D01*
X154202587Y-97788983D01*
X172720000Y-97788983D01*
X173137967Y-97705844D01*
X173492302Y-97469085D01*
X173729061Y-97114750D01*
X173812200Y-96696783D01*
X173812200Y-96343217D01*
X173729061Y-95925250D01*
X173492302Y-95570915D01*
X173137967Y-95334156D01*
X174842033Y-95334156D01*
X173137967Y-95334156D01*
X173137967Y-95334156D01*
X174842033Y-95334156D01*
X174487698Y-95570915D01*
X174250939Y-95925250D01*
X174167800Y-96343217D01*
X174167800Y-96696783D01*
X174250939Y-97114750D01*
X174487698Y-97469085D01*
X174842033Y-97705844D01*
X175260000Y-97788983D01*
X175677967Y-97705844D01*
X176032302Y-97469085D01*
X176269061Y-97114750D01*
X176352200Y-96696783D01*
X176352200Y-96343217D01*
X176269061Y-95925250D01*
X176032302Y-95570915D01*
X175677967Y-95334156D01*
X175260000Y-95251017D01*
X174842033Y-95334156D01*
X173137967Y-95334156D01*
X173137967Y-95334156D01*
X172720000Y-95251017D01*
X172302033Y-95334156D01*
X171200450Y-95334156D01*
X171133471Y-95288944D01*
X171043600Y-95270921D01*
X169316400Y-95270921D01*
X169229236Y-95287833D01*
X169152626Y-95338158D01*
X169101344Y-95414129D01*
X169083321Y-95504000D01*
X169083321Y-97536000D01*
X169100233Y-97623164D01*
X169150558Y-97699774D01*
X169226529Y-97751056D01*
X169316400Y-97769079D01*
X171043600Y-97769079D01*
X171130764Y-97752167D01*
X171207374Y-97701842D01*
X171258656Y-97625871D01*
X171276679Y-97536000D01*
X171276679Y-95504000D01*
X171259767Y-95416836D01*
X171209442Y-95340226D01*
X171200450Y-95334156D01*
X172302033Y-95334156D01*
X171200450Y-95334156D01*
X171200450Y-95334156D01*
X172302033Y-95334156D01*
X171947698Y-95570915D01*
X171710939Y-95925250D01*
X171627800Y-96343217D01*
X171627800Y-96696783D01*
X171710939Y-97114750D01*
X171947698Y-97469085D01*
X172302033Y-97705844D01*
X172720000Y-97788983D01*
X154202587Y-97788983D01*
X154299337Y-97555382D01*
X154197550Y-97332800D01*
X153085800Y-97332800D01*
X152730200Y-97332800D01*
X152730200Y-97332800D01*
X152710200Y-97332800D01*
X152710200Y-96977200D01*
X152730200Y-96977200D01*
X152730200Y-96957200D01*
X153085800Y-96957200D01*
X153085800Y-96977200D01*
X154197550Y-96977200D01*
X154299337Y-96754618D01*
X154174948Y-96454281D01*
X154015861Y-96266000D01*
X164385000Y-96266000D01*
X164530803Y-96236998D01*
X164654408Y-96154408D01*
X165626179Y-95182637D01*
X179510470Y-95182637D01*
X179120148Y-95590284D01*
X178915538Y-96116271D01*
X179039809Y-96342200D01*
X180162200Y-96342200D01*
X180162200Y-95078050D01*
X180517800Y-95078050D01*
X180162200Y-95078050D01*
X180162200Y-95078050D01*
X180517800Y-95078050D01*
X180517800Y-96342200D01*
X181640191Y-96342200D01*
X181764462Y-96116271D01*
X181559852Y-95590284D01*
X181169530Y-95182637D01*
X180740382Y-94976263D01*
X180517800Y-95078050D01*
X180162200Y-95078050D01*
X180162200Y-95078050D01*
X179939618Y-94976263D01*
X179510470Y-95182637D01*
X165626179Y-95182637D01*
X167215737Y-93593079D01*
X168310000Y-93593079D01*
X168397164Y-93576167D01*
X168473774Y-93525842D01*
X168525056Y-93449871D01*
X168543079Y-93360000D01*
X168543079Y-92060000D01*
X168526167Y-91972836D01*
X168475842Y-91896226D01*
X168399871Y-91844944D01*
X168310000Y-91826921D01*
X169510000Y-91826921D01*
X169422836Y-91843833D01*
X169346226Y-91894158D01*
X169294944Y-91970129D01*
X169276921Y-92060000D01*
X169276921Y-93360000D01*
X169293833Y-93447164D01*
X169344158Y-93523774D01*
X169420129Y-93575056D01*
X169510000Y-93593079D01*
X171010000Y-93593079D01*
X171097164Y-93576167D01*
X171173774Y-93525842D01*
X171225056Y-93449871D01*
X171232573Y-93412389D01*
X171513529Y-93693345D01*
X171513401Y-93839180D01*
X171600224Y-94049306D01*
X171760849Y-94210211D01*
X171970823Y-94297400D01*
X172198180Y-94297599D01*
X172408306Y-94210776D01*
X172569211Y-94050151D01*
X172656400Y-93840177D01*
X172656599Y-93612820D01*
X172569776Y-93402694D01*
X172409151Y-93241789D01*
X172199177Y-93154600D01*
X172052287Y-93154471D01*
X171338408Y-92440592D01*
X171243079Y-92376895D01*
X171243079Y-92060000D01*
X171226167Y-91972836D01*
X171175842Y-91896226D01*
X171099871Y-91844944D01*
X171010000Y-91826921D01*
X169510000Y-91826921D01*
X168310000Y-91826921D01*
X168310000Y-91826921D01*
X166810000Y-91826921D01*
X166722836Y-91843833D01*
X166646226Y-91894158D01*
X166594944Y-91970129D01*
X166576921Y-92060000D01*
X166576921Y-92329000D01*
X166294219Y-92329000D01*
X166301056Y-92318871D01*
X166319079Y-92229000D01*
X166319079Y-91679000D01*
X166302167Y-91591836D01*
X166277328Y-91554023D01*
X166290169Y-91535000D01*
X171387184Y-91535000D01*
X171577000Y-91724816D01*
X171577000Y-92202000D01*
X171606002Y-92347803D01*
X171688592Y-92471408D01*
X172323590Y-93106405D01*
X172323592Y-93106408D01*
X172414575Y-93167200D01*
X172447198Y-93188998D01*
X172593000Y-93218001D01*
X172593005Y-93218000D01*
X179959000Y-93218000D01*
X180104803Y-93188998D01*
X180228408Y-93106408D01*
X181117408Y-92217408D01*
X181199998Y-92093802D01*
X181229001Y-91948000D01*
X181229000Y-91947995D01*
X181229000Y-91566363D01*
X181235164Y-91565167D01*
X181266641Y-91544490D01*
X181322739Y-91679922D01*
X181487077Y-91844261D01*
X181701795Y-91933200D01*
X181821950Y-91933200D01*
X181968000Y-91787150D01*
X181968000Y-90726800D01*
X182268000Y-90726800D01*
X182268000Y-91787150D01*
X182414050Y-91933200D01*
X182534205Y-91933200D01*
X182748923Y-91844261D01*
X182913261Y-91679922D01*
X183002200Y-91465204D01*
X183002200Y-90872850D01*
X182856150Y-90726800D01*
X182268000Y-90726800D01*
X181968000Y-90726800D01*
X181968000Y-90726800D01*
X181920200Y-90726800D01*
X181920200Y-90371200D01*
X181968000Y-90371200D01*
X181968000Y-89310850D01*
X181821950Y-89164800D01*
X182414050Y-89164800D01*
X182268000Y-89310850D01*
X182268000Y-90371200D01*
X182856150Y-90371200D01*
X183002200Y-90225150D01*
X183002200Y-89632796D01*
X182913261Y-89418078D01*
X182748923Y-89253739D01*
X182534205Y-89164800D01*
X182414050Y-89164800D01*
X181821950Y-89164800D01*
X181821950Y-89164800D01*
X181701795Y-89164800D01*
X181487077Y-89253739D01*
X181322739Y-89418078D01*
X181266688Y-89553396D01*
X181237871Y-89533944D01*
X181148000Y-89515921D01*
X180548000Y-89515921D01*
X180460836Y-89532833D01*
X180384226Y-89583158D01*
X180332944Y-89659129D01*
X180314921Y-89749000D01*
X180314921Y-91349000D01*
X180331833Y-91436164D01*
X180382158Y-91512774D01*
X180458129Y-91564056D01*
X180467000Y-91565835D01*
X180467000Y-91790184D01*
X179801184Y-92456000D01*
X175433263Y-92456000D01*
X175490211Y-92399151D01*
X175577400Y-92189177D01*
X175577529Y-92042287D01*
X176037408Y-91582407D01*
X176037627Y-91582079D01*
X176068000Y-91582079D01*
X176155164Y-91565167D01*
X176231774Y-91514842D01*
X176283056Y-91438871D01*
X176301079Y-91349000D01*
X176301079Y-90930000D01*
X176504921Y-90930000D01*
X176504921Y-91349000D01*
X176521833Y-91436164D01*
X176572158Y-91512774D01*
X176648129Y-91564056D01*
X176738000Y-91582079D01*
X177338000Y-91582079D01*
X177425164Y-91565167D01*
X177455990Y-91544917D01*
X177512739Y-91681922D01*
X177677077Y-91846261D01*
X177891795Y-91935200D01*
X178011950Y-91935200D01*
X178158000Y-91789150D01*
X178158000Y-90728800D01*
X178110200Y-90728800D01*
X178110200Y-90373200D01*
X178158000Y-90373200D01*
X178158000Y-89312850D01*
X178011950Y-89166800D01*
X177891795Y-89166800D01*
X177677077Y-89255739D01*
X177512739Y-89420078D01*
X177457336Y-89553833D01*
X177427871Y-89533944D01*
X177338000Y-89515921D01*
X176738000Y-89515921D01*
X176650836Y-89532833D01*
X176574226Y-89583158D01*
X176522944Y-89659129D01*
X176504921Y-89749000D01*
X176504921Y-90168000D01*
X176301079Y-90168000D01*
X176301079Y-89749000D01*
X176284167Y-89661836D01*
X176233842Y-89585226D01*
X176157871Y-89533944D01*
X176068000Y-89515921D01*
X175468000Y-89515921D01*
X175380836Y-89532833D01*
X175304226Y-89583158D01*
X175252944Y-89659129D01*
X175234921Y-89749000D01*
X175234921Y-91307264D01*
X175038656Y-91503529D01*
X174969452Y-91503468D01*
X175013056Y-91438871D01*
X175031079Y-91349000D01*
X175031079Y-89749000D01*
X175014167Y-89661836D01*
X174963842Y-89585226D01*
X174887871Y-89533944D01*
X174879000Y-89532165D01*
X174879000Y-89154000D01*
X174853738Y-89027000D01*
X174849998Y-89008197D01*
X174777703Y-88900000D01*
X178658184Y-88900000D01*
X179197000Y-89438815D01*
X179197000Y-89581637D01*
X179190836Y-89582833D01*
X179174988Y-89593243D01*
X179103261Y-89420078D01*
X178938923Y-89255739D01*
X178724205Y-89166800D01*
X178604050Y-89166800D01*
X178458000Y-89312850D01*
X178458000Y-90373200D01*
X178505800Y-90373200D01*
X178505800Y-90728800D01*
X178458000Y-90728800D01*
X178458000Y-91789150D01*
X178604050Y-91935200D01*
X178724205Y-91935200D01*
X178938923Y-91846261D01*
X179103261Y-91681922D01*
X179176144Y-91505966D01*
X179188129Y-91514056D01*
X179278000Y-91532079D01*
X179878000Y-91532079D01*
X179965164Y-91515167D01*
X180041774Y-91464842D01*
X180093056Y-91388871D01*
X180111079Y-91299000D01*
X180111079Y-89799000D01*
X180094167Y-89711836D01*
X180043842Y-89635226D01*
X179967871Y-89583944D01*
X179959000Y-89582165D01*
X179959000Y-89281005D01*
X179959001Y-89281000D01*
X179929998Y-89135198D01*
X179916653Y-89115226D01*
X179847408Y-89011592D01*
X179847405Y-89011590D01*
X179085408Y-88249592D01*
X178961803Y-88167002D01*
X178816000Y-88138000D01*
X171577000Y-88138000D01*
X171431197Y-88167002D01*
X171307592Y-88249592D01*
X171184184Y-88373000D01*
X166289794Y-88373000D01*
X166277328Y-88354023D01*
X166301056Y-88318871D01*
X166319079Y-88229000D01*
X166319079Y-87679000D01*
X166302167Y-87591836D01*
X166277328Y-87554023D01*
X166290169Y-87535000D01*
X166953000Y-87535000D01*
X167098803Y-87505998D01*
X167182492Y-87450079D01*
X168265000Y-87450079D01*
X168352164Y-87433167D01*
X168428774Y-87382842D01*
X168480056Y-87306871D01*
X168498079Y-87217000D01*
X168498079Y-86848000D01*
X168605184Y-86848000D01*
X168846529Y-87089345D01*
X168846401Y-87235180D01*
X168933224Y-87445306D01*
X169093849Y-87606211D01*
X169303823Y-87693400D01*
X169531180Y-87693599D01*
X169741306Y-87606776D01*
X169902211Y-87446151D01*
X169989400Y-87236177D01*
X169989599Y-87008820D01*
X169902776Y-86798694D01*
X169742151Y-86637789D01*
X169532177Y-86550600D01*
X169385287Y-86550471D01*
X169032408Y-86197592D01*
X168908803Y-86115002D01*
X168763000Y-86086000D01*
X168498079Y-86086000D01*
X168498079Y-85717000D01*
X168481167Y-85629836D01*
X168430842Y-85553226D01*
X168354871Y-85501944D01*
X168265000Y-85483921D01*
X167015000Y-85483921D01*
X164344079Y-85483921D01*
X164344079Y-84144800D01*
X166576850Y-84144800D01*
X166430800Y-84290850D01*
X166430800Y-84833205D01*
X166519739Y-85047923D01*
X166684078Y-85212261D01*
X166898796Y-85301200D01*
X167316150Y-85301200D01*
X167462200Y-85155150D01*
X167462200Y-84144800D01*
X167817800Y-84144800D01*
X167462200Y-84144800D01*
X167462200Y-84144800D01*
X167817800Y-84144800D01*
X167817800Y-85155150D01*
X167963850Y-85301200D01*
X168381204Y-85301200D01*
X168595922Y-85212261D01*
X168760261Y-85047923D01*
X168849200Y-84833205D01*
X168849200Y-84290850D01*
X168703150Y-84144800D01*
X167817800Y-84144800D01*
X167462200Y-84144800D01*
X167462200Y-84144800D01*
X166576850Y-84144800D01*
X164344079Y-84144800D01*
X164344079Y-84104000D01*
X164327167Y-84016836D01*
X164276842Y-83940226D01*
X164200871Y-83888944D01*
X164111000Y-83870921D01*
X163561000Y-83870921D01*
X163473836Y-83887833D01*
X163436023Y-83912672D01*
X163400871Y-83888944D01*
X163311000Y-83870921D01*
X162761000Y-83870921D01*
X162673836Y-83887833D01*
X162636023Y-83912672D01*
X162600871Y-83888944D01*
X162511000Y-83870921D01*
X161961000Y-83870921D01*
X161873836Y-83887833D01*
X161836023Y-83912672D01*
X161800871Y-83888944D01*
X161711000Y-83870921D01*
X161161000Y-83870921D01*
X161073836Y-83887833D01*
X161036023Y-83912672D01*
X161000871Y-83888944D01*
X160911000Y-83870921D01*
X160361000Y-83870921D01*
X160273836Y-83887833D01*
X160236023Y-83912672D01*
X160200871Y-83888944D01*
X160111000Y-83870921D01*
X159561000Y-83870921D01*
X159473836Y-83887833D01*
X159436023Y-83912672D01*
X159400871Y-83888944D01*
X159311000Y-83870921D01*
X158761000Y-83870921D01*
X158673836Y-83887833D01*
X158636023Y-83912672D01*
X158600871Y-83888944D01*
X158511000Y-83870921D01*
X157961000Y-83870921D01*
X157873836Y-83887833D01*
X157797226Y-83938158D01*
X157745944Y-84014129D01*
X157727921Y-84104000D01*
X157727921Y-85704000D01*
X157744833Y-85791164D01*
X157795158Y-85867774D01*
X157855000Y-85908169D01*
X157855000Y-85973000D01*
X157860232Y-85999303D01*
X157799082Y-85987139D01*
X157751842Y-85915226D01*
X157675871Y-85863944D01*
X157586000Y-85845921D01*
X155986000Y-85845921D01*
X155898836Y-85862833D01*
X155822226Y-85913158D01*
X155770944Y-85989129D01*
X155752921Y-86079000D01*
X155752921Y-86629000D01*
X155769833Y-86716164D01*
X155794672Y-86753977D01*
X155781831Y-86773000D01*
X154510127Y-86773000D01*
X154375151Y-86637789D01*
X154165177Y-86550600D01*
X153937820Y-86550401D01*
X153727694Y-86637224D01*
X153566789Y-86797849D01*
X153479600Y-87007823D01*
X153479401Y-87235180D01*
X153566224Y-87445306D01*
X153726849Y-87606211D01*
X153936823Y-87693400D01*
X154164180Y-87693599D01*
X154216813Y-87671851D01*
X154201789Y-87686849D01*
X154114600Y-87896823D01*
X154114401Y-88124180D01*
X154201224Y-88334306D01*
X154361849Y-88495211D01*
X154571823Y-88582400D01*
X154799180Y-88582599D01*
X155009306Y-88495776D01*
X155170211Y-88335151D01*
X155170274Y-88335000D01*
X155782206Y-88335000D01*
X155794672Y-88353977D01*
X155770944Y-88389129D01*
X155752921Y-88479000D01*
X155752921Y-89029000D01*
X155769833Y-89116164D01*
X155794672Y-89153977D01*
X155770944Y-89189129D01*
X155752921Y-89279000D01*
X155752921Y-89543211D01*
X155655077Y-89583739D01*
X155490739Y-89748078D01*
X155439300Y-89872263D01*
X155418998Y-89770198D01*
X155336408Y-89646592D01*
X155336405Y-89646590D01*
X149242408Y-83552592D01*
X149118803Y-83470002D01*
X148973000Y-83441000D01*
X147980079Y-83441000D01*
X147980079Y-83022000D01*
X147963167Y-82934836D01*
X147912842Y-82858226D01*
X147836871Y-82806944D01*
X147747000Y-82788921D01*
X147147000Y-82788921D01*
X147059836Y-82805833D01*
X146983226Y-82856158D01*
X146931944Y-82932129D01*
X146913921Y-83022000D01*
X146913921Y-84622000D01*
X146930833Y-84709164D01*
X146981158Y-84785774D01*
X147057129Y-84837056D01*
X147147000Y-84855079D01*
X147747000Y-84855079D01*
X147834164Y-84838167D01*
X147910774Y-84787842D01*
X147962056Y-84711871D01*
X147980079Y-84622000D01*
X147980079Y-84203000D01*
X148815184Y-84203000D01*
X154686000Y-90073815D01*
X154686000Y-90774184D01*
X149875408Y-85963592D01*
X149751803Y-85881002D01*
X149606000Y-85852000D01*
X147858815Y-85852000D01*
X146696505Y-84689689D01*
X146710079Y-84622000D01*
X146710079Y-83022000D01*
X146693167Y-82934836D01*
X146642842Y-82858226D01*
X146566871Y-82806944D01*
X146477000Y-82788921D01*
X145877000Y-82788921D01*
X145789836Y-82805833D01*
X145713226Y-82856158D01*
X145661944Y-82932129D01*
X145643921Y-83022000D01*
X145643921Y-84399105D01*
X145440079Y-84195263D01*
X145440079Y-83022000D01*
X145423167Y-82934836D01*
X145372842Y-82858226D01*
X145296871Y-82806944D01*
X145207000Y-82788921D01*
X144607000Y-82788921D01*
X144519836Y-82805833D01*
X144488359Y-82826510D01*
X144432261Y-82691078D01*
X144373984Y-82632800D01*
X166898796Y-82632800D01*
X166684078Y-82721739D01*
X166519739Y-82886077D01*
X166430800Y-83100795D01*
X166430800Y-83643150D01*
X166576850Y-83789200D01*
X167462200Y-83789200D01*
X167462200Y-82778850D01*
X167316150Y-82632800D01*
X167963850Y-82632800D01*
X167316150Y-82632800D01*
X167316150Y-82632800D01*
X167963850Y-82632800D01*
X167817800Y-82778850D01*
X167817800Y-83789200D01*
X168703150Y-83789200D01*
X168849200Y-83643150D01*
X168849200Y-83100795D01*
X168760261Y-82886077D01*
X168595922Y-82721739D01*
X168381204Y-82632800D01*
X167963850Y-82632800D01*
X167316150Y-82632800D01*
X167316150Y-82632800D01*
X166898796Y-82632800D01*
X144373984Y-82632800D01*
X144267923Y-82526739D01*
X144053205Y-82437800D01*
X143933050Y-82437800D01*
X143787000Y-82583850D01*
X143787000Y-83644200D01*
X143834800Y-83644200D01*
X143834800Y-83999800D01*
X143787000Y-83999800D01*
X143787000Y-85060150D01*
X143933050Y-85206200D01*
X144053205Y-85206200D01*
X144267923Y-85117261D01*
X144432261Y-84952922D01*
X144488312Y-84817604D01*
X144517129Y-84837056D01*
X144607000Y-84855079D01*
X145022263Y-84855079D01*
X147304590Y-87137405D01*
X147304592Y-87137408D01*
X147418024Y-87213200D01*
X147428198Y-87219998D01*
X147574000Y-87249001D01*
X147574005Y-87249000D01*
X149321184Y-87249000D01*
X153086168Y-91013984D01*
X152929397Y-90982800D01*
X152886603Y-90982800D01*
X152468636Y-91065939D01*
X152114301Y-91302698D01*
X151877542Y-91657033D01*
X151794403Y-92075000D01*
X151877542Y-92492967D01*
X152114301Y-92847302D01*
X152468636Y-93084061D01*
X152886603Y-93167200D01*
X152929397Y-93167200D01*
X153347364Y-93084061D01*
X153701699Y-92847302D01*
X153938458Y-92492967D01*
X154021597Y-92075000D01*
X153990413Y-91918229D01*
X155745592Y-93673408D01*
X155869198Y-93755998D01*
X156015000Y-93785001D01*
X156015005Y-93785000D01*
X157727921Y-93785000D01*
X157727921Y-94204000D01*
X157744833Y-94291164D01*
X157795158Y-94367774D01*
X157871129Y-94419056D01*
X157961000Y-94437079D01*
X158511000Y-94437079D01*
X158598164Y-94420167D01*
X158635977Y-94395328D01*
X158671129Y-94419056D01*
X158761000Y-94437079D01*
X159311000Y-94437079D01*
X159398164Y-94420167D01*
X159435977Y-94395328D01*
X159471129Y-94419056D01*
X159561000Y-94437079D01*
X160111000Y-94437079D01*
X160198164Y-94420167D01*
X160235977Y-94395328D01*
X160271129Y-94419056D01*
X160361000Y-94437079D01*
X160911000Y-94437079D01*
X160998164Y-94420167D01*
X161035977Y-94395328D01*
X161071129Y-94419056D01*
X161161000Y-94437079D01*
X161711000Y-94437079D01*
X161798164Y-94420167D01*
X161835977Y-94395328D01*
X161871129Y-94419056D01*
X161961000Y-94437079D01*
X162511000Y-94437079D01*
X162598164Y-94420167D01*
X162635977Y-94395328D01*
X162671129Y-94419056D01*
X162761000Y-94437079D01*
X163311000Y-94437079D01*
X163398164Y-94420167D01*
X163435977Y-94395328D01*
X163471129Y-94419056D01*
X163561000Y-94437079D01*
X164111000Y-94437079D01*
X164198164Y-94420167D01*
X164274774Y-94369842D01*
X164326056Y-94293871D01*
X164344079Y-94204000D01*
X164344079Y-92604000D01*
X164327167Y-92516836D01*
X164276842Y-92440226D01*
X164200871Y-92388944D01*
X164111000Y-92370921D01*
X163561000Y-92370921D01*
X163473836Y-92387833D01*
X163436023Y-92412672D01*
X163400871Y-92388944D01*
X163311000Y-92370921D01*
X162761000Y-92370921D01*
X162673836Y-92387833D01*
X162636023Y-92412672D01*
X162600871Y-92388944D01*
X162511000Y-92370921D01*
X161961000Y-92370921D01*
X161873836Y-92387833D01*
X161836023Y-92412672D01*
X161800871Y-92388944D01*
X161711000Y-92370921D01*
X161161000Y-92370921D01*
X161073836Y-92387833D01*
X161036023Y-92412672D01*
X161000871Y-92388944D01*
X160911000Y-92370921D01*
X160361000Y-92370921D01*
X160273836Y-92387833D01*
X160236023Y-92412672D01*
X160200871Y-92388944D01*
X160111000Y-92370921D01*
X159561000Y-92370921D01*
X159473836Y-92387833D01*
X159436023Y-92412672D01*
X159400871Y-92388944D01*
X159311000Y-92370921D01*
X158761000Y-92370921D01*
X158673836Y-92387833D01*
X158636023Y-92412672D01*
X158600871Y-92388944D01*
X158511000Y-92370921D01*
X157961000Y-92370921D01*
X157873836Y-92387833D01*
X157797226Y-92438158D01*
X157745944Y-92514129D01*
X157727921Y-92604000D01*
X157727921Y-93023000D01*
X156172816Y-93023000D01*
X155484816Y-92335000D01*
X155782206Y-92335000D01*
X155820158Y-92392774D01*
X155896129Y-92444056D01*
X155986000Y-92462079D01*
X157586000Y-92462079D01*
X157673164Y-92445167D01*
X157749774Y-92394842D01*
X157801056Y-92318871D01*
X157819079Y-92229000D01*
X157819079Y-91679000D01*
X157802167Y-91591836D01*
X157777328Y-91554023D01*
X157801056Y-91518871D01*
X157819079Y-91429000D01*
X157819079Y-91164789D01*
X157916923Y-91124261D01*
X158081261Y-90959922D01*
X158170200Y-90745204D01*
X158170200Y-90637550D01*
X158024150Y-90491500D01*
X156963800Y-90491500D01*
X156963800Y-90551800D01*
X156608200Y-90551800D01*
X156608200Y-90491500D01*
X156588200Y-90491500D01*
X156588200Y-90216500D01*
X156608200Y-90216500D01*
X156608200Y-90156200D01*
X156963800Y-90156200D01*
X156963800Y-90216500D01*
X158024150Y-90216500D01*
X158170200Y-90070450D01*
X158170200Y-89962796D01*
X158081261Y-89748078D01*
X157916923Y-89583739D01*
X157819079Y-89543211D01*
X157819079Y-89279000D01*
X157802167Y-89191836D01*
X157777328Y-89154023D01*
X157790169Y-89135000D01*
X158176851Y-89135000D01*
X158298849Y-89257211D01*
X158508823Y-89344400D01*
X158736180Y-89344599D01*
X158946306Y-89257776D01*
X159107211Y-89097151D01*
X159194400Y-88887177D01*
X159194599Y-88659820D01*
X159107776Y-88449694D01*
X158947151Y-88288789D01*
X158737177Y-88201600D01*
X158509820Y-88201401D01*
X158299694Y-88288224D01*
X158214770Y-88373000D01*
X157789794Y-88373000D01*
X157777328Y-88354023D01*
X157801056Y-88318871D01*
X157819079Y-88229000D01*
X157819079Y-87679000D01*
X157802167Y-87591836D01*
X157777328Y-87554023D01*
X157801056Y-87518871D01*
X157819079Y-87429000D01*
X157819079Y-86983895D01*
X158353592Y-87518408D01*
X158477197Y-87600998D01*
X158623000Y-87630000D01*
X158957818Y-87630000D01*
X159060849Y-87733211D01*
X159270823Y-87820400D01*
X159498180Y-87820599D01*
X159629841Y-87766198D01*
X159575600Y-87896823D01*
X159575401Y-88124180D01*
X159662224Y-88334306D01*
X159822849Y-88495211D01*
X160032823Y-88582400D01*
X160260180Y-88582599D01*
X160470306Y-88495776D01*
X160631211Y-88335151D01*
X160718400Y-88125177D01*
X160718599Y-87897820D01*
X160631776Y-87687694D01*
X160528000Y-87583737D01*
X160528000Y-86995005D01*
X160528001Y-86995000D01*
X160498998Y-86849198D01*
X160467463Y-86802002D01*
X160416408Y-86725592D01*
X160416405Y-86725590D01*
X159781408Y-86090592D01*
X159657803Y-86008002D01*
X159512000Y-85979000D01*
X158780815Y-85979000D01*
X158733349Y-85931534D01*
X158761000Y-85937079D01*
X159311000Y-85937079D01*
X159398164Y-85920167D01*
X159435977Y-85895328D01*
X159471129Y-85919056D01*
X159561000Y-85937079D01*
X160111000Y-85937079D01*
X160198164Y-85920167D01*
X160235977Y-85895328D01*
X160271129Y-85919056D01*
X160361000Y-85937079D01*
X160911000Y-85937079D01*
X160998164Y-85920167D01*
X161035977Y-85895328D01*
X161071129Y-85919056D01*
X161161000Y-85937079D01*
X161711000Y-85937079D01*
X161798164Y-85920167D01*
X161835977Y-85895328D01*
X161871129Y-85919056D01*
X161961000Y-85937079D01*
X162511000Y-85937079D01*
X162598164Y-85920167D01*
X162635977Y-85895328D01*
X162671129Y-85919056D01*
X162761000Y-85937079D01*
X163311000Y-85937079D01*
X163398164Y-85920167D01*
X163435977Y-85895328D01*
X163471129Y-85919056D01*
X163561000Y-85937079D01*
X163912452Y-85937079D01*
X163901800Y-85962796D01*
X163901800Y-86070450D01*
X164047850Y-86216500D01*
X165108200Y-86216500D01*
X165108200Y-85640850D01*
X164962150Y-85494800D01*
X164369795Y-85494800D01*
X164344079Y-85505452D01*
X164344079Y-85483921D01*
X167015000Y-85483921D01*
X164344079Y-85483921D01*
X164344079Y-85483921D01*
X167015000Y-85483921D01*
X166927836Y-85500833D01*
X166216770Y-85500833D01*
X166202205Y-85494800D01*
X165609850Y-85494800D01*
X165463800Y-85640850D01*
X165463800Y-86216500D01*
X166524150Y-86216500D01*
X166670200Y-86070450D01*
X166670200Y-85962796D01*
X166581261Y-85748078D01*
X166416923Y-85583739D01*
X166216770Y-85500833D01*
X166927836Y-85500833D01*
X166216770Y-85500833D01*
X166216770Y-85500833D01*
X166927836Y-85500833D01*
X166851226Y-85551158D01*
X166799944Y-85627129D01*
X166781921Y-85717000D01*
X166781921Y-86773000D01*
X166658687Y-86773000D01*
X166670200Y-86745204D01*
X166670200Y-86637550D01*
X166524150Y-86491500D01*
X165463800Y-86491500D01*
X165463800Y-86551800D01*
X165108200Y-86551800D01*
X165108200Y-86491500D01*
X164047850Y-86491500D01*
X163901800Y-86637550D01*
X163901800Y-86745204D01*
X163990739Y-86959922D01*
X164155077Y-87124261D01*
X164252921Y-87164789D01*
X164252921Y-87429000D01*
X164269833Y-87516164D01*
X164294672Y-87553977D01*
X164270944Y-87589129D01*
X164252921Y-87679000D01*
X164252921Y-88229000D01*
X164269833Y-88316164D01*
X164294672Y-88353977D01*
X164270944Y-88389129D01*
X164252921Y-88479000D01*
X164252921Y-89029000D01*
X164269833Y-89116164D01*
X164294672Y-89153977D01*
X164270944Y-89189129D01*
X164252921Y-89279000D01*
X164252921Y-89829000D01*
X164269833Y-89916164D01*
X164294672Y-89953977D01*
X164270944Y-89989129D01*
X164252921Y-90079000D01*
X164252921Y-90629000D01*
X164269833Y-90716164D01*
X164294672Y-90753977D01*
X164270944Y-90789129D01*
X164252921Y-90879000D01*
X164252921Y-91429000D01*
X164269833Y-91516164D01*
X164294672Y-91553977D01*
X164270944Y-91589129D01*
X164252921Y-91679000D01*
X164252921Y-92229000D01*
X164269833Y-92316164D01*
X164320158Y-92392774D01*
X164396129Y-92444056D01*
X164486000Y-92462079D01*
X165075263Y-92462079D01*
X165592592Y-92979408D01*
X165716197Y-93061998D01*
X165862000Y-93091000D01*
X166576921Y-93091000D01*
X166576921Y-93154263D01*
X164227184Y-95504000D01*
X153527048Y-95504000D01*
X153701699Y-95387302D01*
X153938458Y-95032967D01*
X154021597Y-94615000D01*
X153938458Y-94197033D01*
X153701699Y-93842698D01*
X153347364Y-93605939D01*
X152929397Y-93522800D01*
X152886603Y-93522800D01*
X150389397Y-93522800D01*
X150389397Y-93522800D01*
X150346603Y-93522800D01*
X149928636Y-93605939D01*
X149574301Y-93842698D01*
X149337542Y-94197033D01*
X149254403Y-94615000D01*
X149337542Y-95032967D01*
X149574301Y-95387302D01*
X149928636Y-95624061D01*
X150346603Y-95707200D01*
X150389397Y-95707200D01*
X150807364Y-95624061D01*
X151161699Y-95387302D01*
X151398458Y-95032967D01*
X151481597Y-94615000D01*
X151398458Y-94197033D01*
X151161699Y-93842698D01*
X150807364Y-93605939D01*
X150389397Y-93522800D01*
X152886603Y-93522800D01*
X150389397Y-93522800D01*
X150389397Y-93522800D01*
X152886603Y-93522800D01*
X152468636Y-93605939D01*
X152114301Y-93842698D01*
X151877542Y-94197033D01*
X151794403Y-94615000D01*
X151877542Y-95032967D01*
X152114301Y-95387302D01*
X152288952Y-95504000D01*
X151892000Y-95504000D01*
X151746197Y-95533002D01*
X151622592Y-95615592D01*
X150978138Y-96260046D01*
X150807364Y-96145939D01*
X150389397Y-96062800D01*
X150346603Y-96062800D01*
X139874079Y-96062800D01*
X139874079Y-95995737D01*
X141366405Y-94503410D01*
X141366408Y-94503408D01*
X141448998Y-94379802D01*
X141458507Y-94331997D01*
X141478001Y-94234000D01*
X141478000Y-94233995D01*
X141478000Y-93102374D01*
X149338558Y-93102374D01*
X149414529Y-93153656D01*
X149504400Y-93171679D01*
X151231600Y-93171679D01*
X151318764Y-93154767D01*
X151395374Y-93104442D01*
X151446656Y-93028471D01*
X151464679Y-92938600D01*
X151464679Y-91211400D01*
X151447767Y-91124236D01*
X151397442Y-91047626D01*
X151321471Y-90996344D01*
X151231600Y-90978321D01*
X149504400Y-90978321D01*
X147980079Y-90978321D01*
X147980079Y-89622000D01*
X147963167Y-89534836D01*
X147912842Y-89458226D01*
X147836871Y-89406944D01*
X147747000Y-89388921D01*
X147147000Y-89388921D01*
X147059836Y-89405833D01*
X146983226Y-89456158D01*
X146931944Y-89532129D01*
X146913921Y-89622000D01*
X146913921Y-91222000D01*
X146930833Y-91309164D01*
X146981158Y-91385774D01*
X147057129Y-91437056D01*
X147066000Y-91438835D01*
X147066000Y-92028818D01*
X146962789Y-92131849D01*
X146875600Y-92341823D01*
X146875401Y-92569180D01*
X146962224Y-92779306D01*
X147122849Y-92940211D01*
X147332823Y-93027400D01*
X147560180Y-93027599D01*
X147770306Y-92940776D01*
X147931211Y-92780151D01*
X148018400Y-92570177D01*
X148018599Y-92342820D01*
X147931776Y-92132694D01*
X147828000Y-92028737D01*
X147828000Y-91439363D01*
X147834164Y-91438167D01*
X147910774Y-91387842D01*
X147962056Y-91311871D01*
X147980079Y-91222000D01*
X147980079Y-90978321D01*
X149504400Y-90978321D01*
X147980079Y-90978321D01*
X147980079Y-90978321D01*
X149504400Y-90978321D01*
X149417236Y-90995233D01*
X149340626Y-91045558D01*
X149289344Y-91121529D01*
X149271321Y-91211400D01*
X149271321Y-92938600D01*
X149288233Y-93025764D01*
X149338558Y-93102374D01*
X141478000Y-93102374D01*
X141478000Y-91439363D01*
X141484164Y-91438167D01*
X141560774Y-91387842D01*
X141612056Y-91311871D01*
X141630079Y-91222000D01*
X141630079Y-89622000D01*
X141613167Y-89534836D01*
X141562842Y-89458226D01*
X141486871Y-89406944D01*
X141397000Y-89388921D01*
X140797000Y-89388921D01*
X140709836Y-89405833D01*
X140633226Y-89456158D01*
X140581944Y-89532129D01*
X140563921Y-89622000D01*
X140563921Y-91222000D01*
X140580833Y-91309164D01*
X140631158Y-91385774D01*
X140707129Y-91437056D01*
X140716000Y-91438835D01*
X140716000Y-94076185D01*
X139755569Y-95036616D01*
X139730871Y-95019944D01*
X139641000Y-95001921D01*
X138141000Y-95001921D01*
X138053836Y-95018833D01*
X137977226Y-95069158D01*
X137925944Y-95145129D01*
X137907921Y-95235000D01*
X137907921Y-96535000D01*
X137924833Y-96622164D01*
X137975158Y-96698774D01*
X138051129Y-96750056D01*
X138141000Y-96768079D01*
X139641000Y-96768079D01*
X139728164Y-96751167D01*
X139804774Y-96700842D01*
X139856056Y-96624871D01*
X139874079Y-96535000D01*
X139874079Y-96062800D01*
X150346603Y-96062800D01*
X139874079Y-96062800D01*
X139874079Y-96062800D01*
X150346603Y-96062800D01*
X149928636Y-96145939D01*
X149574301Y-96382698D01*
X149337542Y-96737033D01*
X149254403Y-97155000D01*
X134106079Y-97155000D01*
X134106079Y-96485000D01*
X134089167Y-96397836D01*
X134038842Y-96321226D01*
X133962871Y-96269944D01*
X133943204Y-96266000D01*
X135207921Y-96266000D01*
X135207921Y-96535000D01*
X135224833Y-96622164D01*
X135275158Y-96698774D01*
X135351129Y-96750056D01*
X135441000Y-96768079D01*
X136941000Y-96768079D01*
X137028164Y-96751167D01*
X137104774Y-96700842D01*
X137156056Y-96624871D01*
X137174079Y-96535000D01*
X137174079Y-95235000D01*
X137157167Y-95147836D01*
X137106842Y-95071226D01*
X137030871Y-95019944D01*
X136941000Y-95001921D01*
X135441000Y-95001921D01*
X135353836Y-95018833D01*
X135277226Y-95069158D01*
X135225944Y-95145129D01*
X135207921Y-95235000D01*
X135207921Y-95504000D01*
X133945563Y-95504000D01*
X133960164Y-95501167D01*
X134036774Y-95450842D01*
X134088056Y-95374871D01*
X134106079Y-95285000D01*
X134106079Y-94916000D01*
X138764000Y-94916000D01*
X138909803Y-94886998D01*
X139033408Y-94804408D01*
X140096408Y-93741408D01*
X140178998Y-93617803D01*
X140208000Y-93472000D01*
X140208000Y-91439363D01*
X140214164Y-91438167D01*
X140290774Y-91387842D01*
X140342056Y-91311871D01*
X140360079Y-91222000D01*
X140360079Y-89622000D01*
X140343167Y-89534836D01*
X140292842Y-89458226D01*
X140216871Y-89406944D01*
X140127000Y-89388921D01*
X139527000Y-89388921D01*
X139439836Y-89405833D01*
X139363226Y-89456158D01*
X139311944Y-89532129D01*
X139293921Y-89622000D01*
X139293921Y-91222000D01*
X139310833Y-91309164D01*
X139361158Y-91385774D01*
X139437129Y-91437056D01*
X139446000Y-91438835D01*
X139446000Y-93314184D01*
X138606184Y-94154000D01*
X134106079Y-94154000D01*
X134106079Y-93785000D01*
X134089167Y-93697836D01*
X134038842Y-93621226D01*
X133962871Y-93569944D01*
X133873000Y-93551921D01*
X132573000Y-93551921D01*
X132485836Y-93568833D01*
X132409226Y-93619158D01*
X132357944Y-93695129D01*
X132339921Y-93785000D01*
X132339921Y-95285000D01*
X132356833Y-95372164D01*
X132407158Y-95448774D01*
X132483129Y-95500056D01*
X132502796Y-95504000D01*
X131729815Y-95504000D01*
X131206408Y-94980592D01*
X131082803Y-94898002D01*
X130937000Y-94869000D01*
X127793909Y-94869000D01*
X127836774Y-94840842D01*
X127888056Y-94764871D01*
X127906079Y-94675000D01*
X127906079Y-94150000D01*
X127904000Y-94139285D01*
X127904000Y-93614005D01*
X127904001Y-93614000D01*
X127874998Y-93468198D01*
X127860944Y-93447164D01*
X127792408Y-93344592D01*
X127792405Y-93344590D01*
X127396408Y-92948592D01*
X127272803Y-92866002D01*
X127127000Y-92837000D01*
X123825005Y-92837000D01*
X123825000Y-92836999D01*
X123679198Y-92866002D01*
X123555592Y-92948592D01*
X123555590Y-92948595D01*
X122905184Y-93599000D01*
X120573197Y-93599000D01*
X120565844Y-93562033D01*
X120329085Y-93207698D01*
X119974750Y-92970939D01*
X119556783Y-92887800D01*
X119203217Y-92887800D01*
X118785250Y-92970939D01*
X118430915Y-93207698D01*
X118194156Y-93562033D01*
X118111017Y-93980000D01*
X118194156Y-94397967D01*
X118430915Y-94752302D01*
X118785250Y-94989061D01*
X119203217Y-95072200D01*
X119556783Y-95072200D01*
X119974750Y-94989061D01*
X120329085Y-94752302D01*
X120468434Y-94543750D01*
X125634850Y-94543750D01*
X125488800Y-94689800D01*
X125488800Y-94791204D01*
X125577739Y-95005922D01*
X125742077Y-95170261D01*
X125956795Y-95259200D01*
X126001950Y-95259200D01*
X126148000Y-95113150D01*
X126148000Y-94543750D01*
X125634850Y-94543750D01*
X120468434Y-94543750D01*
X120565844Y-94397967D01*
X120573197Y-94361000D01*
X123063000Y-94361000D01*
X123208803Y-94331998D01*
X123332408Y-94249408D01*
X123982815Y-93599000D01*
X125876643Y-93599000D01*
X125742077Y-93654739D01*
X125577739Y-93819078D01*
X125488800Y-94033796D01*
X125488800Y-94135200D01*
X125634850Y-94281250D01*
X126148000Y-94281250D01*
X126148000Y-94214700D01*
X126298000Y-94214700D01*
X126298000Y-94281250D01*
X126373000Y-94281250D01*
X126373000Y-94543750D01*
X126298000Y-94543750D01*
X126298000Y-95113150D01*
X126444050Y-95259200D01*
X126489205Y-95259200D01*
X126575547Y-95223436D01*
X126603592Y-95265408D01*
X126857592Y-95519408D01*
X126865154Y-95524461D01*
X126837211Y-95591921D01*
X126723000Y-95591921D01*
X126635836Y-95608833D01*
X126559226Y-95659158D01*
X126548207Y-95675482D01*
X126538842Y-95661226D01*
X126462871Y-95609944D01*
X126373000Y-95591921D01*
X126073000Y-95591921D01*
X125985836Y-95608833D01*
X125909226Y-95659158D01*
X125877269Y-95706500D01*
X124384500Y-95706500D01*
X124238698Y-95735502D01*
X124115092Y-95818092D01*
X124115090Y-95818095D01*
X123794184Y-96139000D01*
X120573197Y-96139000D01*
X120565844Y-96102033D01*
X120329085Y-95747698D01*
X119974750Y-95510939D01*
X119556783Y-95427800D01*
X119203217Y-95427800D01*
X118785250Y-95510939D01*
X118430915Y-95747698D01*
X118194156Y-96102033D01*
X118111017Y-96520000D01*
X118194156Y-96937967D01*
X118430915Y-97292302D01*
X118785250Y-97529061D01*
X119203217Y-97612200D01*
X119556783Y-97612200D01*
X119974750Y-97529061D01*
X120329085Y-97292302D01*
X120565844Y-96937967D01*
X120573197Y-96901000D01*
X123952000Y-96901000D01*
X124097803Y-96871998D01*
X124221408Y-96789408D01*
X124542315Y-96468500D01*
X125877418Y-96468500D01*
X125907158Y-96513774D01*
X125983129Y-96565056D01*
X126073000Y-96583079D01*
X126373000Y-96583079D01*
X126460164Y-96566167D01*
X126492000Y-96545254D01*
X126492000Y-96934000D01*
X126521002Y-97079803D01*
X126603592Y-97203408D01*
X126904590Y-97504405D01*
X126904592Y-97504408D01*
X126978688Y-97553917D01*
X127028197Y-97586998D01*
X127174000Y-97616000D01*
X132339921Y-97616000D01*
X132339921Y-97985000D01*
X132356833Y-98072164D01*
X132407158Y-98148774D01*
X132483129Y-98200056D01*
X132573000Y-98218079D01*
X133873000Y-98218079D01*
X133960164Y-98201167D01*
X134036774Y-98150842D01*
X134088056Y-98074871D01*
X134106079Y-97985000D01*
X134106079Y-97155000D01*
X149254403Y-97155000D01*
X134106079Y-97155000D01*
X134106079Y-97155000D01*
X149254403Y-97155000D01*
X149337542Y-97572967D01*
X149574301Y-97927302D01*
X149928636Y-98164061D01*
X150346603Y-98247200D01*
X117068600Y-98247200D01*
X117068600Y-87503000D01*
X124587000Y-87503000D01*
X124441197Y-87532002D01*
X124317592Y-87614592D01*
X123413184Y-88519000D01*
X120573197Y-88519000D01*
X120565844Y-88482033D01*
X120329085Y-88127698D01*
X119974750Y-87890939D01*
X119556783Y-87807800D01*
X119203217Y-87807800D01*
X118785250Y-87890939D01*
X118430915Y-88127698D01*
X118194156Y-88482033D01*
X118111017Y-88900000D01*
X118194156Y-89317967D01*
X118430915Y-89672302D01*
X118785250Y-89909061D01*
X119203217Y-89992200D01*
X119556783Y-89992200D01*
X119974750Y-89909061D01*
X120329085Y-89672302D01*
X120565844Y-89317967D01*
X120573197Y-89281000D01*
X123571000Y-89281000D01*
X123716803Y-89251998D01*
X123780031Y-89209750D01*
X125761850Y-89209750D01*
X125615800Y-89355800D01*
X125615800Y-89457204D01*
X125704739Y-89671922D01*
X125869077Y-89836261D01*
X126083795Y-89925200D01*
X126128950Y-89925200D01*
X126275000Y-89779150D01*
X126275000Y-89209750D01*
X125761850Y-89209750D01*
X123780031Y-89209750D01*
X123840408Y-89169408D01*
X124744816Y-88265000D01*
X126003643Y-88265000D01*
X125869077Y-88320739D01*
X125704739Y-88485078D01*
X125615800Y-88699796D01*
X125615800Y-88801200D01*
X125761850Y-88947250D01*
X126275000Y-88947250D01*
X126275000Y-88880700D01*
X126425000Y-88880700D01*
X126425000Y-88947250D01*
X126500000Y-88947250D01*
X126500000Y-89209750D01*
X126425000Y-89209750D01*
X126425000Y-89779150D01*
X126571050Y-89925200D01*
X126616205Y-89925200D01*
X126782502Y-89856318D01*
X127045501Y-90119316D01*
X127004739Y-90160078D01*
X126964211Y-90257921D01*
X126850000Y-90257921D01*
X126762836Y-90274833D01*
X126686226Y-90325158D01*
X126675207Y-90341482D01*
X126665842Y-90327226D01*
X126589871Y-90275944D01*
X126500000Y-90257921D01*
X126200000Y-90257921D01*
X126112836Y-90274833D01*
X126036226Y-90325158D01*
X126004269Y-90372500D01*
X124765505Y-90372500D01*
X124765500Y-90372499D01*
X124621573Y-90401129D01*
X124619698Y-90401502D01*
X124496092Y-90484092D01*
X124496090Y-90484095D01*
X123921184Y-91059000D01*
X120573197Y-91059000D01*
X120565844Y-91022033D01*
X120329085Y-90667698D01*
X119974750Y-90430939D01*
X119556783Y-90347800D01*
X119203217Y-90347800D01*
X118785250Y-90430939D01*
X118430915Y-90667698D01*
X118194156Y-91022033D01*
X118111017Y-91440000D01*
X118194156Y-91857967D01*
X118430915Y-92212302D01*
X118785250Y-92449061D01*
X119203217Y-92532200D01*
X119556783Y-92532200D01*
X119974750Y-92449061D01*
X120329085Y-92212302D01*
X120565844Y-91857967D01*
X120573197Y-91821000D01*
X124079000Y-91821000D01*
X124224803Y-91791998D01*
X124348408Y-91709408D01*
X124923315Y-91134500D01*
X126004418Y-91134500D01*
X126034158Y-91179774D01*
X126110129Y-91231056D01*
X126200000Y-91249079D01*
X126500000Y-91249079D01*
X126587164Y-91232167D01*
X126619000Y-91211254D01*
X126619000Y-91694000D01*
X126648002Y-91839803D01*
X126730592Y-91963408D01*
X126984592Y-92217408D01*
X127108197Y-92299998D01*
X127254000Y-92329000D01*
X129794000Y-92329000D01*
X129939803Y-92299998D01*
X130063408Y-92217408D01*
X130459815Y-91821000D01*
X131016921Y-91821000D01*
X131016921Y-92090000D01*
X131033833Y-92177164D01*
X131084158Y-92253774D01*
X131160129Y-92305056D01*
X131250000Y-92323079D01*
X132750000Y-92323079D01*
X132837164Y-92306167D01*
X132913774Y-92255842D01*
X132965056Y-92179871D01*
X132983079Y-92090000D01*
X132983079Y-90790000D01*
X132966167Y-90702836D01*
X132915842Y-90626226D01*
X132839871Y-90574944D01*
X132750000Y-90556921D01*
X131250000Y-90556921D01*
X131162836Y-90573833D01*
X131086226Y-90624158D01*
X131034944Y-90700129D01*
X131016921Y-90790000D01*
X131016921Y-91059000D01*
X130302000Y-91059000D01*
X130156198Y-91088002D01*
X130032592Y-91170592D01*
X130032590Y-91170595D01*
X129636184Y-91567000D01*
X127996357Y-91567000D01*
X128130923Y-91511261D01*
X128295261Y-91346922D01*
X128384200Y-91132204D01*
X128384200Y-91030800D01*
X128238150Y-90884750D01*
X127725000Y-90884750D01*
X127725000Y-90951300D01*
X127575000Y-90951300D01*
X127575000Y-90884750D01*
X127500000Y-90884750D01*
X127500000Y-90622250D01*
X127575000Y-90622250D01*
X127575000Y-90555700D01*
X127725000Y-90555700D01*
X127725000Y-90622250D01*
X128238150Y-90622250D01*
X128384200Y-90476200D01*
X128384200Y-90374796D01*
X128351976Y-90297000D01*
X128778000Y-90297000D01*
X128923803Y-90267998D01*
X129047408Y-90185408D01*
X129951816Y-89281000D01*
X131016921Y-89281000D01*
X131016921Y-89550000D01*
X131033833Y-89637164D01*
X131084158Y-89713774D01*
X131160129Y-89765056D01*
X131250000Y-89783079D01*
X132750000Y-89783079D01*
X132837164Y-89766167D01*
X132913774Y-89715842D01*
X132965056Y-89639871D01*
X132983079Y-89550000D01*
X132983079Y-88250000D01*
X132966167Y-88162836D01*
X132915842Y-88086226D01*
X132839871Y-88034944D01*
X132750000Y-88016921D01*
X131250000Y-88016921D01*
X131162836Y-88033833D01*
X131086226Y-88084158D01*
X131034944Y-88160129D01*
X131016921Y-88250000D01*
X131016921Y-88519000D01*
X129794000Y-88519000D01*
X129648197Y-88548002D01*
X129524592Y-88630592D01*
X128620184Y-89535000D01*
X127920909Y-89535000D01*
X127963774Y-89506842D01*
X128015056Y-89430871D01*
X128033079Y-89341000D01*
X128033079Y-88816000D01*
X128031000Y-88805285D01*
X128031000Y-88280005D01*
X128031001Y-88280000D01*
X128001998Y-88134198D01*
X127991975Y-88119197D01*
X127919408Y-88010592D01*
X127919405Y-88010590D01*
X127808224Y-87899408D01*
X136763592Y-87899408D01*
X136887197Y-87981998D01*
X137033000Y-88011000D01*
X137256185Y-88011000D01*
X136748184Y-88519000D01*
X135683079Y-88519000D01*
X135683079Y-88250000D01*
X135666167Y-88162836D01*
X135615842Y-88086226D01*
X135539871Y-88034944D01*
X135450000Y-88016921D01*
X133950000Y-88016921D01*
X133862836Y-88033833D01*
X133786226Y-88084158D01*
X133734944Y-88160129D01*
X133716921Y-88250000D01*
X133716921Y-89550000D01*
X133733833Y-89637164D01*
X133784158Y-89713774D01*
X133860129Y-89765056D01*
X133950000Y-89783079D01*
X135450000Y-89783079D01*
X135537164Y-89766167D01*
X135613774Y-89715842D01*
X135665056Y-89639871D01*
X135683079Y-89550000D01*
X135683079Y-89281000D01*
X136748184Y-89281000D01*
X136509592Y-89519592D01*
X136427002Y-89643197D01*
X136402940Y-89764164D01*
X136398000Y-89789000D01*
X136398000Y-90393184D01*
X135732184Y-91059000D01*
X135683079Y-91059000D01*
X135683079Y-90790000D01*
X135666167Y-90702836D01*
X135615842Y-90626226D01*
X135539871Y-90574944D01*
X135450000Y-90556921D01*
X133950000Y-90556921D01*
X133862836Y-90573833D01*
X133786226Y-90624158D01*
X133734944Y-90700129D01*
X133716921Y-90790000D01*
X133716921Y-92090000D01*
X133733833Y-92177164D01*
X133784158Y-92253774D01*
X133860129Y-92305056D01*
X133950000Y-92323079D01*
X135450000Y-92323079D01*
X135537164Y-92306167D01*
X135613774Y-92255842D01*
X135665056Y-92179871D01*
X135683079Y-92090000D01*
X135683079Y-91821000D01*
X135890000Y-91821000D01*
X136035803Y-91791998D01*
X136159408Y-91709408D01*
X137048408Y-90820408D01*
X137130998Y-90696802D01*
X137160001Y-90551000D01*
X137160000Y-90550995D01*
X137160000Y-89946816D01*
X137717895Y-89388921D01*
X138257000Y-89388921D01*
X138169836Y-89405833D01*
X138093226Y-89456158D01*
X138041944Y-89532129D01*
X138023921Y-89622000D01*
X138023921Y-91222000D01*
X138040833Y-91309164D01*
X138091158Y-91385774D01*
X138167129Y-91437056D01*
X138257000Y-91455079D01*
X138857000Y-91455079D01*
X138944164Y-91438167D01*
X139020774Y-91387842D01*
X139072056Y-91311871D01*
X139090079Y-91222000D01*
X139090079Y-89622000D01*
X139073167Y-89534836D01*
X139022842Y-89458226D01*
X138946871Y-89406944D01*
X138857000Y-89388921D01*
X138257000Y-89388921D01*
X137717895Y-89388921D01*
X137952816Y-89154000D01*
X141447184Y-89154000D01*
X141847496Y-89554311D01*
X141833921Y-89622000D01*
X141833921Y-91222000D01*
X141850833Y-91309164D01*
X141901158Y-91385774D01*
X141977129Y-91437056D01*
X142067000Y-91455079D01*
X142667000Y-91455079D01*
X142754164Y-91438167D01*
X142830774Y-91387842D01*
X142882056Y-91311871D01*
X142900079Y-91222000D01*
X142900079Y-89622000D01*
X142883167Y-89534836D01*
X142832842Y-89458226D01*
X142756871Y-89406944D01*
X142721101Y-89399771D01*
X142718998Y-89389198D01*
X142665143Y-89308598D01*
X142636408Y-89265592D01*
X142636405Y-89265590D01*
X142016816Y-88646000D01*
X142463184Y-88646000D01*
X143233650Y-89416466D01*
X143173226Y-89456158D01*
X143121944Y-89532129D01*
X143103921Y-89622000D01*
X143103921Y-91222000D01*
X143120833Y-91309164D01*
X143171158Y-91385774D01*
X143247129Y-91437056D01*
X143337000Y-91455079D01*
X143937000Y-91455079D01*
X144024164Y-91438167D01*
X144100774Y-91387842D01*
X144152056Y-91311871D01*
X144170079Y-91222000D01*
X144170079Y-89622000D01*
X144153167Y-89534836D01*
X144102842Y-89458226D01*
X144026871Y-89406944D01*
X144018000Y-89405165D01*
X144018000Y-89281000D01*
X144006722Y-89224302D01*
X143988998Y-89135197D01*
X143906408Y-89011592D01*
X142905816Y-88011000D01*
X143352184Y-88011000D01*
X144526000Y-89184815D01*
X144526000Y-89404637D01*
X144519836Y-89405833D01*
X144443226Y-89456158D01*
X144391944Y-89532129D01*
X144373921Y-89622000D01*
X144373921Y-91222000D01*
X144390833Y-91309164D01*
X144441158Y-91385774D01*
X144517129Y-91437056D01*
X144607000Y-91455079D01*
X145207000Y-91455079D01*
X145294164Y-91438167D01*
X145370774Y-91387842D01*
X145422056Y-91311871D01*
X145440079Y-91222000D01*
X145440079Y-89622000D01*
X145423167Y-89534836D01*
X145372842Y-89458226D01*
X145296871Y-89406944D01*
X145288000Y-89405165D01*
X145288000Y-89027000D01*
X145262699Y-88899802D01*
X145258998Y-88881197D01*
X145225917Y-88831688D01*
X145176408Y-88757592D01*
X145176405Y-88757590D01*
X143921816Y-87503000D01*
X143987184Y-87503000D01*
X145796000Y-89311816D01*
X145796000Y-89404637D01*
X145789836Y-89405833D01*
X145713226Y-89456158D01*
X145661944Y-89532129D01*
X145643921Y-89622000D01*
X145643921Y-91222000D01*
X145660833Y-91309164D01*
X145711158Y-91385774D01*
X145787129Y-91437056D01*
X145877000Y-91455079D01*
X146477000Y-91455079D01*
X146564164Y-91438167D01*
X146640774Y-91387842D01*
X146692056Y-91311871D01*
X146710079Y-91222000D01*
X146710079Y-89622000D01*
X146693167Y-89534836D01*
X146642842Y-89458226D01*
X146566871Y-89406944D01*
X146558000Y-89405165D01*
X146558000Y-89154000D01*
X146532738Y-89027000D01*
X146528998Y-89008197D01*
X146446408Y-88884592D01*
X144414408Y-86852592D01*
X144290803Y-86770002D01*
X144145000Y-86741000D01*
X137444815Y-86741000D01*
X137160000Y-86456184D01*
X137160000Y-85090000D01*
X137132908Y-84953800D01*
X137130998Y-84944197D01*
X137048408Y-84820592D01*
X136227616Y-83999800D01*
X137818850Y-83999800D01*
X137672800Y-84145850D01*
X137672800Y-84738204D01*
X137761739Y-84952922D01*
X137926077Y-85117261D01*
X138140795Y-85206200D01*
X138260950Y-85206200D01*
X138407000Y-85060150D01*
X138407000Y-83999800D01*
X138707000Y-83999800D01*
X138407000Y-83999800D01*
X138407000Y-83999800D01*
X138707000Y-83999800D01*
X138707000Y-85060150D01*
X138853050Y-85206200D01*
X138973205Y-85206200D01*
X143220795Y-85206200D01*
X143340950Y-85206200D01*
X143487000Y-85060150D01*
X143487000Y-83999800D01*
X143107150Y-83999800D01*
X143105150Y-83997800D01*
X142517000Y-83997800D01*
X142217000Y-83997800D01*
X142217000Y-83997800D01*
X142169200Y-83997800D01*
X142169200Y-83642200D01*
X142217000Y-83642200D01*
X142217000Y-82581850D01*
X142070950Y-82435800D01*
X142663050Y-82435800D01*
X142517000Y-82581850D01*
X142517000Y-83642200D01*
X142896850Y-83642200D01*
X142898850Y-83644200D01*
X143487000Y-83644200D01*
X143487000Y-82583850D01*
X143340950Y-82437800D01*
X143220795Y-82437800D01*
X143006077Y-82526739D01*
X143003000Y-82529816D01*
X142997923Y-82524739D01*
X142783205Y-82435800D01*
X142663050Y-82435800D01*
X142070950Y-82435800D01*
X142070950Y-82435800D01*
X141950795Y-82435800D01*
X141736077Y-82524739D01*
X141571739Y-82689078D01*
X141498856Y-82865034D01*
X141486871Y-82856944D01*
X141478000Y-82855165D01*
X141478000Y-82469182D01*
X141581211Y-82366151D01*
X141668400Y-82156177D01*
X141668599Y-81928820D01*
X141581776Y-81718694D01*
X141421151Y-81557789D01*
X141419791Y-81557224D01*
X172904694Y-81557224D01*
X172743789Y-81717849D01*
X172656600Y-81927823D01*
X172656401Y-82155180D01*
X172743224Y-82365306D01*
X172847000Y-82469263D01*
X172847000Y-82931637D01*
X172840836Y-82932833D01*
X172764226Y-82983158D01*
X172712944Y-83059129D01*
X172694921Y-83149000D01*
X172694921Y-84749000D01*
X172711833Y-84836164D01*
X172762158Y-84912774D01*
X172838129Y-84964056D01*
X172928000Y-84982079D01*
X173528000Y-84982079D01*
X173615164Y-84965167D01*
X173691774Y-84914842D01*
X173743056Y-84838871D01*
X173761079Y-84749000D01*
X173761079Y-83149000D01*
X173744167Y-83061836D01*
X173693842Y-82985226D01*
X173617871Y-82933944D01*
X173609000Y-82932165D01*
X173609000Y-82469182D01*
X173712211Y-82366151D01*
X173799400Y-82156177D01*
X173799599Y-81928820D01*
X173712776Y-81718694D01*
X173552151Y-81557789D01*
X173342177Y-81470600D01*
X173114820Y-81470401D01*
X172904694Y-81557224D01*
X141419791Y-81557224D01*
X141211177Y-81470600D01*
X140983820Y-81470401D01*
X140773694Y-81557224D01*
X140612789Y-81717849D01*
X140525600Y-81927823D01*
X140525401Y-82155180D01*
X140612224Y-82365306D01*
X140716000Y-82469263D01*
X140716000Y-82854637D01*
X140709836Y-82855833D01*
X140633226Y-82906158D01*
X140581944Y-82982129D01*
X140563921Y-83072000D01*
X140563921Y-84572000D01*
X140580833Y-84659164D01*
X140631158Y-84735774D01*
X140707129Y-84787056D01*
X140797000Y-84805079D01*
X141397000Y-84805079D01*
X141484164Y-84788167D01*
X141500012Y-84777757D01*
X141571739Y-84950922D01*
X141736077Y-85115261D01*
X141950795Y-85204200D01*
X142070950Y-85204200D01*
X142217000Y-85058150D01*
X142217000Y-83997800D01*
X142517000Y-83997800D01*
X142217000Y-83997800D01*
X142217000Y-83997800D01*
X142517000Y-83997800D01*
X142517000Y-85058150D01*
X142663050Y-85204200D01*
X142783205Y-85204200D01*
X142997923Y-85115261D01*
X143001000Y-85112184D01*
X143006077Y-85117261D01*
X143220795Y-85206200D01*
X138973205Y-85206200D01*
X138973205Y-85206200D01*
X139187923Y-85117261D01*
X139352261Y-84952922D01*
X139408312Y-84817604D01*
X139437129Y-84837056D01*
X139527000Y-84855079D01*
X140127000Y-84855079D01*
X140214164Y-84838167D01*
X140290774Y-84787842D01*
X140342056Y-84711871D01*
X140360079Y-84622000D01*
X140360079Y-83022000D01*
X140343167Y-82934836D01*
X140292842Y-82858226D01*
X140216871Y-82806944D01*
X140127000Y-82788921D01*
X139527000Y-82788921D01*
X139439836Y-82805833D01*
X139408359Y-82826510D01*
X139352261Y-82691078D01*
X139187923Y-82526739D01*
X138973205Y-82437800D01*
X138853050Y-82437800D01*
X138260950Y-82437800D01*
X138260950Y-82437800D01*
X138140795Y-82437800D01*
X137926077Y-82526739D01*
X137761739Y-82691078D01*
X137672800Y-82905796D01*
X137672800Y-83498150D01*
X137818850Y-83644200D01*
X138407000Y-83644200D01*
X138407000Y-82583850D01*
X138260950Y-82437800D01*
X138853050Y-82437800D01*
X138260950Y-82437800D01*
X138260950Y-82437800D01*
X138853050Y-82437800D01*
X138707000Y-82583850D01*
X138707000Y-83644200D01*
X138754800Y-83644200D01*
X138754800Y-83999800D01*
X138707000Y-83999800D01*
X138407000Y-83999800D01*
X138407000Y-83999800D01*
X137818850Y-83999800D01*
X136227616Y-83999800D01*
X135778408Y-83550592D01*
X135683079Y-83486895D01*
X135683079Y-83170000D01*
X135666167Y-83082836D01*
X135615842Y-83006226D01*
X135539871Y-82954944D01*
X135450000Y-82936921D01*
X133950000Y-82936921D01*
X132750000Y-82936921D01*
X132750000Y-82936921D01*
X131250000Y-82936921D01*
X131162836Y-82953833D01*
X131086226Y-83004158D01*
X131034944Y-83080129D01*
X131016921Y-83170000D01*
X131016921Y-83439000D01*
X129667000Y-83439000D01*
X129521197Y-83468002D01*
X129397592Y-83550592D01*
X128366184Y-84582000D01*
X127920909Y-84582000D01*
X127963774Y-84553842D01*
X128015056Y-84477871D01*
X128033079Y-84388000D01*
X128033079Y-83863000D01*
X128031000Y-83852285D01*
X128031000Y-83073005D01*
X128031001Y-83073000D01*
X128001998Y-82927198D01*
X127919408Y-82803592D01*
X127269408Y-82153592D01*
X127145803Y-82071002D01*
X127000000Y-82042000D01*
X122809000Y-82042000D01*
X122663197Y-82071002D01*
X122613688Y-82104083D01*
X122539592Y-82153592D01*
X122539590Y-82153595D01*
X121254184Y-83439000D01*
X120629079Y-83439000D01*
X120629079Y-82956400D01*
X120612167Y-82869236D01*
X120561842Y-82792626D01*
X120485871Y-82741344D01*
X120396000Y-82723321D01*
X118364000Y-82723321D01*
X118276836Y-82740233D01*
X118200226Y-82790558D01*
X118148944Y-82866529D01*
X118130921Y-82956400D01*
X118130921Y-84683600D01*
X118147833Y-84770764D01*
X118198158Y-84847374D01*
X118274129Y-84898656D01*
X118364000Y-84916679D01*
X120396000Y-84916679D01*
X120483164Y-84899767D01*
X120559774Y-84849442D01*
X120611056Y-84773471D01*
X120629079Y-84683600D01*
X120629079Y-84256750D01*
X125761850Y-84256750D01*
X125615800Y-84402800D01*
X125615800Y-84504204D01*
X125704739Y-84718922D01*
X125869077Y-84883261D01*
X126083795Y-84972200D01*
X126128950Y-84972200D01*
X126275000Y-84826150D01*
X126275000Y-84256750D01*
X125761850Y-84256750D01*
X120629079Y-84256750D01*
X120629079Y-84201000D01*
X121412000Y-84201000D01*
X121557803Y-84171998D01*
X121681408Y-84089408D01*
X122492015Y-83278800D01*
X126083795Y-83278800D01*
X125869077Y-83367739D01*
X125704739Y-83532078D01*
X125615800Y-83746796D01*
X125615800Y-83848200D01*
X125761850Y-83994250D01*
X126275000Y-83994250D01*
X126275000Y-83424850D01*
X126128950Y-83278800D01*
X126083795Y-83278800D01*
X122492015Y-83278800D01*
X122966815Y-82804000D01*
X126842184Y-82804000D01*
X127269000Y-83230816D01*
X127269000Y-83667607D01*
X127239871Y-83647944D01*
X127150000Y-83629921D01*
X127035789Y-83629921D01*
X126995261Y-83532078D01*
X126830923Y-83367739D01*
X126616205Y-83278800D01*
X126571050Y-83278800D01*
X126425000Y-83424850D01*
X126425000Y-83994250D01*
X126500000Y-83994250D01*
X126500000Y-84256750D01*
X126425000Y-84256750D01*
X126425000Y-84826150D01*
X126571050Y-84972200D01*
X126616205Y-84972200D01*
X126702547Y-84936436D01*
X126730592Y-84978408D01*
X126984592Y-85232408D01*
X126992154Y-85237461D01*
X126964211Y-85304921D01*
X126850000Y-85304921D01*
X126762836Y-85321833D01*
X126686226Y-85372158D01*
X126675207Y-85388482D01*
X126665842Y-85374226D01*
X126589871Y-85322944D01*
X126500000Y-85304921D01*
X126200000Y-85304921D01*
X126112836Y-85321833D01*
X126036226Y-85372158D01*
X126004269Y-85419500D01*
X122098500Y-85419500D01*
X121952698Y-85448502D01*
X121829092Y-85531092D01*
X121829090Y-85531095D01*
X121381184Y-85979000D01*
X120573197Y-85979000D01*
X120565844Y-85942033D01*
X120329085Y-85587698D01*
X119974750Y-85350939D01*
X119556783Y-85267800D01*
X119203217Y-85267800D01*
X118785250Y-85350939D01*
X118430915Y-85587698D01*
X118194156Y-85942033D01*
X118111017Y-86360000D01*
X118194156Y-86777967D01*
X118430915Y-87132302D01*
X118785250Y-87369061D01*
X119203217Y-87452200D01*
X119556783Y-87452200D01*
X119974750Y-87369061D01*
X120329085Y-87132302D01*
X120565844Y-86777967D01*
X120573197Y-86741000D01*
X121539000Y-86741000D01*
X121684803Y-86711998D01*
X121808408Y-86629408D01*
X122256315Y-86181500D01*
X126004418Y-86181500D01*
X126034158Y-86226774D01*
X126110129Y-86278056D01*
X126200000Y-86296079D01*
X126500000Y-86296079D01*
X126587164Y-86279167D01*
X126619000Y-86258254D01*
X126619000Y-86741000D01*
X126648002Y-86886803D01*
X126730592Y-87010408D01*
X126857592Y-87137408D01*
X126981197Y-87219998D01*
X127127000Y-87249000D01*
X130048000Y-87249000D01*
X130193803Y-87219998D01*
X130317408Y-87137408D01*
X130713815Y-86741000D01*
X131016921Y-86741000D01*
X131016921Y-87010000D01*
X131033833Y-87097164D01*
X131084158Y-87173774D01*
X131160129Y-87225056D01*
X131250000Y-87243079D01*
X132750000Y-87243079D01*
X132837164Y-87226167D01*
X132913774Y-87175842D01*
X132965056Y-87099871D01*
X132983079Y-87010000D01*
X132983079Y-85710000D01*
X132966167Y-85622836D01*
X132915842Y-85546226D01*
X132839871Y-85494944D01*
X132750000Y-85476921D01*
X131250000Y-85476921D01*
X131162836Y-85493833D01*
X131086226Y-85544158D01*
X131034944Y-85620129D01*
X131016921Y-85710000D01*
X131016921Y-85979000D01*
X130556000Y-85979000D01*
X130410198Y-86008002D01*
X130286592Y-86090592D01*
X130286590Y-86090595D01*
X129890184Y-86487000D01*
X128202184Y-86487000D01*
X128295261Y-86393922D01*
X128384200Y-86179204D01*
X128384200Y-86077800D01*
X128238150Y-85931750D01*
X127725000Y-85931750D01*
X127725000Y-85998300D01*
X127575000Y-85998300D01*
X127575000Y-85931750D01*
X127500000Y-85931750D01*
X127500000Y-85669250D01*
X127575000Y-85669250D01*
X127575000Y-85602700D01*
X127725000Y-85602700D01*
X127725000Y-85669250D01*
X128238150Y-85669250D01*
X128384200Y-85523200D01*
X128384200Y-85421796D01*
X128351976Y-85344000D01*
X128524000Y-85344000D01*
X128669803Y-85314998D01*
X128793408Y-85232408D01*
X129824816Y-84201000D01*
X131016921Y-84201000D01*
X131016921Y-84470000D01*
X131033833Y-84557164D01*
X131084158Y-84633774D01*
X131160129Y-84685056D01*
X131250000Y-84703079D01*
X132750000Y-84703079D01*
X132837164Y-84686167D01*
X132913774Y-84635842D01*
X132965056Y-84559871D01*
X132983079Y-84470000D01*
X132983079Y-83170000D01*
X132966167Y-83082836D01*
X132915842Y-83006226D01*
X132839871Y-82954944D01*
X132750000Y-82936921D01*
X133950000Y-82936921D01*
X132750000Y-82936921D01*
X132750000Y-82936921D01*
X133950000Y-82936921D01*
X133862836Y-82953833D01*
X133786226Y-83004158D01*
X133734944Y-83080129D01*
X133716921Y-83170000D01*
X133716921Y-84470000D01*
X133733833Y-84557164D01*
X133784158Y-84633774D01*
X133860129Y-84685056D01*
X133950000Y-84703079D01*
X135450000Y-84703079D01*
X135537164Y-84686167D01*
X135613774Y-84635842D01*
X135665056Y-84559871D01*
X135672573Y-84522389D01*
X136398000Y-85247816D01*
X136398000Y-86456184D01*
X136032408Y-86090592D01*
X135908803Y-86008002D01*
X135763000Y-85979000D01*
X135683079Y-85979000D01*
X135683079Y-85710000D01*
X135666167Y-85622836D01*
X135615842Y-85546226D01*
X135539871Y-85494944D01*
X135450000Y-85476921D01*
X133950000Y-85476921D01*
X133862836Y-85493833D01*
X133786226Y-85544158D01*
X133734944Y-85620129D01*
X133716921Y-85710000D01*
X133716921Y-87010000D01*
X133733833Y-87097164D01*
X133784158Y-87173774D01*
X133860129Y-87225056D01*
X133950000Y-87243079D01*
X135450000Y-87243079D01*
X135537164Y-87226167D01*
X135613774Y-87175842D01*
X135665056Y-87099871D01*
X135683079Y-87010000D01*
X135683079Y-86818895D01*
X136763592Y-87899408D01*
X127808224Y-87899408D01*
X127523408Y-87614592D01*
X127399803Y-87532002D01*
X127254000Y-87503000D01*
X124587000Y-87503000D01*
X117068600Y-87503000D01*
X117068600Y-79531002D01*
X191878198Y-79531002D01*
X191754592Y-79613592D01*
X191754590Y-79613595D01*
X190209263Y-81158921D01*
X189703000Y-81158921D01*
X189615836Y-81175833D01*
X189539226Y-81226158D01*
X189487944Y-81302129D01*
X189469921Y-81392000D01*
X189469921Y-82692000D01*
X189486833Y-82779164D01*
X189537158Y-82855774D01*
X189613129Y-82907056D01*
X189703000Y-82925079D01*
X191203000Y-82925079D01*
X191290164Y-82908167D01*
X191366774Y-82857842D01*
X191418056Y-82781871D01*
X191436079Y-82692000D01*
X191436079Y-81392000D01*
X191419167Y-81304836D01*
X191368842Y-81228226D01*
X191292871Y-81176944D01*
X191272881Y-81172935D01*
X192181815Y-80264000D01*
X200375184Y-80264000D01*
X200680921Y-80569737D01*
X200680921Y-82143600D01*
X200697833Y-82230764D01*
X200748158Y-82307374D01*
X200824129Y-82358656D01*
X200914000Y-82376679D01*
X202946000Y-82376679D01*
X203033164Y-82359767D01*
X203109774Y-82309442D01*
X203161056Y-82233471D01*
X203179079Y-82143600D01*
X203179079Y-80416400D01*
X203162167Y-80329236D01*
X203111842Y-80252626D01*
X203035871Y-80201344D01*
X202946000Y-80183321D01*
X201372137Y-80183321D01*
X200802408Y-79613592D01*
X200678803Y-79531002D01*
X200533000Y-79502000D01*
X192024005Y-79502000D01*
X192024000Y-79501999D01*
X191878198Y-79531002D01*
X117068600Y-79531002D01*
X117068600Y-78968600D01*
X140970000Y-78968600D01*
X141543489Y-78854526D01*
X141600848Y-78816200D01*
X146562152Y-78816200D01*
X146619511Y-78854526D01*
X146619511Y-78854526D01*
G37*
X146619511Y-78854526D02*
X147193000Y-78968600D01*
X175133000Y-78968600D01*
X175706489Y-78854526D01*
X175763848Y-78816200D01*
X180979152Y-78816200D01*
X181036511Y-78854526D01*
X181610000Y-78968600D01*
X205511400Y-78968600D01*
X205511400Y-98831400D01*
X117068600Y-98831400D01*
X117068600Y-98247200D01*
X150346603Y-98247200D01*
X150389397Y-98247200D01*
X150807364Y-98164061D01*
X151161699Y-97927302D01*
X151398458Y-97572967D01*
X151460200Y-97262570D01*
X151460200Y-97332802D01*
X151618449Y-97332802D01*
X151516663Y-97555382D01*
X151641052Y-97855719D01*
X152005646Y-98287220D01*
X152507615Y-98546351D01*
X152730200Y-98445805D01*
X152730200Y-97332800D01*
X153085800Y-97332800D01*
X153085800Y-98445805D01*
X153308385Y-98546351D01*
X153810354Y-98287220D01*
X154173558Y-97857363D01*
X179510470Y-97857363D01*
X179939618Y-98063737D01*
X180162200Y-97961950D01*
X180162200Y-96697800D01*
X180517800Y-96697800D01*
X180162200Y-96697800D01*
X180162200Y-96697800D01*
X180517800Y-96697800D01*
X180517800Y-97961950D01*
X180740382Y-98063737D01*
X181169530Y-97857363D01*
X181559852Y-97449716D01*
X181764462Y-96923729D01*
X181690580Y-96789408D01*
X190484592Y-96789408D01*
X190608198Y-96871998D01*
X190754000Y-96901001D01*
X190754005Y-96901000D01*
X200736803Y-96901000D01*
X200744156Y-96937967D01*
X200980915Y-97292302D01*
X201335250Y-97529061D01*
X201753217Y-97612200D01*
X202106783Y-97612200D01*
X202524750Y-97529061D01*
X202879085Y-97292302D01*
X203115844Y-96937967D01*
X203198983Y-96520000D01*
X203115844Y-96102033D01*
X202879085Y-95747698D01*
X202524750Y-95510939D01*
X202106783Y-95427800D01*
X201753217Y-95427800D01*
X201335250Y-95510939D01*
X200980915Y-95747698D01*
X200744156Y-96102033D01*
X200736803Y-96139000D01*
X190911816Y-96139000D01*
X189118408Y-94345592D01*
X188994803Y-94263002D01*
X188849000Y-94234000D01*
X188388079Y-94234000D01*
X188388079Y-93965000D01*
X188371167Y-93877836D01*
X188320842Y-93801226D01*
X188244871Y-93749944D01*
X188155000Y-93731921D01*
X186655000Y-93731921D01*
X185455000Y-93731921D01*
X185455000Y-93731921D01*
X185086000Y-93731921D01*
X185086000Y-90628815D01*
X186166590Y-91709405D01*
X186166592Y-91709408D01*
X186231833Y-91753000D01*
X186290198Y-91791998D01*
X186436000Y-91821001D01*
X186436005Y-91821000D01*
X186896921Y-91821000D01*
X186896921Y-92090000D01*
X186913833Y-92177164D01*
X186964158Y-92253774D01*
X187040129Y-92305056D01*
X187130000Y-92323079D01*
X188630000Y-92323079D01*
X188717164Y-92306167D01*
X188793774Y-92255842D01*
X188845056Y-92179871D01*
X188863079Y-92090000D01*
X188863079Y-90790000D01*
X188846167Y-90702836D01*
X188795842Y-90626226D01*
X188719871Y-90574944D01*
X188630000Y-90556921D01*
X189830000Y-90556921D01*
X189742836Y-90573833D01*
X189666226Y-90624158D01*
X189614944Y-90700129D01*
X189596921Y-90790000D01*
X189596921Y-92090000D01*
X189613833Y-92177164D01*
X189664158Y-92253774D01*
X189740129Y-92305056D01*
X189830000Y-92323079D01*
X191330000Y-92323079D01*
X191417164Y-92306167D01*
X191493774Y-92255842D01*
X191545056Y-92179871D01*
X191563079Y-92090000D01*
X191563079Y-91821000D01*
X195803184Y-91821000D01*
X198231590Y-94249405D01*
X198231592Y-94249408D01*
X198355198Y-94331998D01*
X198501000Y-94361000D01*
X200736803Y-94361000D01*
X200744156Y-94397967D01*
X200980915Y-94752302D01*
X201335250Y-94989061D01*
X201753217Y-95072200D01*
X202106783Y-95072200D01*
X202524750Y-94989061D01*
X202879085Y-94752302D01*
X203115844Y-94397967D01*
X203198983Y-93980000D01*
X203115844Y-93562033D01*
X202879085Y-93207698D01*
X202524750Y-92970939D01*
X202106783Y-92887800D01*
X201753217Y-92887800D01*
X201335250Y-92970939D01*
X200980915Y-93207698D01*
X200744156Y-93562033D01*
X200736803Y-93599000D01*
X198658815Y-93599000D01*
X196230408Y-91170592D01*
X196106803Y-91088002D01*
X195961000Y-91059000D01*
X191563079Y-91059000D01*
X191563079Y-90790000D01*
X191546167Y-90702836D01*
X191495842Y-90626226D01*
X191419871Y-90574944D01*
X191330000Y-90556921D01*
X189830000Y-90556921D01*
X188630000Y-90556921D01*
X188630000Y-90556921D01*
X187130000Y-90556921D01*
X187042836Y-90573833D01*
X186966226Y-90624158D01*
X186914944Y-90700129D01*
X186896921Y-90790000D01*
X186896921Y-91059000D01*
X186593815Y-91059000D01*
X184942816Y-89408000D01*
X186896921Y-89408000D01*
X186896921Y-89677000D01*
X186913833Y-89764164D01*
X186964158Y-89840774D01*
X187040129Y-89892056D01*
X187130000Y-89910079D01*
X188630000Y-89910079D01*
X188717164Y-89893167D01*
X188793774Y-89842842D01*
X188845056Y-89766871D01*
X188863079Y-89677000D01*
X188863079Y-88377000D01*
X188846167Y-88289836D01*
X188795842Y-88213226D01*
X188719871Y-88161944D01*
X188630000Y-88143921D01*
X189830000Y-88143921D01*
X189742836Y-88160833D01*
X189666226Y-88211158D01*
X189614944Y-88287129D01*
X189596921Y-88377000D01*
X189596921Y-89677000D01*
X189613833Y-89764164D01*
X189664158Y-89840774D01*
X189740129Y-89892056D01*
X189830000Y-89910079D01*
X191330000Y-89910079D01*
X191417164Y-89893167D01*
X191493774Y-89842842D01*
X191545056Y-89766871D01*
X191563079Y-89677000D01*
X191563079Y-89408000D01*
X194533184Y-89408000D01*
X196834590Y-91709405D01*
X196834592Y-91709408D01*
X196896614Y-91750849D01*
X196958197Y-91791998D01*
X197104000Y-91821000D01*
X200736803Y-91821000D01*
X200744156Y-91857967D01*
X200980915Y-92212302D01*
X201335250Y-92449061D01*
X201753217Y-92532200D01*
X202106783Y-92532200D01*
X202524750Y-92449061D01*
X202879085Y-92212302D01*
X203115844Y-91857967D01*
X203198983Y-91440000D01*
X203115844Y-91022033D01*
X202879085Y-90667698D01*
X202524750Y-90430939D01*
X202106783Y-90347800D01*
X201753217Y-90347800D01*
X201335250Y-90430939D01*
X200980915Y-90667698D01*
X200744156Y-91022033D01*
X200736803Y-91059000D01*
X197261815Y-91059000D01*
X194960408Y-88757592D01*
X194836803Y-88675002D01*
X194691000Y-88646000D01*
X191563079Y-88646000D01*
X191563079Y-88377000D01*
X191546167Y-88289836D01*
X191495842Y-88213226D01*
X191419871Y-88161944D01*
X191330000Y-88143921D01*
X189830000Y-88143921D01*
X188630000Y-88143921D01*
X188630000Y-88143921D01*
X187928870Y-88143921D01*
X187880000Y-88134200D01*
X187831130Y-88143921D01*
X187130000Y-88143921D01*
X187042836Y-88160833D01*
X186966226Y-88211158D01*
X186914944Y-88287129D01*
X186896921Y-88377000D01*
X186896921Y-88646000D01*
X185069815Y-88646000D01*
X184531000Y-88107184D01*
X184531000Y-86644816D01*
X185150590Y-87264405D01*
X185150592Y-87264408D01*
X185260022Y-87337526D01*
X185274198Y-87346998D01*
X185420000Y-87376001D01*
X185420005Y-87376000D01*
X192611921Y-87376000D01*
X192611921Y-87645000D01*
X192628833Y-87732164D01*
X192679158Y-87808774D01*
X192755129Y-87860056D01*
X192845000Y-87878079D01*
X194345000Y-87878079D01*
X194432164Y-87861167D01*
X194508774Y-87810842D01*
X194560056Y-87734871D01*
X194578079Y-87645000D01*
X194578079Y-86345000D01*
X194561167Y-86257836D01*
X194510842Y-86181226D01*
X194434871Y-86129944D01*
X194345000Y-86111921D01*
X195545000Y-86111921D01*
X195457836Y-86128833D01*
X195381226Y-86179158D01*
X195329944Y-86255129D01*
X195311921Y-86345000D01*
X195311921Y-87645000D01*
X195328833Y-87732164D01*
X195379158Y-87808774D01*
X195455129Y-87860056D01*
X195545000Y-87878079D01*
X197045000Y-87878079D01*
X197132164Y-87861167D01*
X197208774Y-87810842D01*
X197260056Y-87734871D01*
X197278079Y-87645000D01*
X197278079Y-87376000D01*
X197454184Y-87376000D01*
X199247592Y-89169408D01*
X199371198Y-89251998D01*
X199517000Y-89281001D01*
X199517005Y-89281000D01*
X200736803Y-89281000D01*
X200744156Y-89317967D01*
X200980915Y-89672302D01*
X201335250Y-89909061D01*
X201753217Y-89992200D01*
X202106783Y-89992200D01*
X202524750Y-89909061D01*
X202879085Y-89672302D01*
X203115844Y-89317967D01*
X203198983Y-88900000D01*
X203115844Y-88482033D01*
X202879085Y-88127698D01*
X202524750Y-87890939D01*
X202106783Y-87807800D01*
X201753217Y-87807800D01*
X201335250Y-87890939D01*
X200980915Y-88127698D01*
X200744156Y-88482033D01*
X200736803Y-88519000D01*
X199674816Y-88519000D01*
X197881408Y-86725592D01*
X197757803Y-86643002D01*
X197612000Y-86614000D01*
X197278079Y-86614000D01*
X197278079Y-86345000D01*
X197261167Y-86257836D01*
X197210842Y-86181226D01*
X197134871Y-86129944D01*
X197045000Y-86111921D01*
X195545000Y-86111921D01*
X194345000Y-86111921D01*
X194345000Y-86111921D01*
X192845000Y-86111921D01*
X192757836Y-86128833D01*
X192681226Y-86179158D01*
X192629944Y-86255129D01*
X192611921Y-86345000D01*
X192611921Y-86614000D01*
X185577815Y-86614000D01*
X185039000Y-86075184D01*
X185039000Y-85120816D01*
X185658590Y-85740405D01*
X185658592Y-85740408D01*
X185734555Y-85791164D01*
X185782198Y-85822998D01*
X185928000Y-85852001D01*
X185928005Y-85852000D01*
X187023921Y-85852000D01*
X187023921Y-86121000D01*
X187040833Y-86208164D01*
X187091158Y-86284774D01*
X187167129Y-86336056D01*
X187257000Y-86354079D01*
X188757000Y-86354079D01*
X188844164Y-86337167D01*
X188920774Y-86286842D01*
X188972056Y-86210871D01*
X188990079Y-86121000D01*
X188990079Y-84821000D01*
X188973167Y-84733836D01*
X188922842Y-84657226D01*
X188846871Y-84605944D01*
X188757000Y-84587921D01*
X189957000Y-84587921D01*
X189869836Y-84604833D01*
X189793226Y-84655158D01*
X189741944Y-84731129D01*
X189723921Y-84821000D01*
X189723921Y-86121000D01*
X189740833Y-86208164D01*
X189791158Y-86284774D01*
X189867129Y-86336056D01*
X189957000Y-86354079D01*
X191457000Y-86354079D01*
X191544164Y-86337167D01*
X191620774Y-86286842D01*
X191672056Y-86210871D01*
X191690079Y-86121000D01*
X191690079Y-85852000D01*
X198724184Y-85852000D01*
X199501592Y-86629408D01*
X199625198Y-86711998D01*
X199771000Y-86741001D01*
X199771005Y-86741000D01*
X200736803Y-86741000D01*
X200744156Y-86777967D01*
X200980915Y-87132302D01*
X201335250Y-87369061D01*
X201753217Y-87452200D01*
X202106783Y-87452200D01*
X202524750Y-87369061D01*
X202879085Y-87132302D01*
X203115844Y-86777967D01*
X203198983Y-86360000D01*
X203115844Y-85942033D01*
X202879085Y-85587698D01*
X202524750Y-85350939D01*
X202106783Y-85267800D01*
X201753217Y-85267800D01*
X201335250Y-85350939D01*
X200980915Y-85587698D01*
X200744156Y-85942033D01*
X200736803Y-85979000D01*
X199928816Y-85979000D01*
X199151408Y-85201592D01*
X199027803Y-85119002D01*
X198882000Y-85090000D01*
X191690079Y-85090000D01*
X191690079Y-84821000D01*
X191673167Y-84733836D01*
X191622842Y-84657226D01*
X191546871Y-84605944D01*
X191457000Y-84587921D01*
X189957000Y-84587921D01*
X188757000Y-84587921D01*
X188757000Y-84587921D01*
X187257000Y-84587921D01*
X187169836Y-84604833D01*
X187093226Y-84655158D01*
X187041944Y-84731129D01*
X187023921Y-84821000D01*
X187023921Y-85090000D01*
X186085815Y-85090000D01*
X185547000Y-84551184D01*
X185547000Y-83596816D01*
X185912590Y-83962405D01*
X185912592Y-83962408D01*
X186036198Y-84044998D01*
X186182000Y-84074000D01*
X191817000Y-84074000D01*
X191962803Y-84044998D01*
X192086408Y-83962408D01*
X193123736Y-82925079D01*
X194218000Y-82925079D01*
X194305164Y-82908167D01*
X194381774Y-82857842D01*
X194433056Y-82781871D01*
X194451079Y-82692000D01*
X194451079Y-81392000D01*
X194434167Y-81304836D01*
X194383842Y-81228226D01*
X194307871Y-81176944D01*
X194218000Y-81158921D01*
X195418000Y-81158921D01*
X195330836Y-81175833D01*
X195254226Y-81226158D01*
X195202944Y-81302129D01*
X195184921Y-81392000D01*
X195184921Y-82692000D01*
X195201833Y-82779164D01*
X195252158Y-82855774D01*
X195328129Y-82907056D01*
X195418000Y-82925079D01*
X196918000Y-82925079D01*
X197005164Y-82908167D01*
X197081774Y-82857842D01*
X197133056Y-82781871D01*
X197151079Y-82692000D01*
X197151079Y-82500895D01*
X198739590Y-84089405D01*
X198739592Y-84089408D01*
X198863198Y-84171998D01*
X199009000Y-84201001D01*
X199009005Y-84201000D01*
X200736803Y-84201000D01*
X200744156Y-84237967D01*
X200980915Y-84592302D01*
X201335250Y-84829061D01*
X201753217Y-84912200D01*
X202106783Y-84912200D01*
X202524750Y-84829061D01*
X202879085Y-84592302D01*
X203115844Y-84237967D01*
X203198983Y-83820000D01*
X203115844Y-83402033D01*
X202879085Y-83047698D01*
X202524750Y-82810939D01*
X202106783Y-82727800D01*
X201753217Y-82727800D01*
X201335250Y-82810939D01*
X200980915Y-83047698D01*
X200744156Y-83402033D01*
X200736803Y-83439000D01*
X199166815Y-83439000D01*
X197500408Y-81772592D01*
X197376803Y-81690002D01*
X197231000Y-81661000D01*
X197151079Y-81661000D01*
X197151079Y-81392000D01*
X197134167Y-81304836D01*
X197083842Y-81228226D01*
X197007871Y-81176944D01*
X196918000Y-81158921D01*
X195418000Y-81158921D01*
X194218000Y-81158921D01*
X194218000Y-81158921D01*
X192718000Y-81158921D01*
X192630836Y-81175833D01*
X192554226Y-81226158D01*
X192502944Y-81302129D01*
X192484921Y-81392000D01*
X192484921Y-82486264D01*
X191659184Y-83312000D01*
X186339815Y-83312000D01*
X186055000Y-83027184D01*
X186055000Y-81915000D01*
X186029738Y-81788000D01*
X186025998Y-81769197D01*
X185973081Y-81690002D01*
X185943408Y-81645592D01*
X185943405Y-81645590D01*
X184688816Y-80391000D01*
X186024184Y-80391000D01*
X186851367Y-81218183D01*
X186839226Y-81226158D01*
X186787944Y-81302129D01*
X186769921Y-81392000D01*
X186769921Y-82692000D01*
X186786833Y-82779164D01*
X186837158Y-82855774D01*
X186913129Y-82907056D01*
X187003000Y-82925079D01*
X188503000Y-82925079D01*
X188590164Y-82908167D01*
X188666774Y-82857842D01*
X188718056Y-82781871D01*
X188736079Y-82692000D01*
X188736079Y-81392000D01*
X188719167Y-81304836D01*
X188668842Y-81228226D01*
X188592871Y-81176944D01*
X188503000Y-81158921D01*
X187869736Y-81158921D01*
X186451408Y-79740592D01*
X186327803Y-79658002D01*
X186182000Y-79629000D01*
X176149005Y-79629000D01*
X176149000Y-79628999D01*
X176003198Y-79658002D01*
X175879592Y-79740592D01*
X175879590Y-79740595D01*
X174228592Y-81391592D01*
X174146002Y-81515197D01*
X174146002Y-81515198D01*
X174117000Y-81661000D01*
X174117000Y-82931637D01*
X174110836Y-82932833D01*
X174034226Y-82983158D01*
X173982944Y-83059129D01*
X173964921Y-83149000D01*
X173964921Y-84749000D01*
X173981833Y-84836164D01*
X174032158Y-84912774D01*
X174108129Y-84964056D01*
X174198000Y-84982079D01*
X174798000Y-84982079D01*
X174885164Y-84965167D01*
X174961774Y-84914842D01*
X175013056Y-84838871D01*
X175031079Y-84749000D01*
X175031079Y-83149000D01*
X175014167Y-83061836D01*
X174963842Y-82985226D01*
X174887871Y-82933944D01*
X174879000Y-82932165D01*
X174879000Y-81818816D01*
X176306815Y-80391000D01*
X177896185Y-80391000D01*
X175498592Y-82788592D01*
X175416002Y-82912197D01*
X175413144Y-82926564D01*
X175380836Y-82932833D01*
X175304226Y-82983158D01*
X175252944Y-83059129D01*
X175234921Y-83149000D01*
X175234921Y-84749000D01*
X175251833Y-84836164D01*
X175302158Y-84912774D01*
X175378129Y-84964056D01*
X175468000Y-84982079D01*
X176068000Y-84982079D01*
X176155164Y-84965167D01*
X176231774Y-84914842D01*
X176283056Y-84838871D01*
X176301079Y-84749000D01*
X176301079Y-83149000D01*
X176287224Y-83077592D01*
X178465815Y-80899000D01*
X178658184Y-80899000D01*
X176768592Y-82788592D01*
X176686002Y-82912197D01*
X176683144Y-82926564D01*
X176650836Y-82932833D01*
X176574226Y-82983158D01*
X176522944Y-83059129D01*
X176504921Y-83149000D01*
X176504921Y-84749000D01*
X176521833Y-84836164D01*
X176572158Y-84912774D01*
X176648129Y-84964056D01*
X176738000Y-84982079D01*
X177338000Y-84982079D01*
X177425164Y-84965167D01*
X177501774Y-84914842D01*
X177553056Y-84838871D01*
X177571079Y-84749000D01*
X177571079Y-83149000D01*
X177557224Y-83077592D01*
X179227816Y-81407000D01*
X179293185Y-81407000D01*
X178038592Y-82661592D01*
X177956002Y-82785197D01*
X177944144Y-82844810D01*
X177927000Y-82931000D01*
X177927000Y-82931637D01*
X177920836Y-82932833D01*
X177844226Y-82983158D01*
X177792944Y-83059129D01*
X177774921Y-83149000D01*
X177774921Y-84749000D01*
X177791833Y-84836164D01*
X177842158Y-84912774D01*
X177918129Y-84964056D01*
X178008000Y-84982079D01*
X178608000Y-84982079D01*
X178695164Y-84965167D01*
X178771774Y-84914842D01*
X178823056Y-84838871D01*
X178841079Y-84749000D01*
X178841079Y-83149000D01*
X178824167Y-83061836D01*
X178781275Y-82996541D01*
X179862815Y-81915000D01*
X180563185Y-81915000D01*
X179562263Y-82915921D01*
X179278000Y-82915921D01*
X179190836Y-82932833D01*
X179114226Y-82983158D01*
X179062944Y-83059129D01*
X179044921Y-83149000D01*
X179044921Y-84749000D01*
X179061833Y-84836164D01*
X179112158Y-84912774D01*
X179188129Y-84964056D01*
X179278000Y-84982079D01*
X179878000Y-84982079D01*
X179965164Y-84965167D01*
X180041774Y-84914842D01*
X180093056Y-84838871D01*
X180111079Y-84749000D01*
X180111079Y-83444737D01*
X180314921Y-83240895D01*
X180314921Y-84749000D01*
X180331833Y-84836164D01*
X180382158Y-84912774D01*
X180458129Y-84964056D01*
X180548000Y-84982079D01*
X181148000Y-84982079D01*
X181235164Y-84965167D01*
X181311774Y-84914842D01*
X181363056Y-84838871D01*
X181381079Y-84749000D01*
X181381079Y-83149000D01*
X181364167Y-83061836D01*
X181321275Y-82996541D01*
X181361413Y-82956402D01*
X181694957Y-82956402D01*
X181654226Y-82983158D01*
X181602944Y-83059129D01*
X181584921Y-83149000D01*
X181584921Y-84749000D01*
X181601833Y-84836164D01*
X181652158Y-84912774D01*
X181728129Y-84964056D01*
X181818000Y-84982079D01*
X181979263Y-84982079D01*
X182753000Y-85755816D01*
X182753000Y-88900000D01*
X182782002Y-89045803D01*
X182864592Y-89169408D01*
X184324000Y-90628815D01*
X184324000Y-93731921D01*
X183955000Y-93731921D01*
X183867836Y-93748833D01*
X183791226Y-93799158D01*
X183739944Y-93875129D01*
X183721921Y-93965000D01*
X183721921Y-95265000D01*
X183738833Y-95352164D01*
X183789158Y-95428774D01*
X183865129Y-95480056D01*
X183955000Y-95498079D01*
X185455000Y-95498079D01*
X185542164Y-95481167D01*
X185618774Y-95430842D01*
X185670056Y-95354871D01*
X185688079Y-95265000D01*
X185688079Y-93965000D01*
X185671167Y-93877836D01*
X185620842Y-93801226D01*
X185544871Y-93749944D01*
X185455000Y-93731921D01*
X186655000Y-93731921D01*
X185455000Y-93731921D01*
X185455000Y-93731921D01*
X186655000Y-93731921D01*
X186567836Y-93748833D01*
X186491226Y-93799158D01*
X186439944Y-93875129D01*
X186421921Y-93965000D01*
X186421921Y-95265000D01*
X186438833Y-95352164D01*
X186489158Y-95428774D01*
X186565129Y-95480056D01*
X186655000Y-95498079D01*
X188155000Y-95498079D01*
X188242164Y-95481167D01*
X188318774Y-95430842D01*
X188370056Y-95354871D01*
X188388079Y-95265000D01*
X188388079Y-94996000D01*
X188691184Y-94996000D01*
X190484592Y-96789408D01*
X181690580Y-96789408D01*
X181640191Y-96697800D01*
X180517800Y-96697800D01*
X180162200Y-96697800D01*
X180162200Y-96697800D01*
X179039809Y-96697800D01*
X178891997Y-96697800D01*
X178892200Y-96696783D01*
X178892200Y-96343217D01*
X178809061Y-95925250D01*
X178572302Y-95570915D01*
X178217967Y-95334156D01*
X177800000Y-95251017D01*
X177382033Y-95334156D01*
X177027698Y-95570915D01*
X176790939Y-95925250D01*
X176707800Y-96343217D01*
X176707800Y-96696783D01*
X176790939Y-97114750D01*
X177027698Y-97469085D01*
X177382033Y-97705844D01*
X177800000Y-97788983D01*
X178217967Y-97705844D01*
X178572302Y-97469085D01*
X178809061Y-97114750D01*
X178891997Y-96697800D01*
X179039809Y-96697800D01*
X178891997Y-96697800D01*
X178891997Y-96697800D01*
X179039809Y-96697800D01*
X178915538Y-96923729D01*
X179120148Y-97449716D01*
X179510470Y-97857363D01*
X154173558Y-97857363D01*
X154174948Y-97855719D01*
X154202587Y-97788983D01*
X172720000Y-97788983D01*
X173137967Y-97705844D01*
X173492302Y-97469085D01*
X173729061Y-97114750D01*
X173812200Y-96696783D01*
X173812200Y-96343217D01*
X173729061Y-95925250D01*
X173492302Y-95570915D01*
X173137967Y-95334156D01*
X174842033Y-95334156D01*
X173137967Y-95334156D01*
X173137967Y-95334156D01*
X174842033Y-95334156D01*
X174487698Y-95570915D01*
X174250939Y-95925250D01*
X174167800Y-96343217D01*
X174167800Y-96696783D01*
X174250939Y-97114750D01*
X174487698Y-97469085D01*
X174842033Y-97705844D01*
X175260000Y-97788983D01*
X175677967Y-97705844D01*
X176032302Y-97469085D01*
X176269061Y-97114750D01*
X176352200Y-96696783D01*
X176352200Y-96343217D01*
X176269061Y-95925250D01*
X176032302Y-95570915D01*
X175677967Y-95334156D01*
X175260000Y-95251017D01*
X174842033Y-95334156D01*
X173137967Y-95334156D01*
X173137967Y-95334156D01*
X172720000Y-95251017D01*
X172302033Y-95334156D01*
X171200450Y-95334156D01*
X171133471Y-95288944D01*
X171043600Y-95270921D01*
X169316400Y-95270921D01*
X169229236Y-95287833D01*
X169152626Y-95338158D01*
X169101344Y-95414129D01*
X169083321Y-95504000D01*
X169083321Y-97536000D01*
X169100233Y-97623164D01*
X169150558Y-97699774D01*
X169226529Y-97751056D01*
X169316400Y-97769079D01*
X171043600Y-97769079D01*
X171130764Y-97752167D01*
X171207374Y-97701842D01*
X171258656Y-97625871D01*
X171276679Y-97536000D01*
X171276679Y-95504000D01*
X171259767Y-95416836D01*
X171209442Y-95340226D01*
X171200450Y-95334156D01*
X172302033Y-95334156D01*
X171200450Y-95334156D01*
X171200450Y-95334156D01*
X172302033Y-95334156D01*
X171947698Y-95570915D01*
X171710939Y-95925250D01*
X171627800Y-96343217D01*
X171627800Y-96696783D01*
X171710939Y-97114750D01*
X171947698Y-97469085D01*
X172302033Y-97705844D01*
X172720000Y-97788983D01*
X154202587Y-97788983D01*
X154299337Y-97555382D01*
X154197550Y-97332800D01*
X153085800Y-97332800D01*
X152730200Y-97332800D01*
X152730200Y-97332800D01*
X152710200Y-97332800D01*
X152710200Y-96977200D01*
X152730200Y-96977200D01*
X152730200Y-96957200D01*
X153085800Y-96957200D01*
X153085800Y-96977200D01*
X154197550Y-96977200D01*
X154299337Y-96754618D01*
X154174948Y-96454281D01*
X154015861Y-96266000D01*
X164385000Y-96266000D01*
X164530803Y-96236998D01*
X164654408Y-96154408D01*
X165626179Y-95182637D01*
X179510470Y-95182637D01*
X179120148Y-95590284D01*
X178915538Y-96116271D01*
X179039809Y-96342200D01*
X180162200Y-96342200D01*
X180162200Y-95078050D01*
X180517800Y-95078050D01*
X180162200Y-95078050D01*
X180162200Y-95078050D01*
X180517800Y-95078050D01*
X180517800Y-96342200D01*
X181640191Y-96342200D01*
X181764462Y-96116271D01*
X181559852Y-95590284D01*
X181169530Y-95182637D01*
X180740382Y-94976263D01*
X180517800Y-95078050D01*
X180162200Y-95078050D01*
X180162200Y-95078050D01*
X179939618Y-94976263D01*
X179510470Y-95182637D01*
X165626179Y-95182637D01*
X167215737Y-93593079D01*
X168310000Y-93593079D01*
X168397164Y-93576167D01*
X168473774Y-93525842D01*
X168525056Y-93449871D01*
X168543079Y-93360000D01*
X168543079Y-92060000D01*
X168526167Y-91972836D01*
X168475842Y-91896226D01*
X168399871Y-91844944D01*
X168310000Y-91826921D01*
X169510000Y-91826921D01*
X169422836Y-91843833D01*
X169346226Y-91894158D01*
X169294944Y-91970129D01*
X169276921Y-92060000D01*
X169276921Y-93360000D01*
X169293833Y-93447164D01*
X169344158Y-93523774D01*
X169420129Y-93575056D01*
X169510000Y-93593079D01*
X171010000Y-93593079D01*
X171097164Y-93576167D01*
X171173774Y-93525842D01*
X171225056Y-93449871D01*
X171232573Y-93412389D01*
X171513529Y-93693345D01*
X171513401Y-93839180D01*
X171600224Y-94049306D01*
X171760849Y-94210211D01*
X171970823Y-94297400D01*
X172198180Y-94297599D01*
X172408306Y-94210776D01*
X172569211Y-94050151D01*
X172656400Y-93840177D01*
X172656599Y-93612820D01*
X172569776Y-93402694D01*
X172409151Y-93241789D01*
X172199177Y-93154600D01*
X172052287Y-93154471D01*
X171338408Y-92440592D01*
X171243079Y-92376895D01*
X171243079Y-92060000D01*
X171226167Y-91972836D01*
X171175842Y-91896226D01*
X171099871Y-91844944D01*
X171010000Y-91826921D01*
X169510000Y-91826921D01*
X168310000Y-91826921D01*
X168310000Y-91826921D01*
X166810000Y-91826921D01*
X166722836Y-91843833D01*
X166646226Y-91894158D01*
X166594944Y-91970129D01*
X166576921Y-92060000D01*
X166576921Y-92329000D01*
X166294219Y-92329000D01*
X166301056Y-92318871D01*
X166319079Y-92229000D01*
X166319079Y-91679000D01*
X166302167Y-91591836D01*
X166277328Y-91554023D01*
X166290169Y-91535000D01*
X171387184Y-91535000D01*
X171577000Y-91724816D01*
X171577000Y-92202000D01*
X171606002Y-92347803D01*
X171688592Y-92471408D01*
X172323590Y-93106405D01*
X172323592Y-93106408D01*
X172414575Y-93167200D01*
X172447198Y-93188998D01*
X172593000Y-93218001D01*
X172593005Y-93218000D01*
X179959000Y-93218000D01*
X180104803Y-93188998D01*
X180228408Y-93106408D01*
X181117408Y-92217408D01*
X181199998Y-92093802D01*
X181229001Y-91948000D01*
X181229000Y-91947995D01*
X181229000Y-91566363D01*
X181235164Y-91565167D01*
X181266641Y-91544490D01*
X181322739Y-91679922D01*
X181487077Y-91844261D01*
X181701795Y-91933200D01*
X181821950Y-91933200D01*
X181968000Y-91787150D01*
X181968000Y-90726800D01*
X182268000Y-90726800D01*
X182268000Y-91787150D01*
X182414050Y-91933200D01*
X182534205Y-91933200D01*
X182748923Y-91844261D01*
X182913261Y-91679922D01*
X183002200Y-91465204D01*
X183002200Y-90872850D01*
X182856150Y-90726800D01*
X182268000Y-90726800D01*
X181968000Y-90726800D01*
X181968000Y-90726800D01*
X181920200Y-90726800D01*
X181920200Y-90371200D01*
X181968000Y-90371200D01*
X181968000Y-89310850D01*
X181821950Y-89164800D01*
X182414050Y-89164800D01*
X182268000Y-89310850D01*
X182268000Y-90371200D01*
X182856150Y-90371200D01*
X183002200Y-90225150D01*
X183002200Y-89632796D01*
X182913261Y-89418078D01*
X182748923Y-89253739D01*
X182534205Y-89164800D01*
X182414050Y-89164800D01*
X181821950Y-89164800D01*
X181821950Y-89164800D01*
X181701795Y-89164800D01*
X181487077Y-89253739D01*
X181322739Y-89418078D01*
X181266688Y-89553396D01*
X181237871Y-89533944D01*
X181148000Y-89515921D01*
X180548000Y-89515921D01*
X180460836Y-89532833D01*
X180384226Y-89583158D01*
X180332944Y-89659129D01*
X180314921Y-89749000D01*
X180314921Y-91349000D01*
X180331833Y-91436164D01*
X180382158Y-91512774D01*
X180458129Y-91564056D01*
X180467000Y-91565835D01*
X180467000Y-91790184D01*
X179801184Y-92456000D01*
X175433263Y-92456000D01*
X175490211Y-92399151D01*
X175577400Y-92189177D01*
X175577529Y-92042287D01*
X176037408Y-91582407D01*
X176037627Y-91582079D01*
X176068000Y-91582079D01*
X176155164Y-91565167D01*
X176231774Y-91514842D01*
X176283056Y-91438871D01*
X176301079Y-91349000D01*
X176301079Y-90930000D01*
X176504921Y-90930000D01*
X176504921Y-91349000D01*
X176521833Y-91436164D01*
X176572158Y-91512774D01*
X176648129Y-91564056D01*
X176738000Y-91582079D01*
X177338000Y-91582079D01*
X177425164Y-91565167D01*
X177455990Y-91544917D01*
X177512739Y-91681922D01*
X177677077Y-91846261D01*
X177891795Y-91935200D01*
X178011950Y-91935200D01*
X178158000Y-91789150D01*
X178158000Y-90728800D01*
X178110200Y-90728800D01*
X178110200Y-90373200D01*
X178158000Y-90373200D01*
X178158000Y-89312850D01*
X178011950Y-89166800D01*
X177891795Y-89166800D01*
X177677077Y-89255739D01*
X177512739Y-89420078D01*
X177457336Y-89553833D01*
X177427871Y-89533944D01*
X177338000Y-89515921D01*
X176738000Y-89515921D01*
X176650836Y-89532833D01*
X176574226Y-89583158D01*
X176522944Y-89659129D01*
X176504921Y-89749000D01*
X176504921Y-90168000D01*
X176301079Y-90168000D01*
X176301079Y-89749000D01*
X176284167Y-89661836D01*
X176233842Y-89585226D01*
X176157871Y-89533944D01*
X176068000Y-89515921D01*
X175468000Y-89515921D01*
X175380836Y-89532833D01*
X175304226Y-89583158D01*
X175252944Y-89659129D01*
X175234921Y-89749000D01*
X175234921Y-91307264D01*
X175038656Y-91503529D01*
X174969452Y-91503468D01*
X175013056Y-91438871D01*
X175031079Y-91349000D01*
X175031079Y-89749000D01*
X175014167Y-89661836D01*
X174963842Y-89585226D01*
X174887871Y-89533944D01*
X174879000Y-89532165D01*
X174879000Y-89154000D01*
X174853738Y-89027000D01*
X174849998Y-89008197D01*
X174777703Y-88900000D01*
X178658184Y-88900000D01*
X179197000Y-89438815D01*
X179197000Y-89581637D01*
X179190836Y-89582833D01*
X179174988Y-89593243D01*
X179103261Y-89420078D01*
X178938923Y-89255739D01*
X178724205Y-89166800D01*
X178604050Y-89166800D01*
X178458000Y-89312850D01*
X178458000Y-90373200D01*
X178505800Y-90373200D01*
X178505800Y-90728800D01*
X178458000Y-90728800D01*
X178458000Y-91789150D01*
X178604050Y-91935200D01*
X178724205Y-91935200D01*
X178938923Y-91846261D01*
X179103261Y-91681922D01*
X179176144Y-91505966D01*
X179188129Y-91514056D01*
X179278000Y-91532079D01*
X179878000Y-91532079D01*
X179965164Y-91515167D01*
X180041774Y-91464842D01*
X180093056Y-91388871D01*
X180111079Y-91299000D01*
X180111079Y-89799000D01*
X180094167Y-89711836D01*
X180043842Y-89635226D01*
X179967871Y-89583944D01*
X179959000Y-89582165D01*
X179959000Y-89281005D01*
X179959001Y-89281000D01*
X179929998Y-89135198D01*
X179916653Y-89115226D01*
X179847408Y-89011592D01*
X179847405Y-89011590D01*
X179085408Y-88249592D01*
X178961803Y-88167002D01*
X178816000Y-88138000D01*
X171577000Y-88138000D01*
X171431197Y-88167002D01*
X171307592Y-88249592D01*
X171184184Y-88373000D01*
X166289794Y-88373000D01*
X166277328Y-88354023D01*
X166301056Y-88318871D01*
X166319079Y-88229000D01*
X166319079Y-87679000D01*
X166302167Y-87591836D01*
X166277328Y-87554023D01*
X166290169Y-87535000D01*
X166953000Y-87535000D01*
X167098803Y-87505998D01*
X167182492Y-87450079D01*
X168265000Y-87450079D01*
X168352164Y-87433167D01*
X168428774Y-87382842D01*
X168480056Y-87306871D01*
X168498079Y-87217000D01*
X168498079Y-86848000D01*
X168605184Y-86848000D01*
X168846529Y-87089345D01*
X168846401Y-87235180D01*
X168933224Y-87445306D01*
X169093849Y-87606211D01*
X169303823Y-87693400D01*
X169531180Y-87693599D01*
X169741306Y-87606776D01*
X169902211Y-87446151D01*
X169989400Y-87236177D01*
X169989599Y-87008820D01*
X169902776Y-86798694D01*
X169742151Y-86637789D01*
X169532177Y-86550600D01*
X169385287Y-86550471D01*
X169032408Y-86197592D01*
X168908803Y-86115002D01*
X168763000Y-86086000D01*
X168498079Y-86086000D01*
X168498079Y-85717000D01*
X168481167Y-85629836D01*
X168430842Y-85553226D01*
X168354871Y-85501944D01*
X168265000Y-85483921D01*
X167015000Y-85483921D01*
X164344079Y-85483921D01*
X164344079Y-84144800D01*
X166576850Y-84144800D01*
X166430800Y-84290850D01*
X166430800Y-84833205D01*
X166519739Y-85047923D01*
X166684078Y-85212261D01*
X166898796Y-85301200D01*
X167316150Y-85301200D01*
X167462200Y-85155150D01*
X167462200Y-84144800D01*
X167817800Y-84144800D01*
X167462200Y-84144800D01*
X167462200Y-84144800D01*
X167817800Y-84144800D01*
X167817800Y-85155150D01*
X167963850Y-85301200D01*
X168381204Y-85301200D01*
X168595922Y-85212261D01*
X168760261Y-85047923D01*
X168849200Y-84833205D01*
X168849200Y-84290850D01*
X168703150Y-84144800D01*
X167817800Y-84144800D01*
X167462200Y-84144800D01*
X167462200Y-84144800D01*
X166576850Y-84144800D01*
X164344079Y-84144800D01*
X164344079Y-84104000D01*
X164327167Y-84016836D01*
X164276842Y-83940226D01*
X164200871Y-83888944D01*
X164111000Y-83870921D01*
X163561000Y-83870921D01*
X163473836Y-83887833D01*
X163436023Y-83912672D01*
X163400871Y-83888944D01*
X163311000Y-83870921D01*
X162761000Y-83870921D01*
X162673836Y-83887833D01*
X162636023Y-83912672D01*
X162600871Y-83888944D01*
X162511000Y-83870921D01*
X161961000Y-83870921D01*
X161873836Y-83887833D01*
X161836023Y-83912672D01*
X161800871Y-83888944D01*
X161711000Y-83870921D01*
X161161000Y-83870921D01*
X161073836Y-83887833D01*
X161036023Y-83912672D01*
X161000871Y-83888944D01*
X160911000Y-83870921D01*
X160361000Y-83870921D01*
X160273836Y-83887833D01*
X160236023Y-83912672D01*
X160200871Y-83888944D01*
X160111000Y-83870921D01*
X159561000Y-83870921D01*
X159473836Y-83887833D01*
X159436023Y-83912672D01*
X159400871Y-83888944D01*
X159311000Y-83870921D01*
X158761000Y-83870921D01*
X158673836Y-83887833D01*
X158636023Y-83912672D01*
X158600871Y-83888944D01*
X158511000Y-83870921D01*
X157961000Y-83870921D01*
X157873836Y-83887833D01*
X157797226Y-83938158D01*
X157745944Y-84014129D01*
X157727921Y-84104000D01*
X157727921Y-85704000D01*
X157744833Y-85791164D01*
X157795158Y-85867774D01*
X157855000Y-85908169D01*
X157855000Y-85973000D01*
X157860232Y-85999303D01*
X157799082Y-85987139D01*
X157751842Y-85915226D01*
X157675871Y-85863944D01*
X157586000Y-85845921D01*
X155986000Y-85845921D01*
X155898836Y-85862833D01*
X155822226Y-85913158D01*
X155770944Y-85989129D01*
X155752921Y-86079000D01*
X155752921Y-86629000D01*
X155769833Y-86716164D01*
X155794672Y-86753977D01*
X155781831Y-86773000D01*
X154510127Y-86773000D01*
X154375151Y-86637789D01*
X154165177Y-86550600D01*
X153937820Y-86550401D01*
X153727694Y-86637224D01*
X153566789Y-86797849D01*
X153479600Y-87007823D01*
X153479401Y-87235180D01*
X153566224Y-87445306D01*
X153726849Y-87606211D01*
X153936823Y-87693400D01*
X154164180Y-87693599D01*
X154216813Y-87671851D01*
X154201789Y-87686849D01*
X154114600Y-87896823D01*
X154114401Y-88124180D01*
X154201224Y-88334306D01*
X154361849Y-88495211D01*
X154571823Y-88582400D01*
X154799180Y-88582599D01*
X155009306Y-88495776D01*
X155170211Y-88335151D01*
X155170274Y-88335000D01*
X155782206Y-88335000D01*
X155794672Y-88353977D01*
X155770944Y-88389129D01*
X155752921Y-88479000D01*
X155752921Y-89029000D01*
X155769833Y-89116164D01*
X155794672Y-89153977D01*
X155770944Y-89189129D01*
X155752921Y-89279000D01*
X155752921Y-89543211D01*
X155655077Y-89583739D01*
X155490739Y-89748078D01*
X155439300Y-89872263D01*
X155418998Y-89770198D01*
X155336408Y-89646592D01*
X155336405Y-89646590D01*
X149242408Y-83552592D01*
X149118803Y-83470002D01*
X148973000Y-83441000D01*
X147980079Y-83441000D01*
X147980079Y-83022000D01*
X147963167Y-82934836D01*
X147912842Y-82858226D01*
X147836871Y-82806944D01*
X147747000Y-82788921D01*
X147147000Y-82788921D01*
X147059836Y-82805833D01*
X146983226Y-82856158D01*
X146931944Y-82932129D01*
X146913921Y-83022000D01*
X146913921Y-84622000D01*
X146930833Y-84709164D01*
X146981158Y-84785774D01*
X147057129Y-84837056D01*
X147147000Y-84855079D01*
X147747000Y-84855079D01*
X147834164Y-84838167D01*
X147910774Y-84787842D01*
X147962056Y-84711871D01*
X147980079Y-84622000D01*
X147980079Y-84203000D01*
X148815184Y-84203000D01*
X154686000Y-90073815D01*
X154686000Y-90774184D01*
X149875408Y-85963592D01*
X149751803Y-85881002D01*
X149606000Y-85852000D01*
X147858815Y-85852000D01*
X146696505Y-84689689D01*
X146710079Y-84622000D01*
X146710079Y-83022000D01*
X146693167Y-82934836D01*
X146642842Y-82858226D01*
X146566871Y-82806944D01*
X146477000Y-82788921D01*
X145877000Y-82788921D01*
X145789836Y-82805833D01*
X145713226Y-82856158D01*
X145661944Y-82932129D01*
X145643921Y-83022000D01*
X145643921Y-84399105D01*
X145440079Y-84195263D01*
X145440079Y-83022000D01*
X145423167Y-82934836D01*
X145372842Y-82858226D01*
X145296871Y-82806944D01*
X145207000Y-82788921D01*
X144607000Y-82788921D01*
X144519836Y-82805833D01*
X144488359Y-82826510D01*
X144432261Y-82691078D01*
X144373984Y-82632800D01*
X166898796Y-82632800D01*
X166684078Y-82721739D01*
X166519739Y-82886077D01*
X166430800Y-83100795D01*
X166430800Y-83643150D01*
X166576850Y-83789200D01*
X167462200Y-83789200D01*
X167462200Y-82778850D01*
X167316150Y-82632800D01*
X167963850Y-82632800D01*
X167316150Y-82632800D01*
X167316150Y-82632800D01*
X167963850Y-82632800D01*
X167817800Y-82778850D01*
X167817800Y-83789200D01*
X168703150Y-83789200D01*
X168849200Y-83643150D01*
X168849200Y-83100795D01*
X168760261Y-82886077D01*
X168595922Y-82721739D01*
X168381204Y-82632800D01*
X167963850Y-82632800D01*
X167316150Y-82632800D01*
X167316150Y-82632800D01*
X166898796Y-82632800D01*
X144373984Y-82632800D01*
X144267923Y-82526739D01*
X144053205Y-82437800D01*
X143933050Y-82437800D01*
X143787000Y-82583850D01*
X143787000Y-83644200D01*
X143834800Y-83644200D01*
X143834800Y-83999800D01*
X143787000Y-83999800D01*
X143787000Y-85060150D01*
X143933050Y-85206200D01*
X144053205Y-85206200D01*
X144267923Y-85117261D01*
X144432261Y-84952922D01*
X144488312Y-84817604D01*
X144517129Y-84837056D01*
X144607000Y-84855079D01*
X145022263Y-84855079D01*
X147304590Y-87137405D01*
X147304592Y-87137408D01*
X147418024Y-87213200D01*
X147428198Y-87219998D01*
X147574000Y-87249001D01*
X147574005Y-87249000D01*
X149321184Y-87249000D01*
X153086168Y-91013984D01*
X152929397Y-90982800D01*
X152886603Y-90982800D01*
X152468636Y-91065939D01*
X152114301Y-91302698D01*
X151877542Y-91657033D01*
X151794403Y-92075000D01*
X151877542Y-92492967D01*
X152114301Y-92847302D01*
X152468636Y-93084061D01*
X152886603Y-93167200D01*
X152929397Y-93167200D01*
X153347364Y-93084061D01*
X153701699Y-92847302D01*
X153938458Y-92492967D01*
X154021597Y-92075000D01*
X153990413Y-91918229D01*
X155745592Y-93673408D01*
X155869198Y-93755998D01*
X156015000Y-93785001D01*
X156015005Y-93785000D01*
X157727921Y-93785000D01*
X157727921Y-94204000D01*
X157744833Y-94291164D01*
X157795158Y-94367774D01*
X157871129Y-94419056D01*
X157961000Y-94437079D01*
X158511000Y-94437079D01*
X158598164Y-94420167D01*
X158635977Y-94395328D01*
X158671129Y-94419056D01*
X158761000Y-94437079D01*
X159311000Y-94437079D01*
X159398164Y-94420167D01*
X159435977Y-94395328D01*
X159471129Y-94419056D01*
X159561000Y-94437079D01*
X160111000Y-94437079D01*
X160198164Y-94420167D01*
X160235977Y-94395328D01*
X160271129Y-94419056D01*
X160361000Y-94437079D01*
X160911000Y-94437079D01*
X160998164Y-94420167D01*
X161035977Y-94395328D01*
X161071129Y-94419056D01*
X161161000Y-94437079D01*
X161711000Y-94437079D01*
X161798164Y-94420167D01*
X161835977Y-94395328D01*
X161871129Y-94419056D01*
X161961000Y-94437079D01*
X162511000Y-94437079D01*
X162598164Y-94420167D01*
X162635977Y-94395328D01*
X162671129Y-94419056D01*
X162761000Y-94437079D01*
X163311000Y-94437079D01*
X163398164Y-94420167D01*
X163435977Y-94395328D01*
X163471129Y-94419056D01*
X163561000Y-94437079D01*
X164111000Y-94437079D01*
X164198164Y-94420167D01*
X164274774Y-94369842D01*
X164326056Y-94293871D01*
X164344079Y-94204000D01*
X164344079Y-92604000D01*
X164327167Y-92516836D01*
X164276842Y-92440226D01*
X164200871Y-92388944D01*
X164111000Y-92370921D01*
X163561000Y-92370921D01*
X163473836Y-92387833D01*
X163436023Y-92412672D01*
X163400871Y-92388944D01*
X163311000Y-92370921D01*
X162761000Y-92370921D01*
X162673836Y-92387833D01*
X162636023Y-92412672D01*
X162600871Y-92388944D01*
X162511000Y-92370921D01*
X161961000Y-92370921D01*
X161873836Y-92387833D01*
X161836023Y-92412672D01*
X161800871Y-92388944D01*
X161711000Y-92370921D01*
X161161000Y-92370921D01*
X161073836Y-92387833D01*
X161036023Y-92412672D01*
X161000871Y-92388944D01*
X160911000Y-92370921D01*
X160361000Y-92370921D01*
X160273836Y-92387833D01*
X160236023Y-92412672D01*
X160200871Y-92388944D01*
X160111000Y-92370921D01*
X159561000Y-92370921D01*
X159473836Y-92387833D01*
X159436023Y-92412672D01*
X159400871Y-92388944D01*
X159311000Y-92370921D01*
X158761000Y-92370921D01*
X158673836Y-92387833D01*
X158636023Y-92412672D01*
X158600871Y-92388944D01*
X158511000Y-92370921D01*
X157961000Y-92370921D01*
X157873836Y-92387833D01*
X157797226Y-92438158D01*
X157745944Y-92514129D01*
X157727921Y-92604000D01*
X157727921Y-93023000D01*
X156172816Y-93023000D01*
X155484816Y-92335000D01*
X155782206Y-92335000D01*
X155820158Y-92392774D01*
X155896129Y-92444056D01*
X155986000Y-92462079D01*
X157586000Y-92462079D01*
X157673164Y-92445167D01*
X157749774Y-92394842D01*
X157801056Y-92318871D01*
X157819079Y-92229000D01*
X157819079Y-91679000D01*
X157802167Y-91591836D01*
X157777328Y-91554023D01*
X157801056Y-91518871D01*
X157819079Y-91429000D01*
X157819079Y-91164789D01*
X157916923Y-91124261D01*
X158081261Y-90959922D01*
X158170200Y-90745204D01*
X158170200Y-90637550D01*
X158024150Y-90491500D01*
X156963800Y-90491500D01*
X156963800Y-90551800D01*
X156608200Y-90551800D01*
X156608200Y-90491500D01*
X156588200Y-90491500D01*
X156588200Y-90216500D01*
X156608200Y-90216500D01*
X156608200Y-90156200D01*
X156963800Y-90156200D01*
X156963800Y-90216500D01*
X158024150Y-90216500D01*
X158170200Y-90070450D01*
X158170200Y-89962796D01*
X158081261Y-89748078D01*
X157916923Y-89583739D01*
X157819079Y-89543211D01*
X157819079Y-89279000D01*
X157802167Y-89191836D01*
X157777328Y-89154023D01*
X157790169Y-89135000D01*
X158176851Y-89135000D01*
X158298849Y-89257211D01*
X158508823Y-89344400D01*
X158736180Y-89344599D01*
X158946306Y-89257776D01*
X159107211Y-89097151D01*
X159194400Y-88887177D01*
X159194599Y-88659820D01*
X159107776Y-88449694D01*
X158947151Y-88288789D01*
X158737177Y-88201600D01*
X158509820Y-88201401D01*
X158299694Y-88288224D01*
X158214770Y-88373000D01*
X157789794Y-88373000D01*
X157777328Y-88354023D01*
X157801056Y-88318871D01*
X157819079Y-88229000D01*
X157819079Y-87679000D01*
X157802167Y-87591836D01*
X157777328Y-87554023D01*
X157801056Y-87518871D01*
X157819079Y-87429000D01*
X157819079Y-86983895D01*
X158353592Y-87518408D01*
X158477197Y-87600998D01*
X158623000Y-87630000D01*
X158957818Y-87630000D01*
X159060849Y-87733211D01*
X159270823Y-87820400D01*
X159498180Y-87820599D01*
X159629841Y-87766198D01*
X159575600Y-87896823D01*
X159575401Y-88124180D01*
X159662224Y-88334306D01*
X159822849Y-88495211D01*
X160032823Y-88582400D01*
X160260180Y-88582599D01*
X160470306Y-88495776D01*
X160631211Y-88335151D01*
X160718400Y-88125177D01*
X160718599Y-87897820D01*
X160631776Y-87687694D01*
X160528000Y-87583737D01*
X160528000Y-86995005D01*
X160528001Y-86995000D01*
X160498998Y-86849198D01*
X160467463Y-86802002D01*
X160416408Y-86725592D01*
X160416405Y-86725590D01*
X159781408Y-86090592D01*
X159657803Y-86008002D01*
X159512000Y-85979000D01*
X158780815Y-85979000D01*
X158733349Y-85931534D01*
X158761000Y-85937079D01*
X159311000Y-85937079D01*
X159398164Y-85920167D01*
X159435977Y-85895328D01*
X159471129Y-85919056D01*
X159561000Y-85937079D01*
X160111000Y-85937079D01*
X160198164Y-85920167D01*
X160235977Y-85895328D01*
X160271129Y-85919056D01*
X160361000Y-85937079D01*
X160911000Y-85937079D01*
X160998164Y-85920167D01*
X161035977Y-85895328D01*
X161071129Y-85919056D01*
X161161000Y-85937079D01*
X161711000Y-85937079D01*
X161798164Y-85920167D01*
X161835977Y-85895328D01*
X161871129Y-85919056D01*
X161961000Y-85937079D01*
X162511000Y-85937079D01*
X162598164Y-85920167D01*
X162635977Y-85895328D01*
X162671129Y-85919056D01*
X162761000Y-85937079D01*
X163311000Y-85937079D01*
X163398164Y-85920167D01*
X163435977Y-85895328D01*
X163471129Y-85919056D01*
X163561000Y-85937079D01*
X163912452Y-85937079D01*
X163901800Y-85962796D01*
X163901800Y-86070450D01*
X164047850Y-86216500D01*
X165108200Y-86216500D01*
X165108200Y-85640850D01*
X164962150Y-85494800D01*
X164369795Y-85494800D01*
X164344079Y-85505452D01*
X164344079Y-85483921D01*
X167015000Y-85483921D01*
X164344079Y-85483921D01*
X164344079Y-85483921D01*
X167015000Y-85483921D01*
X166927836Y-85500833D01*
X166216770Y-85500833D01*
X166202205Y-85494800D01*
X165609850Y-85494800D01*
X165463800Y-85640850D01*
X165463800Y-86216500D01*
X166524150Y-86216500D01*
X166670200Y-86070450D01*
X166670200Y-85962796D01*
X166581261Y-85748078D01*
X166416923Y-85583739D01*
X166216770Y-85500833D01*
X166927836Y-85500833D01*
X166216770Y-85500833D01*
X166216770Y-85500833D01*
X166927836Y-85500833D01*
X166851226Y-85551158D01*
X166799944Y-85627129D01*
X166781921Y-85717000D01*
X166781921Y-86773000D01*
X166658687Y-86773000D01*
X166670200Y-86745204D01*
X166670200Y-86637550D01*
X166524150Y-86491500D01*
X165463800Y-86491500D01*
X165463800Y-86551800D01*
X165108200Y-86551800D01*
X165108200Y-86491500D01*
X164047850Y-86491500D01*
X163901800Y-86637550D01*
X163901800Y-86745204D01*
X163990739Y-86959922D01*
X164155077Y-87124261D01*
X164252921Y-87164789D01*
X164252921Y-87429000D01*
X164269833Y-87516164D01*
X164294672Y-87553977D01*
X164270944Y-87589129D01*
X164252921Y-87679000D01*
X164252921Y-88229000D01*
X164269833Y-88316164D01*
X164294672Y-88353977D01*
X164270944Y-88389129D01*
X164252921Y-88479000D01*
X164252921Y-89029000D01*
X164269833Y-89116164D01*
X164294672Y-89153977D01*
X164270944Y-89189129D01*
X164252921Y-89279000D01*
X164252921Y-89829000D01*
X164269833Y-89916164D01*
X164294672Y-89953977D01*
X164270944Y-89989129D01*
X164252921Y-90079000D01*
X164252921Y-90629000D01*
X164269833Y-90716164D01*
X164294672Y-90753977D01*
X164270944Y-90789129D01*
X164252921Y-90879000D01*
X164252921Y-91429000D01*
X164269833Y-91516164D01*
X164294672Y-91553977D01*
X164270944Y-91589129D01*
X164252921Y-91679000D01*
X164252921Y-92229000D01*
X164269833Y-92316164D01*
X164320158Y-92392774D01*
X164396129Y-92444056D01*
X164486000Y-92462079D01*
X165075263Y-92462079D01*
X165592592Y-92979408D01*
X165716197Y-93061998D01*
X165862000Y-93091000D01*
X166576921Y-93091000D01*
X166576921Y-93154263D01*
X164227184Y-95504000D01*
X153527048Y-95504000D01*
X153701699Y-95387302D01*
X153938458Y-95032967D01*
X154021597Y-94615000D01*
X153938458Y-94197033D01*
X153701699Y-93842698D01*
X153347364Y-93605939D01*
X152929397Y-93522800D01*
X152886603Y-93522800D01*
X150389397Y-93522800D01*
X150389397Y-93522800D01*
X150346603Y-93522800D01*
X149928636Y-93605939D01*
X149574301Y-93842698D01*
X149337542Y-94197033D01*
X149254403Y-94615000D01*
X149337542Y-95032967D01*
X149574301Y-95387302D01*
X149928636Y-95624061D01*
X150346603Y-95707200D01*
X150389397Y-95707200D01*
X150807364Y-95624061D01*
X151161699Y-95387302D01*
X151398458Y-95032967D01*
X151481597Y-94615000D01*
X151398458Y-94197033D01*
X151161699Y-93842698D01*
X150807364Y-93605939D01*
X150389397Y-93522800D01*
X152886603Y-93522800D01*
X150389397Y-93522800D01*
X150389397Y-93522800D01*
X152886603Y-93522800D01*
X152468636Y-93605939D01*
X152114301Y-93842698D01*
X151877542Y-94197033D01*
X151794403Y-94615000D01*
X151877542Y-95032967D01*
X152114301Y-95387302D01*
X152288952Y-95504000D01*
X151892000Y-95504000D01*
X151746197Y-95533002D01*
X151622592Y-95615592D01*
X150978138Y-96260046D01*
X150807364Y-96145939D01*
X150389397Y-96062800D01*
X150346603Y-96062800D01*
X139874079Y-96062800D01*
X139874079Y-95995737D01*
X141366405Y-94503410D01*
X141366408Y-94503408D01*
X141448998Y-94379802D01*
X141458507Y-94331997D01*
X141478001Y-94234000D01*
X141478000Y-94233995D01*
X141478000Y-93102374D01*
X149338558Y-93102374D01*
X149414529Y-93153656D01*
X149504400Y-93171679D01*
X151231600Y-93171679D01*
X151318764Y-93154767D01*
X151395374Y-93104442D01*
X151446656Y-93028471D01*
X151464679Y-92938600D01*
X151464679Y-91211400D01*
X151447767Y-91124236D01*
X151397442Y-91047626D01*
X151321471Y-90996344D01*
X151231600Y-90978321D01*
X149504400Y-90978321D01*
X147980079Y-90978321D01*
X147980079Y-89622000D01*
X147963167Y-89534836D01*
X147912842Y-89458226D01*
X147836871Y-89406944D01*
X147747000Y-89388921D01*
X147147000Y-89388921D01*
X147059836Y-89405833D01*
X146983226Y-89456158D01*
X146931944Y-89532129D01*
X146913921Y-89622000D01*
X146913921Y-91222000D01*
X146930833Y-91309164D01*
X146981158Y-91385774D01*
X147057129Y-91437056D01*
X147066000Y-91438835D01*
X147066000Y-92028818D01*
X146962789Y-92131849D01*
X146875600Y-92341823D01*
X146875401Y-92569180D01*
X146962224Y-92779306D01*
X147122849Y-92940211D01*
X147332823Y-93027400D01*
X147560180Y-93027599D01*
X147770306Y-92940776D01*
X147931211Y-92780151D01*
X148018400Y-92570177D01*
X148018599Y-92342820D01*
X147931776Y-92132694D01*
X147828000Y-92028737D01*
X147828000Y-91439363D01*
X147834164Y-91438167D01*
X147910774Y-91387842D01*
X147962056Y-91311871D01*
X147980079Y-91222000D01*
X147980079Y-90978321D01*
X149504400Y-90978321D01*
X147980079Y-90978321D01*
X147980079Y-90978321D01*
X149504400Y-90978321D01*
X149417236Y-90995233D01*
X149340626Y-91045558D01*
X149289344Y-91121529D01*
X149271321Y-91211400D01*
X149271321Y-92938600D01*
X149288233Y-93025764D01*
X149338558Y-93102374D01*
X141478000Y-93102374D01*
X141478000Y-91439363D01*
X141484164Y-91438167D01*
X141560774Y-91387842D01*
X141612056Y-91311871D01*
X141630079Y-91222000D01*
X141630079Y-89622000D01*
X141613167Y-89534836D01*
X141562842Y-89458226D01*
X141486871Y-89406944D01*
X141397000Y-89388921D01*
X140797000Y-89388921D01*
X140709836Y-89405833D01*
X140633226Y-89456158D01*
X140581944Y-89532129D01*
X140563921Y-89622000D01*
X140563921Y-91222000D01*
X140580833Y-91309164D01*
X140631158Y-91385774D01*
X140707129Y-91437056D01*
X140716000Y-91438835D01*
X140716000Y-94076185D01*
X139755569Y-95036616D01*
X139730871Y-95019944D01*
X139641000Y-95001921D01*
X138141000Y-95001921D01*
X138053836Y-95018833D01*
X137977226Y-95069158D01*
X137925944Y-95145129D01*
X137907921Y-95235000D01*
X137907921Y-96535000D01*
X137924833Y-96622164D01*
X137975158Y-96698774D01*
X138051129Y-96750056D01*
X138141000Y-96768079D01*
X139641000Y-96768079D01*
X139728164Y-96751167D01*
X139804774Y-96700842D01*
X139856056Y-96624871D01*
X139874079Y-96535000D01*
X139874079Y-96062800D01*
X150346603Y-96062800D01*
X139874079Y-96062800D01*
X139874079Y-96062800D01*
X150346603Y-96062800D01*
X149928636Y-96145939D01*
X149574301Y-96382698D01*
X149337542Y-96737033D01*
X149254403Y-97155000D01*
X134106079Y-97155000D01*
X134106079Y-96485000D01*
X134089167Y-96397836D01*
X134038842Y-96321226D01*
X133962871Y-96269944D01*
X133943204Y-96266000D01*
X135207921Y-96266000D01*
X135207921Y-96535000D01*
X135224833Y-96622164D01*
X135275158Y-96698774D01*
X135351129Y-96750056D01*
X135441000Y-96768079D01*
X136941000Y-96768079D01*
X137028164Y-96751167D01*
X137104774Y-96700842D01*
X137156056Y-96624871D01*
X137174079Y-96535000D01*
X137174079Y-95235000D01*
X137157167Y-95147836D01*
X137106842Y-95071226D01*
X137030871Y-95019944D01*
X136941000Y-95001921D01*
X135441000Y-95001921D01*
X135353836Y-95018833D01*
X135277226Y-95069158D01*
X135225944Y-95145129D01*
X135207921Y-95235000D01*
X135207921Y-95504000D01*
X133945563Y-95504000D01*
X133960164Y-95501167D01*
X134036774Y-95450842D01*
X134088056Y-95374871D01*
X134106079Y-95285000D01*
X134106079Y-94916000D01*
X138764000Y-94916000D01*
X138909803Y-94886998D01*
X139033408Y-94804408D01*
X140096408Y-93741408D01*
X140178998Y-93617803D01*
X140208000Y-93472000D01*
X140208000Y-91439363D01*
X140214164Y-91438167D01*
X140290774Y-91387842D01*
X140342056Y-91311871D01*
X140360079Y-91222000D01*
X140360079Y-89622000D01*
X140343167Y-89534836D01*
X140292842Y-89458226D01*
X140216871Y-89406944D01*
X140127000Y-89388921D01*
X139527000Y-89388921D01*
X139439836Y-89405833D01*
X139363226Y-89456158D01*
X139311944Y-89532129D01*
X139293921Y-89622000D01*
X139293921Y-91222000D01*
X139310833Y-91309164D01*
X139361158Y-91385774D01*
X139437129Y-91437056D01*
X139446000Y-91438835D01*
X139446000Y-93314184D01*
X138606184Y-94154000D01*
X134106079Y-94154000D01*
X134106079Y-93785000D01*
X134089167Y-93697836D01*
X134038842Y-93621226D01*
X133962871Y-93569944D01*
X133873000Y-93551921D01*
X132573000Y-93551921D01*
X132485836Y-93568833D01*
X132409226Y-93619158D01*
X132357944Y-93695129D01*
X132339921Y-93785000D01*
X132339921Y-95285000D01*
X132356833Y-95372164D01*
X132407158Y-95448774D01*
X132483129Y-95500056D01*
X132502796Y-95504000D01*
X131729815Y-95504000D01*
X131206408Y-94980592D01*
X131082803Y-94898002D01*
X130937000Y-94869000D01*
X127793909Y-94869000D01*
X127836774Y-94840842D01*
X127888056Y-94764871D01*
X127906079Y-94675000D01*
X127906079Y-94150000D01*
X127904000Y-94139285D01*
X127904000Y-93614005D01*
X127904001Y-93614000D01*
X127874998Y-93468198D01*
X127860944Y-93447164D01*
X127792408Y-93344592D01*
X127792405Y-93344590D01*
X127396408Y-92948592D01*
X127272803Y-92866002D01*
X127127000Y-92837000D01*
X123825005Y-92837000D01*
X123825000Y-92836999D01*
X123679198Y-92866002D01*
X123555592Y-92948592D01*
X123555590Y-92948595D01*
X122905184Y-93599000D01*
X120573197Y-93599000D01*
X120565844Y-93562033D01*
X120329085Y-93207698D01*
X119974750Y-92970939D01*
X119556783Y-92887800D01*
X119203217Y-92887800D01*
X118785250Y-92970939D01*
X118430915Y-93207698D01*
X118194156Y-93562033D01*
X118111017Y-93980000D01*
X118194156Y-94397967D01*
X118430915Y-94752302D01*
X118785250Y-94989061D01*
X119203217Y-95072200D01*
X119556783Y-95072200D01*
X119974750Y-94989061D01*
X120329085Y-94752302D01*
X120468434Y-94543750D01*
X125634850Y-94543750D01*
X125488800Y-94689800D01*
X125488800Y-94791204D01*
X125577739Y-95005922D01*
X125742077Y-95170261D01*
X125956795Y-95259200D01*
X126001950Y-95259200D01*
X126148000Y-95113150D01*
X126148000Y-94543750D01*
X125634850Y-94543750D01*
X120468434Y-94543750D01*
X120565844Y-94397967D01*
X120573197Y-94361000D01*
X123063000Y-94361000D01*
X123208803Y-94331998D01*
X123332408Y-94249408D01*
X123982815Y-93599000D01*
X125876643Y-93599000D01*
X125742077Y-93654739D01*
X125577739Y-93819078D01*
X125488800Y-94033796D01*
X125488800Y-94135200D01*
X125634850Y-94281250D01*
X126148000Y-94281250D01*
X126148000Y-94214700D01*
X126298000Y-94214700D01*
X126298000Y-94281250D01*
X126373000Y-94281250D01*
X126373000Y-94543750D01*
X126298000Y-94543750D01*
X126298000Y-95113150D01*
X126444050Y-95259200D01*
X126489205Y-95259200D01*
X126575547Y-95223436D01*
X126603592Y-95265408D01*
X126857592Y-95519408D01*
X126865154Y-95524461D01*
X126837211Y-95591921D01*
X126723000Y-95591921D01*
X126635836Y-95608833D01*
X126559226Y-95659158D01*
X126548207Y-95675482D01*
X126538842Y-95661226D01*
X126462871Y-95609944D01*
X126373000Y-95591921D01*
X126073000Y-95591921D01*
X125985836Y-95608833D01*
X125909226Y-95659158D01*
X125877269Y-95706500D01*
X124384500Y-95706500D01*
X124238698Y-95735502D01*
X124115092Y-95818092D01*
X124115090Y-95818095D01*
X123794184Y-96139000D01*
X120573197Y-96139000D01*
X120565844Y-96102033D01*
X120329085Y-95747698D01*
X119974750Y-95510939D01*
X119556783Y-95427800D01*
X119203217Y-95427800D01*
X118785250Y-95510939D01*
X118430915Y-95747698D01*
X118194156Y-96102033D01*
X118111017Y-96520000D01*
X118194156Y-96937967D01*
X118430915Y-97292302D01*
X118785250Y-97529061D01*
X119203217Y-97612200D01*
X119556783Y-97612200D01*
X119974750Y-97529061D01*
X120329085Y-97292302D01*
X120565844Y-96937967D01*
X120573197Y-96901000D01*
X123952000Y-96901000D01*
X124097803Y-96871998D01*
X124221408Y-96789408D01*
X124542315Y-96468500D01*
X125877418Y-96468500D01*
X125907158Y-96513774D01*
X125983129Y-96565056D01*
X126073000Y-96583079D01*
X126373000Y-96583079D01*
X126460164Y-96566167D01*
X126492000Y-96545254D01*
X126492000Y-96934000D01*
X126521002Y-97079803D01*
X126603592Y-97203408D01*
X126904590Y-97504405D01*
X126904592Y-97504408D01*
X126978688Y-97553917D01*
X127028197Y-97586998D01*
X127174000Y-97616000D01*
X132339921Y-97616000D01*
X132339921Y-97985000D01*
X132356833Y-98072164D01*
X132407158Y-98148774D01*
X132483129Y-98200056D01*
X132573000Y-98218079D01*
X133873000Y-98218079D01*
X133960164Y-98201167D01*
X134036774Y-98150842D01*
X134088056Y-98074871D01*
X134106079Y-97985000D01*
X134106079Y-97155000D01*
X149254403Y-97155000D01*
X134106079Y-97155000D01*
X134106079Y-97155000D01*
X149254403Y-97155000D01*
X149337542Y-97572967D01*
X149574301Y-97927302D01*
X149928636Y-98164061D01*
X150346603Y-98247200D01*
X117068600Y-98247200D01*
X117068600Y-87503000D01*
X124587000Y-87503000D01*
X124441197Y-87532002D01*
X124317592Y-87614592D01*
X123413184Y-88519000D01*
X120573197Y-88519000D01*
X120565844Y-88482033D01*
X120329085Y-88127698D01*
X119974750Y-87890939D01*
X119556783Y-87807800D01*
X119203217Y-87807800D01*
X118785250Y-87890939D01*
X118430915Y-88127698D01*
X118194156Y-88482033D01*
X118111017Y-88900000D01*
X118194156Y-89317967D01*
X118430915Y-89672302D01*
X118785250Y-89909061D01*
X119203217Y-89992200D01*
X119556783Y-89992200D01*
X119974750Y-89909061D01*
X120329085Y-89672302D01*
X120565844Y-89317967D01*
X120573197Y-89281000D01*
X123571000Y-89281000D01*
X123716803Y-89251998D01*
X123780031Y-89209750D01*
X125761850Y-89209750D01*
X125615800Y-89355800D01*
X125615800Y-89457204D01*
X125704739Y-89671922D01*
X125869077Y-89836261D01*
X126083795Y-89925200D01*
X126128950Y-89925200D01*
X126275000Y-89779150D01*
X126275000Y-89209750D01*
X125761850Y-89209750D01*
X123780031Y-89209750D01*
X123840408Y-89169408D01*
X124744816Y-88265000D01*
X126003643Y-88265000D01*
X125869077Y-88320739D01*
X125704739Y-88485078D01*
X125615800Y-88699796D01*
X125615800Y-88801200D01*
X125761850Y-88947250D01*
X126275000Y-88947250D01*
X126275000Y-88880700D01*
X126425000Y-88880700D01*
X126425000Y-88947250D01*
X126500000Y-88947250D01*
X126500000Y-89209750D01*
X126425000Y-89209750D01*
X126425000Y-89779150D01*
X126571050Y-89925200D01*
X126616205Y-89925200D01*
X126782502Y-89856318D01*
X127045501Y-90119316D01*
X127004739Y-90160078D01*
X126964211Y-90257921D01*
X126850000Y-90257921D01*
X126762836Y-90274833D01*
X126686226Y-90325158D01*
X126675207Y-90341482D01*
X126665842Y-90327226D01*
X126589871Y-90275944D01*
X126500000Y-90257921D01*
X126200000Y-90257921D01*
X126112836Y-90274833D01*
X126036226Y-90325158D01*
X126004269Y-90372500D01*
X124765505Y-90372500D01*
X124765500Y-90372499D01*
X124621573Y-90401129D01*
X124619698Y-90401502D01*
X124496092Y-90484092D01*
X124496090Y-90484095D01*
X123921184Y-91059000D01*
X120573197Y-91059000D01*
X120565844Y-91022033D01*
X120329085Y-90667698D01*
X119974750Y-90430939D01*
X119556783Y-90347800D01*
X119203217Y-90347800D01*
X118785250Y-90430939D01*
X118430915Y-90667698D01*
X118194156Y-91022033D01*
X118111017Y-91440000D01*
X118194156Y-91857967D01*
X118430915Y-92212302D01*
X118785250Y-92449061D01*
X119203217Y-92532200D01*
X119556783Y-92532200D01*
X119974750Y-92449061D01*
X120329085Y-92212302D01*
X120565844Y-91857967D01*
X120573197Y-91821000D01*
X124079000Y-91821000D01*
X124224803Y-91791998D01*
X124348408Y-91709408D01*
X124923315Y-91134500D01*
X126004418Y-91134500D01*
X126034158Y-91179774D01*
X126110129Y-91231056D01*
X126200000Y-91249079D01*
X126500000Y-91249079D01*
X126587164Y-91232167D01*
X126619000Y-91211254D01*
X126619000Y-91694000D01*
X126648002Y-91839803D01*
X126730592Y-91963408D01*
X126984592Y-92217408D01*
X127108197Y-92299998D01*
X127254000Y-92329000D01*
X129794000Y-92329000D01*
X129939803Y-92299998D01*
X130063408Y-92217408D01*
X130459815Y-91821000D01*
X131016921Y-91821000D01*
X131016921Y-92090000D01*
X131033833Y-92177164D01*
X131084158Y-92253774D01*
X131160129Y-92305056D01*
X131250000Y-92323079D01*
X132750000Y-92323079D01*
X132837164Y-92306167D01*
X132913774Y-92255842D01*
X132965056Y-92179871D01*
X132983079Y-92090000D01*
X132983079Y-90790000D01*
X132966167Y-90702836D01*
X132915842Y-90626226D01*
X132839871Y-90574944D01*
X132750000Y-90556921D01*
X131250000Y-90556921D01*
X131162836Y-90573833D01*
X131086226Y-90624158D01*
X131034944Y-90700129D01*
X131016921Y-90790000D01*
X131016921Y-91059000D01*
X130302000Y-91059000D01*
X130156198Y-91088002D01*
X130032592Y-91170592D01*
X130032590Y-91170595D01*
X129636184Y-91567000D01*
X127996357Y-91567000D01*
X128130923Y-91511261D01*
X128295261Y-91346922D01*
X128384200Y-91132204D01*
X128384200Y-91030800D01*
X128238150Y-90884750D01*
X127725000Y-90884750D01*
X127725000Y-90951300D01*
X127575000Y-90951300D01*
X127575000Y-90884750D01*
X127500000Y-90884750D01*
X127500000Y-90622250D01*
X127575000Y-90622250D01*
X127575000Y-90555700D01*
X127725000Y-90555700D01*
X127725000Y-90622250D01*
X128238150Y-90622250D01*
X128384200Y-90476200D01*
X128384200Y-90374796D01*
X128351976Y-90297000D01*
X128778000Y-90297000D01*
X128923803Y-90267998D01*
X129047408Y-90185408D01*
X129951816Y-89281000D01*
X131016921Y-89281000D01*
X131016921Y-89550000D01*
X131033833Y-89637164D01*
X131084158Y-89713774D01*
X131160129Y-89765056D01*
X131250000Y-89783079D01*
X132750000Y-89783079D01*
X132837164Y-89766167D01*
X132913774Y-89715842D01*
X132965056Y-89639871D01*
X132983079Y-89550000D01*
X132983079Y-88250000D01*
X132966167Y-88162836D01*
X132915842Y-88086226D01*
X132839871Y-88034944D01*
X132750000Y-88016921D01*
X131250000Y-88016921D01*
X131162836Y-88033833D01*
X131086226Y-88084158D01*
X131034944Y-88160129D01*
X131016921Y-88250000D01*
X131016921Y-88519000D01*
X129794000Y-88519000D01*
X129648197Y-88548002D01*
X129524592Y-88630592D01*
X128620184Y-89535000D01*
X127920909Y-89535000D01*
X127963774Y-89506842D01*
X128015056Y-89430871D01*
X128033079Y-89341000D01*
X128033079Y-88816000D01*
X128031000Y-88805285D01*
X128031000Y-88280005D01*
X128031001Y-88280000D01*
X128001998Y-88134198D01*
X127991975Y-88119197D01*
X127919408Y-88010592D01*
X127919405Y-88010590D01*
X127808224Y-87899408D01*
X136763592Y-87899408D01*
X136887197Y-87981998D01*
X137033000Y-88011000D01*
X137256185Y-88011000D01*
X136748184Y-88519000D01*
X135683079Y-88519000D01*
X135683079Y-88250000D01*
X135666167Y-88162836D01*
X135615842Y-88086226D01*
X135539871Y-88034944D01*
X135450000Y-88016921D01*
X133950000Y-88016921D01*
X133862836Y-88033833D01*
X133786226Y-88084158D01*
X133734944Y-88160129D01*
X133716921Y-88250000D01*
X133716921Y-89550000D01*
X133733833Y-89637164D01*
X133784158Y-89713774D01*
X133860129Y-89765056D01*
X133950000Y-89783079D01*
X135450000Y-89783079D01*
X135537164Y-89766167D01*
X135613774Y-89715842D01*
X135665056Y-89639871D01*
X135683079Y-89550000D01*
X135683079Y-89281000D01*
X136748184Y-89281000D01*
X136509592Y-89519592D01*
X136427002Y-89643197D01*
X136402940Y-89764164D01*
X136398000Y-89789000D01*
X136398000Y-90393184D01*
X135732184Y-91059000D01*
X135683079Y-91059000D01*
X135683079Y-90790000D01*
X135666167Y-90702836D01*
X135615842Y-90626226D01*
X135539871Y-90574944D01*
X135450000Y-90556921D01*
X133950000Y-90556921D01*
X133862836Y-90573833D01*
X133786226Y-90624158D01*
X133734944Y-90700129D01*
X133716921Y-90790000D01*
X133716921Y-92090000D01*
X133733833Y-92177164D01*
X133784158Y-92253774D01*
X133860129Y-92305056D01*
X133950000Y-92323079D01*
X135450000Y-92323079D01*
X135537164Y-92306167D01*
X135613774Y-92255842D01*
X135665056Y-92179871D01*
X135683079Y-92090000D01*
X135683079Y-91821000D01*
X135890000Y-91821000D01*
X136035803Y-91791998D01*
X136159408Y-91709408D01*
X137048408Y-90820408D01*
X137130998Y-90696802D01*
X137160001Y-90551000D01*
X137160000Y-90550995D01*
X137160000Y-89946816D01*
X137717895Y-89388921D01*
X138257000Y-89388921D01*
X138169836Y-89405833D01*
X138093226Y-89456158D01*
X138041944Y-89532129D01*
X138023921Y-89622000D01*
X138023921Y-91222000D01*
X138040833Y-91309164D01*
X138091158Y-91385774D01*
X138167129Y-91437056D01*
X138257000Y-91455079D01*
X138857000Y-91455079D01*
X138944164Y-91438167D01*
X139020774Y-91387842D01*
X139072056Y-91311871D01*
X139090079Y-91222000D01*
X139090079Y-89622000D01*
X139073167Y-89534836D01*
X139022842Y-89458226D01*
X138946871Y-89406944D01*
X138857000Y-89388921D01*
X138257000Y-89388921D01*
X137717895Y-89388921D01*
X137952816Y-89154000D01*
X141447184Y-89154000D01*
X141847496Y-89554311D01*
X141833921Y-89622000D01*
X141833921Y-91222000D01*
X141850833Y-91309164D01*
X141901158Y-91385774D01*
X141977129Y-91437056D01*
X142067000Y-91455079D01*
X142667000Y-91455079D01*
X142754164Y-91438167D01*
X142830774Y-91387842D01*
X142882056Y-91311871D01*
X142900079Y-91222000D01*
X142900079Y-89622000D01*
X142883167Y-89534836D01*
X142832842Y-89458226D01*
X142756871Y-89406944D01*
X142721101Y-89399771D01*
X142718998Y-89389198D01*
X142665143Y-89308598D01*
X142636408Y-89265592D01*
X142636405Y-89265590D01*
X142016816Y-88646000D01*
X142463184Y-88646000D01*
X143233650Y-89416466D01*
X143173226Y-89456158D01*
X143121944Y-89532129D01*
X143103921Y-89622000D01*
X143103921Y-91222000D01*
X143120833Y-91309164D01*
X143171158Y-91385774D01*
X143247129Y-91437056D01*
X143337000Y-91455079D01*
X143937000Y-91455079D01*
X144024164Y-91438167D01*
X144100774Y-91387842D01*
X144152056Y-91311871D01*
X144170079Y-91222000D01*
X144170079Y-89622000D01*
X144153167Y-89534836D01*
X144102842Y-89458226D01*
X144026871Y-89406944D01*
X144018000Y-89405165D01*
X144018000Y-89281000D01*
X144006722Y-89224302D01*
X143988998Y-89135197D01*
X143906408Y-89011592D01*
X142905816Y-88011000D01*
X143352184Y-88011000D01*
X144526000Y-89184815D01*
X144526000Y-89404637D01*
X144519836Y-89405833D01*
X144443226Y-89456158D01*
X144391944Y-89532129D01*
X144373921Y-89622000D01*
X144373921Y-91222000D01*
X144390833Y-91309164D01*
X144441158Y-91385774D01*
X144517129Y-91437056D01*
X144607000Y-91455079D01*
X145207000Y-91455079D01*
X145294164Y-91438167D01*
X145370774Y-91387842D01*
X145422056Y-91311871D01*
X145440079Y-91222000D01*
X145440079Y-89622000D01*
X145423167Y-89534836D01*
X145372842Y-89458226D01*
X145296871Y-89406944D01*
X145288000Y-89405165D01*
X145288000Y-89027000D01*
X145262699Y-88899802D01*
X145258998Y-88881197D01*
X145225917Y-88831688D01*
X145176408Y-88757592D01*
X145176405Y-88757590D01*
X143921816Y-87503000D01*
X143987184Y-87503000D01*
X145796000Y-89311816D01*
X145796000Y-89404637D01*
X145789836Y-89405833D01*
X145713226Y-89456158D01*
X145661944Y-89532129D01*
X145643921Y-89622000D01*
X145643921Y-91222000D01*
X145660833Y-91309164D01*
X145711158Y-91385774D01*
X145787129Y-91437056D01*
X145877000Y-91455079D01*
X146477000Y-91455079D01*
X146564164Y-91438167D01*
X146640774Y-91387842D01*
X146692056Y-91311871D01*
X146710079Y-91222000D01*
X146710079Y-89622000D01*
X146693167Y-89534836D01*
X146642842Y-89458226D01*
X146566871Y-89406944D01*
X146558000Y-89405165D01*
X146558000Y-89154000D01*
X146532738Y-89027000D01*
X146528998Y-89008197D01*
X146446408Y-88884592D01*
X144414408Y-86852592D01*
X144290803Y-86770002D01*
X144145000Y-86741000D01*
X137444815Y-86741000D01*
X137160000Y-86456184D01*
X137160000Y-85090000D01*
X137132908Y-84953800D01*
X137130998Y-84944197D01*
X137048408Y-84820592D01*
X136227616Y-83999800D01*
X137818850Y-83999800D01*
X137672800Y-84145850D01*
X137672800Y-84738204D01*
X137761739Y-84952922D01*
X137926077Y-85117261D01*
X138140795Y-85206200D01*
X138260950Y-85206200D01*
X138407000Y-85060150D01*
X138407000Y-83999800D01*
X138707000Y-83999800D01*
X138407000Y-83999800D01*
X138407000Y-83999800D01*
X138707000Y-83999800D01*
X138707000Y-85060150D01*
X138853050Y-85206200D01*
X138973205Y-85206200D01*
X143220795Y-85206200D01*
X143340950Y-85206200D01*
X143487000Y-85060150D01*
X143487000Y-83999800D01*
X143107150Y-83999800D01*
X143105150Y-83997800D01*
X142517000Y-83997800D01*
X142217000Y-83997800D01*
X142217000Y-83997800D01*
X142169200Y-83997800D01*
X142169200Y-83642200D01*
X142217000Y-83642200D01*
X142217000Y-82581850D01*
X142070950Y-82435800D01*
X142663050Y-82435800D01*
X142517000Y-82581850D01*
X142517000Y-83642200D01*
X142896850Y-83642200D01*
X142898850Y-83644200D01*
X143487000Y-83644200D01*
X143487000Y-82583850D01*
X143340950Y-82437800D01*
X143220795Y-82437800D01*
X143006077Y-82526739D01*
X143003000Y-82529816D01*
X142997923Y-82524739D01*
X142783205Y-82435800D01*
X142663050Y-82435800D01*
X142070950Y-82435800D01*
X142070950Y-82435800D01*
X141950795Y-82435800D01*
X141736077Y-82524739D01*
X141571739Y-82689078D01*
X141498856Y-82865034D01*
X141486871Y-82856944D01*
X141478000Y-82855165D01*
X141478000Y-82469182D01*
X141581211Y-82366151D01*
X141668400Y-82156177D01*
X141668599Y-81928820D01*
X141581776Y-81718694D01*
X141421151Y-81557789D01*
X141419791Y-81557224D01*
X172904694Y-81557224D01*
X172743789Y-81717849D01*
X172656600Y-81927823D01*
X172656401Y-82155180D01*
X172743224Y-82365306D01*
X172847000Y-82469263D01*
X172847000Y-82931637D01*
X172840836Y-82932833D01*
X172764226Y-82983158D01*
X172712944Y-83059129D01*
X172694921Y-83149000D01*
X172694921Y-84749000D01*
X172711833Y-84836164D01*
X172762158Y-84912774D01*
X172838129Y-84964056D01*
X172928000Y-84982079D01*
X173528000Y-84982079D01*
X173615164Y-84965167D01*
X173691774Y-84914842D01*
X173743056Y-84838871D01*
X173761079Y-84749000D01*
X173761079Y-83149000D01*
X173744167Y-83061836D01*
X173693842Y-82985226D01*
X173617871Y-82933944D01*
X173609000Y-82932165D01*
X173609000Y-82469182D01*
X173712211Y-82366151D01*
X173799400Y-82156177D01*
X173799599Y-81928820D01*
X173712776Y-81718694D01*
X173552151Y-81557789D01*
X173342177Y-81470600D01*
X173114820Y-81470401D01*
X172904694Y-81557224D01*
X141419791Y-81557224D01*
X141211177Y-81470600D01*
X140983820Y-81470401D01*
X140773694Y-81557224D01*
X140612789Y-81717849D01*
X140525600Y-81927823D01*
X140525401Y-82155180D01*
X140612224Y-82365306D01*
X140716000Y-82469263D01*
X140716000Y-82854637D01*
X140709836Y-82855833D01*
X140633226Y-82906158D01*
X140581944Y-82982129D01*
X140563921Y-83072000D01*
X140563921Y-84572000D01*
X140580833Y-84659164D01*
X140631158Y-84735774D01*
X140707129Y-84787056D01*
X140797000Y-84805079D01*
X141397000Y-84805079D01*
X141484164Y-84788167D01*
X141500012Y-84777757D01*
X141571739Y-84950922D01*
X141736077Y-85115261D01*
X141950795Y-85204200D01*
X142070950Y-85204200D01*
X142217000Y-85058150D01*
X142217000Y-83997800D01*
X142517000Y-83997800D01*
X142217000Y-83997800D01*
X142217000Y-83997800D01*
X142517000Y-83997800D01*
X142517000Y-85058150D01*
X142663050Y-85204200D01*
X142783205Y-85204200D01*
X142997923Y-85115261D01*
X143001000Y-85112184D01*
X143006077Y-85117261D01*
X143220795Y-85206200D01*
X138973205Y-85206200D01*
X138973205Y-85206200D01*
X139187923Y-85117261D01*
X139352261Y-84952922D01*
X139408312Y-84817604D01*
X139437129Y-84837056D01*
X139527000Y-84855079D01*
X140127000Y-84855079D01*
X140214164Y-84838167D01*
X140290774Y-84787842D01*
X140342056Y-84711871D01*
X140360079Y-84622000D01*
X140360079Y-83022000D01*
X140343167Y-82934836D01*
X140292842Y-82858226D01*
X140216871Y-82806944D01*
X140127000Y-82788921D01*
X139527000Y-82788921D01*
X139439836Y-82805833D01*
X139408359Y-82826510D01*
X139352261Y-82691078D01*
X139187923Y-82526739D01*
X138973205Y-82437800D01*
X138853050Y-82437800D01*
X138260950Y-82437800D01*
X138260950Y-82437800D01*
X138140795Y-82437800D01*
X137926077Y-82526739D01*
X137761739Y-82691078D01*
X137672800Y-82905796D01*
X137672800Y-83498150D01*
X137818850Y-83644200D01*
X138407000Y-83644200D01*
X138407000Y-82583850D01*
X138260950Y-82437800D01*
X138853050Y-82437800D01*
X138260950Y-82437800D01*
X138260950Y-82437800D01*
X138853050Y-82437800D01*
X138707000Y-82583850D01*
X138707000Y-83644200D01*
X138754800Y-83644200D01*
X138754800Y-83999800D01*
X138707000Y-83999800D01*
X138407000Y-83999800D01*
X138407000Y-83999800D01*
X137818850Y-83999800D01*
X136227616Y-83999800D01*
X135778408Y-83550592D01*
X135683079Y-83486895D01*
X135683079Y-83170000D01*
X135666167Y-83082836D01*
X135615842Y-83006226D01*
X135539871Y-82954944D01*
X135450000Y-82936921D01*
X133950000Y-82936921D01*
X132750000Y-82936921D01*
X132750000Y-82936921D01*
X131250000Y-82936921D01*
X131162836Y-82953833D01*
X131086226Y-83004158D01*
X131034944Y-83080129D01*
X131016921Y-83170000D01*
X131016921Y-83439000D01*
X129667000Y-83439000D01*
X129521197Y-83468002D01*
X129397592Y-83550592D01*
X128366184Y-84582000D01*
X127920909Y-84582000D01*
X127963774Y-84553842D01*
X128015056Y-84477871D01*
X128033079Y-84388000D01*
X128033079Y-83863000D01*
X128031000Y-83852285D01*
X128031000Y-83073005D01*
X128031001Y-83073000D01*
X128001998Y-82927198D01*
X127919408Y-82803592D01*
X127269408Y-82153592D01*
X127145803Y-82071002D01*
X127000000Y-82042000D01*
X122809000Y-82042000D01*
X122663197Y-82071002D01*
X122613688Y-82104083D01*
X122539592Y-82153592D01*
X122539590Y-82153595D01*
X121254184Y-83439000D01*
X120629079Y-83439000D01*
X120629079Y-82956400D01*
X120612167Y-82869236D01*
X120561842Y-82792626D01*
X120485871Y-82741344D01*
X120396000Y-82723321D01*
X118364000Y-82723321D01*
X118276836Y-82740233D01*
X118200226Y-82790558D01*
X118148944Y-82866529D01*
X118130921Y-82956400D01*
X118130921Y-84683600D01*
X118147833Y-84770764D01*
X118198158Y-84847374D01*
X118274129Y-84898656D01*
X118364000Y-84916679D01*
X120396000Y-84916679D01*
X120483164Y-84899767D01*
X120559774Y-84849442D01*
X120611056Y-84773471D01*
X120629079Y-84683600D01*
X120629079Y-84256750D01*
X125761850Y-84256750D01*
X125615800Y-84402800D01*
X125615800Y-84504204D01*
X125704739Y-84718922D01*
X125869077Y-84883261D01*
X126083795Y-84972200D01*
X126128950Y-84972200D01*
X126275000Y-84826150D01*
X126275000Y-84256750D01*
X125761850Y-84256750D01*
X120629079Y-84256750D01*
X120629079Y-84201000D01*
X121412000Y-84201000D01*
X121557803Y-84171998D01*
X121681408Y-84089408D01*
X122492015Y-83278800D01*
X126083795Y-83278800D01*
X125869077Y-83367739D01*
X125704739Y-83532078D01*
X125615800Y-83746796D01*
X125615800Y-83848200D01*
X125761850Y-83994250D01*
X126275000Y-83994250D01*
X126275000Y-83424850D01*
X126128950Y-83278800D01*
X126083795Y-83278800D01*
X122492015Y-83278800D01*
X122966815Y-82804000D01*
X126842184Y-82804000D01*
X127269000Y-83230816D01*
X127269000Y-83667607D01*
X127239871Y-83647944D01*
X127150000Y-83629921D01*
X127035789Y-83629921D01*
X126995261Y-83532078D01*
X126830923Y-83367739D01*
X126616205Y-83278800D01*
X126571050Y-83278800D01*
X126425000Y-83424850D01*
X126425000Y-83994250D01*
X126500000Y-83994250D01*
X126500000Y-84256750D01*
X126425000Y-84256750D01*
X126425000Y-84826150D01*
X126571050Y-84972200D01*
X126616205Y-84972200D01*
X126702547Y-84936436D01*
X126730592Y-84978408D01*
X126984592Y-85232408D01*
X126992154Y-85237461D01*
X126964211Y-85304921D01*
X126850000Y-85304921D01*
X126762836Y-85321833D01*
X126686226Y-85372158D01*
X126675207Y-85388482D01*
X126665842Y-85374226D01*
X126589871Y-85322944D01*
X126500000Y-85304921D01*
X126200000Y-85304921D01*
X126112836Y-85321833D01*
X126036226Y-85372158D01*
X126004269Y-85419500D01*
X122098500Y-85419500D01*
X121952698Y-85448502D01*
X121829092Y-85531092D01*
X121829090Y-85531095D01*
X121381184Y-85979000D01*
X120573197Y-85979000D01*
X120565844Y-85942033D01*
X120329085Y-85587698D01*
X119974750Y-85350939D01*
X119556783Y-85267800D01*
X119203217Y-85267800D01*
X118785250Y-85350939D01*
X118430915Y-85587698D01*
X118194156Y-85942033D01*
X118111017Y-86360000D01*
X118194156Y-86777967D01*
X118430915Y-87132302D01*
X118785250Y-87369061D01*
X119203217Y-87452200D01*
X119556783Y-87452200D01*
X119974750Y-87369061D01*
X120329085Y-87132302D01*
X120565844Y-86777967D01*
X120573197Y-86741000D01*
X121539000Y-86741000D01*
X121684803Y-86711998D01*
X121808408Y-86629408D01*
X122256315Y-86181500D01*
X126004418Y-86181500D01*
X126034158Y-86226774D01*
X126110129Y-86278056D01*
X126200000Y-86296079D01*
X126500000Y-86296079D01*
X126587164Y-86279167D01*
X126619000Y-86258254D01*
X126619000Y-86741000D01*
X126648002Y-86886803D01*
X126730592Y-87010408D01*
X126857592Y-87137408D01*
X126981197Y-87219998D01*
X127127000Y-87249000D01*
X130048000Y-87249000D01*
X130193803Y-87219998D01*
X130317408Y-87137408D01*
X130713815Y-86741000D01*
X131016921Y-86741000D01*
X131016921Y-87010000D01*
X131033833Y-87097164D01*
X131084158Y-87173774D01*
X131160129Y-87225056D01*
X131250000Y-87243079D01*
X132750000Y-87243079D01*
X132837164Y-87226167D01*
X132913774Y-87175842D01*
X132965056Y-87099871D01*
X132983079Y-87010000D01*
X132983079Y-85710000D01*
X132966167Y-85622836D01*
X132915842Y-85546226D01*
X132839871Y-85494944D01*
X132750000Y-85476921D01*
X131250000Y-85476921D01*
X131162836Y-85493833D01*
X131086226Y-85544158D01*
X131034944Y-85620129D01*
X131016921Y-85710000D01*
X131016921Y-85979000D01*
X130556000Y-85979000D01*
X130410198Y-86008002D01*
X130286592Y-86090592D01*
X130286590Y-86090595D01*
X129890184Y-86487000D01*
X128202184Y-86487000D01*
X128295261Y-86393922D01*
X128384200Y-86179204D01*
X128384200Y-86077800D01*
X128238150Y-85931750D01*
X127725000Y-85931750D01*
X127725000Y-85998300D01*
X127575000Y-85998300D01*
X127575000Y-85931750D01*
X127500000Y-85931750D01*
X127500000Y-85669250D01*
X127575000Y-85669250D01*
X127575000Y-85602700D01*
X127725000Y-85602700D01*
X127725000Y-85669250D01*
X128238150Y-85669250D01*
X128384200Y-85523200D01*
X128384200Y-85421796D01*
X128351976Y-85344000D01*
X128524000Y-85344000D01*
X128669803Y-85314998D01*
X128793408Y-85232408D01*
X129824816Y-84201000D01*
X131016921Y-84201000D01*
X131016921Y-84470000D01*
X131033833Y-84557164D01*
X131084158Y-84633774D01*
X131160129Y-84685056D01*
X131250000Y-84703079D01*
X132750000Y-84703079D01*
X132837164Y-84686167D01*
X132913774Y-84635842D01*
X132965056Y-84559871D01*
X132983079Y-84470000D01*
X132983079Y-83170000D01*
X132966167Y-83082836D01*
X132915842Y-83006226D01*
X132839871Y-82954944D01*
X132750000Y-82936921D01*
X133950000Y-82936921D01*
X132750000Y-82936921D01*
X132750000Y-82936921D01*
X133950000Y-82936921D01*
X133862836Y-82953833D01*
X133786226Y-83004158D01*
X133734944Y-83080129D01*
X133716921Y-83170000D01*
X133716921Y-84470000D01*
X133733833Y-84557164D01*
X133784158Y-84633774D01*
X133860129Y-84685056D01*
X133950000Y-84703079D01*
X135450000Y-84703079D01*
X135537164Y-84686167D01*
X135613774Y-84635842D01*
X135665056Y-84559871D01*
X135672573Y-84522389D01*
X136398000Y-85247816D01*
X136398000Y-86456184D01*
X136032408Y-86090592D01*
X135908803Y-86008002D01*
X135763000Y-85979000D01*
X135683079Y-85979000D01*
X135683079Y-85710000D01*
X135666167Y-85622836D01*
X135615842Y-85546226D01*
X135539871Y-85494944D01*
X135450000Y-85476921D01*
X133950000Y-85476921D01*
X133862836Y-85493833D01*
X133786226Y-85544158D01*
X133734944Y-85620129D01*
X133716921Y-85710000D01*
X133716921Y-87010000D01*
X133733833Y-87097164D01*
X133784158Y-87173774D01*
X133860129Y-87225056D01*
X133950000Y-87243079D01*
X135450000Y-87243079D01*
X135537164Y-87226167D01*
X135613774Y-87175842D01*
X135665056Y-87099871D01*
X135683079Y-87010000D01*
X135683079Y-86818895D01*
X136763592Y-87899408D01*
X127808224Y-87899408D01*
X127523408Y-87614592D01*
X127399803Y-87532002D01*
X127254000Y-87503000D01*
X124587000Y-87503000D01*
X117068600Y-87503000D01*
X117068600Y-79531002D01*
X191878198Y-79531002D01*
X191754592Y-79613592D01*
X191754590Y-79613595D01*
X190209263Y-81158921D01*
X189703000Y-81158921D01*
X189615836Y-81175833D01*
X189539226Y-81226158D01*
X189487944Y-81302129D01*
X189469921Y-81392000D01*
X189469921Y-82692000D01*
X189486833Y-82779164D01*
X189537158Y-82855774D01*
X189613129Y-82907056D01*
X189703000Y-82925079D01*
X191203000Y-82925079D01*
X191290164Y-82908167D01*
X191366774Y-82857842D01*
X191418056Y-82781871D01*
X191436079Y-82692000D01*
X191436079Y-81392000D01*
X191419167Y-81304836D01*
X191368842Y-81228226D01*
X191292871Y-81176944D01*
X191272881Y-81172935D01*
X192181815Y-80264000D01*
X200375184Y-80264000D01*
X200680921Y-80569737D01*
X200680921Y-82143600D01*
X200697833Y-82230764D01*
X200748158Y-82307374D01*
X200824129Y-82358656D01*
X200914000Y-82376679D01*
X202946000Y-82376679D01*
X203033164Y-82359767D01*
X203109774Y-82309442D01*
X203161056Y-82233471D01*
X203179079Y-82143600D01*
X203179079Y-80416400D01*
X203162167Y-80329236D01*
X203111842Y-80252626D01*
X203035871Y-80201344D01*
X202946000Y-80183321D01*
X201372137Y-80183321D01*
X200802408Y-79613592D01*
X200678803Y-79531002D01*
X200533000Y-79502000D01*
X192024005Y-79502000D01*
X192024000Y-79501999D01*
X191878198Y-79531002D01*
X117068600Y-79531002D01*
X117068600Y-78968600D01*
X140970000Y-78968600D01*
X141543489Y-78854526D01*
X141600848Y-78816200D01*
X146562152Y-78816200D01*
X146619511Y-78854526D01*
G36*
X131302590Y-96154405D02*
X131302592Y-96154408D01*
X131420668Y-96233303D01*
X131426198Y-96236998D01*
X131572000Y-96266001D01*
X131572005Y-96266000D01*
X132500437Y-96266000D01*
X132485836Y-96268833D01*
X132409226Y-96319158D01*
X132357944Y-96395129D01*
X132339921Y-96485000D01*
X132339921Y-96854000D01*
X127982825Y-96854000D01*
X128003923Y-96845261D01*
X128168261Y-96680922D01*
X128257200Y-96466204D01*
X128257200Y-96364800D01*
X128111150Y-96218750D01*
X127598000Y-96218750D01*
X127598000Y-96285300D01*
X127448000Y-96285300D01*
X127448000Y-96218750D01*
X127373000Y-96218750D01*
X127373000Y-95956250D01*
X127448000Y-95956250D01*
X127448000Y-95889700D01*
X127598000Y-95889700D01*
X127598000Y-95956250D01*
X128111150Y-95956250D01*
X128257200Y-95810200D01*
X128257200Y-95708796D01*
X128224976Y-95631000D01*
X130779184Y-95631000D01*
X131302590Y-96154405D01*
X131302590Y-96154405D01*
G37*
X131302590Y-96154405D02*
X131302592Y-96154408D01*
X131420668Y-96233303D01*
X131426198Y-96236998D01*
X131572000Y-96266001D01*
X131572005Y-96266000D01*
X132500437Y-96266000D01*
X132485836Y-96268833D01*
X132409226Y-96319158D01*
X132357944Y-96395129D01*
X132339921Y-96485000D01*
X132339921Y-96854000D01*
X127982825Y-96854000D01*
X128003923Y-96845261D01*
X128168261Y-96680922D01*
X128257200Y-96466204D01*
X128257200Y-96364800D01*
X128111150Y-96218750D01*
X127598000Y-96218750D01*
X127598000Y-96285300D01*
X127448000Y-96285300D01*
X127448000Y-96218750D01*
X127373000Y-96218750D01*
X127373000Y-95956250D01*
X127448000Y-95956250D01*
X127448000Y-95889700D01*
X127598000Y-95889700D01*
X127598000Y-95956250D01*
X128111150Y-95956250D01*
X128257200Y-95810200D01*
X128257200Y-95708796D01*
X128224976Y-95631000D01*
X130779184Y-95631000D01*
X131302590Y-96154405D01*
M02*
