G04 #@! TF.FileFunction,Copper,L3,Inr,Signal*
%FSLAX46Y46*%
G04 Gerber Fmt 4.6, Leading zero omitted, Abs format (unit mm)*
G04 Created by KiCad (PCBNEW (2015-05-26 BZR 5680)-product) date 2015 June 10, Wednesday 08:28:09*
%MOMM*%
G01*
G04 APERTURE LIST*
%ADD10C,0.100000*%
%ADD11R,1.727200X2.032000*%
%ADD12O,1.727200X2.032000*%
%ADD13R,1.500000X1.500000*%
%ADD14C,1.500000*%
%ADD15C,0.685800*%
%ADD16C,0.254000*%
G04 APERTURE END LIST*
D10*
D11*
X157480000Y-66040000D03*
D12*
X154940000Y-66040000D03*
X152400000Y-66040000D03*
X149860000Y-66040000D03*
X147320000Y-66040000D03*
D13*
X98552000Y-59690000D03*
D14*
X96012000Y-59690000D03*
X93472000Y-59690000D03*
X90932000Y-59690000D03*
X88392000Y-59690000D03*
X88392000Y-44450000D03*
X90932000Y-44450000D03*
X93472000Y-44450000D03*
X96012000Y-44450000D03*
X98552000Y-44450000D03*
D13*
X111506000Y-59690000D03*
D14*
X108966000Y-59690000D03*
X106426000Y-59690000D03*
X103886000Y-59690000D03*
X101346000Y-59690000D03*
X101346000Y-44450000D03*
X103886000Y-44450000D03*
X106426000Y-44450000D03*
X108966000Y-44450000D03*
X111506000Y-44450000D03*
D13*
X128778000Y-59690000D03*
D14*
X126238000Y-59690000D03*
X123698000Y-59690000D03*
X121158000Y-59690000D03*
X118618000Y-59690000D03*
X118618000Y-44450000D03*
X121158000Y-44450000D03*
X123698000Y-44450000D03*
X126238000Y-44450000D03*
X128778000Y-44450000D03*
D13*
X141732000Y-59690000D03*
D14*
X139192000Y-59690000D03*
X136652000Y-59690000D03*
X134112000Y-59690000D03*
X131572000Y-59690000D03*
X131572000Y-44450000D03*
X134112000Y-44450000D03*
X136652000Y-44450000D03*
X139192000Y-44450000D03*
X141732000Y-44450000D03*
D15*
X141732000Y-64262000D03*
X128778000Y-64262000D03*
X111506000Y-64262000D03*
X98552000Y-64262000D03*
X139192000Y-63246000D03*
X126238000Y-63246000D03*
X108966000Y-63246000D03*
X96012000Y-63246000D03*
X136652000Y-36830000D03*
X151892000Y-56896000D03*
X153162000Y-41910000D03*
X143764000Y-54610000D03*
X150368000Y-42164000D03*
X150368000Y-49276000D03*
X148082000Y-52324000D03*
X148590000Y-40894000D03*
X148590000Y-46736000D03*
X134112000Y-40894000D03*
X121158000Y-40894000D03*
X103886000Y-40894000D03*
X90932000Y-41148000D03*
X149352000Y-39878000D03*
X149352000Y-48006000D03*
X139192000Y-39878000D03*
X126238000Y-39878000D03*
X108966000Y-39878000D03*
X96012000Y-39878000D03*
X151130000Y-38862000D03*
X151130000Y-50546000D03*
X141732000Y-38862000D03*
X128778000Y-38862000D03*
X111506000Y-38862000D03*
X98552000Y-38862000D03*
X123698000Y-37846000D03*
X106426000Y-66294000D03*
X93472000Y-65278000D03*
X136398000Y-49530000D03*
X140208000Y-51816000D03*
X147066000Y-52578000D03*
X156210000Y-55880000D03*
X156210000Y-49530000D03*
X138938000Y-56642000D03*
X132334000Y-51054000D03*
X147320000Y-44450000D03*
X156972000Y-45466000D03*
X150622000Y-56896000D03*
X147574000Y-45466000D03*
X114808000Y-45720000D03*
X156210000Y-57150000D03*
X115570000Y-56896000D03*
D16*
G36*
X159335000Y-67895000D02*
X158991040Y-67895000D01*
X158991040Y-67056000D01*
X158991040Y-65024000D01*
X158944063Y-64781877D01*
X158804273Y-64569073D01*
X158593240Y-64426623D01*
X158343600Y-64376560D01*
X157950069Y-64376560D01*
X157950069Y-45272337D01*
X157801507Y-44912788D01*
X157526659Y-44637460D01*
X157167370Y-44488270D01*
X156778337Y-44487931D01*
X156418788Y-44636493D01*
X156143460Y-44911341D01*
X155994270Y-45270630D01*
X155993931Y-45659663D01*
X156142493Y-46019212D01*
X156417341Y-46294540D01*
X156776630Y-46443730D01*
X157165663Y-46444069D01*
X157525212Y-46295507D01*
X157800540Y-46020659D01*
X157949730Y-45661370D01*
X157950069Y-45272337D01*
X157950069Y-64376560D01*
X157188069Y-64376560D01*
X157188069Y-56956337D01*
X157039507Y-56596788D01*
X156764659Y-56321460D01*
X156405370Y-56172270D01*
X156016337Y-56171931D01*
X155656788Y-56320493D01*
X155381460Y-56595341D01*
X155232270Y-56954630D01*
X155231931Y-57343663D01*
X155380493Y-57703212D01*
X155655341Y-57978540D01*
X156014630Y-58127730D01*
X156403663Y-58128069D01*
X156763212Y-57979507D01*
X157038540Y-57704659D01*
X157187730Y-57345370D01*
X157188069Y-56956337D01*
X157188069Y-64376560D01*
X156616400Y-64376560D01*
X156374277Y-64423537D01*
X156161473Y-64563327D01*
X156019023Y-64774360D01*
X156011281Y-64812962D01*
X155999670Y-64795585D01*
X155513489Y-64470729D01*
X154940000Y-64356655D01*
X154366511Y-64470729D01*
X154140069Y-64622032D01*
X154140069Y-41716337D01*
X153991507Y-41356788D01*
X153716659Y-41081460D01*
X153357370Y-40932270D01*
X152968337Y-40931931D01*
X152608788Y-41080493D01*
X152333460Y-41355341D01*
X152184270Y-41714630D01*
X152183931Y-42103663D01*
X152332493Y-42463212D01*
X152607341Y-42738540D01*
X152966630Y-42887730D01*
X153355663Y-42888069D01*
X153715212Y-42739507D01*
X153990540Y-42464659D01*
X154139730Y-42105370D01*
X154140069Y-41716337D01*
X154140069Y-64622032D01*
X153880330Y-64795585D01*
X153670000Y-65110365D01*
X153459670Y-64795585D01*
X152973489Y-64470729D01*
X152870069Y-64450157D01*
X152870069Y-56702337D01*
X152721507Y-56342788D01*
X152446659Y-56067460D01*
X152108069Y-55926864D01*
X152108069Y-50352337D01*
X152108069Y-38668337D01*
X151959507Y-38308788D01*
X151684659Y-38033460D01*
X151325370Y-37884270D01*
X150936337Y-37883931D01*
X150576788Y-38032493D01*
X150301460Y-38307341D01*
X150152270Y-38666630D01*
X150151931Y-39055663D01*
X150300493Y-39415212D01*
X150575341Y-39690540D01*
X150934630Y-39839730D01*
X151323663Y-39840069D01*
X151683212Y-39691507D01*
X151958540Y-39416659D01*
X152107730Y-39057370D01*
X152108069Y-38668337D01*
X152108069Y-50352337D01*
X151959507Y-49992788D01*
X151684659Y-49717460D01*
X151325370Y-49568270D01*
X151305500Y-49568252D01*
X151345730Y-49471370D01*
X151346069Y-49082337D01*
X151346069Y-41970337D01*
X151197507Y-41610788D01*
X150922659Y-41335460D01*
X150563370Y-41186270D01*
X150330069Y-41186066D01*
X150330069Y-39684337D01*
X150181507Y-39324788D01*
X149906659Y-39049460D01*
X149547370Y-38900270D01*
X149158337Y-38899931D01*
X148798788Y-39048493D01*
X148523460Y-39323341D01*
X148374270Y-39682630D01*
X148374058Y-39925136D01*
X148036788Y-40064493D01*
X147761460Y-40339341D01*
X147612270Y-40698630D01*
X147611931Y-41087663D01*
X147760493Y-41447212D01*
X148035341Y-41722540D01*
X148394630Y-41871730D01*
X148783663Y-41872069D01*
X149143212Y-41723507D01*
X149418540Y-41448659D01*
X149567730Y-41089370D01*
X149567941Y-40846863D01*
X149905212Y-40707507D01*
X150180540Y-40432659D01*
X150329730Y-40073370D01*
X150330069Y-39684337D01*
X150330069Y-41186066D01*
X150174337Y-41185931D01*
X149814788Y-41334493D01*
X149539460Y-41609341D01*
X149390270Y-41968630D01*
X149389931Y-42357663D01*
X149538493Y-42717212D01*
X149813341Y-42992540D01*
X150172630Y-43141730D01*
X150561663Y-43142069D01*
X150921212Y-42993507D01*
X151196540Y-42718659D01*
X151345730Y-42359370D01*
X151346069Y-41970337D01*
X151346069Y-49082337D01*
X151197507Y-48722788D01*
X150922659Y-48447460D01*
X150563370Y-48298270D01*
X150289592Y-48298031D01*
X150329730Y-48201370D01*
X150330069Y-47812337D01*
X150181507Y-47452788D01*
X149906659Y-47177460D01*
X149547370Y-47028270D01*
X149527500Y-47028252D01*
X149567730Y-46931370D01*
X149568069Y-46542337D01*
X149419507Y-46182788D01*
X149144659Y-45907460D01*
X148785370Y-45758270D01*
X148511592Y-45758031D01*
X148551730Y-45661370D01*
X148552069Y-45272337D01*
X148403507Y-44912788D01*
X148250382Y-44759395D01*
X148297730Y-44645370D01*
X148298069Y-44256337D01*
X148149507Y-43896788D01*
X147874659Y-43621460D01*
X147515370Y-43472270D01*
X147126337Y-43471931D01*
X146766788Y-43620493D01*
X146491460Y-43895341D01*
X146342270Y-44254630D01*
X146341931Y-44643663D01*
X146490493Y-45003212D01*
X146643617Y-45156604D01*
X146596270Y-45270630D01*
X146595931Y-45659663D01*
X146744493Y-46019212D01*
X147019341Y-46294540D01*
X147378630Y-46443730D01*
X147652407Y-46443968D01*
X147612270Y-46540630D01*
X147611931Y-46929663D01*
X147760493Y-47289212D01*
X148035341Y-47564540D01*
X148394630Y-47713730D01*
X148414499Y-47713747D01*
X148374270Y-47810630D01*
X148373931Y-48199663D01*
X148522493Y-48559212D01*
X148797341Y-48834540D01*
X149156630Y-48983730D01*
X149430407Y-48983968D01*
X149390270Y-49080630D01*
X149389931Y-49469663D01*
X149538493Y-49829212D01*
X149813341Y-50104540D01*
X150172630Y-50253730D01*
X150192499Y-50253747D01*
X150152270Y-50350630D01*
X150151931Y-50739663D01*
X150300493Y-51099212D01*
X150575341Y-51374540D01*
X150934630Y-51523730D01*
X151323663Y-51524069D01*
X151683212Y-51375507D01*
X151958540Y-51100659D01*
X152107730Y-50741370D01*
X152108069Y-50352337D01*
X152108069Y-55926864D01*
X152087370Y-55918270D01*
X151698337Y-55917931D01*
X151338788Y-56066493D01*
X151257098Y-56148040D01*
X151176659Y-56067460D01*
X150817370Y-55918270D01*
X150428337Y-55917931D01*
X150068788Y-56066493D01*
X149793460Y-56341341D01*
X149644270Y-56700630D01*
X149643931Y-57089663D01*
X149792493Y-57449212D01*
X150067341Y-57724540D01*
X150426630Y-57873730D01*
X150815663Y-57874069D01*
X151175212Y-57725507D01*
X151256901Y-57643959D01*
X151337341Y-57724540D01*
X151696630Y-57873730D01*
X152085663Y-57874069D01*
X152445212Y-57725507D01*
X152720540Y-57450659D01*
X152869730Y-57091370D01*
X152870069Y-56702337D01*
X152870069Y-64450157D01*
X152400000Y-64356655D01*
X151826511Y-64470729D01*
X151340330Y-64795585D01*
X151130000Y-65110365D01*
X150919670Y-64795585D01*
X150433489Y-64470729D01*
X149860000Y-64356655D01*
X149286511Y-64470729D01*
X149060069Y-64622032D01*
X149060069Y-52130337D01*
X148911507Y-51770788D01*
X148636659Y-51495460D01*
X148277370Y-51346270D01*
X147888337Y-51345931D01*
X147528788Y-51494493D01*
X147375395Y-51647617D01*
X147261370Y-51600270D01*
X146872337Y-51599931D01*
X146512788Y-51748493D01*
X146237460Y-52023341D01*
X146088270Y-52382630D01*
X146087931Y-52771663D01*
X146236493Y-53131212D01*
X146511341Y-53406540D01*
X146870630Y-53555730D01*
X147259663Y-53556069D01*
X147619212Y-53407507D01*
X147772604Y-53254382D01*
X147886630Y-53301730D01*
X148275663Y-53302069D01*
X148635212Y-53153507D01*
X148910540Y-52878659D01*
X149059730Y-52519370D01*
X149060069Y-52130337D01*
X149060069Y-64622032D01*
X148800330Y-64795585D01*
X148593539Y-65105069D01*
X148222036Y-64689268D01*
X147694791Y-64435291D01*
X147679026Y-64432642D01*
X147447000Y-64553783D01*
X147447000Y-65913000D01*
X147467000Y-65913000D01*
X147467000Y-66167000D01*
X147447000Y-66167000D01*
X147447000Y-67526217D01*
X147679026Y-67647358D01*
X147694791Y-67644709D01*
X148222036Y-67390732D01*
X148593539Y-66974930D01*
X148800330Y-67284415D01*
X149286511Y-67609271D01*
X149860000Y-67723345D01*
X150433489Y-67609271D01*
X150919670Y-67284415D01*
X151130000Y-66969634D01*
X151340330Y-67284415D01*
X151826511Y-67609271D01*
X152400000Y-67723345D01*
X152973489Y-67609271D01*
X153459670Y-67284415D01*
X153670000Y-66969634D01*
X153880330Y-67284415D01*
X154366511Y-67609271D01*
X154940000Y-67723345D01*
X155513489Y-67609271D01*
X155999670Y-67284415D01*
X156010215Y-67268632D01*
X156015937Y-67298123D01*
X156155727Y-67510927D01*
X156366760Y-67653377D01*
X156616400Y-67703440D01*
X158343600Y-67703440D01*
X158585723Y-67656463D01*
X158798527Y-67516673D01*
X158940977Y-67305640D01*
X158991040Y-67056000D01*
X158991040Y-67895000D01*
X147193000Y-67895000D01*
X147193000Y-67526217D01*
X147193000Y-66167000D01*
X147193000Y-65913000D01*
X147193000Y-64553783D01*
X146960974Y-64432642D01*
X146945209Y-64435291D01*
X146417964Y-64689268D01*
X146028046Y-65125680D01*
X145834816Y-65678087D01*
X145979076Y-65913000D01*
X147193000Y-65913000D01*
X147193000Y-66167000D01*
X145979076Y-66167000D01*
X145834816Y-66401913D01*
X146028046Y-66954320D01*
X146417964Y-67390732D01*
X146945209Y-67644709D01*
X146960974Y-67647358D01*
X147193000Y-67526217D01*
X147193000Y-67895000D01*
X144742069Y-67895000D01*
X144742069Y-54416337D01*
X144593507Y-54056788D01*
X144318659Y-53781460D01*
X143959370Y-53632270D01*
X143570337Y-53631931D01*
X143210788Y-53780493D01*
X143117240Y-53873877D01*
X143117240Y-44175715D01*
X142906831Y-43666485D01*
X142710069Y-43469379D01*
X142710069Y-38668337D01*
X142561507Y-38308788D01*
X142286659Y-38033460D01*
X141927370Y-37884270D01*
X141538337Y-37883931D01*
X141178788Y-38032493D01*
X140903460Y-38307341D01*
X140754270Y-38666630D01*
X140753931Y-39055663D01*
X140902493Y-39415212D01*
X141177341Y-39690540D01*
X141536630Y-39839730D01*
X141925663Y-39840069D01*
X142285212Y-39691507D01*
X142560540Y-39416659D01*
X142709730Y-39057370D01*
X142710069Y-38668337D01*
X142710069Y-43469379D01*
X142517564Y-43276539D01*
X142008702Y-43065241D01*
X141457715Y-43064760D01*
X140948485Y-43275169D01*
X140558539Y-43664436D01*
X140462023Y-43896870D01*
X140366831Y-43666485D01*
X140170069Y-43469379D01*
X140170069Y-39684337D01*
X140021507Y-39324788D01*
X139746659Y-39049460D01*
X139387370Y-38900270D01*
X138998337Y-38899931D01*
X138638788Y-39048493D01*
X138363460Y-39323341D01*
X138214270Y-39682630D01*
X138213931Y-40071663D01*
X138362493Y-40431212D01*
X138637341Y-40706540D01*
X138996630Y-40855730D01*
X139385663Y-40856069D01*
X139745212Y-40707507D01*
X140020540Y-40432659D01*
X140169730Y-40073370D01*
X140170069Y-39684337D01*
X140170069Y-43469379D01*
X139977564Y-43276539D01*
X139468702Y-43065241D01*
X138917715Y-43064760D01*
X138408485Y-43275169D01*
X138018539Y-43664436D01*
X137922023Y-43896870D01*
X137826831Y-43666485D01*
X137437564Y-43276539D01*
X136928702Y-43065241D01*
X136377715Y-43064760D01*
X135868485Y-43275169D01*
X135478539Y-43664436D01*
X135382023Y-43896870D01*
X135286831Y-43666485D01*
X135090069Y-43469379D01*
X135090069Y-40700337D01*
X134941507Y-40340788D01*
X134666659Y-40065460D01*
X134307370Y-39916270D01*
X133918337Y-39915931D01*
X133558788Y-40064493D01*
X133283460Y-40339341D01*
X133134270Y-40698630D01*
X133133931Y-41087663D01*
X133282493Y-41447212D01*
X133557341Y-41722540D01*
X133916630Y-41871730D01*
X134305663Y-41872069D01*
X134665212Y-41723507D01*
X134940540Y-41448659D01*
X135089730Y-41089370D01*
X135090069Y-40700337D01*
X135090069Y-43469379D01*
X134897564Y-43276539D01*
X134388702Y-43065241D01*
X133837715Y-43064760D01*
X133328485Y-43275169D01*
X132938539Y-43664436D01*
X132842023Y-43896870D01*
X132746831Y-43666485D01*
X132357564Y-43276539D01*
X131848702Y-43065241D01*
X131297715Y-43064760D01*
X130788485Y-43275169D01*
X130398539Y-43664436D01*
X130187241Y-44173298D01*
X130186760Y-44724285D01*
X130397169Y-45233515D01*
X130786436Y-45623461D01*
X131295298Y-45834759D01*
X131846285Y-45835240D01*
X132355515Y-45624831D01*
X132745461Y-45235564D01*
X132841976Y-45003129D01*
X132937169Y-45233515D01*
X133326436Y-45623461D01*
X133835298Y-45834759D01*
X134386285Y-45835240D01*
X134895515Y-45624831D01*
X135285461Y-45235564D01*
X135381976Y-45003129D01*
X135477169Y-45233515D01*
X135866436Y-45623461D01*
X136375298Y-45834759D01*
X136926285Y-45835240D01*
X137435515Y-45624831D01*
X137825461Y-45235564D01*
X137921976Y-45003129D01*
X138017169Y-45233515D01*
X138406436Y-45623461D01*
X138915298Y-45834759D01*
X139466285Y-45835240D01*
X139975515Y-45624831D01*
X140365461Y-45235564D01*
X140461976Y-45003129D01*
X140557169Y-45233515D01*
X140946436Y-45623461D01*
X141455298Y-45834759D01*
X142006285Y-45835240D01*
X142515515Y-45624831D01*
X142905461Y-45235564D01*
X143116759Y-44726702D01*
X143117240Y-44175715D01*
X143117240Y-53873877D01*
X142935460Y-54055341D01*
X142786270Y-54414630D01*
X142785931Y-54803663D01*
X142934493Y-55163212D01*
X143209341Y-55438540D01*
X143568630Y-55587730D01*
X143957663Y-55588069D01*
X144317212Y-55439507D01*
X144592540Y-55164659D01*
X144741730Y-54805370D01*
X144742069Y-54416337D01*
X144742069Y-67895000D01*
X143129440Y-67895000D01*
X143129440Y-60440000D01*
X143129440Y-58940000D01*
X143082463Y-58697877D01*
X142942673Y-58485073D01*
X142731640Y-58342623D01*
X142482000Y-58292560D01*
X141186069Y-58292560D01*
X141186069Y-51622337D01*
X141037507Y-51262788D01*
X140762659Y-50987460D01*
X140403370Y-50838270D01*
X140014337Y-50837931D01*
X139654788Y-50986493D01*
X139379460Y-51261341D01*
X139230270Y-51620630D01*
X139229931Y-52009663D01*
X139378493Y-52369212D01*
X139653341Y-52644540D01*
X140012630Y-52793730D01*
X140401663Y-52794069D01*
X140761212Y-52645507D01*
X141036540Y-52370659D01*
X141185730Y-52011370D01*
X141186069Y-51622337D01*
X141186069Y-58292560D01*
X140982000Y-58292560D01*
X140739877Y-58339537D01*
X140527073Y-58479327D01*
X140384623Y-58690360D01*
X140345555Y-58885172D01*
X139977564Y-58516539D01*
X139468702Y-58305241D01*
X138917715Y-58304760D01*
X138408485Y-58515169D01*
X138018539Y-58904436D01*
X137922023Y-59136870D01*
X137826831Y-58906485D01*
X137437564Y-58516539D01*
X137376069Y-58491004D01*
X137376069Y-49336337D01*
X137227507Y-48976788D01*
X136952659Y-48701460D01*
X136593370Y-48552270D01*
X136204337Y-48551931D01*
X135844788Y-48700493D01*
X135569460Y-48975341D01*
X135420270Y-49334630D01*
X135419931Y-49723663D01*
X135568493Y-50083212D01*
X135843341Y-50358540D01*
X136202630Y-50507730D01*
X136591663Y-50508069D01*
X136951212Y-50359507D01*
X137226540Y-50084659D01*
X137375730Y-49725370D01*
X137376069Y-49336337D01*
X137376069Y-58491004D01*
X136928702Y-58305241D01*
X136377715Y-58304760D01*
X135868485Y-58515169D01*
X135478539Y-58904436D01*
X135382023Y-59136870D01*
X135286831Y-58906485D01*
X134897564Y-58516539D01*
X134388702Y-58305241D01*
X133837715Y-58304760D01*
X133328485Y-58515169D01*
X132938539Y-58904436D01*
X132842023Y-59136870D01*
X132746831Y-58906485D01*
X132357564Y-58516539D01*
X131848702Y-58305241D01*
X131297715Y-58304760D01*
X130788485Y-58515169D01*
X130398539Y-58904436D01*
X130187241Y-59413298D01*
X130186760Y-59964285D01*
X130397169Y-60473515D01*
X130786436Y-60863461D01*
X131295298Y-61074759D01*
X131846285Y-61075240D01*
X132355515Y-60864831D01*
X132745461Y-60475564D01*
X132841976Y-60243129D01*
X132937169Y-60473515D01*
X133326436Y-60863461D01*
X133835298Y-61074759D01*
X134386285Y-61075240D01*
X134895515Y-60864831D01*
X135285461Y-60475564D01*
X135381976Y-60243129D01*
X135477169Y-60473515D01*
X135866436Y-60863461D01*
X136375298Y-61074759D01*
X136926285Y-61075240D01*
X137435515Y-60864831D01*
X137825461Y-60475564D01*
X137921976Y-60243129D01*
X138017169Y-60473515D01*
X138406436Y-60863461D01*
X138915298Y-61074759D01*
X139466285Y-61075240D01*
X139975515Y-60864831D01*
X140345354Y-60495635D01*
X140381537Y-60682123D01*
X140521327Y-60894927D01*
X140732360Y-61037377D01*
X140982000Y-61087440D01*
X142482000Y-61087440D01*
X142724123Y-61040463D01*
X142936927Y-60900673D01*
X143079377Y-60689640D01*
X143129440Y-60440000D01*
X143129440Y-67895000D01*
X142710069Y-67895000D01*
X142710069Y-64068337D01*
X142561507Y-63708788D01*
X142286659Y-63433460D01*
X141927370Y-63284270D01*
X141538337Y-63283931D01*
X141178788Y-63432493D01*
X140903460Y-63707341D01*
X140754270Y-64066630D01*
X140753931Y-64455663D01*
X140902493Y-64815212D01*
X141177341Y-65090540D01*
X141536630Y-65239730D01*
X141925663Y-65240069D01*
X142285212Y-65091507D01*
X142560540Y-64816659D01*
X142709730Y-64457370D01*
X142710069Y-64068337D01*
X142710069Y-67895000D01*
X140170069Y-67895000D01*
X140170069Y-63052337D01*
X140021507Y-62692788D01*
X139746659Y-62417460D01*
X139387370Y-62268270D01*
X138998337Y-62267931D01*
X138638788Y-62416493D01*
X138363460Y-62691341D01*
X138214270Y-63050630D01*
X138213931Y-63439663D01*
X138362493Y-63799212D01*
X138637341Y-64074540D01*
X138996630Y-64223730D01*
X139385663Y-64224069D01*
X139745212Y-64075507D01*
X140020540Y-63800659D01*
X140169730Y-63441370D01*
X140170069Y-63052337D01*
X140170069Y-67895000D01*
X130175440Y-67895000D01*
X130175440Y-60440000D01*
X130175440Y-58940000D01*
X130163240Y-58877120D01*
X130163240Y-44175715D01*
X129952831Y-43666485D01*
X129756069Y-43469379D01*
X129756069Y-38668337D01*
X129607507Y-38308788D01*
X129332659Y-38033460D01*
X128973370Y-37884270D01*
X128584337Y-37883931D01*
X128224788Y-38032493D01*
X127949460Y-38307341D01*
X127800270Y-38666630D01*
X127799931Y-39055663D01*
X127948493Y-39415212D01*
X128223341Y-39690540D01*
X128582630Y-39839730D01*
X128971663Y-39840069D01*
X129331212Y-39691507D01*
X129606540Y-39416659D01*
X129755730Y-39057370D01*
X129756069Y-38668337D01*
X129756069Y-43469379D01*
X129563564Y-43276539D01*
X129054702Y-43065241D01*
X128503715Y-43064760D01*
X127994485Y-43275169D01*
X127604539Y-43664436D01*
X127508023Y-43896870D01*
X127412831Y-43666485D01*
X127216069Y-43469379D01*
X127216069Y-39684337D01*
X127067507Y-39324788D01*
X126792659Y-39049460D01*
X126433370Y-38900270D01*
X126044337Y-38899931D01*
X125684788Y-39048493D01*
X125409460Y-39323341D01*
X125260270Y-39682630D01*
X125259931Y-40071663D01*
X125408493Y-40431212D01*
X125683341Y-40706540D01*
X126042630Y-40855730D01*
X126431663Y-40856069D01*
X126791212Y-40707507D01*
X127066540Y-40432659D01*
X127215730Y-40073370D01*
X127216069Y-39684337D01*
X127216069Y-43469379D01*
X127023564Y-43276539D01*
X126514702Y-43065241D01*
X125963715Y-43064760D01*
X125454485Y-43275169D01*
X125064539Y-43664436D01*
X124968023Y-43896870D01*
X124872831Y-43666485D01*
X124676069Y-43469379D01*
X124676069Y-37652337D01*
X124527507Y-37292788D01*
X124252659Y-37017460D01*
X123893370Y-36868270D01*
X123504337Y-36867931D01*
X123144788Y-37016493D01*
X122869460Y-37291341D01*
X122720270Y-37650630D01*
X122719931Y-38039663D01*
X122868493Y-38399212D01*
X123143341Y-38674540D01*
X123502630Y-38823730D01*
X123891663Y-38824069D01*
X124251212Y-38675507D01*
X124526540Y-38400659D01*
X124675730Y-38041370D01*
X124676069Y-37652337D01*
X124676069Y-43469379D01*
X124483564Y-43276539D01*
X123974702Y-43065241D01*
X123423715Y-43064760D01*
X122914485Y-43275169D01*
X122524539Y-43664436D01*
X122428023Y-43896870D01*
X122332831Y-43666485D01*
X122136069Y-43469379D01*
X122136069Y-40700337D01*
X121987507Y-40340788D01*
X121712659Y-40065460D01*
X121353370Y-39916270D01*
X120964337Y-39915931D01*
X120604788Y-40064493D01*
X120329460Y-40339341D01*
X120180270Y-40698630D01*
X120179931Y-41087663D01*
X120328493Y-41447212D01*
X120603341Y-41722540D01*
X120962630Y-41871730D01*
X121351663Y-41872069D01*
X121711212Y-41723507D01*
X121986540Y-41448659D01*
X122135730Y-41089370D01*
X122136069Y-40700337D01*
X122136069Y-43469379D01*
X121943564Y-43276539D01*
X121434702Y-43065241D01*
X120883715Y-43064760D01*
X120374485Y-43275169D01*
X119984539Y-43664436D01*
X119888023Y-43896870D01*
X119792831Y-43666485D01*
X119403564Y-43276539D01*
X118894702Y-43065241D01*
X118343715Y-43064760D01*
X117834485Y-43275169D01*
X117444539Y-43664436D01*
X117233241Y-44173298D01*
X117232760Y-44724285D01*
X117443169Y-45233515D01*
X117832436Y-45623461D01*
X118341298Y-45834759D01*
X118892285Y-45835240D01*
X119401515Y-45624831D01*
X119791461Y-45235564D01*
X119887976Y-45003129D01*
X119983169Y-45233515D01*
X120372436Y-45623461D01*
X120881298Y-45834759D01*
X121432285Y-45835240D01*
X121941515Y-45624831D01*
X122331461Y-45235564D01*
X122427976Y-45003129D01*
X122523169Y-45233515D01*
X122912436Y-45623461D01*
X123421298Y-45834759D01*
X123972285Y-45835240D01*
X124481515Y-45624831D01*
X124871461Y-45235564D01*
X124967976Y-45003129D01*
X125063169Y-45233515D01*
X125452436Y-45623461D01*
X125961298Y-45834759D01*
X126512285Y-45835240D01*
X127021515Y-45624831D01*
X127411461Y-45235564D01*
X127507976Y-45003129D01*
X127603169Y-45233515D01*
X127992436Y-45623461D01*
X128501298Y-45834759D01*
X129052285Y-45835240D01*
X129561515Y-45624831D01*
X129951461Y-45235564D01*
X130162759Y-44726702D01*
X130163240Y-44175715D01*
X130163240Y-58877120D01*
X130128463Y-58697877D01*
X129988673Y-58485073D01*
X129777640Y-58342623D01*
X129528000Y-58292560D01*
X128028000Y-58292560D01*
X127785877Y-58339537D01*
X127573073Y-58479327D01*
X127430623Y-58690360D01*
X127391555Y-58885172D01*
X127023564Y-58516539D01*
X126514702Y-58305241D01*
X125963715Y-58304760D01*
X125454485Y-58515169D01*
X125064539Y-58904436D01*
X124968023Y-59136870D01*
X124872831Y-58906485D01*
X124483564Y-58516539D01*
X123974702Y-58305241D01*
X123423715Y-58304760D01*
X122914485Y-58515169D01*
X122524539Y-58904436D01*
X122428023Y-59136870D01*
X122332831Y-58906485D01*
X121943564Y-58516539D01*
X121434702Y-58305241D01*
X120883715Y-58304760D01*
X120374485Y-58515169D01*
X119984539Y-58904436D01*
X119888023Y-59136870D01*
X119792831Y-58906485D01*
X119403564Y-58516539D01*
X118894702Y-58305241D01*
X118343715Y-58304760D01*
X117834485Y-58515169D01*
X117444539Y-58904436D01*
X117233241Y-59413298D01*
X117232760Y-59964285D01*
X117443169Y-60473515D01*
X117832436Y-60863461D01*
X118341298Y-61074759D01*
X118892285Y-61075240D01*
X119401515Y-60864831D01*
X119791461Y-60475564D01*
X119887976Y-60243129D01*
X119983169Y-60473515D01*
X120372436Y-60863461D01*
X120881298Y-61074759D01*
X121432285Y-61075240D01*
X121941515Y-60864831D01*
X122331461Y-60475564D01*
X122427976Y-60243129D01*
X122523169Y-60473515D01*
X122912436Y-60863461D01*
X123421298Y-61074759D01*
X123972285Y-61075240D01*
X124481515Y-60864831D01*
X124871461Y-60475564D01*
X124967976Y-60243129D01*
X125063169Y-60473515D01*
X125452436Y-60863461D01*
X125961298Y-61074759D01*
X126512285Y-61075240D01*
X127021515Y-60864831D01*
X127391354Y-60495635D01*
X127427537Y-60682123D01*
X127567327Y-60894927D01*
X127778360Y-61037377D01*
X128028000Y-61087440D01*
X129528000Y-61087440D01*
X129770123Y-61040463D01*
X129982927Y-60900673D01*
X130125377Y-60689640D01*
X130175440Y-60440000D01*
X130175440Y-67895000D01*
X129756069Y-67895000D01*
X129756069Y-64068337D01*
X129607507Y-63708788D01*
X129332659Y-63433460D01*
X128973370Y-63284270D01*
X128584337Y-63283931D01*
X128224788Y-63432493D01*
X127949460Y-63707341D01*
X127800270Y-64066630D01*
X127799931Y-64455663D01*
X127948493Y-64815212D01*
X128223341Y-65090540D01*
X128582630Y-65239730D01*
X128971663Y-65240069D01*
X129331212Y-65091507D01*
X129606540Y-64816659D01*
X129755730Y-64457370D01*
X129756069Y-64068337D01*
X129756069Y-67895000D01*
X127216069Y-67895000D01*
X127216069Y-63052337D01*
X127067507Y-62692788D01*
X126792659Y-62417460D01*
X126433370Y-62268270D01*
X126044337Y-62267931D01*
X125684788Y-62416493D01*
X125409460Y-62691341D01*
X125260270Y-63050630D01*
X125259931Y-63439663D01*
X125408493Y-63799212D01*
X125683341Y-64074540D01*
X126042630Y-64223730D01*
X126431663Y-64224069D01*
X126791212Y-64075507D01*
X127066540Y-63800659D01*
X127215730Y-63441370D01*
X127216069Y-63052337D01*
X127216069Y-67895000D01*
X116548069Y-67895000D01*
X116548069Y-56702337D01*
X116399507Y-56342788D01*
X116124659Y-56067460D01*
X115786069Y-55926864D01*
X115786069Y-45526337D01*
X115637507Y-45166788D01*
X115362659Y-44891460D01*
X115003370Y-44742270D01*
X114614337Y-44741931D01*
X114254788Y-44890493D01*
X113979460Y-45165341D01*
X113830270Y-45524630D01*
X113829931Y-45913663D01*
X113978493Y-46273212D01*
X114253341Y-46548540D01*
X114612630Y-46697730D01*
X115001663Y-46698069D01*
X115361212Y-46549507D01*
X115636540Y-46274659D01*
X115785730Y-45915370D01*
X115786069Y-45526337D01*
X115786069Y-55926864D01*
X115765370Y-55918270D01*
X115376337Y-55917931D01*
X115016788Y-56066493D01*
X114741460Y-56341341D01*
X114592270Y-56700630D01*
X114591931Y-57089663D01*
X114740493Y-57449212D01*
X115015341Y-57724540D01*
X115374630Y-57873730D01*
X115763663Y-57874069D01*
X116123212Y-57725507D01*
X116398540Y-57450659D01*
X116547730Y-57091370D01*
X116548069Y-56702337D01*
X116548069Y-67895000D01*
X112903440Y-67895000D01*
X112903440Y-60440000D01*
X112903440Y-58940000D01*
X112891240Y-58877120D01*
X112891240Y-44175715D01*
X112680831Y-43666485D01*
X112484069Y-43469379D01*
X112484069Y-38668337D01*
X112335507Y-38308788D01*
X112060659Y-38033460D01*
X111701370Y-37884270D01*
X111312337Y-37883931D01*
X110952788Y-38032493D01*
X110677460Y-38307341D01*
X110528270Y-38666630D01*
X110527931Y-39055663D01*
X110676493Y-39415212D01*
X110951341Y-39690540D01*
X111310630Y-39839730D01*
X111699663Y-39840069D01*
X112059212Y-39691507D01*
X112334540Y-39416659D01*
X112483730Y-39057370D01*
X112484069Y-38668337D01*
X112484069Y-43469379D01*
X112291564Y-43276539D01*
X111782702Y-43065241D01*
X111231715Y-43064760D01*
X110722485Y-43275169D01*
X110332539Y-43664436D01*
X110236023Y-43896870D01*
X110140831Y-43666485D01*
X109944069Y-43469379D01*
X109944069Y-39684337D01*
X109795507Y-39324788D01*
X109520659Y-39049460D01*
X109161370Y-38900270D01*
X108772337Y-38899931D01*
X108412788Y-39048493D01*
X108137460Y-39323341D01*
X107988270Y-39682630D01*
X107987931Y-40071663D01*
X108136493Y-40431212D01*
X108411341Y-40706540D01*
X108770630Y-40855730D01*
X109159663Y-40856069D01*
X109519212Y-40707507D01*
X109794540Y-40432659D01*
X109943730Y-40073370D01*
X109944069Y-39684337D01*
X109944069Y-43469379D01*
X109751564Y-43276539D01*
X109242702Y-43065241D01*
X108691715Y-43064760D01*
X108182485Y-43275169D01*
X107792539Y-43664436D01*
X107696023Y-43896870D01*
X107600831Y-43666485D01*
X107211564Y-43276539D01*
X106702702Y-43065241D01*
X106151715Y-43064760D01*
X105642485Y-43275169D01*
X105252539Y-43664436D01*
X105156023Y-43896870D01*
X105060831Y-43666485D01*
X104864069Y-43469379D01*
X104864069Y-40700337D01*
X104715507Y-40340788D01*
X104440659Y-40065460D01*
X104081370Y-39916270D01*
X103692337Y-39915931D01*
X103332788Y-40064493D01*
X103057460Y-40339341D01*
X102908270Y-40698630D01*
X102907931Y-41087663D01*
X103056493Y-41447212D01*
X103331341Y-41722540D01*
X103690630Y-41871730D01*
X104079663Y-41872069D01*
X104439212Y-41723507D01*
X104714540Y-41448659D01*
X104863730Y-41089370D01*
X104864069Y-40700337D01*
X104864069Y-43469379D01*
X104671564Y-43276539D01*
X104162702Y-43065241D01*
X103611715Y-43064760D01*
X103102485Y-43275169D01*
X102712539Y-43664436D01*
X102616023Y-43896870D01*
X102520831Y-43666485D01*
X102131564Y-43276539D01*
X101622702Y-43065241D01*
X101071715Y-43064760D01*
X100562485Y-43275169D01*
X100172539Y-43664436D01*
X99961241Y-44173298D01*
X99960760Y-44724285D01*
X100171169Y-45233515D01*
X100560436Y-45623461D01*
X101069298Y-45834759D01*
X101620285Y-45835240D01*
X102129515Y-45624831D01*
X102519461Y-45235564D01*
X102615976Y-45003129D01*
X102711169Y-45233515D01*
X103100436Y-45623461D01*
X103609298Y-45834759D01*
X104160285Y-45835240D01*
X104669515Y-45624831D01*
X105059461Y-45235564D01*
X105155976Y-45003129D01*
X105251169Y-45233515D01*
X105640436Y-45623461D01*
X106149298Y-45834759D01*
X106700285Y-45835240D01*
X107209515Y-45624831D01*
X107599461Y-45235564D01*
X107695976Y-45003129D01*
X107791169Y-45233515D01*
X108180436Y-45623461D01*
X108689298Y-45834759D01*
X109240285Y-45835240D01*
X109749515Y-45624831D01*
X110139461Y-45235564D01*
X110235976Y-45003129D01*
X110331169Y-45233515D01*
X110720436Y-45623461D01*
X111229298Y-45834759D01*
X111780285Y-45835240D01*
X112289515Y-45624831D01*
X112679461Y-45235564D01*
X112890759Y-44726702D01*
X112891240Y-44175715D01*
X112891240Y-58877120D01*
X112856463Y-58697877D01*
X112716673Y-58485073D01*
X112505640Y-58342623D01*
X112256000Y-58292560D01*
X110756000Y-58292560D01*
X110513877Y-58339537D01*
X110301073Y-58479327D01*
X110158623Y-58690360D01*
X110119555Y-58885172D01*
X109751564Y-58516539D01*
X109242702Y-58305241D01*
X108691715Y-58304760D01*
X108182485Y-58515169D01*
X107792539Y-58904436D01*
X107696023Y-59136870D01*
X107600831Y-58906485D01*
X107211564Y-58516539D01*
X106702702Y-58305241D01*
X106151715Y-58304760D01*
X105642485Y-58515169D01*
X105252539Y-58904436D01*
X105156023Y-59136870D01*
X105060831Y-58906485D01*
X104671564Y-58516539D01*
X104162702Y-58305241D01*
X103611715Y-58304760D01*
X103102485Y-58515169D01*
X102712539Y-58904436D01*
X102616023Y-59136870D01*
X102520831Y-58906485D01*
X102131564Y-58516539D01*
X101622702Y-58305241D01*
X101071715Y-58304760D01*
X100562485Y-58515169D01*
X100172539Y-58904436D01*
X99961241Y-59413298D01*
X99960760Y-59964285D01*
X100171169Y-60473515D01*
X100560436Y-60863461D01*
X101069298Y-61074759D01*
X101620285Y-61075240D01*
X102129515Y-60864831D01*
X102519461Y-60475564D01*
X102615976Y-60243129D01*
X102711169Y-60473515D01*
X103100436Y-60863461D01*
X103609298Y-61074759D01*
X104160285Y-61075240D01*
X104669515Y-60864831D01*
X105059461Y-60475564D01*
X105155976Y-60243129D01*
X105251169Y-60473515D01*
X105640436Y-60863461D01*
X106149298Y-61074759D01*
X106700285Y-61075240D01*
X107209515Y-60864831D01*
X107599461Y-60475564D01*
X107695976Y-60243129D01*
X107791169Y-60473515D01*
X108180436Y-60863461D01*
X108689298Y-61074759D01*
X109240285Y-61075240D01*
X109749515Y-60864831D01*
X110119354Y-60495635D01*
X110155537Y-60682123D01*
X110295327Y-60894927D01*
X110506360Y-61037377D01*
X110756000Y-61087440D01*
X112256000Y-61087440D01*
X112498123Y-61040463D01*
X112710927Y-60900673D01*
X112853377Y-60689640D01*
X112903440Y-60440000D01*
X112903440Y-67895000D01*
X112484069Y-67895000D01*
X112484069Y-64068337D01*
X112335507Y-63708788D01*
X112060659Y-63433460D01*
X111701370Y-63284270D01*
X111312337Y-63283931D01*
X110952788Y-63432493D01*
X110677460Y-63707341D01*
X110528270Y-64066630D01*
X110527931Y-64455663D01*
X110676493Y-64815212D01*
X110951341Y-65090540D01*
X111310630Y-65239730D01*
X111699663Y-65240069D01*
X112059212Y-65091507D01*
X112334540Y-64816659D01*
X112483730Y-64457370D01*
X112484069Y-64068337D01*
X112484069Y-67895000D01*
X109944069Y-67895000D01*
X109944069Y-63052337D01*
X109795507Y-62692788D01*
X109520659Y-62417460D01*
X109161370Y-62268270D01*
X108772337Y-62267931D01*
X108412788Y-62416493D01*
X108137460Y-62691341D01*
X107988270Y-63050630D01*
X107987931Y-63439663D01*
X108136493Y-63799212D01*
X108411341Y-64074540D01*
X108770630Y-64223730D01*
X109159663Y-64224069D01*
X109519212Y-64075507D01*
X109794540Y-63800659D01*
X109943730Y-63441370D01*
X109944069Y-63052337D01*
X109944069Y-67895000D01*
X107404069Y-67895000D01*
X107404069Y-66100337D01*
X107255507Y-65740788D01*
X106980659Y-65465460D01*
X106621370Y-65316270D01*
X106232337Y-65315931D01*
X105872788Y-65464493D01*
X105597460Y-65739341D01*
X105448270Y-66098630D01*
X105447931Y-66487663D01*
X105596493Y-66847212D01*
X105871341Y-67122540D01*
X106230630Y-67271730D01*
X106619663Y-67272069D01*
X106979212Y-67123507D01*
X107254540Y-66848659D01*
X107403730Y-66489370D01*
X107404069Y-66100337D01*
X107404069Y-67895000D01*
X99949440Y-67895000D01*
X99949440Y-60440000D01*
X99949440Y-58940000D01*
X99937240Y-58877120D01*
X99937240Y-44175715D01*
X99726831Y-43666485D01*
X99530069Y-43469379D01*
X99530069Y-38668337D01*
X99381507Y-38308788D01*
X99106659Y-38033460D01*
X98747370Y-37884270D01*
X98358337Y-37883931D01*
X97998788Y-38032493D01*
X97723460Y-38307341D01*
X97574270Y-38666630D01*
X97573931Y-39055663D01*
X97722493Y-39415212D01*
X97997341Y-39690540D01*
X98356630Y-39839730D01*
X98745663Y-39840069D01*
X99105212Y-39691507D01*
X99380540Y-39416659D01*
X99529730Y-39057370D01*
X99530069Y-38668337D01*
X99530069Y-43469379D01*
X99337564Y-43276539D01*
X98828702Y-43065241D01*
X98277715Y-43064760D01*
X97768485Y-43275169D01*
X97378539Y-43664436D01*
X97282023Y-43896870D01*
X97186831Y-43666485D01*
X96990069Y-43469379D01*
X96990069Y-39684337D01*
X96841507Y-39324788D01*
X96566659Y-39049460D01*
X96207370Y-38900270D01*
X95818337Y-38899931D01*
X95458788Y-39048493D01*
X95183460Y-39323341D01*
X95034270Y-39682630D01*
X95033931Y-40071663D01*
X95182493Y-40431212D01*
X95457341Y-40706540D01*
X95816630Y-40855730D01*
X96205663Y-40856069D01*
X96565212Y-40707507D01*
X96840540Y-40432659D01*
X96989730Y-40073370D01*
X96990069Y-39684337D01*
X96990069Y-43469379D01*
X96797564Y-43276539D01*
X96288702Y-43065241D01*
X95737715Y-43064760D01*
X95228485Y-43275169D01*
X94838539Y-43664436D01*
X94742023Y-43896870D01*
X94646831Y-43666485D01*
X94257564Y-43276539D01*
X93748702Y-43065241D01*
X93197715Y-43064760D01*
X92688485Y-43275169D01*
X92298539Y-43664436D01*
X92202023Y-43896870D01*
X92106831Y-43666485D01*
X91910069Y-43469379D01*
X91910069Y-40954337D01*
X91761507Y-40594788D01*
X91486659Y-40319460D01*
X91127370Y-40170270D01*
X90738337Y-40169931D01*
X90378788Y-40318493D01*
X90103460Y-40593341D01*
X89954270Y-40952630D01*
X89953931Y-41341663D01*
X90102493Y-41701212D01*
X90377341Y-41976540D01*
X90736630Y-42125730D01*
X91125663Y-42126069D01*
X91485212Y-41977507D01*
X91760540Y-41702659D01*
X91909730Y-41343370D01*
X91910069Y-40954337D01*
X91910069Y-43469379D01*
X91717564Y-43276539D01*
X91208702Y-43065241D01*
X90657715Y-43064760D01*
X90148485Y-43275169D01*
X89758539Y-43664436D01*
X89662023Y-43896870D01*
X89566831Y-43666485D01*
X89177564Y-43276539D01*
X88668702Y-43065241D01*
X88117715Y-43064760D01*
X87608485Y-43275169D01*
X87218539Y-43664436D01*
X87007241Y-44173298D01*
X87006760Y-44724285D01*
X87217169Y-45233515D01*
X87606436Y-45623461D01*
X88115298Y-45834759D01*
X88666285Y-45835240D01*
X89175515Y-45624831D01*
X89565461Y-45235564D01*
X89661976Y-45003129D01*
X89757169Y-45233515D01*
X90146436Y-45623461D01*
X90655298Y-45834759D01*
X91206285Y-45835240D01*
X91715515Y-45624831D01*
X92105461Y-45235564D01*
X92201976Y-45003129D01*
X92297169Y-45233515D01*
X92686436Y-45623461D01*
X93195298Y-45834759D01*
X93746285Y-45835240D01*
X94255515Y-45624831D01*
X94645461Y-45235564D01*
X94741976Y-45003129D01*
X94837169Y-45233515D01*
X95226436Y-45623461D01*
X95735298Y-45834759D01*
X96286285Y-45835240D01*
X96795515Y-45624831D01*
X97185461Y-45235564D01*
X97281976Y-45003129D01*
X97377169Y-45233515D01*
X97766436Y-45623461D01*
X98275298Y-45834759D01*
X98826285Y-45835240D01*
X99335515Y-45624831D01*
X99725461Y-45235564D01*
X99936759Y-44726702D01*
X99937240Y-44175715D01*
X99937240Y-58877120D01*
X99902463Y-58697877D01*
X99762673Y-58485073D01*
X99551640Y-58342623D01*
X99302000Y-58292560D01*
X97802000Y-58292560D01*
X97559877Y-58339537D01*
X97347073Y-58479327D01*
X97204623Y-58690360D01*
X97165555Y-58885172D01*
X96797564Y-58516539D01*
X96288702Y-58305241D01*
X95737715Y-58304760D01*
X95228485Y-58515169D01*
X94838539Y-58904436D01*
X94742023Y-59136870D01*
X94646831Y-58906485D01*
X94257564Y-58516539D01*
X93748702Y-58305241D01*
X93197715Y-58304760D01*
X92688485Y-58515169D01*
X92298539Y-58904436D01*
X92202023Y-59136870D01*
X92106831Y-58906485D01*
X91717564Y-58516539D01*
X91208702Y-58305241D01*
X90657715Y-58304760D01*
X90148485Y-58515169D01*
X89758539Y-58904436D01*
X89662023Y-59136870D01*
X89566831Y-58906485D01*
X89177564Y-58516539D01*
X88668702Y-58305241D01*
X88117715Y-58304760D01*
X87608485Y-58515169D01*
X87218539Y-58904436D01*
X87007241Y-59413298D01*
X87006760Y-59964285D01*
X87217169Y-60473515D01*
X87606436Y-60863461D01*
X88115298Y-61074759D01*
X88666285Y-61075240D01*
X89175515Y-60864831D01*
X89565461Y-60475564D01*
X89661976Y-60243129D01*
X89757169Y-60473515D01*
X90146436Y-60863461D01*
X90655298Y-61074759D01*
X91206285Y-61075240D01*
X91715515Y-60864831D01*
X92105461Y-60475564D01*
X92201976Y-60243129D01*
X92297169Y-60473515D01*
X92686436Y-60863461D01*
X93195298Y-61074759D01*
X93746285Y-61075240D01*
X94255515Y-60864831D01*
X94645461Y-60475564D01*
X94741976Y-60243129D01*
X94837169Y-60473515D01*
X95226436Y-60863461D01*
X95735298Y-61074759D01*
X96286285Y-61075240D01*
X96795515Y-60864831D01*
X97165354Y-60495635D01*
X97201537Y-60682123D01*
X97341327Y-60894927D01*
X97552360Y-61037377D01*
X97802000Y-61087440D01*
X99302000Y-61087440D01*
X99544123Y-61040463D01*
X99756927Y-60900673D01*
X99899377Y-60689640D01*
X99949440Y-60440000D01*
X99949440Y-67895000D01*
X99530069Y-67895000D01*
X99530069Y-64068337D01*
X99381507Y-63708788D01*
X99106659Y-63433460D01*
X98747370Y-63284270D01*
X98358337Y-63283931D01*
X97998788Y-63432493D01*
X97723460Y-63707341D01*
X97574270Y-64066630D01*
X97573931Y-64455663D01*
X97722493Y-64815212D01*
X97997341Y-65090540D01*
X98356630Y-65239730D01*
X98745663Y-65240069D01*
X99105212Y-65091507D01*
X99380540Y-64816659D01*
X99529730Y-64457370D01*
X99530069Y-64068337D01*
X99530069Y-67895000D01*
X96990069Y-67895000D01*
X96990069Y-63052337D01*
X96841507Y-62692788D01*
X96566659Y-62417460D01*
X96207370Y-62268270D01*
X95818337Y-62267931D01*
X95458788Y-62416493D01*
X95183460Y-62691341D01*
X95034270Y-63050630D01*
X95033931Y-63439663D01*
X95182493Y-63799212D01*
X95457341Y-64074540D01*
X95816630Y-64223730D01*
X96205663Y-64224069D01*
X96565212Y-64075507D01*
X96840540Y-63800659D01*
X96989730Y-63441370D01*
X96990069Y-63052337D01*
X96990069Y-67895000D01*
X94450069Y-67895000D01*
X94450069Y-65084337D01*
X94301507Y-64724788D01*
X94026659Y-64449460D01*
X93667370Y-64300270D01*
X93278337Y-64299931D01*
X92918788Y-64448493D01*
X92643460Y-64723341D01*
X92494270Y-65082630D01*
X92493931Y-65471663D01*
X92642493Y-65831212D01*
X92917341Y-66106540D01*
X93276630Y-66255730D01*
X93665663Y-66256069D01*
X94025212Y-66107507D01*
X94300540Y-65832659D01*
X94449730Y-65473370D01*
X94450069Y-65084337D01*
X94450069Y-67895000D01*
X71805000Y-67895000D01*
X71805000Y-36245000D01*
X135853853Y-36245000D01*
X135823460Y-36275341D01*
X135674270Y-36634630D01*
X135673931Y-37023663D01*
X135822493Y-37383212D01*
X136097341Y-37658540D01*
X136456630Y-37807730D01*
X136845663Y-37808069D01*
X137205212Y-37659507D01*
X137480540Y-37384659D01*
X137629730Y-37025370D01*
X137630069Y-36636337D01*
X137481507Y-36276788D01*
X137449774Y-36245000D01*
X159335000Y-36245000D01*
X159335000Y-67895000D01*
X159335000Y-67895000D01*
G37*
X159335000Y-67895000D02*
X158991040Y-67895000D01*
X158991040Y-67056000D01*
X158991040Y-65024000D01*
X158944063Y-64781877D01*
X158804273Y-64569073D01*
X158593240Y-64426623D01*
X158343600Y-64376560D01*
X157950069Y-64376560D01*
X157950069Y-45272337D01*
X157801507Y-44912788D01*
X157526659Y-44637460D01*
X157167370Y-44488270D01*
X156778337Y-44487931D01*
X156418788Y-44636493D01*
X156143460Y-44911341D01*
X155994270Y-45270630D01*
X155993931Y-45659663D01*
X156142493Y-46019212D01*
X156417341Y-46294540D01*
X156776630Y-46443730D01*
X157165663Y-46444069D01*
X157525212Y-46295507D01*
X157800540Y-46020659D01*
X157949730Y-45661370D01*
X157950069Y-45272337D01*
X157950069Y-64376560D01*
X157188069Y-64376560D01*
X157188069Y-56956337D01*
X157039507Y-56596788D01*
X156764659Y-56321460D01*
X156405370Y-56172270D01*
X156016337Y-56171931D01*
X155656788Y-56320493D01*
X155381460Y-56595341D01*
X155232270Y-56954630D01*
X155231931Y-57343663D01*
X155380493Y-57703212D01*
X155655341Y-57978540D01*
X156014630Y-58127730D01*
X156403663Y-58128069D01*
X156763212Y-57979507D01*
X157038540Y-57704659D01*
X157187730Y-57345370D01*
X157188069Y-56956337D01*
X157188069Y-64376560D01*
X156616400Y-64376560D01*
X156374277Y-64423537D01*
X156161473Y-64563327D01*
X156019023Y-64774360D01*
X156011281Y-64812962D01*
X155999670Y-64795585D01*
X155513489Y-64470729D01*
X154940000Y-64356655D01*
X154366511Y-64470729D01*
X154140069Y-64622032D01*
X154140069Y-41716337D01*
X153991507Y-41356788D01*
X153716659Y-41081460D01*
X153357370Y-40932270D01*
X152968337Y-40931931D01*
X152608788Y-41080493D01*
X152333460Y-41355341D01*
X152184270Y-41714630D01*
X152183931Y-42103663D01*
X152332493Y-42463212D01*
X152607341Y-42738540D01*
X152966630Y-42887730D01*
X153355663Y-42888069D01*
X153715212Y-42739507D01*
X153990540Y-42464659D01*
X154139730Y-42105370D01*
X154140069Y-41716337D01*
X154140069Y-64622032D01*
X153880330Y-64795585D01*
X153670000Y-65110365D01*
X153459670Y-64795585D01*
X152973489Y-64470729D01*
X152870069Y-64450157D01*
X152870069Y-56702337D01*
X152721507Y-56342788D01*
X152446659Y-56067460D01*
X152108069Y-55926864D01*
X152108069Y-50352337D01*
X152108069Y-38668337D01*
X151959507Y-38308788D01*
X151684659Y-38033460D01*
X151325370Y-37884270D01*
X150936337Y-37883931D01*
X150576788Y-38032493D01*
X150301460Y-38307341D01*
X150152270Y-38666630D01*
X150151931Y-39055663D01*
X150300493Y-39415212D01*
X150575341Y-39690540D01*
X150934630Y-39839730D01*
X151323663Y-39840069D01*
X151683212Y-39691507D01*
X151958540Y-39416659D01*
X152107730Y-39057370D01*
X152108069Y-38668337D01*
X152108069Y-50352337D01*
X151959507Y-49992788D01*
X151684659Y-49717460D01*
X151325370Y-49568270D01*
X151305500Y-49568252D01*
X151345730Y-49471370D01*
X151346069Y-49082337D01*
X151346069Y-41970337D01*
X151197507Y-41610788D01*
X150922659Y-41335460D01*
X150563370Y-41186270D01*
X150330069Y-41186066D01*
X150330069Y-39684337D01*
X150181507Y-39324788D01*
X149906659Y-39049460D01*
X149547370Y-38900270D01*
X149158337Y-38899931D01*
X148798788Y-39048493D01*
X148523460Y-39323341D01*
X148374270Y-39682630D01*
X148374058Y-39925136D01*
X148036788Y-40064493D01*
X147761460Y-40339341D01*
X147612270Y-40698630D01*
X147611931Y-41087663D01*
X147760493Y-41447212D01*
X148035341Y-41722540D01*
X148394630Y-41871730D01*
X148783663Y-41872069D01*
X149143212Y-41723507D01*
X149418540Y-41448659D01*
X149567730Y-41089370D01*
X149567941Y-40846863D01*
X149905212Y-40707507D01*
X150180540Y-40432659D01*
X150329730Y-40073370D01*
X150330069Y-39684337D01*
X150330069Y-41186066D01*
X150174337Y-41185931D01*
X149814788Y-41334493D01*
X149539460Y-41609341D01*
X149390270Y-41968630D01*
X149389931Y-42357663D01*
X149538493Y-42717212D01*
X149813341Y-42992540D01*
X150172630Y-43141730D01*
X150561663Y-43142069D01*
X150921212Y-42993507D01*
X151196540Y-42718659D01*
X151345730Y-42359370D01*
X151346069Y-41970337D01*
X151346069Y-49082337D01*
X151197507Y-48722788D01*
X150922659Y-48447460D01*
X150563370Y-48298270D01*
X150289592Y-48298031D01*
X150329730Y-48201370D01*
X150330069Y-47812337D01*
X150181507Y-47452788D01*
X149906659Y-47177460D01*
X149547370Y-47028270D01*
X149527500Y-47028252D01*
X149567730Y-46931370D01*
X149568069Y-46542337D01*
X149419507Y-46182788D01*
X149144659Y-45907460D01*
X148785370Y-45758270D01*
X148511592Y-45758031D01*
X148551730Y-45661370D01*
X148552069Y-45272337D01*
X148403507Y-44912788D01*
X148250382Y-44759395D01*
X148297730Y-44645370D01*
X148298069Y-44256337D01*
X148149507Y-43896788D01*
X147874659Y-43621460D01*
X147515370Y-43472270D01*
X147126337Y-43471931D01*
X146766788Y-43620493D01*
X146491460Y-43895341D01*
X146342270Y-44254630D01*
X146341931Y-44643663D01*
X146490493Y-45003212D01*
X146643617Y-45156604D01*
X146596270Y-45270630D01*
X146595931Y-45659663D01*
X146744493Y-46019212D01*
X147019341Y-46294540D01*
X147378630Y-46443730D01*
X147652407Y-46443968D01*
X147612270Y-46540630D01*
X147611931Y-46929663D01*
X147760493Y-47289212D01*
X148035341Y-47564540D01*
X148394630Y-47713730D01*
X148414499Y-47713747D01*
X148374270Y-47810630D01*
X148373931Y-48199663D01*
X148522493Y-48559212D01*
X148797341Y-48834540D01*
X149156630Y-48983730D01*
X149430407Y-48983968D01*
X149390270Y-49080630D01*
X149389931Y-49469663D01*
X149538493Y-49829212D01*
X149813341Y-50104540D01*
X150172630Y-50253730D01*
X150192499Y-50253747D01*
X150152270Y-50350630D01*
X150151931Y-50739663D01*
X150300493Y-51099212D01*
X150575341Y-51374540D01*
X150934630Y-51523730D01*
X151323663Y-51524069D01*
X151683212Y-51375507D01*
X151958540Y-51100659D01*
X152107730Y-50741370D01*
X152108069Y-50352337D01*
X152108069Y-55926864D01*
X152087370Y-55918270D01*
X151698337Y-55917931D01*
X151338788Y-56066493D01*
X151257098Y-56148040D01*
X151176659Y-56067460D01*
X150817370Y-55918270D01*
X150428337Y-55917931D01*
X150068788Y-56066493D01*
X149793460Y-56341341D01*
X149644270Y-56700630D01*
X149643931Y-57089663D01*
X149792493Y-57449212D01*
X150067341Y-57724540D01*
X150426630Y-57873730D01*
X150815663Y-57874069D01*
X151175212Y-57725507D01*
X151256901Y-57643959D01*
X151337341Y-57724540D01*
X151696630Y-57873730D01*
X152085663Y-57874069D01*
X152445212Y-57725507D01*
X152720540Y-57450659D01*
X152869730Y-57091370D01*
X152870069Y-56702337D01*
X152870069Y-64450157D01*
X152400000Y-64356655D01*
X151826511Y-64470729D01*
X151340330Y-64795585D01*
X151130000Y-65110365D01*
X150919670Y-64795585D01*
X150433489Y-64470729D01*
X149860000Y-64356655D01*
X149286511Y-64470729D01*
X149060069Y-64622032D01*
X149060069Y-52130337D01*
X148911507Y-51770788D01*
X148636659Y-51495460D01*
X148277370Y-51346270D01*
X147888337Y-51345931D01*
X147528788Y-51494493D01*
X147375395Y-51647617D01*
X147261370Y-51600270D01*
X146872337Y-51599931D01*
X146512788Y-51748493D01*
X146237460Y-52023341D01*
X146088270Y-52382630D01*
X146087931Y-52771663D01*
X146236493Y-53131212D01*
X146511341Y-53406540D01*
X146870630Y-53555730D01*
X147259663Y-53556069D01*
X147619212Y-53407507D01*
X147772604Y-53254382D01*
X147886630Y-53301730D01*
X148275663Y-53302069D01*
X148635212Y-53153507D01*
X148910540Y-52878659D01*
X149059730Y-52519370D01*
X149060069Y-52130337D01*
X149060069Y-64622032D01*
X148800330Y-64795585D01*
X148593539Y-65105069D01*
X148222036Y-64689268D01*
X147694791Y-64435291D01*
X147679026Y-64432642D01*
X147447000Y-64553783D01*
X147447000Y-65913000D01*
X147467000Y-65913000D01*
X147467000Y-66167000D01*
X147447000Y-66167000D01*
X147447000Y-67526217D01*
X147679026Y-67647358D01*
X147694791Y-67644709D01*
X148222036Y-67390732D01*
X148593539Y-66974930D01*
X148800330Y-67284415D01*
X149286511Y-67609271D01*
X149860000Y-67723345D01*
X150433489Y-67609271D01*
X150919670Y-67284415D01*
X151130000Y-66969634D01*
X151340330Y-67284415D01*
X151826511Y-67609271D01*
X152400000Y-67723345D01*
X152973489Y-67609271D01*
X153459670Y-67284415D01*
X153670000Y-66969634D01*
X153880330Y-67284415D01*
X154366511Y-67609271D01*
X154940000Y-67723345D01*
X155513489Y-67609271D01*
X155999670Y-67284415D01*
X156010215Y-67268632D01*
X156015937Y-67298123D01*
X156155727Y-67510927D01*
X156366760Y-67653377D01*
X156616400Y-67703440D01*
X158343600Y-67703440D01*
X158585723Y-67656463D01*
X158798527Y-67516673D01*
X158940977Y-67305640D01*
X158991040Y-67056000D01*
X158991040Y-67895000D01*
X147193000Y-67895000D01*
X147193000Y-67526217D01*
X147193000Y-66167000D01*
X147193000Y-65913000D01*
X147193000Y-64553783D01*
X146960974Y-64432642D01*
X146945209Y-64435291D01*
X146417964Y-64689268D01*
X146028046Y-65125680D01*
X145834816Y-65678087D01*
X145979076Y-65913000D01*
X147193000Y-65913000D01*
X147193000Y-66167000D01*
X145979076Y-66167000D01*
X145834816Y-66401913D01*
X146028046Y-66954320D01*
X146417964Y-67390732D01*
X146945209Y-67644709D01*
X146960974Y-67647358D01*
X147193000Y-67526217D01*
X147193000Y-67895000D01*
X144742069Y-67895000D01*
X144742069Y-54416337D01*
X144593507Y-54056788D01*
X144318659Y-53781460D01*
X143959370Y-53632270D01*
X143570337Y-53631931D01*
X143210788Y-53780493D01*
X143117240Y-53873877D01*
X143117240Y-44175715D01*
X142906831Y-43666485D01*
X142710069Y-43469379D01*
X142710069Y-38668337D01*
X142561507Y-38308788D01*
X142286659Y-38033460D01*
X141927370Y-37884270D01*
X141538337Y-37883931D01*
X141178788Y-38032493D01*
X140903460Y-38307341D01*
X140754270Y-38666630D01*
X140753931Y-39055663D01*
X140902493Y-39415212D01*
X141177341Y-39690540D01*
X141536630Y-39839730D01*
X141925663Y-39840069D01*
X142285212Y-39691507D01*
X142560540Y-39416659D01*
X142709730Y-39057370D01*
X142710069Y-38668337D01*
X142710069Y-43469379D01*
X142517564Y-43276539D01*
X142008702Y-43065241D01*
X141457715Y-43064760D01*
X140948485Y-43275169D01*
X140558539Y-43664436D01*
X140462023Y-43896870D01*
X140366831Y-43666485D01*
X140170069Y-43469379D01*
X140170069Y-39684337D01*
X140021507Y-39324788D01*
X139746659Y-39049460D01*
X139387370Y-38900270D01*
X138998337Y-38899931D01*
X138638788Y-39048493D01*
X138363460Y-39323341D01*
X138214270Y-39682630D01*
X138213931Y-40071663D01*
X138362493Y-40431212D01*
X138637341Y-40706540D01*
X138996630Y-40855730D01*
X139385663Y-40856069D01*
X139745212Y-40707507D01*
X140020540Y-40432659D01*
X140169730Y-40073370D01*
X140170069Y-39684337D01*
X140170069Y-43469379D01*
X139977564Y-43276539D01*
X139468702Y-43065241D01*
X138917715Y-43064760D01*
X138408485Y-43275169D01*
X138018539Y-43664436D01*
X137922023Y-43896870D01*
X137826831Y-43666485D01*
X137437564Y-43276539D01*
X136928702Y-43065241D01*
X136377715Y-43064760D01*
X135868485Y-43275169D01*
X135478539Y-43664436D01*
X135382023Y-43896870D01*
X135286831Y-43666485D01*
X135090069Y-43469379D01*
X135090069Y-40700337D01*
X134941507Y-40340788D01*
X134666659Y-40065460D01*
X134307370Y-39916270D01*
X133918337Y-39915931D01*
X133558788Y-40064493D01*
X133283460Y-40339341D01*
X133134270Y-40698630D01*
X133133931Y-41087663D01*
X133282493Y-41447212D01*
X133557341Y-41722540D01*
X133916630Y-41871730D01*
X134305663Y-41872069D01*
X134665212Y-41723507D01*
X134940540Y-41448659D01*
X135089730Y-41089370D01*
X135090069Y-40700337D01*
X135090069Y-43469379D01*
X134897564Y-43276539D01*
X134388702Y-43065241D01*
X133837715Y-43064760D01*
X133328485Y-43275169D01*
X132938539Y-43664436D01*
X132842023Y-43896870D01*
X132746831Y-43666485D01*
X132357564Y-43276539D01*
X131848702Y-43065241D01*
X131297715Y-43064760D01*
X130788485Y-43275169D01*
X130398539Y-43664436D01*
X130187241Y-44173298D01*
X130186760Y-44724285D01*
X130397169Y-45233515D01*
X130786436Y-45623461D01*
X131295298Y-45834759D01*
X131846285Y-45835240D01*
X132355515Y-45624831D01*
X132745461Y-45235564D01*
X132841976Y-45003129D01*
X132937169Y-45233515D01*
X133326436Y-45623461D01*
X133835298Y-45834759D01*
X134386285Y-45835240D01*
X134895515Y-45624831D01*
X135285461Y-45235564D01*
X135381976Y-45003129D01*
X135477169Y-45233515D01*
X135866436Y-45623461D01*
X136375298Y-45834759D01*
X136926285Y-45835240D01*
X137435515Y-45624831D01*
X137825461Y-45235564D01*
X137921976Y-45003129D01*
X138017169Y-45233515D01*
X138406436Y-45623461D01*
X138915298Y-45834759D01*
X139466285Y-45835240D01*
X139975515Y-45624831D01*
X140365461Y-45235564D01*
X140461976Y-45003129D01*
X140557169Y-45233515D01*
X140946436Y-45623461D01*
X141455298Y-45834759D01*
X142006285Y-45835240D01*
X142515515Y-45624831D01*
X142905461Y-45235564D01*
X143116759Y-44726702D01*
X143117240Y-44175715D01*
X143117240Y-53873877D01*
X142935460Y-54055341D01*
X142786270Y-54414630D01*
X142785931Y-54803663D01*
X142934493Y-55163212D01*
X143209341Y-55438540D01*
X143568630Y-55587730D01*
X143957663Y-55588069D01*
X144317212Y-55439507D01*
X144592540Y-55164659D01*
X144741730Y-54805370D01*
X144742069Y-54416337D01*
X144742069Y-67895000D01*
X143129440Y-67895000D01*
X143129440Y-60440000D01*
X143129440Y-58940000D01*
X143082463Y-58697877D01*
X142942673Y-58485073D01*
X142731640Y-58342623D01*
X142482000Y-58292560D01*
X141186069Y-58292560D01*
X141186069Y-51622337D01*
X141037507Y-51262788D01*
X140762659Y-50987460D01*
X140403370Y-50838270D01*
X140014337Y-50837931D01*
X139654788Y-50986493D01*
X139379460Y-51261341D01*
X139230270Y-51620630D01*
X139229931Y-52009663D01*
X139378493Y-52369212D01*
X139653341Y-52644540D01*
X140012630Y-52793730D01*
X140401663Y-52794069D01*
X140761212Y-52645507D01*
X141036540Y-52370659D01*
X141185730Y-52011370D01*
X141186069Y-51622337D01*
X141186069Y-58292560D01*
X140982000Y-58292560D01*
X140739877Y-58339537D01*
X140527073Y-58479327D01*
X140384623Y-58690360D01*
X140345555Y-58885172D01*
X139977564Y-58516539D01*
X139468702Y-58305241D01*
X138917715Y-58304760D01*
X138408485Y-58515169D01*
X138018539Y-58904436D01*
X137922023Y-59136870D01*
X137826831Y-58906485D01*
X137437564Y-58516539D01*
X137376069Y-58491004D01*
X137376069Y-49336337D01*
X137227507Y-48976788D01*
X136952659Y-48701460D01*
X136593370Y-48552270D01*
X136204337Y-48551931D01*
X135844788Y-48700493D01*
X135569460Y-48975341D01*
X135420270Y-49334630D01*
X135419931Y-49723663D01*
X135568493Y-50083212D01*
X135843341Y-50358540D01*
X136202630Y-50507730D01*
X136591663Y-50508069D01*
X136951212Y-50359507D01*
X137226540Y-50084659D01*
X137375730Y-49725370D01*
X137376069Y-49336337D01*
X137376069Y-58491004D01*
X136928702Y-58305241D01*
X136377715Y-58304760D01*
X135868485Y-58515169D01*
X135478539Y-58904436D01*
X135382023Y-59136870D01*
X135286831Y-58906485D01*
X134897564Y-58516539D01*
X134388702Y-58305241D01*
X133837715Y-58304760D01*
X133328485Y-58515169D01*
X132938539Y-58904436D01*
X132842023Y-59136870D01*
X132746831Y-58906485D01*
X132357564Y-58516539D01*
X131848702Y-58305241D01*
X131297715Y-58304760D01*
X130788485Y-58515169D01*
X130398539Y-58904436D01*
X130187241Y-59413298D01*
X130186760Y-59964285D01*
X130397169Y-60473515D01*
X130786436Y-60863461D01*
X131295298Y-61074759D01*
X131846285Y-61075240D01*
X132355515Y-60864831D01*
X132745461Y-60475564D01*
X132841976Y-60243129D01*
X132937169Y-60473515D01*
X133326436Y-60863461D01*
X133835298Y-61074759D01*
X134386285Y-61075240D01*
X134895515Y-60864831D01*
X135285461Y-60475564D01*
X135381976Y-60243129D01*
X135477169Y-60473515D01*
X135866436Y-60863461D01*
X136375298Y-61074759D01*
X136926285Y-61075240D01*
X137435515Y-60864831D01*
X137825461Y-60475564D01*
X137921976Y-60243129D01*
X138017169Y-60473515D01*
X138406436Y-60863461D01*
X138915298Y-61074759D01*
X139466285Y-61075240D01*
X139975515Y-60864831D01*
X140345354Y-60495635D01*
X140381537Y-60682123D01*
X140521327Y-60894927D01*
X140732360Y-61037377D01*
X140982000Y-61087440D01*
X142482000Y-61087440D01*
X142724123Y-61040463D01*
X142936927Y-60900673D01*
X143079377Y-60689640D01*
X143129440Y-60440000D01*
X143129440Y-67895000D01*
X142710069Y-67895000D01*
X142710069Y-64068337D01*
X142561507Y-63708788D01*
X142286659Y-63433460D01*
X141927370Y-63284270D01*
X141538337Y-63283931D01*
X141178788Y-63432493D01*
X140903460Y-63707341D01*
X140754270Y-64066630D01*
X140753931Y-64455663D01*
X140902493Y-64815212D01*
X141177341Y-65090540D01*
X141536630Y-65239730D01*
X141925663Y-65240069D01*
X142285212Y-65091507D01*
X142560540Y-64816659D01*
X142709730Y-64457370D01*
X142710069Y-64068337D01*
X142710069Y-67895000D01*
X140170069Y-67895000D01*
X140170069Y-63052337D01*
X140021507Y-62692788D01*
X139746659Y-62417460D01*
X139387370Y-62268270D01*
X138998337Y-62267931D01*
X138638788Y-62416493D01*
X138363460Y-62691341D01*
X138214270Y-63050630D01*
X138213931Y-63439663D01*
X138362493Y-63799212D01*
X138637341Y-64074540D01*
X138996630Y-64223730D01*
X139385663Y-64224069D01*
X139745212Y-64075507D01*
X140020540Y-63800659D01*
X140169730Y-63441370D01*
X140170069Y-63052337D01*
X140170069Y-67895000D01*
X130175440Y-67895000D01*
X130175440Y-60440000D01*
X130175440Y-58940000D01*
X130163240Y-58877120D01*
X130163240Y-44175715D01*
X129952831Y-43666485D01*
X129756069Y-43469379D01*
X129756069Y-38668337D01*
X129607507Y-38308788D01*
X129332659Y-38033460D01*
X128973370Y-37884270D01*
X128584337Y-37883931D01*
X128224788Y-38032493D01*
X127949460Y-38307341D01*
X127800270Y-38666630D01*
X127799931Y-39055663D01*
X127948493Y-39415212D01*
X128223341Y-39690540D01*
X128582630Y-39839730D01*
X128971663Y-39840069D01*
X129331212Y-39691507D01*
X129606540Y-39416659D01*
X129755730Y-39057370D01*
X129756069Y-38668337D01*
X129756069Y-43469379D01*
X129563564Y-43276539D01*
X129054702Y-43065241D01*
X128503715Y-43064760D01*
X127994485Y-43275169D01*
X127604539Y-43664436D01*
X127508023Y-43896870D01*
X127412831Y-43666485D01*
X127216069Y-43469379D01*
X127216069Y-39684337D01*
X127067507Y-39324788D01*
X126792659Y-39049460D01*
X126433370Y-38900270D01*
X126044337Y-38899931D01*
X125684788Y-39048493D01*
X125409460Y-39323341D01*
X125260270Y-39682630D01*
X125259931Y-40071663D01*
X125408493Y-40431212D01*
X125683341Y-40706540D01*
X126042630Y-40855730D01*
X126431663Y-40856069D01*
X126791212Y-40707507D01*
X127066540Y-40432659D01*
X127215730Y-40073370D01*
X127216069Y-39684337D01*
X127216069Y-43469379D01*
X127023564Y-43276539D01*
X126514702Y-43065241D01*
X125963715Y-43064760D01*
X125454485Y-43275169D01*
X125064539Y-43664436D01*
X124968023Y-43896870D01*
X124872831Y-43666485D01*
X124676069Y-43469379D01*
X124676069Y-37652337D01*
X124527507Y-37292788D01*
X124252659Y-37017460D01*
X123893370Y-36868270D01*
X123504337Y-36867931D01*
X123144788Y-37016493D01*
X122869460Y-37291341D01*
X122720270Y-37650630D01*
X122719931Y-38039663D01*
X122868493Y-38399212D01*
X123143341Y-38674540D01*
X123502630Y-38823730D01*
X123891663Y-38824069D01*
X124251212Y-38675507D01*
X124526540Y-38400659D01*
X124675730Y-38041370D01*
X124676069Y-37652337D01*
X124676069Y-43469379D01*
X124483564Y-43276539D01*
X123974702Y-43065241D01*
X123423715Y-43064760D01*
X122914485Y-43275169D01*
X122524539Y-43664436D01*
X122428023Y-43896870D01*
X122332831Y-43666485D01*
X122136069Y-43469379D01*
X122136069Y-40700337D01*
X121987507Y-40340788D01*
X121712659Y-40065460D01*
X121353370Y-39916270D01*
X120964337Y-39915931D01*
X120604788Y-40064493D01*
X120329460Y-40339341D01*
X120180270Y-40698630D01*
X120179931Y-41087663D01*
X120328493Y-41447212D01*
X120603341Y-41722540D01*
X120962630Y-41871730D01*
X121351663Y-41872069D01*
X121711212Y-41723507D01*
X121986540Y-41448659D01*
X122135730Y-41089370D01*
X122136069Y-40700337D01*
X122136069Y-43469379D01*
X121943564Y-43276539D01*
X121434702Y-43065241D01*
X120883715Y-43064760D01*
X120374485Y-43275169D01*
X119984539Y-43664436D01*
X119888023Y-43896870D01*
X119792831Y-43666485D01*
X119403564Y-43276539D01*
X118894702Y-43065241D01*
X118343715Y-43064760D01*
X117834485Y-43275169D01*
X117444539Y-43664436D01*
X117233241Y-44173298D01*
X117232760Y-44724285D01*
X117443169Y-45233515D01*
X117832436Y-45623461D01*
X118341298Y-45834759D01*
X118892285Y-45835240D01*
X119401515Y-45624831D01*
X119791461Y-45235564D01*
X119887976Y-45003129D01*
X119983169Y-45233515D01*
X120372436Y-45623461D01*
X120881298Y-45834759D01*
X121432285Y-45835240D01*
X121941515Y-45624831D01*
X122331461Y-45235564D01*
X122427976Y-45003129D01*
X122523169Y-45233515D01*
X122912436Y-45623461D01*
X123421298Y-45834759D01*
X123972285Y-45835240D01*
X124481515Y-45624831D01*
X124871461Y-45235564D01*
X124967976Y-45003129D01*
X125063169Y-45233515D01*
X125452436Y-45623461D01*
X125961298Y-45834759D01*
X126512285Y-45835240D01*
X127021515Y-45624831D01*
X127411461Y-45235564D01*
X127507976Y-45003129D01*
X127603169Y-45233515D01*
X127992436Y-45623461D01*
X128501298Y-45834759D01*
X129052285Y-45835240D01*
X129561515Y-45624831D01*
X129951461Y-45235564D01*
X130162759Y-44726702D01*
X130163240Y-44175715D01*
X130163240Y-58877120D01*
X130128463Y-58697877D01*
X129988673Y-58485073D01*
X129777640Y-58342623D01*
X129528000Y-58292560D01*
X128028000Y-58292560D01*
X127785877Y-58339537D01*
X127573073Y-58479327D01*
X127430623Y-58690360D01*
X127391555Y-58885172D01*
X127023564Y-58516539D01*
X126514702Y-58305241D01*
X125963715Y-58304760D01*
X125454485Y-58515169D01*
X125064539Y-58904436D01*
X124968023Y-59136870D01*
X124872831Y-58906485D01*
X124483564Y-58516539D01*
X123974702Y-58305241D01*
X123423715Y-58304760D01*
X122914485Y-58515169D01*
X122524539Y-58904436D01*
X122428023Y-59136870D01*
X122332831Y-58906485D01*
X121943564Y-58516539D01*
X121434702Y-58305241D01*
X120883715Y-58304760D01*
X120374485Y-58515169D01*
X119984539Y-58904436D01*
X119888023Y-59136870D01*
X119792831Y-58906485D01*
X119403564Y-58516539D01*
X118894702Y-58305241D01*
X118343715Y-58304760D01*
X117834485Y-58515169D01*
X117444539Y-58904436D01*
X117233241Y-59413298D01*
X117232760Y-59964285D01*
X117443169Y-60473515D01*
X117832436Y-60863461D01*
X118341298Y-61074759D01*
X118892285Y-61075240D01*
X119401515Y-60864831D01*
X119791461Y-60475564D01*
X119887976Y-60243129D01*
X119983169Y-60473515D01*
X120372436Y-60863461D01*
X120881298Y-61074759D01*
X121432285Y-61075240D01*
X121941515Y-60864831D01*
X122331461Y-60475564D01*
X122427976Y-60243129D01*
X122523169Y-60473515D01*
X122912436Y-60863461D01*
X123421298Y-61074759D01*
X123972285Y-61075240D01*
X124481515Y-60864831D01*
X124871461Y-60475564D01*
X124967976Y-60243129D01*
X125063169Y-60473515D01*
X125452436Y-60863461D01*
X125961298Y-61074759D01*
X126512285Y-61075240D01*
X127021515Y-60864831D01*
X127391354Y-60495635D01*
X127427537Y-60682123D01*
X127567327Y-60894927D01*
X127778360Y-61037377D01*
X128028000Y-61087440D01*
X129528000Y-61087440D01*
X129770123Y-61040463D01*
X129982927Y-60900673D01*
X130125377Y-60689640D01*
X130175440Y-60440000D01*
X130175440Y-67895000D01*
X129756069Y-67895000D01*
X129756069Y-64068337D01*
X129607507Y-63708788D01*
X129332659Y-63433460D01*
X128973370Y-63284270D01*
X128584337Y-63283931D01*
X128224788Y-63432493D01*
X127949460Y-63707341D01*
X127800270Y-64066630D01*
X127799931Y-64455663D01*
X127948493Y-64815212D01*
X128223341Y-65090540D01*
X128582630Y-65239730D01*
X128971663Y-65240069D01*
X129331212Y-65091507D01*
X129606540Y-64816659D01*
X129755730Y-64457370D01*
X129756069Y-64068337D01*
X129756069Y-67895000D01*
X127216069Y-67895000D01*
X127216069Y-63052337D01*
X127067507Y-62692788D01*
X126792659Y-62417460D01*
X126433370Y-62268270D01*
X126044337Y-62267931D01*
X125684788Y-62416493D01*
X125409460Y-62691341D01*
X125260270Y-63050630D01*
X125259931Y-63439663D01*
X125408493Y-63799212D01*
X125683341Y-64074540D01*
X126042630Y-64223730D01*
X126431663Y-64224069D01*
X126791212Y-64075507D01*
X127066540Y-63800659D01*
X127215730Y-63441370D01*
X127216069Y-63052337D01*
X127216069Y-67895000D01*
X116548069Y-67895000D01*
X116548069Y-56702337D01*
X116399507Y-56342788D01*
X116124659Y-56067460D01*
X115786069Y-55926864D01*
X115786069Y-45526337D01*
X115637507Y-45166788D01*
X115362659Y-44891460D01*
X115003370Y-44742270D01*
X114614337Y-44741931D01*
X114254788Y-44890493D01*
X113979460Y-45165341D01*
X113830270Y-45524630D01*
X113829931Y-45913663D01*
X113978493Y-46273212D01*
X114253341Y-46548540D01*
X114612630Y-46697730D01*
X115001663Y-46698069D01*
X115361212Y-46549507D01*
X115636540Y-46274659D01*
X115785730Y-45915370D01*
X115786069Y-45526337D01*
X115786069Y-55926864D01*
X115765370Y-55918270D01*
X115376337Y-55917931D01*
X115016788Y-56066493D01*
X114741460Y-56341341D01*
X114592270Y-56700630D01*
X114591931Y-57089663D01*
X114740493Y-57449212D01*
X115015341Y-57724540D01*
X115374630Y-57873730D01*
X115763663Y-57874069D01*
X116123212Y-57725507D01*
X116398540Y-57450659D01*
X116547730Y-57091370D01*
X116548069Y-56702337D01*
X116548069Y-67895000D01*
X112903440Y-67895000D01*
X112903440Y-60440000D01*
X112903440Y-58940000D01*
X112891240Y-58877120D01*
X112891240Y-44175715D01*
X112680831Y-43666485D01*
X112484069Y-43469379D01*
X112484069Y-38668337D01*
X112335507Y-38308788D01*
X112060659Y-38033460D01*
X111701370Y-37884270D01*
X111312337Y-37883931D01*
X110952788Y-38032493D01*
X110677460Y-38307341D01*
X110528270Y-38666630D01*
X110527931Y-39055663D01*
X110676493Y-39415212D01*
X110951341Y-39690540D01*
X111310630Y-39839730D01*
X111699663Y-39840069D01*
X112059212Y-39691507D01*
X112334540Y-39416659D01*
X112483730Y-39057370D01*
X112484069Y-38668337D01*
X112484069Y-43469379D01*
X112291564Y-43276539D01*
X111782702Y-43065241D01*
X111231715Y-43064760D01*
X110722485Y-43275169D01*
X110332539Y-43664436D01*
X110236023Y-43896870D01*
X110140831Y-43666485D01*
X109944069Y-43469379D01*
X109944069Y-39684337D01*
X109795507Y-39324788D01*
X109520659Y-39049460D01*
X109161370Y-38900270D01*
X108772337Y-38899931D01*
X108412788Y-39048493D01*
X108137460Y-39323341D01*
X107988270Y-39682630D01*
X107987931Y-40071663D01*
X108136493Y-40431212D01*
X108411341Y-40706540D01*
X108770630Y-40855730D01*
X109159663Y-40856069D01*
X109519212Y-40707507D01*
X109794540Y-40432659D01*
X109943730Y-40073370D01*
X109944069Y-39684337D01*
X109944069Y-43469379D01*
X109751564Y-43276539D01*
X109242702Y-43065241D01*
X108691715Y-43064760D01*
X108182485Y-43275169D01*
X107792539Y-43664436D01*
X107696023Y-43896870D01*
X107600831Y-43666485D01*
X107211564Y-43276539D01*
X106702702Y-43065241D01*
X106151715Y-43064760D01*
X105642485Y-43275169D01*
X105252539Y-43664436D01*
X105156023Y-43896870D01*
X105060831Y-43666485D01*
X104864069Y-43469379D01*
X104864069Y-40700337D01*
X104715507Y-40340788D01*
X104440659Y-40065460D01*
X104081370Y-39916270D01*
X103692337Y-39915931D01*
X103332788Y-40064493D01*
X103057460Y-40339341D01*
X102908270Y-40698630D01*
X102907931Y-41087663D01*
X103056493Y-41447212D01*
X103331341Y-41722540D01*
X103690630Y-41871730D01*
X104079663Y-41872069D01*
X104439212Y-41723507D01*
X104714540Y-41448659D01*
X104863730Y-41089370D01*
X104864069Y-40700337D01*
X104864069Y-43469379D01*
X104671564Y-43276539D01*
X104162702Y-43065241D01*
X103611715Y-43064760D01*
X103102485Y-43275169D01*
X102712539Y-43664436D01*
X102616023Y-43896870D01*
X102520831Y-43666485D01*
X102131564Y-43276539D01*
X101622702Y-43065241D01*
X101071715Y-43064760D01*
X100562485Y-43275169D01*
X100172539Y-43664436D01*
X99961241Y-44173298D01*
X99960760Y-44724285D01*
X100171169Y-45233515D01*
X100560436Y-45623461D01*
X101069298Y-45834759D01*
X101620285Y-45835240D01*
X102129515Y-45624831D01*
X102519461Y-45235564D01*
X102615976Y-45003129D01*
X102711169Y-45233515D01*
X103100436Y-45623461D01*
X103609298Y-45834759D01*
X104160285Y-45835240D01*
X104669515Y-45624831D01*
X105059461Y-45235564D01*
X105155976Y-45003129D01*
X105251169Y-45233515D01*
X105640436Y-45623461D01*
X106149298Y-45834759D01*
X106700285Y-45835240D01*
X107209515Y-45624831D01*
X107599461Y-45235564D01*
X107695976Y-45003129D01*
X107791169Y-45233515D01*
X108180436Y-45623461D01*
X108689298Y-45834759D01*
X109240285Y-45835240D01*
X109749515Y-45624831D01*
X110139461Y-45235564D01*
X110235976Y-45003129D01*
X110331169Y-45233515D01*
X110720436Y-45623461D01*
X111229298Y-45834759D01*
X111780285Y-45835240D01*
X112289515Y-45624831D01*
X112679461Y-45235564D01*
X112890759Y-44726702D01*
X112891240Y-44175715D01*
X112891240Y-58877120D01*
X112856463Y-58697877D01*
X112716673Y-58485073D01*
X112505640Y-58342623D01*
X112256000Y-58292560D01*
X110756000Y-58292560D01*
X110513877Y-58339537D01*
X110301073Y-58479327D01*
X110158623Y-58690360D01*
X110119555Y-58885172D01*
X109751564Y-58516539D01*
X109242702Y-58305241D01*
X108691715Y-58304760D01*
X108182485Y-58515169D01*
X107792539Y-58904436D01*
X107696023Y-59136870D01*
X107600831Y-58906485D01*
X107211564Y-58516539D01*
X106702702Y-58305241D01*
X106151715Y-58304760D01*
X105642485Y-58515169D01*
X105252539Y-58904436D01*
X105156023Y-59136870D01*
X105060831Y-58906485D01*
X104671564Y-58516539D01*
X104162702Y-58305241D01*
X103611715Y-58304760D01*
X103102485Y-58515169D01*
X102712539Y-58904436D01*
X102616023Y-59136870D01*
X102520831Y-58906485D01*
X102131564Y-58516539D01*
X101622702Y-58305241D01*
X101071715Y-58304760D01*
X100562485Y-58515169D01*
X100172539Y-58904436D01*
X99961241Y-59413298D01*
X99960760Y-59964285D01*
X100171169Y-60473515D01*
X100560436Y-60863461D01*
X101069298Y-61074759D01*
X101620285Y-61075240D01*
X102129515Y-60864831D01*
X102519461Y-60475564D01*
X102615976Y-60243129D01*
X102711169Y-60473515D01*
X103100436Y-60863461D01*
X103609298Y-61074759D01*
X104160285Y-61075240D01*
X104669515Y-60864831D01*
X105059461Y-60475564D01*
X105155976Y-60243129D01*
X105251169Y-60473515D01*
X105640436Y-60863461D01*
X106149298Y-61074759D01*
X106700285Y-61075240D01*
X107209515Y-60864831D01*
X107599461Y-60475564D01*
X107695976Y-60243129D01*
X107791169Y-60473515D01*
X108180436Y-60863461D01*
X108689298Y-61074759D01*
X109240285Y-61075240D01*
X109749515Y-60864831D01*
X110119354Y-60495635D01*
X110155537Y-60682123D01*
X110295327Y-60894927D01*
X110506360Y-61037377D01*
X110756000Y-61087440D01*
X112256000Y-61087440D01*
X112498123Y-61040463D01*
X112710927Y-60900673D01*
X112853377Y-60689640D01*
X112903440Y-60440000D01*
X112903440Y-67895000D01*
X112484069Y-67895000D01*
X112484069Y-64068337D01*
X112335507Y-63708788D01*
X112060659Y-63433460D01*
X111701370Y-63284270D01*
X111312337Y-63283931D01*
X110952788Y-63432493D01*
X110677460Y-63707341D01*
X110528270Y-64066630D01*
X110527931Y-64455663D01*
X110676493Y-64815212D01*
X110951341Y-65090540D01*
X111310630Y-65239730D01*
X111699663Y-65240069D01*
X112059212Y-65091507D01*
X112334540Y-64816659D01*
X112483730Y-64457370D01*
X112484069Y-64068337D01*
X112484069Y-67895000D01*
X109944069Y-67895000D01*
X109944069Y-63052337D01*
X109795507Y-62692788D01*
X109520659Y-62417460D01*
X109161370Y-62268270D01*
X108772337Y-62267931D01*
X108412788Y-62416493D01*
X108137460Y-62691341D01*
X107988270Y-63050630D01*
X107987931Y-63439663D01*
X108136493Y-63799212D01*
X108411341Y-64074540D01*
X108770630Y-64223730D01*
X109159663Y-64224069D01*
X109519212Y-64075507D01*
X109794540Y-63800659D01*
X109943730Y-63441370D01*
X109944069Y-63052337D01*
X109944069Y-67895000D01*
X107404069Y-67895000D01*
X107404069Y-66100337D01*
X107255507Y-65740788D01*
X106980659Y-65465460D01*
X106621370Y-65316270D01*
X106232337Y-65315931D01*
X105872788Y-65464493D01*
X105597460Y-65739341D01*
X105448270Y-66098630D01*
X105447931Y-66487663D01*
X105596493Y-66847212D01*
X105871341Y-67122540D01*
X106230630Y-67271730D01*
X106619663Y-67272069D01*
X106979212Y-67123507D01*
X107254540Y-66848659D01*
X107403730Y-66489370D01*
X107404069Y-66100337D01*
X107404069Y-67895000D01*
X99949440Y-67895000D01*
X99949440Y-60440000D01*
X99949440Y-58940000D01*
X99937240Y-58877120D01*
X99937240Y-44175715D01*
X99726831Y-43666485D01*
X99530069Y-43469379D01*
X99530069Y-38668337D01*
X99381507Y-38308788D01*
X99106659Y-38033460D01*
X98747370Y-37884270D01*
X98358337Y-37883931D01*
X97998788Y-38032493D01*
X97723460Y-38307341D01*
X97574270Y-38666630D01*
X97573931Y-39055663D01*
X97722493Y-39415212D01*
X97997341Y-39690540D01*
X98356630Y-39839730D01*
X98745663Y-39840069D01*
X99105212Y-39691507D01*
X99380540Y-39416659D01*
X99529730Y-39057370D01*
X99530069Y-38668337D01*
X99530069Y-43469379D01*
X99337564Y-43276539D01*
X98828702Y-43065241D01*
X98277715Y-43064760D01*
X97768485Y-43275169D01*
X97378539Y-43664436D01*
X97282023Y-43896870D01*
X97186831Y-43666485D01*
X96990069Y-43469379D01*
X96990069Y-39684337D01*
X96841507Y-39324788D01*
X96566659Y-39049460D01*
X96207370Y-38900270D01*
X95818337Y-38899931D01*
X95458788Y-39048493D01*
X95183460Y-39323341D01*
X95034270Y-39682630D01*
X95033931Y-40071663D01*
X95182493Y-40431212D01*
X95457341Y-40706540D01*
X95816630Y-40855730D01*
X96205663Y-40856069D01*
X96565212Y-40707507D01*
X96840540Y-40432659D01*
X96989730Y-40073370D01*
X96990069Y-39684337D01*
X96990069Y-43469379D01*
X96797564Y-43276539D01*
X96288702Y-43065241D01*
X95737715Y-43064760D01*
X95228485Y-43275169D01*
X94838539Y-43664436D01*
X94742023Y-43896870D01*
X94646831Y-43666485D01*
X94257564Y-43276539D01*
X93748702Y-43065241D01*
X93197715Y-43064760D01*
X92688485Y-43275169D01*
X92298539Y-43664436D01*
X92202023Y-43896870D01*
X92106831Y-43666485D01*
X91910069Y-43469379D01*
X91910069Y-40954337D01*
X91761507Y-40594788D01*
X91486659Y-40319460D01*
X91127370Y-40170270D01*
X90738337Y-40169931D01*
X90378788Y-40318493D01*
X90103460Y-40593341D01*
X89954270Y-40952630D01*
X89953931Y-41341663D01*
X90102493Y-41701212D01*
X90377341Y-41976540D01*
X90736630Y-42125730D01*
X91125663Y-42126069D01*
X91485212Y-41977507D01*
X91760540Y-41702659D01*
X91909730Y-41343370D01*
X91910069Y-40954337D01*
X91910069Y-43469379D01*
X91717564Y-43276539D01*
X91208702Y-43065241D01*
X90657715Y-43064760D01*
X90148485Y-43275169D01*
X89758539Y-43664436D01*
X89662023Y-43896870D01*
X89566831Y-43666485D01*
X89177564Y-43276539D01*
X88668702Y-43065241D01*
X88117715Y-43064760D01*
X87608485Y-43275169D01*
X87218539Y-43664436D01*
X87007241Y-44173298D01*
X87006760Y-44724285D01*
X87217169Y-45233515D01*
X87606436Y-45623461D01*
X88115298Y-45834759D01*
X88666285Y-45835240D01*
X89175515Y-45624831D01*
X89565461Y-45235564D01*
X89661976Y-45003129D01*
X89757169Y-45233515D01*
X90146436Y-45623461D01*
X90655298Y-45834759D01*
X91206285Y-45835240D01*
X91715515Y-45624831D01*
X92105461Y-45235564D01*
X92201976Y-45003129D01*
X92297169Y-45233515D01*
X92686436Y-45623461D01*
X93195298Y-45834759D01*
X93746285Y-45835240D01*
X94255515Y-45624831D01*
X94645461Y-45235564D01*
X94741976Y-45003129D01*
X94837169Y-45233515D01*
X95226436Y-45623461D01*
X95735298Y-45834759D01*
X96286285Y-45835240D01*
X96795515Y-45624831D01*
X97185461Y-45235564D01*
X97281976Y-45003129D01*
X97377169Y-45233515D01*
X97766436Y-45623461D01*
X98275298Y-45834759D01*
X98826285Y-45835240D01*
X99335515Y-45624831D01*
X99725461Y-45235564D01*
X99936759Y-44726702D01*
X99937240Y-44175715D01*
X99937240Y-58877120D01*
X99902463Y-58697877D01*
X99762673Y-58485073D01*
X99551640Y-58342623D01*
X99302000Y-58292560D01*
X97802000Y-58292560D01*
X97559877Y-58339537D01*
X97347073Y-58479327D01*
X97204623Y-58690360D01*
X97165555Y-58885172D01*
X96797564Y-58516539D01*
X96288702Y-58305241D01*
X95737715Y-58304760D01*
X95228485Y-58515169D01*
X94838539Y-58904436D01*
X94742023Y-59136870D01*
X94646831Y-58906485D01*
X94257564Y-58516539D01*
X93748702Y-58305241D01*
X93197715Y-58304760D01*
X92688485Y-58515169D01*
X92298539Y-58904436D01*
X92202023Y-59136870D01*
X92106831Y-58906485D01*
X91717564Y-58516539D01*
X91208702Y-58305241D01*
X90657715Y-58304760D01*
X90148485Y-58515169D01*
X89758539Y-58904436D01*
X89662023Y-59136870D01*
X89566831Y-58906485D01*
X89177564Y-58516539D01*
X88668702Y-58305241D01*
X88117715Y-58304760D01*
X87608485Y-58515169D01*
X87218539Y-58904436D01*
X87007241Y-59413298D01*
X87006760Y-59964285D01*
X87217169Y-60473515D01*
X87606436Y-60863461D01*
X88115298Y-61074759D01*
X88666285Y-61075240D01*
X89175515Y-60864831D01*
X89565461Y-60475564D01*
X89661976Y-60243129D01*
X89757169Y-60473515D01*
X90146436Y-60863461D01*
X90655298Y-61074759D01*
X91206285Y-61075240D01*
X91715515Y-60864831D01*
X92105461Y-60475564D01*
X92201976Y-60243129D01*
X92297169Y-60473515D01*
X92686436Y-60863461D01*
X93195298Y-61074759D01*
X93746285Y-61075240D01*
X94255515Y-60864831D01*
X94645461Y-60475564D01*
X94741976Y-60243129D01*
X94837169Y-60473515D01*
X95226436Y-60863461D01*
X95735298Y-61074759D01*
X96286285Y-61075240D01*
X96795515Y-60864831D01*
X97165354Y-60495635D01*
X97201537Y-60682123D01*
X97341327Y-60894927D01*
X97552360Y-61037377D01*
X97802000Y-61087440D01*
X99302000Y-61087440D01*
X99544123Y-61040463D01*
X99756927Y-60900673D01*
X99899377Y-60689640D01*
X99949440Y-60440000D01*
X99949440Y-67895000D01*
X99530069Y-67895000D01*
X99530069Y-64068337D01*
X99381507Y-63708788D01*
X99106659Y-63433460D01*
X98747370Y-63284270D01*
X98358337Y-63283931D01*
X97998788Y-63432493D01*
X97723460Y-63707341D01*
X97574270Y-64066630D01*
X97573931Y-64455663D01*
X97722493Y-64815212D01*
X97997341Y-65090540D01*
X98356630Y-65239730D01*
X98745663Y-65240069D01*
X99105212Y-65091507D01*
X99380540Y-64816659D01*
X99529730Y-64457370D01*
X99530069Y-64068337D01*
X99530069Y-67895000D01*
X96990069Y-67895000D01*
X96990069Y-63052337D01*
X96841507Y-62692788D01*
X96566659Y-62417460D01*
X96207370Y-62268270D01*
X95818337Y-62267931D01*
X95458788Y-62416493D01*
X95183460Y-62691341D01*
X95034270Y-63050630D01*
X95033931Y-63439663D01*
X95182493Y-63799212D01*
X95457341Y-64074540D01*
X95816630Y-64223730D01*
X96205663Y-64224069D01*
X96565212Y-64075507D01*
X96840540Y-63800659D01*
X96989730Y-63441370D01*
X96990069Y-63052337D01*
X96990069Y-67895000D01*
X94450069Y-67895000D01*
X94450069Y-65084337D01*
X94301507Y-64724788D01*
X94026659Y-64449460D01*
X93667370Y-64300270D01*
X93278337Y-64299931D01*
X92918788Y-64448493D01*
X92643460Y-64723341D01*
X92494270Y-65082630D01*
X92493931Y-65471663D01*
X92642493Y-65831212D01*
X92917341Y-66106540D01*
X93276630Y-66255730D01*
X93665663Y-66256069D01*
X94025212Y-66107507D01*
X94300540Y-65832659D01*
X94449730Y-65473370D01*
X94450069Y-65084337D01*
X94450069Y-67895000D01*
X71805000Y-67895000D01*
X71805000Y-36245000D01*
X135853853Y-36245000D01*
X135823460Y-36275341D01*
X135674270Y-36634630D01*
X135673931Y-37023663D01*
X135822493Y-37383212D01*
X136097341Y-37658540D01*
X136456630Y-37807730D01*
X136845663Y-37808069D01*
X137205212Y-37659507D01*
X137480540Y-37384659D01*
X137629730Y-37025370D01*
X137630069Y-36636337D01*
X137481507Y-36276788D01*
X137449774Y-36245000D01*
X159335000Y-36245000D01*
X159335000Y-67895000D01*
M02*
