G04 #@! TF.FileFunction,Soldermask,Top*
%FSLAX46Y46*%
G04 Gerber Fmt 4.6, Leading zero omitted, Abs format (unit mm)*
G04 Created by KiCad (PCBNEW (2015-05-26 BZR 5680)-product) date 2015 June 10, Wednesday 08:28:10*
%MOMM*%
G01*
G04 APERTURE LIST*
%ADD10C,0.100000*%
%ADD11R,2.600960X1.600200*%
%ADD12R,1.250000X1.500000*%
%ADD13R,1.727200X2.032000*%
%ADD14O,1.727200X2.032000*%
%ADD15R,1.500000X1.300000*%
%ADD16R,1.500000X1.500000*%
%ADD17C,1.500000*%
%ADD18R,1.524000X0.762000*%
G04 APERTURE END LIST*
D10*
D11*
X138198860Y-53340000D03*
X134597140Y-53340000D03*
D12*
X142240000Y-53360000D03*
X142240000Y-55860000D03*
D13*
X157480000Y-66040000D03*
D14*
X154940000Y-66040000D03*
X152400000Y-66040000D03*
X149860000Y-66040000D03*
X147320000Y-66040000D03*
D15*
X138604000Y-49276000D03*
X141304000Y-49276000D03*
D16*
X98552000Y-59690000D03*
D17*
X96012000Y-59690000D03*
X93472000Y-59690000D03*
X90932000Y-59690000D03*
X88392000Y-59690000D03*
X88392000Y-44450000D03*
X90932000Y-44450000D03*
X93472000Y-44450000D03*
X96012000Y-44450000D03*
X98552000Y-44450000D03*
D16*
X111506000Y-59690000D03*
D17*
X108966000Y-59690000D03*
X106426000Y-59690000D03*
X103886000Y-59690000D03*
X101346000Y-59690000D03*
X101346000Y-44450000D03*
X103886000Y-44450000D03*
X106426000Y-44450000D03*
X108966000Y-44450000D03*
X111506000Y-44450000D03*
D16*
X128778000Y-59690000D03*
D17*
X126238000Y-59690000D03*
X123698000Y-59690000D03*
X121158000Y-59690000D03*
X118618000Y-59690000D03*
X118618000Y-44450000D03*
X121158000Y-44450000D03*
X123698000Y-44450000D03*
X126238000Y-44450000D03*
X128778000Y-44450000D03*
D16*
X141732000Y-59690000D03*
D17*
X139192000Y-59690000D03*
X136652000Y-59690000D03*
X134112000Y-59690000D03*
X131572000Y-59690000D03*
X131572000Y-44450000D03*
X134112000Y-44450000D03*
X136652000Y-44450000D03*
X139192000Y-44450000D03*
X141732000Y-44450000D03*
D18*
X154063700Y-59563000D03*
X154063700Y-58293000D03*
X154063700Y-57023000D03*
X154063700Y-55753000D03*
X154063700Y-54483000D03*
X154063700Y-53213000D03*
X154063700Y-51943000D03*
X154063700Y-50673000D03*
X154063700Y-49403000D03*
X154063700Y-48133000D03*
X154063700Y-46863000D03*
X154063700Y-45466000D03*
X145148300Y-59563000D03*
X145148300Y-58293000D03*
X145148300Y-57023000D03*
X145148300Y-55753000D03*
X145148300Y-54483000D03*
X145148300Y-53213000D03*
X145148300Y-51943000D03*
X145148300Y-50673000D03*
X145148300Y-49403000D03*
X145148300Y-48133000D03*
X145148300Y-46863000D03*
X145148300Y-45593000D03*
D15*
X111332000Y-47752000D03*
X108632000Y-47752000D03*
X118792000Y-54610000D03*
X121492000Y-54610000D03*
M02*
