M48
;DRILL file {KiCad 0.201506222247+5806~23~ubuntu14.04.1-product} date Sat 27 Jun 2015 15:51:21 CEST
;FORMAT={-:-/ absolute / inch / decimal}
FMAT,2
INCH,TZ
T1C0.013
T2C0.031
T3C0.040
%
G90
G05
M72
T1
X5.075Y-3.74
X5.075Y-3.815
X5.135Y-2.1
X5.14Y-2.05
X5.555Y-3.18
X5.805Y-3.59
X6.065Y-3.38
X6.09Y-3.415
X6.245Y-3.445
X6.275Y-3.385
X6.305Y-3.415
X6.33Y-2.115
X6.33Y-2.31
X6.67Y-3.38
X6.775Y-3.64
X6.82Y-3.18
X6.89Y-3.575
X6.975Y-3.575
X7.145Y-3.6
X8.02Y-2.475
T2
X5.Y-1.9
X5.Y-2.5
X5.1Y-1.9
X5.1Y-2.5
X5.2Y-1.9
X5.2Y-2.5
X5.3Y-1.9
X5.3Y-2.5
X5.4Y-1.9
X5.4Y-2.5
X5.6Y-1.9
X5.6Y-2.5
X5.7Y-1.9
X5.7Y-2.5
X5.8Y-1.9
X5.8Y-2.5
X5.9Y-1.9
X5.9Y-2.5
X6.Y-1.9
X6.Y-2.5
X6.5Y-1.9
X6.5Y-2.5
X6.6Y-1.9
X6.6Y-2.5
X6.7Y-1.9
X6.7Y-2.5
X6.8Y-1.9
X6.8Y-2.5
X6.9Y-1.9
X6.9Y-2.5
X7.1Y-1.9
X7.1Y-2.5
X7.2Y-1.9
X7.2Y-2.5
X7.3Y-1.9
X7.3Y-2.5
X7.4Y-1.9
X7.4Y-2.5
X7.5Y-1.9
X7.5Y-2.5
T3
X4.7Y-2.4
X4.7Y-2.5
X4.7Y-2.6
X4.7Y-2.7
X4.7Y-2.8
X4.7Y-2.9
X4.7Y-3.25
X4.7Y-3.35
X4.7Y-3.45
X4.7Y-3.55
X4.7Y-3.65
X4.7Y-3.75
X5.92Y-3.575
X5.92Y-3.675
X5.92Y-3.775
X6.02Y-3.575
X6.02Y-3.675
X6.02Y-3.775
X6.7Y-3.75
X6.8Y-3.75
X6.9Y-3.75
X7.Y-3.75
X7.1Y-3.75
X7.95Y-2.3
X7.95Y-2.4
X7.95Y-2.5
X7.95Y-2.6
X7.95Y-2.7
X7.95Y-2.8
X7.95Y-2.9
X7.95Y-3.15
X7.95Y-3.25
X7.95Y-3.35
X7.95Y-3.45
X7.95Y-3.55
X7.95Y-3.65
X7.95Y-3.75
T0
M30
