G04 #@! TF.FileFunction,Copper,L1,Top,Signal*
%FSLAX46Y46*%
G04 Gerber Fmt 4.6, Leading zero omitted, Abs format (unit mm)*
G04 Created by KiCad (PCBNEW 0.201506222247+5806~23~ubuntu14.04.1-product) date Sat 27 Jun 2015 15:51:07 CEST*
%MOMM*%
G01*
G04 APERTURE LIST*
%ADD10C,0.100000*%
%ADD11R,1.500000X1.500000*%
%ADD12C,1.500000*%
%ADD13R,1.250000X1.500000*%
%ADD14R,1.600000X0.550000*%
%ADD15R,0.550000X1.600000*%
%ADD16R,2.032000X1.727200*%
%ADD17O,2.032000X1.727200*%
%ADD18R,0.300000X0.525000*%
%ADD19R,1.500000X1.300000*%
%ADD20R,1.300000X1.500000*%
%ADD21R,0.600000X1.600000*%
%ADD22R,0.600000X1.500000*%
%ADD23R,1.727200X1.727200*%
%ADD24O,1.727200X1.727200*%
%ADD25R,1.727200X2.032000*%
%ADD26O,1.727200X2.032000*%
%ADD27C,0.685800*%
%ADD28C,0.152400*%
G04 APERTURE END LIST*
D10*
D11*
X190500000Y-63500000D03*
D12*
X187960000Y-63500000D03*
X185420000Y-63500000D03*
X182880000Y-63500000D03*
X180340000Y-63500000D03*
X180340000Y-48260000D03*
X182880000Y-48260000D03*
X185420000Y-48260000D03*
X187960000Y-48260000D03*
X190500000Y-48260000D03*
D11*
X175260000Y-63500000D03*
D12*
X172720000Y-63500000D03*
X170180000Y-63500000D03*
X167640000Y-63500000D03*
X165100000Y-63500000D03*
X165100000Y-48260000D03*
X167640000Y-48260000D03*
X170180000Y-48260000D03*
X172720000Y-48260000D03*
X175260000Y-48260000D03*
D11*
X152400000Y-63500000D03*
D12*
X149860000Y-63500000D03*
X147320000Y-63500000D03*
X144780000Y-63500000D03*
X142240000Y-63500000D03*
X142240000Y-48260000D03*
X144780000Y-48260000D03*
X147320000Y-48260000D03*
X149860000Y-48260000D03*
X152400000Y-48260000D03*
D11*
X137160000Y-63500000D03*
D12*
X134620000Y-63500000D03*
X132080000Y-63500000D03*
X129540000Y-63500000D03*
X127000000Y-63500000D03*
X127000000Y-48260000D03*
X129540000Y-48260000D03*
X132080000Y-48260000D03*
X134620000Y-48260000D03*
X137160000Y-48260000D03*
D13*
X167640000Y-85197000D03*
X167640000Y-82697000D03*
D14*
X165286000Y-90684000D03*
X165286000Y-89884000D03*
X165286000Y-89084000D03*
X165286000Y-88284000D03*
X165286000Y-87484000D03*
X165286000Y-86684000D03*
X165286000Y-85884000D03*
X165286000Y-85084000D03*
D15*
X163836000Y-83634000D03*
X163036000Y-83634000D03*
X162236000Y-83634000D03*
X161436000Y-83634000D03*
X160636000Y-83634000D03*
X159836000Y-83634000D03*
X159036000Y-83634000D03*
X158236000Y-83634000D03*
D14*
X156786000Y-85084000D03*
X156786000Y-85884000D03*
X156786000Y-86684000D03*
X156786000Y-87484000D03*
X156786000Y-88284000D03*
X156786000Y-89084000D03*
X156786000Y-89884000D03*
X156786000Y-90684000D03*
D15*
X158236000Y-92134000D03*
X159036000Y-92134000D03*
X159836000Y-92134000D03*
X160636000Y-92134000D03*
X161436000Y-92134000D03*
X162236000Y-92134000D03*
X163036000Y-92134000D03*
X163836000Y-92134000D03*
D16*
X119380000Y-82550000D03*
D17*
X119380000Y-85090000D03*
X119380000Y-87630000D03*
X119380000Y-90170000D03*
X119380000Y-92710000D03*
X119380000Y-95250000D03*
D16*
X201930000Y-80010000D03*
D17*
X201930000Y-82550000D03*
X201930000Y-85090000D03*
X201930000Y-87630000D03*
X201930000Y-90170000D03*
X201930000Y-92710000D03*
X201930000Y-95250000D03*
D18*
X127000000Y-82855500D03*
X127000000Y-84530500D03*
X127650000Y-84530500D03*
X126350000Y-84530500D03*
X126350000Y-82855500D03*
X127650000Y-82855500D03*
X127000000Y-87808500D03*
X127000000Y-89483500D03*
X127650000Y-89483500D03*
X126350000Y-89483500D03*
X126350000Y-87808500D03*
X127650000Y-87808500D03*
X126873000Y-93142500D03*
X126873000Y-94817500D03*
X127523000Y-94817500D03*
X126223000Y-94817500D03*
X126223000Y-93142500D03*
X127523000Y-93142500D03*
D19*
X170260000Y-91440000D03*
X167560000Y-91440000D03*
D20*
X158623000Y-58500000D03*
X158623000Y-55800000D03*
X158750000Y-53293000D03*
X158750000Y-50593000D03*
D19*
X132000000Y-82550000D03*
X134700000Y-82550000D03*
X132000000Y-85090000D03*
X134700000Y-85090000D03*
X132000000Y-87630000D03*
X134700000Y-87630000D03*
X132000000Y-90170000D03*
X134700000Y-90170000D03*
X136191000Y-94615000D03*
X138891000Y-94615000D03*
D20*
X133223000Y-95965000D03*
X133223000Y-93265000D03*
D19*
X190707000Y-84201000D03*
X188007000Y-84201000D03*
X196295000Y-85725000D03*
X193595000Y-85725000D03*
X190580000Y-87757000D03*
X187880000Y-87757000D03*
X190580000Y-90170000D03*
X187880000Y-90170000D03*
X187405000Y-93345000D03*
X184705000Y-93345000D03*
X190453000Y-80772000D03*
X187753000Y-80772000D03*
X196168000Y-80772000D03*
X193468000Y-80772000D03*
D21*
X147447000Y-82552000D03*
X146177000Y-82552000D03*
X144907000Y-82552000D03*
X143637000Y-82552000D03*
X142367000Y-82550000D03*
D22*
X141097000Y-82552000D03*
D21*
X139827000Y-82552000D03*
X138557000Y-82552000D03*
X138557000Y-89152000D03*
X139827000Y-89152000D03*
X141097000Y-89152000D03*
X142367000Y-89152000D03*
X143637000Y-89152000D03*
X144907000Y-89152000D03*
X146177000Y-89152000D03*
X147447000Y-89152000D03*
X173228000Y-89279000D03*
X174498000Y-89279000D03*
X175768000Y-89279000D03*
X177038000Y-89279000D03*
X178308000Y-89281000D03*
D22*
X179578000Y-89279000D03*
D21*
X180848000Y-89279000D03*
X182118000Y-89279000D03*
X182118000Y-82679000D03*
X180848000Y-82679000D03*
X179578000Y-82679000D03*
X178308000Y-82679000D03*
X177038000Y-82679000D03*
X175768000Y-82679000D03*
X174498000Y-82679000D03*
X173228000Y-82679000D03*
D23*
X150368000Y-90805000D03*
D24*
X152908000Y-90805000D03*
X150368000Y-93345000D03*
X152908000Y-93345000D03*
X150368000Y-95885000D03*
X152908000Y-95885000D03*
D25*
X170180000Y-95250000D03*
D26*
X172720000Y-95250000D03*
X175260000Y-95250000D03*
X177800000Y-95250000D03*
X180340000Y-95250000D03*
D16*
X119380000Y-60960000D03*
D17*
X119380000Y-63500000D03*
X119380000Y-66040000D03*
X119380000Y-68580000D03*
X119380000Y-71120000D03*
X119380000Y-73660000D03*
D16*
X201930000Y-58420000D03*
D17*
X201930000Y-60960000D03*
X201930000Y-63500000D03*
X201930000Y-66040000D03*
X201930000Y-68580000D03*
X201930000Y-71120000D03*
X201930000Y-73660000D03*
D27*
X130556000Y-52070000D03*
X130429000Y-53340000D03*
X158623000Y-87503000D03*
X175006000Y-90805000D03*
X173228000Y-80772000D03*
X172085000Y-92456000D03*
X169418000Y-85852000D03*
X147447000Y-91186000D03*
X141097000Y-80772000D03*
X128905000Y-96901000D03*
X128905000Y-94996000D03*
X177165000Y-90805000D03*
X181483000Y-91440000D03*
X160782000Y-58674000D03*
X160782000Y-53721000D03*
X203708000Y-62865000D03*
X160147000Y-86741000D03*
X159385000Y-85979000D03*
X154686000Y-86741000D03*
X154051000Y-85852000D03*
D28*
X152400000Y-63500000D02*
X163068000Y-63500000D01*
X163068000Y-63500000D02*
X165100000Y-65532000D01*
X165100000Y-65532000D02*
X173228000Y-65532000D01*
X173228000Y-65532000D02*
X175260000Y-63500000D01*
X134620000Y-63500000D02*
X134620000Y-63119000D01*
X134620000Y-63119000D02*
X135763000Y-61976000D01*
X148336000Y-61976000D02*
X149860000Y-63500000D01*
X135763000Y-61976000D02*
X148336000Y-61976000D01*
X172720000Y-63500000D02*
X172720000Y-62357000D01*
X187960000Y-62230000D02*
X187960000Y-63500000D01*
X187071000Y-61341000D02*
X187960000Y-62230000D01*
X173736000Y-61341000D02*
X187071000Y-61341000D01*
X172720000Y-62357000D02*
X173736000Y-61341000D01*
X134620000Y-63500000D02*
X134620000Y-62992000D01*
X144780000Y-63500000D02*
X144780000Y-64008000D01*
X144780000Y-64008000D02*
X145796000Y-65024000D01*
X166243000Y-62103000D02*
X167640000Y-63500000D01*
X151384000Y-62103000D02*
X166243000Y-62103000D01*
X151003000Y-62484000D02*
X151384000Y-62103000D01*
X151003000Y-64389000D02*
X151003000Y-62484000D01*
X150368000Y-65024000D02*
X151003000Y-64389000D01*
X145796000Y-65024000D02*
X150368000Y-65024000D01*
X129540000Y-63500000D02*
X129540000Y-64008000D01*
X129540000Y-64008000D02*
X130429000Y-64897000D01*
X143383000Y-64897000D02*
X144780000Y-63500000D01*
X130429000Y-64897000D02*
X143383000Y-64897000D01*
X182880000Y-63500000D02*
X182880000Y-63627000D01*
X182880000Y-63627000D02*
X184277000Y-65024000D01*
X199517000Y-65913000D02*
X201930000Y-63500000D01*
X194691000Y-65913000D02*
X199517000Y-65913000D01*
X193802000Y-65024000D02*
X194691000Y-65913000D01*
X184277000Y-65024000D02*
X193802000Y-65024000D01*
X167640000Y-63500000D02*
X167640000Y-63754000D01*
X167640000Y-63754000D02*
X168910000Y-65024000D01*
X173990000Y-62230000D02*
X174371000Y-61849000D01*
X174371000Y-61849000D02*
X181991000Y-61849000D01*
X181991000Y-61849000D02*
X182880000Y-62738000D01*
X182880000Y-62738000D02*
X182880000Y-63500000D01*
X173990000Y-64135000D02*
X173990000Y-62230000D01*
X173101000Y-65024000D02*
X173990000Y-64135000D01*
X168910000Y-65024000D02*
X173101000Y-65024000D01*
X144780000Y-63500000D02*
X144780000Y-63627000D01*
X142240000Y-48260000D02*
X142621000Y-48260000D01*
X142621000Y-48260000D02*
X143891000Y-46990000D01*
X152701000Y-50593000D02*
X158750000Y-50593000D01*
X151130000Y-49022000D02*
X152701000Y-50593000D01*
X151130000Y-47752000D02*
X151130000Y-49022000D01*
X150368000Y-46990000D02*
X151130000Y-47752000D01*
X143891000Y-46990000D02*
X150368000Y-46990000D01*
X142240000Y-48260000D02*
X142240000Y-48006000D01*
X142240000Y-49403000D02*
X140970000Y-50673000D01*
X158750000Y-50593000D02*
X162767000Y-50593000D01*
X162767000Y-50593000D02*
X165100000Y-48260000D01*
X140970000Y-50673000D02*
X128143000Y-50673000D01*
X128143000Y-50673000D02*
X127000000Y-49530000D01*
X127000000Y-49530000D02*
X127000000Y-48260000D01*
X142240000Y-48260000D02*
X142240000Y-47879000D01*
X142240000Y-49403000D02*
X142240000Y-48260000D01*
X158623000Y-55800000D02*
X134286000Y-55800000D01*
X134286000Y-55800000D02*
X130556000Y-52070000D01*
X129540000Y-48260000D02*
X129540000Y-47625000D01*
X187960000Y-48260000D02*
X188214000Y-48260000D01*
X188214000Y-48260000D02*
X195072000Y-55118000D01*
X203708000Y-71120000D02*
X201930000Y-71120000D01*
X204470000Y-70358000D02*
X203708000Y-71120000D01*
X204470000Y-57277000D02*
X204470000Y-70358000D01*
X202311000Y-55118000D02*
X204470000Y-57277000D01*
X195072000Y-55118000D02*
X202311000Y-55118000D01*
X163449000Y-51943000D02*
X165989000Y-51943000D01*
X153416000Y-51943000D02*
X163449000Y-51943000D01*
X149860000Y-48387000D02*
X153416000Y-51943000D01*
X171323000Y-46863000D02*
X172720000Y-48260000D01*
X169672000Y-46863000D02*
X171323000Y-46863000D01*
X168910000Y-47625000D02*
X169672000Y-46863000D01*
X168910000Y-49022000D02*
X168910000Y-47625000D01*
X165989000Y-51943000D02*
X168910000Y-49022000D01*
X172720000Y-48260000D02*
X173355000Y-48260000D01*
X173355000Y-48260000D02*
X174752000Y-49657000D01*
X186563000Y-49657000D02*
X187960000Y-48260000D01*
X174752000Y-49657000D02*
X186563000Y-49657000D01*
X172720000Y-48260000D02*
X172974000Y-48260000D01*
X149860000Y-48260000D02*
X149860000Y-48387000D01*
X187960000Y-48260000D02*
X187960000Y-48768000D01*
X137160000Y-48260000D02*
X137160000Y-47879000D01*
X137160000Y-47879000D02*
X138684000Y-46355000D01*
X150495000Y-46355000D02*
X152400000Y-48260000D01*
X138684000Y-46355000D02*
X150495000Y-46355000D01*
X190500000Y-48260000D02*
X190500000Y-49403000D01*
X203962000Y-73660000D02*
X201930000Y-73660000D01*
X204978000Y-72644000D02*
X203962000Y-73660000D01*
X204978000Y-56642000D02*
X204978000Y-72644000D01*
X202819000Y-54483000D02*
X204978000Y-56642000D01*
X195580000Y-54483000D02*
X202819000Y-54483000D01*
X190500000Y-49403000D02*
X195580000Y-54483000D01*
X175260000Y-48260000D02*
X175641000Y-48260000D01*
X175641000Y-48260000D02*
X176911000Y-46990000D01*
X189230000Y-46990000D02*
X190500000Y-48260000D01*
X176911000Y-46990000D02*
X189230000Y-46990000D01*
X137160000Y-48260000D02*
X137160000Y-47752000D01*
X175260000Y-48260000D02*
X175260000Y-47752000D01*
X170180000Y-48260000D02*
X170180000Y-63500000D01*
X170180000Y-63500000D02*
X170180000Y-62738000D01*
X130937000Y-53340000D02*
X130429000Y-53340000D01*
X137668000Y-60071000D02*
X130937000Y-53340000D01*
X167513000Y-60071000D02*
X137668000Y-60071000D01*
X170180000Y-62738000D02*
X167513000Y-60071000D01*
X147320000Y-48260000D02*
X147320000Y-48895000D01*
X147320000Y-48895000D02*
X144907000Y-51308000D01*
X144907000Y-51308000D02*
X130175000Y-51308000D01*
X130175000Y-51308000D02*
X122555000Y-58928000D01*
X122555000Y-58928000D02*
X122555000Y-62865000D01*
X122555000Y-62865000D02*
X119380000Y-66040000D01*
X132080000Y-48260000D02*
X132080000Y-48133000D01*
X132080000Y-48133000D02*
X130683000Y-46736000D01*
X117602000Y-66802000D02*
X119380000Y-68580000D01*
X117602000Y-54864000D02*
X117602000Y-66802000D01*
X125730000Y-46736000D02*
X117602000Y-54864000D01*
X130683000Y-46736000D02*
X125730000Y-46736000D01*
X132080000Y-63500000D02*
X132080000Y-63373000D01*
X132080000Y-63373000D02*
X130683000Y-61976000D01*
X130683000Y-61976000D02*
X124714000Y-61976000D01*
X124714000Y-61976000D02*
X122174000Y-64516000D01*
X122174000Y-64516000D02*
X122174000Y-65786000D01*
X122174000Y-65786000D02*
X119380000Y-68580000D01*
X132080000Y-48260000D02*
X131572000Y-48260000D01*
X156786000Y-87484000D02*
X158604000Y-87484000D01*
X158604000Y-87484000D02*
X158623000Y-87503000D01*
X175768000Y-89279000D02*
X175768000Y-90043000D01*
X175768000Y-90043000D02*
X175006000Y-90805000D01*
X173228000Y-82679000D02*
X173228000Y-80772000D01*
X175768000Y-89279000D02*
X177038000Y-89279000D01*
X170260000Y-91440000D02*
X171069000Y-91440000D01*
X171069000Y-91440000D02*
X172085000Y-92456000D01*
X167640000Y-85197000D02*
X168763000Y-85197000D01*
X168763000Y-85197000D02*
X169418000Y-85852000D01*
X165286000Y-85884000D02*
X166953000Y-85884000D01*
X166953000Y-85884000D02*
X167640000Y-85197000D01*
X147447000Y-89152000D02*
X147447000Y-91186000D01*
X141097000Y-82552000D02*
X141097000Y-80772000D01*
X127523000Y-94817500D02*
X128726500Y-94817500D01*
X128726500Y-94817500D02*
X128905000Y-94996000D01*
X178308000Y-89281000D02*
X178308000Y-89662000D01*
X178308000Y-89662000D02*
X177165000Y-90805000D01*
X181483000Y-91440000D02*
X182118000Y-90805000D01*
X182118000Y-90805000D02*
X182118000Y-89279000D01*
X160608000Y-58500000D02*
X158623000Y-58500000D01*
X160782000Y-58674000D02*
X160608000Y-58500000D01*
X160354000Y-53293000D02*
X158750000Y-53293000D01*
X160782000Y-53721000D02*
X160354000Y-53293000D01*
X203708000Y-62865000D02*
X203708000Y-68834000D01*
X203708000Y-68834000D02*
X202692000Y-69850000D01*
X202692000Y-69850000D02*
X125222000Y-69850000D01*
X125222000Y-69850000D02*
X121412000Y-73660000D01*
X121412000Y-73660000D02*
X119380000Y-73660000D01*
X150368000Y-95885000D02*
X150622000Y-95885000D01*
X150622000Y-95885000D02*
X151892000Y-94615000D01*
X151892000Y-94615000D02*
X164385000Y-94615000D01*
X164385000Y-94615000D02*
X167560000Y-91440000D01*
X167560000Y-91440000D02*
X165862000Y-91440000D01*
X165862000Y-91440000D02*
X165286000Y-90864000D01*
X165286000Y-90864000D02*
X165286000Y-90684000D01*
X180848000Y-89279000D02*
X180848000Y-90678000D01*
X171545000Y-89884000D02*
X165286000Y-89884000D01*
X171958000Y-90297000D02*
X171545000Y-89884000D01*
X171958000Y-90932000D02*
X171958000Y-90297000D01*
X172593000Y-91567000D02*
X171958000Y-90932000D01*
X179959000Y-91567000D02*
X172593000Y-91567000D01*
X180848000Y-90678000D02*
X179959000Y-91567000D01*
X173228000Y-89279000D02*
X170432000Y-89279000D01*
X170237000Y-89084000D02*
X165286000Y-89084000D01*
X170432000Y-89279000D02*
X170237000Y-89084000D01*
X174498000Y-89279000D02*
X174498000Y-87884000D01*
X171685000Y-88284000D02*
X165286000Y-88284000D01*
X172212000Y-87757000D02*
X171685000Y-88284000D01*
X174371000Y-87757000D02*
X172212000Y-87757000D01*
X174498000Y-87884000D02*
X174371000Y-87757000D01*
X179578000Y-89279000D02*
X179578000Y-88011000D01*
X171342000Y-87484000D02*
X165286000Y-87484000D01*
X171577000Y-87249000D02*
X171342000Y-87484000D01*
X178816000Y-87249000D02*
X171577000Y-87249000D01*
X179578000Y-88011000D02*
X178816000Y-87249000D01*
X158236000Y-84576000D02*
X158236000Y-83634000D01*
X158470598Y-84810598D02*
X158236000Y-84576000D01*
X159486598Y-84810598D02*
X158470598Y-84810598D01*
X160147000Y-85471000D02*
X159486598Y-84810598D01*
X160147000Y-86741000D02*
X160147000Y-85471000D01*
X158623000Y-85217000D02*
X156919000Y-85217000D01*
X159385000Y-85979000D02*
X158623000Y-85217000D01*
X156919000Y-85217000D02*
X156786000Y-85084000D01*
X154743000Y-86684000D02*
X156786000Y-86684000D01*
X154686000Y-86741000D02*
X154743000Y-86684000D01*
X147447000Y-82552000D02*
X149227000Y-82552000D01*
X155670000Y-89884000D02*
X156786000Y-89884000D01*
X154686000Y-88900000D02*
X155670000Y-89884000D01*
X154686000Y-88011000D02*
X154686000Y-88900000D01*
X149227000Y-82552000D02*
X154686000Y-88011000D01*
X146177000Y-82552000D02*
X146177000Y-83693000D01*
X155835000Y-90684000D02*
X156786000Y-90684000D01*
X154178000Y-89027000D02*
X155835000Y-90684000D01*
X154178000Y-88392000D02*
X154178000Y-89027000D01*
X149860000Y-84074000D02*
X154178000Y-88392000D01*
X146558000Y-84074000D02*
X149860000Y-84074000D01*
X146177000Y-83693000D02*
X146558000Y-84074000D01*
X144907000Y-82552000D02*
X144907000Y-83820000D01*
X156650000Y-92134000D02*
X158236000Y-92134000D01*
X153670000Y-89154000D02*
X156650000Y-92134000D01*
X153670000Y-88900000D02*
X153670000Y-89154000D01*
X149352000Y-84582000D02*
X153670000Y-88900000D01*
X145669000Y-84582000D02*
X149352000Y-84582000D01*
X144907000Y-83820000D02*
X145669000Y-84582000D01*
X119380000Y-82550000D02*
X121412000Y-82550000D01*
X127650000Y-81803000D02*
X127650000Y-82855500D01*
X127000000Y-81153000D02*
X127650000Y-81803000D01*
X122809000Y-81153000D02*
X127000000Y-81153000D01*
X121412000Y-82550000D02*
X122809000Y-81153000D01*
X119380000Y-85090000D02*
X121539000Y-85090000D01*
X122098500Y-84530500D02*
X126350000Y-84530500D01*
X121539000Y-85090000D02*
X122098500Y-84530500D01*
X119380000Y-87630000D02*
X123571000Y-87630000D01*
X127650000Y-87010000D02*
X127650000Y-87808500D01*
X127254000Y-86614000D02*
X127650000Y-87010000D01*
X124587000Y-86614000D02*
X127254000Y-86614000D01*
X123571000Y-87630000D02*
X124587000Y-86614000D01*
X119380000Y-90170000D02*
X124079000Y-90170000D01*
X124765500Y-89483500D02*
X126350000Y-89483500D01*
X124079000Y-90170000D02*
X124765500Y-89483500D01*
X119380000Y-92710000D02*
X123063000Y-92710000D01*
X127523000Y-92344000D02*
X127523000Y-93142500D01*
X127127000Y-91948000D02*
X127523000Y-92344000D01*
X123825000Y-91948000D02*
X127127000Y-91948000D01*
X123063000Y-92710000D02*
X123825000Y-91948000D01*
X119380000Y-95250000D02*
X123952000Y-95250000D01*
X124384500Y-94817500D02*
X126223000Y-94817500D01*
X123952000Y-95250000D02*
X124384500Y-94817500D01*
X132000000Y-82550000D02*
X129667000Y-82550000D01*
X127000000Y-83439000D02*
X127000000Y-82855500D01*
X127254000Y-83693000D02*
X127000000Y-83439000D01*
X128524000Y-83693000D02*
X127254000Y-83693000D01*
X129667000Y-82550000D02*
X128524000Y-83693000D01*
X132000000Y-85090000D02*
X130556000Y-85090000D01*
X127000000Y-85471000D02*
X127000000Y-84530500D01*
X127127000Y-85598000D02*
X127000000Y-85471000D01*
X130048000Y-85598000D02*
X127127000Y-85598000D01*
X130556000Y-85090000D02*
X130048000Y-85598000D01*
X132000000Y-87630000D02*
X129794000Y-87630000D01*
X127000000Y-88265000D02*
X127000000Y-87808500D01*
X127381000Y-88646000D02*
X127000000Y-88265000D01*
X128778000Y-88646000D02*
X127381000Y-88646000D01*
X129794000Y-87630000D02*
X128778000Y-88646000D01*
X132000000Y-90170000D02*
X130302000Y-90170000D01*
X127000000Y-90424000D02*
X127000000Y-89483500D01*
X127254000Y-90678000D02*
X127000000Y-90424000D01*
X129794000Y-90678000D02*
X127254000Y-90678000D01*
X130302000Y-90170000D02*
X129794000Y-90678000D01*
X126873000Y-93142500D02*
X126873000Y-93726000D01*
X131572000Y-94615000D02*
X136191000Y-94615000D01*
X130937000Y-93980000D02*
X131572000Y-94615000D01*
X127127000Y-93980000D02*
X130937000Y-93980000D01*
X126873000Y-93726000D02*
X127127000Y-93980000D01*
X133223000Y-95965000D02*
X127174000Y-95965000D01*
X126873000Y-95664000D02*
X126873000Y-94817500D01*
X127174000Y-95965000D02*
X126873000Y-95664000D01*
X134700000Y-82550000D02*
X136144000Y-82550000D01*
X146177000Y-87757000D02*
X146177000Y-89152000D01*
X144272000Y-85852000D02*
X146177000Y-87757000D01*
X137541000Y-85852000D02*
X144272000Y-85852000D01*
X136906000Y-85217000D02*
X137541000Y-85852000D01*
X136906000Y-83312000D02*
X136906000Y-85217000D01*
X136144000Y-82550000D02*
X136906000Y-83312000D01*
X134700000Y-82550000D02*
X134700000Y-82757000D01*
X134700000Y-82550000D02*
X135128000Y-82550000D01*
X134700000Y-85090000D02*
X135128000Y-85090000D01*
X135128000Y-85090000D02*
X136398000Y-86360000D01*
X144907000Y-87630000D02*
X144907000Y-89152000D01*
X143637000Y-86360000D02*
X144907000Y-87630000D01*
X136398000Y-86360000D02*
X143637000Y-86360000D01*
X134700000Y-87630000D02*
X137287000Y-87630000D01*
X143637000Y-87884000D02*
X143637000Y-89152000D01*
X142621000Y-86868000D02*
X143637000Y-87884000D01*
X138049000Y-86868000D02*
X142621000Y-86868000D01*
X137287000Y-87630000D02*
X138049000Y-86868000D01*
X134700000Y-90170000D02*
X136398000Y-90170000D01*
X142367000Y-87884000D02*
X142367000Y-89152000D01*
X141859000Y-87376000D02*
X142367000Y-87884000D01*
X138176000Y-87376000D02*
X141859000Y-87376000D01*
X137668000Y-87884000D02*
X138176000Y-87376000D01*
X137668000Y-88900000D02*
X137668000Y-87884000D01*
X136398000Y-90170000D02*
X137668000Y-88900000D01*
X138891000Y-94615000D02*
X139446000Y-94615000D01*
X139446000Y-94615000D02*
X141097000Y-92964000D01*
X141097000Y-92964000D02*
X141097000Y-89152000D01*
X133223000Y-93265000D02*
X138764000Y-93265000D01*
X139827000Y-92202000D02*
X139827000Y-89152000D01*
X138764000Y-93265000D02*
X139827000Y-92202000D01*
X177038000Y-82679000D02*
X177038000Y-80899000D01*
X187071000Y-84201000D02*
X188007000Y-84201000D01*
X185801000Y-82931000D02*
X187071000Y-84201000D01*
X185801000Y-80264000D02*
X185801000Y-82931000D01*
X185089804Y-79552804D02*
X185801000Y-80264000D01*
X178384196Y-79552804D02*
X185089804Y-79552804D01*
X177038000Y-80899000D02*
X178384196Y-79552804D01*
X188007000Y-84201000D02*
X187579000Y-84201000D01*
X178308000Y-82679000D02*
X178308000Y-81153000D01*
X186817000Y-85725000D02*
X193595000Y-85725000D01*
X185166000Y-84074000D02*
X186817000Y-85725000D01*
X185166000Y-80518000D02*
X185166000Y-84074000D01*
X184658000Y-80010000D02*
X185166000Y-80518000D01*
X179451000Y-80010000D02*
X184658000Y-80010000D01*
X178308000Y-81153000D02*
X179451000Y-80010000D01*
X179578000Y-82679000D02*
X179578000Y-81661000D01*
X186309000Y-87757000D02*
X187880000Y-87757000D01*
X184658000Y-86106000D02*
X186309000Y-87757000D01*
X184658000Y-80899000D02*
X184658000Y-86106000D01*
X184175402Y-80416402D02*
X184658000Y-80899000D01*
X180822598Y-80416402D02*
X184175402Y-80416402D01*
X179578000Y-81661000D02*
X180822598Y-80416402D01*
X187880000Y-87757000D02*
X187880000Y-87169000D01*
X180848000Y-82679000D02*
X180848000Y-81661000D01*
X186436000Y-90170000D02*
X187880000Y-90170000D01*
X183642000Y-87376000D02*
X186436000Y-90170000D01*
X183642000Y-81661000D02*
X183642000Y-87376000D01*
X183286402Y-81305402D02*
X183642000Y-81661000D01*
X181203598Y-81305402D02*
X183286402Y-81305402D01*
X180848000Y-81661000D02*
X181203598Y-81305402D01*
X187880000Y-90170000D02*
X187579000Y-90170000D01*
X182118000Y-82679000D02*
X182118000Y-83312000D01*
X182118000Y-83312000D02*
X183134000Y-84328000D01*
X184705000Y-89201000D02*
X184705000Y-93345000D01*
X183134000Y-87630000D02*
X184705000Y-89201000D01*
X183134000Y-84328000D02*
X183134000Y-87630000D01*
X182372000Y-82550000D02*
X182118000Y-82679000D01*
X187753000Y-80772000D02*
X187753000Y-80311000D01*
X187753000Y-80311000D02*
X186182000Y-78740000D01*
X186182000Y-78740000D02*
X176149000Y-78740000D01*
X176149000Y-78740000D02*
X174498000Y-80391000D01*
X174498000Y-80391000D02*
X174498000Y-82679000D01*
X175768000Y-82679000D02*
X175768000Y-80797402D01*
X193468000Y-81614000D02*
X193468000Y-80772000D01*
X192532000Y-82550000D02*
X193468000Y-81614000D01*
X187198000Y-82550000D02*
X192532000Y-82550000D01*
X186436000Y-81788000D02*
X187198000Y-82550000D01*
X186436000Y-80010000D02*
X186436000Y-81788000D01*
X185572402Y-79146402D02*
X186436000Y-80010000D01*
X177419000Y-79146402D02*
X185572402Y-79146402D01*
X175768000Y-80797402D02*
X177419000Y-79146402D01*
X193468000Y-80772000D02*
X193468000Y-80852000D01*
X190707000Y-84201000D02*
X198882000Y-84201000D01*
X199771000Y-85090000D02*
X201930000Y-85090000D01*
X198882000Y-84201000D02*
X199771000Y-85090000D01*
X196295000Y-85725000D02*
X197612000Y-85725000D01*
X199517000Y-87630000D02*
X201930000Y-87630000D01*
X197612000Y-85725000D02*
X199517000Y-87630000D01*
X190580000Y-87757000D02*
X194691000Y-87757000D01*
X197104000Y-90170000D02*
X201930000Y-90170000D01*
X194691000Y-87757000D02*
X197104000Y-90170000D01*
X190580000Y-90170000D02*
X195961000Y-90170000D01*
X198501000Y-92710000D02*
X201930000Y-92710000D01*
X195961000Y-90170000D02*
X198501000Y-92710000D01*
X187405000Y-93345000D02*
X188849000Y-93345000D01*
X190754000Y-95250000D02*
X201930000Y-95250000D01*
X188849000Y-93345000D02*
X190754000Y-95250000D01*
X190453000Y-80772000D02*
X190453000Y-80184000D01*
X190453000Y-80184000D02*
X192024000Y-78613000D01*
X192024000Y-78613000D02*
X200533000Y-78613000D01*
X200533000Y-78613000D02*
X201930000Y-80010000D01*
X196168000Y-80772000D02*
X197231000Y-80772000D01*
X199009000Y-82550000D02*
X201930000Y-82550000D01*
X197231000Y-80772000D02*
X199009000Y-82550000D01*
X154083000Y-85884000D02*
X156786000Y-85884000D01*
X154051000Y-85852000D02*
X154083000Y-85884000D01*
G36*
X205461400Y-97511400D02*
X117118600Y-97511400D01*
X117118600Y-97078800D01*
X150344612Y-97078800D01*
X150391388Y-97078800D01*
X150848235Y-96987927D01*
X151235532Y-96729144D01*
X151494315Y-96341847D01*
X151549821Y-96062802D01*
X151618449Y-96062802D01*
X151516663Y-96285382D01*
X151641052Y-96585719D01*
X152005646Y-97017220D01*
X152507615Y-97276351D01*
X152730200Y-97175805D01*
X152730200Y-96062800D01*
X153085800Y-96062800D01*
X152730200Y-96062800D01*
X152730200Y-96062800D01*
X153085800Y-96062800D01*
X153085800Y-97175805D01*
X153308385Y-97276351D01*
X153810354Y-97017220D01*
X153999184Y-96793737D01*
X179939618Y-96793737D01*
X180162200Y-96691950D01*
X180162200Y-95427800D01*
X180517800Y-95427800D01*
X180162200Y-95427800D01*
X180162200Y-95427800D01*
X180517800Y-95427800D01*
X180517800Y-96691950D01*
X180740382Y-96793737D01*
X181169530Y-96587363D01*
X181559852Y-96179716D01*
X181764462Y-95653729D01*
X181700459Y-95537368D01*
X190466632Y-95537368D01*
X190598477Y-95625465D01*
X190754000Y-95656400D01*
X200638264Y-95656400D01*
X200648299Y-95706847D01*
X200907082Y-96094144D01*
X201294379Y-96352927D01*
X201751226Y-96443800D01*
X202108774Y-96443800D01*
X202565621Y-96352927D01*
X202952918Y-96094144D01*
X203211701Y-95706847D01*
X203302574Y-95250000D01*
X203211701Y-94793153D01*
X202952918Y-94405856D01*
X202565621Y-94147073D01*
X202108774Y-94056200D01*
X201751226Y-94056200D01*
X201294379Y-94147073D01*
X200907082Y-94405856D01*
X200648299Y-94793153D01*
X200638264Y-94843600D01*
X190922336Y-94843600D01*
X189136368Y-93057632D01*
X189066953Y-93011250D01*
X189004523Y-92969535D01*
X188849000Y-92938600D01*
X188491669Y-92938600D01*
X188491669Y-92695000D01*
X188467241Y-92569096D01*
X188394550Y-92458438D01*
X188284813Y-92384364D01*
X188155000Y-92358331D01*
X186655000Y-92358331D01*
X185455000Y-92358331D01*
X185455000Y-92358331D01*
X185111400Y-92358331D01*
X185111400Y-89420136D01*
X186148632Y-90457368D01*
X186280477Y-90545465D01*
X186436000Y-90576400D01*
X186793331Y-90576400D01*
X186793331Y-90820000D01*
X186817759Y-90945904D01*
X186890450Y-91056562D01*
X187000187Y-91130636D01*
X187130000Y-91156669D01*
X188630000Y-91156669D01*
X188755904Y-91132241D01*
X188866562Y-91059550D01*
X188940636Y-90949813D01*
X188966669Y-90820000D01*
X188966669Y-89520000D01*
X188942241Y-89394096D01*
X188869550Y-89283438D01*
X188759813Y-89209364D01*
X188630000Y-89183331D01*
X187130000Y-89183331D01*
X187004096Y-89207759D01*
X186893438Y-89280450D01*
X186819364Y-89390187D01*
X186793331Y-89520000D01*
X186793331Y-89763600D01*
X186604336Y-89763600D01*
X184048400Y-87207664D01*
X184048400Y-81661000D01*
X184040680Y-81622187D01*
X184017466Y-81505478D01*
X183929369Y-81373632D01*
X183573770Y-81018034D01*
X183543006Y-80997478D01*
X183441925Y-80929937D01*
X183286402Y-80899002D01*
X181203598Y-80899002D01*
X181048076Y-80929936D01*
X180916230Y-81018033D01*
X180560632Y-81373632D01*
X180472535Y-81505477D01*
X180461881Y-81559040D01*
X180422096Y-81566759D01*
X180311438Y-81639450D01*
X180237364Y-81749187D01*
X180213028Y-81870540D01*
X180190241Y-81753096D01*
X180138859Y-81674877D01*
X180990934Y-80822802D01*
X184007066Y-80822802D01*
X184251600Y-81067336D01*
X184251600Y-86106000D01*
X184282535Y-86261523D01*
X184313948Y-86308535D01*
X184370632Y-86393368D01*
X186021632Y-88044368D01*
X186153478Y-88132466D01*
X186309000Y-88163400D01*
X186793331Y-88163400D01*
X186793331Y-88407000D01*
X186817759Y-88532904D01*
X186890450Y-88643562D01*
X187000187Y-88717636D01*
X187130000Y-88743669D01*
X188630000Y-88743669D01*
X188755904Y-88719241D01*
X188866562Y-88646550D01*
X188940636Y-88536813D01*
X188966669Y-88407000D01*
X188966669Y-87107000D01*
X188942241Y-86981096D01*
X188869550Y-86870438D01*
X188759813Y-86796364D01*
X188630000Y-86770331D01*
X189830000Y-86770331D01*
X189704096Y-86794759D01*
X189593438Y-86867450D01*
X189519364Y-86977187D01*
X189493331Y-87107000D01*
X189493331Y-88407000D01*
X189517759Y-88532904D01*
X189590450Y-88643562D01*
X189700187Y-88717636D01*
X189830000Y-88743669D01*
X191330000Y-88743669D01*
X191455904Y-88719241D01*
X191566562Y-88646550D01*
X191640636Y-88536813D01*
X191666669Y-88407000D01*
X191666669Y-88163400D01*
X194522664Y-88163400D01*
X196228863Y-89869599D01*
X196116523Y-89794535D01*
X195961000Y-89763600D01*
X191666669Y-89763600D01*
X191666669Y-89520000D01*
X191642241Y-89394096D01*
X191569550Y-89283438D01*
X191459813Y-89209364D01*
X191330000Y-89183331D01*
X189830000Y-89183331D01*
X189704096Y-89207759D01*
X189593438Y-89280450D01*
X189519364Y-89390187D01*
X189493331Y-89520000D01*
X189493331Y-90820000D01*
X189517759Y-90945904D01*
X189590450Y-91056562D01*
X189700187Y-91130636D01*
X189830000Y-91156669D01*
X191330000Y-91156669D01*
X191455904Y-91132241D01*
X191566562Y-91059550D01*
X191640636Y-90949813D01*
X191666669Y-90820000D01*
X191666669Y-90576400D01*
X195792664Y-90576400D01*
X198213631Y-92997368D01*
X198313073Y-93063813D01*
X198345477Y-93085465D01*
X198501000Y-93116400D01*
X200638264Y-93116400D01*
X200648299Y-93166847D01*
X200907082Y-93554144D01*
X201294379Y-93812927D01*
X201751226Y-93903800D01*
X202108774Y-93903800D01*
X202565621Y-93812927D01*
X202952918Y-93554144D01*
X203211701Y-93166847D01*
X203302574Y-92710000D01*
X203211701Y-92253153D01*
X202952918Y-91865856D01*
X202565621Y-91607073D01*
X202108774Y-91516200D01*
X201751226Y-91516200D01*
X201294379Y-91607073D01*
X200907082Y-91865856D01*
X200648299Y-92253153D01*
X200638264Y-92303600D01*
X198669337Y-92303600D01*
X196836138Y-90470401D01*
X196948477Y-90545465D01*
X197104000Y-90576400D01*
X200638264Y-90576400D01*
X200648299Y-90626847D01*
X200907082Y-91014144D01*
X201294379Y-91272927D01*
X201751226Y-91363800D01*
X202108774Y-91363800D01*
X202565621Y-91272927D01*
X202952918Y-91014144D01*
X203211701Y-90626847D01*
X203302574Y-90170000D01*
X203211701Y-89713153D01*
X202952918Y-89325856D01*
X202565621Y-89067073D01*
X202108774Y-88976200D01*
X201751226Y-88976200D01*
X201294379Y-89067073D01*
X200907082Y-89325856D01*
X200648299Y-89713153D01*
X200638264Y-89763600D01*
X197272336Y-89763600D01*
X194978368Y-87469632D01*
X194923597Y-87433035D01*
X194846523Y-87381535D01*
X194691000Y-87350600D01*
X191666669Y-87350600D01*
X191666669Y-87107000D01*
X191642241Y-86981096D01*
X191569550Y-86870438D01*
X191459813Y-86796364D01*
X191330000Y-86770331D01*
X189830000Y-86770331D01*
X188630000Y-86770331D01*
X188630000Y-86770331D01*
X187918867Y-86770331D01*
X187880000Y-86762600D01*
X187841133Y-86770331D01*
X187130000Y-86770331D01*
X187004096Y-86794759D01*
X186893438Y-86867450D01*
X186819364Y-86977187D01*
X186793331Y-87107000D01*
X186793331Y-87350600D01*
X186477336Y-87350600D01*
X185064400Y-85937664D01*
X185064400Y-84547136D01*
X186529632Y-86012368D01*
X186661478Y-86100466D01*
X186817000Y-86131400D01*
X192508331Y-86131400D01*
X192508331Y-86375000D01*
X192532759Y-86500904D01*
X192605450Y-86611562D01*
X192715187Y-86685636D01*
X192845000Y-86711669D01*
X194345000Y-86711669D01*
X194470904Y-86687241D01*
X194581562Y-86614550D01*
X194655636Y-86504813D01*
X194681669Y-86375000D01*
X194681669Y-85075000D01*
X194657241Y-84949096D01*
X194584550Y-84838438D01*
X194474813Y-84764364D01*
X194345000Y-84738331D01*
X195545000Y-84738331D01*
X195419096Y-84762759D01*
X195308438Y-84835450D01*
X195234364Y-84945187D01*
X195208331Y-85075000D01*
X195208331Y-86375000D01*
X195232759Y-86500904D01*
X195305450Y-86611562D01*
X195415187Y-86685636D01*
X195545000Y-86711669D01*
X197045000Y-86711669D01*
X197170904Y-86687241D01*
X197281562Y-86614550D01*
X197355636Y-86504813D01*
X197381669Y-86375000D01*
X197381669Y-86131400D01*
X197443664Y-86131400D01*
X199229632Y-87917368D01*
X199361477Y-88005465D01*
X199517000Y-88036400D01*
X200638264Y-88036400D01*
X200648299Y-88086847D01*
X200907082Y-88474144D01*
X201294379Y-88732927D01*
X201751226Y-88823800D01*
X202108774Y-88823800D01*
X202565621Y-88732927D01*
X202952918Y-88474144D01*
X203211701Y-88086847D01*
X203302574Y-87630000D01*
X203211701Y-87173153D01*
X202952918Y-86785856D01*
X202565621Y-86527073D01*
X202108774Y-86436200D01*
X201751226Y-86436200D01*
X201294379Y-86527073D01*
X200907082Y-86785856D01*
X200648299Y-87173153D01*
X200638264Y-87223600D01*
X199685336Y-87223600D01*
X197899368Y-85437632D01*
X197767523Y-85349535D01*
X197612000Y-85318600D01*
X197381669Y-85318600D01*
X197381669Y-85075000D01*
X197357241Y-84949096D01*
X197284550Y-84838438D01*
X197174813Y-84764364D01*
X197045000Y-84738331D01*
X195545000Y-84738331D01*
X194345000Y-84738331D01*
X194345000Y-84738331D01*
X192845000Y-84738331D01*
X192719096Y-84762759D01*
X192608438Y-84835450D01*
X192534364Y-84945187D01*
X192508331Y-85075000D01*
X192508331Y-85318600D01*
X186985336Y-85318600D01*
X185572400Y-83905664D01*
X185572400Y-83277136D01*
X186783632Y-84488368D01*
X186915477Y-84576465D01*
X186920331Y-84577431D01*
X186920331Y-84851000D01*
X186944759Y-84976904D01*
X187017450Y-85087562D01*
X187127187Y-85161636D01*
X187257000Y-85187669D01*
X188757000Y-85187669D01*
X188882904Y-85163241D01*
X188993562Y-85090550D01*
X189067636Y-84980813D01*
X189093669Y-84851000D01*
X189093669Y-83551000D01*
X189069241Y-83425096D01*
X188996550Y-83314438D01*
X188886813Y-83240364D01*
X188757000Y-83214331D01*
X189957000Y-83214331D01*
X189831096Y-83238759D01*
X189720438Y-83311450D01*
X189646364Y-83421187D01*
X189620331Y-83551000D01*
X189620331Y-84851000D01*
X189644759Y-84976904D01*
X189717450Y-85087562D01*
X189827187Y-85161636D01*
X189957000Y-85187669D01*
X191457000Y-85187669D01*
X191582904Y-85163241D01*
X191693562Y-85090550D01*
X191767636Y-84980813D01*
X191793669Y-84851000D01*
X191793669Y-84607400D01*
X198713664Y-84607400D01*
X199483632Y-85377368D01*
X199615477Y-85465465D01*
X199771000Y-85496400D01*
X200638264Y-85496400D01*
X200648299Y-85546847D01*
X200907082Y-85934144D01*
X201294379Y-86192927D01*
X201751226Y-86283800D01*
X202108774Y-86283800D01*
X202565621Y-86192927D01*
X202952918Y-85934144D01*
X203211701Y-85546847D01*
X203302574Y-85090000D01*
X203211701Y-84633153D01*
X202952918Y-84245856D01*
X202565621Y-83987073D01*
X202108774Y-83896200D01*
X201751226Y-83896200D01*
X201294379Y-83987073D01*
X200907082Y-84245856D01*
X200648299Y-84633153D01*
X200638264Y-84683600D01*
X199939336Y-84683600D01*
X199169368Y-83913632D01*
X199126742Y-83885150D01*
X199037523Y-83825535D01*
X198882000Y-83794600D01*
X191793669Y-83794600D01*
X191793669Y-83551000D01*
X191769241Y-83425096D01*
X191696550Y-83314438D01*
X191586813Y-83240364D01*
X191457000Y-83214331D01*
X189957000Y-83214331D01*
X188757000Y-83214331D01*
X188757000Y-83214331D01*
X187257000Y-83214331D01*
X187131096Y-83238759D01*
X187020438Y-83311450D01*
X186946364Y-83421187D01*
X186932927Y-83488191D01*
X186207400Y-82762664D01*
X186207400Y-82134136D01*
X186910632Y-82837368D01*
X187042477Y-82925465D01*
X187198000Y-82956400D01*
X192532000Y-82956400D01*
X192687523Y-82925465D01*
X192819368Y-82837368D01*
X193755368Y-81901368D01*
X193812060Y-81816523D01*
X193843465Y-81769523D01*
X193845624Y-81758669D01*
X194218000Y-81758669D01*
X194343904Y-81734241D01*
X194454562Y-81661550D01*
X194528636Y-81551813D01*
X194554669Y-81422000D01*
X194554669Y-80122000D01*
X194530241Y-79996096D01*
X194457550Y-79885438D01*
X194347813Y-79811364D01*
X194218000Y-79785331D01*
X195418000Y-79785331D01*
X195292096Y-79809759D01*
X195181438Y-79882450D01*
X195107364Y-79992187D01*
X195081331Y-80122000D01*
X195081331Y-81422000D01*
X195105759Y-81547904D01*
X195178450Y-81658562D01*
X195288187Y-81732636D01*
X195418000Y-81758669D01*
X196918000Y-81758669D01*
X197043904Y-81734241D01*
X197154562Y-81661550D01*
X197228636Y-81551813D01*
X197254669Y-81422000D01*
X197254669Y-81370405D01*
X198721632Y-82837368D01*
X198853477Y-82925465D01*
X199009000Y-82956400D01*
X200638264Y-82956400D01*
X200648299Y-83006847D01*
X200907082Y-83394144D01*
X201294379Y-83652927D01*
X201751226Y-83743800D01*
X202108774Y-83743800D01*
X202565621Y-83652927D01*
X202952918Y-83394144D01*
X203211701Y-83006847D01*
X203302574Y-82550000D01*
X203211701Y-82093153D01*
X202952918Y-81705856D01*
X202565621Y-81447073D01*
X202108774Y-81356200D01*
X201751226Y-81356200D01*
X201294379Y-81447073D01*
X200907082Y-81705856D01*
X200648299Y-82093153D01*
X200638264Y-82143600D01*
X199177336Y-82143600D01*
X197518368Y-80484632D01*
X197424539Y-80421937D01*
X197386523Y-80396535D01*
X197254669Y-80370308D01*
X197254669Y-80122000D01*
X197230241Y-79996096D01*
X197157550Y-79885438D01*
X197047813Y-79811364D01*
X196918000Y-79785331D01*
X195418000Y-79785331D01*
X194218000Y-79785331D01*
X194218000Y-79785331D01*
X192718000Y-79785331D01*
X192592096Y-79809759D01*
X192481438Y-79882450D01*
X192407364Y-79992187D01*
X192381331Y-80122000D01*
X192381331Y-81422000D01*
X192405759Y-81547904D01*
X192478450Y-81658562D01*
X192588187Y-81732636D01*
X192718000Y-81758669D01*
X192748595Y-81758669D01*
X192363664Y-82143600D01*
X187366336Y-82143600D01*
X186975988Y-81753252D01*
X187003000Y-81758669D01*
X188503000Y-81758669D01*
X188628904Y-81734241D01*
X188739562Y-81661550D01*
X188813636Y-81551813D01*
X188839669Y-81422000D01*
X188839669Y-80122000D01*
X188815241Y-79996096D01*
X188742550Y-79885438D01*
X188632813Y-79811364D01*
X188503000Y-79785331D01*
X187802068Y-79785331D01*
X186469368Y-78452632D01*
X186337523Y-78364535D01*
X186182000Y-78333600D01*
X176149000Y-78333600D01*
X175993478Y-78364534D01*
X175861632Y-78452632D01*
X174210632Y-80103632D01*
X174122535Y-80235477D01*
X174091600Y-80391000D01*
X174091600Y-81562975D01*
X174072096Y-81566759D01*
X173961438Y-81639450D01*
X173887364Y-81749187D01*
X173863028Y-81870540D01*
X173840241Y-81753096D01*
X173767550Y-81642438D01*
X173657813Y-81568364D01*
X173634400Y-81563669D01*
X173634400Y-81317387D01*
X173798294Y-81153778D01*
X173900983Y-80906475D01*
X173901217Y-80638699D01*
X173798959Y-80391217D01*
X173609778Y-80201706D01*
X173362475Y-80099017D01*
X173094699Y-80098783D01*
X172847217Y-80201041D01*
X172657706Y-80390222D01*
X172555017Y-80637525D01*
X172554783Y-80905301D01*
X172657041Y-81152783D01*
X172821600Y-81317629D01*
X172821600Y-81562975D01*
X172802096Y-81566759D01*
X172691438Y-81639450D01*
X172617364Y-81749187D01*
X172591331Y-81879000D01*
X172591331Y-83479000D01*
X172615759Y-83604904D01*
X172688450Y-83715562D01*
X172798187Y-83789636D01*
X172928000Y-83815669D01*
X173528000Y-83815669D01*
X173653904Y-83791241D01*
X173764562Y-83718550D01*
X173838636Y-83608813D01*
X173862972Y-83487460D01*
X173885759Y-83604904D01*
X173958450Y-83715562D01*
X174068187Y-83789636D01*
X174198000Y-83815669D01*
X174798000Y-83815669D01*
X174923904Y-83791241D01*
X175034562Y-83718550D01*
X175108636Y-83608813D01*
X175132972Y-83487460D01*
X175155759Y-83604904D01*
X175228450Y-83715562D01*
X175338187Y-83789636D01*
X175468000Y-83815669D01*
X176068000Y-83815669D01*
X176193904Y-83791241D01*
X176304562Y-83718550D01*
X176378636Y-83608813D01*
X176402972Y-83487460D01*
X176425759Y-83604904D01*
X176498450Y-83715562D01*
X176608187Y-83789636D01*
X176738000Y-83815669D01*
X177338000Y-83815669D01*
X177463904Y-83791241D01*
X177574562Y-83718550D01*
X177648636Y-83608813D01*
X177672972Y-83487460D01*
X177695759Y-83604904D01*
X177768450Y-83715562D01*
X177878187Y-83789636D01*
X178008000Y-83815669D01*
X178608000Y-83815669D01*
X178733904Y-83791241D01*
X178844562Y-83718550D01*
X178918636Y-83608813D01*
X178942972Y-83487460D01*
X178965759Y-83604904D01*
X179038450Y-83715562D01*
X179148187Y-83789636D01*
X179278000Y-83815669D01*
X179878000Y-83815669D01*
X180003904Y-83791241D01*
X180114562Y-83718550D01*
X180188636Y-83608813D01*
X180212972Y-83487460D01*
X180235759Y-83604904D01*
X180308450Y-83715562D01*
X180418187Y-83789636D01*
X180548000Y-83815669D01*
X181148000Y-83815669D01*
X181273904Y-83791241D01*
X181384562Y-83718550D01*
X181458636Y-83608813D01*
X181482972Y-83487460D01*
X181505759Y-83604904D01*
X181578450Y-83715562D01*
X181688187Y-83789636D01*
X181818000Y-83815669D01*
X182046933Y-83815669D01*
X182727600Y-84496336D01*
X182727600Y-87630000D01*
X182758535Y-87785523D01*
X182828612Y-87890400D01*
X182846632Y-87917368D01*
X184298600Y-89369337D01*
X184298600Y-92358331D01*
X183955000Y-92358331D01*
X183829096Y-92382759D01*
X183718438Y-92455450D01*
X183644364Y-92565187D01*
X183618331Y-92695000D01*
X183618331Y-93995000D01*
X183642759Y-94120904D01*
X183715450Y-94231562D01*
X183825187Y-94305636D01*
X183955000Y-94331669D01*
X185455000Y-94331669D01*
X185580904Y-94307241D01*
X185691562Y-94234550D01*
X185765636Y-94124813D01*
X185791669Y-93995000D01*
X185791669Y-92695000D01*
X185767241Y-92569096D01*
X185694550Y-92458438D01*
X185584813Y-92384364D01*
X185455000Y-92358331D01*
X186655000Y-92358331D01*
X185455000Y-92358331D01*
X185455000Y-92358331D01*
X186655000Y-92358331D01*
X186529096Y-92382759D01*
X186418438Y-92455450D01*
X186344364Y-92565187D01*
X186318331Y-92695000D01*
X186318331Y-93995000D01*
X186342759Y-94120904D01*
X186415450Y-94231562D01*
X186525187Y-94305636D01*
X186655000Y-94331669D01*
X188155000Y-94331669D01*
X188280904Y-94307241D01*
X188391562Y-94234550D01*
X188465636Y-94124813D01*
X188491669Y-93995000D01*
X188491669Y-93751400D01*
X188680664Y-93751400D01*
X190466632Y-95537368D01*
X181700459Y-95537368D01*
X181640191Y-95427800D01*
X180517800Y-95427800D01*
X180162200Y-95427800D01*
X180162200Y-95427800D01*
X180142200Y-95427800D01*
X180142200Y-95072200D01*
X180162200Y-95072200D01*
X180162200Y-93808050D01*
X180517800Y-93808050D01*
X180517800Y-95072200D01*
X181640191Y-95072200D01*
X181764462Y-94846271D01*
X181559852Y-94320284D01*
X181169530Y-93912637D01*
X180740382Y-93706263D01*
X180517800Y-93808050D01*
X180162200Y-93808050D01*
X180162200Y-93808050D01*
X179939618Y-93706263D01*
X179510470Y-93912637D01*
X179120148Y-94320284D01*
X178937714Y-94789264D01*
X178902927Y-94614379D01*
X178644144Y-94227082D01*
X178256847Y-93968299D01*
X177800000Y-93877426D01*
X175260000Y-93877426D01*
X175260000Y-93877426D01*
X174803153Y-93968299D01*
X174415856Y-94227082D01*
X174157073Y-94614379D01*
X174066200Y-95071226D01*
X174066200Y-95428774D01*
X174157073Y-95885621D01*
X174415856Y-96272918D01*
X174803153Y-96531701D01*
X175260000Y-96622574D01*
X175716847Y-96531701D01*
X176104144Y-96272918D01*
X176362927Y-95885621D01*
X176453800Y-95428774D01*
X176453800Y-95071226D01*
X176362927Y-94614379D01*
X176104144Y-94227082D01*
X175716847Y-93968299D01*
X175260000Y-93877426D01*
X177800000Y-93877426D01*
X175260000Y-93877426D01*
X175260000Y-93877426D01*
X177800000Y-93877426D01*
X177343153Y-93968299D01*
X176955856Y-94227082D01*
X176697073Y-94614379D01*
X176606200Y-95071226D01*
X176606200Y-95428774D01*
X176697073Y-95885621D01*
X176955856Y-96272918D01*
X177343153Y-96531701D01*
X177800000Y-96622574D01*
X178256847Y-96531701D01*
X178644144Y-96272918D01*
X178902927Y-95885621D01*
X178937714Y-95710736D01*
X179120148Y-96179716D01*
X179510470Y-96587363D01*
X179939618Y-96793737D01*
X153999184Y-96793737D01*
X154143807Y-96622574D01*
X172720000Y-96622574D01*
X173176847Y-96531701D01*
X173564144Y-96272918D01*
X173822927Y-95885621D01*
X173913800Y-95428774D01*
X173913800Y-95071226D01*
X173822927Y-94614379D01*
X173564144Y-94227082D01*
X173176847Y-93968299D01*
X172720000Y-93877426D01*
X172263153Y-93968299D01*
X171239982Y-93968299D01*
X171173413Y-93923364D01*
X171043600Y-93897331D01*
X169316400Y-93897331D01*
X169190496Y-93921759D01*
X169079838Y-93994450D01*
X169005764Y-94104187D01*
X168979731Y-94234000D01*
X168979731Y-96266000D01*
X169004159Y-96391904D01*
X169076850Y-96502562D01*
X169186587Y-96576636D01*
X169316400Y-96602669D01*
X171043600Y-96602669D01*
X171169504Y-96578241D01*
X171280162Y-96505550D01*
X171354236Y-96395813D01*
X171380269Y-96266000D01*
X171380269Y-94234000D01*
X171355841Y-94108096D01*
X171283150Y-93997438D01*
X171239982Y-93968299D01*
X172263153Y-93968299D01*
X171239982Y-93968299D01*
X171239982Y-93968299D01*
X172263153Y-93968299D01*
X171875856Y-94227082D01*
X171617073Y-94614379D01*
X171526200Y-95071226D01*
X171526200Y-95428774D01*
X171617073Y-95885621D01*
X171875856Y-96272918D01*
X172263153Y-96531701D01*
X172720000Y-96622574D01*
X154143807Y-96622574D01*
X154174948Y-96585719D01*
X154299337Y-96285382D01*
X154197550Y-96062800D01*
X153085800Y-96062800D01*
X152730200Y-96062800D01*
X152730200Y-96062800D01*
X152710200Y-96062800D01*
X152710200Y-95707200D01*
X152730200Y-95707200D01*
X152730200Y-95687200D01*
X153085800Y-95687200D01*
X153085800Y-95707200D01*
X154197550Y-95707200D01*
X154299337Y-95484618D01*
X154174948Y-95184281D01*
X154037323Y-95021400D01*
X164385000Y-95021400D01*
X164540523Y-94990465D01*
X164672368Y-94902368D01*
X167148067Y-92426669D01*
X168310000Y-92426669D01*
X168435904Y-92402241D01*
X168546562Y-92329550D01*
X168620636Y-92219813D01*
X168646669Y-92090000D01*
X168646669Y-90790000D01*
X168622241Y-90664096D01*
X168549550Y-90553438D01*
X168439813Y-90479364D01*
X168310000Y-90453331D01*
X166810000Y-90453331D01*
X166684096Y-90477759D01*
X166573438Y-90550450D01*
X166499364Y-90660187D01*
X166473331Y-90790000D01*
X166473331Y-91033600D01*
X166407709Y-91033600D01*
X166422669Y-90959000D01*
X166422669Y-90409000D01*
X166399658Y-90290400D01*
X171376664Y-90290400D01*
X171551600Y-90465336D01*
X171551600Y-90932000D01*
X171582535Y-91087523D01*
X171654725Y-91195562D01*
X171670632Y-91219368D01*
X172244795Y-91793531D01*
X172219475Y-91783017D01*
X171986549Y-91782813D01*
X171356368Y-91152632D01*
X171346669Y-91146151D01*
X171346669Y-90790000D01*
X171322241Y-90664096D01*
X171249550Y-90553438D01*
X171139813Y-90479364D01*
X171010000Y-90453331D01*
X169510000Y-90453331D01*
X169384096Y-90477759D01*
X169273438Y-90550450D01*
X169199364Y-90660187D01*
X169173331Y-90790000D01*
X169173331Y-92090000D01*
X169197759Y-92215904D01*
X169270450Y-92326562D01*
X169380187Y-92400636D01*
X169510000Y-92426669D01*
X171010000Y-92426669D01*
X171135904Y-92402241D01*
X171246562Y-92329550D01*
X171301873Y-92247609D01*
X171411985Y-92357721D01*
X171411783Y-92589301D01*
X171514041Y-92836783D01*
X171703222Y-93026294D01*
X171950525Y-93128983D01*
X172218301Y-93129217D01*
X172465783Y-93026959D01*
X172655294Y-92837778D01*
X172757983Y-92590475D01*
X172758217Y-92322699D01*
X172655959Y-92075217D01*
X172544736Y-91963800D01*
X172593000Y-91973400D01*
X179959000Y-91973400D01*
X180114523Y-91942465D01*
X180246368Y-91854368D01*
X181135368Y-90965368D01*
X181145762Y-90949813D01*
X181223465Y-90833523D01*
X181254400Y-90678000D01*
X181254400Y-90395025D01*
X181273904Y-90391241D01*
X181306211Y-90370019D01*
X181322739Y-90409922D01*
X181487077Y-90574261D01*
X181701795Y-90663200D01*
X181821950Y-90663200D01*
X181968000Y-90517150D01*
X181968000Y-89456800D01*
X182268000Y-89456800D01*
X182268000Y-90517150D01*
X182414050Y-90663200D01*
X182534205Y-90663200D01*
X182748923Y-90574261D01*
X182913261Y-90409922D01*
X183002200Y-90195204D01*
X183002200Y-89602850D01*
X182856150Y-89456800D01*
X182268000Y-89456800D01*
X181968000Y-89456800D01*
X181968000Y-89456800D01*
X181920200Y-89456800D01*
X181920200Y-89101200D01*
X181968000Y-89101200D01*
X181968000Y-88040850D01*
X181821950Y-87894800D01*
X182414050Y-87894800D01*
X182268000Y-88040850D01*
X182268000Y-89101200D01*
X182856150Y-89101200D01*
X183002200Y-88955150D01*
X183002200Y-88362796D01*
X182913261Y-88148078D01*
X182748923Y-87983739D01*
X182534205Y-87894800D01*
X182414050Y-87894800D01*
X181821950Y-87894800D01*
X181821950Y-87894800D01*
X181701795Y-87894800D01*
X181487077Y-87983739D01*
X181322739Y-88148078D01*
X181306356Y-88187631D01*
X181277813Y-88168364D01*
X181148000Y-88142331D01*
X180548000Y-88142331D01*
X180422096Y-88166759D01*
X180311438Y-88239450D01*
X180237364Y-88349187D01*
X180211331Y-88479000D01*
X180211331Y-88511796D01*
X180190241Y-88403096D01*
X180117550Y-88292438D01*
X180007813Y-88218364D01*
X179984400Y-88213669D01*
X179984400Y-88011000D01*
X179953465Y-87855477D01*
X179865368Y-87723632D01*
X179103368Y-86961632D01*
X179099429Y-86959000D01*
X178971523Y-86873535D01*
X178816000Y-86842600D01*
X171577000Y-86842600D01*
X171421477Y-86873535D01*
X171289632Y-86961632D01*
X171173664Y-87077600D01*
X166398885Y-87077600D01*
X166422669Y-86959000D01*
X166422669Y-86409000D01*
X166399658Y-86290400D01*
X166953000Y-86290400D01*
X167000977Y-86280857D01*
X167015000Y-86283669D01*
X168265000Y-86283669D01*
X168390904Y-86259241D01*
X168501562Y-86186550D01*
X168575636Y-86076813D01*
X168601669Y-85947000D01*
X168601669Y-85610405D01*
X168744985Y-85753721D01*
X168744783Y-85985301D01*
X168847041Y-86232783D01*
X169036222Y-86422294D01*
X169283525Y-86524983D01*
X169551301Y-86525217D01*
X169798783Y-86422959D01*
X169988294Y-86233778D01*
X170090983Y-85986475D01*
X170091217Y-85718699D01*
X169988959Y-85471217D01*
X169799778Y-85281706D01*
X169552475Y-85179017D01*
X169319549Y-85178813D01*
X169050368Y-84909632D01*
X168990109Y-84869368D01*
X168918523Y-84821535D01*
X168763000Y-84790600D01*
X168601669Y-84790600D01*
X168601669Y-84447000D01*
X168577241Y-84321096D01*
X168504550Y-84210438D01*
X168394813Y-84136364D01*
X168265000Y-84110331D01*
X167015000Y-84110331D01*
X166889096Y-84134759D01*
X166778438Y-84207450D01*
X166704364Y-84317187D01*
X166678331Y-84447000D01*
X166678331Y-85477600D01*
X166669208Y-85477600D01*
X166670200Y-85475204D01*
X166670200Y-85367550D01*
X166524150Y-85221500D01*
X165463800Y-85221500D01*
X165463800Y-85272331D01*
X165108200Y-85272331D01*
X165108200Y-85221500D01*
X164047850Y-85221500D01*
X163901800Y-85367550D01*
X163901800Y-85475204D01*
X163990739Y-85689922D01*
X164149331Y-85848515D01*
X164149331Y-86159000D01*
X164173759Y-86284904D01*
X164174110Y-86285439D01*
X164149331Y-86409000D01*
X164149331Y-86959000D01*
X164173759Y-87084904D01*
X164174110Y-87085439D01*
X164149331Y-87209000D01*
X164149331Y-87759000D01*
X164173759Y-87884904D01*
X164174110Y-87885439D01*
X164149331Y-88009000D01*
X164149331Y-88559000D01*
X164173759Y-88684904D01*
X164174110Y-88685439D01*
X164149331Y-88809000D01*
X164149331Y-89359000D01*
X164173759Y-89484904D01*
X164174110Y-89485439D01*
X164149331Y-89609000D01*
X164149331Y-90159000D01*
X164173759Y-90284904D01*
X164174110Y-90285439D01*
X164149331Y-90409000D01*
X164149331Y-90959000D01*
X164158621Y-91006881D01*
X164111000Y-90997331D01*
X163561000Y-90997331D01*
X163435096Y-91021759D01*
X163434561Y-91022110D01*
X163311000Y-90997331D01*
X162761000Y-90997331D01*
X162635096Y-91021759D01*
X162634561Y-91022110D01*
X162511000Y-90997331D01*
X161961000Y-90997331D01*
X161835096Y-91021759D01*
X161834561Y-91022110D01*
X161711000Y-90997331D01*
X161161000Y-90997331D01*
X161035096Y-91021759D01*
X161034561Y-91022110D01*
X160911000Y-90997331D01*
X160361000Y-90997331D01*
X160235096Y-91021759D01*
X160234561Y-91022110D01*
X160111000Y-90997331D01*
X159561000Y-90997331D01*
X159435096Y-91021759D01*
X159434561Y-91022110D01*
X159311000Y-90997331D01*
X158761000Y-90997331D01*
X158635096Y-91021759D01*
X158634561Y-91022110D01*
X158511000Y-90997331D01*
X157961000Y-90997331D01*
X157913119Y-91006621D01*
X157922669Y-90959000D01*
X157922669Y-90409000D01*
X157898241Y-90283096D01*
X157897890Y-90282561D01*
X157922669Y-90159000D01*
X157922669Y-89848515D01*
X158081261Y-89689922D01*
X158170200Y-89475204D01*
X158170200Y-89367550D01*
X158024150Y-89221500D01*
X156963800Y-89221500D01*
X156963800Y-89272331D01*
X156608200Y-89272331D01*
X156608200Y-89221500D01*
X156588200Y-89221500D01*
X156588200Y-88946500D01*
X156608200Y-88946500D01*
X156608200Y-88895669D01*
X156963800Y-88895669D01*
X156963800Y-88946500D01*
X158024150Y-88946500D01*
X158170200Y-88800450D01*
X158170200Y-88692796D01*
X158081261Y-88478078D01*
X157922669Y-88319485D01*
X157922669Y-88009000D01*
X157899658Y-87890400D01*
X158058646Y-87890400D01*
X158241222Y-88073294D01*
X158488525Y-88175983D01*
X158756301Y-88176217D01*
X159003783Y-88073959D01*
X159193294Y-87884778D01*
X159295983Y-87637475D01*
X159296217Y-87369699D01*
X159193959Y-87122217D01*
X159004778Y-86932706D01*
X158757475Y-86830017D01*
X158489699Y-86829783D01*
X158242217Y-86932041D01*
X158096404Y-87077600D01*
X157898885Y-87077600D01*
X157922669Y-86959000D01*
X157922669Y-86409000D01*
X157898241Y-86283096D01*
X157897890Y-86282561D01*
X157922669Y-86159000D01*
X157922669Y-85623400D01*
X158454664Y-85623400D01*
X158711985Y-85880721D01*
X158711783Y-86112301D01*
X158814041Y-86359783D01*
X159003222Y-86549294D01*
X159250525Y-86651983D01*
X159473977Y-86652178D01*
X159473783Y-86874301D01*
X159576041Y-87121783D01*
X159765222Y-87311294D01*
X160012525Y-87413983D01*
X160280301Y-87414217D01*
X160527783Y-87311959D01*
X160717294Y-87122778D01*
X160819983Y-86875475D01*
X160820217Y-86607699D01*
X160717959Y-86360217D01*
X160553400Y-86195371D01*
X160553400Y-85471000D01*
X160522465Y-85315477D01*
X160499900Y-85281706D01*
X160434368Y-85183631D01*
X160021405Y-84770669D01*
X160111000Y-84770669D01*
X160236904Y-84746241D01*
X160237439Y-84745890D01*
X160361000Y-84770669D01*
X160911000Y-84770669D01*
X161036904Y-84746241D01*
X161037439Y-84745890D01*
X161161000Y-84770669D01*
X161711000Y-84770669D01*
X161836904Y-84746241D01*
X161837439Y-84745890D01*
X161961000Y-84770669D01*
X162511000Y-84770669D01*
X162636904Y-84746241D01*
X162637439Y-84745890D01*
X162761000Y-84770669D01*
X163311000Y-84770669D01*
X163436904Y-84746241D01*
X163437439Y-84745890D01*
X163561000Y-84770669D01*
X163901800Y-84770669D01*
X163901800Y-84800450D01*
X164047850Y-84946500D01*
X165108200Y-84946500D01*
X165108200Y-84370850D01*
X164962150Y-84224800D01*
X165609850Y-84224800D01*
X165463800Y-84370850D01*
X165463800Y-84946500D01*
X166524150Y-84946500D01*
X166670200Y-84800450D01*
X166670200Y-84692796D01*
X166581261Y-84478078D01*
X166416923Y-84313739D01*
X166202205Y-84224800D01*
X165609850Y-84224800D01*
X164962150Y-84224800D01*
X164962150Y-84224800D01*
X164447669Y-84224800D01*
X164447669Y-82874800D01*
X166576850Y-82874800D01*
X166430800Y-83020850D01*
X166430800Y-83563205D01*
X166519739Y-83777923D01*
X166684078Y-83942261D01*
X166898796Y-84031200D01*
X167316150Y-84031200D01*
X167462200Y-83885150D01*
X167462200Y-82874800D01*
X167817800Y-82874800D01*
X167817800Y-83885150D01*
X167963850Y-84031200D01*
X168381204Y-84031200D01*
X168595922Y-83942261D01*
X168760261Y-83777923D01*
X168849200Y-83563205D01*
X168849200Y-83020850D01*
X168703150Y-82874800D01*
X167817800Y-82874800D01*
X167462200Y-82874800D01*
X167462200Y-82874800D01*
X166576850Y-82874800D01*
X164447669Y-82874800D01*
X164447669Y-82834000D01*
X164423241Y-82708096D01*
X164350550Y-82597438D01*
X164240813Y-82523364D01*
X164111000Y-82497331D01*
X163561000Y-82497331D01*
X163435096Y-82521759D01*
X163434561Y-82522110D01*
X163311000Y-82497331D01*
X162761000Y-82497331D01*
X162635096Y-82521759D01*
X162634561Y-82522110D01*
X162511000Y-82497331D01*
X161961000Y-82497331D01*
X161835096Y-82521759D01*
X161834561Y-82522110D01*
X161711000Y-82497331D01*
X161161000Y-82497331D01*
X161035096Y-82521759D01*
X161034561Y-82522110D01*
X160911000Y-82497331D01*
X160361000Y-82497331D01*
X160235096Y-82521759D01*
X160234561Y-82522110D01*
X160111000Y-82497331D01*
X159561000Y-82497331D01*
X159435096Y-82521759D01*
X159434561Y-82522110D01*
X159311000Y-82497331D01*
X158761000Y-82497331D01*
X158635096Y-82521759D01*
X158634561Y-82522110D01*
X158511000Y-82497331D01*
X157961000Y-82497331D01*
X157835096Y-82521759D01*
X157724438Y-82594450D01*
X157650364Y-82704187D01*
X157624331Y-82834000D01*
X157624331Y-84434000D01*
X157633621Y-84481881D01*
X157586000Y-84472331D01*
X155986000Y-84472331D01*
X155860096Y-84496759D01*
X155749438Y-84569450D01*
X155675364Y-84679187D01*
X155649331Y-84809000D01*
X155649331Y-85359000D01*
X155672342Y-85477600D01*
X154624596Y-85477600D01*
X154621959Y-85471217D01*
X154432778Y-85281706D01*
X154185475Y-85179017D01*
X153917699Y-85178783D01*
X153670217Y-85281041D01*
X153480706Y-85470222D01*
X153378017Y-85717525D01*
X153377783Y-85985301D01*
X153478296Y-86228560D01*
X149514368Y-82264632D01*
X149431708Y-82209400D01*
X149382523Y-82176535D01*
X149227000Y-82145600D01*
X148083669Y-82145600D01*
X148083669Y-81752000D01*
X148059241Y-81626096D01*
X147986550Y-81515438D01*
X147876813Y-81441364D01*
X147747000Y-81415331D01*
X147147000Y-81415331D01*
X147021096Y-81439759D01*
X146910438Y-81512450D01*
X146836364Y-81622187D01*
X146812028Y-81743540D01*
X146789241Y-81626096D01*
X146716550Y-81515438D01*
X146606813Y-81441364D01*
X146477000Y-81415331D01*
X145877000Y-81415331D01*
X145751096Y-81439759D01*
X145640438Y-81512450D01*
X145566364Y-81622187D01*
X145542028Y-81743540D01*
X145519241Y-81626096D01*
X145446550Y-81515438D01*
X145336813Y-81441364D01*
X145207000Y-81415331D01*
X144607000Y-81415331D01*
X144481096Y-81439759D01*
X144448789Y-81460981D01*
X144432261Y-81421078D01*
X144373984Y-81362800D01*
X166898796Y-81362800D01*
X166684078Y-81451739D01*
X166519739Y-81616077D01*
X166430800Y-81830795D01*
X166430800Y-82373150D01*
X166576850Y-82519200D01*
X167462200Y-82519200D01*
X167462200Y-81508850D01*
X167316150Y-81362800D01*
X167963850Y-81362800D01*
X167817800Y-81508850D01*
X167817800Y-82519200D01*
X168703150Y-82519200D01*
X168849200Y-82373150D01*
X168849200Y-81830795D01*
X168760261Y-81616077D01*
X168595922Y-81451739D01*
X168381204Y-81362800D01*
X167963850Y-81362800D01*
X167316150Y-81362800D01*
X167316150Y-81362800D01*
X166898796Y-81362800D01*
X144373984Y-81362800D01*
X144267923Y-81256739D01*
X144053205Y-81167800D01*
X143933050Y-81167800D01*
X143340950Y-81167800D01*
X143340950Y-81167800D01*
X143220795Y-81167800D01*
X143006077Y-81256739D01*
X143003000Y-81259816D01*
X142997923Y-81254739D01*
X142783205Y-81165800D01*
X142663050Y-81165800D01*
X142517000Y-81311850D01*
X142517000Y-82372200D01*
X142896850Y-82372200D01*
X142898850Y-82374200D01*
X143487000Y-82374200D01*
X143487000Y-81313850D01*
X143340950Y-81167800D01*
X143933050Y-81167800D01*
X143340950Y-81167800D01*
X143340950Y-81167800D01*
X143933050Y-81167800D01*
X143787000Y-81313850D01*
X143787000Y-82374200D01*
X143834800Y-82374200D01*
X143834800Y-82729800D01*
X143787000Y-82729800D01*
X143487000Y-82729800D01*
X143487000Y-82729800D01*
X143107150Y-82729800D01*
X143105150Y-82727800D01*
X142517000Y-82727800D01*
X142517000Y-83788150D01*
X142663050Y-83934200D01*
X142783205Y-83934200D01*
X142997923Y-83845261D01*
X143001000Y-83842184D01*
X143006077Y-83847261D01*
X143220795Y-83936200D01*
X143340950Y-83936200D01*
X143487000Y-83790150D01*
X143487000Y-82729800D01*
X143787000Y-82729800D01*
X143487000Y-82729800D01*
X143487000Y-82729800D01*
X143787000Y-82729800D01*
X143787000Y-83790150D01*
X143933050Y-83936200D01*
X144053205Y-83936200D01*
X144267923Y-83847261D01*
X144432261Y-83682922D01*
X144448644Y-83643369D01*
X144477187Y-83662636D01*
X144500600Y-83667331D01*
X144500600Y-83820000D01*
X144531535Y-83975523D01*
X137312400Y-83975523D01*
X137312400Y-83312000D01*
X137281465Y-83156477D01*
X137193368Y-83024632D01*
X136898536Y-82729800D01*
X137818850Y-82729800D01*
X137672800Y-82875850D01*
X137672800Y-83468204D01*
X137761739Y-83682922D01*
X137926077Y-83847261D01*
X138140795Y-83936200D01*
X138260950Y-83936200D01*
X138407000Y-83790150D01*
X138407000Y-82729800D01*
X137818850Y-82729800D01*
X136898536Y-82729800D01*
X136431368Y-82262632D01*
X136399468Y-82241317D01*
X136299523Y-82174535D01*
X136144000Y-82143600D01*
X135786669Y-82143600D01*
X135786669Y-81900000D01*
X135762241Y-81774096D01*
X135689550Y-81663438D01*
X135579813Y-81589364D01*
X135450000Y-81563331D01*
X133950000Y-81563331D01*
X133824096Y-81587759D01*
X133713438Y-81660450D01*
X133639364Y-81770187D01*
X133613331Y-81900000D01*
X133613331Y-83200000D01*
X133637759Y-83325904D01*
X133710450Y-83436562D01*
X133820187Y-83510636D01*
X133950000Y-83536669D01*
X135450000Y-83536669D01*
X135575904Y-83512241D01*
X135686562Y-83439550D01*
X135760636Y-83329813D01*
X135786669Y-83200000D01*
X135786669Y-82956400D01*
X135975664Y-82956400D01*
X136499600Y-83480336D01*
X136499600Y-85217000D01*
X136530535Y-85372523D01*
X136608238Y-85488813D01*
X136618632Y-85504368D01*
X137067864Y-85953600D01*
X136566336Y-85953600D01*
X135786669Y-85173933D01*
X135786669Y-84440000D01*
X135762241Y-84314096D01*
X135689550Y-84203438D01*
X135579813Y-84129364D01*
X135450000Y-84103331D01*
X133950000Y-84103331D01*
X133824096Y-84127759D01*
X133713438Y-84200450D01*
X133639364Y-84310187D01*
X133613331Y-84440000D01*
X133613331Y-85740000D01*
X133637759Y-85865904D01*
X133710450Y-85976562D01*
X133820187Y-86050636D01*
X133950000Y-86076669D01*
X135450000Y-86076669D01*
X135525319Y-86062055D01*
X136110632Y-86647368D01*
X136242477Y-86735465D01*
X136398000Y-86766400D01*
X137575864Y-86766400D01*
X137118664Y-87223600D01*
X135786669Y-87223600D01*
X135786669Y-86980000D01*
X135762241Y-86854096D01*
X135689550Y-86743438D01*
X135579813Y-86669364D01*
X135450000Y-86643331D01*
X133950000Y-86643331D01*
X133824096Y-86667759D01*
X133713438Y-86740450D01*
X133639364Y-86850187D01*
X133613331Y-86980000D01*
X133613331Y-88280000D01*
X133637759Y-88405904D01*
X133710450Y-88516562D01*
X133820187Y-88590636D01*
X133950000Y-88616669D01*
X135450000Y-88616669D01*
X135575904Y-88592241D01*
X135686562Y-88519550D01*
X135760636Y-88409813D01*
X135786669Y-88280000D01*
X135786669Y-88036400D01*
X137261600Y-88036400D01*
X137261600Y-88731664D01*
X136229664Y-89763600D01*
X135786669Y-89763600D01*
X135786669Y-89520000D01*
X135762241Y-89394096D01*
X135689550Y-89283438D01*
X135579813Y-89209364D01*
X135450000Y-89183331D01*
X133950000Y-89183331D01*
X133824096Y-89207759D01*
X133713438Y-89280450D01*
X133639364Y-89390187D01*
X133613331Y-89520000D01*
X133613331Y-90820000D01*
X133637759Y-90945904D01*
X133710450Y-91056562D01*
X133820187Y-91130636D01*
X133950000Y-91156669D01*
X135450000Y-91156669D01*
X135575904Y-91132241D01*
X135686562Y-91059550D01*
X135760636Y-90949813D01*
X135786669Y-90820000D01*
X135786669Y-90576400D01*
X136398000Y-90576400D01*
X136553523Y-90545465D01*
X136685368Y-90457368D01*
X137920331Y-89222405D01*
X137920331Y-89952000D01*
X137944759Y-90077904D01*
X138017450Y-90188562D01*
X138127187Y-90262636D01*
X138257000Y-90288669D01*
X138857000Y-90288669D01*
X138982904Y-90264241D01*
X139093562Y-90191550D01*
X139167636Y-90081813D01*
X139191972Y-89960460D01*
X139214759Y-90077904D01*
X139287450Y-90188562D01*
X139397187Y-90262636D01*
X139420600Y-90267331D01*
X139420600Y-92033664D01*
X138595664Y-92858600D01*
X134209669Y-92858600D01*
X134209669Y-92515000D01*
X134185241Y-92389096D01*
X134112550Y-92278438D01*
X134002813Y-92204364D01*
X133873000Y-92178331D01*
X132573000Y-92178331D01*
X132447096Y-92202759D01*
X132336438Y-92275450D01*
X132262364Y-92385187D01*
X132236331Y-92515000D01*
X132236331Y-94015000D01*
X132260759Y-94140904D01*
X132305228Y-94208600D01*
X131740336Y-94208600D01*
X131224368Y-93692632D01*
X131192592Y-93671400D01*
X131092523Y-93604535D01*
X130937000Y-93573600D01*
X127957454Y-93573600D01*
X127983636Y-93534813D01*
X128009669Y-93405000D01*
X128009669Y-92880000D01*
X127985241Y-92754096D01*
X127929400Y-92669089D01*
X127929400Y-92344000D01*
X127926526Y-92329550D01*
X127898466Y-92188478D01*
X127810368Y-92056632D01*
X127414368Y-91660632D01*
X127334212Y-91607073D01*
X127282523Y-91572535D01*
X127127000Y-91541600D01*
X123825000Y-91541600D01*
X123669477Y-91572535D01*
X123617788Y-91607073D01*
X123537632Y-91660632D01*
X122894664Y-92303600D01*
X120671736Y-92303600D01*
X120661701Y-92253153D01*
X120402918Y-91865856D01*
X120015621Y-91607073D01*
X119558774Y-91516200D01*
X119201226Y-91516200D01*
X118744379Y-91607073D01*
X118357082Y-91865856D01*
X118098299Y-92253153D01*
X118007426Y-92710000D01*
X118098299Y-93166847D01*
X118357082Y-93554144D01*
X118744379Y-93812927D01*
X119201226Y-93903800D01*
X119558774Y-93903800D01*
X120015621Y-93812927D01*
X120402918Y-93554144D01*
X120590270Y-93273750D01*
X125634850Y-93273750D01*
X125488800Y-93419800D01*
X125488800Y-93521204D01*
X125577739Y-93735922D01*
X125742077Y-93900261D01*
X125956795Y-93989200D01*
X126001950Y-93989200D01*
X126148000Y-93843150D01*
X126148000Y-93273750D01*
X125634850Y-93273750D01*
X120590270Y-93273750D01*
X120661701Y-93166847D01*
X120671736Y-93116400D01*
X123063000Y-93116400D01*
X123218523Y-93085465D01*
X123350368Y-92997368D01*
X123993336Y-92354400D01*
X125815322Y-92354400D01*
X125742077Y-92384739D01*
X125577739Y-92549078D01*
X125488800Y-92763796D01*
X125488800Y-92865200D01*
X125634850Y-93011250D01*
X126148000Y-93011250D01*
X126148000Y-92944700D01*
X126298000Y-92944700D01*
X126298000Y-93011250D01*
X126373000Y-93011250D01*
X126373000Y-93273750D01*
X126298000Y-93273750D01*
X126298000Y-93843150D01*
X126444050Y-93989200D01*
X126489205Y-93989200D01*
X126552081Y-93963156D01*
X126585632Y-94013368D01*
X126790595Y-94218331D01*
X126723000Y-94218331D01*
X126597096Y-94242759D01*
X126548108Y-94274939D01*
X126502813Y-94244364D01*
X126373000Y-94218331D01*
X126073000Y-94218331D01*
X125947096Y-94242759D01*
X125836438Y-94315450D01*
X125771873Y-94411100D01*
X124384500Y-94411100D01*
X124245261Y-94438796D01*
X124228977Y-94442035D01*
X124097132Y-94530132D01*
X123783664Y-94843600D01*
X120671736Y-94843600D01*
X120661701Y-94793153D01*
X120402918Y-94405856D01*
X120015621Y-94147073D01*
X119558774Y-94056200D01*
X119201226Y-94056200D01*
X118744379Y-94147073D01*
X118357082Y-94405856D01*
X118098299Y-94793153D01*
X118007426Y-95250000D01*
X118098299Y-95706847D01*
X118357082Y-96094144D01*
X118744379Y-96352927D01*
X119201226Y-96443800D01*
X119558774Y-96443800D01*
X120015621Y-96352927D01*
X120402918Y-96094144D01*
X120661701Y-95706847D01*
X120671736Y-95656400D01*
X123952000Y-95656400D01*
X124107523Y-95625465D01*
X124239368Y-95537368D01*
X124552836Y-95223900D01*
X125772581Y-95223900D01*
X125833450Y-95316562D01*
X125943187Y-95390636D01*
X126073000Y-95416669D01*
X126373000Y-95416669D01*
X126466600Y-95398509D01*
X126466600Y-95664000D01*
X126497535Y-95819523D01*
X126541286Y-95885000D01*
X126585632Y-95951368D01*
X126886632Y-96252368D01*
X127018477Y-96340465D01*
X127174000Y-96371400D01*
X132236331Y-96371400D01*
X132236331Y-96715000D01*
X132260759Y-96840904D01*
X132333450Y-96951562D01*
X132443187Y-97025636D01*
X132573000Y-97051669D01*
X133873000Y-97051669D01*
X133998904Y-97027241D01*
X134109562Y-96954550D01*
X134183636Y-96844813D01*
X134209669Y-96715000D01*
X134209669Y-95215000D01*
X134185241Y-95089096D01*
X134140772Y-95021400D01*
X135104331Y-95021400D01*
X135104331Y-95265000D01*
X135128759Y-95390904D01*
X135201450Y-95501562D01*
X135311187Y-95575636D01*
X135441000Y-95601669D01*
X136941000Y-95601669D01*
X137066904Y-95577241D01*
X137177562Y-95504550D01*
X137251636Y-95394813D01*
X137277669Y-95265000D01*
X137277669Y-93965000D01*
X137253241Y-93839096D01*
X137180550Y-93728438D01*
X137096051Y-93671400D01*
X137986719Y-93671400D01*
X137904438Y-93725450D01*
X137830364Y-93835187D01*
X137804331Y-93965000D01*
X137804331Y-95265000D01*
X137828759Y-95390904D01*
X137901450Y-95501562D01*
X138011187Y-95575636D01*
X138141000Y-95601669D01*
X139641000Y-95601669D01*
X139766904Y-95577241D01*
X139877562Y-95504550D01*
X139951636Y-95394813D01*
X139977669Y-95265000D01*
X139977669Y-94658067D01*
X141384368Y-93251368D01*
X141472466Y-93119522D01*
X141503400Y-92964000D01*
X141503400Y-90268025D01*
X141522904Y-90264241D01*
X141633562Y-90191550D01*
X141707636Y-90081813D01*
X141731972Y-89960460D01*
X141754759Y-90077904D01*
X141827450Y-90188562D01*
X141937187Y-90262636D01*
X142067000Y-90288669D01*
X142667000Y-90288669D01*
X142792904Y-90264241D01*
X142903562Y-90191550D01*
X142977636Y-90081813D01*
X143001972Y-89960460D01*
X143024759Y-90077904D01*
X143097450Y-90188562D01*
X143207187Y-90262636D01*
X143337000Y-90288669D01*
X143937000Y-90288669D01*
X144062904Y-90264241D01*
X144173562Y-90191550D01*
X144247636Y-90081813D01*
X144271972Y-89960460D01*
X144294759Y-90077904D01*
X144367450Y-90188562D01*
X144477187Y-90262636D01*
X144607000Y-90288669D01*
X145207000Y-90288669D01*
X145332904Y-90264241D01*
X145443562Y-90191550D01*
X145517636Y-90081813D01*
X145541972Y-89960460D01*
X145564759Y-90077904D01*
X145637450Y-90188562D01*
X145747187Y-90262636D01*
X145877000Y-90288669D01*
X146477000Y-90288669D01*
X146602904Y-90264241D01*
X146713562Y-90191550D01*
X146787636Y-90081813D01*
X146811972Y-89960460D01*
X146834759Y-90077904D01*
X146907450Y-90188562D01*
X147017187Y-90262636D01*
X147040600Y-90267331D01*
X147040600Y-90640613D01*
X146876706Y-90804222D01*
X146774017Y-91051525D01*
X146773783Y-91319301D01*
X146876041Y-91566783D01*
X147065222Y-91756294D01*
X147312525Y-91858983D01*
X147580301Y-91859217D01*
X147827783Y-91756959D01*
X148017294Y-91567778D01*
X148119983Y-91320475D01*
X148120217Y-91052699D01*
X148017959Y-90805217D01*
X147853400Y-90640371D01*
X147853400Y-90268025D01*
X147872904Y-90264241D01*
X147983562Y-90191550D01*
X148057636Y-90081813D01*
X148083669Y-89952000D01*
X148083669Y-89604731D01*
X149504400Y-89604731D01*
X149378496Y-89629159D01*
X149267838Y-89701850D01*
X149193764Y-89811587D01*
X149167731Y-89941400D01*
X149167731Y-91668600D01*
X149192159Y-91794504D01*
X149264850Y-91905162D01*
X149374587Y-91979236D01*
X149504400Y-92005269D01*
X151231600Y-92005269D01*
X151357504Y-91980841D01*
X151468162Y-91908150D01*
X151542236Y-91798413D01*
X151568269Y-91668600D01*
X151568269Y-89941400D01*
X151543841Y-89815496D01*
X151471150Y-89704838D01*
X151361413Y-89630764D01*
X151263858Y-89611200D01*
X152884612Y-89611200D01*
X152427765Y-89702073D01*
X152040468Y-89960856D01*
X151781685Y-90348153D01*
X151690812Y-90805000D01*
X151781685Y-91261847D01*
X152040468Y-91649144D01*
X152427765Y-91907927D01*
X152884612Y-91998800D01*
X152931388Y-91998800D01*
X153388235Y-91907927D01*
X153775532Y-91649144D01*
X154034315Y-91261847D01*
X154125188Y-90805000D01*
X154034315Y-90348153D01*
X153775532Y-89960856D01*
X153388235Y-89702073D01*
X152931388Y-89611200D01*
X152884612Y-89611200D01*
X151263858Y-89611200D01*
X151231600Y-89604731D01*
X149504400Y-89604731D01*
X148083669Y-89604731D01*
X148083669Y-88352000D01*
X148059241Y-88226096D01*
X147986550Y-88115438D01*
X147876813Y-88041364D01*
X147747000Y-88015331D01*
X147147000Y-88015331D01*
X147021096Y-88039759D01*
X146910438Y-88112450D01*
X146836364Y-88222187D01*
X146812028Y-88343540D01*
X146789241Y-88226096D01*
X146716550Y-88115438D01*
X146606813Y-88041364D01*
X146583400Y-88036669D01*
X146583400Y-87757000D01*
X146552465Y-87601477D01*
X146464368Y-87469632D01*
X144559368Y-85564632D01*
X144532751Y-85546847D01*
X144427523Y-85476535D01*
X144272000Y-85445600D01*
X137709336Y-85445600D01*
X137312400Y-85048664D01*
X137312400Y-83975523D01*
X144531535Y-83975523D01*
X137312400Y-83975523D01*
X137312400Y-83975523D01*
X144531535Y-83975523D01*
X144578278Y-84045478D01*
X144619632Y-84107368D01*
X145381632Y-84869368D01*
X145513477Y-84957465D01*
X145669000Y-84988400D01*
X149183664Y-84988400D01*
X153263600Y-89068336D01*
X153263600Y-89154000D01*
X153294535Y-89309523D01*
X153335859Y-89371368D01*
X153382632Y-89441368D01*
X156362632Y-92421368D01*
X156494477Y-92509465D01*
X156650000Y-92540400D01*
X157624331Y-92540400D01*
X157624331Y-92934000D01*
X157648759Y-93059904D01*
X157721450Y-93170562D01*
X157831187Y-93244636D01*
X157961000Y-93270669D01*
X158511000Y-93270669D01*
X158636904Y-93246241D01*
X158637439Y-93245890D01*
X158761000Y-93270669D01*
X159311000Y-93270669D01*
X159436904Y-93246241D01*
X159437439Y-93245890D01*
X159561000Y-93270669D01*
X160111000Y-93270669D01*
X160236904Y-93246241D01*
X160237439Y-93245890D01*
X160361000Y-93270669D01*
X160911000Y-93270669D01*
X161036904Y-93246241D01*
X161037439Y-93245890D01*
X161161000Y-93270669D01*
X161711000Y-93270669D01*
X161836904Y-93246241D01*
X161837439Y-93245890D01*
X161961000Y-93270669D01*
X162511000Y-93270669D01*
X162636904Y-93246241D01*
X162637439Y-93245890D01*
X162761000Y-93270669D01*
X163311000Y-93270669D01*
X163436904Y-93246241D01*
X163437439Y-93245890D01*
X163561000Y-93270669D01*
X164111000Y-93270669D01*
X164236904Y-93246241D01*
X164347562Y-93173550D01*
X164421636Y-93063813D01*
X164447669Y-92934000D01*
X164447669Y-91334000D01*
X164438379Y-91286119D01*
X164486000Y-91295669D01*
X165142933Y-91295669D01*
X165574632Y-91727368D01*
X165706477Y-91815465D01*
X165862000Y-91846400D01*
X166473331Y-91846400D01*
X166473331Y-91951933D01*
X164216664Y-94208600D01*
X153746414Y-94208600D01*
X153775532Y-94189144D01*
X154034315Y-93801847D01*
X154125188Y-93345000D01*
X154034315Y-92888153D01*
X153775532Y-92500856D01*
X153388235Y-92242073D01*
X152931388Y-92151200D01*
X152884612Y-92151200D01*
X150391388Y-92151200D01*
X150391388Y-92151200D01*
X150344612Y-92151200D01*
X149887765Y-92242073D01*
X149500468Y-92500856D01*
X149241685Y-92888153D01*
X149150812Y-93345000D01*
X149241685Y-93801847D01*
X149500468Y-94189144D01*
X149887765Y-94447927D01*
X150344612Y-94538800D01*
X150391388Y-94538800D01*
X150848235Y-94447927D01*
X151235532Y-94189144D01*
X151494315Y-93801847D01*
X151585188Y-93345000D01*
X151494315Y-92888153D01*
X151235532Y-92500856D01*
X150848235Y-92242073D01*
X150391388Y-92151200D01*
X152884612Y-92151200D01*
X150391388Y-92151200D01*
X150391388Y-92151200D01*
X152884612Y-92151200D01*
X152427765Y-92242073D01*
X152040468Y-92500856D01*
X151781685Y-92888153D01*
X151690812Y-93345000D01*
X151781685Y-93801847D01*
X152040468Y-94189144D01*
X152069586Y-94208600D01*
X151892000Y-94208600D01*
X151736477Y-94239535D01*
X151604632Y-94327632D01*
X151029245Y-94903019D01*
X150848235Y-94782073D01*
X150391388Y-94691200D01*
X150344612Y-94691200D01*
X149887765Y-94782073D01*
X149500468Y-95040856D01*
X149241685Y-95428153D01*
X149150812Y-95885000D01*
X149241685Y-96341847D01*
X149500468Y-96729144D01*
X149887765Y-96987927D01*
X150344612Y-97078800D01*
X117118600Y-97078800D01*
X117118600Y-86308535D01*
X124326716Y-86308535D01*
X124299632Y-86326632D01*
X123402664Y-87223600D01*
X120671736Y-87223600D01*
X120661701Y-87173153D01*
X120402918Y-86785856D01*
X120015621Y-86527073D01*
X119558774Y-86436200D01*
X119201226Y-86436200D01*
X118744379Y-86527073D01*
X118357082Y-86785856D01*
X118098299Y-87173153D01*
X118007426Y-87630000D01*
X118098299Y-88086847D01*
X118357082Y-88474144D01*
X118744379Y-88732927D01*
X119201226Y-88823800D01*
X119558774Y-88823800D01*
X120015621Y-88732927D01*
X120402918Y-88474144D01*
X120661701Y-88086847D01*
X120671736Y-88036400D01*
X123571000Y-88036400D01*
X123726523Y-88005465D01*
X123824871Y-87939750D01*
X125761850Y-87939750D01*
X125615800Y-88085800D01*
X125615800Y-88187204D01*
X125704739Y-88401922D01*
X125869077Y-88566261D01*
X126083795Y-88655200D01*
X126128950Y-88655200D01*
X126275000Y-88509150D01*
X126275000Y-87939750D01*
X125761850Y-87939750D01*
X123824871Y-87939750D01*
X123858368Y-87917368D01*
X124755336Y-87020400D01*
X125942322Y-87020400D01*
X125869077Y-87050739D01*
X125704739Y-87215078D01*
X125615800Y-87429796D01*
X125615800Y-87531200D01*
X125761850Y-87677250D01*
X126275000Y-87677250D01*
X126275000Y-87610700D01*
X126425000Y-87610700D01*
X126425000Y-87677250D01*
X126500000Y-87677250D01*
X126500000Y-87939750D01*
X126425000Y-87939750D01*
X126425000Y-88509150D01*
X126571050Y-88655200D01*
X126616205Y-88655200D01*
X126757102Y-88596838D01*
X127027540Y-88867276D01*
X127010486Y-88884331D01*
X126850000Y-88884331D01*
X126724096Y-88908759D01*
X126675108Y-88940939D01*
X126629813Y-88910364D01*
X126500000Y-88884331D01*
X126200000Y-88884331D01*
X126074096Y-88908759D01*
X125963438Y-88981450D01*
X125898873Y-89077100D01*
X124765500Y-89077100D01*
X124609977Y-89108035D01*
X124498501Y-89182522D01*
X124478132Y-89196132D01*
X123910664Y-89763600D01*
X120671736Y-89763600D01*
X120661701Y-89713153D01*
X120402918Y-89325856D01*
X120015621Y-89067073D01*
X119558774Y-88976200D01*
X119201226Y-88976200D01*
X118744379Y-89067073D01*
X118357082Y-89325856D01*
X118098299Y-89713153D01*
X118007426Y-90170000D01*
X118098299Y-90626847D01*
X118357082Y-91014144D01*
X118744379Y-91272927D01*
X119201226Y-91363800D01*
X119558774Y-91363800D01*
X120015621Y-91272927D01*
X120402918Y-91014144D01*
X120661701Y-90626847D01*
X120671736Y-90576400D01*
X124079000Y-90576400D01*
X124234523Y-90545465D01*
X124366368Y-90457368D01*
X124933836Y-89889900D01*
X125899581Y-89889900D01*
X125960450Y-89982562D01*
X126070187Y-90056636D01*
X126200000Y-90082669D01*
X126500000Y-90082669D01*
X126593600Y-90064509D01*
X126593600Y-90424000D01*
X126624535Y-90579523D01*
X126668040Y-90644632D01*
X126712632Y-90711368D01*
X126966632Y-90965368D01*
X127098477Y-91053465D01*
X127254000Y-91084400D01*
X129794000Y-91084400D01*
X129949523Y-91053465D01*
X130081368Y-90965368D01*
X130470337Y-90576400D01*
X130913331Y-90576400D01*
X130913331Y-90820000D01*
X130937759Y-90945904D01*
X131010450Y-91056562D01*
X131120187Y-91130636D01*
X131250000Y-91156669D01*
X132750000Y-91156669D01*
X132875904Y-91132241D01*
X132986562Y-91059550D01*
X133060636Y-90949813D01*
X133086669Y-90820000D01*
X133086669Y-89520000D01*
X133062241Y-89394096D01*
X132989550Y-89283438D01*
X132879813Y-89209364D01*
X132750000Y-89183331D01*
X131250000Y-89183331D01*
X131124096Y-89207759D01*
X131013438Y-89280450D01*
X130939364Y-89390187D01*
X130913331Y-89520000D01*
X130913331Y-89763600D01*
X130302000Y-89763600D01*
X130146477Y-89794535D01*
X130014631Y-89882632D01*
X129625664Y-90271600D01*
X128057678Y-90271600D01*
X128130923Y-90241261D01*
X128295261Y-90076922D01*
X128384200Y-89862204D01*
X128384200Y-89760800D01*
X128238150Y-89614750D01*
X127725000Y-89614750D01*
X127725000Y-89681300D01*
X127575000Y-89681300D01*
X127575000Y-89614750D01*
X127500000Y-89614750D01*
X127500000Y-89352250D01*
X127575000Y-89352250D01*
X127575000Y-89285700D01*
X127725000Y-89285700D01*
X127725000Y-89352250D01*
X128238150Y-89352250D01*
X128384200Y-89206200D01*
X128384200Y-89104796D01*
X128362497Y-89052400D01*
X128778000Y-89052400D01*
X128933523Y-89021465D01*
X129065368Y-88933368D01*
X129962336Y-88036400D01*
X130913331Y-88036400D01*
X130913331Y-88280000D01*
X130937759Y-88405904D01*
X131010450Y-88516562D01*
X131120187Y-88590636D01*
X131250000Y-88616669D01*
X132750000Y-88616669D01*
X132875904Y-88592241D01*
X132986562Y-88519550D01*
X133060636Y-88409813D01*
X133086669Y-88280000D01*
X133086669Y-86980000D01*
X133062241Y-86854096D01*
X132989550Y-86743438D01*
X132879813Y-86669364D01*
X132750000Y-86643331D01*
X131250000Y-86643331D01*
X131124096Y-86667759D01*
X131013438Y-86740450D01*
X130939364Y-86850187D01*
X130913331Y-86980000D01*
X130913331Y-87223600D01*
X129794000Y-87223600D01*
X129638477Y-87254535D01*
X129574374Y-87297368D01*
X129506632Y-87342632D01*
X128609664Y-88239600D01*
X128084454Y-88239600D01*
X128110636Y-88200813D01*
X128136669Y-88071000D01*
X128136669Y-87546000D01*
X128112241Y-87420096D01*
X128056400Y-87335089D01*
X128056400Y-87010000D01*
X128046256Y-86959000D01*
X128025466Y-86854478D01*
X127937368Y-86722632D01*
X127541368Y-86326632D01*
X127514284Y-86308535D01*
X127409523Y-86238535D01*
X127254000Y-86207600D01*
X124587000Y-86207600D01*
X119941855Y-86207600D01*
X120015621Y-86192927D01*
X120402918Y-85934144D01*
X120661701Y-85546847D01*
X120671736Y-85496400D01*
X121539000Y-85496400D01*
X121694523Y-85465465D01*
X121826368Y-85377368D01*
X122266837Y-84936900D01*
X125899581Y-84936900D01*
X125960450Y-85029562D01*
X126070187Y-85103636D01*
X126200000Y-85129669D01*
X126500000Y-85129669D01*
X126593600Y-85111509D01*
X126593600Y-85471000D01*
X126624535Y-85626523D01*
X126700359Y-85740000D01*
X126712632Y-85758368D01*
X126839632Y-85885368D01*
X126971477Y-85973465D01*
X127127000Y-86004400D01*
X130048000Y-86004400D01*
X130203523Y-85973465D01*
X130335368Y-85885368D01*
X130724337Y-85496400D01*
X130913331Y-85496400D01*
X130913331Y-85740000D01*
X130937759Y-85865904D01*
X131010450Y-85976562D01*
X131120187Y-86050636D01*
X131250000Y-86076669D01*
X132750000Y-86076669D01*
X132875904Y-86052241D01*
X132986562Y-85979550D01*
X133060636Y-85869813D01*
X133086669Y-85740000D01*
X133086669Y-84440000D01*
X133062241Y-84314096D01*
X132989550Y-84203438D01*
X132879813Y-84129364D01*
X132750000Y-84103331D01*
X131250000Y-84103331D01*
X131124096Y-84127759D01*
X131013438Y-84200450D01*
X130939364Y-84310187D01*
X130913331Y-84440000D01*
X130913331Y-84683600D01*
X130556000Y-84683600D01*
X130400477Y-84714535D01*
X130268631Y-84802632D01*
X129879664Y-85191600D01*
X128227583Y-85191600D01*
X128295261Y-85123922D01*
X128384200Y-84909204D01*
X128384200Y-84807800D01*
X128238150Y-84661750D01*
X127725000Y-84661750D01*
X127725000Y-84728300D01*
X127575000Y-84728300D01*
X127575000Y-84661750D01*
X127500000Y-84661750D01*
X127500000Y-84399250D01*
X127575000Y-84399250D01*
X127575000Y-84332700D01*
X127725000Y-84332700D01*
X127725000Y-84399250D01*
X128238150Y-84399250D01*
X128384200Y-84253200D01*
X128384200Y-84151796D01*
X128362497Y-84099400D01*
X128524000Y-84099400D01*
X128679523Y-84068465D01*
X128811368Y-83980368D01*
X129835336Y-82956400D01*
X130913331Y-82956400D01*
X130913331Y-83200000D01*
X130937759Y-83325904D01*
X131010450Y-83436562D01*
X131120187Y-83510636D01*
X131250000Y-83536669D01*
X132750000Y-83536669D01*
X132875904Y-83512241D01*
X132986562Y-83439550D01*
X133060636Y-83329813D01*
X133086669Y-83200000D01*
X133086669Y-81900000D01*
X133062241Y-81774096D01*
X132989550Y-81663438D01*
X132879813Y-81589364D01*
X132750000Y-81563331D01*
X131250000Y-81563331D01*
X131124096Y-81587759D01*
X131013438Y-81660450D01*
X130939364Y-81770187D01*
X130913331Y-81900000D01*
X130913331Y-82143600D01*
X129667000Y-82143600D01*
X129511477Y-82174535D01*
X129379632Y-82262632D01*
X128355664Y-83286600D01*
X128084454Y-83286600D01*
X128110636Y-83247813D01*
X128136669Y-83118000D01*
X128136669Y-82593000D01*
X128112241Y-82467096D01*
X128056400Y-82382089D01*
X128056400Y-81803000D01*
X128025465Y-81647477D01*
X127937368Y-81515632D01*
X127589536Y-81167800D01*
X138140795Y-81167800D01*
X137926077Y-81256739D01*
X137761739Y-81421078D01*
X137672800Y-81635796D01*
X137672800Y-82228150D01*
X137818850Y-82374200D01*
X138407000Y-82374200D01*
X138407000Y-81313850D01*
X138260950Y-81167800D01*
X138140795Y-81167800D01*
X127589536Y-81167800D01*
X127287368Y-80865632D01*
X127223269Y-80822802D01*
X127155523Y-80777535D01*
X127000000Y-80746600D01*
X122809000Y-80746600D01*
X122653477Y-80777535D01*
X122521632Y-80865632D01*
X121243664Y-82143600D01*
X120732669Y-82143600D01*
X120732669Y-81686400D01*
X120708241Y-81560496D01*
X120635550Y-81449838D01*
X120525813Y-81375764D01*
X120396000Y-81349731D01*
X118364000Y-81349731D01*
X118238096Y-81374159D01*
X118127438Y-81446850D01*
X118053364Y-81556587D01*
X118027331Y-81686400D01*
X118027331Y-83413600D01*
X118051759Y-83539504D01*
X118124450Y-83650162D01*
X118234187Y-83724236D01*
X118364000Y-83750269D01*
X120396000Y-83750269D01*
X120521904Y-83725841D01*
X120632562Y-83653150D01*
X120706636Y-83543413D01*
X120732669Y-83413600D01*
X120732669Y-82986750D01*
X125761850Y-82986750D01*
X125615800Y-83132800D01*
X125615800Y-83234204D01*
X125704739Y-83448922D01*
X125869077Y-83613261D01*
X126083795Y-83702200D01*
X126128950Y-83702200D01*
X126275000Y-83556150D01*
X126275000Y-82986750D01*
X125761850Y-82986750D01*
X120732669Y-82986750D01*
X120732669Y-82956400D01*
X121412000Y-82956400D01*
X121567523Y-82925465D01*
X121699368Y-82837368D01*
X122527936Y-82008800D01*
X126083795Y-82008800D01*
X125869077Y-82097739D01*
X125704739Y-82262078D01*
X125615800Y-82476796D01*
X125615800Y-82578200D01*
X125761850Y-82724250D01*
X126275000Y-82724250D01*
X126275000Y-82154850D01*
X126128950Y-82008800D01*
X126083795Y-82008800D01*
X122527936Y-82008800D01*
X122977336Y-81559400D01*
X126831664Y-81559400D01*
X127243600Y-81971336D01*
X127243600Y-82275102D01*
X127150000Y-82256331D01*
X126989514Y-82256331D01*
X126830923Y-82097739D01*
X126616205Y-82008800D01*
X126571050Y-82008800D01*
X126425000Y-82154850D01*
X126425000Y-82724250D01*
X126500000Y-82724250D01*
X126500000Y-82986750D01*
X126425000Y-82986750D01*
X126425000Y-83556150D01*
X126571050Y-83702200D01*
X126616205Y-83702200D01*
X126679081Y-83676156D01*
X126696483Y-83702200D01*
X126712632Y-83726368D01*
X126917595Y-83931331D01*
X126850000Y-83931331D01*
X126724096Y-83955759D01*
X126675108Y-83987939D01*
X126629813Y-83957364D01*
X126500000Y-83931331D01*
X126200000Y-83931331D01*
X126074096Y-83955759D01*
X125963438Y-84028450D01*
X125898873Y-84124100D01*
X122098500Y-84124100D01*
X121959261Y-84151796D01*
X121942977Y-84155035D01*
X121811131Y-84243132D01*
X121370664Y-84683600D01*
X120671736Y-84683600D01*
X120661701Y-84633153D01*
X120402918Y-84245856D01*
X120015621Y-83987073D01*
X119558774Y-83896200D01*
X119201226Y-83896200D01*
X118744379Y-83987073D01*
X118357082Y-84245856D01*
X118098299Y-84633153D01*
X118007426Y-85090000D01*
X118098299Y-85546847D01*
X118357082Y-85934144D01*
X118744379Y-86192927D01*
X119201226Y-86283800D01*
X119558774Y-86283800D01*
X119941855Y-86207600D01*
X124587000Y-86207600D01*
X119941855Y-86207600D01*
X119941855Y-86207600D01*
X124587000Y-86207600D01*
X124431477Y-86238535D01*
X124326716Y-86308535D01*
X117118600Y-86308535D01*
X117118600Y-80201041D01*
X140716217Y-80201041D01*
X140526706Y-80390222D01*
X140424017Y-80637525D01*
X140423783Y-80905301D01*
X140526041Y-81152783D01*
X140690600Y-81317629D01*
X140690600Y-81485975D01*
X140671096Y-81489759D01*
X140560438Y-81562450D01*
X140486364Y-81672187D01*
X140463669Y-81785355D01*
X140463669Y-81752000D01*
X140439241Y-81626096D01*
X140366550Y-81515438D01*
X140256813Y-81441364D01*
X140127000Y-81415331D01*
X139527000Y-81415331D01*
X139401096Y-81439759D01*
X139368789Y-81460981D01*
X139352261Y-81421078D01*
X139187923Y-81256739D01*
X138973205Y-81167800D01*
X138853050Y-81167800D01*
X138707000Y-81313850D01*
X138707000Y-82374200D01*
X138754800Y-82374200D01*
X138754800Y-82729800D01*
X138707000Y-82729800D01*
X138707000Y-83790150D01*
X138853050Y-83936200D01*
X138973205Y-83936200D01*
X139187923Y-83847261D01*
X139352261Y-83682922D01*
X139368644Y-83643369D01*
X139397187Y-83662636D01*
X139527000Y-83688669D01*
X140127000Y-83688669D01*
X140252904Y-83664241D01*
X140363562Y-83591550D01*
X140437636Y-83481813D01*
X140463669Y-83352000D01*
X140463669Y-83319204D01*
X140484759Y-83427904D01*
X140557450Y-83538562D01*
X140667187Y-83612636D01*
X140797000Y-83638669D01*
X141397000Y-83638669D01*
X141522904Y-83614241D01*
X141539581Y-83603286D01*
X141571739Y-83680922D01*
X141736077Y-83845261D01*
X141950795Y-83934200D01*
X142070950Y-83934200D01*
X142217000Y-83788150D01*
X142217000Y-82727800D01*
X142169200Y-82727800D01*
X142169200Y-82372200D01*
X142217000Y-82372200D01*
X142217000Y-81311850D01*
X142070950Y-81165800D01*
X141950795Y-81165800D01*
X141736077Y-81254739D01*
X141571739Y-81419078D01*
X141538523Y-81499268D01*
X141526813Y-81491364D01*
X141503400Y-81486669D01*
X141503400Y-81317387D01*
X141667294Y-81153778D01*
X141769983Y-80906475D01*
X141770217Y-80638699D01*
X141667959Y-80391217D01*
X141478778Y-80201706D01*
X141231475Y-80099017D01*
X140963699Y-80098783D01*
X140716217Y-80201041D01*
X117118600Y-80201041D01*
X117118600Y-78206600D01*
X192024000Y-78206600D01*
X191868478Y-78237534D01*
X191736632Y-78325631D01*
X190276933Y-79785331D01*
X189703000Y-79785331D01*
X189577096Y-79809759D01*
X189466438Y-79882450D01*
X189392364Y-79992187D01*
X189366331Y-80122000D01*
X189366331Y-81422000D01*
X189390759Y-81547904D01*
X189463450Y-81658562D01*
X189573187Y-81732636D01*
X189703000Y-81758669D01*
X191203000Y-81758669D01*
X191328904Y-81734241D01*
X191439562Y-81661550D01*
X191513636Y-81551813D01*
X191539669Y-81422000D01*
X191539669Y-80122000D01*
X191515241Y-79996096D01*
X191442550Y-79885438D01*
X191373147Y-79838590D01*
X192192337Y-79019400D01*
X200364664Y-79019400D01*
X200577331Y-79232067D01*
X200577331Y-80873600D01*
X200601759Y-80999504D01*
X200674450Y-81110162D01*
X200784187Y-81184236D01*
X200914000Y-81210269D01*
X202946000Y-81210269D01*
X203071904Y-81185841D01*
X203182562Y-81113150D01*
X203256636Y-81003413D01*
X203282669Y-80873600D01*
X203282669Y-79146400D01*
X203258241Y-79020496D01*
X203185550Y-78909838D01*
X203075813Y-78835764D01*
X202946000Y-78809731D01*
X201304467Y-78809731D01*
X200820367Y-78325631D01*
X200688523Y-78237535D01*
X200533000Y-78206600D01*
X192024000Y-78206600D01*
X117118600Y-78206600D01*
X117118600Y-77748600D01*
X205461400Y-77748600D01*
X205461400Y-97511400D01*
X205461400Y-97511400D01*
G37*
X205461400Y-97511400D02*
X117118600Y-97511400D01*
X117118600Y-97078800D01*
X150344612Y-97078800D01*
X150391388Y-97078800D01*
X150848235Y-96987927D01*
X151235532Y-96729144D01*
X151494315Y-96341847D01*
X151549821Y-96062802D01*
X151618449Y-96062802D01*
X151516663Y-96285382D01*
X151641052Y-96585719D01*
X152005646Y-97017220D01*
X152507615Y-97276351D01*
X152730200Y-97175805D01*
X152730200Y-96062800D01*
X153085800Y-96062800D01*
X152730200Y-96062800D01*
X152730200Y-96062800D01*
X153085800Y-96062800D01*
X153085800Y-97175805D01*
X153308385Y-97276351D01*
X153810354Y-97017220D01*
X153999184Y-96793737D01*
X179939618Y-96793737D01*
X180162200Y-96691950D01*
X180162200Y-95427800D01*
X180517800Y-95427800D01*
X180162200Y-95427800D01*
X180162200Y-95427800D01*
X180517800Y-95427800D01*
X180517800Y-96691950D01*
X180740382Y-96793737D01*
X181169530Y-96587363D01*
X181559852Y-96179716D01*
X181764462Y-95653729D01*
X181700459Y-95537368D01*
X190466632Y-95537368D01*
X190598477Y-95625465D01*
X190754000Y-95656400D01*
X200638264Y-95656400D01*
X200648299Y-95706847D01*
X200907082Y-96094144D01*
X201294379Y-96352927D01*
X201751226Y-96443800D01*
X202108774Y-96443800D01*
X202565621Y-96352927D01*
X202952918Y-96094144D01*
X203211701Y-95706847D01*
X203302574Y-95250000D01*
X203211701Y-94793153D01*
X202952918Y-94405856D01*
X202565621Y-94147073D01*
X202108774Y-94056200D01*
X201751226Y-94056200D01*
X201294379Y-94147073D01*
X200907082Y-94405856D01*
X200648299Y-94793153D01*
X200638264Y-94843600D01*
X190922336Y-94843600D01*
X189136368Y-93057632D01*
X189066953Y-93011250D01*
X189004523Y-92969535D01*
X188849000Y-92938600D01*
X188491669Y-92938600D01*
X188491669Y-92695000D01*
X188467241Y-92569096D01*
X188394550Y-92458438D01*
X188284813Y-92384364D01*
X188155000Y-92358331D01*
X186655000Y-92358331D01*
X185455000Y-92358331D01*
X185455000Y-92358331D01*
X185111400Y-92358331D01*
X185111400Y-89420136D01*
X186148632Y-90457368D01*
X186280477Y-90545465D01*
X186436000Y-90576400D01*
X186793331Y-90576400D01*
X186793331Y-90820000D01*
X186817759Y-90945904D01*
X186890450Y-91056562D01*
X187000187Y-91130636D01*
X187130000Y-91156669D01*
X188630000Y-91156669D01*
X188755904Y-91132241D01*
X188866562Y-91059550D01*
X188940636Y-90949813D01*
X188966669Y-90820000D01*
X188966669Y-89520000D01*
X188942241Y-89394096D01*
X188869550Y-89283438D01*
X188759813Y-89209364D01*
X188630000Y-89183331D01*
X187130000Y-89183331D01*
X187004096Y-89207759D01*
X186893438Y-89280450D01*
X186819364Y-89390187D01*
X186793331Y-89520000D01*
X186793331Y-89763600D01*
X186604336Y-89763600D01*
X184048400Y-87207664D01*
X184048400Y-81661000D01*
X184040680Y-81622187D01*
X184017466Y-81505478D01*
X183929369Y-81373632D01*
X183573770Y-81018034D01*
X183543006Y-80997478D01*
X183441925Y-80929937D01*
X183286402Y-80899002D01*
X181203598Y-80899002D01*
X181048076Y-80929936D01*
X180916230Y-81018033D01*
X180560632Y-81373632D01*
X180472535Y-81505477D01*
X180461881Y-81559040D01*
X180422096Y-81566759D01*
X180311438Y-81639450D01*
X180237364Y-81749187D01*
X180213028Y-81870540D01*
X180190241Y-81753096D01*
X180138859Y-81674877D01*
X180990934Y-80822802D01*
X184007066Y-80822802D01*
X184251600Y-81067336D01*
X184251600Y-86106000D01*
X184282535Y-86261523D01*
X184313948Y-86308535D01*
X184370632Y-86393368D01*
X186021632Y-88044368D01*
X186153478Y-88132466D01*
X186309000Y-88163400D01*
X186793331Y-88163400D01*
X186793331Y-88407000D01*
X186817759Y-88532904D01*
X186890450Y-88643562D01*
X187000187Y-88717636D01*
X187130000Y-88743669D01*
X188630000Y-88743669D01*
X188755904Y-88719241D01*
X188866562Y-88646550D01*
X188940636Y-88536813D01*
X188966669Y-88407000D01*
X188966669Y-87107000D01*
X188942241Y-86981096D01*
X188869550Y-86870438D01*
X188759813Y-86796364D01*
X188630000Y-86770331D01*
X189830000Y-86770331D01*
X189704096Y-86794759D01*
X189593438Y-86867450D01*
X189519364Y-86977187D01*
X189493331Y-87107000D01*
X189493331Y-88407000D01*
X189517759Y-88532904D01*
X189590450Y-88643562D01*
X189700187Y-88717636D01*
X189830000Y-88743669D01*
X191330000Y-88743669D01*
X191455904Y-88719241D01*
X191566562Y-88646550D01*
X191640636Y-88536813D01*
X191666669Y-88407000D01*
X191666669Y-88163400D01*
X194522664Y-88163400D01*
X196228863Y-89869599D01*
X196116523Y-89794535D01*
X195961000Y-89763600D01*
X191666669Y-89763600D01*
X191666669Y-89520000D01*
X191642241Y-89394096D01*
X191569550Y-89283438D01*
X191459813Y-89209364D01*
X191330000Y-89183331D01*
X189830000Y-89183331D01*
X189704096Y-89207759D01*
X189593438Y-89280450D01*
X189519364Y-89390187D01*
X189493331Y-89520000D01*
X189493331Y-90820000D01*
X189517759Y-90945904D01*
X189590450Y-91056562D01*
X189700187Y-91130636D01*
X189830000Y-91156669D01*
X191330000Y-91156669D01*
X191455904Y-91132241D01*
X191566562Y-91059550D01*
X191640636Y-90949813D01*
X191666669Y-90820000D01*
X191666669Y-90576400D01*
X195792664Y-90576400D01*
X198213631Y-92997368D01*
X198313073Y-93063813D01*
X198345477Y-93085465D01*
X198501000Y-93116400D01*
X200638264Y-93116400D01*
X200648299Y-93166847D01*
X200907082Y-93554144D01*
X201294379Y-93812927D01*
X201751226Y-93903800D01*
X202108774Y-93903800D01*
X202565621Y-93812927D01*
X202952918Y-93554144D01*
X203211701Y-93166847D01*
X203302574Y-92710000D01*
X203211701Y-92253153D01*
X202952918Y-91865856D01*
X202565621Y-91607073D01*
X202108774Y-91516200D01*
X201751226Y-91516200D01*
X201294379Y-91607073D01*
X200907082Y-91865856D01*
X200648299Y-92253153D01*
X200638264Y-92303600D01*
X198669337Y-92303600D01*
X196836138Y-90470401D01*
X196948477Y-90545465D01*
X197104000Y-90576400D01*
X200638264Y-90576400D01*
X200648299Y-90626847D01*
X200907082Y-91014144D01*
X201294379Y-91272927D01*
X201751226Y-91363800D01*
X202108774Y-91363800D01*
X202565621Y-91272927D01*
X202952918Y-91014144D01*
X203211701Y-90626847D01*
X203302574Y-90170000D01*
X203211701Y-89713153D01*
X202952918Y-89325856D01*
X202565621Y-89067073D01*
X202108774Y-88976200D01*
X201751226Y-88976200D01*
X201294379Y-89067073D01*
X200907082Y-89325856D01*
X200648299Y-89713153D01*
X200638264Y-89763600D01*
X197272336Y-89763600D01*
X194978368Y-87469632D01*
X194923597Y-87433035D01*
X194846523Y-87381535D01*
X194691000Y-87350600D01*
X191666669Y-87350600D01*
X191666669Y-87107000D01*
X191642241Y-86981096D01*
X191569550Y-86870438D01*
X191459813Y-86796364D01*
X191330000Y-86770331D01*
X189830000Y-86770331D01*
X188630000Y-86770331D01*
X188630000Y-86770331D01*
X187918867Y-86770331D01*
X187880000Y-86762600D01*
X187841133Y-86770331D01*
X187130000Y-86770331D01*
X187004096Y-86794759D01*
X186893438Y-86867450D01*
X186819364Y-86977187D01*
X186793331Y-87107000D01*
X186793331Y-87350600D01*
X186477336Y-87350600D01*
X185064400Y-85937664D01*
X185064400Y-84547136D01*
X186529632Y-86012368D01*
X186661478Y-86100466D01*
X186817000Y-86131400D01*
X192508331Y-86131400D01*
X192508331Y-86375000D01*
X192532759Y-86500904D01*
X192605450Y-86611562D01*
X192715187Y-86685636D01*
X192845000Y-86711669D01*
X194345000Y-86711669D01*
X194470904Y-86687241D01*
X194581562Y-86614550D01*
X194655636Y-86504813D01*
X194681669Y-86375000D01*
X194681669Y-85075000D01*
X194657241Y-84949096D01*
X194584550Y-84838438D01*
X194474813Y-84764364D01*
X194345000Y-84738331D01*
X195545000Y-84738331D01*
X195419096Y-84762759D01*
X195308438Y-84835450D01*
X195234364Y-84945187D01*
X195208331Y-85075000D01*
X195208331Y-86375000D01*
X195232759Y-86500904D01*
X195305450Y-86611562D01*
X195415187Y-86685636D01*
X195545000Y-86711669D01*
X197045000Y-86711669D01*
X197170904Y-86687241D01*
X197281562Y-86614550D01*
X197355636Y-86504813D01*
X197381669Y-86375000D01*
X197381669Y-86131400D01*
X197443664Y-86131400D01*
X199229632Y-87917368D01*
X199361477Y-88005465D01*
X199517000Y-88036400D01*
X200638264Y-88036400D01*
X200648299Y-88086847D01*
X200907082Y-88474144D01*
X201294379Y-88732927D01*
X201751226Y-88823800D01*
X202108774Y-88823800D01*
X202565621Y-88732927D01*
X202952918Y-88474144D01*
X203211701Y-88086847D01*
X203302574Y-87630000D01*
X203211701Y-87173153D01*
X202952918Y-86785856D01*
X202565621Y-86527073D01*
X202108774Y-86436200D01*
X201751226Y-86436200D01*
X201294379Y-86527073D01*
X200907082Y-86785856D01*
X200648299Y-87173153D01*
X200638264Y-87223600D01*
X199685336Y-87223600D01*
X197899368Y-85437632D01*
X197767523Y-85349535D01*
X197612000Y-85318600D01*
X197381669Y-85318600D01*
X197381669Y-85075000D01*
X197357241Y-84949096D01*
X197284550Y-84838438D01*
X197174813Y-84764364D01*
X197045000Y-84738331D01*
X195545000Y-84738331D01*
X194345000Y-84738331D01*
X194345000Y-84738331D01*
X192845000Y-84738331D01*
X192719096Y-84762759D01*
X192608438Y-84835450D01*
X192534364Y-84945187D01*
X192508331Y-85075000D01*
X192508331Y-85318600D01*
X186985336Y-85318600D01*
X185572400Y-83905664D01*
X185572400Y-83277136D01*
X186783632Y-84488368D01*
X186915477Y-84576465D01*
X186920331Y-84577431D01*
X186920331Y-84851000D01*
X186944759Y-84976904D01*
X187017450Y-85087562D01*
X187127187Y-85161636D01*
X187257000Y-85187669D01*
X188757000Y-85187669D01*
X188882904Y-85163241D01*
X188993562Y-85090550D01*
X189067636Y-84980813D01*
X189093669Y-84851000D01*
X189093669Y-83551000D01*
X189069241Y-83425096D01*
X188996550Y-83314438D01*
X188886813Y-83240364D01*
X188757000Y-83214331D01*
X189957000Y-83214331D01*
X189831096Y-83238759D01*
X189720438Y-83311450D01*
X189646364Y-83421187D01*
X189620331Y-83551000D01*
X189620331Y-84851000D01*
X189644759Y-84976904D01*
X189717450Y-85087562D01*
X189827187Y-85161636D01*
X189957000Y-85187669D01*
X191457000Y-85187669D01*
X191582904Y-85163241D01*
X191693562Y-85090550D01*
X191767636Y-84980813D01*
X191793669Y-84851000D01*
X191793669Y-84607400D01*
X198713664Y-84607400D01*
X199483632Y-85377368D01*
X199615477Y-85465465D01*
X199771000Y-85496400D01*
X200638264Y-85496400D01*
X200648299Y-85546847D01*
X200907082Y-85934144D01*
X201294379Y-86192927D01*
X201751226Y-86283800D01*
X202108774Y-86283800D01*
X202565621Y-86192927D01*
X202952918Y-85934144D01*
X203211701Y-85546847D01*
X203302574Y-85090000D01*
X203211701Y-84633153D01*
X202952918Y-84245856D01*
X202565621Y-83987073D01*
X202108774Y-83896200D01*
X201751226Y-83896200D01*
X201294379Y-83987073D01*
X200907082Y-84245856D01*
X200648299Y-84633153D01*
X200638264Y-84683600D01*
X199939336Y-84683600D01*
X199169368Y-83913632D01*
X199126742Y-83885150D01*
X199037523Y-83825535D01*
X198882000Y-83794600D01*
X191793669Y-83794600D01*
X191793669Y-83551000D01*
X191769241Y-83425096D01*
X191696550Y-83314438D01*
X191586813Y-83240364D01*
X191457000Y-83214331D01*
X189957000Y-83214331D01*
X188757000Y-83214331D01*
X188757000Y-83214331D01*
X187257000Y-83214331D01*
X187131096Y-83238759D01*
X187020438Y-83311450D01*
X186946364Y-83421187D01*
X186932927Y-83488191D01*
X186207400Y-82762664D01*
X186207400Y-82134136D01*
X186910632Y-82837368D01*
X187042477Y-82925465D01*
X187198000Y-82956400D01*
X192532000Y-82956400D01*
X192687523Y-82925465D01*
X192819368Y-82837368D01*
X193755368Y-81901368D01*
X193812060Y-81816523D01*
X193843465Y-81769523D01*
X193845624Y-81758669D01*
X194218000Y-81758669D01*
X194343904Y-81734241D01*
X194454562Y-81661550D01*
X194528636Y-81551813D01*
X194554669Y-81422000D01*
X194554669Y-80122000D01*
X194530241Y-79996096D01*
X194457550Y-79885438D01*
X194347813Y-79811364D01*
X194218000Y-79785331D01*
X195418000Y-79785331D01*
X195292096Y-79809759D01*
X195181438Y-79882450D01*
X195107364Y-79992187D01*
X195081331Y-80122000D01*
X195081331Y-81422000D01*
X195105759Y-81547904D01*
X195178450Y-81658562D01*
X195288187Y-81732636D01*
X195418000Y-81758669D01*
X196918000Y-81758669D01*
X197043904Y-81734241D01*
X197154562Y-81661550D01*
X197228636Y-81551813D01*
X197254669Y-81422000D01*
X197254669Y-81370405D01*
X198721632Y-82837368D01*
X198853477Y-82925465D01*
X199009000Y-82956400D01*
X200638264Y-82956400D01*
X200648299Y-83006847D01*
X200907082Y-83394144D01*
X201294379Y-83652927D01*
X201751226Y-83743800D01*
X202108774Y-83743800D01*
X202565621Y-83652927D01*
X202952918Y-83394144D01*
X203211701Y-83006847D01*
X203302574Y-82550000D01*
X203211701Y-82093153D01*
X202952918Y-81705856D01*
X202565621Y-81447073D01*
X202108774Y-81356200D01*
X201751226Y-81356200D01*
X201294379Y-81447073D01*
X200907082Y-81705856D01*
X200648299Y-82093153D01*
X200638264Y-82143600D01*
X199177336Y-82143600D01*
X197518368Y-80484632D01*
X197424539Y-80421937D01*
X197386523Y-80396535D01*
X197254669Y-80370308D01*
X197254669Y-80122000D01*
X197230241Y-79996096D01*
X197157550Y-79885438D01*
X197047813Y-79811364D01*
X196918000Y-79785331D01*
X195418000Y-79785331D01*
X194218000Y-79785331D01*
X194218000Y-79785331D01*
X192718000Y-79785331D01*
X192592096Y-79809759D01*
X192481438Y-79882450D01*
X192407364Y-79992187D01*
X192381331Y-80122000D01*
X192381331Y-81422000D01*
X192405759Y-81547904D01*
X192478450Y-81658562D01*
X192588187Y-81732636D01*
X192718000Y-81758669D01*
X192748595Y-81758669D01*
X192363664Y-82143600D01*
X187366336Y-82143600D01*
X186975988Y-81753252D01*
X187003000Y-81758669D01*
X188503000Y-81758669D01*
X188628904Y-81734241D01*
X188739562Y-81661550D01*
X188813636Y-81551813D01*
X188839669Y-81422000D01*
X188839669Y-80122000D01*
X188815241Y-79996096D01*
X188742550Y-79885438D01*
X188632813Y-79811364D01*
X188503000Y-79785331D01*
X187802068Y-79785331D01*
X186469368Y-78452632D01*
X186337523Y-78364535D01*
X186182000Y-78333600D01*
X176149000Y-78333600D01*
X175993478Y-78364534D01*
X175861632Y-78452632D01*
X174210632Y-80103632D01*
X174122535Y-80235477D01*
X174091600Y-80391000D01*
X174091600Y-81562975D01*
X174072096Y-81566759D01*
X173961438Y-81639450D01*
X173887364Y-81749187D01*
X173863028Y-81870540D01*
X173840241Y-81753096D01*
X173767550Y-81642438D01*
X173657813Y-81568364D01*
X173634400Y-81563669D01*
X173634400Y-81317387D01*
X173798294Y-81153778D01*
X173900983Y-80906475D01*
X173901217Y-80638699D01*
X173798959Y-80391217D01*
X173609778Y-80201706D01*
X173362475Y-80099017D01*
X173094699Y-80098783D01*
X172847217Y-80201041D01*
X172657706Y-80390222D01*
X172555017Y-80637525D01*
X172554783Y-80905301D01*
X172657041Y-81152783D01*
X172821600Y-81317629D01*
X172821600Y-81562975D01*
X172802096Y-81566759D01*
X172691438Y-81639450D01*
X172617364Y-81749187D01*
X172591331Y-81879000D01*
X172591331Y-83479000D01*
X172615759Y-83604904D01*
X172688450Y-83715562D01*
X172798187Y-83789636D01*
X172928000Y-83815669D01*
X173528000Y-83815669D01*
X173653904Y-83791241D01*
X173764562Y-83718550D01*
X173838636Y-83608813D01*
X173862972Y-83487460D01*
X173885759Y-83604904D01*
X173958450Y-83715562D01*
X174068187Y-83789636D01*
X174198000Y-83815669D01*
X174798000Y-83815669D01*
X174923904Y-83791241D01*
X175034562Y-83718550D01*
X175108636Y-83608813D01*
X175132972Y-83487460D01*
X175155759Y-83604904D01*
X175228450Y-83715562D01*
X175338187Y-83789636D01*
X175468000Y-83815669D01*
X176068000Y-83815669D01*
X176193904Y-83791241D01*
X176304562Y-83718550D01*
X176378636Y-83608813D01*
X176402972Y-83487460D01*
X176425759Y-83604904D01*
X176498450Y-83715562D01*
X176608187Y-83789636D01*
X176738000Y-83815669D01*
X177338000Y-83815669D01*
X177463904Y-83791241D01*
X177574562Y-83718550D01*
X177648636Y-83608813D01*
X177672972Y-83487460D01*
X177695759Y-83604904D01*
X177768450Y-83715562D01*
X177878187Y-83789636D01*
X178008000Y-83815669D01*
X178608000Y-83815669D01*
X178733904Y-83791241D01*
X178844562Y-83718550D01*
X178918636Y-83608813D01*
X178942972Y-83487460D01*
X178965759Y-83604904D01*
X179038450Y-83715562D01*
X179148187Y-83789636D01*
X179278000Y-83815669D01*
X179878000Y-83815669D01*
X180003904Y-83791241D01*
X180114562Y-83718550D01*
X180188636Y-83608813D01*
X180212972Y-83487460D01*
X180235759Y-83604904D01*
X180308450Y-83715562D01*
X180418187Y-83789636D01*
X180548000Y-83815669D01*
X181148000Y-83815669D01*
X181273904Y-83791241D01*
X181384562Y-83718550D01*
X181458636Y-83608813D01*
X181482972Y-83487460D01*
X181505759Y-83604904D01*
X181578450Y-83715562D01*
X181688187Y-83789636D01*
X181818000Y-83815669D01*
X182046933Y-83815669D01*
X182727600Y-84496336D01*
X182727600Y-87630000D01*
X182758535Y-87785523D01*
X182828612Y-87890400D01*
X182846632Y-87917368D01*
X184298600Y-89369337D01*
X184298600Y-92358331D01*
X183955000Y-92358331D01*
X183829096Y-92382759D01*
X183718438Y-92455450D01*
X183644364Y-92565187D01*
X183618331Y-92695000D01*
X183618331Y-93995000D01*
X183642759Y-94120904D01*
X183715450Y-94231562D01*
X183825187Y-94305636D01*
X183955000Y-94331669D01*
X185455000Y-94331669D01*
X185580904Y-94307241D01*
X185691562Y-94234550D01*
X185765636Y-94124813D01*
X185791669Y-93995000D01*
X185791669Y-92695000D01*
X185767241Y-92569096D01*
X185694550Y-92458438D01*
X185584813Y-92384364D01*
X185455000Y-92358331D01*
X186655000Y-92358331D01*
X185455000Y-92358331D01*
X185455000Y-92358331D01*
X186655000Y-92358331D01*
X186529096Y-92382759D01*
X186418438Y-92455450D01*
X186344364Y-92565187D01*
X186318331Y-92695000D01*
X186318331Y-93995000D01*
X186342759Y-94120904D01*
X186415450Y-94231562D01*
X186525187Y-94305636D01*
X186655000Y-94331669D01*
X188155000Y-94331669D01*
X188280904Y-94307241D01*
X188391562Y-94234550D01*
X188465636Y-94124813D01*
X188491669Y-93995000D01*
X188491669Y-93751400D01*
X188680664Y-93751400D01*
X190466632Y-95537368D01*
X181700459Y-95537368D01*
X181640191Y-95427800D01*
X180517800Y-95427800D01*
X180162200Y-95427800D01*
X180162200Y-95427800D01*
X180142200Y-95427800D01*
X180142200Y-95072200D01*
X180162200Y-95072200D01*
X180162200Y-93808050D01*
X180517800Y-93808050D01*
X180517800Y-95072200D01*
X181640191Y-95072200D01*
X181764462Y-94846271D01*
X181559852Y-94320284D01*
X181169530Y-93912637D01*
X180740382Y-93706263D01*
X180517800Y-93808050D01*
X180162200Y-93808050D01*
X180162200Y-93808050D01*
X179939618Y-93706263D01*
X179510470Y-93912637D01*
X179120148Y-94320284D01*
X178937714Y-94789264D01*
X178902927Y-94614379D01*
X178644144Y-94227082D01*
X178256847Y-93968299D01*
X177800000Y-93877426D01*
X175260000Y-93877426D01*
X175260000Y-93877426D01*
X174803153Y-93968299D01*
X174415856Y-94227082D01*
X174157073Y-94614379D01*
X174066200Y-95071226D01*
X174066200Y-95428774D01*
X174157073Y-95885621D01*
X174415856Y-96272918D01*
X174803153Y-96531701D01*
X175260000Y-96622574D01*
X175716847Y-96531701D01*
X176104144Y-96272918D01*
X176362927Y-95885621D01*
X176453800Y-95428774D01*
X176453800Y-95071226D01*
X176362927Y-94614379D01*
X176104144Y-94227082D01*
X175716847Y-93968299D01*
X175260000Y-93877426D01*
X177800000Y-93877426D01*
X175260000Y-93877426D01*
X175260000Y-93877426D01*
X177800000Y-93877426D01*
X177343153Y-93968299D01*
X176955856Y-94227082D01*
X176697073Y-94614379D01*
X176606200Y-95071226D01*
X176606200Y-95428774D01*
X176697073Y-95885621D01*
X176955856Y-96272918D01*
X177343153Y-96531701D01*
X177800000Y-96622574D01*
X178256847Y-96531701D01*
X178644144Y-96272918D01*
X178902927Y-95885621D01*
X178937714Y-95710736D01*
X179120148Y-96179716D01*
X179510470Y-96587363D01*
X179939618Y-96793737D01*
X153999184Y-96793737D01*
X154143807Y-96622574D01*
X172720000Y-96622574D01*
X173176847Y-96531701D01*
X173564144Y-96272918D01*
X173822927Y-95885621D01*
X173913800Y-95428774D01*
X173913800Y-95071226D01*
X173822927Y-94614379D01*
X173564144Y-94227082D01*
X173176847Y-93968299D01*
X172720000Y-93877426D01*
X172263153Y-93968299D01*
X171239982Y-93968299D01*
X171173413Y-93923364D01*
X171043600Y-93897331D01*
X169316400Y-93897331D01*
X169190496Y-93921759D01*
X169079838Y-93994450D01*
X169005764Y-94104187D01*
X168979731Y-94234000D01*
X168979731Y-96266000D01*
X169004159Y-96391904D01*
X169076850Y-96502562D01*
X169186587Y-96576636D01*
X169316400Y-96602669D01*
X171043600Y-96602669D01*
X171169504Y-96578241D01*
X171280162Y-96505550D01*
X171354236Y-96395813D01*
X171380269Y-96266000D01*
X171380269Y-94234000D01*
X171355841Y-94108096D01*
X171283150Y-93997438D01*
X171239982Y-93968299D01*
X172263153Y-93968299D01*
X171239982Y-93968299D01*
X171239982Y-93968299D01*
X172263153Y-93968299D01*
X171875856Y-94227082D01*
X171617073Y-94614379D01*
X171526200Y-95071226D01*
X171526200Y-95428774D01*
X171617073Y-95885621D01*
X171875856Y-96272918D01*
X172263153Y-96531701D01*
X172720000Y-96622574D01*
X154143807Y-96622574D01*
X154174948Y-96585719D01*
X154299337Y-96285382D01*
X154197550Y-96062800D01*
X153085800Y-96062800D01*
X152730200Y-96062800D01*
X152730200Y-96062800D01*
X152710200Y-96062800D01*
X152710200Y-95707200D01*
X152730200Y-95707200D01*
X152730200Y-95687200D01*
X153085800Y-95687200D01*
X153085800Y-95707200D01*
X154197550Y-95707200D01*
X154299337Y-95484618D01*
X154174948Y-95184281D01*
X154037323Y-95021400D01*
X164385000Y-95021400D01*
X164540523Y-94990465D01*
X164672368Y-94902368D01*
X167148067Y-92426669D01*
X168310000Y-92426669D01*
X168435904Y-92402241D01*
X168546562Y-92329550D01*
X168620636Y-92219813D01*
X168646669Y-92090000D01*
X168646669Y-90790000D01*
X168622241Y-90664096D01*
X168549550Y-90553438D01*
X168439813Y-90479364D01*
X168310000Y-90453331D01*
X166810000Y-90453331D01*
X166684096Y-90477759D01*
X166573438Y-90550450D01*
X166499364Y-90660187D01*
X166473331Y-90790000D01*
X166473331Y-91033600D01*
X166407709Y-91033600D01*
X166422669Y-90959000D01*
X166422669Y-90409000D01*
X166399658Y-90290400D01*
X171376664Y-90290400D01*
X171551600Y-90465336D01*
X171551600Y-90932000D01*
X171582535Y-91087523D01*
X171654725Y-91195562D01*
X171670632Y-91219368D01*
X172244795Y-91793531D01*
X172219475Y-91783017D01*
X171986549Y-91782813D01*
X171356368Y-91152632D01*
X171346669Y-91146151D01*
X171346669Y-90790000D01*
X171322241Y-90664096D01*
X171249550Y-90553438D01*
X171139813Y-90479364D01*
X171010000Y-90453331D01*
X169510000Y-90453331D01*
X169384096Y-90477759D01*
X169273438Y-90550450D01*
X169199364Y-90660187D01*
X169173331Y-90790000D01*
X169173331Y-92090000D01*
X169197759Y-92215904D01*
X169270450Y-92326562D01*
X169380187Y-92400636D01*
X169510000Y-92426669D01*
X171010000Y-92426669D01*
X171135904Y-92402241D01*
X171246562Y-92329550D01*
X171301873Y-92247609D01*
X171411985Y-92357721D01*
X171411783Y-92589301D01*
X171514041Y-92836783D01*
X171703222Y-93026294D01*
X171950525Y-93128983D01*
X172218301Y-93129217D01*
X172465783Y-93026959D01*
X172655294Y-92837778D01*
X172757983Y-92590475D01*
X172758217Y-92322699D01*
X172655959Y-92075217D01*
X172544736Y-91963800D01*
X172593000Y-91973400D01*
X179959000Y-91973400D01*
X180114523Y-91942465D01*
X180246368Y-91854368D01*
X181135368Y-90965368D01*
X181145762Y-90949813D01*
X181223465Y-90833523D01*
X181254400Y-90678000D01*
X181254400Y-90395025D01*
X181273904Y-90391241D01*
X181306211Y-90370019D01*
X181322739Y-90409922D01*
X181487077Y-90574261D01*
X181701795Y-90663200D01*
X181821950Y-90663200D01*
X181968000Y-90517150D01*
X181968000Y-89456800D01*
X182268000Y-89456800D01*
X182268000Y-90517150D01*
X182414050Y-90663200D01*
X182534205Y-90663200D01*
X182748923Y-90574261D01*
X182913261Y-90409922D01*
X183002200Y-90195204D01*
X183002200Y-89602850D01*
X182856150Y-89456800D01*
X182268000Y-89456800D01*
X181968000Y-89456800D01*
X181968000Y-89456800D01*
X181920200Y-89456800D01*
X181920200Y-89101200D01*
X181968000Y-89101200D01*
X181968000Y-88040850D01*
X181821950Y-87894800D01*
X182414050Y-87894800D01*
X182268000Y-88040850D01*
X182268000Y-89101200D01*
X182856150Y-89101200D01*
X183002200Y-88955150D01*
X183002200Y-88362796D01*
X182913261Y-88148078D01*
X182748923Y-87983739D01*
X182534205Y-87894800D01*
X182414050Y-87894800D01*
X181821950Y-87894800D01*
X181821950Y-87894800D01*
X181701795Y-87894800D01*
X181487077Y-87983739D01*
X181322739Y-88148078D01*
X181306356Y-88187631D01*
X181277813Y-88168364D01*
X181148000Y-88142331D01*
X180548000Y-88142331D01*
X180422096Y-88166759D01*
X180311438Y-88239450D01*
X180237364Y-88349187D01*
X180211331Y-88479000D01*
X180211331Y-88511796D01*
X180190241Y-88403096D01*
X180117550Y-88292438D01*
X180007813Y-88218364D01*
X179984400Y-88213669D01*
X179984400Y-88011000D01*
X179953465Y-87855477D01*
X179865368Y-87723632D01*
X179103368Y-86961632D01*
X179099429Y-86959000D01*
X178971523Y-86873535D01*
X178816000Y-86842600D01*
X171577000Y-86842600D01*
X171421477Y-86873535D01*
X171289632Y-86961632D01*
X171173664Y-87077600D01*
X166398885Y-87077600D01*
X166422669Y-86959000D01*
X166422669Y-86409000D01*
X166399658Y-86290400D01*
X166953000Y-86290400D01*
X167000977Y-86280857D01*
X167015000Y-86283669D01*
X168265000Y-86283669D01*
X168390904Y-86259241D01*
X168501562Y-86186550D01*
X168575636Y-86076813D01*
X168601669Y-85947000D01*
X168601669Y-85610405D01*
X168744985Y-85753721D01*
X168744783Y-85985301D01*
X168847041Y-86232783D01*
X169036222Y-86422294D01*
X169283525Y-86524983D01*
X169551301Y-86525217D01*
X169798783Y-86422959D01*
X169988294Y-86233778D01*
X170090983Y-85986475D01*
X170091217Y-85718699D01*
X169988959Y-85471217D01*
X169799778Y-85281706D01*
X169552475Y-85179017D01*
X169319549Y-85178813D01*
X169050368Y-84909632D01*
X168990109Y-84869368D01*
X168918523Y-84821535D01*
X168763000Y-84790600D01*
X168601669Y-84790600D01*
X168601669Y-84447000D01*
X168577241Y-84321096D01*
X168504550Y-84210438D01*
X168394813Y-84136364D01*
X168265000Y-84110331D01*
X167015000Y-84110331D01*
X166889096Y-84134759D01*
X166778438Y-84207450D01*
X166704364Y-84317187D01*
X166678331Y-84447000D01*
X166678331Y-85477600D01*
X166669208Y-85477600D01*
X166670200Y-85475204D01*
X166670200Y-85367550D01*
X166524150Y-85221500D01*
X165463800Y-85221500D01*
X165463800Y-85272331D01*
X165108200Y-85272331D01*
X165108200Y-85221500D01*
X164047850Y-85221500D01*
X163901800Y-85367550D01*
X163901800Y-85475204D01*
X163990739Y-85689922D01*
X164149331Y-85848515D01*
X164149331Y-86159000D01*
X164173759Y-86284904D01*
X164174110Y-86285439D01*
X164149331Y-86409000D01*
X164149331Y-86959000D01*
X164173759Y-87084904D01*
X164174110Y-87085439D01*
X164149331Y-87209000D01*
X164149331Y-87759000D01*
X164173759Y-87884904D01*
X164174110Y-87885439D01*
X164149331Y-88009000D01*
X164149331Y-88559000D01*
X164173759Y-88684904D01*
X164174110Y-88685439D01*
X164149331Y-88809000D01*
X164149331Y-89359000D01*
X164173759Y-89484904D01*
X164174110Y-89485439D01*
X164149331Y-89609000D01*
X164149331Y-90159000D01*
X164173759Y-90284904D01*
X164174110Y-90285439D01*
X164149331Y-90409000D01*
X164149331Y-90959000D01*
X164158621Y-91006881D01*
X164111000Y-90997331D01*
X163561000Y-90997331D01*
X163435096Y-91021759D01*
X163434561Y-91022110D01*
X163311000Y-90997331D01*
X162761000Y-90997331D01*
X162635096Y-91021759D01*
X162634561Y-91022110D01*
X162511000Y-90997331D01*
X161961000Y-90997331D01*
X161835096Y-91021759D01*
X161834561Y-91022110D01*
X161711000Y-90997331D01*
X161161000Y-90997331D01*
X161035096Y-91021759D01*
X161034561Y-91022110D01*
X160911000Y-90997331D01*
X160361000Y-90997331D01*
X160235096Y-91021759D01*
X160234561Y-91022110D01*
X160111000Y-90997331D01*
X159561000Y-90997331D01*
X159435096Y-91021759D01*
X159434561Y-91022110D01*
X159311000Y-90997331D01*
X158761000Y-90997331D01*
X158635096Y-91021759D01*
X158634561Y-91022110D01*
X158511000Y-90997331D01*
X157961000Y-90997331D01*
X157913119Y-91006621D01*
X157922669Y-90959000D01*
X157922669Y-90409000D01*
X157898241Y-90283096D01*
X157897890Y-90282561D01*
X157922669Y-90159000D01*
X157922669Y-89848515D01*
X158081261Y-89689922D01*
X158170200Y-89475204D01*
X158170200Y-89367550D01*
X158024150Y-89221500D01*
X156963800Y-89221500D01*
X156963800Y-89272331D01*
X156608200Y-89272331D01*
X156608200Y-89221500D01*
X156588200Y-89221500D01*
X156588200Y-88946500D01*
X156608200Y-88946500D01*
X156608200Y-88895669D01*
X156963800Y-88895669D01*
X156963800Y-88946500D01*
X158024150Y-88946500D01*
X158170200Y-88800450D01*
X158170200Y-88692796D01*
X158081261Y-88478078D01*
X157922669Y-88319485D01*
X157922669Y-88009000D01*
X157899658Y-87890400D01*
X158058646Y-87890400D01*
X158241222Y-88073294D01*
X158488525Y-88175983D01*
X158756301Y-88176217D01*
X159003783Y-88073959D01*
X159193294Y-87884778D01*
X159295983Y-87637475D01*
X159296217Y-87369699D01*
X159193959Y-87122217D01*
X159004778Y-86932706D01*
X158757475Y-86830017D01*
X158489699Y-86829783D01*
X158242217Y-86932041D01*
X158096404Y-87077600D01*
X157898885Y-87077600D01*
X157922669Y-86959000D01*
X157922669Y-86409000D01*
X157898241Y-86283096D01*
X157897890Y-86282561D01*
X157922669Y-86159000D01*
X157922669Y-85623400D01*
X158454664Y-85623400D01*
X158711985Y-85880721D01*
X158711783Y-86112301D01*
X158814041Y-86359783D01*
X159003222Y-86549294D01*
X159250525Y-86651983D01*
X159473977Y-86652178D01*
X159473783Y-86874301D01*
X159576041Y-87121783D01*
X159765222Y-87311294D01*
X160012525Y-87413983D01*
X160280301Y-87414217D01*
X160527783Y-87311959D01*
X160717294Y-87122778D01*
X160819983Y-86875475D01*
X160820217Y-86607699D01*
X160717959Y-86360217D01*
X160553400Y-86195371D01*
X160553400Y-85471000D01*
X160522465Y-85315477D01*
X160499900Y-85281706D01*
X160434368Y-85183631D01*
X160021405Y-84770669D01*
X160111000Y-84770669D01*
X160236904Y-84746241D01*
X160237439Y-84745890D01*
X160361000Y-84770669D01*
X160911000Y-84770669D01*
X161036904Y-84746241D01*
X161037439Y-84745890D01*
X161161000Y-84770669D01*
X161711000Y-84770669D01*
X161836904Y-84746241D01*
X161837439Y-84745890D01*
X161961000Y-84770669D01*
X162511000Y-84770669D01*
X162636904Y-84746241D01*
X162637439Y-84745890D01*
X162761000Y-84770669D01*
X163311000Y-84770669D01*
X163436904Y-84746241D01*
X163437439Y-84745890D01*
X163561000Y-84770669D01*
X163901800Y-84770669D01*
X163901800Y-84800450D01*
X164047850Y-84946500D01*
X165108200Y-84946500D01*
X165108200Y-84370850D01*
X164962150Y-84224800D01*
X165609850Y-84224800D01*
X165463800Y-84370850D01*
X165463800Y-84946500D01*
X166524150Y-84946500D01*
X166670200Y-84800450D01*
X166670200Y-84692796D01*
X166581261Y-84478078D01*
X166416923Y-84313739D01*
X166202205Y-84224800D01*
X165609850Y-84224800D01*
X164962150Y-84224800D01*
X164962150Y-84224800D01*
X164447669Y-84224800D01*
X164447669Y-82874800D01*
X166576850Y-82874800D01*
X166430800Y-83020850D01*
X166430800Y-83563205D01*
X166519739Y-83777923D01*
X166684078Y-83942261D01*
X166898796Y-84031200D01*
X167316150Y-84031200D01*
X167462200Y-83885150D01*
X167462200Y-82874800D01*
X167817800Y-82874800D01*
X167817800Y-83885150D01*
X167963850Y-84031200D01*
X168381204Y-84031200D01*
X168595922Y-83942261D01*
X168760261Y-83777923D01*
X168849200Y-83563205D01*
X168849200Y-83020850D01*
X168703150Y-82874800D01*
X167817800Y-82874800D01*
X167462200Y-82874800D01*
X167462200Y-82874800D01*
X166576850Y-82874800D01*
X164447669Y-82874800D01*
X164447669Y-82834000D01*
X164423241Y-82708096D01*
X164350550Y-82597438D01*
X164240813Y-82523364D01*
X164111000Y-82497331D01*
X163561000Y-82497331D01*
X163435096Y-82521759D01*
X163434561Y-82522110D01*
X163311000Y-82497331D01*
X162761000Y-82497331D01*
X162635096Y-82521759D01*
X162634561Y-82522110D01*
X162511000Y-82497331D01*
X161961000Y-82497331D01*
X161835096Y-82521759D01*
X161834561Y-82522110D01*
X161711000Y-82497331D01*
X161161000Y-82497331D01*
X161035096Y-82521759D01*
X161034561Y-82522110D01*
X160911000Y-82497331D01*
X160361000Y-82497331D01*
X160235096Y-82521759D01*
X160234561Y-82522110D01*
X160111000Y-82497331D01*
X159561000Y-82497331D01*
X159435096Y-82521759D01*
X159434561Y-82522110D01*
X159311000Y-82497331D01*
X158761000Y-82497331D01*
X158635096Y-82521759D01*
X158634561Y-82522110D01*
X158511000Y-82497331D01*
X157961000Y-82497331D01*
X157835096Y-82521759D01*
X157724438Y-82594450D01*
X157650364Y-82704187D01*
X157624331Y-82834000D01*
X157624331Y-84434000D01*
X157633621Y-84481881D01*
X157586000Y-84472331D01*
X155986000Y-84472331D01*
X155860096Y-84496759D01*
X155749438Y-84569450D01*
X155675364Y-84679187D01*
X155649331Y-84809000D01*
X155649331Y-85359000D01*
X155672342Y-85477600D01*
X154624596Y-85477600D01*
X154621959Y-85471217D01*
X154432778Y-85281706D01*
X154185475Y-85179017D01*
X153917699Y-85178783D01*
X153670217Y-85281041D01*
X153480706Y-85470222D01*
X153378017Y-85717525D01*
X153377783Y-85985301D01*
X153478296Y-86228560D01*
X149514368Y-82264632D01*
X149431708Y-82209400D01*
X149382523Y-82176535D01*
X149227000Y-82145600D01*
X148083669Y-82145600D01*
X148083669Y-81752000D01*
X148059241Y-81626096D01*
X147986550Y-81515438D01*
X147876813Y-81441364D01*
X147747000Y-81415331D01*
X147147000Y-81415331D01*
X147021096Y-81439759D01*
X146910438Y-81512450D01*
X146836364Y-81622187D01*
X146812028Y-81743540D01*
X146789241Y-81626096D01*
X146716550Y-81515438D01*
X146606813Y-81441364D01*
X146477000Y-81415331D01*
X145877000Y-81415331D01*
X145751096Y-81439759D01*
X145640438Y-81512450D01*
X145566364Y-81622187D01*
X145542028Y-81743540D01*
X145519241Y-81626096D01*
X145446550Y-81515438D01*
X145336813Y-81441364D01*
X145207000Y-81415331D01*
X144607000Y-81415331D01*
X144481096Y-81439759D01*
X144448789Y-81460981D01*
X144432261Y-81421078D01*
X144373984Y-81362800D01*
X166898796Y-81362800D01*
X166684078Y-81451739D01*
X166519739Y-81616077D01*
X166430800Y-81830795D01*
X166430800Y-82373150D01*
X166576850Y-82519200D01*
X167462200Y-82519200D01*
X167462200Y-81508850D01*
X167316150Y-81362800D01*
X167963850Y-81362800D01*
X167817800Y-81508850D01*
X167817800Y-82519200D01*
X168703150Y-82519200D01*
X168849200Y-82373150D01*
X168849200Y-81830795D01*
X168760261Y-81616077D01*
X168595922Y-81451739D01*
X168381204Y-81362800D01*
X167963850Y-81362800D01*
X167316150Y-81362800D01*
X167316150Y-81362800D01*
X166898796Y-81362800D01*
X144373984Y-81362800D01*
X144267923Y-81256739D01*
X144053205Y-81167800D01*
X143933050Y-81167800D01*
X143340950Y-81167800D01*
X143340950Y-81167800D01*
X143220795Y-81167800D01*
X143006077Y-81256739D01*
X143003000Y-81259816D01*
X142997923Y-81254739D01*
X142783205Y-81165800D01*
X142663050Y-81165800D01*
X142517000Y-81311850D01*
X142517000Y-82372200D01*
X142896850Y-82372200D01*
X142898850Y-82374200D01*
X143487000Y-82374200D01*
X143487000Y-81313850D01*
X143340950Y-81167800D01*
X143933050Y-81167800D01*
X143340950Y-81167800D01*
X143340950Y-81167800D01*
X143933050Y-81167800D01*
X143787000Y-81313850D01*
X143787000Y-82374200D01*
X143834800Y-82374200D01*
X143834800Y-82729800D01*
X143787000Y-82729800D01*
X143487000Y-82729800D01*
X143487000Y-82729800D01*
X143107150Y-82729800D01*
X143105150Y-82727800D01*
X142517000Y-82727800D01*
X142517000Y-83788150D01*
X142663050Y-83934200D01*
X142783205Y-83934200D01*
X142997923Y-83845261D01*
X143001000Y-83842184D01*
X143006077Y-83847261D01*
X143220795Y-83936200D01*
X143340950Y-83936200D01*
X143487000Y-83790150D01*
X143487000Y-82729800D01*
X143787000Y-82729800D01*
X143487000Y-82729800D01*
X143487000Y-82729800D01*
X143787000Y-82729800D01*
X143787000Y-83790150D01*
X143933050Y-83936200D01*
X144053205Y-83936200D01*
X144267923Y-83847261D01*
X144432261Y-83682922D01*
X144448644Y-83643369D01*
X144477187Y-83662636D01*
X144500600Y-83667331D01*
X144500600Y-83820000D01*
X144531535Y-83975523D01*
X137312400Y-83975523D01*
X137312400Y-83312000D01*
X137281465Y-83156477D01*
X137193368Y-83024632D01*
X136898536Y-82729800D01*
X137818850Y-82729800D01*
X137672800Y-82875850D01*
X137672800Y-83468204D01*
X137761739Y-83682922D01*
X137926077Y-83847261D01*
X138140795Y-83936200D01*
X138260950Y-83936200D01*
X138407000Y-83790150D01*
X138407000Y-82729800D01*
X137818850Y-82729800D01*
X136898536Y-82729800D01*
X136431368Y-82262632D01*
X136399468Y-82241317D01*
X136299523Y-82174535D01*
X136144000Y-82143600D01*
X135786669Y-82143600D01*
X135786669Y-81900000D01*
X135762241Y-81774096D01*
X135689550Y-81663438D01*
X135579813Y-81589364D01*
X135450000Y-81563331D01*
X133950000Y-81563331D01*
X133824096Y-81587759D01*
X133713438Y-81660450D01*
X133639364Y-81770187D01*
X133613331Y-81900000D01*
X133613331Y-83200000D01*
X133637759Y-83325904D01*
X133710450Y-83436562D01*
X133820187Y-83510636D01*
X133950000Y-83536669D01*
X135450000Y-83536669D01*
X135575904Y-83512241D01*
X135686562Y-83439550D01*
X135760636Y-83329813D01*
X135786669Y-83200000D01*
X135786669Y-82956400D01*
X135975664Y-82956400D01*
X136499600Y-83480336D01*
X136499600Y-85217000D01*
X136530535Y-85372523D01*
X136608238Y-85488813D01*
X136618632Y-85504368D01*
X137067864Y-85953600D01*
X136566336Y-85953600D01*
X135786669Y-85173933D01*
X135786669Y-84440000D01*
X135762241Y-84314096D01*
X135689550Y-84203438D01*
X135579813Y-84129364D01*
X135450000Y-84103331D01*
X133950000Y-84103331D01*
X133824096Y-84127759D01*
X133713438Y-84200450D01*
X133639364Y-84310187D01*
X133613331Y-84440000D01*
X133613331Y-85740000D01*
X133637759Y-85865904D01*
X133710450Y-85976562D01*
X133820187Y-86050636D01*
X133950000Y-86076669D01*
X135450000Y-86076669D01*
X135525319Y-86062055D01*
X136110632Y-86647368D01*
X136242477Y-86735465D01*
X136398000Y-86766400D01*
X137575864Y-86766400D01*
X137118664Y-87223600D01*
X135786669Y-87223600D01*
X135786669Y-86980000D01*
X135762241Y-86854096D01*
X135689550Y-86743438D01*
X135579813Y-86669364D01*
X135450000Y-86643331D01*
X133950000Y-86643331D01*
X133824096Y-86667759D01*
X133713438Y-86740450D01*
X133639364Y-86850187D01*
X133613331Y-86980000D01*
X133613331Y-88280000D01*
X133637759Y-88405904D01*
X133710450Y-88516562D01*
X133820187Y-88590636D01*
X133950000Y-88616669D01*
X135450000Y-88616669D01*
X135575904Y-88592241D01*
X135686562Y-88519550D01*
X135760636Y-88409813D01*
X135786669Y-88280000D01*
X135786669Y-88036400D01*
X137261600Y-88036400D01*
X137261600Y-88731664D01*
X136229664Y-89763600D01*
X135786669Y-89763600D01*
X135786669Y-89520000D01*
X135762241Y-89394096D01*
X135689550Y-89283438D01*
X135579813Y-89209364D01*
X135450000Y-89183331D01*
X133950000Y-89183331D01*
X133824096Y-89207759D01*
X133713438Y-89280450D01*
X133639364Y-89390187D01*
X133613331Y-89520000D01*
X133613331Y-90820000D01*
X133637759Y-90945904D01*
X133710450Y-91056562D01*
X133820187Y-91130636D01*
X133950000Y-91156669D01*
X135450000Y-91156669D01*
X135575904Y-91132241D01*
X135686562Y-91059550D01*
X135760636Y-90949813D01*
X135786669Y-90820000D01*
X135786669Y-90576400D01*
X136398000Y-90576400D01*
X136553523Y-90545465D01*
X136685368Y-90457368D01*
X137920331Y-89222405D01*
X137920331Y-89952000D01*
X137944759Y-90077904D01*
X138017450Y-90188562D01*
X138127187Y-90262636D01*
X138257000Y-90288669D01*
X138857000Y-90288669D01*
X138982904Y-90264241D01*
X139093562Y-90191550D01*
X139167636Y-90081813D01*
X139191972Y-89960460D01*
X139214759Y-90077904D01*
X139287450Y-90188562D01*
X139397187Y-90262636D01*
X139420600Y-90267331D01*
X139420600Y-92033664D01*
X138595664Y-92858600D01*
X134209669Y-92858600D01*
X134209669Y-92515000D01*
X134185241Y-92389096D01*
X134112550Y-92278438D01*
X134002813Y-92204364D01*
X133873000Y-92178331D01*
X132573000Y-92178331D01*
X132447096Y-92202759D01*
X132336438Y-92275450D01*
X132262364Y-92385187D01*
X132236331Y-92515000D01*
X132236331Y-94015000D01*
X132260759Y-94140904D01*
X132305228Y-94208600D01*
X131740336Y-94208600D01*
X131224368Y-93692632D01*
X131192592Y-93671400D01*
X131092523Y-93604535D01*
X130937000Y-93573600D01*
X127957454Y-93573600D01*
X127983636Y-93534813D01*
X128009669Y-93405000D01*
X128009669Y-92880000D01*
X127985241Y-92754096D01*
X127929400Y-92669089D01*
X127929400Y-92344000D01*
X127926526Y-92329550D01*
X127898466Y-92188478D01*
X127810368Y-92056632D01*
X127414368Y-91660632D01*
X127334212Y-91607073D01*
X127282523Y-91572535D01*
X127127000Y-91541600D01*
X123825000Y-91541600D01*
X123669477Y-91572535D01*
X123617788Y-91607073D01*
X123537632Y-91660632D01*
X122894664Y-92303600D01*
X120671736Y-92303600D01*
X120661701Y-92253153D01*
X120402918Y-91865856D01*
X120015621Y-91607073D01*
X119558774Y-91516200D01*
X119201226Y-91516200D01*
X118744379Y-91607073D01*
X118357082Y-91865856D01*
X118098299Y-92253153D01*
X118007426Y-92710000D01*
X118098299Y-93166847D01*
X118357082Y-93554144D01*
X118744379Y-93812927D01*
X119201226Y-93903800D01*
X119558774Y-93903800D01*
X120015621Y-93812927D01*
X120402918Y-93554144D01*
X120590270Y-93273750D01*
X125634850Y-93273750D01*
X125488800Y-93419800D01*
X125488800Y-93521204D01*
X125577739Y-93735922D01*
X125742077Y-93900261D01*
X125956795Y-93989200D01*
X126001950Y-93989200D01*
X126148000Y-93843150D01*
X126148000Y-93273750D01*
X125634850Y-93273750D01*
X120590270Y-93273750D01*
X120661701Y-93166847D01*
X120671736Y-93116400D01*
X123063000Y-93116400D01*
X123218523Y-93085465D01*
X123350368Y-92997368D01*
X123993336Y-92354400D01*
X125815322Y-92354400D01*
X125742077Y-92384739D01*
X125577739Y-92549078D01*
X125488800Y-92763796D01*
X125488800Y-92865200D01*
X125634850Y-93011250D01*
X126148000Y-93011250D01*
X126148000Y-92944700D01*
X126298000Y-92944700D01*
X126298000Y-93011250D01*
X126373000Y-93011250D01*
X126373000Y-93273750D01*
X126298000Y-93273750D01*
X126298000Y-93843150D01*
X126444050Y-93989200D01*
X126489205Y-93989200D01*
X126552081Y-93963156D01*
X126585632Y-94013368D01*
X126790595Y-94218331D01*
X126723000Y-94218331D01*
X126597096Y-94242759D01*
X126548108Y-94274939D01*
X126502813Y-94244364D01*
X126373000Y-94218331D01*
X126073000Y-94218331D01*
X125947096Y-94242759D01*
X125836438Y-94315450D01*
X125771873Y-94411100D01*
X124384500Y-94411100D01*
X124245261Y-94438796D01*
X124228977Y-94442035D01*
X124097132Y-94530132D01*
X123783664Y-94843600D01*
X120671736Y-94843600D01*
X120661701Y-94793153D01*
X120402918Y-94405856D01*
X120015621Y-94147073D01*
X119558774Y-94056200D01*
X119201226Y-94056200D01*
X118744379Y-94147073D01*
X118357082Y-94405856D01*
X118098299Y-94793153D01*
X118007426Y-95250000D01*
X118098299Y-95706847D01*
X118357082Y-96094144D01*
X118744379Y-96352927D01*
X119201226Y-96443800D01*
X119558774Y-96443800D01*
X120015621Y-96352927D01*
X120402918Y-96094144D01*
X120661701Y-95706847D01*
X120671736Y-95656400D01*
X123952000Y-95656400D01*
X124107523Y-95625465D01*
X124239368Y-95537368D01*
X124552836Y-95223900D01*
X125772581Y-95223900D01*
X125833450Y-95316562D01*
X125943187Y-95390636D01*
X126073000Y-95416669D01*
X126373000Y-95416669D01*
X126466600Y-95398509D01*
X126466600Y-95664000D01*
X126497535Y-95819523D01*
X126541286Y-95885000D01*
X126585632Y-95951368D01*
X126886632Y-96252368D01*
X127018477Y-96340465D01*
X127174000Y-96371400D01*
X132236331Y-96371400D01*
X132236331Y-96715000D01*
X132260759Y-96840904D01*
X132333450Y-96951562D01*
X132443187Y-97025636D01*
X132573000Y-97051669D01*
X133873000Y-97051669D01*
X133998904Y-97027241D01*
X134109562Y-96954550D01*
X134183636Y-96844813D01*
X134209669Y-96715000D01*
X134209669Y-95215000D01*
X134185241Y-95089096D01*
X134140772Y-95021400D01*
X135104331Y-95021400D01*
X135104331Y-95265000D01*
X135128759Y-95390904D01*
X135201450Y-95501562D01*
X135311187Y-95575636D01*
X135441000Y-95601669D01*
X136941000Y-95601669D01*
X137066904Y-95577241D01*
X137177562Y-95504550D01*
X137251636Y-95394813D01*
X137277669Y-95265000D01*
X137277669Y-93965000D01*
X137253241Y-93839096D01*
X137180550Y-93728438D01*
X137096051Y-93671400D01*
X137986719Y-93671400D01*
X137904438Y-93725450D01*
X137830364Y-93835187D01*
X137804331Y-93965000D01*
X137804331Y-95265000D01*
X137828759Y-95390904D01*
X137901450Y-95501562D01*
X138011187Y-95575636D01*
X138141000Y-95601669D01*
X139641000Y-95601669D01*
X139766904Y-95577241D01*
X139877562Y-95504550D01*
X139951636Y-95394813D01*
X139977669Y-95265000D01*
X139977669Y-94658067D01*
X141384368Y-93251368D01*
X141472466Y-93119522D01*
X141503400Y-92964000D01*
X141503400Y-90268025D01*
X141522904Y-90264241D01*
X141633562Y-90191550D01*
X141707636Y-90081813D01*
X141731972Y-89960460D01*
X141754759Y-90077904D01*
X141827450Y-90188562D01*
X141937187Y-90262636D01*
X142067000Y-90288669D01*
X142667000Y-90288669D01*
X142792904Y-90264241D01*
X142903562Y-90191550D01*
X142977636Y-90081813D01*
X143001972Y-89960460D01*
X143024759Y-90077904D01*
X143097450Y-90188562D01*
X143207187Y-90262636D01*
X143337000Y-90288669D01*
X143937000Y-90288669D01*
X144062904Y-90264241D01*
X144173562Y-90191550D01*
X144247636Y-90081813D01*
X144271972Y-89960460D01*
X144294759Y-90077904D01*
X144367450Y-90188562D01*
X144477187Y-90262636D01*
X144607000Y-90288669D01*
X145207000Y-90288669D01*
X145332904Y-90264241D01*
X145443562Y-90191550D01*
X145517636Y-90081813D01*
X145541972Y-89960460D01*
X145564759Y-90077904D01*
X145637450Y-90188562D01*
X145747187Y-90262636D01*
X145877000Y-90288669D01*
X146477000Y-90288669D01*
X146602904Y-90264241D01*
X146713562Y-90191550D01*
X146787636Y-90081813D01*
X146811972Y-89960460D01*
X146834759Y-90077904D01*
X146907450Y-90188562D01*
X147017187Y-90262636D01*
X147040600Y-90267331D01*
X147040600Y-90640613D01*
X146876706Y-90804222D01*
X146774017Y-91051525D01*
X146773783Y-91319301D01*
X146876041Y-91566783D01*
X147065222Y-91756294D01*
X147312525Y-91858983D01*
X147580301Y-91859217D01*
X147827783Y-91756959D01*
X148017294Y-91567778D01*
X148119983Y-91320475D01*
X148120217Y-91052699D01*
X148017959Y-90805217D01*
X147853400Y-90640371D01*
X147853400Y-90268025D01*
X147872904Y-90264241D01*
X147983562Y-90191550D01*
X148057636Y-90081813D01*
X148083669Y-89952000D01*
X148083669Y-89604731D01*
X149504400Y-89604731D01*
X149378496Y-89629159D01*
X149267838Y-89701850D01*
X149193764Y-89811587D01*
X149167731Y-89941400D01*
X149167731Y-91668600D01*
X149192159Y-91794504D01*
X149264850Y-91905162D01*
X149374587Y-91979236D01*
X149504400Y-92005269D01*
X151231600Y-92005269D01*
X151357504Y-91980841D01*
X151468162Y-91908150D01*
X151542236Y-91798413D01*
X151568269Y-91668600D01*
X151568269Y-89941400D01*
X151543841Y-89815496D01*
X151471150Y-89704838D01*
X151361413Y-89630764D01*
X151263858Y-89611200D01*
X152884612Y-89611200D01*
X152427765Y-89702073D01*
X152040468Y-89960856D01*
X151781685Y-90348153D01*
X151690812Y-90805000D01*
X151781685Y-91261847D01*
X152040468Y-91649144D01*
X152427765Y-91907927D01*
X152884612Y-91998800D01*
X152931388Y-91998800D01*
X153388235Y-91907927D01*
X153775532Y-91649144D01*
X154034315Y-91261847D01*
X154125188Y-90805000D01*
X154034315Y-90348153D01*
X153775532Y-89960856D01*
X153388235Y-89702073D01*
X152931388Y-89611200D01*
X152884612Y-89611200D01*
X151263858Y-89611200D01*
X151231600Y-89604731D01*
X149504400Y-89604731D01*
X148083669Y-89604731D01*
X148083669Y-88352000D01*
X148059241Y-88226096D01*
X147986550Y-88115438D01*
X147876813Y-88041364D01*
X147747000Y-88015331D01*
X147147000Y-88015331D01*
X147021096Y-88039759D01*
X146910438Y-88112450D01*
X146836364Y-88222187D01*
X146812028Y-88343540D01*
X146789241Y-88226096D01*
X146716550Y-88115438D01*
X146606813Y-88041364D01*
X146583400Y-88036669D01*
X146583400Y-87757000D01*
X146552465Y-87601477D01*
X146464368Y-87469632D01*
X144559368Y-85564632D01*
X144532751Y-85546847D01*
X144427523Y-85476535D01*
X144272000Y-85445600D01*
X137709336Y-85445600D01*
X137312400Y-85048664D01*
X137312400Y-83975523D01*
X144531535Y-83975523D01*
X137312400Y-83975523D01*
X137312400Y-83975523D01*
X144531535Y-83975523D01*
X144578278Y-84045478D01*
X144619632Y-84107368D01*
X145381632Y-84869368D01*
X145513477Y-84957465D01*
X145669000Y-84988400D01*
X149183664Y-84988400D01*
X153263600Y-89068336D01*
X153263600Y-89154000D01*
X153294535Y-89309523D01*
X153335859Y-89371368D01*
X153382632Y-89441368D01*
X156362632Y-92421368D01*
X156494477Y-92509465D01*
X156650000Y-92540400D01*
X157624331Y-92540400D01*
X157624331Y-92934000D01*
X157648759Y-93059904D01*
X157721450Y-93170562D01*
X157831187Y-93244636D01*
X157961000Y-93270669D01*
X158511000Y-93270669D01*
X158636904Y-93246241D01*
X158637439Y-93245890D01*
X158761000Y-93270669D01*
X159311000Y-93270669D01*
X159436904Y-93246241D01*
X159437439Y-93245890D01*
X159561000Y-93270669D01*
X160111000Y-93270669D01*
X160236904Y-93246241D01*
X160237439Y-93245890D01*
X160361000Y-93270669D01*
X160911000Y-93270669D01*
X161036904Y-93246241D01*
X161037439Y-93245890D01*
X161161000Y-93270669D01*
X161711000Y-93270669D01*
X161836904Y-93246241D01*
X161837439Y-93245890D01*
X161961000Y-93270669D01*
X162511000Y-93270669D01*
X162636904Y-93246241D01*
X162637439Y-93245890D01*
X162761000Y-93270669D01*
X163311000Y-93270669D01*
X163436904Y-93246241D01*
X163437439Y-93245890D01*
X163561000Y-93270669D01*
X164111000Y-93270669D01*
X164236904Y-93246241D01*
X164347562Y-93173550D01*
X164421636Y-93063813D01*
X164447669Y-92934000D01*
X164447669Y-91334000D01*
X164438379Y-91286119D01*
X164486000Y-91295669D01*
X165142933Y-91295669D01*
X165574632Y-91727368D01*
X165706477Y-91815465D01*
X165862000Y-91846400D01*
X166473331Y-91846400D01*
X166473331Y-91951933D01*
X164216664Y-94208600D01*
X153746414Y-94208600D01*
X153775532Y-94189144D01*
X154034315Y-93801847D01*
X154125188Y-93345000D01*
X154034315Y-92888153D01*
X153775532Y-92500856D01*
X153388235Y-92242073D01*
X152931388Y-92151200D01*
X152884612Y-92151200D01*
X150391388Y-92151200D01*
X150391388Y-92151200D01*
X150344612Y-92151200D01*
X149887765Y-92242073D01*
X149500468Y-92500856D01*
X149241685Y-92888153D01*
X149150812Y-93345000D01*
X149241685Y-93801847D01*
X149500468Y-94189144D01*
X149887765Y-94447927D01*
X150344612Y-94538800D01*
X150391388Y-94538800D01*
X150848235Y-94447927D01*
X151235532Y-94189144D01*
X151494315Y-93801847D01*
X151585188Y-93345000D01*
X151494315Y-92888153D01*
X151235532Y-92500856D01*
X150848235Y-92242073D01*
X150391388Y-92151200D01*
X152884612Y-92151200D01*
X150391388Y-92151200D01*
X150391388Y-92151200D01*
X152884612Y-92151200D01*
X152427765Y-92242073D01*
X152040468Y-92500856D01*
X151781685Y-92888153D01*
X151690812Y-93345000D01*
X151781685Y-93801847D01*
X152040468Y-94189144D01*
X152069586Y-94208600D01*
X151892000Y-94208600D01*
X151736477Y-94239535D01*
X151604632Y-94327632D01*
X151029245Y-94903019D01*
X150848235Y-94782073D01*
X150391388Y-94691200D01*
X150344612Y-94691200D01*
X149887765Y-94782073D01*
X149500468Y-95040856D01*
X149241685Y-95428153D01*
X149150812Y-95885000D01*
X149241685Y-96341847D01*
X149500468Y-96729144D01*
X149887765Y-96987927D01*
X150344612Y-97078800D01*
X117118600Y-97078800D01*
X117118600Y-86308535D01*
X124326716Y-86308535D01*
X124299632Y-86326632D01*
X123402664Y-87223600D01*
X120671736Y-87223600D01*
X120661701Y-87173153D01*
X120402918Y-86785856D01*
X120015621Y-86527073D01*
X119558774Y-86436200D01*
X119201226Y-86436200D01*
X118744379Y-86527073D01*
X118357082Y-86785856D01*
X118098299Y-87173153D01*
X118007426Y-87630000D01*
X118098299Y-88086847D01*
X118357082Y-88474144D01*
X118744379Y-88732927D01*
X119201226Y-88823800D01*
X119558774Y-88823800D01*
X120015621Y-88732927D01*
X120402918Y-88474144D01*
X120661701Y-88086847D01*
X120671736Y-88036400D01*
X123571000Y-88036400D01*
X123726523Y-88005465D01*
X123824871Y-87939750D01*
X125761850Y-87939750D01*
X125615800Y-88085800D01*
X125615800Y-88187204D01*
X125704739Y-88401922D01*
X125869077Y-88566261D01*
X126083795Y-88655200D01*
X126128950Y-88655200D01*
X126275000Y-88509150D01*
X126275000Y-87939750D01*
X125761850Y-87939750D01*
X123824871Y-87939750D01*
X123858368Y-87917368D01*
X124755336Y-87020400D01*
X125942322Y-87020400D01*
X125869077Y-87050739D01*
X125704739Y-87215078D01*
X125615800Y-87429796D01*
X125615800Y-87531200D01*
X125761850Y-87677250D01*
X126275000Y-87677250D01*
X126275000Y-87610700D01*
X126425000Y-87610700D01*
X126425000Y-87677250D01*
X126500000Y-87677250D01*
X126500000Y-87939750D01*
X126425000Y-87939750D01*
X126425000Y-88509150D01*
X126571050Y-88655200D01*
X126616205Y-88655200D01*
X126757102Y-88596838D01*
X127027540Y-88867276D01*
X127010486Y-88884331D01*
X126850000Y-88884331D01*
X126724096Y-88908759D01*
X126675108Y-88940939D01*
X126629813Y-88910364D01*
X126500000Y-88884331D01*
X126200000Y-88884331D01*
X126074096Y-88908759D01*
X125963438Y-88981450D01*
X125898873Y-89077100D01*
X124765500Y-89077100D01*
X124609977Y-89108035D01*
X124498501Y-89182522D01*
X124478132Y-89196132D01*
X123910664Y-89763600D01*
X120671736Y-89763600D01*
X120661701Y-89713153D01*
X120402918Y-89325856D01*
X120015621Y-89067073D01*
X119558774Y-88976200D01*
X119201226Y-88976200D01*
X118744379Y-89067073D01*
X118357082Y-89325856D01*
X118098299Y-89713153D01*
X118007426Y-90170000D01*
X118098299Y-90626847D01*
X118357082Y-91014144D01*
X118744379Y-91272927D01*
X119201226Y-91363800D01*
X119558774Y-91363800D01*
X120015621Y-91272927D01*
X120402918Y-91014144D01*
X120661701Y-90626847D01*
X120671736Y-90576400D01*
X124079000Y-90576400D01*
X124234523Y-90545465D01*
X124366368Y-90457368D01*
X124933836Y-89889900D01*
X125899581Y-89889900D01*
X125960450Y-89982562D01*
X126070187Y-90056636D01*
X126200000Y-90082669D01*
X126500000Y-90082669D01*
X126593600Y-90064509D01*
X126593600Y-90424000D01*
X126624535Y-90579523D01*
X126668040Y-90644632D01*
X126712632Y-90711368D01*
X126966632Y-90965368D01*
X127098477Y-91053465D01*
X127254000Y-91084400D01*
X129794000Y-91084400D01*
X129949523Y-91053465D01*
X130081368Y-90965368D01*
X130470337Y-90576400D01*
X130913331Y-90576400D01*
X130913331Y-90820000D01*
X130937759Y-90945904D01*
X131010450Y-91056562D01*
X131120187Y-91130636D01*
X131250000Y-91156669D01*
X132750000Y-91156669D01*
X132875904Y-91132241D01*
X132986562Y-91059550D01*
X133060636Y-90949813D01*
X133086669Y-90820000D01*
X133086669Y-89520000D01*
X133062241Y-89394096D01*
X132989550Y-89283438D01*
X132879813Y-89209364D01*
X132750000Y-89183331D01*
X131250000Y-89183331D01*
X131124096Y-89207759D01*
X131013438Y-89280450D01*
X130939364Y-89390187D01*
X130913331Y-89520000D01*
X130913331Y-89763600D01*
X130302000Y-89763600D01*
X130146477Y-89794535D01*
X130014631Y-89882632D01*
X129625664Y-90271600D01*
X128057678Y-90271600D01*
X128130923Y-90241261D01*
X128295261Y-90076922D01*
X128384200Y-89862204D01*
X128384200Y-89760800D01*
X128238150Y-89614750D01*
X127725000Y-89614750D01*
X127725000Y-89681300D01*
X127575000Y-89681300D01*
X127575000Y-89614750D01*
X127500000Y-89614750D01*
X127500000Y-89352250D01*
X127575000Y-89352250D01*
X127575000Y-89285700D01*
X127725000Y-89285700D01*
X127725000Y-89352250D01*
X128238150Y-89352250D01*
X128384200Y-89206200D01*
X128384200Y-89104796D01*
X128362497Y-89052400D01*
X128778000Y-89052400D01*
X128933523Y-89021465D01*
X129065368Y-88933368D01*
X129962336Y-88036400D01*
X130913331Y-88036400D01*
X130913331Y-88280000D01*
X130937759Y-88405904D01*
X131010450Y-88516562D01*
X131120187Y-88590636D01*
X131250000Y-88616669D01*
X132750000Y-88616669D01*
X132875904Y-88592241D01*
X132986562Y-88519550D01*
X133060636Y-88409813D01*
X133086669Y-88280000D01*
X133086669Y-86980000D01*
X133062241Y-86854096D01*
X132989550Y-86743438D01*
X132879813Y-86669364D01*
X132750000Y-86643331D01*
X131250000Y-86643331D01*
X131124096Y-86667759D01*
X131013438Y-86740450D01*
X130939364Y-86850187D01*
X130913331Y-86980000D01*
X130913331Y-87223600D01*
X129794000Y-87223600D01*
X129638477Y-87254535D01*
X129574374Y-87297368D01*
X129506632Y-87342632D01*
X128609664Y-88239600D01*
X128084454Y-88239600D01*
X128110636Y-88200813D01*
X128136669Y-88071000D01*
X128136669Y-87546000D01*
X128112241Y-87420096D01*
X128056400Y-87335089D01*
X128056400Y-87010000D01*
X128046256Y-86959000D01*
X128025466Y-86854478D01*
X127937368Y-86722632D01*
X127541368Y-86326632D01*
X127514284Y-86308535D01*
X127409523Y-86238535D01*
X127254000Y-86207600D01*
X124587000Y-86207600D01*
X119941855Y-86207600D01*
X120015621Y-86192927D01*
X120402918Y-85934144D01*
X120661701Y-85546847D01*
X120671736Y-85496400D01*
X121539000Y-85496400D01*
X121694523Y-85465465D01*
X121826368Y-85377368D01*
X122266837Y-84936900D01*
X125899581Y-84936900D01*
X125960450Y-85029562D01*
X126070187Y-85103636D01*
X126200000Y-85129669D01*
X126500000Y-85129669D01*
X126593600Y-85111509D01*
X126593600Y-85471000D01*
X126624535Y-85626523D01*
X126700359Y-85740000D01*
X126712632Y-85758368D01*
X126839632Y-85885368D01*
X126971477Y-85973465D01*
X127127000Y-86004400D01*
X130048000Y-86004400D01*
X130203523Y-85973465D01*
X130335368Y-85885368D01*
X130724337Y-85496400D01*
X130913331Y-85496400D01*
X130913331Y-85740000D01*
X130937759Y-85865904D01*
X131010450Y-85976562D01*
X131120187Y-86050636D01*
X131250000Y-86076669D01*
X132750000Y-86076669D01*
X132875904Y-86052241D01*
X132986562Y-85979550D01*
X133060636Y-85869813D01*
X133086669Y-85740000D01*
X133086669Y-84440000D01*
X133062241Y-84314096D01*
X132989550Y-84203438D01*
X132879813Y-84129364D01*
X132750000Y-84103331D01*
X131250000Y-84103331D01*
X131124096Y-84127759D01*
X131013438Y-84200450D01*
X130939364Y-84310187D01*
X130913331Y-84440000D01*
X130913331Y-84683600D01*
X130556000Y-84683600D01*
X130400477Y-84714535D01*
X130268631Y-84802632D01*
X129879664Y-85191600D01*
X128227583Y-85191600D01*
X128295261Y-85123922D01*
X128384200Y-84909204D01*
X128384200Y-84807800D01*
X128238150Y-84661750D01*
X127725000Y-84661750D01*
X127725000Y-84728300D01*
X127575000Y-84728300D01*
X127575000Y-84661750D01*
X127500000Y-84661750D01*
X127500000Y-84399250D01*
X127575000Y-84399250D01*
X127575000Y-84332700D01*
X127725000Y-84332700D01*
X127725000Y-84399250D01*
X128238150Y-84399250D01*
X128384200Y-84253200D01*
X128384200Y-84151796D01*
X128362497Y-84099400D01*
X128524000Y-84099400D01*
X128679523Y-84068465D01*
X128811368Y-83980368D01*
X129835336Y-82956400D01*
X130913331Y-82956400D01*
X130913331Y-83200000D01*
X130937759Y-83325904D01*
X131010450Y-83436562D01*
X131120187Y-83510636D01*
X131250000Y-83536669D01*
X132750000Y-83536669D01*
X132875904Y-83512241D01*
X132986562Y-83439550D01*
X133060636Y-83329813D01*
X133086669Y-83200000D01*
X133086669Y-81900000D01*
X133062241Y-81774096D01*
X132989550Y-81663438D01*
X132879813Y-81589364D01*
X132750000Y-81563331D01*
X131250000Y-81563331D01*
X131124096Y-81587759D01*
X131013438Y-81660450D01*
X130939364Y-81770187D01*
X130913331Y-81900000D01*
X130913331Y-82143600D01*
X129667000Y-82143600D01*
X129511477Y-82174535D01*
X129379632Y-82262632D01*
X128355664Y-83286600D01*
X128084454Y-83286600D01*
X128110636Y-83247813D01*
X128136669Y-83118000D01*
X128136669Y-82593000D01*
X128112241Y-82467096D01*
X128056400Y-82382089D01*
X128056400Y-81803000D01*
X128025465Y-81647477D01*
X127937368Y-81515632D01*
X127589536Y-81167800D01*
X138140795Y-81167800D01*
X137926077Y-81256739D01*
X137761739Y-81421078D01*
X137672800Y-81635796D01*
X137672800Y-82228150D01*
X137818850Y-82374200D01*
X138407000Y-82374200D01*
X138407000Y-81313850D01*
X138260950Y-81167800D01*
X138140795Y-81167800D01*
X127589536Y-81167800D01*
X127287368Y-80865632D01*
X127223269Y-80822802D01*
X127155523Y-80777535D01*
X127000000Y-80746600D01*
X122809000Y-80746600D01*
X122653477Y-80777535D01*
X122521632Y-80865632D01*
X121243664Y-82143600D01*
X120732669Y-82143600D01*
X120732669Y-81686400D01*
X120708241Y-81560496D01*
X120635550Y-81449838D01*
X120525813Y-81375764D01*
X120396000Y-81349731D01*
X118364000Y-81349731D01*
X118238096Y-81374159D01*
X118127438Y-81446850D01*
X118053364Y-81556587D01*
X118027331Y-81686400D01*
X118027331Y-83413600D01*
X118051759Y-83539504D01*
X118124450Y-83650162D01*
X118234187Y-83724236D01*
X118364000Y-83750269D01*
X120396000Y-83750269D01*
X120521904Y-83725841D01*
X120632562Y-83653150D01*
X120706636Y-83543413D01*
X120732669Y-83413600D01*
X120732669Y-82986750D01*
X125761850Y-82986750D01*
X125615800Y-83132800D01*
X125615800Y-83234204D01*
X125704739Y-83448922D01*
X125869077Y-83613261D01*
X126083795Y-83702200D01*
X126128950Y-83702200D01*
X126275000Y-83556150D01*
X126275000Y-82986750D01*
X125761850Y-82986750D01*
X120732669Y-82986750D01*
X120732669Y-82956400D01*
X121412000Y-82956400D01*
X121567523Y-82925465D01*
X121699368Y-82837368D01*
X122527936Y-82008800D01*
X126083795Y-82008800D01*
X125869077Y-82097739D01*
X125704739Y-82262078D01*
X125615800Y-82476796D01*
X125615800Y-82578200D01*
X125761850Y-82724250D01*
X126275000Y-82724250D01*
X126275000Y-82154850D01*
X126128950Y-82008800D01*
X126083795Y-82008800D01*
X122527936Y-82008800D01*
X122977336Y-81559400D01*
X126831664Y-81559400D01*
X127243600Y-81971336D01*
X127243600Y-82275102D01*
X127150000Y-82256331D01*
X126989514Y-82256331D01*
X126830923Y-82097739D01*
X126616205Y-82008800D01*
X126571050Y-82008800D01*
X126425000Y-82154850D01*
X126425000Y-82724250D01*
X126500000Y-82724250D01*
X126500000Y-82986750D01*
X126425000Y-82986750D01*
X126425000Y-83556150D01*
X126571050Y-83702200D01*
X126616205Y-83702200D01*
X126679081Y-83676156D01*
X126696483Y-83702200D01*
X126712632Y-83726368D01*
X126917595Y-83931331D01*
X126850000Y-83931331D01*
X126724096Y-83955759D01*
X126675108Y-83987939D01*
X126629813Y-83957364D01*
X126500000Y-83931331D01*
X126200000Y-83931331D01*
X126074096Y-83955759D01*
X125963438Y-84028450D01*
X125898873Y-84124100D01*
X122098500Y-84124100D01*
X121959261Y-84151796D01*
X121942977Y-84155035D01*
X121811131Y-84243132D01*
X121370664Y-84683600D01*
X120671736Y-84683600D01*
X120661701Y-84633153D01*
X120402918Y-84245856D01*
X120015621Y-83987073D01*
X119558774Y-83896200D01*
X119201226Y-83896200D01*
X118744379Y-83987073D01*
X118357082Y-84245856D01*
X118098299Y-84633153D01*
X118007426Y-85090000D01*
X118098299Y-85546847D01*
X118357082Y-85934144D01*
X118744379Y-86192927D01*
X119201226Y-86283800D01*
X119558774Y-86283800D01*
X119941855Y-86207600D01*
X124587000Y-86207600D01*
X119941855Y-86207600D01*
X119941855Y-86207600D01*
X124587000Y-86207600D01*
X124431477Y-86238535D01*
X124326716Y-86308535D01*
X117118600Y-86308535D01*
X117118600Y-80201041D01*
X140716217Y-80201041D01*
X140526706Y-80390222D01*
X140424017Y-80637525D01*
X140423783Y-80905301D01*
X140526041Y-81152783D01*
X140690600Y-81317629D01*
X140690600Y-81485975D01*
X140671096Y-81489759D01*
X140560438Y-81562450D01*
X140486364Y-81672187D01*
X140463669Y-81785355D01*
X140463669Y-81752000D01*
X140439241Y-81626096D01*
X140366550Y-81515438D01*
X140256813Y-81441364D01*
X140127000Y-81415331D01*
X139527000Y-81415331D01*
X139401096Y-81439759D01*
X139368789Y-81460981D01*
X139352261Y-81421078D01*
X139187923Y-81256739D01*
X138973205Y-81167800D01*
X138853050Y-81167800D01*
X138707000Y-81313850D01*
X138707000Y-82374200D01*
X138754800Y-82374200D01*
X138754800Y-82729800D01*
X138707000Y-82729800D01*
X138707000Y-83790150D01*
X138853050Y-83936200D01*
X138973205Y-83936200D01*
X139187923Y-83847261D01*
X139352261Y-83682922D01*
X139368644Y-83643369D01*
X139397187Y-83662636D01*
X139527000Y-83688669D01*
X140127000Y-83688669D01*
X140252904Y-83664241D01*
X140363562Y-83591550D01*
X140437636Y-83481813D01*
X140463669Y-83352000D01*
X140463669Y-83319204D01*
X140484759Y-83427904D01*
X140557450Y-83538562D01*
X140667187Y-83612636D01*
X140797000Y-83638669D01*
X141397000Y-83638669D01*
X141522904Y-83614241D01*
X141539581Y-83603286D01*
X141571739Y-83680922D01*
X141736077Y-83845261D01*
X141950795Y-83934200D01*
X142070950Y-83934200D01*
X142217000Y-83788150D01*
X142217000Y-82727800D01*
X142169200Y-82727800D01*
X142169200Y-82372200D01*
X142217000Y-82372200D01*
X142217000Y-81311850D01*
X142070950Y-81165800D01*
X141950795Y-81165800D01*
X141736077Y-81254739D01*
X141571739Y-81419078D01*
X141538523Y-81499268D01*
X141526813Y-81491364D01*
X141503400Y-81486669D01*
X141503400Y-81317387D01*
X141667294Y-81153778D01*
X141769983Y-80906475D01*
X141770217Y-80638699D01*
X141667959Y-80391217D01*
X141478778Y-80201706D01*
X141231475Y-80099017D01*
X140963699Y-80098783D01*
X140716217Y-80201041D01*
X117118600Y-80201041D01*
X117118600Y-78206600D01*
X192024000Y-78206600D01*
X191868478Y-78237534D01*
X191736632Y-78325631D01*
X190276933Y-79785331D01*
X189703000Y-79785331D01*
X189577096Y-79809759D01*
X189466438Y-79882450D01*
X189392364Y-79992187D01*
X189366331Y-80122000D01*
X189366331Y-81422000D01*
X189390759Y-81547904D01*
X189463450Y-81658562D01*
X189573187Y-81732636D01*
X189703000Y-81758669D01*
X191203000Y-81758669D01*
X191328904Y-81734241D01*
X191439562Y-81661550D01*
X191513636Y-81551813D01*
X191539669Y-81422000D01*
X191539669Y-80122000D01*
X191515241Y-79996096D01*
X191442550Y-79885438D01*
X191373147Y-79838590D01*
X192192337Y-79019400D01*
X200364664Y-79019400D01*
X200577331Y-79232067D01*
X200577331Y-80873600D01*
X200601759Y-80999504D01*
X200674450Y-81110162D01*
X200784187Y-81184236D01*
X200914000Y-81210269D01*
X202946000Y-81210269D01*
X203071904Y-81185841D01*
X203182562Y-81113150D01*
X203256636Y-81003413D01*
X203282669Y-80873600D01*
X203282669Y-79146400D01*
X203258241Y-79020496D01*
X203185550Y-78909838D01*
X203075813Y-78835764D01*
X202946000Y-78809731D01*
X201304467Y-78809731D01*
X200820367Y-78325631D01*
X200688523Y-78237535D01*
X200533000Y-78206600D01*
X192024000Y-78206600D01*
X117118600Y-78206600D01*
X117118600Y-77748600D01*
X205461400Y-77748600D01*
X205461400Y-97511400D01*
G36*
X179171600Y-88179336D02*
X179171600Y-88212975D01*
X179152096Y-88216759D01*
X179135419Y-88227714D01*
X179103261Y-88150078D01*
X178938923Y-87985739D01*
X178724205Y-87896800D01*
X178604050Y-87896800D01*
X178458000Y-88042850D01*
X178458000Y-89103200D01*
X178505800Y-89103200D01*
X178505800Y-89458800D01*
X178458000Y-89458800D01*
X178458000Y-90519150D01*
X178604050Y-90665200D01*
X178724205Y-90665200D01*
X178938923Y-90576261D01*
X179103261Y-90411922D01*
X179136477Y-90331732D01*
X179148187Y-90339636D01*
X179278000Y-90365669D01*
X179878000Y-90365669D01*
X180003904Y-90341241D01*
X180114562Y-90268550D01*
X180188636Y-90158813D01*
X180211331Y-90045645D01*
X180211331Y-90079000D01*
X180235759Y-90204904D01*
X180308450Y-90315562D01*
X180418187Y-90389636D01*
X180441600Y-90394331D01*
X180441600Y-90509664D01*
X179790664Y-91160600D01*
X175587164Y-91160600D01*
X175678983Y-90939475D01*
X175679187Y-90706549D01*
X175970067Y-90415669D01*
X176068000Y-90415669D01*
X176193904Y-90391241D01*
X176304562Y-90318550D01*
X176378636Y-90208813D01*
X176402972Y-90087460D01*
X176425759Y-90204904D01*
X176498450Y-90315562D01*
X176608187Y-90389636D01*
X176738000Y-90415669D01*
X177338000Y-90415669D01*
X177463904Y-90391241D01*
X177495559Y-90370447D01*
X177512739Y-90411922D01*
X177677077Y-90576261D01*
X177891795Y-90665200D01*
X178011950Y-90665200D01*
X178158000Y-90519150D01*
X178158000Y-89458800D01*
X178110200Y-89458800D01*
X178110200Y-89103200D01*
X178158000Y-89103200D01*
X178158000Y-88042850D01*
X178011950Y-87896800D01*
X177891795Y-87896800D01*
X177677077Y-87985739D01*
X177512739Y-88150078D01*
X177497003Y-88188068D01*
X177467813Y-88168364D01*
X177338000Y-88142331D01*
X176738000Y-88142331D01*
X176612096Y-88166759D01*
X176501438Y-88239450D01*
X176427364Y-88349187D01*
X176403028Y-88470540D01*
X176380241Y-88353096D01*
X176307550Y-88242438D01*
X176197813Y-88168364D01*
X176068000Y-88142331D01*
X175468000Y-88142331D01*
X175342096Y-88166759D01*
X175231438Y-88239450D01*
X175157364Y-88349187D01*
X175133028Y-88470540D01*
X175110241Y-88353096D01*
X175037550Y-88242438D01*
X174927813Y-88168364D01*
X174904400Y-88163669D01*
X174904400Y-87884000D01*
X174873465Y-87728477D01*
X174824636Y-87655400D01*
X178647664Y-87655400D01*
X179171600Y-88179336D01*
X179171600Y-88179336D01*
G37*
X179171600Y-88179336D02*
X179171600Y-88212975D01*
X179152096Y-88216759D01*
X179135419Y-88227714D01*
X179103261Y-88150078D01*
X178938923Y-87985739D01*
X178724205Y-87896800D01*
X178604050Y-87896800D01*
X178458000Y-88042850D01*
X178458000Y-89103200D01*
X178505800Y-89103200D01*
X178505800Y-89458800D01*
X178458000Y-89458800D01*
X178458000Y-90519150D01*
X178604050Y-90665200D01*
X178724205Y-90665200D01*
X178938923Y-90576261D01*
X179103261Y-90411922D01*
X179136477Y-90331732D01*
X179148187Y-90339636D01*
X179278000Y-90365669D01*
X179878000Y-90365669D01*
X180003904Y-90341241D01*
X180114562Y-90268550D01*
X180188636Y-90158813D01*
X180211331Y-90045645D01*
X180211331Y-90079000D01*
X180235759Y-90204904D01*
X180308450Y-90315562D01*
X180418187Y-90389636D01*
X180441600Y-90394331D01*
X180441600Y-90509664D01*
X179790664Y-91160600D01*
X175587164Y-91160600D01*
X175678983Y-90939475D01*
X175679187Y-90706549D01*
X175970067Y-90415669D01*
X176068000Y-90415669D01*
X176193904Y-90391241D01*
X176304562Y-90318550D01*
X176378636Y-90208813D01*
X176402972Y-90087460D01*
X176425759Y-90204904D01*
X176498450Y-90315562D01*
X176608187Y-90389636D01*
X176738000Y-90415669D01*
X177338000Y-90415669D01*
X177463904Y-90391241D01*
X177495559Y-90370447D01*
X177512739Y-90411922D01*
X177677077Y-90576261D01*
X177891795Y-90665200D01*
X178011950Y-90665200D01*
X178158000Y-90519150D01*
X178158000Y-89458800D01*
X178110200Y-89458800D01*
X178110200Y-89103200D01*
X178158000Y-89103200D01*
X178158000Y-88042850D01*
X178011950Y-87896800D01*
X177891795Y-87896800D01*
X177677077Y-87985739D01*
X177512739Y-88150078D01*
X177497003Y-88188068D01*
X177467813Y-88168364D01*
X177338000Y-88142331D01*
X176738000Y-88142331D01*
X176612096Y-88166759D01*
X176501438Y-88239450D01*
X176427364Y-88349187D01*
X176403028Y-88470540D01*
X176380241Y-88353096D01*
X176307550Y-88242438D01*
X176197813Y-88168364D01*
X176068000Y-88142331D01*
X175468000Y-88142331D01*
X175342096Y-88166759D01*
X175231438Y-88239450D01*
X175157364Y-88349187D01*
X175133028Y-88470540D01*
X175110241Y-88353096D01*
X175037550Y-88242438D01*
X174927813Y-88168364D01*
X174904400Y-88163669D01*
X174904400Y-87884000D01*
X174873465Y-87728477D01*
X174824636Y-87655400D01*
X178647664Y-87655400D01*
X179171600Y-88179336D01*
G36*
X131284632Y-94902368D02*
X131416477Y-94990465D01*
X131572000Y-95021400D01*
X132305421Y-95021400D01*
X132262364Y-95085187D01*
X132236331Y-95215000D01*
X132236331Y-95558600D01*
X128020584Y-95558600D01*
X128168261Y-95410922D01*
X128257200Y-95196204D01*
X128257200Y-95094800D01*
X128111150Y-94948750D01*
X127598000Y-94948750D01*
X127598000Y-95015300D01*
X127448000Y-95015300D01*
X127448000Y-94948750D01*
X127373000Y-94948750D01*
X127373000Y-94686250D01*
X127448000Y-94686250D01*
X127448000Y-94619700D01*
X127598000Y-94619700D01*
X127598000Y-94686250D01*
X128111150Y-94686250D01*
X128257200Y-94540200D01*
X128257200Y-94438796D01*
X128235497Y-94386400D01*
X130768664Y-94386400D01*
X131284632Y-94902368D01*
X131284632Y-94902368D01*
G37*
X131284632Y-94902368D02*
X131416477Y-94990465D01*
X131572000Y-95021400D01*
X132305421Y-95021400D01*
X132262364Y-95085187D01*
X132236331Y-95215000D01*
X132236331Y-95558600D01*
X128020584Y-95558600D01*
X128168261Y-95410922D01*
X128257200Y-95196204D01*
X128257200Y-95094800D01*
X128111150Y-94948750D01*
X127598000Y-94948750D01*
X127598000Y-95015300D01*
X127448000Y-95015300D01*
X127448000Y-94948750D01*
X127373000Y-94948750D01*
X127373000Y-94686250D01*
X127448000Y-94686250D01*
X127448000Y-94619700D01*
X127598000Y-94619700D01*
X127598000Y-94686250D01*
X128111150Y-94686250D01*
X128257200Y-94540200D01*
X128257200Y-94438796D01*
X128235497Y-94386400D01*
X130768664Y-94386400D01*
X131284632Y-94902368D01*
M02*
