G04 #@! TF.FileFunction,Soldermask,Bot*
%FSLAX46Y46*%
G04 Gerber Fmt 4.6, Leading zero omitted, Abs format (unit mm)*
G04 Created by KiCad (PCBNEW 0.201506222247+5806~23~ubuntu14.04.1-product) date Sat 27 Jun 2015 18:01:35 CEST*
%MOMM*%
G01*
G04 APERTURE LIST*
%ADD10C,0.100000*%
%ADD11R,1.500000X1.500000*%
%ADD12C,1.500000*%
%ADD13R,1.198880X1.198880*%
%ADD14R,2.032000X1.727200*%
%ADD15O,2.032000X1.727200*%
%ADD16R,1.300000X1.500000*%
%ADD17R,1.727200X1.727200*%
%ADD18O,1.727200X1.727200*%
%ADD19R,1.727200X2.032000*%
%ADD20O,1.727200X2.032000*%
G04 APERTURE END LIST*
D10*
D11*
X190500000Y-63500000D03*
D12*
X187960000Y-63500000D03*
X185420000Y-63500000D03*
X182880000Y-63500000D03*
X180340000Y-63500000D03*
X180340000Y-48260000D03*
X182880000Y-48260000D03*
X185420000Y-48260000D03*
X187960000Y-48260000D03*
X190500000Y-48260000D03*
D11*
X175260000Y-63500000D03*
D12*
X172720000Y-63500000D03*
X170180000Y-63500000D03*
X167640000Y-63500000D03*
X165100000Y-63500000D03*
X165100000Y-48260000D03*
X167640000Y-48260000D03*
X170180000Y-48260000D03*
X172720000Y-48260000D03*
X175260000Y-48260000D03*
D11*
X152400000Y-63500000D03*
D12*
X149860000Y-63500000D03*
X147320000Y-63500000D03*
X144780000Y-63500000D03*
X142240000Y-63500000D03*
X142240000Y-48260000D03*
X144780000Y-48260000D03*
X147320000Y-48260000D03*
X149860000Y-48260000D03*
X152400000Y-48260000D03*
D11*
X137160000Y-63500000D03*
D12*
X134620000Y-63500000D03*
X132080000Y-63500000D03*
X129540000Y-63500000D03*
X127000000Y-63500000D03*
X127000000Y-48260000D03*
X129540000Y-48260000D03*
X132080000Y-48260000D03*
X134620000Y-48260000D03*
X137160000Y-48260000D03*
D13*
X159545020Y-56769000D03*
X157446980Y-56769000D03*
X159799020Y-52070000D03*
X157700980Y-52070000D03*
X195580000Y-49309020D03*
X195580000Y-47210980D03*
X195580000Y-62450980D03*
X195580000Y-64549020D03*
D14*
X119380000Y-82550000D03*
D15*
X119380000Y-85090000D03*
X119380000Y-87630000D03*
X119380000Y-90170000D03*
X119380000Y-92710000D03*
X119380000Y-95250000D03*
D14*
X201930000Y-80010000D03*
D15*
X201930000Y-82550000D03*
X201930000Y-85090000D03*
X201930000Y-87630000D03*
X201930000Y-90170000D03*
X201930000Y-92710000D03*
X201930000Y-95250000D03*
D16*
X195580000Y-51990000D03*
X195580000Y-54690000D03*
X195580000Y-59770000D03*
X195580000Y-57070000D03*
D17*
X150368000Y-90805000D03*
D18*
X152908000Y-90805000D03*
X150368000Y-93345000D03*
X152908000Y-93345000D03*
X150368000Y-95885000D03*
X152908000Y-95885000D03*
D19*
X170180000Y-95250000D03*
D20*
X172720000Y-95250000D03*
X175260000Y-95250000D03*
X177800000Y-95250000D03*
X180340000Y-95250000D03*
D14*
X119380000Y-60960000D03*
D15*
X119380000Y-63500000D03*
X119380000Y-66040000D03*
X119380000Y-68580000D03*
X119380000Y-71120000D03*
X119380000Y-73660000D03*
D14*
X201930000Y-58420000D03*
D15*
X201930000Y-60960000D03*
X201930000Y-63500000D03*
X201930000Y-66040000D03*
X201930000Y-68580000D03*
X201930000Y-71120000D03*
X201930000Y-73660000D03*
M02*
