G04 #@! TF.FileFunction,Paste,Top*
%FSLAX46Y46*%
G04 Gerber Fmt 4.6, Leading zero omitted, Abs format (unit mm)*
G04 Created by KiCad (PCBNEW 0.201508140901+6091~28~ubuntu14.04.1-product) date Tue 08 Dec 2015 09:17:10 PM CET*
%MOMM*%
G01*
G04 APERTURE LIST*
%ADD10C,0.100000*%
%ADD11R,0.350800X0.575800*%
%ADD12R,1.350800X1.550800*%
%ADD13R,1.550800X1.350800*%
%ADD14R,0.650800X1.650800*%
%ADD15R,0.650800X1.550800*%
%ADD16R,0.650800X1.250800*%
%ADD17R,1.250800X0.650800*%
%ADD18R,1.350800X0.750800*%
%ADD19R,0.750800X1.350800*%
%ADD20R,1.050800X1.300800*%
%ADD21R,1.650800X1.050800*%
G04 APERTURE END LIST*
D10*
D11*
X127000000Y-84125500D03*
X127000000Y-85800500D03*
X127650000Y-85800500D03*
X126350000Y-85800500D03*
X126350000Y-84125500D03*
X127650000Y-84125500D03*
X127000000Y-89078500D03*
X127000000Y-90753500D03*
X127650000Y-90753500D03*
X126350000Y-90753500D03*
X126350000Y-89078500D03*
X127650000Y-89078500D03*
X126873000Y-94412500D03*
X126873000Y-96087500D03*
X127523000Y-96087500D03*
X126223000Y-96087500D03*
X126223000Y-94412500D03*
X127523000Y-94412500D03*
D12*
X164084000Y-95711000D03*
X164084000Y-93011000D03*
X158750000Y-58500000D03*
X158750000Y-55800000D03*
X158750000Y-53293000D03*
X158750000Y-50593000D03*
D13*
X132000000Y-83820000D03*
X134700000Y-83820000D03*
X132000000Y-86360000D03*
X134700000Y-86360000D03*
X132000000Y-88900000D03*
X134700000Y-88900000D03*
X132000000Y-91440000D03*
X134700000Y-91440000D03*
X136191000Y-95885000D03*
X138891000Y-95885000D03*
D12*
X133223000Y-97235000D03*
X133223000Y-94535000D03*
D13*
X190707000Y-85471000D03*
X188007000Y-85471000D03*
X196295000Y-86995000D03*
X193595000Y-86995000D03*
X190580000Y-89027000D03*
X187880000Y-89027000D03*
X190580000Y-91440000D03*
X187880000Y-91440000D03*
X187405000Y-94615000D03*
X184705000Y-94615000D03*
X190453000Y-82042000D03*
X187753000Y-82042000D03*
X196168000Y-82042000D03*
X193468000Y-82042000D03*
D14*
X147447000Y-83822000D03*
X146177000Y-83822000D03*
X144907000Y-83822000D03*
X143637000Y-83822000D03*
X142367000Y-83820000D03*
D15*
X141097000Y-83822000D03*
D14*
X139827000Y-83822000D03*
X138557000Y-83822000D03*
X138557000Y-90422000D03*
X139827000Y-90422000D03*
X141097000Y-90422000D03*
X142367000Y-90422000D03*
X143637000Y-90422000D03*
X144907000Y-90422000D03*
X146177000Y-90422000D03*
X147447000Y-90422000D03*
X173228000Y-90549000D03*
X174498000Y-90549000D03*
X175768000Y-90549000D03*
X177038000Y-90549000D03*
X178308000Y-90551000D03*
D15*
X179578000Y-90549000D03*
D14*
X180848000Y-90549000D03*
X182118000Y-90549000D03*
X182118000Y-83949000D03*
X180848000Y-83949000D03*
X179578000Y-83949000D03*
X178308000Y-83949000D03*
X177038000Y-83949000D03*
X175768000Y-83949000D03*
X174498000Y-83949000D03*
X173228000Y-83949000D03*
D16*
X161042000Y-82491000D03*
X160242000Y-82491000D03*
X159442000Y-82491000D03*
X158642000Y-82491000D03*
X157842000Y-82491000D03*
X157042000Y-82491000D03*
X156242000Y-82491000D03*
X155442000Y-82491000D03*
D17*
X153992000Y-83941000D03*
X153992000Y-84741000D03*
X153992000Y-85541000D03*
X153992000Y-86341000D03*
X153992000Y-87141000D03*
X153992000Y-87941000D03*
X153992000Y-88741000D03*
X153992000Y-89541000D03*
D16*
X155442000Y-90991000D03*
X156242000Y-90991000D03*
X157042000Y-90991000D03*
X157842000Y-90991000D03*
X158642000Y-90991000D03*
X159442000Y-90991000D03*
X160242000Y-90991000D03*
X161042000Y-90991000D03*
D17*
X162492000Y-89541000D03*
X162492000Y-88741000D03*
X162492000Y-87941000D03*
X162492000Y-87141000D03*
X162492000Y-86341000D03*
X162492000Y-85541000D03*
X162492000Y-84741000D03*
X162492000Y-83941000D03*
D18*
X149479000Y-92390000D03*
X149479000Y-90490000D03*
X151638000Y-92390000D03*
X151638000Y-90490000D03*
D19*
X153355000Y-93345000D03*
X155255000Y-93345000D03*
D20*
X157369000Y-80264000D03*
X159369000Y-80264000D03*
D21*
X175489000Y-93604000D03*
X181889000Y-93604000D03*
X175489000Y-97404000D03*
X181889000Y-97404000D03*
M02*
