G04 #@! TF.FileFunction,Copper,L2,Bot,Signal*
%FSLAX46Y46*%
G04 Gerber Fmt 4.6, Leading zero omitted, Abs format (unit mm)*
G04 Created by KiCad (PCBNEW 0.201508140901+6091~28~ubuntu14.04.1-product) date Tue 08 Dec 2015 09:17:10 PM CET*
%MOMM*%
G01*
G04 APERTURE LIST*
%ADD10C,0.100000*%
%ADD11R,1.500000X1.500000*%
%ADD12C,1.500000*%
%ADD13R,1.198880X1.198880*%
%ADD14R,2.032000X1.727200*%
%ADD15O,2.032000X1.727200*%
%ADD16R,1.300000X1.500000*%
%ADD17R,1.727200X1.727200*%
%ADD18O,1.727200X1.727200*%
%ADD19R,1.727200X2.032000*%
%ADD20O,1.727200X2.032000*%
%ADD21C,0.685800*%
%ADD22C,0.304800*%
%ADD23C,0.152400*%
G04 APERTURE END LIST*
D10*
D11*
X190500000Y-63500000D03*
D12*
X187960000Y-63500000D03*
X185420000Y-63500000D03*
X182880000Y-63500000D03*
X180340000Y-63500000D03*
X180340000Y-48260000D03*
X182880000Y-48260000D03*
X185420000Y-48260000D03*
X187960000Y-48260000D03*
X190500000Y-48260000D03*
D11*
X175260000Y-63500000D03*
D12*
X172720000Y-63500000D03*
X170180000Y-63500000D03*
X167640000Y-63500000D03*
X165100000Y-63500000D03*
X165100000Y-48260000D03*
X167640000Y-48260000D03*
X170180000Y-48260000D03*
X172720000Y-48260000D03*
X175260000Y-48260000D03*
D11*
X152400000Y-63500000D03*
D12*
X149860000Y-63500000D03*
X147320000Y-63500000D03*
X144780000Y-63500000D03*
X142240000Y-63500000D03*
X142240000Y-48260000D03*
X144780000Y-48260000D03*
X147320000Y-48260000D03*
X149860000Y-48260000D03*
X152400000Y-48260000D03*
D11*
X137160000Y-63500000D03*
D12*
X134620000Y-63500000D03*
X132080000Y-63500000D03*
X129540000Y-63500000D03*
X127000000Y-63500000D03*
X127000000Y-48260000D03*
X129540000Y-48260000D03*
X132080000Y-48260000D03*
X134620000Y-48260000D03*
X137160000Y-48260000D03*
D13*
X159799020Y-56769000D03*
X157700980Y-56769000D03*
X159799020Y-52070000D03*
X157700980Y-52070000D03*
X195580000Y-49309020D03*
X195580000Y-47210980D03*
X195580000Y-62450980D03*
X195580000Y-64549020D03*
D14*
X119380000Y-83820000D03*
D15*
X119380000Y-86360000D03*
X119380000Y-88900000D03*
X119380000Y-91440000D03*
X119380000Y-93980000D03*
X119380000Y-96520000D03*
D14*
X201930000Y-81280000D03*
D15*
X201930000Y-83820000D03*
X201930000Y-86360000D03*
X201930000Y-88900000D03*
X201930000Y-91440000D03*
X201930000Y-93980000D03*
X201930000Y-96520000D03*
D16*
X195580000Y-51990000D03*
X195580000Y-54690000D03*
X195580000Y-59770000D03*
X195580000Y-57070000D03*
D17*
X172212000Y-93599000D03*
D18*
X172212000Y-96139000D03*
X169672000Y-93599000D03*
X169672000Y-96139000D03*
X167132000Y-93599000D03*
X167132000Y-96139000D03*
D14*
X119380000Y-60960000D03*
D15*
X119380000Y-63500000D03*
X119380000Y-66040000D03*
X119380000Y-68580000D03*
X119380000Y-71120000D03*
X119380000Y-73660000D03*
D14*
X201930000Y-58420000D03*
D15*
X201930000Y-60960000D03*
X201930000Y-63500000D03*
X201930000Y-66040000D03*
X201930000Y-68580000D03*
X201930000Y-71120000D03*
X201930000Y-73660000D03*
D19*
X145542000Y-96139000D03*
D20*
X148082000Y-96139000D03*
X150622000Y-96139000D03*
X153162000Y-96139000D03*
X155702000Y-96139000D03*
X158242000Y-96139000D03*
D21*
X193421000Y-69850000D03*
X191516000Y-69215000D03*
X185547000Y-67945000D03*
X130556000Y-52070000D03*
X130429000Y-53340000D03*
X157099000Y-83820000D03*
X158623000Y-83820000D03*
X162433000Y-95758000D03*
X155829000Y-80772000D03*
X156210000Y-89535000D03*
X175768000Y-88646000D03*
X173228000Y-82042000D03*
X147447000Y-92456000D03*
X141097000Y-82042000D03*
X128905000Y-96266000D03*
X128905000Y-98171000D03*
X160782000Y-58674000D03*
X160782000Y-53721000D03*
X155702000Y-88011000D03*
X156718000Y-92456000D03*
X157607000Y-88646000D03*
X150368000Y-83820000D03*
X157988000Y-84709000D03*
X150241000Y-85471000D03*
X159766000Y-85471000D03*
X150241000Y-86487000D03*
X160528000Y-86487000D03*
D22*
X190500000Y-63500000D02*
X190500000Y-66929000D01*
X190500000Y-66929000D02*
X193421000Y-69850000D01*
X137160000Y-63500000D02*
X139319000Y-63500000D01*
X139319000Y-63500000D02*
X141224000Y-65405000D01*
X141224000Y-65405000D02*
X150495000Y-65405000D01*
X150495000Y-65405000D02*
X152400000Y-63500000D01*
D23*
X175260000Y-63500000D02*
X175768000Y-63500000D01*
X137160000Y-63500000D02*
X137668000Y-63500000D01*
X190373000Y-63627000D02*
X190500000Y-63500000D01*
D22*
X187960000Y-63500000D02*
X187960000Y-65659000D01*
X187960000Y-65659000D02*
X191516000Y-69215000D01*
D23*
X187960000Y-63500000D02*
X187960000Y-63246000D01*
X149860000Y-63500000D02*
X149860000Y-63119000D01*
D22*
X149860000Y-63119000D02*
X150876000Y-62103000D01*
X150876000Y-62103000D02*
X171323000Y-62103000D01*
X171323000Y-62103000D02*
X172720000Y-63500000D01*
X150241000Y-51054000D02*
X135102598Y-51054000D01*
X135102598Y-51054000D02*
X125196598Y-60960000D01*
X125196598Y-60960000D02*
X119380000Y-60960000D01*
X185420000Y-62865000D02*
X173609000Y-51054000D01*
X173609000Y-51054000D02*
X150241000Y-51054000D01*
D23*
X185420000Y-63500000D02*
X185420000Y-62865000D01*
D22*
X185420000Y-48260000D02*
X185420000Y-63500000D01*
X182880000Y-63500000D02*
X182880000Y-65278000D01*
X182880000Y-65278000D02*
X185547000Y-67945000D01*
X200761600Y-68580000D02*
X201930000Y-68580000D01*
X195580000Y-57070000D02*
X197963798Y-57070000D01*
X199644000Y-63754000D02*
X201930000Y-66040000D01*
X199644000Y-58750202D02*
X199644000Y-63754000D01*
X197963798Y-57070000D02*
X199644000Y-58750202D01*
X165481000Y-49530000D02*
X173228000Y-49530000D01*
X173228000Y-49530000D02*
X173990000Y-48768000D01*
X173990000Y-48768000D02*
X173990000Y-47752000D01*
X173990000Y-47752000D02*
X174879000Y-46863000D01*
X174879000Y-46863000D02*
X178943000Y-46863000D01*
X165100000Y-49149000D02*
X165481000Y-49530000D01*
X165100000Y-49149000D02*
X165100000Y-48260000D01*
X180340000Y-48260000D02*
X178943000Y-46863000D01*
X181356000Y-49657000D02*
X183515000Y-49657000D01*
X184150000Y-47752000D02*
X184722201Y-47179799D01*
X191018497Y-47179799D02*
X184722201Y-47179799D01*
X191770000Y-53160000D02*
X191770000Y-47931302D01*
X191770000Y-47931302D02*
X191018497Y-47179799D01*
X195580000Y-56970000D02*
X191770000Y-53160000D01*
X181356000Y-49657000D02*
X180340000Y-48641000D01*
X184150000Y-49022000D02*
X184150000Y-47752000D01*
X183515000Y-49657000D02*
X184150000Y-49022000D01*
D23*
X180340000Y-48260000D02*
X180340000Y-48641000D01*
X195580000Y-57070000D02*
X195580000Y-56970000D01*
X127000000Y-48260000D02*
X127000000Y-48514000D01*
D22*
X195580000Y-54690000D02*
X196930000Y-54690000D01*
X200152000Y-61722000D02*
X201930000Y-63500000D01*
X200152000Y-57912000D02*
X200152000Y-61722000D01*
X196930000Y-54690000D02*
X200152000Y-57912000D01*
D23*
X201777600Y-63500000D02*
X201930000Y-63500000D01*
D22*
X194193000Y-53203000D02*
X194193000Y-49667000D01*
X193929000Y-49403000D02*
X191135000Y-46609000D01*
X191135000Y-46609000D02*
X184531000Y-46609000D01*
X184531000Y-46609000D02*
X182880000Y-48260000D01*
X194193000Y-49667000D02*
X193929000Y-49403000D01*
D23*
X144780000Y-48260000D02*
X144780000Y-48133000D01*
D22*
X144780000Y-48133000D02*
X146558000Y-46355000D01*
X146558000Y-46355000D02*
X152527000Y-46355000D01*
X152527000Y-46355000D02*
X153035000Y-46863000D01*
X153035000Y-46863000D02*
X166243000Y-46863000D01*
X166243000Y-46863000D02*
X167640000Y-48260000D01*
D23*
X129540000Y-48260000D02*
X129921000Y-48260000D01*
D22*
X129921000Y-48260000D02*
X131445000Y-46736000D01*
X131445000Y-46736000D02*
X143256000Y-46736000D01*
X143256000Y-46736000D02*
X144780000Y-48260000D01*
D23*
X167640000Y-48260000D02*
X167640000Y-48133000D01*
D22*
X167640000Y-48133000D02*
X169418000Y-46355000D01*
X169418000Y-46355000D02*
X180975000Y-46355000D01*
X180975000Y-46355000D02*
X182880000Y-48260000D01*
D23*
X144780000Y-48260000D02*
X144780000Y-47625000D01*
D22*
X195580000Y-54590000D02*
X194193000Y-53203000D01*
X194193000Y-53203000D02*
X194183000Y-53193000D01*
D23*
X195580000Y-54690000D02*
X195580000Y-54590000D01*
D22*
X130556000Y-52070000D02*
X129540000Y-51054000D01*
X129540000Y-51054000D02*
X129540000Y-48260000D01*
D23*
X182880000Y-48133000D02*
X182880000Y-48260000D01*
X134620000Y-48260000D02*
X134620000Y-48768000D01*
D22*
X134620000Y-48768000D02*
X135636000Y-49784000D01*
X135636000Y-49784000D02*
X148336000Y-49784000D01*
X148336000Y-49784000D02*
X149860000Y-48260000D01*
D23*
X149860000Y-48260000D02*
X149733000Y-48260000D01*
X134620000Y-48260000D02*
X134620000Y-48641000D01*
D22*
X152400000Y-48260000D02*
X152400000Y-49403000D01*
X152400000Y-49403000D02*
X153035000Y-50038000D01*
X153035000Y-50038000D02*
X174371000Y-50038000D01*
X174371000Y-50038000D02*
X175260000Y-49149000D01*
X175260000Y-49149000D02*
X175260000Y-48260000D01*
D23*
X175260000Y-48260000D02*
X175260000Y-47625000D01*
X137160000Y-48260000D02*
X137160000Y-48006000D01*
D22*
X130429000Y-53340000D02*
X130302000Y-53467000D01*
X130302000Y-53467000D02*
X121031000Y-53467000D01*
X121031000Y-53467000D02*
X117602000Y-56896000D01*
X117602000Y-56896000D02*
X117602000Y-61722000D01*
X117602000Y-61722000D02*
X119380000Y-63500000D01*
D23*
X147320000Y-63500000D02*
X147320000Y-62992000D01*
D22*
X147320000Y-62992000D02*
X145796000Y-61468000D01*
X123952000Y-61468000D02*
X119380000Y-66040000D01*
X145796000Y-61468000D02*
X123952000Y-61468000D01*
X128905000Y-96266000D02*
X128905000Y-98171000D01*
X159799020Y-56769000D02*
X159799020Y-57691020D01*
X159799020Y-57691020D02*
X160782000Y-58674000D01*
X157700980Y-56769000D02*
X157700980Y-52070000D01*
X155194000Y-61468000D02*
X155194000Y-59275980D01*
X155194000Y-61468000D02*
X149860000Y-61468000D01*
X149860000Y-61468000D02*
X148590000Y-62738000D01*
X148590000Y-62738000D02*
X148590000Y-64262000D01*
X148590000Y-64262000D02*
X147955000Y-64897000D01*
X147955000Y-64897000D02*
X141478000Y-64897000D01*
X141478000Y-64897000D02*
X138557000Y-61976000D01*
X119380000Y-71120000D02*
X122301000Y-68199000D01*
X122301000Y-66167000D02*
X122301000Y-68199000D01*
X126492000Y-61976000D02*
X122301000Y-66167000D01*
X138557000Y-61976000D02*
X126492000Y-61976000D01*
X155194000Y-59275980D02*
X157700980Y-56769000D01*
D23*
X157954980Y-56515000D02*
X157700980Y-56769000D01*
D22*
X159799020Y-52070000D02*
X159799020Y-52738020D01*
X159799020Y-52738020D02*
X160782000Y-53721000D01*
D23*
X195580000Y-49309020D02*
X195580000Y-51990000D01*
D22*
X204470000Y-68453000D02*
X204343000Y-68453000D01*
X197899020Y-64549020D02*
X195580000Y-64549020D01*
X200660000Y-67310000D02*
X197899020Y-64549020D01*
X203200000Y-67310000D02*
X200660000Y-67310000D01*
X204343000Y-68453000D02*
X203200000Y-67310000D01*
X119380000Y-73660000D02*
X191770000Y-73660000D01*
X204470000Y-56100980D02*
X195580000Y-47210980D01*
X204470000Y-73787000D02*
X204470000Y-68453000D01*
X204470000Y-68453000D02*
X204470000Y-56100980D01*
X202946000Y-75311000D02*
X204470000Y-73787000D01*
X193421000Y-75311000D02*
X202946000Y-75311000D01*
X191770000Y-73660000D02*
X193421000Y-75311000D01*
D23*
X195580000Y-47210980D02*
X195800980Y-47210980D01*
D22*
X195580000Y-59770000D02*
X195580000Y-62450980D01*
X170942000Y-94869000D02*
X169672000Y-96139000D01*
X170942000Y-92583000D02*
X170942000Y-94869000D01*
X167894000Y-89535000D02*
X170942000Y-92583000D01*
X157226000Y-89535000D02*
X167894000Y-89535000D01*
X155702000Y-88011000D02*
X157226000Y-89535000D01*
X169672000Y-93599000D02*
X169672000Y-92202000D01*
X161925000Y-92456000D02*
X156718000Y-92456000D01*
X164211000Y-90170000D02*
X161925000Y-92456000D01*
X167640000Y-90170000D02*
X164211000Y-90170000D01*
X169672000Y-92202000D02*
X167640000Y-90170000D01*
X167894000Y-88646000D02*
X157607000Y-88646000D01*
X172212000Y-92964000D02*
X167894000Y-88646000D01*
X172212000Y-93599000D02*
X172212000Y-92964000D01*
X150368000Y-83820000D02*
X151257000Y-84709000D01*
X151257000Y-84709000D02*
X157988000Y-84709000D01*
X150241000Y-85471000D02*
X159766000Y-85471000D01*
X150241000Y-86487000D02*
X160528000Y-86487000D01*
D23*
G36*
X146812000Y-78968600D02*
X175514000Y-78968600D01*
X175641694Y-78943200D01*
X180974306Y-78943200D01*
X181102000Y-78968600D01*
X205511400Y-78968600D01*
X205511400Y-98831400D01*
X117068600Y-98831400D01*
X117068600Y-96520000D01*
X118111017Y-96520000D01*
X118194156Y-96937967D01*
X118430915Y-97292302D01*
X118785250Y-97529061D01*
X119203217Y-97612200D01*
X119556783Y-97612200D01*
X119974750Y-97529061D01*
X120329085Y-97292302D01*
X120565844Y-96937967D01*
X120648983Y-96520000D01*
X120620973Y-96379180D01*
X128333401Y-96379180D01*
X128420224Y-96589306D01*
X128524000Y-96693263D01*
X128524000Y-97743818D01*
X128420789Y-97846849D01*
X128333600Y-98056823D01*
X128333401Y-98284180D01*
X128420224Y-98494306D01*
X128580849Y-98655211D01*
X128790823Y-98742400D01*
X129018180Y-98742599D01*
X129228306Y-98655776D01*
X129389211Y-98495151D01*
X129476400Y-98285177D01*
X129476599Y-98057820D01*
X129389776Y-97847694D01*
X129286000Y-97743737D01*
X129286000Y-96693182D01*
X129389211Y-96590151D01*
X129476400Y-96380177D01*
X129476599Y-96152820D01*
X129389776Y-95942694D01*
X129229151Y-95781789D01*
X129019177Y-95694600D01*
X128791820Y-95694401D01*
X128581694Y-95781224D01*
X128420789Y-95941849D01*
X128333600Y-96151823D01*
X128333401Y-96379180D01*
X120620973Y-96379180D01*
X120565844Y-96102033D01*
X120329085Y-95747698D01*
X119974750Y-95510939D01*
X119556783Y-95427800D01*
X119203217Y-95427800D01*
X118785250Y-95510939D01*
X118430915Y-95747698D01*
X118194156Y-96102033D01*
X118111017Y-96520000D01*
X117068600Y-96520000D01*
X117068600Y-95123000D01*
X144445322Y-95123000D01*
X144445322Y-97155000D01*
X144461262Y-97239714D01*
X144511328Y-97317518D01*
X144587720Y-97369715D01*
X144678400Y-97388078D01*
X146405600Y-97388078D01*
X146490314Y-97372138D01*
X146568118Y-97322072D01*
X146620315Y-97245680D01*
X146638678Y-97155000D01*
X146638678Y-95962217D01*
X146989800Y-95962217D01*
X146989800Y-96315783D01*
X147072939Y-96733750D01*
X147309698Y-97088085D01*
X147664033Y-97324844D01*
X148082000Y-97407983D01*
X148499967Y-97324844D01*
X148854302Y-97088085D01*
X149091061Y-96733750D01*
X149174200Y-96315783D01*
X149174200Y-95962217D01*
X149529800Y-95962217D01*
X149529800Y-96315783D01*
X149612939Y-96733750D01*
X149849698Y-97088085D01*
X150204033Y-97324844D01*
X150622000Y-97407983D01*
X151039967Y-97324844D01*
X151394302Y-97088085D01*
X151631061Y-96733750D01*
X151714200Y-96315783D01*
X151714200Y-95962217D01*
X154609800Y-95962217D01*
X154609800Y-96315783D01*
X154692939Y-96733750D01*
X154929698Y-97088085D01*
X155284033Y-97324844D01*
X155702000Y-97407983D01*
X156119967Y-97324844D01*
X156474302Y-97088085D01*
X156711061Y-96733750D01*
X156794200Y-96315783D01*
X156794200Y-95962217D01*
X157149800Y-95962217D01*
X157149800Y-96315783D01*
X157232939Y-96733750D01*
X157469698Y-97088085D01*
X157824033Y-97324844D01*
X158242000Y-97407983D01*
X158659967Y-97324844D01*
X159014302Y-97088085D01*
X159251061Y-96733750D01*
X159334200Y-96315783D01*
X159334200Y-96117603D01*
X166039800Y-96117603D01*
X166039800Y-96160397D01*
X166122939Y-96578364D01*
X166359698Y-96932699D01*
X166714033Y-97169458D01*
X167132000Y-97252597D01*
X167549967Y-97169458D01*
X167904302Y-96932699D01*
X168141061Y-96578364D01*
X168224200Y-96160397D01*
X168224200Y-96117603D01*
X168141061Y-95699636D01*
X167904302Y-95345301D01*
X167549967Y-95108542D01*
X167132000Y-95025403D01*
X166714033Y-95108542D01*
X166359698Y-95345301D01*
X166122939Y-95699636D01*
X166039800Y-96117603D01*
X159334200Y-96117603D01*
X159334200Y-95962217D01*
X159251061Y-95544250D01*
X159014302Y-95189915D01*
X158659967Y-94953156D01*
X158242000Y-94870017D01*
X157824033Y-94953156D01*
X157469698Y-95189915D01*
X157232939Y-95544250D01*
X157149800Y-95962217D01*
X156794200Y-95962217D01*
X156711061Y-95544250D01*
X156474302Y-95189915D01*
X156119967Y-94953156D01*
X155702000Y-94870017D01*
X155284033Y-94953156D01*
X154929698Y-95189915D01*
X154692939Y-95544250D01*
X154609800Y-95962217D01*
X151714200Y-95962217D01*
X151631061Y-95544250D01*
X151394302Y-95189915D01*
X151039967Y-94953156D01*
X150622000Y-94870017D01*
X150204033Y-94953156D01*
X149849698Y-95189915D01*
X149612939Y-95544250D01*
X149529800Y-95962217D01*
X149174200Y-95962217D01*
X149091061Y-95544250D01*
X148854302Y-95189915D01*
X148499967Y-94953156D01*
X148082000Y-94870017D01*
X147664033Y-94953156D01*
X147309698Y-95189915D01*
X147072939Y-95544250D01*
X146989800Y-95962217D01*
X146638678Y-95962217D01*
X146638678Y-95123000D01*
X146622738Y-95038286D01*
X146572672Y-94960482D01*
X146496280Y-94908285D01*
X146405600Y-94889922D01*
X144678400Y-94889922D01*
X144593686Y-94905862D01*
X144515882Y-94955928D01*
X144463685Y-95032320D01*
X144445322Y-95123000D01*
X117068600Y-95123000D01*
X117068600Y-93980000D01*
X118111017Y-93980000D01*
X118194156Y-94397967D01*
X118430915Y-94752302D01*
X118785250Y-94989061D01*
X119203217Y-95072200D01*
X119556783Y-95072200D01*
X119974750Y-94989061D01*
X120329085Y-94752302D01*
X120565844Y-94397967D01*
X120648983Y-93980000D01*
X120568942Y-93577603D01*
X166039800Y-93577603D01*
X166039800Y-93620397D01*
X166122939Y-94038364D01*
X166359698Y-94392699D01*
X166714033Y-94629458D01*
X167132000Y-94712597D01*
X167549967Y-94629458D01*
X167904302Y-94392699D01*
X168141061Y-94038364D01*
X168224200Y-93620397D01*
X168224200Y-93577603D01*
X168141061Y-93159636D01*
X167904302Y-92805301D01*
X167549967Y-92568542D01*
X167132000Y-92485403D01*
X166714033Y-92568542D01*
X166359698Y-92805301D01*
X166122939Y-93159636D01*
X166039800Y-93577603D01*
X120568942Y-93577603D01*
X120565844Y-93562033D01*
X120329085Y-93207698D01*
X119974750Y-92970939D01*
X119556783Y-92887800D01*
X119203217Y-92887800D01*
X118785250Y-92970939D01*
X118430915Y-93207698D01*
X118194156Y-93562033D01*
X118111017Y-93980000D01*
X117068600Y-93980000D01*
X117068600Y-91440000D01*
X118111017Y-91440000D01*
X118194156Y-91857967D01*
X118430915Y-92212302D01*
X118785250Y-92449061D01*
X119203217Y-92532200D01*
X119556783Y-92532200D01*
X119974750Y-92449061D01*
X120329085Y-92212302D01*
X120565844Y-91857967D01*
X120648983Y-91440000D01*
X120565844Y-91022033D01*
X120329085Y-90667698D01*
X119974750Y-90430939D01*
X119556783Y-90347800D01*
X119203217Y-90347800D01*
X118785250Y-90430939D01*
X118430915Y-90667698D01*
X118194156Y-91022033D01*
X118111017Y-91440000D01*
X117068600Y-91440000D01*
X117068600Y-88900000D01*
X118111017Y-88900000D01*
X118194156Y-89317967D01*
X118430915Y-89672302D01*
X118785250Y-89909061D01*
X119203217Y-89992200D01*
X119556783Y-89992200D01*
X119974750Y-89909061D01*
X120329085Y-89672302D01*
X120565844Y-89317967D01*
X120648983Y-88900000D01*
X120565844Y-88482033D01*
X120329085Y-88127698D01*
X120323820Y-88124180D01*
X155130401Y-88124180D01*
X155217224Y-88334306D01*
X155377849Y-88495211D01*
X155587823Y-88582400D01*
X155734713Y-88582529D01*
X156956590Y-89804405D01*
X156956592Y-89804408D01*
X157080198Y-89886998D01*
X157226000Y-89916000D01*
X163926184Y-89916000D01*
X161767184Y-92075000D01*
X157145182Y-92075000D01*
X157042151Y-91971789D01*
X156832177Y-91884600D01*
X156604820Y-91884401D01*
X156394694Y-91971224D01*
X156233789Y-92131849D01*
X156146600Y-92341823D01*
X156146401Y-92569180D01*
X156233224Y-92779306D01*
X156393849Y-92940211D01*
X156603823Y-93027400D01*
X156831180Y-93027599D01*
X157041306Y-92940776D01*
X157145263Y-92837000D01*
X161925000Y-92837000D01*
X162070803Y-92807998D01*
X162194408Y-92725408D01*
X164368816Y-90551000D01*
X167482184Y-90551000D01*
X169291000Y-92359816D01*
X169291000Y-92561189D01*
X169254033Y-92568542D01*
X168899698Y-92805301D01*
X168662939Y-93159636D01*
X168579800Y-93577603D01*
X168579800Y-93620397D01*
X168662939Y-94038364D01*
X168899698Y-94392699D01*
X169254033Y-94629458D01*
X169672000Y-94712597D01*
X170089967Y-94629458D01*
X170444302Y-94392699D01*
X170561000Y-94218048D01*
X170561000Y-94711184D01*
X170134132Y-95138052D01*
X170089967Y-95108542D01*
X169672000Y-95025403D01*
X169254033Y-95108542D01*
X168899698Y-95345301D01*
X168662939Y-95699636D01*
X168579800Y-96117603D01*
X168579800Y-96160397D01*
X168662939Y-96578364D01*
X168899698Y-96932699D01*
X169254033Y-97169458D01*
X169672000Y-97252597D01*
X170089967Y-97169458D01*
X170444302Y-96932699D01*
X170681061Y-96578364D01*
X170692670Y-96520000D01*
X200661017Y-96520000D01*
X200744156Y-96937967D01*
X200980915Y-97292302D01*
X201335250Y-97529061D01*
X201753217Y-97612200D01*
X202106783Y-97612200D01*
X202524750Y-97529061D01*
X202879085Y-97292302D01*
X203115844Y-96937967D01*
X203198983Y-96520000D01*
X203115844Y-96102033D01*
X202879085Y-95747698D01*
X202524750Y-95510939D01*
X202106783Y-95427800D01*
X201753217Y-95427800D01*
X201335250Y-95510939D01*
X200980915Y-95747698D01*
X200744156Y-96102033D01*
X200661017Y-96520000D01*
X170692670Y-96520000D01*
X170764200Y-96160397D01*
X170764200Y-96117603D01*
X170681061Y-95699636D01*
X170668692Y-95681124D01*
X171211408Y-95138408D01*
X171293998Y-95014803D01*
X171323000Y-94869000D01*
X171323000Y-94690534D01*
X171348400Y-94695678D01*
X173075600Y-94695678D01*
X173160314Y-94679738D01*
X173238118Y-94629672D01*
X173290315Y-94553280D01*
X173308678Y-94462600D01*
X173308678Y-93980000D01*
X200661017Y-93980000D01*
X200744156Y-94397967D01*
X200980915Y-94752302D01*
X201335250Y-94989061D01*
X201753217Y-95072200D01*
X202106783Y-95072200D01*
X202524750Y-94989061D01*
X202879085Y-94752302D01*
X203115844Y-94397967D01*
X203198983Y-93980000D01*
X203115844Y-93562033D01*
X202879085Y-93207698D01*
X202524750Y-92970939D01*
X202106783Y-92887800D01*
X201753217Y-92887800D01*
X201335250Y-92970939D01*
X200980915Y-93207698D01*
X200744156Y-93562033D01*
X200661017Y-93980000D01*
X173308678Y-93980000D01*
X173308678Y-92735400D01*
X173292738Y-92650686D01*
X173242672Y-92572882D01*
X173166280Y-92520685D01*
X173075600Y-92502322D01*
X172289138Y-92502322D01*
X171226816Y-91440000D01*
X200661017Y-91440000D01*
X200744156Y-91857967D01*
X200980915Y-92212302D01*
X201335250Y-92449061D01*
X201753217Y-92532200D01*
X202106783Y-92532200D01*
X202524750Y-92449061D01*
X202879085Y-92212302D01*
X203115844Y-91857967D01*
X203198983Y-91440000D01*
X203115844Y-91022033D01*
X202879085Y-90667698D01*
X202524750Y-90430939D01*
X202106783Y-90347800D01*
X201753217Y-90347800D01*
X201335250Y-90430939D01*
X200980915Y-90667698D01*
X200744156Y-91022033D01*
X200661017Y-91440000D01*
X171226816Y-91440000D01*
X168686816Y-88900000D01*
X200661017Y-88900000D01*
X200744156Y-89317967D01*
X200980915Y-89672302D01*
X201335250Y-89909061D01*
X201753217Y-89992200D01*
X202106783Y-89992200D01*
X202524750Y-89909061D01*
X202879085Y-89672302D01*
X203115844Y-89317967D01*
X203198983Y-88900000D01*
X203115844Y-88482033D01*
X202879085Y-88127698D01*
X202524750Y-87890939D01*
X202106783Y-87807800D01*
X201753217Y-87807800D01*
X201335250Y-87890939D01*
X200980915Y-88127698D01*
X200744156Y-88482033D01*
X200661017Y-88900000D01*
X168686816Y-88900000D01*
X168163408Y-88376592D01*
X168039803Y-88294002D01*
X167894000Y-88265000D01*
X158034182Y-88265000D01*
X157931151Y-88161789D01*
X157721177Y-88074600D01*
X157493820Y-88074401D01*
X157283694Y-88161224D01*
X157122789Y-88321849D01*
X157035600Y-88531823D01*
X157035401Y-88759180D01*
X157068077Y-88838262D01*
X156273471Y-88043656D01*
X156273599Y-87897820D01*
X156186776Y-87687694D01*
X156026151Y-87526789D01*
X155816177Y-87439600D01*
X155588820Y-87439401D01*
X155378694Y-87526224D01*
X155217789Y-87686849D01*
X155130600Y-87896823D01*
X155130401Y-88124180D01*
X120323820Y-88124180D01*
X119974750Y-87890939D01*
X119556783Y-87807800D01*
X119203217Y-87807800D01*
X118785250Y-87890939D01*
X118430915Y-88127698D01*
X118194156Y-88482033D01*
X118111017Y-88900000D01*
X117068600Y-88900000D01*
X117068600Y-86360000D01*
X118111017Y-86360000D01*
X118194156Y-86777967D01*
X118430915Y-87132302D01*
X118785250Y-87369061D01*
X119203217Y-87452200D01*
X119556783Y-87452200D01*
X119974750Y-87369061D01*
X120329085Y-87132302D01*
X120565844Y-86777967D01*
X120648983Y-86360000D01*
X120565844Y-85942033D01*
X120329085Y-85587698D01*
X120323820Y-85584180D01*
X149669401Y-85584180D01*
X149756224Y-85794306D01*
X149916849Y-85955211D01*
X149974020Y-85978950D01*
X149917694Y-86002224D01*
X149756789Y-86162849D01*
X149669600Y-86372823D01*
X149669401Y-86600180D01*
X149756224Y-86810306D01*
X149916849Y-86971211D01*
X150126823Y-87058400D01*
X150354180Y-87058599D01*
X150564306Y-86971776D01*
X150668263Y-86868000D01*
X160100818Y-86868000D01*
X160203849Y-86971211D01*
X160413823Y-87058400D01*
X160641180Y-87058599D01*
X160851306Y-86971776D01*
X161012211Y-86811151D01*
X161099400Y-86601177D01*
X161099599Y-86373820D01*
X161093889Y-86360000D01*
X200661017Y-86360000D01*
X200744156Y-86777967D01*
X200980915Y-87132302D01*
X201335250Y-87369061D01*
X201753217Y-87452200D01*
X202106783Y-87452200D01*
X202524750Y-87369061D01*
X202879085Y-87132302D01*
X203115844Y-86777967D01*
X203198983Y-86360000D01*
X203115844Y-85942033D01*
X202879085Y-85587698D01*
X202524750Y-85350939D01*
X202106783Y-85267800D01*
X201753217Y-85267800D01*
X201335250Y-85350939D01*
X200980915Y-85587698D01*
X200744156Y-85942033D01*
X200661017Y-86360000D01*
X161093889Y-86360000D01*
X161012776Y-86163694D01*
X160852151Y-86002789D01*
X160642177Y-85915600D01*
X160414820Y-85915401D01*
X160204694Y-86002224D01*
X160100737Y-86106000D01*
X150668182Y-86106000D01*
X150565151Y-86002789D01*
X150507980Y-85979050D01*
X150564306Y-85955776D01*
X150668263Y-85852000D01*
X159338818Y-85852000D01*
X159441849Y-85955211D01*
X159651823Y-86042400D01*
X159879180Y-86042599D01*
X160089306Y-85955776D01*
X160250211Y-85795151D01*
X160337400Y-85585177D01*
X160337599Y-85357820D01*
X160250776Y-85147694D01*
X160090151Y-84986789D01*
X159880177Y-84899600D01*
X159652820Y-84899401D01*
X159442694Y-84986224D01*
X159338737Y-85090000D01*
X158415263Y-85090000D01*
X158472211Y-85033151D01*
X158559400Y-84823177D01*
X158559599Y-84595820D01*
X158472776Y-84385694D01*
X158312151Y-84224789D01*
X158102177Y-84137600D01*
X157874820Y-84137401D01*
X157664694Y-84224224D01*
X157560737Y-84328000D01*
X151414816Y-84328000D01*
X150939471Y-83852655D01*
X150939499Y-83820000D01*
X200661017Y-83820000D01*
X200744156Y-84237967D01*
X200980915Y-84592302D01*
X201335250Y-84829061D01*
X201753217Y-84912200D01*
X202106783Y-84912200D01*
X202524750Y-84829061D01*
X202879085Y-84592302D01*
X203115844Y-84237967D01*
X203198983Y-83820000D01*
X203115844Y-83402033D01*
X202879085Y-83047698D01*
X202524750Y-82810939D01*
X202106783Y-82727800D01*
X201753217Y-82727800D01*
X201335250Y-82810939D01*
X200980915Y-83047698D01*
X200744156Y-83402033D01*
X200661017Y-83820000D01*
X150939499Y-83820000D01*
X150939599Y-83706820D01*
X150852776Y-83496694D01*
X150692151Y-83335789D01*
X150482177Y-83248600D01*
X150254820Y-83248401D01*
X150044694Y-83335224D01*
X149883789Y-83495849D01*
X149796600Y-83705823D01*
X149796401Y-83933180D01*
X149883224Y-84143306D01*
X150043849Y-84304211D01*
X150253823Y-84391400D01*
X150400713Y-84391529D01*
X150987592Y-84978408D01*
X151111198Y-85060998D01*
X151256995Y-85090000D01*
X150668182Y-85090000D01*
X150565151Y-84986789D01*
X150355177Y-84899600D01*
X150127820Y-84899401D01*
X149917694Y-84986224D01*
X149756789Y-85146849D01*
X149669600Y-85356823D01*
X149669401Y-85584180D01*
X120323820Y-85584180D01*
X119974750Y-85350939D01*
X119556783Y-85267800D01*
X119203217Y-85267800D01*
X118785250Y-85350939D01*
X118430915Y-85587698D01*
X118194156Y-85942033D01*
X118111017Y-86360000D01*
X117068600Y-86360000D01*
X117068600Y-82956400D01*
X118130922Y-82956400D01*
X118130922Y-84683600D01*
X118146862Y-84768314D01*
X118196928Y-84846118D01*
X118273320Y-84898315D01*
X118364000Y-84916678D01*
X120396000Y-84916678D01*
X120480714Y-84900738D01*
X120558518Y-84850672D01*
X120610715Y-84774280D01*
X120629078Y-84683600D01*
X120629078Y-82956400D01*
X120613138Y-82871686D01*
X120563072Y-82793882D01*
X120486680Y-82741685D01*
X120396000Y-82723322D01*
X118364000Y-82723322D01*
X118279286Y-82739262D01*
X118201482Y-82789328D01*
X118149285Y-82865720D01*
X118130922Y-82956400D01*
X117068600Y-82956400D01*
X117068600Y-80416400D01*
X200680922Y-80416400D01*
X200680922Y-82143600D01*
X200696862Y-82228314D01*
X200746928Y-82306118D01*
X200823320Y-82358315D01*
X200914000Y-82376678D01*
X202946000Y-82376678D01*
X203030714Y-82360738D01*
X203108518Y-82310672D01*
X203160715Y-82234280D01*
X203179078Y-82143600D01*
X203179078Y-80416400D01*
X203163138Y-80331686D01*
X203113072Y-80253882D01*
X203036680Y-80201685D01*
X202946000Y-80183322D01*
X200914000Y-80183322D01*
X200829286Y-80199262D01*
X200751482Y-80249328D01*
X200699285Y-80325720D01*
X200680922Y-80416400D01*
X117068600Y-80416400D01*
X117068600Y-78968600D01*
X141224000Y-78968600D01*
X141351694Y-78943200D01*
X146684306Y-78943200D01*
X146812000Y-78968600D01*
X146812000Y-78968600D01*
G37*
X146812000Y-78968600D02*
X175514000Y-78968600D01*
X175641694Y-78943200D01*
X180974306Y-78943200D01*
X181102000Y-78968600D01*
X205511400Y-78968600D01*
X205511400Y-98831400D01*
X117068600Y-98831400D01*
X117068600Y-96520000D01*
X118111017Y-96520000D01*
X118194156Y-96937967D01*
X118430915Y-97292302D01*
X118785250Y-97529061D01*
X119203217Y-97612200D01*
X119556783Y-97612200D01*
X119974750Y-97529061D01*
X120329085Y-97292302D01*
X120565844Y-96937967D01*
X120648983Y-96520000D01*
X120620973Y-96379180D01*
X128333401Y-96379180D01*
X128420224Y-96589306D01*
X128524000Y-96693263D01*
X128524000Y-97743818D01*
X128420789Y-97846849D01*
X128333600Y-98056823D01*
X128333401Y-98284180D01*
X128420224Y-98494306D01*
X128580849Y-98655211D01*
X128790823Y-98742400D01*
X129018180Y-98742599D01*
X129228306Y-98655776D01*
X129389211Y-98495151D01*
X129476400Y-98285177D01*
X129476599Y-98057820D01*
X129389776Y-97847694D01*
X129286000Y-97743737D01*
X129286000Y-96693182D01*
X129389211Y-96590151D01*
X129476400Y-96380177D01*
X129476599Y-96152820D01*
X129389776Y-95942694D01*
X129229151Y-95781789D01*
X129019177Y-95694600D01*
X128791820Y-95694401D01*
X128581694Y-95781224D01*
X128420789Y-95941849D01*
X128333600Y-96151823D01*
X128333401Y-96379180D01*
X120620973Y-96379180D01*
X120565844Y-96102033D01*
X120329085Y-95747698D01*
X119974750Y-95510939D01*
X119556783Y-95427800D01*
X119203217Y-95427800D01*
X118785250Y-95510939D01*
X118430915Y-95747698D01*
X118194156Y-96102033D01*
X118111017Y-96520000D01*
X117068600Y-96520000D01*
X117068600Y-95123000D01*
X144445322Y-95123000D01*
X144445322Y-97155000D01*
X144461262Y-97239714D01*
X144511328Y-97317518D01*
X144587720Y-97369715D01*
X144678400Y-97388078D01*
X146405600Y-97388078D01*
X146490314Y-97372138D01*
X146568118Y-97322072D01*
X146620315Y-97245680D01*
X146638678Y-97155000D01*
X146638678Y-95962217D01*
X146989800Y-95962217D01*
X146989800Y-96315783D01*
X147072939Y-96733750D01*
X147309698Y-97088085D01*
X147664033Y-97324844D01*
X148082000Y-97407983D01*
X148499967Y-97324844D01*
X148854302Y-97088085D01*
X149091061Y-96733750D01*
X149174200Y-96315783D01*
X149174200Y-95962217D01*
X149529800Y-95962217D01*
X149529800Y-96315783D01*
X149612939Y-96733750D01*
X149849698Y-97088085D01*
X150204033Y-97324844D01*
X150622000Y-97407983D01*
X151039967Y-97324844D01*
X151394302Y-97088085D01*
X151631061Y-96733750D01*
X151714200Y-96315783D01*
X151714200Y-95962217D01*
X154609800Y-95962217D01*
X154609800Y-96315783D01*
X154692939Y-96733750D01*
X154929698Y-97088085D01*
X155284033Y-97324844D01*
X155702000Y-97407983D01*
X156119967Y-97324844D01*
X156474302Y-97088085D01*
X156711061Y-96733750D01*
X156794200Y-96315783D01*
X156794200Y-95962217D01*
X157149800Y-95962217D01*
X157149800Y-96315783D01*
X157232939Y-96733750D01*
X157469698Y-97088085D01*
X157824033Y-97324844D01*
X158242000Y-97407983D01*
X158659967Y-97324844D01*
X159014302Y-97088085D01*
X159251061Y-96733750D01*
X159334200Y-96315783D01*
X159334200Y-96117603D01*
X166039800Y-96117603D01*
X166039800Y-96160397D01*
X166122939Y-96578364D01*
X166359698Y-96932699D01*
X166714033Y-97169458D01*
X167132000Y-97252597D01*
X167549967Y-97169458D01*
X167904302Y-96932699D01*
X168141061Y-96578364D01*
X168224200Y-96160397D01*
X168224200Y-96117603D01*
X168141061Y-95699636D01*
X167904302Y-95345301D01*
X167549967Y-95108542D01*
X167132000Y-95025403D01*
X166714033Y-95108542D01*
X166359698Y-95345301D01*
X166122939Y-95699636D01*
X166039800Y-96117603D01*
X159334200Y-96117603D01*
X159334200Y-95962217D01*
X159251061Y-95544250D01*
X159014302Y-95189915D01*
X158659967Y-94953156D01*
X158242000Y-94870017D01*
X157824033Y-94953156D01*
X157469698Y-95189915D01*
X157232939Y-95544250D01*
X157149800Y-95962217D01*
X156794200Y-95962217D01*
X156711061Y-95544250D01*
X156474302Y-95189915D01*
X156119967Y-94953156D01*
X155702000Y-94870017D01*
X155284033Y-94953156D01*
X154929698Y-95189915D01*
X154692939Y-95544250D01*
X154609800Y-95962217D01*
X151714200Y-95962217D01*
X151631061Y-95544250D01*
X151394302Y-95189915D01*
X151039967Y-94953156D01*
X150622000Y-94870017D01*
X150204033Y-94953156D01*
X149849698Y-95189915D01*
X149612939Y-95544250D01*
X149529800Y-95962217D01*
X149174200Y-95962217D01*
X149091061Y-95544250D01*
X148854302Y-95189915D01*
X148499967Y-94953156D01*
X148082000Y-94870017D01*
X147664033Y-94953156D01*
X147309698Y-95189915D01*
X147072939Y-95544250D01*
X146989800Y-95962217D01*
X146638678Y-95962217D01*
X146638678Y-95123000D01*
X146622738Y-95038286D01*
X146572672Y-94960482D01*
X146496280Y-94908285D01*
X146405600Y-94889922D01*
X144678400Y-94889922D01*
X144593686Y-94905862D01*
X144515882Y-94955928D01*
X144463685Y-95032320D01*
X144445322Y-95123000D01*
X117068600Y-95123000D01*
X117068600Y-93980000D01*
X118111017Y-93980000D01*
X118194156Y-94397967D01*
X118430915Y-94752302D01*
X118785250Y-94989061D01*
X119203217Y-95072200D01*
X119556783Y-95072200D01*
X119974750Y-94989061D01*
X120329085Y-94752302D01*
X120565844Y-94397967D01*
X120648983Y-93980000D01*
X120568942Y-93577603D01*
X166039800Y-93577603D01*
X166039800Y-93620397D01*
X166122939Y-94038364D01*
X166359698Y-94392699D01*
X166714033Y-94629458D01*
X167132000Y-94712597D01*
X167549967Y-94629458D01*
X167904302Y-94392699D01*
X168141061Y-94038364D01*
X168224200Y-93620397D01*
X168224200Y-93577603D01*
X168141061Y-93159636D01*
X167904302Y-92805301D01*
X167549967Y-92568542D01*
X167132000Y-92485403D01*
X166714033Y-92568542D01*
X166359698Y-92805301D01*
X166122939Y-93159636D01*
X166039800Y-93577603D01*
X120568942Y-93577603D01*
X120565844Y-93562033D01*
X120329085Y-93207698D01*
X119974750Y-92970939D01*
X119556783Y-92887800D01*
X119203217Y-92887800D01*
X118785250Y-92970939D01*
X118430915Y-93207698D01*
X118194156Y-93562033D01*
X118111017Y-93980000D01*
X117068600Y-93980000D01*
X117068600Y-91440000D01*
X118111017Y-91440000D01*
X118194156Y-91857967D01*
X118430915Y-92212302D01*
X118785250Y-92449061D01*
X119203217Y-92532200D01*
X119556783Y-92532200D01*
X119974750Y-92449061D01*
X120329085Y-92212302D01*
X120565844Y-91857967D01*
X120648983Y-91440000D01*
X120565844Y-91022033D01*
X120329085Y-90667698D01*
X119974750Y-90430939D01*
X119556783Y-90347800D01*
X119203217Y-90347800D01*
X118785250Y-90430939D01*
X118430915Y-90667698D01*
X118194156Y-91022033D01*
X118111017Y-91440000D01*
X117068600Y-91440000D01*
X117068600Y-88900000D01*
X118111017Y-88900000D01*
X118194156Y-89317967D01*
X118430915Y-89672302D01*
X118785250Y-89909061D01*
X119203217Y-89992200D01*
X119556783Y-89992200D01*
X119974750Y-89909061D01*
X120329085Y-89672302D01*
X120565844Y-89317967D01*
X120648983Y-88900000D01*
X120565844Y-88482033D01*
X120329085Y-88127698D01*
X120323820Y-88124180D01*
X155130401Y-88124180D01*
X155217224Y-88334306D01*
X155377849Y-88495211D01*
X155587823Y-88582400D01*
X155734713Y-88582529D01*
X156956590Y-89804405D01*
X156956592Y-89804408D01*
X157080198Y-89886998D01*
X157226000Y-89916000D01*
X163926184Y-89916000D01*
X161767184Y-92075000D01*
X157145182Y-92075000D01*
X157042151Y-91971789D01*
X156832177Y-91884600D01*
X156604820Y-91884401D01*
X156394694Y-91971224D01*
X156233789Y-92131849D01*
X156146600Y-92341823D01*
X156146401Y-92569180D01*
X156233224Y-92779306D01*
X156393849Y-92940211D01*
X156603823Y-93027400D01*
X156831180Y-93027599D01*
X157041306Y-92940776D01*
X157145263Y-92837000D01*
X161925000Y-92837000D01*
X162070803Y-92807998D01*
X162194408Y-92725408D01*
X164368816Y-90551000D01*
X167482184Y-90551000D01*
X169291000Y-92359816D01*
X169291000Y-92561189D01*
X169254033Y-92568542D01*
X168899698Y-92805301D01*
X168662939Y-93159636D01*
X168579800Y-93577603D01*
X168579800Y-93620397D01*
X168662939Y-94038364D01*
X168899698Y-94392699D01*
X169254033Y-94629458D01*
X169672000Y-94712597D01*
X170089967Y-94629458D01*
X170444302Y-94392699D01*
X170561000Y-94218048D01*
X170561000Y-94711184D01*
X170134132Y-95138052D01*
X170089967Y-95108542D01*
X169672000Y-95025403D01*
X169254033Y-95108542D01*
X168899698Y-95345301D01*
X168662939Y-95699636D01*
X168579800Y-96117603D01*
X168579800Y-96160397D01*
X168662939Y-96578364D01*
X168899698Y-96932699D01*
X169254033Y-97169458D01*
X169672000Y-97252597D01*
X170089967Y-97169458D01*
X170444302Y-96932699D01*
X170681061Y-96578364D01*
X170692670Y-96520000D01*
X200661017Y-96520000D01*
X200744156Y-96937967D01*
X200980915Y-97292302D01*
X201335250Y-97529061D01*
X201753217Y-97612200D01*
X202106783Y-97612200D01*
X202524750Y-97529061D01*
X202879085Y-97292302D01*
X203115844Y-96937967D01*
X203198983Y-96520000D01*
X203115844Y-96102033D01*
X202879085Y-95747698D01*
X202524750Y-95510939D01*
X202106783Y-95427800D01*
X201753217Y-95427800D01*
X201335250Y-95510939D01*
X200980915Y-95747698D01*
X200744156Y-96102033D01*
X200661017Y-96520000D01*
X170692670Y-96520000D01*
X170764200Y-96160397D01*
X170764200Y-96117603D01*
X170681061Y-95699636D01*
X170668692Y-95681124D01*
X171211408Y-95138408D01*
X171293998Y-95014803D01*
X171323000Y-94869000D01*
X171323000Y-94690534D01*
X171348400Y-94695678D01*
X173075600Y-94695678D01*
X173160314Y-94679738D01*
X173238118Y-94629672D01*
X173290315Y-94553280D01*
X173308678Y-94462600D01*
X173308678Y-93980000D01*
X200661017Y-93980000D01*
X200744156Y-94397967D01*
X200980915Y-94752302D01*
X201335250Y-94989061D01*
X201753217Y-95072200D01*
X202106783Y-95072200D01*
X202524750Y-94989061D01*
X202879085Y-94752302D01*
X203115844Y-94397967D01*
X203198983Y-93980000D01*
X203115844Y-93562033D01*
X202879085Y-93207698D01*
X202524750Y-92970939D01*
X202106783Y-92887800D01*
X201753217Y-92887800D01*
X201335250Y-92970939D01*
X200980915Y-93207698D01*
X200744156Y-93562033D01*
X200661017Y-93980000D01*
X173308678Y-93980000D01*
X173308678Y-92735400D01*
X173292738Y-92650686D01*
X173242672Y-92572882D01*
X173166280Y-92520685D01*
X173075600Y-92502322D01*
X172289138Y-92502322D01*
X171226816Y-91440000D01*
X200661017Y-91440000D01*
X200744156Y-91857967D01*
X200980915Y-92212302D01*
X201335250Y-92449061D01*
X201753217Y-92532200D01*
X202106783Y-92532200D01*
X202524750Y-92449061D01*
X202879085Y-92212302D01*
X203115844Y-91857967D01*
X203198983Y-91440000D01*
X203115844Y-91022033D01*
X202879085Y-90667698D01*
X202524750Y-90430939D01*
X202106783Y-90347800D01*
X201753217Y-90347800D01*
X201335250Y-90430939D01*
X200980915Y-90667698D01*
X200744156Y-91022033D01*
X200661017Y-91440000D01*
X171226816Y-91440000D01*
X168686816Y-88900000D01*
X200661017Y-88900000D01*
X200744156Y-89317967D01*
X200980915Y-89672302D01*
X201335250Y-89909061D01*
X201753217Y-89992200D01*
X202106783Y-89992200D01*
X202524750Y-89909061D01*
X202879085Y-89672302D01*
X203115844Y-89317967D01*
X203198983Y-88900000D01*
X203115844Y-88482033D01*
X202879085Y-88127698D01*
X202524750Y-87890939D01*
X202106783Y-87807800D01*
X201753217Y-87807800D01*
X201335250Y-87890939D01*
X200980915Y-88127698D01*
X200744156Y-88482033D01*
X200661017Y-88900000D01*
X168686816Y-88900000D01*
X168163408Y-88376592D01*
X168039803Y-88294002D01*
X167894000Y-88265000D01*
X158034182Y-88265000D01*
X157931151Y-88161789D01*
X157721177Y-88074600D01*
X157493820Y-88074401D01*
X157283694Y-88161224D01*
X157122789Y-88321849D01*
X157035600Y-88531823D01*
X157035401Y-88759180D01*
X157068077Y-88838262D01*
X156273471Y-88043656D01*
X156273599Y-87897820D01*
X156186776Y-87687694D01*
X156026151Y-87526789D01*
X155816177Y-87439600D01*
X155588820Y-87439401D01*
X155378694Y-87526224D01*
X155217789Y-87686849D01*
X155130600Y-87896823D01*
X155130401Y-88124180D01*
X120323820Y-88124180D01*
X119974750Y-87890939D01*
X119556783Y-87807800D01*
X119203217Y-87807800D01*
X118785250Y-87890939D01*
X118430915Y-88127698D01*
X118194156Y-88482033D01*
X118111017Y-88900000D01*
X117068600Y-88900000D01*
X117068600Y-86360000D01*
X118111017Y-86360000D01*
X118194156Y-86777967D01*
X118430915Y-87132302D01*
X118785250Y-87369061D01*
X119203217Y-87452200D01*
X119556783Y-87452200D01*
X119974750Y-87369061D01*
X120329085Y-87132302D01*
X120565844Y-86777967D01*
X120648983Y-86360000D01*
X120565844Y-85942033D01*
X120329085Y-85587698D01*
X120323820Y-85584180D01*
X149669401Y-85584180D01*
X149756224Y-85794306D01*
X149916849Y-85955211D01*
X149974020Y-85978950D01*
X149917694Y-86002224D01*
X149756789Y-86162849D01*
X149669600Y-86372823D01*
X149669401Y-86600180D01*
X149756224Y-86810306D01*
X149916849Y-86971211D01*
X150126823Y-87058400D01*
X150354180Y-87058599D01*
X150564306Y-86971776D01*
X150668263Y-86868000D01*
X160100818Y-86868000D01*
X160203849Y-86971211D01*
X160413823Y-87058400D01*
X160641180Y-87058599D01*
X160851306Y-86971776D01*
X161012211Y-86811151D01*
X161099400Y-86601177D01*
X161099599Y-86373820D01*
X161093889Y-86360000D01*
X200661017Y-86360000D01*
X200744156Y-86777967D01*
X200980915Y-87132302D01*
X201335250Y-87369061D01*
X201753217Y-87452200D01*
X202106783Y-87452200D01*
X202524750Y-87369061D01*
X202879085Y-87132302D01*
X203115844Y-86777967D01*
X203198983Y-86360000D01*
X203115844Y-85942033D01*
X202879085Y-85587698D01*
X202524750Y-85350939D01*
X202106783Y-85267800D01*
X201753217Y-85267800D01*
X201335250Y-85350939D01*
X200980915Y-85587698D01*
X200744156Y-85942033D01*
X200661017Y-86360000D01*
X161093889Y-86360000D01*
X161012776Y-86163694D01*
X160852151Y-86002789D01*
X160642177Y-85915600D01*
X160414820Y-85915401D01*
X160204694Y-86002224D01*
X160100737Y-86106000D01*
X150668182Y-86106000D01*
X150565151Y-86002789D01*
X150507980Y-85979050D01*
X150564306Y-85955776D01*
X150668263Y-85852000D01*
X159338818Y-85852000D01*
X159441849Y-85955211D01*
X159651823Y-86042400D01*
X159879180Y-86042599D01*
X160089306Y-85955776D01*
X160250211Y-85795151D01*
X160337400Y-85585177D01*
X160337599Y-85357820D01*
X160250776Y-85147694D01*
X160090151Y-84986789D01*
X159880177Y-84899600D01*
X159652820Y-84899401D01*
X159442694Y-84986224D01*
X159338737Y-85090000D01*
X158415263Y-85090000D01*
X158472211Y-85033151D01*
X158559400Y-84823177D01*
X158559599Y-84595820D01*
X158472776Y-84385694D01*
X158312151Y-84224789D01*
X158102177Y-84137600D01*
X157874820Y-84137401D01*
X157664694Y-84224224D01*
X157560737Y-84328000D01*
X151414816Y-84328000D01*
X150939471Y-83852655D01*
X150939499Y-83820000D01*
X200661017Y-83820000D01*
X200744156Y-84237967D01*
X200980915Y-84592302D01*
X201335250Y-84829061D01*
X201753217Y-84912200D01*
X202106783Y-84912200D01*
X202524750Y-84829061D01*
X202879085Y-84592302D01*
X203115844Y-84237967D01*
X203198983Y-83820000D01*
X203115844Y-83402033D01*
X202879085Y-83047698D01*
X202524750Y-82810939D01*
X202106783Y-82727800D01*
X201753217Y-82727800D01*
X201335250Y-82810939D01*
X200980915Y-83047698D01*
X200744156Y-83402033D01*
X200661017Y-83820000D01*
X150939499Y-83820000D01*
X150939599Y-83706820D01*
X150852776Y-83496694D01*
X150692151Y-83335789D01*
X150482177Y-83248600D01*
X150254820Y-83248401D01*
X150044694Y-83335224D01*
X149883789Y-83495849D01*
X149796600Y-83705823D01*
X149796401Y-83933180D01*
X149883224Y-84143306D01*
X150043849Y-84304211D01*
X150253823Y-84391400D01*
X150400713Y-84391529D01*
X150987592Y-84978408D01*
X151111198Y-85060998D01*
X151256995Y-85090000D01*
X150668182Y-85090000D01*
X150565151Y-84986789D01*
X150355177Y-84899600D01*
X150127820Y-84899401D01*
X149917694Y-84986224D01*
X149756789Y-85146849D01*
X149669600Y-85356823D01*
X149669401Y-85584180D01*
X120323820Y-85584180D01*
X119974750Y-85350939D01*
X119556783Y-85267800D01*
X119203217Y-85267800D01*
X118785250Y-85350939D01*
X118430915Y-85587698D01*
X118194156Y-85942033D01*
X118111017Y-86360000D01*
X117068600Y-86360000D01*
X117068600Y-82956400D01*
X118130922Y-82956400D01*
X118130922Y-84683600D01*
X118146862Y-84768314D01*
X118196928Y-84846118D01*
X118273320Y-84898315D01*
X118364000Y-84916678D01*
X120396000Y-84916678D01*
X120480714Y-84900738D01*
X120558518Y-84850672D01*
X120610715Y-84774280D01*
X120629078Y-84683600D01*
X120629078Y-82956400D01*
X120613138Y-82871686D01*
X120563072Y-82793882D01*
X120486680Y-82741685D01*
X120396000Y-82723322D01*
X118364000Y-82723322D01*
X118279286Y-82739262D01*
X118201482Y-82789328D01*
X118149285Y-82865720D01*
X118130922Y-82956400D01*
X117068600Y-82956400D01*
X117068600Y-80416400D01*
X200680922Y-80416400D01*
X200680922Y-82143600D01*
X200696862Y-82228314D01*
X200746928Y-82306118D01*
X200823320Y-82358315D01*
X200914000Y-82376678D01*
X202946000Y-82376678D01*
X203030714Y-82360738D01*
X203108518Y-82310672D01*
X203160715Y-82234280D01*
X203179078Y-82143600D01*
X203179078Y-80416400D01*
X203163138Y-80331686D01*
X203113072Y-80253882D01*
X203036680Y-80201685D01*
X202946000Y-80183322D01*
X200914000Y-80183322D01*
X200829286Y-80199262D01*
X200751482Y-80249328D01*
X200699285Y-80325720D01*
X200680922Y-80416400D01*
X117068600Y-80416400D01*
X117068600Y-78968600D01*
X141224000Y-78968600D01*
X141351694Y-78943200D01*
X146684306Y-78943200D01*
X146812000Y-78968600D01*
M02*
