M48
;DRILL file {KiCad (2015-05-26 BZR 5680)-product} date 2015 June 10, Wednesday 08:28:12
;FORMAT={-:-/ absolute / inch / decimal}
FMAT,2
INCH,TZ
T1C0.013
T2C0.031
T3C0.040
%
G90
G05
M72
T1
X3.58Y-1.62
X3.68Y-2.57
X3.78Y-1.57
X3.78Y-2.49
X3.88Y-1.53
X3.88Y-2.53
X4.09Y-1.61
X4.19Y-2.61
X4.29Y-1.57
X4.29Y-2.49
X4.39Y-1.53
X4.39Y-2.53
X4.52Y-1.8
X4.55Y-2.24
X4.77Y-1.61
X4.87Y-1.49
X4.97Y-1.57
X4.97Y-2.49
X5.07Y-1.53
X5.07Y-2.53
X5.21Y-2.01
X5.28Y-1.61
X5.37Y-1.95
X5.38Y-1.45
X5.47Y-2.23
X5.48Y-1.57
X5.48Y-2.49
X5.52Y-2.04
X5.58Y-1.53
X5.58Y-2.53
X5.66Y-2.15
X5.79Y-2.07
X5.8Y-1.75
X5.81Y-1.79
X5.83Y-2.06
X5.85Y-1.61
X5.85Y-1.84
X5.88Y-1.57
X5.88Y-1.89
X5.92Y-1.66
X5.92Y-1.94
X5.93Y-2.24
X5.95Y-1.53
X5.95Y-1.99
X5.98Y-2.24
X6.03Y-1.65
X6.15Y-1.95
X6.15Y-2.2
X6.15Y-2.25
X6.18Y-1.79
T2
X3.48Y-1.75
X3.48Y-2.35
X3.58Y-1.75
X3.58Y-2.35
X3.68Y-1.75
X3.68Y-2.35
X3.78Y-1.75
X3.78Y-2.35
X3.88Y-1.75
X3.88Y-2.35
X3.99Y-1.75
X3.99Y-2.35
X4.09Y-1.75
X4.09Y-2.35
X4.19Y-1.75
X4.19Y-2.35
X4.29Y-1.75
X4.29Y-2.35
X4.39Y-1.75
X4.39Y-2.35
X4.67Y-1.75
X4.67Y-2.35
X4.77Y-1.75
X4.77Y-2.35
X4.87Y-1.75
X4.87Y-2.35
X4.97Y-1.75
X4.97Y-2.35
X5.07Y-1.75
X5.07Y-2.35
X5.18Y-1.75
X5.18Y-2.35
X5.28Y-1.75
X5.28Y-2.35
X5.38Y-1.75
X5.38Y-2.35
X5.48Y-1.75
X5.48Y-2.35
X5.58Y-1.75
X5.58Y-2.35
T3
X5.8Y-2.6
X5.9Y-2.6
X6.Y-2.6
X6.1Y-2.6
X6.2Y-2.6
T0
M30
