M48
;DRILL file {KiCad 0.201508140901+6091~28~ubuntu14.04.1-product} date Tue 08 Dec 2015 09:17:20 PM CET
;FORMAT={2:4/ absolute / inch / suppress trailing zeros}
FMAT,2
INCH,LZ
T1C0.013
T2C0.024
T3C0.031
T4C0.040
%
G90
G05
M72
T1
X05075Y-0379
X05075Y-03865
X05135Y-021
X0514Y-0205
X05555Y-0323
X05805Y-0364
X05915Y-03365
X05915Y-03405
X0592Y-033
X0613Y-03465
X06135Y-0318
X0615Y-03525
X0617Y-0364
X06185Y-033
X06205Y-0349
X0622Y-03335
X06245Y-033
X0629Y-03365
X0632Y-03405
X0633Y-02115
X0633Y-0231
X06395Y-0377
X0682Y-0323
X0692Y-0349
X07305Y-02675
X0754Y-02725
X07615Y-0275
T2
X0563Y-03025
X0563Y-03085
X0567Y-03025
X0567Y-03085
X0571Y-03025
X0571Y-03085
X0698Y-03025
X0698Y-03085
X0702Y-03025
X0702Y-03085
X0706Y-03025
X0706Y-03085
T3
X05Y-019
X05Y-025
X051Y-019
X051Y-025
X052Y-019
X052Y-025
X053Y-019
X053Y-025
X054Y-019
X054Y-025
X056Y-019
X056Y-025
X057Y-019
X057Y-025
X058Y-019
X058Y-025
X059Y-019
X059Y-025
X06Y-019
X06Y-025
X065Y-019
X065Y-025
X066Y-019
X066Y-025
X067Y-019
X067Y-025
X068Y-019
X068Y-025
X069Y-019
X069Y-025
X071Y-019
X071Y-025
X072Y-019
X072Y-025
X073Y-019
X073Y-025
X074Y-019
X074Y-025
X075Y-019
X075Y-025
T4
X047Y-024
X047Y-025
X047Y-026
X047Y-027
X047Y-028
X047Y-029
X047Y-033
X047Y-034
X047Y-035
X047Y-036
X047Y-037
X047Y-038
X0573Y-03785
X0583Y-03785
X0593Y-03785
X0603Y-03785
X0613Y-03785
X0623Y-03785
X0658Y-03685
X0658Y-03785
X0668Y-03685
X0668Y-03785
X0678Y-03685
X0678Y-03785
X0795Y-023
X0795Y-024
X0795Y-025
X0795Y-026
X0795Y-027
X0795Y-028
X0795Y-029
X0795Y-032
X0795Y-033
X0795Y-034
X0795Y-035
X0795Y-036
X0795Y-037
X0795Y-038
T0
M30
