G04 #@! TF.FileFunction,Soldermask,Top*
%FSLAX46Y46*%
G04 Gerber Fmt 4.6, Leading zero omitted, Abs format (unit mm)*
G04 Created by KiCad (PCBNEW 0.201506222247+5806~23~ubuntu14.04.1-product) date Tue 30 Jun 2015 21:35:02 CEST*
%MOMM*%
G01*
G04 APERTURE LIST*
%ADD10C,0.100000*%
%ADD11R,1.500000X1.500000*%
%ADD12C,1.500000*%
%ADD13R,1.250000X1.500000*%
%ADD14R,1.600000X0.550000*%
%ADD15R,0.550000X1.600000*%
%ADD16R,2.032000X1.727200*%
%ADD17O,2.032000X1.727200*%
%ADD18R,0.300000X0.525000*%
%ADD19R,1.500000X1.300000*%
%ADD20R,1.300000X1.500000*%
%ADD21R,0.600000X1.600000*%
%ADD22R,0.600000X1.500000*%
%ADD23R,1.727200X1.727200*%
%ADD24O,1.727200X1.727200*%
%ADD25R,1.727200X2.032000*%
%ADD26O,1.727200X2.032000*%
%ADD27C,0.609600*%
G04 APERTURE END LIST*
D10*
D11*
X190500000Y-63500000D03*
D12*
X187960000Y-63500000D03*
X185420000Y-63500000D03*
X182880000Y-63500000D03*
X180340000Y-63500000D03*
X180340000Y-48260000D03*
X182880000Y-48260000D03*
X185420000Y-48260000D03*
X187960000Y-48260000D03*
X190500000Y-48260000D03*
D11*
X175260000Y-63500000D03*
D12*
X172720000Y-63500000D03*
X170180000Y-63500000D03*
X167640000Y-63500000D03*
X165100000Y-63500000D03*
X165100000Y-48260000D03*
X167640000Y-48260000D03*
X170180000Y-48260000D03*
X172720000Y-48260000D03*
X175260000Y-48260000D03*
D11*
X152400000Y-63500000D03*
D12*
X149860000Y-63500000D03*
X147320000Y-63500000D03*
X144780000Y-63500000D03*
X142240000Y-63500000D03*
X142240000Y-48260000D03*
X144780000Y-48260000D03*
X147320000Y-48260000D03*
X149860000Y-48260000D03*
X152400000Y-48260000D03*
D11*
X137160000Y-63500000D03*
D12*
X134620000Y-63500000D03*
X132080000Y-63500000D03*
X129540000Y-63500000D03*
X127000000Y-63500000D03*
X127000000Y-48260000D03*
X129540000Y-48260000D03*
X132080000Y-48260000D03*
X134620000Y-48260000D03*
X137160000Y-48260000D03*
D13*
X167640000Y-86467000D03*
X167640000Y-83967000D03*
D14*
X165286000Y-91954000D03*
X165286000Y-91154000D03*
X165286000Y-90354000D03*
X165286000Y-89554000D03*
X165286000Y-88754000D03*
X165286000Y-87954000D03*
X165286000Y-87154000D03*
X165286000Y-86354000D03*
D15*
X163836000Y-84904000D03*
X163036000Y-84904000D03*
X162236000Y-84904000D03*
X161436000Y-84904000D03*
X160636000Y-84904000D03*
X159836000Y-84904000D03*
X159036000Y-84904000D03*
X158236000Y-84904000D03*
D14*
X156786000Y-86354000D03*
X156786000Y-87154000D03*
X156786000Y-87954000D03*
X156786000Y-88754000D03*
X156786000Y-89554000D03*
X156786000Y-90354000D03*
X156786000Y-91154000D03*
X156786000Y-91954000D03*
D15*
X158236000Y-93404000D03*
X159036000Y-93404000D03*
X159836000Y-93404000D03*
X160636000Y-93404000D03*
X161436000Y-93404000D03*
X162236000Y-93404000D03*
X163036000Y-93404000D03*
X163836000Y-93404000D03*
D16*
X119380000Y-83820000D03*
D17*
X119380000Y-86360000D03*
X119380000Y-88900000D03*
X119380000Y-91440000D03*
X119380000Y-93980000D03*
X119380000Y-96520000D03*
D16*
X201930000Y-81280000D03*
D17*
X201930000Y-83820000D03*
X201930000Y-86360000D03*
X201930000Y-88900000D03*
X201930000Y-91440000D03*
X201930000Y-93980000D03*
X201930000Y-96520000D03*
D18*
X127000000Y-84125500D03*
X127000000Y-85800500D03*
X127650000Y-85800500D03*
X126350000Y-85800500D03*
X126350000Y-84125500D03*
X127650000Y-84125500D03*
X127000000Y-89078500D03*
X127000000Y-90753500D03*
X127650000Y-90753500D03*
X126350000Y-90753500D03*
X126350000Y-89078500D03*
X127650000Y-89078500D03*
X126873000Y-94412500D03*
X126873000Y-96087500D03*
X127523000Y-96087500D03*
X126223000Y-96087500D03*
X126223000Y-94412500D03*
X127523000Y-94412500D03*
D19*
X170260000Y-92710000D03*
X167560000Y-92710000D03*
D20*
X158623000Y-58500000D03*
X158623000Y-55800000D03*
X158750000Y-53293000D03*
X158750000Y-50593000D03*
D19*
X132000000Y-83820000D03*
X134700000Y-83820000D03*
X132000000Y-86360000D03*
X134700000Y-86360000D03*
X132000000Y-88900000D03*
X134700000Y-88900000D03*
X132000000Y-91440000D03*
X134700000Y-91440000D03*
X136191000Y-95885000D03*
X138891000Y-95885000D03*
D20*
X133223000Y-97235000D03*
X133223000Y-94535000D03*
D19*
X190707000Y-85471000D03*
X188007000Y-85471000D03*
X196295000Y-86995000D03*
X193595000Y-86995000D03*
X190580000Y-89027000D03*
X187880000Y-89027000D03*
X190580000Y-91440000D03*
X187880000Y-91440000D03*
X187405000Y-94615000D03*
X184705000Y-94615000D03*
X190453000Y-82042000D03*
X187753000Y-82042000D03*
X196168000Y-82042000D03*
X193468000Y-82042000D03*
D21*
X147447000Y-83822000D03*
X146177000Y-83822000D03*
X144907000Y-83822000D03*
X143637000Y-83822000D03*
X142367000Y-83820000D03*
D22*
X141097000Y-83822000D03*
D21*
X139827000Y-83822000D03*
X138557000Y-83822000D03*
X138557000Y-90422000D03*
X139827000Y-90422000D03*
X141097000Y-90422000D03*
X142367000Y-90422000D03*
X143637000Y-90422000D03*
X144907000Y-90422000D03*
X146177000Y-90422000D03*
X147447000Y-90422000D03*
X173228000Y-90549000D03*
X174498000Y-90549000D03*
X175768000Y-90549000D03*
X177038000Y-90549000D03*
X178308000Y-90551000D03*
D22*
X179578000Y-90549000D03*
D21*
X180848000Y-90549000D03*
X182118000Y-90549000D03*
X182118000Y-83949000D03*
X180848000Y-83949000D03*
X179578000Y-83949000D03*
X178308000Y-83949000D03*
X177038000Y-83949000D03*
X175768000Y-83949000D03*
X174498000Y-83949000D03*
X173228000Y-83949000D03*
D23*
X150368000Y-92075000D03*
D24*
X152908000Y-92075000D03*
X150368000Y-94615000D03*
X152908000Y-94615000D03*
X150368000Y-97155000D03*
X152908000Y-97155000D03*
D25*
X170180000Y-96520000D03*
D26*
X172720000Y-96520000D03*
X175260000Y-96520000D03*
X177800000Y-96520000D03*
X180340000Y-96520000D03*
D16*
X119380000Y-60960000D03*
D17*
X119380000Y-63500000D03*
X119380000Y-66040000D03*
X119380000Y-68580000D03*
X119380000Y-71120000D03*
X119380000Y-73660000D03*
D16*
X201930000Y-58420000D03*
D17*
X201930000Y-60960000D03*
X201930000Y-63500000D03*
X201930000Y-66040000D03*
X201930000Y-68580000D03*
X201930000Y-71120000D03*
X201930000Y-73660000D03*
D27*
X143002000Y-78359000D03*
X144018000Y-78613000D03*
X145034000Y-78359000D03*
X144018000Y-76581000D03*
X143002000Y-76835000D03*
X145034000Y-76835000D03*
X177292000Y-78359000D03*
X178308000Y-78613000D03*
X179324000Y-78359000D03*
X178308000Y-76581000D03*
X177292000Y-76835000D03*
X179324000Y-76835000D03*
M02*
