G04 #@! TF.FileFunction,Legend,Top*
%FSLAX46Y46*%
G04 Gerber Fmt 4.6, Leading zero omitted, Abs format (unit mm)*
G04 Created by KiCad (PCBNEW 0.201506222247+5806~23~ubuntu14.04.1-product) date Sat 27 Jun 2015 18:01:35 CEST*
%MOMM*%
G01*
G04 APERTURE LIST*
%ADD10C,0.100000*%
%ADD11C,0.127000*%
%ADD12C,0.150000*%
%ADD13R,1.500000X1.500000*%
%ADD14C,1.500000*%
%ADD15R,1.250000X1.500000*%
%ADD16R,1.600000X0.550000*%
%ADD17R,0.550000X1.600000*%
%ADD18R,2.032000X1.727200*%
%ADD19O,2.032000X1.727200*%
%ADD20R,0.300000X0.525000*%
%ADD21R,1.500000X1.300000*%
%ADD22R,1.300000X1.500000*%
%ADD23R,0.600000X1.600000*%
%ADD24R,0.600000X1.500000*%
%ADD25R,1.727200X1.727200*%
%ADD26O,1.727200X1.727200*%
%ADD27R,1.727200X2.032000*%
%ADD28O,1.727200X2.032000*%
G04 APERTURE END LIST*
D10*
D11*
X153524857Y-79304243D02*
X153488571Y-79340529D01*
X153379714Y-79376814D01*
X153307143Y-79376814D01*
X153198286Y-79340529D01*
X153125714Y-79267957D01*
X153089429Y-79195386D01*
X153053143Y-79050243D01*
X153053143Y-78941386D01*
X153089429Y-78796243D01*
X153125714Y-78723671D01*
X153198286Y-78651100D01*
X153307143Y-78614814D01*
X153379714Y-78614814D01*
X153488571Y-78651100D01*
X153524857Y-78687386D01*
X153960286Y-79376814D02*
X153887714Y-79340529D01*
X153851429Y-79267957D01*
X153851429Y-78614814D01*
X154359429Y-79376814D02*
X154286857Y-79340529D01*
X154250572Y-79304243D01*
X154214286Y-79231671D01*
X154214286Y-79013957D01*
X154250572Y-78941386D01*
X154286857Y-78905100D01*
X154359429Y-78868814D01*
X154468286Y-78868814D01*
X154540857Y-78905100D01*
X154577143Y-78941386D01*
X154613429Y-79013957D01*
X154613429Y-79231671D01*
X154577143Y-79304243D01*
X154540857Y-79340529D01*
X154468286Y-79376814D01*
X154359429Y-79376814D01*
X155266572Y-79340529D02*
X155194001Y-79376814D01*
X155048858Y-79376814D01*
X154976286Y-79340529D01*
X154940001Y-79304243D01*
X154903715Y-79231671D01*
X154903715Y-79013957D01*
X154940001Y-78941386D01*
X154976286Y-78905100D01*
X155048858Y-78868814D01*
X155194001Y-78868814D01*
X155266572Y-78905100D01*
X155593144Y-79376814D02*
X155593144Y-78614814D01*
X155665715Y-79086529D02*
X155883429Y-79376814D01*
X155883429Y-78868814D02*
X155593144Y-79159100D01*
X157117143Y-79376814D02*
X157117143Y-78614814D01*
X157117143Y-79340529D02*
X157044572Y-79376814D01*
X156899429Y-79376814D01*
X156826857Y-79340529D01*
X156790572Y-79304243D01*
X156754286Y-79231671D01*
X156754286Y-79013957D01*
X156790572Y-78941386D01*
X156826857Y-78905100D01*
X156899429Y-78868814D01*
X157044572Y-78868814D01*
X157117143Y-78905100D01*
X157480001Y-79376814D02*
X157480001Y-78868814D01*
X157480001Y-78614814D02*
X157443715Y-78651100D01*
X157480001Y-78687386D01*
X157516286Y-78651100D01*
X157480001Y-78614814D01*
X157480001Y-78687386D01*
X157806572Y-79340529D02*
X157879143Y-79376814D01*
X158024286Y-79376814D01*
X158096858Y-79340529D01*
X158133143Y-79267957D01*
X158133143Y-79231671D01*
X158096858Y-79159100D01*
X158024286Y-79122814D01*
X157915429Y-79122814D01*
X157842858Y-79086529D01*
X157806572Y-79013957D01*
X157806572Y-78977671D01*
X157842858Y-78905100D01*
X157915429Y-78868814D01*
X158024286Y-78868814D01*
X158096858Y-78905100D01*
X158459715Y-78868814D02*
X158459715Y-79630814D01*
X158459715Y-78905100D02*
X158532286Y-78868814D01*
X158677429Y-78868814D01*
X158750000Y-78905100D01*
X158786286Y-78941386D01*
X158822572Y-79013957D01*
X158822572Y-79231671D01*
X158786286Y-79304243D01*
X158750000Y-79340529D01*
X158677429Y-79376814D01*
X158532286Y-79376814D01*
X158459715Y-79340529D01*
X159258001Y-79376814D02*
X159185429Y-79340529D01*
X159149144Y-79267957D01*
X159149144Y-78614814D01*
X159874858Y-79376814D02*
X159874858Y-78977671D01*
X159838572Y-78905100D01*
X159766001Y-78868814D01*
X159620858Y-78868814D01*
X159548287Y-78905100D01*
X159874858Y-79340529D02*
X159802287Y-79376814D01*
X159620858Y-79376814D01*
X159548287Y-79340529D01*
X159512001Y-79267957D01*
X159512001Y-79195386D01*
X159548287Y-79122814D01*
X159620858Y-79086529D01*
X159802287Y-79086529D01*
X159874858Y-79050243D01*
X160165144Y-78868814D02*
X160346573Y-79376814D01*
X160528001Y-78868814D02*
X160346573Y-79376814D01*
X160274001Y-79558243D01*
X160237716Y-79594529D01*
X160165144Y-79630814D01*
X161398858Y-79376814D02*
X161398858Y-78614814D01*
X161652858Y-79159100D01*
X161906858Y-78614814D01*
X161906858Y-79376814D01*
X162378572Y-79376814D02*
X162306000Y-79340529D01*
X162269715Y-79304243D01*
X162233429Y-79231671D01*
X162233429Y-79013957D01*
X162269715Y-78941386D01*
X162306000Y-78905100D01*
X162378572Y-78868814D01*
X162487429Y-78868814D01*
X162560000Y-78905100D01*
X162596286Y-78941386D01*
X162632572Y-79013957D01*
X162632572Y-79231671D01*
X162596286Y-79304243D01*
X162560000Y-79340529D01*
X162487429Y-79376814D01*
X162378572Y-79376814D01*
X163285715Y-79376814D02*
X163285715Y-78614814D01*
X163285715Y-79340529D02*
X163213144Y-79376814D01*
X163068001Y-79376814D01*
X162995429Y-79340529D01*
X162959144Y-79304243D01*
X162922858Y-79231671D01*
X162922858Y-79013957D01*
X162959144Y-78941386D01*
X162995429Y-78905100D01*
X163068001Y-78868814D01*
X163213144Y-78868814D01*
X163285715Y-78905100D01*
X163975144Y-78868814D02*
X163975144Y-79376814D01*
X163648573Y-78868814D02*
X163648573Y-79267957D01*
X163684858Y-79340529D01*
X163757430Y-79376814D01*
X163866287Y-79376814D01*
X163938858Y-79340529D01*
X163975144Y-79304243D01*
X164446859Y-79376814D02*
X164374287Y-79340529D01*
X164338002Y-79267957D01*
X164338002Y-78614814D01*
X165027430Y-79340529D02*
X164954859Y-79376814D01*
X164809716Y-79376814D01*
X164737145Y-79340529D01*
X164700859Y-79267957D01*
X164700859Y-78977671D01*
X164737145Y-78905100D01*
X164809716Y-78868814D01*
X164954859Y-78868814D01*
X165027430Y-78905100D01*
X165063716Y-78977671D01*
X165063716Y-79050243D01*
X164700859Y-79122814D01*
X165934573Y-78687386D02*
X165970859Y-78651100D01*
X166043430Y-78614814D01*
X166224859Y-78614814D01*
X166297430Y-78651100D01*
X166333716Y-78687386D01*
X166370001Y-78759957D01*
X166370001Y-78832529D01*
X166333716Y-78941386D01*
X165898287Y-79376814D01*
X166370001Y-79376814D01*
X167059430Y-79376814D02*
X166696573Y-79376814D01*
X166696573Y-78614814D01*
X167313430Y-79304243D02*
X167349715Y-79340529D01*
X167313430Y-79376814D01*
X167277144Y-79340529D01*
X167313430Y-79304243D01*
X167313430Y-79376814D01*
X168075429Y-79376814D02*
X167640001Y-79376814D01*
X167857715Y-79376814D02*
X167857715Y-78614814D01*
X167785144Y-78723671D01*
X167712572Y-78796243D01*
X167640001Y-78832529D01*
X153524857Y-80498043D02*
X153488571Y-80534329D01*
X153379714Y-80570614D01*
X153307143Y-80570614D01*
X153198286Y-80534329D01*
X153125714Y-80461757D01*
X153089429Y-80389186D01*
X153053143Y-80244043D01*
X153053143Y-80135186D01*
X153089429Y-79990043D01*
X153125714Y-79917471D01*
X153198286Y-79844900D01*
X153307143Y-79808614D01*
X153379714Y-79808614D01*
X153488571Y-79844900D01*
X153524857Y-79881186D01*
X153960286Y-80570614D02*
X153887714Y-80534329D01*
X153851429Y-80498043D01*
X153815143Y-80425471D01*
X153815143Y-80207757D01*
X153851429Y-80135186D01*
X153887714Y-80098900D01*
X153960286Y-80062614D01*
X154069143Y-80062614D01*
X154141714Y-80098900D01*
X154178000Y-80135186D01*
X154214286Y-80207757D01*
X154214286Y-80425471D01*
X154178000Y-80498043D01*
X154141714Y-80534329D01*
X154069143Y-80570614D01*
X153960286Y-80570614D01*
X154540858Y-80062614D02*
X154540858Y-80570614D01*
X154540858Y-80135186D02*
X154577143Y-80098900D01*
X154649715Y-80062614D01*
X154758572Y-80062614D01*
X154831143Y-80098900D01*
X154867429Y-80171471D01*
X154867429Y-80570614D01*
X155121429Y-80062614D02*
X155411715Y-80062614D01*
X155230287Y-79808614D02*
X155230287Y-80461757D01*
X155266572Y-80534329D01*
X155339144Y-80570614D01*
X155411715Y-80570614D01*
X155665716Y-80570614D02*
X155665716Y-80062614D01*
X155665716Y-80207757D02*
X155702001Y-80135186D01*
X155738287Y-80098900D01*
X155810858Y-80062614D01*
X155883430Y-80062614D01*
X156246287Y-80570614D02*
X156173715Y-80534329D01*
X156137430Y-80498043D01*
X156101144Y-80425471D01*
X156101144Y-80207757D01*
X156137430Y-80135186D01*
X156173715Y-80098900D01*
X156246287Y-80062614D01*
X156355144Y-80062614D01*
X156427715Y-80098900D01*
X156464001Y-80135186D01*
X156500287Y-80207757D01*
X156500287Y-80425471D01*
X156464001Y-80498043D01*
X156427715Y-80534329D01*
X156355144Y-80570614D01*
X156246287Y-80570614D01*
X156935716Y-80570614D02*
X156863144Y-80534329D01*
X156826859Y-80461757D01*
X156826859Y-79808614D01*
X157806573Y-80570614D02*
X157806573Y-79808614D01*
X157806573Y-80098900D02*
X157879144Y-80062614D01*
X158024287Y-80062614D01*
X158096858Y-80098900D01*
X158133144Y-80135186D01*
X158169430Y-80207757D01*
X158169430Y-80425471D01*
X158133144Y-80498043D01*
X158096858Y-80534329D01*
X158024287Y-80570614D01*
X157879144Y-80570614D01*
X157806573Y-80534329D01*
X158604859Y-80570614D02*
X158532287Y-80534329D01*
X158496002Y-80498043D01*
X158459716Y-80425471D01*
X158459716Y-80207757D01*
X158496002Y-80135186D01*
X158532287Y-80098900D01*
X158604859Y-80062614D01*
X158713716Y-80062614D01*
X158786287Y-80098900D01*
X158822573Y-80135186D01*
X158858859Y-80207757D01*
X158858859Y-80425471D01*
X158822573Y-80498043D01*
X158786287Y-80534329D01*
X158713716Y-80570614D01*
X158604859Y-80570614D01*
X159512002Y-80570614D02*
X159512002Y-80171471D01*
X159475716Y-80098900D01*
X159403145Y-80062614D01*
X159258002Y-80062614D01*
X159185431Y-80098900D01*
X159512002Y-80534329D02*
X159439431Y-80570614D01*
X159258002Y-80570614D01*
X159185431Y-80534329D01*
X159149145Y-80461757D01*
X159149145Y-80389186D01*
X159185431Y-80316614D01*
X159258002Y-80280329D01*
X159439431Y-80280329D01*
X159512002Y-80244043D01*
X159874860Y-80570614D02*
X159874860Y-80062614D01*
X159874860Y-80207757D02*
X159911145Y-80135186D01*
X159947431Y-80098900D01*
X160020002Y-80062614D01*
X160092574Y-80062614D01*
X160673145Y-80570614D02*
X160673145Y-79808614D01*
X160673145Y-80534329D02*
X160600574Y-80570614D01*
X160455431Y-80570614D01*
X160382859Y-80534329D01*
X160346574Y-80498043D01*
X160310288Y-80425471D01*
X160310288Y-80207757D01*
X160346574Y-80135186D01*
X160382859Y-80098900D01*
X160455431Y-80062614D01*
X160600574Y-80062614D01*
X160673145Y-80098900D01*
X181210857Y-73843243D02*
X181174571Y-73879529D01*
X181065714Y-73915814D01*
X180993143Y-73915814D01*
X180884286Y-73879529D01*
X180811714Y-73806957D01*
X180775429Y-73734386D01*
X180739143Y-73589243D01*
X180739143Y-73480386D01*
X180775429Y-73335243D01*
X180811714Y-73262671D01*
X180884286Y-73190100D01*
X180993143Y-73153814D01*
X181065714Y-73153814D01*
X181174571Y-73190100D01*
X181210857Y-73226386D01*
X181646286Y-73915814D02*
X181573714Y-73879529D01*
X181537429Y-73806957D01*
X181537429Y-73153814D01*
X182045429Y-73915814D02*
X181972857Y-73879529D01*
X181936572Y-73843243D01*
X181900286Y-73770671D01*
X181900286Y-73552957D01*
X181936572Y-73480386D01*
X181972857Y-73444100D01*
X182045429Y-73407814D01*
X182154286Y-73407814D01*
X182226857Y-73444100D01*
X182263143Y-73480386D01*
X182299429Y-73552957D01*
X182299429Y-73770671D01*
X182263143Y-73843243D01*
X182226857Y-73879529D01*
X182154286Y-73915814D01*
X182045429Y-73915814D01*
X182952572Y-73879529D02*
X182880001Y-73915814D01*
X182734858Y-73915814D01*
X182662286Y-73879529D01*
X182626001Y-73843243D01*
X182589715Y-73770671D01*
X182589715Y-73552957D01*
X182626001Y-73480386D01*
X182662286Y-73444100D01*
X182734858Y-73407814D01*
X182880001Y-73407814D01*
X182952572Y-73444100D01*
X183279144Y-73915814D02*
X183279144Y-73153814D01*
X183351715Y-73625529D02*
X183569429Y-73915814D01*
X183569429Y-73407814D02*
X183279144Y-73698100D01*
X184803143Y-73915814D02*
X184803143Y-73153814D01*
X184803143Y-73879529D02*
X184730572Y-73915814D01*
X184585429Y-73915814D01*
X184512857Y-73879529D01*
X184476572Y-73843243D01*
X184440286Y-73770671D01*
X184440286Y-73552957D01*
X184476572Y-73480386D01*
X184512857Y-73444100D01*
X184585429Y-73407814D01*
X184730572Y-73407814D01*
X184803143Y-73444100D01*
X185166001Y-73915814D02*
X185166001Y-73407814D01*
X185166001Y-73153814D02*
X185129715Y-73190100D01*
X185166001Y-73226386D01*
X185202286Y-73190100D01*
X185166001Y-73153814D01*
X185166001Y-73226386D01*
X185492572Y-73879529D02*
X185565143Y-73915814D01*
X185710286Y-73915814D01*
X185782858Y-73879529D01*
X185819143Y-73806957D01*
X185819143Y-73770671D01*
X185782858Y-73698100D01*
X185710286Y-73661814D01*
X185601429Y-73661814D01*
X185528858Y-73625529D01*
X185492572Y-73552957D01*
X185492572Y-73516671D01*
X185528858Y-73444100D01*
X185601429Y-73407814D01*
X185710286Y-73407814D01*
X185782858Y-73444100D01*
X186145715Y-73407814D02*
X186145715Y-74169814D01*
X186145715Y-73444100D02*
X186218286Y-73407814D01*
X186363429Y-73407814D01*
X186436000Y-73444100D01*
X186472286Y-73480386D01*
X186508572Y-73552957D01*
X186508572Y-73770671D01*
X186472286Y-73843243D01*
X186436000Y-73879529D01*
X186363429Y-73915814D01*
X186218286Y-73915814D01*
X186145715Y-73879529D01*
X186944001Y-73915814D02*
X186871429Y-73879529D01*
X186835144Y-73806957D01*
X186835144Y-73153814D01*
X187560858Y-73915814D02*
X187560858Y-73516671D01*
X187524572Y-73444100D01*
X187452001Y-73407814D01*
X187306858Y-73407814D01*
X187234287Y-73444100D01*
X187560858Y-73879529D02*
X187488287Y-73915814D01*
X187306858Y-73915814D01*
X187234287Y-73879529D01*
X187198001Y-73806957D01*
X187198001Y-73734386D01*
X187234287Y-73661814D01*
X187306858Y-73625529D01*
X187488287Y-73625529D01*
X187560858Y-73589243D01*
X187851144Y-73407814D02*
X188032573Y-73915814D01*
X188214001Y-73407814D02*
X188032573Y-73915814D01*
X187960001Y-74097243D01*
X187923716Y-74133529D01*
X187851144Y-74169814D01*
X189084858Y-73915814D02*
X189084858Y-73153814D01*
X189338858Y-73698100D01*
X189592858Y-73153814D01*
X189592858Y-73915814D01*
X190064572Y-73915814D02*
X189992000Y-73879529D01*
X189955715Y-73843243D01*
X189919429Y-73770671D01*
X189919429Y-73552957D01*
X189955715Y-73480386D01*
X189992000Y-73444100D01*
X190064572Y-73407814D01*
X190173429Y-73407814D01*
X190246000Y-73444100D01*
X190282286Y-73480386D01*
X190318572Y-73552957D01*
X190318572Y-73770671D01*
X190282286Y-73843243D01*
X190246000Y-73879529D01*
X190173429Y-73915814D01*
X190064572Y-73915814D01*
X190971715Y-73915814D02*
X190971715Y-73153814D01*
X190971715Y-73879529D02*
X190899144Y-73915814D01*
X190754001Y-73915814D01*
X190681429Y-73879529D01*
X190645144Y-73843243D01*
X190608858Y-73770671D01*
X190608858Y-73552957D01*
X190645144Y-73480386D01*
X190681429Y-73444100D01*
X190754001Y-73407814D01*
X190899144Y-73407814D01*
X190971715Y-73444100D01*
X191661144Y-73407814D02*
X191661144Y-73915814D01*
X191334573Y-73407814D02*
X191334573Y-73806957D01*
X191370858Y-73879529D01*
X191443430Y-73915814D01*
X191552287Y-73915814D01*
X191624858Y-73879529D01*
X191661144Y-73843243D01*
X192132859Y-73915814D02*
X192060287Y-73879529D01*
X192024002Y-73806957D01*
X192024002Y-73153814D01*
X192713430Y-73879529D02*
X192640859Y-73915814D01*
X192495716Y-73915814D01*
X192423145Y-73879529D01*
X192386859Y-73806957D01*
X192386859Y-73516671D01*
X192423145Y-73444100D01*
X192495716Y-73407814D01*
X192640859Y-73407814D01*
X192713430Y-73444100D01*
X192749716Y-73516671D01*
X192749716Y-73589243D01*
X192386859Y-73661814D01*
X193620573Y-73226386D02*
X193656859Y-73190100D01*
X193729430Y-73153814D01*
X193910859Y-73153814D01*
X193983430Y-73190100D01*
X194019716Y-73226386D01*
X194056001Y-73298957D01*
X194056001Y-73371529D01*
X194019716Y-73480386D01*
X193584287Y-73915814D01*
X194056001Y-73915814D01*
X194745430Y-73915814D02*
X194382573Y-73915814D01*
X194382573Y-73153814D01*
X194999430Y-73843243D02*
X195035715Y-73879529D01*
X194999430Y-73915814D01*
X194963144Y-73879529D01*
X194999430Y-73843243D01*
X194999430Y-73915814D01*
X195761429Y-73915814D02*
X195326001Y-73915814D01*
X195543715Y-73915814D02*
X195543715Y-73153814D01*
X195471144Y-73262671D01*
X195398572Y-73335243D01*
X195326001Y-73371529D01*
X180775429Y-75109614D02*
X180775429Y-74347614D01*
X180956857Y-74347614D01*
X181065714Y-74383900D01*
X181138286Y-74456471D01*
X181174571Y-74529043D01*
X181210857Y-74674186D01*
X181210857Y-74783043D01*
X181174571Y-74928186D01*
X181138286Y-75000757D01*
X181065714Y-75073329D01*
X180956857Y-75109614D01*
X180775429Y-75109614D01*
X181537429Y-75109614D02*
X181537429Y-74601614D01*
X181537429Y-74347614D02*
X181501143Y-74383900D01*
X181537429Y-74420186D01*
X181573714Y-74383900D01*
X181537429Y-74347614D01*
X181537429Y-74420186D01*
X181864000Y-75073329D02*
X181936571Y-75109614D01*
X182081714Y-75109614D01*
X182154286Y-75073329D01*
X182190571Y-75000757D01*
X182190571Y-74964471D01*
X182154286Y-74891900D01*
X182081714Y-74855614D01*
X181972857Y-74855614D01*
X181900286Y-74819329D01*
X181864000Y-74746757D01*
X181864000Y-74710471D01*
X181900286Y-74637900D01*
X181972857Y-74601614D01*
X182081714Y-74601614D01*
X182154286Y-74637900D01*
X182517143Y-74601614D02*
X182517143Y-75363614D01*
X182517143Y-74637900D02*
X182589714Y-74601614D01*
X182734857Y-74601614D01*
X182807428Y-74637900D01*
X182843714Y-74674186D01*
X182880000Y-74746757D01*
X182880000Y-74964471D01*
X182843714Y-75037043D01*
X182807428Y-75073329D01*
X182734857Y-75109614D01*
X182589714Y-75109614D01*
X182517143Y-75073329D01*
X183315429Y-75109614D02*
X183242857Y-75073329D01*
X183206572Y-75000757D01*
X183206572Y-74347614D01*
X183932286Y-75109614D02*
X183932286Y-74710471D01*
X183896000Y-74637900D01*
X183823429Y-74601614D01*
X183678286Y-74601614D01*
X183605715Y-74637900D01*
X183932286Y-75073329D02*
X183859715Y-75109614D01*
X183678286Y-75109614D01*
X183605715Y-75073329D01*
X183569429Y-75000757D01*
X183569429Y-74928186D01*
X183605715Y-74855614D01*
X183678286Y-74819329D01*
X183859715Y-74819329D01*
X183932286Y-74783043D01*
X184222572Y-74601614D02*
X184404001Y-75109614D01*
X184585429Y-74601614D02*
X184404001Y-75109614D01*
X184331429Y-75291043D01*
X184295144Y-75327329D01*
X184222572Y-75363614D01*
X185456286Y-75109614D02*
X185456286Y-74347614D01*
X185456286Y-74637900D02*
X185528857Y-74601614D01*
X185674000Y-74601614D01*
X185746571Y-74637900D01*
X185782857Y-74674186D01*
X185819143Y-74746757D01*
X185819143Y-74964471D01*
X185782857Y-75037043D01*
X185746571Y-75073329D01*
X185674000Y-75109614D01*
X185528857Y-75109614D01*
X185456286Y-75073329D01*
X186254572Y-75109614D02*
X186182000Y-75073329D01*
X186145715Y-75037043D01*
X186109429Y-74964471D01*
X186109429Y-74746757D01*
X186145715Y-74674186D01*
X186182000Y-74637900D01*
X186254572Y-74601614D01*
X186363429Y-74601614D01*
X186436000Y-74637900D01*
X186472286Y-74674186D01*
X186508572Y-74746757D01*
X186508572Y-74964471D01*
X186472286Y-75037043D01*
X186436000Y-75073329D01*
X186363429Y-75109614D01*
X186254572Y-75109614D01*
X187161715Y-75109614D02*
X187161715Y-74710471D01*
X187125429Y-74637900D01*
X187052858Y-74601614D01*
X186907715Y-74601614D01*
X186835144Y-74637900D01*
X187161715Y-75073329D02*
X187089144Y-75109614D01*
X186907715Y-75109614D01*
X186835144Y-75073329D01*
X186798858Y-75000757D01*
X186798858Y-74928186D01*
X186835144Y-74855614D01*
X186907715Y-74819329D01*
X187089144Y-74819329D01*
X187161715Y-74783043D01*
X187524573Y-75109614D02*
X187524573Y-74601614D01*
X187524573Y-74746757D02*
X187560858Y-74674186D01*
X187597144Y-74637900D01*
X187669715Y-74601614D01*
X187742287Y-74601614D01*
X188322858Y-75109614D02*
X188322858Y-74347614D01*
X188322858Y-75073329D02*
X188250287Y-75109614D01*
X188105144Y-75109614D01*
X188032572Y-75073329D01*
X187996287Y-75037043D01*
X187960001Y-74964471D01*
X187960001Y-74746757D01*
X187996287Y-74674186D01*
X188032572Y-74637900D01*
X188105144Y-74601614D01*
X188250287Y-74601614D01*
X188322858Y-74637900D01*
X165354001Y-91784714D02*
X165354001Y-91966143D01*
X165172572Y-91893571D02*
X165354001Y-91966143D01*
X165535429Y-91893571D01*
X165245144Y-92111286D02*
X165354001Y-91966143D01*
X165462858Y-92111286D01*
X179759428Y-92456000D02*
X179686857Y-92419714D01*
X179578000Y-92419714D01*
X179469143Y-92456000D01*
X179396571Y-92528571D01*
X179360286Y-92601143D01*
X179324000Y-92746286D01*
X179324000Y-92855143D01*
X179360286Y-93000286D01*
X179396571Y-93072857D01*
X179469143Y-93145429D01*
X179578000Y-93181714D01*
X179650571Y-93181714D01*
X179759428Y-93145429D01*
X179795714Y-93109143D01*
X179795714Y-92855143D01*
X179650571Y-92855143D01*
X180122286Y-93181714D02*
X180122286Y-92419714D01*
X180557714Y-93181714D01*
X180557714Y-92419714D01*
X180920572Y-93181714D02*
X180920572Y-92419714D01*
X181102000Y-92419714D01*
X181210857Y-92456000D01*
X181283429Y-92528571D01*
X181319714Y-92601143D01*
X181356000Y-92746286D01*
X181356000Y-92855143D01*
X181319714Y-93000286D01*
X181283429Y-93072857D01*
X181210857Y-93145429D01*
X181102000Y-93181714D01*
X180920572Y-93181714D01*
X176892857Y-92419714D02*
X177146857Y-93181714D01*
X177400857Y-92419714D01*
X177981429Y-93145429D02*
X177908858Y-93181714D01*
X177763715Y-93181714D01*
X177691143Y-93145429D01*
X177654858Y-93109143D01*
X177618572Y-93036571D01*
X177618572Y-92818857D01*
X177654858Y-92746286D01*
X177691143Y-92710000D01*
X177763715Y-92673714D01*
X177908858Y-92673714D01*
X177981429Y-92710000D01*
X178634572Y-93145429D02*
X178562001Y-93181714D01*
X178416858Y-93181714D01*
X178344286Y-93145429D01*
X178308001Y-93109143D01*
X178271715Y-93036571D01*
X178271715Y-92818857D01*
X178308001Y-92746286D01*
X178344286Y-92710000D01*
X178416858Y-92673714D01*
X178562001Y-92673714D01*
X178634572Y-92710000D01*
X174679429Y-93109143D02*
X174643143Y-93145429D01*
X174534286Y-93181714D01*
X174461715Y-93181714D01*
X174352858Y-93145429D01*
X174280286Y-93072857D01*
X174244001Y-93000286D01*
X174207715Y-92855143D01*
X174207715Y-92746286D01*
X174244001Y-92601143D01*
X174280286Y-92528571D01*
X174352858Y-92456000D01*
X174461715Y-92419714D01*
X174534286Y-92419714D01*
X174643143Y-92456000D01*
X174679429Y-92492286D01*
X175368858Y-93181714D02*
X175006001Y-93181714D01*
X175006001Y-92419714D01*
X175622858Y-93181714D02*
X175622858Y-92419714D01*
X176058286Y-93181714D02*
X175731715Y-92746286D01*
X176058286Y-92419714D02*
X175622858Y-92855143D01*
X172139429Y-93145429D02*
X172248286Y-93181714D01*
X172429715Y-93181714D01*
X172502286Y-93145429D01*
X172538572Y-93109143D01*
X172574857Y-93036571D01*
X172574857Y-92964000D01*
X172538572Y-92891429D01*
X172502286Y-92855143D01*
X172429715Y-92818857D01*
X172284572Y-92782571D01*
X172212000Y-92746286D01*
X172175715Y-92710000D01*
X172139429Y-92637429D01*
X172139429Y-92564857D01*
X172175715Y-92492286D01*
X172212000Y-92456000D01*
X172284572Y-92419714D01*
X172466000Y-92419714D01*
X172574857Y-92456000D01*
X172865143Y-93145429D02*
X172974000Y-93181714D01*
X173155429Y-93181714D01*
X173228000Y-93145429D01*
X173264286Y-93109143D01*
X173300571Y-93036571D01*
X173300571Y-92964000D01*
X173264286Y-92891429D01*
X173228000Y-92855143D01*
X173155429Y-92818857D01*
X173010286Y-92782571D01*
X172937714Y-92746286D01*
X172901429Y-92710000D01*
X172865143Y-92637429D01*
X172865143Y-92564857D01*
X172901429Y-92492286D01*
X172937714Y-92456000D01*
X173010286Y-92419714D01*
X173191714Y-92419714D01*
X173300571Y-92456000D01*
X171994286Y-92288360D02*
X173445714Y-92288360D01*
X168855572Y-93308714D02*
X168855572Y-92546714D01*
X169109572Y-93091000D01*
X169363572Y-92546714D01*
X169363572Y-93308714D01*
X169871571Y-92546714D02*
X170016714Y-92546714D01*
X170089286Y-92583000D01*
X170161857Y-92655571D01*
X170198143Y-92800714D01*
X170198143Y-93054714D01*
X170161857Y-93199857D01*
X170089286Y-93272429D01*
X170016714Y-93308714D01*
X169871571Y-93308714D01*
X169799000Y-93272429D01*
X169726429Y-93199857D01*
X169690143Y-93054714D01*
X169690143Y-92800714D01*
X169726429Y-92655571D01*
X169799000Y-92583000D01*
X169871571Y-92546714D01*
X170488429Y-93272429D02*
X170597286Y-93308714D01*
X170778715Y-93308714D01*
X170851286Y-93272429D01*
X170887572Y-93236143D01*
X170923857Y-93163571D01*
X170923857Y-93091000D01*
X170887572Y-93018429D01*
X170851286Y-92982143D01*
X170778715Y-92945857D01*
X170633572Y-92909571D01*
X170561000Y-92873286D01*
X170524715Y-92837000D01*
X170488429Y-92764429D01*
X170488429Y-92691857D01*
X170524715Y-92619286D01*
X170561000Y-92583000D01*
X170633572Y-92546714D01*
X170815000Y-92546714D01*
X170923857Y-92583000D01*
X171250429Y-93308714D02*
X171250429Y-92546714D01*
D12*
X166790000Y-83447000D02*
X166790000Y-84447000D01*
X168490000Y-84447000D02*
X168490000Y-83447000D01*
X164661000Y-91509000D02*
X164661000Y-91184000D01*
X157411000Y-91509000D02*
X157411000Y-91184000D01*
X157411000Y-84259000D02*
X157411000Y-84584000D01*
X164661000Y-84259000D02*
X164661000Y-84584000D01*
X164661000Y-91509000D02*
X164336000Y-91509000D01*
X164661000Y-84259000D02*
X164336000Y-84259000D01*
X157411000Y-84259000D02*
X157736000Y-84259000D01*
X157411000Y-91509000D02*
X157736000Y-91509000D01*
X164661000Y-91184000D02*
X166086000Y-91184000D01*
X128016000Y-84074000D02*
X125984000Y-84074000D01*
X125984000Y-84074000D02*
X125984000Y-83312000D01*
X125984000Y-83312000D02*
X128016000Y-83312000D01*
X128016000Y-83312000D02*
X128016000Y-84074000D01*
X128016000Y-89027000D02*
X125984000Y-89027000D01*
X125984000Y-89027000D02*
X125984000Y-88265000D01*
X125984000Y-88265000D02*
X128016000Y-88265000D01*
X128016000Y-88265000D02*
X128016000Y-89027000D01*
X127889000Y-94361000D02*
X125857000Y-94361000D01*
X125857000Y-94361000D02*
X125857000Y-93599000D01*
X125857000Y-93599000D02*
X127889000Y-93599000D01*
X127889000Y-93599000D02*
X127889000Y-94361000D01*
X168310000Y-90565000D02*
X169510000Y-90565000D01*
X169510000Y-92315000D02*
X168310000Y-92315000D01*
X159498000Y-56550000D02*
X159498000Y-57750000D01*
X157748000Y-57750000D02*
X157748000Y-56550000D01*
X159625000Y-51343000D02*
X159625000Y-52543000D01*
X157875000Y-52543000D02*
X157875000Y-51343000D01*
X133950000Y-83425000D02*
X132750000Y-83425000D01*
X132750000Y-81675000D02*
X133950000Y-81675000D01*
X133950000Y-85965000D02*
X132750000Y-85965000D01*
X132750000Y-84215000D02*
X133950000Y-84215000D01*
X133950000Y-88505000D02*
X132750000Y-88505000D01*
X132750000Y-86755000D02*
X133950000Y-86755000D01*
X133950000Y-91045000D02*
X132750000Y-91045000D01*
X132750000Y-89295000D02*
X133950000Y-89295000D01*
X138141000Y-95490000D02*
X136941000Y-95490000D01*
X136941000Y-93740000D02*
X138141000Y-93740000D01*
X134098000Y-94015000D02*
X134098000Y-95215000D01*
X132348000Y-95215000D02*
X132348000Y-94015000D01*
X188757000Y-83326000D02*
X189957000Y-83326000D01*
X189957000Y-85076000D02*
X188757000Y-85076000D01*
X194345000Y-84850000D02*
X195545000Y-84850000D01*
X195545000Y-86600000D02*
X194345000Y-86600000D01*
X188630000Y-86882000D02*
X189830000Y-86882000D01*
X189830000Y-88632000D02*
X188630000Y-88632000D01*
X188630000Y-89295000D02*
X189830000Y-89295000D01*
X189830000Y-91045000D02*
X188630000Y-91045000D01*
X185455000Y-92470000D02*
X186655000Y-92470000D01*
X186655000Y-94220000D02*
X185455000Y-94220000D01*
X188503000Y-79897000D02*
X189703000Y-79897000D01*
X189703000Y-81647000D02*
X188503000Y-81647000D01*
X194218000Y-79897000D02*
X195418000Y-79897000D01*
X195418000Y-81647000D02*
X194218000Y-81647000D01*
X148082000Y-86360000D02*
X147320000Y-86360000D01*
X147320000Y-86360000D02*
X147320000Y-85217000D01*
X147320000Y-85217000D02*
X148082000Y-85217000D01*
X148082000Y-87884000D02*
X137922000Y-87884000D01*
X137922000Y-87884000D02*
X137922000Y-83820000D01*
X137922000Y-83820000D02*
X148082000Y-83820000D01*
X148082000Y-83820000D02*
X148082000Y-87884000D01*
X172593000Y-85471000D02*
X173355000Y-85471000D01*
X173355000Y-85471000D02*
X173355000Y-86614000D01*
X173355000Y-86614000D02*
X172593000Y-86614000D01*
X172593000Y-83947000D02*
X182753000Y-83947000D01*
X182753000Y-83947000D02*
X182753000Y-88011000D01*
X182753000Y-88011000D02*
X172593000Y-88011000D01*
X172593000Y-88011000D02*
X172593000Y-83947000D01*
X149098000Y-92075000D02*
X149098000Y-97155000D01*
X148818000Y-89255000D02*
X150368000Y-89255000D01*
X151638000Y-89535000D02*
X151638000Y-92075000D01*
X151638000Y-92075000D02*
X149098000Y-92075000D01*
X149098000Y-97155000D02*
X154178000Y-97155000D01*
X154178000Y-97155000D02*
X154178000Y-92075000D01*
X148818000Y-89255000D02*
X148818000Y-90805000D01*
X154178000Y-89535000D02*
X151638000Y-89535000D01*
X154178000Y-92075000D02*
X154178000Y-89535000D01*
X170180000Y-96800000D02*
X168630000Y-96800000D01*
X168630000Y-96800000D02*
X168630000Y-93700000D01*
X168630000Y-93700000D02*
X170180000Y-93700000D01*
X171450000Y-93980000D02*
X181610000Y-93980000D01*
X181610000Y-93980000D02*
X181610000Y-96520000D01*
X181610000Y-96520000D02*
X171450000Y-96520000D01*
X171450000Y-93980000D02*
X171450000Y-96520000D01*
X120650000Y-62230000D02*
X120650000Y-74930000D01*
X120650000Y-74930000D02*
X118110000Y-74930000D01*
X118110000Y-74930000D02*
X118110000Y-62230000D01*
X120930000Y-59410000D02*
X120930000Y-60960000D01*
X120650000Y-62230000D02*
X118110000Y-62230000D01*
X117830000Y-60960000D02*
X117830000Y-59410000D01*
X117830000Y-59410000D02*
X120930000Y-59410000D01*
X203200000Y-59690000D02*
X203200000Y-74930000D01*
X203200000Y-74930000D02*
X200660000Y-74930000D01*
X200660000Y-74930000D02*
X200660000Y-59690000D01*
X203480000Y-56870000D02*
X203480000Y-58420000D01*
X203200000Y-59690000D02*
X200660000Y-59690000D01*
X200380000Y-58420000D02*
X200380000Y-56870000D01*
X200380000Y-56870000D02*
X203480000Y-56870000D01*
D10*
G36*
X134511898Y-74692053D02*
X134510458Y-74882921D01*
X134510334Y-74891623D01*
X134503583Y-75357070D01*
X134444195Y-75408118D01*
X134364251Y-75452807D01*
X134280712Y-75456865D01*
X134200791Y-75420589D01*
X134173485Y-75396908D01*
X134131688Y-75358367D01*
X134112000Y-75350766D01*
X134112000Y-74571792D01*
X134105338Y-74426606D01*
X134084006Y-74315007D01*
X134045985Y-74230181D01*
X133992329Y-74167982D01*
X133905924Y-74117882D01*
X133808728Y-74102518D01*
X133710923Y-74119853D01*
X133622694Y-74167852D01*
X133554224Y-74244479D01*
X133546986Y-74257022D01*
X133524122Y-74325736D01*
X133510320Y-74422279D01*
X133505459Y-74533657D01*
X133509423Y-74646874D01*
X133522092Y-74748938D01*
X133543349Y-74826855D01*
X133552349Y-74845261D01*
X133623342Y-74933490D01*
X133710202Y-74990675D01*
X133804943Y-75014873D01*
X133899581Y-75004136D01*
X133986129Y-74956519D01*
X133991192Y-74952183D01*
X134049978Y-74883541D01*
X134088065Y-74795453D01*
X134107810Y-74680495D01*
X134112000Y-74571792D01*
X134112000Y-75350766D01*
X134100245Y-75346229D01*
X134060456Y-75356107D01*
X134038210Y-75365158D01*
X133977645Y-75381161D01*
X133892773Y-75392109D01*
X133811055Y-75395649D01*
X133712326Y-75391682D01*
X133633340Y-75376629D01*
X133551982Y-75345727D01*
X133528124Y-75334703D01*
X133380772Y-75245487D01*
X133265089Y-75131457D01*
X133180234Y-74991038D01*
X133125366Y-74822654D01*
X133099644Y-74624730D01*
X133097343Y-74527833D01*
X133108511Y-74356444D01*
X133143045Y-74209671D01*
X133204845Y-74074537D01*
X133258959Y-73990353D01*
X133367509Y-73870247D01*
X133495186Y-73783668D01*
X133635947Y-73730105D01*
X133783748Y-73709047D01*
X133932544Y-73719985D01*
X134076291Y-73762407D01*
X134208945Y-73835805D01*
X134324462Y-73939667D01*
X134416798Y-74073482D01*
X134424664Y-74088773D01*
X134453855Y-74155150D01*
X134476321Y-74227103D01*
X134492711Y-74310701D01*
X134503672Y-74412012D01*
X134509852Y-74537106D01*
X134511898Y-74692053D01*
X134511898Y-74692053D01*
X134511898Y-74692053D01*
G37*
X134511898Y-74692053D02*
X134510458Y-74882921D01*
X134510334Y-74891623D01*
X134503583Y-75357070D01*
X134444195Y-75408118D01*
X134364251Y-75452807D01*
X134280712Y-75456865D01*
X134200791Y-75420589D01*
X134173485Y-75396908D01*
X134131688Y-75358367D01*
X134112000Y-75350766D01*
X134112000Y-74571792D01*
X134105338Y-74426606D01*
X134084006Y-74315007D01*
X134045985Y-74230181D01*
X133992329Y-74167982D01*
X133905924Y-74117882D01*
X133808728Y-74102518D01*
X133710923Y-74119853D01*
X133622694Y-74167852D01*
X133554224Y-74244479D01*
X133546986Y-74257022D01*
X133524122Y-74325736D01*
X133510320Y-74422279D01*
X133505459Y-74533657D01*
X133509423Y-74646874D01*
X133522092Y-74748938D01*
X133543349Y-74826855D01*
X133552349Y-74845261D01*
X133623342Y-74933490D01*
X133710202Y-74990675D01*
X133804943Y-75014873D01*
X133899581Y-75004136D01*
X133986129Y-74956519D01*
X133991192Y-74952183D01*
X134049978Y-74883541D01*
X134088065Y-74795453D01*
X134107810Y-74680495D01*
X134112000Y-74571792D01*
X134112000Y-75350766D01*
X134100245Y-75346229D01*
X134060456Y-75356107D01*
X134038210Y-75365158D01*
X133977645Y-75381161D01*
X133892773Y-75392109D01*
X133811055Y-75395649D01*
X133712326Y-75391682D01*
X133633340Y-75376629D01*
X133551982Y-75345727D01*
X133528124Y-75334703D01*
X133380772Y-75245487D01*
X133265089Y-75131457D01*
X133180234Y-74991038D01*
X133125366Y-74822654D01*
X133099644Y-74624730D01*
X133097343Y-74527833D01*
X133108511Y-74356444D01*
X133143045Y-74209671D01*
X133204845Y-74074537D01*
X133258959Y-73990353D01*
X133367509Y-73870247D01*
X133495186Y-73783668D01*
X133635947Y-73730105D01*
X133783748Y-73709047D01*
X133932544Y-73719985D01*
X134076291Y-73762407D01*
X134208945Y-73835805D01*
X134324462Y-73939667D01*
X134416798Y-74073482D01*
X134424664Y-74088773D01*
X134453855Y-74155150D01*
X134476321Y-74227103D01*
X134492711Y-74310701D01*
X134503672Y-74412012D01*
X134509852Y-74537106D01*
X134511898Y-74692053D01*
X134511898Y-74692053D01*
G36*
X130407833Y-75205302D02*
X130390317Y-75270936D01*
X130346097Y-75336875D01*
X130287667Y-75387436D01*
X130249324Y-75404298D01*
X130205954Y-75410501D01*
X130163674Y-75404163D01*
X130118615Y-75381898D01*
X130066908Y-75340318D01*
X130004686Y-75276039D01*
X129928081Y-75185672D01*
X129833225Y-75065832D01*
X129772267Y-74986646D01*
X129688506Y-74878383D01*
X129612455Y-74782418D01*
X129548097Y-74703586D01*
X129499414Y-74646723D01*
X129470387Y-74616667D01*
X129464777Y-74613175D01*
X129437745Y-74626907D01*
X129395732Y-74662310D01*
X129376683Y-74681291D01*
X129349595Y-74710797D01*
X129330990Y-74738237D01*
X129319011Y-74772218D01*
X129311803Y-74821349D01*
X129307509Y-74894235D01*
X129304272Y-74999483D01*
X129303739Y-75019488D01*
X129300311Y-75131405D01*
X129295971Y-75209319D01*
X129289145Y-75261555D01*
X129278257Y-75296438D01*
X129261731Y-75322293D01*
X129242529Y-75342936D01*
X129182636Y-75384484D01*
X129113872Y-75409084D01*
X129113143Y-75409204D01*
X129058476Y-75412095D01*
X129013423Y-75394866D01*
X128966114Y-75357367D01*
X128894417Y-75293305D01*
X128894417Y-74146563D01*
X128894417Y-72999820D01*
X128957917Y-72949015D01*
X129034658Y-72909831D01*
X129118618Y-72901543D01*
X129197651Y-72922228D01*
X129259612Y-72969963D01*
X129278714Y-72999811D01*
X129283689Y-73029772D01*
X129288908Y-73096194D01*
X129294101Y-73193209D01*
X129298999Y-73314948D01*
X129303333Y-73455543D01*
X129306834Y-73609124D01*
X129306950Y-73615296D01*
X129317750Y-74195010D01*
X129671698Y-73875140D01*
X129776796Y-73781683D01*
X129874366Y-73697769D01*
X129959124Y-73627718D01*
X130025788Y-73575848D01*
X130069075Y-73546476D01*
X130079567Y-73541737D01*
X130151527Y-73542128D01*
X130227091Y-73570020D01*
X130286464Y-73617636D01*
X130292260Y-73625293D01*
X130314028Y-73677557D01*
X130323166Y-73741588D01*
X130323167Y-73742014D01*
X130319813Y-73773684D01*
X130307330Y-73806884D01*
X130282087Y-73845725D01*
X130240449Y-73894318D01*
X130178786Y-73956775D01*
X130093464Y-74037207D01*
X129980851Y-74139727D01*
X129936787Y-74179370D01*
X129772657Y-74326750D01*
X130090245Y-74735968D01*
X130197572Y-74875602D01*
X130280050Y-74986193D01*
X130339996Y-75071163D01*
X130379727Y-75133938D01*
X130401560Y-75177941D01*
X130407833Y-75205302D01*
X130407833Y-75205302D01*
X130407833Y-75205302D01*
G37*
X130407833Y-75205302D02*
X130390317Y-75270936D01*
X130346097Y-75336875D01*
X130287667Y-75387436D01*
X130249324Y-75404298D01*
X130205954Y-75410501D01*
X130163674Y-75404163D01*
X130118615Y-75381898D01*
X130066908Y-75340318D01*
X130004686Y-75276039D01*
X129928081Y-75185672D01*
X129833225Y-75065832D01*
X129772267Y-74986646D01*
X129688506Y-74878383D01*
X129612455Y-74782418D01*
X129548097Y-74703586D01*
X129499414Y-74646723D01*
X129470387Y-74616667D01*
X129464777Y-74613175D01*
X129437745Y-74626907D01*
X129395732Y-74662310D01*
X129376683Y-74681291D01*
X129349595Y-74710797D01*
X129330990Y-74738237D01*
X129319011Y-74772218D01*
X129311803Y-74821349D01*
X129307509Y-74894235D01*
X129304272Y-74999483D01*
X129303739Y-75019488D01*
X129300311Y-75131405D01*
X129295971Y-75209319D01*
X129289145Y-75261555D01*
X129278257Y-75296438D01*
X129261731Y-75322293D01*
X129242529Y-75342936D01*
X129182636Y-75384484D01*
X129113872Y-75409084D01*
X129113143Y-75409204D01*
X129058476Y-75412095D01*
X129013423Y-75394866D01*
X128966114Y-75357367D01*
X128894417Y-75293305D01*
X128894417Y-74146563D01*
X128894417Y-72999820D01*
X128957917Y-72949015D01*
X129034658Y-72909831D01*
X129118618Y-72901543D01*
X129197651Y-72922228D01*
X129259612Y-72969963D01*
X129278714Y-72999811D01*
X129283689Y-73029772D01*
X129288908Y-73096194D01*
X129294101Y-73193209D01*
X129298999Y-73314948D01*
X129303333Y-73455543D01*
X129306834Y-73609124D01*
X129306950Y-73615296D01*
X129317750Y-74195010D01*
X129671698Y-73875140D01*
X129776796Y-73781683D01*
X129874366Y-73697769D01*
X129959124Y-73627718D01*
X130025788Y-73575848D01*
X130069075Y-73546476D01*
X130079567Y-73541737D01*
X130151527Y-73542128D01*
X130227091Y-73570020D01*
X130286464Y-73617636D01*
X130292260Y-73625293D01*
X130314028Y-73677557D01*
X130323166Y-73741588D01*
X130323167Y-73742014D01*
X130319813Y-73773684D01*
X130307330Y-73806884D01*
X130282087Y-73845725D01*
X130240449Y-73894318D01*
X130178786Y-73956775D01*
X130093464Y-74037207D01*
X129980851Y-74139727D01*
X129936787Y-74179370D01*
X129772657Y-74326750D01*
X130090245Y-74735968D01*
X130197572Y-74875602D01*
X130280050Y-74986193D01*
X130339996Y-75071163D01*
X130379727Y-75133938D01*
X130401560Y-75177941D01*
X130407833Y-75205302D01*
X130407833Y-75205302D01*
G36*
X131082909Y-74247501D02*
X131081909Y-74437914D01*
X131080900Y-74560904D01*
X131074583Y-75288926D01*
X131021667Y-75341783D01*
X130951735Y-75388763D01*
X130871586Y-75408583D01*
X130799417Y-75397624D01*
X130753581Y-75368277D01*
X130714750Y-75332468D01*
X130703509Y-75318231D01*
X130694397Y-75300133D01*
X130687144Y-75273789D01*
X130681484Y-75234816D01*
X130677148Y-75178828D01*
X130673869Y-75101441D01*
X130671379Y-74998271D01*
X130669409Y-74864933D01*
X130667692Y-74697042D01*
X130666366Y-74540476D01*
X130660316Y-73795511D01*
X130708700Y-73724095D01*
X130774580Y-73654663D01*
X130849798Y-73626233D01*
X130933277Y-73639147D01*
X130951415Y-73646981D01*
X130985595Y-73664741D01*
X131013506Y-73685023D01*
X131035738Y-73711992D01*
X131052880Y-73749813D01*
X131065523Y-73802653D01*
X131074257Y-73874676D01*
X131079673Y-73970048D01*
X131082360Y-74092934D01*
X131082909Y-74247501D01*
X131082909Y-74247501D01*
X131082909Y-74247501D01*
G37*
X131082909Y-74247501D02*
X131081909Y-74437914D01*
X131080900Y-74560904D01*
X131074583Y-75288926D01*
X131021667Y-75341783D01*
X130951735Y-75388763D01*
X130871586Y-75408583D01*
X130799417Y-75397624D01*
X130753581Y-75368277D01*
X130714750Y-75332468D01*
X130703509Y-75318231D01*
X130694397Y-75300133D01*
X130687144Y-75273789D01*
X130681484Y-75234816D01*
X130677148Y-75178828D01*
X130673869Y-75101441D01*
X130671379Y-74998271D01*
X130669409Y-74864933D01*
X130667692Y-74697042D01*
X130666366Y-74540476D01*
X130660316Y-73795511D01*
X130708700Y-73724095D01*
X130774580Y-73654663D01*
X130849798Y-73626233D01*
X130933277Y-73639147D01*
X130951415Y-73646981D01*
X130985595Y-73664741D01*
X131013506Y-73685023D01*
X131035738Y-73711992D01*
X131052880Y-73749813D01*
X131065523Y-73802653D01*
X131074257Y-73874676D01*
X131079673Y-73970048D01*
X131082360Y-74092934D01*
X131082909Y-74247501D01*
X131082909Y-74247501D01*
G36*
X132757333Y-75141577D02*
X132737375Y-75202699D01*
X132682313Y-75260341D01*
X132599365Y-75311951D01*
X132495753Y-75354978D01*
X132378694Y-75386871D01*
X132255408Y-75405079D01*
X132133114Y-75407052D01*
X132040010Y-75395053D01*
X131877708Y-75340410D01*
X131733808Y-75250608D01*
X131614093Y-75130873D01*
X131524344Y-74986425D01*
X131489708Y-74897894D01*
X131442150Y-74684995D01*
X131432006Y-74470987D01*
X131458905Y-74263234D01*
X131522482Y-74069100D01*
X131532235Y-74047752D01*
X131621628Y-73905766D01*
X131740532Y-73789462D01*
X131882534Y-73702127D01*
X132041222Y-73647046D01*
X132210184Y-73627507D01*
X132333500Y-73637114D01*
X132477473Y-73670485D01*
X132593597Y-73718047D01*
X132679405Y-73776865D01*
X132732430Y-73844002D01*
X132750203Y-73916522D01*
X132730258Y-73991489D01*
X132683351Y-74053406D01*
X132629330Y-74091000D01*
X132563516Y-74102277D01*
X132477775Y-74087490D01*
X132402564Y-74062155D01*
X132294319Y-74029137D01*
X132202563Y-74022083D01*
X132111124Y-74040021D01*
X132099033Y-74043932D01*
X132001437Y-74091604D01*
X131929512Y-74162768D01*
X131881258Y-74261277D01*
X131854677Y-74390985D01*
X131847631Y-74528640D01*
X131855701Y-74679483D01*
X131882192Y-74797124D01*
X131929357Y-74887484D01*
X131999449Y-74956485D01*
X132014338Y-74966870D01*
X132101126Y-75002984D01*
X132207909Y-75016059D01*
X132319031Y-75005884D01*
X132418667Y-74972333D01*
X132479943Y-74945838D01*
X132532201Y-74931088D01*
X132543827Y-74930000D01*
X132626805Y-74949228D01*
X132696846Y-75000082D01*
X132743608Y-75072313D01*
X132757333Y-75141577D01*
X132757333Y-75141577D01*
X132757333Y-75141577D01*
G37*
X132757333Y-75141577D02*
X132737375Y-75202699D01*
X132682313Y-75260341D01*
X132599365Y-75311951D01*
X132495753Y-75354978D01*
X132378694Y-75386871D01*
X132255408Y-75405079D01*
X132133114Y-75407052D01*
X132040010Y-75395053D01*
X131877708Y-75340410D01*
X131733808Y-75250608D01*
X131614093Y-75130873D01*
X131524344Y-74986425D01*
X131489708Y-74897894D01*
X131442150Y-74684995D01*
X131432006Y-74470987D01*
X131458905Y-74263234D01*
X131522482Y-74069100D01*
X131532235Y-74047752D01*
X131621628Y-73905766D01*
X131740532Y-73789462D01*
X131882534Y-73702127D01*
X132041222Y-73647046D01*
X132210184Y-73627507D01*
X132333500Y-73637114D01*
X132477473Y-73670485D01*
X132593597Y-73718047D01*
X132679405Y-73776865D01*
X132732430Y-73844002D01*
X132750203Y-73916522D01*
X132730258Y-73991489D01*
X132683351Y-74053406D01*
X132629330Y-74091000D01*
X132563516Y-74102277D01*
X132477775Y-74087490D01*
X132402564Y-74062155D01*
X132294319Y-74029137D01*
X132202563Y-74022083D01*
X132111124Y-74040021D01*
X132099033Y-74043932D01*
X132001437Y-74091604D01*
X131929512Y-74162768D01*
X131881258Y-74261277D01*
X131854677Y-74390985D01*
X131847631Y-74528640D01*
X131855701Y-74679483D01*
X131882192Y-74797124D01*
X131929357Y-74887484D01*
X131999449Y-74956485D01*
X132014338Y-74966870D01*
X132101126Y-75002984D01*
X132207909Y-75016059D01*
X132319031Y-75005884D01*
X132418667Y-74972333D01*
X132479943Y-74945838D01*
X132532201Y-74931088D01*
X132543827Y-74930000D01*
X132626805Y-74949228D01*
X132696846Y-75000082D01*
X132743608Y-75072313D01*
X132757333Y-75141577D01*
X132757333Y-75141577D01*
G36*
X136358202Y-73066612D02*
X136351348Y-73950681D01*
X136349615Y-74167448D01*
X136347932Y-74346221D01*
X136346053Y-74491336D01*
X136343737Y-74607131D01*
X136340738Y-74697943D01*
X136336813Y-74768110D01*
X136331717Y-74821970D01*
X136325208Y-74863859D01*
X136317040Y-74898115D01*
X136306971Y-74929076D01*
X136294755Y-74961078D01*
X136294491Y-74961750D01*
X136233806Y-75091755D01*
X136163618Y-75190882D01*
X136075422Y-75270575D01*
X136053407Y-75286193D01*
X135953500Y-75337286D01*
X135953500Y-74491381D01*
X135953500Y-74206099D01*
X135883430Y-74136029D01*
X135813803Y-74083069D01*
X135733789Y-74044934D01*
X135721309Y-74041173D01*
X135601397Y-74026800D01*
X135496683Y-74050237D01*
X135409546Y-74108944D01*
X135342364Y-74200385D01*
X135297515Y-74322023D01*
X135277378Y-74471321D01*
X135276485Y-74515728D01*
X135290460Y-74673548D01*
X135330035Y-74806353D01*
X135392771Y-74911069D01*
X135476226Y-74984619D01*
X135577961Y-75023929D01*
X135682634Y-75027546D01*
X135755690Y-75008423D01*
X135824039Y-74974065D01*
X135825962Y-74972716D01*
X135873188Y-74932045D01*
X135907565Y-74882676D01*
X135930936Y-74817657D01*
X135945142Y-74730034D01*
X135952026Y-74612855D01*
X135953500Y-74491381D01*
X135953500Y-75337286D01*
X135905508Y-75361830D01*
X135738386Y-75400520D01*
X135554308Y-75401788D01*
X135519583Y-75398009D01*
X135408277Y-75370307D01*
X135287720Y-75318230D01*
X135175307Y-75250297D01*
X135110590Y-75197694D01*
X135067144Y-75146000D01*
X135016751Y-75070406D01*
X134969248Y-74985878D01*
X134962480Y-74972333D01*
X134884696Y-74813583D01*
X134885186Y-74527833D01*
X134886334Y-74404913D01*
X134890089Y-74314189D01*
X134897647Y-74245548D01*
X134910202Y-74188875D01*
X134928951Y-74134057D01*
X134932923Y-74123987D01*
X135015735Y-73970097D01*
X135127011Y-73843455D01*
X135261065Y-73746562D01*
X135412212Y-73681923D01*
X135574767Y-73652040D01*
X135743047Y-73659417D01*
X135895292Y-73700211D01*
X135953500Y-73722452D01*
X135953500Y-73396516D01*
X135953746Y-73272257D01*
X135955185Y-73182817D01*
X135958870Y-73120685D01*
X135965854Y-73078347D01*
X135977189Y-73048291D01*
X135993929Y-73023004D01*
X136008298Y-73005457D01*
X136077150Y-72951977D01*
X136156088Y-72936720D01*
X136236883Y-72959743D01*
X136295062Y-73003472D01*
X136358202Y-73066612D01*
X136358202Y-73066612D01*
X136358202Y-73066612D01*
G37*
X136358202Y-73066612D02*
X136351348Y-73950681D01*
X136349615Y-74167448D01*
X136347932Y-74346221D01*
X136346053Y-74491336D01*
X136343737Y-74607131D01*
X136340738Y-74697943D01*
X136336813Y-74768110D01*
X136331717Y-74821970D01*
X136325208Y-74863859D01*
X136317040Y-74898115D01*
X136306971Y-74929076D01*
X136294755Y-74961078D01*
X136294491Y-74961750D01*
X136233806Y-75091755D01*
X136163618Y-75190882D01*
X136075422Y-75270575D01*
X136053407Y-75286193D01*
X135953500Y-75337286D01*
X135953500Y-74491381D01*
X135953500Y-74206099D01*
X135883430Y-74136029D01*
X135813803Y-74083069D01*
X135733789Y-74044934D01*
X135721309Y-74041173D01*
X135601397Y-74026800D01*
X135496683Y-74050237D01*
X135409546Y-74108944D01*
X135342364Y-74200385D01*
X135297515Y-74322023D01*
X135277378Y-74471321D01*
X135276485Y-74515728D01*
X135290460Y-74673548D01*
X135330035Y-74806353D01*
X135392771Y-74911069D01*
X135476226Y-74984619D01*
X135577961Y-75023929D01*
X135682634Y-75027546D01*
X135755690Y-75008423D01*
X135824039Y-74974065D01*
X135825962Y-74972716D01*
X135873188Y-74932045D01*
X135907565Y-74882676D01*
X135930936Y-74817657D01*
X135945142Y-74730034D01*
X135952026Y-74612855D01*
X135953500Y-74491381D01*
X135953500Y-75337286D01*
X135905508Y-75361830D01*
X135738386Y-75400520D01*
X135554308Y-75401788D01*
X135519583Y-75398009D01*
X135408277Y-75370307D01*
X135287720Y-75318230D01*
X135175307Y-75250297D01*
X135110590Y-75197694D01*
X135067144Y-75146000D01*
X135016751Y-75070406D01*
X134969248Y-74985878D01*
X134962480Y-74972333D01*
X134884696Y-74813583D01*
X134885186Y-74527833D01*
X134886334Y-74404913D01*
X134890089Y-74314189D01*
X134897647Y-74245548D01*
X134910202Y-74188875D01*
X134928951Y-74134057D01*
X134932923Y-74123987D01*
X135015735Y-73970097D01*
X135127011Y-73843455D01*
X135261065Y-73746562D01*
X135412212Y-73681923D01*
X135574767Y-73652040D01*
X135743047Y-73659417D01*
X135895292Y-73700211D01*
X135953500Y-73722452D01*
X135953500Y-73396516D01*
X135953746Y-73272257D01*
X135955185Y-73182817D01*
X135958870Y-73120685D01*
X135965854Y-73078347D01*
X135977189Y-73048291D01*
X135993929Y-73023004D01*
X136008298Y-73005457D01*
X136077150Y-72951977D01*
X136156088Y-72936720D01*
X136236883Y-72959743D01*
X136295062Y-73003472D01*
X136358202Y-73066612D01*
X136358202Y-73066612D01*
G36*
X128439342Y-73869873D02*
X128439337Y-74109676D01*
X128439333Y-74169065D01*
X128439333Y-75251733D01*
X128367367Y-75323699D01*
X128295400Y-75395666D01*
X128206500Y-75395666D01*
X128206500Y-75162833D01*
X128206500Y-74140373D01*
X128206500Y-73117913D01*
X127767292Y-72683230D01*
X127644224Y-72561643D01*
X127521012Y-72440300D01*
X127403704Y-72325129D01*
X127298347Y-72222059D01*
X127210992Y-72137017D01*
X127148167Y-72076394D01*
X126968250Y-71904240D01*
X126222125Y-71903703D01*
X125476000Y-71903166D01*
X125476000Y-73533000D01*
X125476000Y-75162833D01*
X126841250Y-75162833D01*
X128206500Y-75162833D01*
X128206500Y-75395666D01*
X126843700Y-75395666D01*
X125392001Y-75395666D01*
X125322875Y-75333902D01*
X125253750Y-75272139D01*
X125253750Y-73569690D01*
X125253851Y-73253281D01*
X125254184Y-72976595D01*
X125254793Y-72737023D01*
X125255721Y-72531955D01*
X125257013Y-72358781D01*
X125258712Y-72214891D01*
X125260861Y-72097676D01*
X125263506Y-72004527D01*
X125266689Y-71932833D01*
X125270455Y-71879985D01*
X125274847Y-71843373D01*
X125279909Y-71820388D01*
X125283272Y-71812078D01*
X125301011Y-71781892D01*
X125321550Y-71757212D01*
X125349045Y-71737502D01*
X125387654Y-71722227D01*
X125441534Y-71710849D01*
X125514842Y-71702834D01*
X125611734Y-71697644D01*
X125736368Y-71694745D01*
X125892900Y-71693599D01*
X126085488Y-71693671D01*
X126198865Y-71694004D01*
X126375072Y-71694959D01*
X126539712Y-71696547D01*
X126687525Y-71698665D01*
X126813252Y-71701210D01*
X126911634Y-71704077D01*
X126977412Y-71707163D01*
X127003753Y-71709879D01*
X127020227Y-71714484D01*
X127037784Y-71722048D01*
X127059292Y-71735146D01*
X127087621Y-71756353D01*
X127125640Y-71788244D01*
X127176217Y-71833395D01*
X127242220Y-71894381D01*
X127326520Y-71973776D01*
X127431984Y-72074157D01*
X127561481Y-72198099D01*
X127717881Y-72348176D01*
X127762000Y-72390541D01*
X127883165Y-72506707D01*
X127997605Y-72616066D01*
X128100909Y-72714429D01*
X128188663Y-72797607D01*
X128256455Y-72861411D01*
X128299873Y-72901652D01*
X128309169Y-72909988D01*
X128337453Y-72934576D01*
X128361316Y-72957143D01*
X128381133Y-72981317D01*
X128397281Y-73010727D01*
X128410133Y-73049000D01*
X128420065Y-73099765D01*
X128427452Y-73166650D01*
X128432669Y-73253284D01*
X128436092Y-73363295D01*
X128438095Y-73500311D01*
X128439053Y-73667961D01*
X128439342Y-73869873D01*
X128439342Y-73869873D01*
X128439342Y-73869873D01*
G37*
X128439342Y-73869873D02*
X128439337Y-74109676D01*
X128439333Y-74169065D01*
X128439333Y-75251733D01*
X128367367Y-75323699D01*
X128295400Y-75395666D01*
X128206500Y-75395666D01*
X128206500Y-75162833D01*
X128206500Y-74140373D01*
X128206500Y-73117913D01*
X127767292Y-72683230D01*
X127644224Y-72561643D01*
X127521012Y-72440300D01*
X127403704Y-72325129D01*
X127298347Y-72222059D01*
X127210992Y-72137017D01*
X127148167Y-72076394D01*
X126968250Y-71904240D01*
X126222125Y-71903703D01*
X125476000Y-71903166D01*
X125476000Y-73533000D01*
X125476000Y-75162833D01*
X126841250Y-75162833D01*
X128206500Y-75162833D01*
X128206500Y-75395666D01*
X126843700Y-75395666D01*
X125392001Y-75395666D01*
X125322875Y-75333902D01*
X125253750Y-75272139D01*
X125253750Y-73569690D01*
X125253851Y-73253281D01*
X125254184Y-72976595D01*
X125254793Y-72737023D01*
X125255721Y-72531955D01*
X125257013Y-72358781D01*
X125258712Y-72214891D01*
X125260861Y-72097676D01*
X125263506Y-72004527D01*
X125266689Y-71932833D01*
X125270455Y-71879985D01*
X125274847Y-71843373D01*
X125279909Y-71820388D01*
X125283272Y-71812078D01*
X125301011Y-71781892D01*
X125321550Y-71757212D01*
X125349045Y-71737502D01*
X125387654Y-71722227D01*
X125441534Y-71710849D01*
X125514842Y-71702834D01*
X125611734Y-71697644D01*
X125736368Y-71694745D01*
X125892900Y-71693599D01*
X126085488Y-71693671D01*
X126198865Y-71694004D01*
X126375072Y-71694959D01*
X126539712Y-71696547D01*
X126687525Y-71698665D01*
X126813252Y-71701210D01*
X126911634Y-71704077D01*
X126977412Y-71707163D01*
X127003753Y-71709879D01*
X127020227Y-71714484D01*
X127037784Y-71722048D01*
X127059292Y-71735146D01*
X127087621Y-71756353D01*
X127125640Y-71788244D01*
X127176217Y-71833395D01*
X127242220Y-71894381D01*
X127326520Y-71973776D01*
X127431984Y-72074157D01*
X127561481Y-72198099D01*
X127717881Y-72348176D01*
X127762000Y-72390541D01*
X127883165Y-72506707D01*
X127997605Y-72616066D01*
X128100909Y-72714429D01*
X128188663Y-72797607D01*
X128256455Y-72861411D01*
X128299873Y-72901652D01*
X128309169Y-72909988D01*
X128337453Y-72934576D01*
X128361316Y-72957143D01*
X128381133Y-72981317D01*
X128397281Y-73010727D01*
X128410133Y-73049000D01*
X128420065Y-73099765D01*
X128427452Y-73166650D01*
X128432669Y-73253284D01*
X128436092Y-73363295D01*
X128438095Y-73500311D01*
X128439053Y-73667961D01*
X128439342Y-73869873D01*
X128439342Y-73869873D01*
G36*
X131071117Y-73065876D02*
X131071070Y-73151914D01*
X131041389Y-73231634D01*
X130989077Y-73288186D01*
X130910059Y-73317204D01*
X130822482Y-73314934D01*
X130744934Y-73282130D01*
X130739558Y-73278082D01*
X130686840Y-73213629D01*
X130667232Y-73137338D01*
X130677193Y-73058560D01*
X130713184Y-72986645D01*
X130771665Y-72930943D01*
X130849095Y-72900805D01*
X130883455Y-72898000D01*
X130944299Y-72915799D01*
X131005539Y-72960815D01*
X131053119Y-73020474D01*
X131071117Y-73065876D01*
X131071117Y-73065876D01*
X131071117Y-73065876D01*
G37*
X131071117Y-73065876D02*
X131071070Y-73151914D01*
X131041389Y-73231634D01*
X130989077Y-73288186D01*
X130910059Y-73317204D01*
X130822482Y-73314934D01*
X130744934Y-73282130D01*
X130739558Y-73278082D01*
X130686840Y-73213629D01*
X130667232Y-73137338D01*
X130677193Y-73058560D01*
X130713184Y-72986645D01*
X130771665Y-72930943D01*
X130849095Y-72900805D01*
X130883455Y-72898000D01*
X130944299Y-72915799D01*
X131005539Y-72960815D01*
X131053119Y-73020474D01*
X131071117Y-73065876D01*
X131071117Y-73065876D01*
G36*
X128439333Y-72171050D02*
X128439057Y-72308365D01*
X128437827Y-72409376D01*
X128435040Y-72480112D01*
X128430090Y-72526603D01*
X128422374Y-72554877D01*
X128411288Y-72570962D01*
X128398391Y-72579755D01*
X128364955Y-72594803D01*
X128332676Y-72600042D01*
X128297184Y-72592573D01*
X128254105Y-72569492D01*
X128199068Y-72527898D01*
X128127699Y-72464891D01*
X128035627Y-72377568D01*
X127918478Y-72263028D01*
X127913076Y-72257708D01*
X127812088Y-72158355D01*
X127720115Y-72068072D01*
X127641804Y-71991406D01*
X127581805Y-71932905D01*
X127544766Y-71897114D01*
X127535917Y-71888803D01*
X127511197Y-71843061D01*
X127509498Y-71784521D01*
X127529127Y-71732569D01*
X127551367Y-71712113D01*
X127592618Y-71702837D01*
X127674679Y-71696859D01*
X127796151Y-71694232D01*
X127955637Y-71695009D01*
X127987030Y-71695493D01*
X128125972Y-71698145D01*
X128228677Y-71701215D01*
X128301240Y-71705390D01*
X128349756Y-71711359D01*
X128380319Y-71719810D01*
X128399026Y-71731432D01*
X128409329Y-71743170D01*
X128420649Y-71768414D01*
X128428920Y-71812226D01*
X128434519Y-71880015D01*
X128437828Y-71977191D01*
X128439225Y-72109165D01*
X128439333Y-72171050D01*
X128439333Y-72171050D01*
X128439333Y-72171050D01*
G37*
X128439333Y-72171050D02*
X128439057Y-72308365D01*
X128437827Y-72409376D01*
X128435040Y-72480112D01*
X128430090Y-72526603D01*
X128422374Y-72554877D01*
X128411288Y-72570962D01*
X128398391Y-72579755D01*
X128364955Y-72594803D01*
X128332676Y-72600042D01*
X128297184Y-72592573D01*
X128254105Y-72569492D01*
X128199068Y-72527898D01*
X128127699Y-72464891D01*
X128035627Y-72377568D01*
X127918478Y-72263028D01*
X127913076Y-72257708D01*
X127812088Y-72158355D01*
X127720115Y-72068072D01*
X127641804Y-71991406D01*
X127581805Y-71932905D01*
X127544766Y-71897114D01*
X127535917Y-71888803D01*
X127511197Y-71843061D01*
X127509498Y-71784521D01*
X127529127Y-71732569D01*
X127551367Y-71712113D01*
X127592618Y-71702837D01*
X127674679Y-71696859D01*
X127796151Y-71694232D01*
X127955637Y-71695009D01*
X127987030Y-71695493D01*
X128125972Y-71698145D01*
X128228677Y-71701215D01*
X128301240Y-71705390D01*
X128349756Y-71711359D01*
X128380319Y-71719810D01*
X128399026Y-71731432D01*
X128409329Y-71743170D01*
X128420649Y-71768414D01*
X128428920Y-71812226D01*
X128434519Y-71880015D01*
X128437828Y-71977191D01*
X128439225Y-72109165D01*
X128439333Y-72171050D01*
X128439333Y-72171050D01*
G36*
X128058333Y-74316166D02*
X128056699Y-74330392D01*
X128048204Y-74341014D01*
X128027459Y-74348557D01*
X127989076Y-74353548D01*
X127927667Y-74356511D01*
X127837842Y-74357972D01*
X127714214Y-74358458D01*
X127624417Y-74358500D01*
X127190500Y-74358500D01*
X127190500Y-74612500D01*
X127190084Y-74719720D01*
X127188059Y-74791625D01*
X127183254Y-74835229D01*
X127174501Y-74857548D01*
X127160629Y-74865597D01*
X127148167Y-74866500D01*
X127131415Y-74864301D01*
X127119781Y-74853369D01*
X127112335Y-74827198D01*
X127108150Y-74779282D01*
X127106294Y-74703115D01*
X127105838Y-74592192D01*
X127105833Y-74570166D01*
X127105833Y-74273833D01*
X127582083Y-74273833D01*
X127735757Y-74273968D01*
X127852242Y-74274680D01*
X127936685Y-74276424D01*
X127994230Y-74279659D01*
X128030022Y-74284842D01*
X128049206Y-74292431D01*
X128056928Y-74302881D01*
X128058333Y-74316166D01*
X128058333Y-74316166D01*
X128058333Y-74316166D01*
G37*
X128058333Y-74316166D02*
X128056699Y-74330392D01*
X128048204Y-74341014D01*
X128027459Y-74348557D01*
X127989076Y-74353548D01*
X127927667Y-74356511D01*
X127837842Y-74357972D01*
X127714214Y-74358458D01*
X127624417Y-74358500D01*
X127190500Y-74358500D01*
X127190500Y-74612500D01*
X127190084Y-74719720D01*
X127188059Y-74791625D01*
X127183254Y-74835229D01*
X127174501Y-74857548D01*
X127160629Y-74865597D01*
X127148167Y-74866500D01*
X127131415Y-74864301D01*
X127119781Y-74853369D01*
X127112335Y-74827198D01*
X127108150Y-74779282D01*
X127106294Y-74703115D01*
X127105838Y-74592192D01*
X127105833Y-74570166D01*
X127105833Y-74273833D01*
X127582083Y-74273833D01*
X127735757Y-74273968D01*
X127852242Y-74274680D01*
X127936685Y-74276424D01*
X127994230Y-74279659D01*
X128030022Y-74284842D01*
X128049206Y-74292431D01*
X128056928Y-74302881D01*
X128058333Y-74316166D01*
X128058333Y-74316166D01*
G36*
X128079557Y-73566139D02*
X127967738Y-73676569D01*
X127908919Y-73733155D01*
X127866043Y-73766104D01*
X127863823Y-73766957D01*
X127863823Y-73574556D01*
X127856768Y-73541407D01*
X127854525Y-73537722D01*
X127837511Y-73521158D01*
X127806016Y-73509772D01*
X127752402Y-73502312D01*
X127669034Y-73497525D01*
X127595701Y-73495265D01*
X127359833Y-73489280D01*
X127359833Y-73564056D01*
X127359833Y-73638833D01*
X127576792Y-73638160D01*
X127690282Y-73635689D01*
X127768339Y-73628547D01*
X127817687Y-73615893D01*
X127835616Y-73605840D01*
X127863823Y-73574556D01*
X127863823Y-73766957D01*
X127825210Y-73781805D01*
X127772522Y-73786647D01*
X127727544Y-73787000D01*
X127644591Y-73785384D01*
X127539123Y-73781096D01*
X127430814Y-73774977D01*
X127405418Y-73773247D01*
X127211667Y-73759494D01*
X127211667Y-73698612D01*
X127211667Y-73637730D01*
X126888875Y-73643573D01*
X126566083Y-73649416D01*
X126565366Y-73718263D01*
X126558679Y-73760565D01*
X126535610Y-73804928D01*
X126490260Y-73860492D01*
X126439029Y-73914054D01*
X126313408Y-74041000D01*
X126437904Y-74166808D01*
X126496034Y-74227106D01*
X126534473Y-74275462D01*
X126557421Y-74323394D01*
X126569080Y-74382418D01*
X126573652Y-74464052D01*
X126574903Y-74542367D01*
X126576667Y-74694484D01*
X126645458Y-74701117D01*
X126693131Y-74710662D01*
X126711629Y-74735366D01*
X126714250Y-74771250D01*
X126714250Y-74834750D01*
X126518458Y-74840835D01*
X126322667Y-74846921D01*
X126322667Y-74772044D01*
X126326111Y-74721922D01*
X126343671Y-74701224D01*
X126386167Y-74697166D01*
X126449667Y-74697166D01*
X126449667Y-74531793D01*
X126448474Y-74446664D01*
X126442734Y-74391704D01*
X126429202Y-74354765D01*
X126404634Y-74323704D01*
X126390300Y-74309543D01*
X126341749Y-74266972D01*
X126314808Y-74257629D01*
X126303440Y-74282684D01*
X126301500Y-74326750D01*
X126297931Y-74376541D01*
X126280009Y-74396962D01*
X126238927Y-74400833D01*
X126176354Y-74400833D01*
X126170135Y-74247375D01*
X126163917Y-74093916D01*
X125915208Y-74087953D01*
X125666500Y-74081989D01*
X125666500Y-74019161D01*
X125666500Y-73956333D01*
X125920500Y-73956333D01*
X126174500Y-73956333D01*
X126174500Y-73808166D01*
X126174500Y-73660000D01*
X126238000Y-73660000D01*
X126278717Y-73663343D01*
X126296817Y-73681461D01*
X126301400Y-73726486D01*
X126301500Y-73744666D01*
X126305974Y-73805136D01*
X126322124Y-73825759D01*
X126354036Y-73808337D01*
X126382477Y-73780344D01*
X126404154Y-73752640D01*
X126417784Y-73718889D01*
X126425169Y-73669139D01*
X126428114Y-73593438D01*
X126428500Y-73526344D01*
X126428500Y-73321333D01*
X126365000Y-73321333D01*
X126301500Y-73321333D01*
X126301500Y-72982666D01*
X126301500Y-72644000D01*
X126362644Y-72644000D01*
X126404896Y-72638317D01*
X126426657Y-72613006D01*
X126437968Y-72568414D01*
X126443930Y-72512692D01*
X126447556Y-72429535D01*
X126448305Y-72333801D01*
X126447755Y-72298539D01*
X126443361Y-72104250D01*
X126510014Y-72097617D01*
X126576667Y-72090984D01*
X126576667Y-72367492D01*
X126576667Y-72644000D01*
X126640167Y-72644000D01*
X126703667Y-72644000D01*
X126703667Y-72981325D01*
X126703667Y-73318651D01*
X126634875Y-73325283D01*
X126591314Y-73332924D01*
X126576667Y-73346912D01*
X126576667Y-73194333D01*
X126576667Y-72982666D01*
X126576667Y-72771000D01*
X126513167Y-72771000D01*
X126449667Y-72771000D01*
X126449667Y-72982666D01*
X126449667Y-73194333D01*
X126513167Y-73194333D01*
X126576667Y-73194333D01*
X126576667Y-73346912D01*
X126570145Y-73353141D01*
X126561438Y-73398668D01*
X126559574Y-73421875D01*
X126553066Y-73511833D01*
X126882366Y-73511833D01*
X127211667Y-73511833D01*
X127211667Y-73427166D01*
X127211667Y-73342500D01*
X127535181Y-73342500D01*
X127858696Y-73342500D01*
X127969127Y-73454319D01*
X128079557Y-73566139D01*
X128079557Y-73566139D01*
X128079557Y-73566139D01*
G37*
X128079557Y-73566139D02*
X127967738Y-73676569D01*
X127908919Y-73733155D01*
X127866043Y-73766104D01*
X127863823Y-73766957D01*
X127863823Y-73574556D01*
X127856768Y-73541407D01*
X127854525Y-73537722D01*
X127837511Y-73521158D01*
X127806016Y-73509772D01*
X127752402Y-73502312D01*
X127669034Y-73497525D01*
X127595701Y-73495265D01*
X127359833Y-73489280D01*
X127359833Y-73564056D01*
X127359833Y-73638833D01*
X127576792Y-73638160D01*
X127690282Y-73635689D01*
X127768339Y-73628547D01*
X127817687Y-73615893D01*
X127835616Y-73605840D01*
X127863823Y-73574556D01*
X127863823Y-73766957D01*
X127825210Y-73781805D01*
X127772522Y-73786647D01*
X127727544Y-73787000D01*
X127644591Y-73785384D01*
X127539123Y-73781096D01*
X127430814Y-73774977D01*
X127405418Y-73773247D01*
X127211667Y-73759494D01*
X127211667Y-73698612D01*
X127211667Y-73637730D01*
X126888875Y-73643573D01*
X126566083Y-73649416D01*
X126565366Y-73718263D01*
X126558679Y-73760565D01*
X126535610Y-73804928D01*
X126490260Y-73860492D01*
X126439029Y-73914054D01*
X126313408Y-74041000D01*
X126437904Y-74166808D01*
X126496034Y-74227106D01*
X126534473Y-74275462D01*
X126557421Y-74323394D01*
X126569080Y-74382418D01*
X126573652Y-74464052D01*
X126574903Y-74542367D01*
X126576667Y-74694484D01*
X126645458Y-74701117D01*
X126693131Y-74710662D01*
X126711629Y-74735366D01*
X126714250Y-74771250D01*
X126714250Y-74834750D01*
X126518458Y-74840835D01*
X126322667Y-74846921D01*
X126322667Y-74772044D01*
X126326111Y-74721922D01*
X126343671Y-74701224D01*
X126386167Y-74697166D01*
X126449667Y-74697166D01*
X126449667Y-74531793D01*
X126448474Y-74446664D01*
X126442734Y-74391704D01*
X126429202Y-74354765D01*
X126404634Y-74323704D01*
X126390300Y-74309543D01*
X126341749Y-74266972D01*
X126314808Y-74257629D01*
X126303440Y-74282684D01*
X126301500Y-74326750D01*
X126297931Y-74376541D01*
X126280009Y-74396962D01*
X126238927Y-74400833D01*
X126176354Y-74400833D01*
X126170135Y-74247375D01*
X126163917Y-74093916D01*
X125915208Y-74087953D01*
X125666500Y-74081989D01*
X125666500Y-74019161D01*
X125666500Y-73956333D01*
X125920500Y-73956333D01*
X126174500Y-73956333D01*
X126174500Y-73808166D01*
X126174500Y-73660000D01*
X126238000Y-73660000D01*
X126278717Y-73663343D01*
X126296817Y-73681461D01*
X126301400Y-73726486D01*
X126301500Y-73744666D01*
X126305974Y-73805136D01*
X126322124Y-73825759D01*
X126354036Y-73808337D01*
X126382477Y-73780344D01*
X126404154Y-73752640D01*
X126417784Y-73718889D01*
X126425169Y-73669139D01*
X126428114Y-73593438D01*
X126428500Y-73526344D01*
X126428500Y-73321333D01*
X126365000Y-73321333D01*
X126301500Y-73321333D01*
X126301500Y-72982666D01*
X126301500Y-72644000D01*
X126362644Y-72644000D01*
X126404896Y-72638317D01*
X126426657Y-72613006D01*
X126437968Y-72568414D01*
X126443930Y-72512692D01*
X126447556Y-72429535D01*
X126448305Y-72333801D01*
X126447755Y-72298539D01*
X126443361Y-72104250D01*
X126510014Y-72097617D01*
X126576667Y-72090984D01*
X126576667Y-72367492D01*
X126576667Y-72644000D01*
X126640167Y-72644000D01*
X126703667Y-72644000D01*
X126703667Y-72981325D01*
X126703667Y-73318651D01*
X126634875Y-73325283D01*
X126591314Y-73332924D01*
X126576667Y-73346912D01*
X126576667Y-73194333D01*
X126576667Y-72982666D01*
X126576667Y-72771000D01*
X126513167Y-72771000D01*
X126449667Y-72771000D01*
X126449667Y-72982666D01*
X126449667Y-73194333D01*
X126513167Y-73194333D01*
X126576667Y-73194333D01*
X126576667Y-73346912D01*
X126570145Y-73353141D01*
X126561438Y-73398668D01*
X126559574Y-73421875D01*
X126553066Y-73511833D01*
X126882366Y-73511833D01*
X127211667Y-73511833D01*
X127211667Y-73427166D01*
X127211667Y-73342500D01*
X127535181Y-73342500D01*
X127858696Y-73342500D01*
X127969127Y-73454319D01*
X128079557Y-73566139D01*
X128079557Y-73566139D01*
G36*
X128037167Y-74845333D02*
X127910167Y-74845333D01*
X127783167Y-74845333D01*
X127783167Y-74771250D01*
X127783167Y-74697166D01*
X127910167Y-74697166D01*
X128037167Y-74697166D01*
X128037167Y-74771250D01*
X128037167Y-74845333D01*
X128037167Y-74845333D01*
X128037167Y-74845333D01*
G37*
X128037167Y-74845333D02*
X127910167Y-74845333D01*
X127783167Y-74845333D01*
X127783167Y-74771250D01*
X127783167Y-74697166D01*
X127910167Y-74697166D01*
X128037167Y-74697166D01*
X128037167Y-74771250D01*
X128037167Y-74845333D01*
X128037167Y-74845333D01*
G36*
X127508000Y-74771250D02*
X127505587Y-74799695D01*
X127491974Y-74815539D01*
X127457595Y-74822460D01*
X127392887Y-74824136D01*
X127370417Y-74824166D01*
X127296458Y-74823238D01*
X127255263Y-74818002D01*
X127237270Y-74804780D01*
X127232913Y-74779892D01*
X127232833Y-74771250D01*
X127235246Y-74742804D01*
X127248859Y-74726960D01*
X127283238Y-74720039D01*
X127347946Y-74718363D01*
X127370417Y-74718333D01*
X127444375Y-74719261D01*
X127485570Y-74724497D01*
X127503563Y-74737719D01*
X127507920Y-74762607D01*
X127508000Y-74771250D01*
X127508000Y-74771250D01*
X127508000Y-74771250D01*
G37*
X127508000Y-74771250D02*
X127505587Y-74799695D01*
X127491974Y-74815539D01*
X127457595Y-74822460D01*
X127392887Y-74824136D01*
X127370417Y-74824166D01*
X127296458Y-74823238D01*
X127255263Y-74818002D01*
X127237270Y-74804780D01*
X127232913Y-74779892D01*
X127232833Y-74771250D01*
X127235246Y-74742804D01*
X127248859Y-74726960D01*
X127283238Y-74720039D01*
X127347946Y-74718363D01*
X127370417Y-74718333D01*
X127444375Y-74719261D01*
X127485570Y-74724497D01*
X127503563Y-74737719D01*
X127507920Y-74762607D01*
X127508000Y-74771250D01*
X127508000Y-74771250D01*
G36*
X127508000Y-74474916D02*
X127505311Y-74504243D01*
X127490617Y-74520077D01*
X127453977Y-74526559D01*
X127385451Y-74527832D01*
X127381000Y-74527833D01*
X127310615Y-74526712D01*
X127272614Y-74520590D01*
X127257057Y-74505323D01*
X127254003Y-74476771D01*
X127254000Y-74474916D01*
X127256689Y-74445589D01*
X127271383Y-74429755D01*
X127308023Y-74423273D01*
X127376548Y-74422001D01*
X127381000Y-74422000D01*
X127451385Y-74423120D01*
X127489386Y-74429242D01*
X127504943Y-74444509D01*
X127507997Y-74473061D01*
X127508000Y-74474916D01*
X127508000Y-74474916D01*
X127508000Y-74474916D01*
G37*
X127508000Y-74474916D02*
X127505311Y-74504243D01*
X127490617Y-74520077D01*
X127453977Y-74526559D01*
X127385451Y-74527832D01*
X127381000Y-74527833D01*
X127310615Y-74526712D01*
X127272614Y-74520590D01*
X127257057Y-74505323D01*
X127254003Y-74476771D01*
X127254000Y-74474916D01*
X127256689Y-74445589D01*
X127271383Y-74429755D01*
X127308023Y-74423273D01*
X127376548Y-74422001D01*
X127381000Y-74422000D01*
X127451385Y-74423120D01*
X127489386Y-74429242D01*
X127504943Y-74444509D01*
X127507997Y-74473061D01*
X127508000Y-74474916D01*
X127508000Y-74474916D01*
G36*
X128034609Y-74502684D02*
X128025411Y-74516676D01*
X127997942Y-74524192D01*
X127944393Y-74527242D01*
X127856955Y-74527832D01*
X127848139Y-74527833D01*
X127757543Y-74527438D01*
X127701165Y-74524738D01*
X127670889Y-74517462D01*
X127658599Y-74503337D01*
X127656180Y-74480092D01*
X127656167Y-74474092D01*
X127656167Y-74420351D01*
X127841375Y-74426467D01*
X127930448Y-74430141D01*
X127985728Y-74435570D01*
X128015749Y-74445143D01*
X128029047Y-74461250D01*
X128033347Y-74480208D01*
X128034609Y-74502684D01*
X128034609Y-74502684D01*
X128034609Y-74502684D01*
G37*
X128034609Y-74502684D02*
X128025411Y-74516676D01*
X127997942Y-74524192D01*
X127944393Y-74527242D01*
X127856955Y-74527832D01*
X127848139Y-74527833D01*
X127757543Y-74527438D01*
X127701165Y-74524738D01*
X127670889Y-74517462D01*
X127658599Y-74503337D01*
X127656180Y-74480092D01*
X127656167Y-74474092D01*
X127656167Y-74420351D01*
X127841375Y-74426467D01*
X127930448Y-74430141D01*
X127985728Y-74435570D01*
X128015749Y-74445143D01*
X128029047Y-74461250D01*
X128033347Y-74480208D01*
X128034609Y-74502684D01*
X128034609Y-74502684D01*
G36*
X180001333Y-73194333D02*
X180000735Y-73870648D01*
X179997983Y-74398093D01*
X179991641Y-74797129D01*
X179980273Y-75088217D01*
X179962444Y-75291820D01*
X179936717Y-75428398D01*
X179901657Y-75518412D01*
X179855828Y-75582326D01*
X179832000Y-75607333D01*
X179789667Y-75645018D01*
X179789667Y-75565000D01*
X179789667Y-73194333D01*
X179789667Y-70823666D01*
X175514000Y-70823666D01*
X171238333Y-70823666D01*
X171215746Y-73108404D01*
X171211247Y-73717419D01*
X171210041Y-74273277D01*
X171211947Y-74752765D01*
X171216782Y-75132672D01*
X171224363Y-75389786D01*
X171234508Y-75500894D01*
X171234557Y-75501022D01*
X171275580Y-75526070D01*
X171385622Y-75546747D01*
X171576587Y-75563292D01*
X171860376Y-75575943D01*
X172248891Y-75584936D01*
X172754036Y-75590511D01*
X173387712Y-75592905D01*
X174161823Y-75592357D01*
X175088269Y-75589103D01*
X175532810Y-75586951D01*
X179789667Y-75565000D01*
X179789667Y-75645018D01*
X179788807Y-75645784D01*
X179733153Y-75677928D01*
X179650549Y-75704330D01*
X179526506Y-75725554D01*
X179346535Y-75742165D01*
X179096146Y-75754726D01*
X178760849Y-75763802D01*
X178326157Y-75769958D01*
X177777578Y-75773757D01*
X177100625Y-75775765D01*
X176280807Y-75776546D01*
X175484789Y-75776666D01*
X174533932Y-75776378D01*
X173738062Y-75775172D01*
X173082836Y-75772532D01*
X172553907Y-75767946D01*
X172136932Y-75760897D01*
X171817564Y-75750872D01*
X171581459Y-75737357D01*
X171414273Y-75719837D01*
X171301659Y-75697798D01*
X171229274Y-75670725D01*
X171182772Y-75638104D01*
X171166789Y-75621833D01*
X171124512Y-75558349D01*
X171091559Y-75459356D01*
X171066805Y-75305196D01*
X171049128Y-75076211D01*
X171037402Y-74752746D01*
X171030504Y-74315142D01*
X171027310Y-73743742D01*
X171026667Y-73171300D01*
X171026983Y-72488826D01*
X171028958Y-71955819D01*
X171034132Y-71552414D01*
X171044046Y-71258747D01*
X171060237Y-71054951D01*
X171084248Y-70921161D01*
X171117617Y-70837512D01*
X171161885Y-70784138D01*
X171214839Y-70743800D01*
X171275381Y-70713276D01*
X171371756Y-70687765D01*
X171518177Y-70666833D01*
X171728859Y-70650046D01*
X172018017Y-70636970D01*
X172399864Y-70627172D01*
X172888616Y-70620217D01*
X173498487Y-70615672D01*
X174243690Y-70613103D01*
X175138442Y-70612076D01*
X175532839Y-70612000D01*
X176475810Y-70612196D01*
X177264028Y-70613167D01*
X177912073Y-70615488D01*
X178434525Y-70619733D01*
X178845965Y-70626476D01*
X179160972Y-70636291D01*
X179394126Y-70649753D01*
X179560008Y-70667436D01*
X179673198Y-70689915D01*
X179748276Y-70717762D01*
X179799823Y-70751554D01*
X179832000Y-70781333D01*
X179882997Y-70840258D01*
X179922597Y-70916324D01*
X179952234Y-71029992D01*
X179973345Y-71201724D01*
X179987366Y-71451981D01*
X179995732Y-71801224D01*
X179999879Y-72269916D01*
X180001244Y-72878517D01*
X180001333Y-73194333D01*
X180001333Y-73194333D01*
X180001333Y-73194333D01*
G37*
X180001333Y-73194333D02*
X180000735Y-73870648D01*
X179997983Y-74398093D01*
X179991641Y-74797129D01*
X179980273Y-75088217D01*
X179962444Y-75291820D01*
X179936717Y-75428398D01*
X179901657Y-75518412D01*
X179855828Y-75582326D01*
X179832000Y-75607333D01*
X179789667Y-75645018D01*
X179789667Y-75565000D01*
X179789667Y-73194333D01*
X179789667Y-70823666D01*
X175514000Y-70823666D01*
X171238333Y-70823666D01*
X171215746Y-73108404D01*
X171211247Y-73717419D01*
X171210041Y-74273277D01*
X171211947Y-74752765D01*
X171216782Y-75132672D01*
X171224363Y-75389786D01*
X171234508Y-75500894D01*
X171234557Y-75501022D01*
X171275580Y-75526070D01*
X171385622Y-75546747D01*
X171576587Y-75563292D01*
X171860376Y-75575943D01*
X172248891Y-75584936D01*
X172754036Y-75590511D01*
X173387712Y-75592905D01*
X174161823Y-75592357D01*
X175088269Y-75589103D01*
X175532810Y-75586951D01*
X179789667Y-75565000D01*
X179789667Y-75645018D01*
X179788807Y-75645784D01*
X179733153Y-75677928D01*
X179650549Y-75704330D01*
X179526506Y-75725554D01*
X179346535Y-75742165D01*
X179096146Y-75754726D01*
X178760849Y-75763802D01*
X178326157Y-75769958D01*
X177777578Y-75773757D01*
X177100625Y-75775765D01*
X176280807Y-75776546D01*
X175484789Y-75776666D01*
X174533932Y-75776378D01*
X173738062Y-75775172D01*
X173082836Y-75772532D01*
X172553907Y-75767946D01*
X172136932Y-75760897D01*
X171817564Y-75750872D01*
X171581459Y-75737357D01*
X171414273Y-75719837D01*
X171301659Y-75697798D01*
X171229274Y-75670725D01*
X171182772Y-75638104D01*
X171166789Y-75621833D01*
X171124512Y-75558349D01*
X171091559Y-75459356D01*
X171066805Y-75305196D01*
X171049128Y-75076211D01*
X171037402Y-74752746D01*
X171030504Y-74315142D01*
X171027310Y-73743742D01*
X171026667Y-73171300D01*
X171026983Y-72488826D01*
X171028958Y-71955819D01*
X171034132Y-71552414D01*
X171044046Y-71258747D01*
X171060237Y-71054951D01*
X171084248Y-70921161D01*
X171117617Y-70837512D01*
X171161885Y-70784138D01*
X171214839Y-70743800D01*
X171275381Y-70713276D01*
X171371756Y-70687765D01*
X171518177Y-70666833D01*
X171728859Y-70650046D01*
X172018017Y-70636970D01*
X172399864Y-70627172D01*
X172888616Y-70620217D01*
X173498487Y-70615672D01*
X174243690Y-70613103D01*
X175138442Y-70612076D01*
X175532839Y-70612000D01*
X176475810Y-70612196D01*
X177264028Y-70613167D01*
X177912073Y-70615488D01*
X178434525Y-70619733D01*
X178845965Y-70626476D01*
X179160972Y-70636291D01*
X179394126Y-70649753D01*
X179560008Y-70667436D01*
X179673198Y-70689915D01*
X179748276Y-70717762D01*
X179799823Y-70751554D01*
X179832000Y-70781333D01*
X179882997Y-70840258D01*
X179922597Y-70916324D01*
X179952234Y-71029992D01*
X179973345Y-71201724D01*
X179987366Y-71451981D01*
X179995732Y-71801224D01*
X179999879Y-72269916D01*
X180001244Y-72878517D01*
X180001333Y-73194333D01*
X180001333Y-73194333D01*
G36*
X175683333Y-74721775D02*
X175682358Y-74865093D01*
X175666319Y-74975251D01*
X175615542Y-75056606D01*
X175510354Y-75113519D01*
X175331082Y-75150349D01*
X175058052Y-75171454D01*
X174671593Y-75181194D01*
X174152031Y-75183928D01*
X173597284Y-75184000D01*
X172948842Y-75182372D01*
X172450986Y-75176757D01*
X172084991Y-75166057D01*
X171832135Y-75149174D01*
X171673693Y-75125011D01*
X171590943Y-75092470D01*
X171568377Y-75065059D01*
X171544286Y-74901515D01*
X171549137Y-74670743D01*
X171549868Y-74662893D01*
X171577000Y-74379666D01*
X173513710Y-74356883D01*
X174175790Y-74350616D01*
X174687780Y-74351461D01*
X175068876Y-74362647D01*
X175338277Y-74387403D01*
X175515181Y-74428957D01*
X175618785Y-74490538D01*
X175668287Y-74575375D01*
X175682885Y-74686697D01*
X175683333Y-74721775D01*
X175683333Y-74721775D01*
X175683333Y-74721775D01*
G37*
X175683333Y-74721775D02*
X175682358Y-74865093D01*
X175666319Y-74975251D01*
X175615542Y-75056606D01*
X175510354Y-75113519D01*
X175331082Y-75150349D01*
X175058052Y-75171454D01*
X174671593Y-75181194D01*
X174152031Y-75183928D01*
X173597284Y-75184000D01*
X172948842Y-75182372D01*
X172450986Y-75176757D01*
X172084991Y-75166057D01*
X171832135Y-75149174D01*
X171673693Y-75125011D01*
X171590943Y-75092470D01*
X171568377Y-75065059D01*
X171544286Y-74901515D01*
X171549137Y-74670743D01*
X171549868Y-74662893D01*
X171577000Y-74379666D01*
X173513710Y-74356883D01*
X174175790Y-74350616D01*
X174687780Y-74351461D01*
X175068876Y-74362647D01*
X175338277Y-74387403D01*
X175515181Y-74428957D01*
X175618785Y-74490538D01*
X175668287Y-74575375D01*
X175682885Y-74686697D01*
X175683333Y-74721775D01*
X175683333Y-74721775D01*
G36*
X176707668Y-73272363D02*
X176704669Y-73771662D01*
X176698541Y-74231850D01*
X176689312Y-74623151D01*
X176677005Y-74915794D01*
X176661647Y-75080005D01*
X176655157Y-75102315D01*
X176530335Y-75169821D01*
X176320727Y-75187325D01*
X176098974Y-75159877D01*
X175937718Y-75092532D01*
X175904058Y-75050075D01*
X175879742Y-74901654D01*
X175862343Y-74621809D01*
X175851475Y-74240532D01*
X175846753Y-73787815D01*
X175847793Y-73293650D01*
X175854209Y-72788028D01*
X175865618Y-72300942D01*
X175881634Y-71862382D01*
X175901873Y-71502342D01*
X175925949Y-71250812D01*
X175953478Y-71137785D01*
X175954267Y-71136933D01*
X176106465Y-71065307D01*
X176325553Y-71038040D01*
X176535119Y-71056695D01*
X176658557Y-71122519D01*
X176674858Y-71231251D01*
X176687879Y-71479511D01*
X176697645Y-71837526D01*
X176704182Y-72275521D01*
X176707514Y-72763725D01*
X176707668Y-73272363D01*
X176707668Y-73272363D01*
X176707668Y-73272363D01*
G37*
X176707668Y-73272363D02*
X176704669Y-73771662D01*
X176698541Y-74231850D01*
X176689312Y-74623151D01*
X176677005Y-74915794D01*
X176661647Y-75080005D01*
X176655157Y-75102315D01*
X176530335Y-75169821D01*
X176320727Y-75187325D01*
X176098974Y-75159877D01*
X175937718Y-75092532D01*
X175904058Y-75050075D01*
X175879742Y-74901654D01*
X175862343Y-74621809D01*
X175851475Y-74240532D01*
X175846753Y-73787815D01*
X175847793Y-73293650D01*
X175854209Y-72788028D01*
X175865618Y-72300942D01*
X175881634Y-71862382D01*
X175901873Y-71502342D01*
X175925949Y-71250812D01*
X175953478Y-71137785D01*
X175954267Y-71136933D01*
X176106465Y-71065307D01*
X176325553Y-71038040D01*
X176535119Y-71056695D01*
X176658557Y-71122519D01*
X176674858Y-71231251D01*
X176687879Y-71479511D01*
X176697645Y-71837526D01*
X176704182Y-72275521D01*
X176707514Y-72763725D01*
X176707668Y-73272363D01*
X176707668Y-73272363D01*
G36*
X178819389Y-72943549D02*
X178817391Y-73448811D01*
X178808913Y-73935229D01*
X178794065Y-74372386D01*
X178772955Y-74729866D01*
X178745693Y-74977256D01*
X178714400Y-75082400D01*
X178552356Y-75160924D01*
X178325750Y-75184997D01*
X178103751Y-75157491D01*
X177955525Y-75081280D01*
X177936058Y-75050075D01*
X177914118Y-74906847D01*
X177898222Y-74628565D01*
X177888077Y-74246413D01*
X177883388Y-73791580D01*
X177883862Y-73295252D01*
X177889206Y-72788615D01*
X177899126Y-72302855D01*
X177913329Y-71869159D01*
X177931520Y-71518714D01*
X177953406Y-71282707D01*
X177972312Y-71199100D01*
X178124192Y-71071852D01*
X178349527Y-71029245D01*
X178575111Y-71071278D01*
X178727735Y-71197952D01*
X178728354Y-71199100D01*
X178760395Y-71342356D01*
X178785410Y-71618845D01*
X178803508Y-71998150D01*
X178814797Y-72449856D01*
X178819389Y-72943549D01*
X178819389Y-72943549D01*
X178819389Y-72943549D01*
G37*
X178819389Y-72943549D02*
X178817391Y-73448811D01*
X178808913Y-73935229D01*
X178794065Y-74372386D01*
X178772955Y-74729866D01*
X178745693Y-74977256D01*
X178714400Y-75082400D01*
X178552356Y-75160924D01*
X178325750Y-75184997D01*
X178103751Y-75157491D01*
X177955525Y-75081280D01*
X177936058Y-75050075D01*
X177914118Y-74906847D01*
X177898222Y-74628565D01*
X177888077Y-74246413D01*
X177883388Y-73791580D01*
X177883862Y-73295252D01*
X177889206Y-72788615D01*
X177899126Y-72302855D01*
X177913329Y-71869159D01*
X177931520Y-71518714D01*
X177953406Y-71282707D01*
X177972312Y-71199100D01*
X178124192Y-71071852D01*
X178349527Y-71029245D01*
X178575111Y-71071278D01*
X178727735Y-71197952D01*
X178728354Y-71199100D01*
X178760395Y-71342356D01*
X178785410Y-71618845D01*
X178803508Y-71998150D01*
X178814797Y-72449856D01*
X178819389Y-72943549D01*
X178819389Y-72943549D01*
G36*
X175676789Y-73130043D02*
X175600615Y-73331943D01*
X175519566Y-73403021D01*
X175388713Y-73428844D01*
X175124243Y-73450240D01*
X174761824Y-73466839D01*
X174337121Y-73478269D01*
X173885804Y-73484158D01*
X173443540Y-73484135D01*
X173045995Y-73477829D01*
X172728838Y-73464869D01*
X172527735Y-73444882D01*
X172487167Y-73434593D01*
X172410235Y-73324081D01*
X172378757Y-73118554D01*
X172390434Y-72885457D01*
X172442967Y-72692236D01*
X172515258Y-72610725D01*
X172642180Y-72593370D01*
X172906663Y-72578519D01*
X173276940Y-72567247D01*
X173721247Y-72560629D01*
X174033210Y-72559333D01*
X174566690Y-72561897D01*
X174955952Y-72571055D01*
X175226056Y-72589004D01*
X175402061Y-72617941D01*
X175509025Y-72660066D01*
X175550286Y-72692380D01*
X175661033Y-72893237D01*
X175676789Y-73130043D01*
X175676789Y-73130043D01*
X175676789Y-73130043D01*
G37*
X175676789Y-73130043D02*
X175600615Y-73331943D01*
X175519566Y-73403021D01*
X175388713Y-73428844D01*
X175124243Y-73450240D01*
X174761824Y-73466839D01*
X174337121Y-73478269D01*
X173885804Y-73484158D01*
X173443540Y-73484135D01*
X173045995Y-73477829D01*
X172728838Y-73464869D01*
X172527735Y-73444882D01*
X172487167Y-73434593D01*
X172410235Y-73324081D01*
X172378757Y-73118554D01*
X172390434Y-72885457D01*
X172442967Y-72692236D01*
X172515258Y-72610725D01*
X172642180Y-72593370D01*
X172906663Y-72578519D01*
X173276940Y-72567247D01*
X173721247Y-72560629D01*
X174033210Y-72559333D01*
X174566690Y-72561897D01*
X174955952Y-72571055D01*
X175226056Y-72589004D01*
X175402061Y-72617941D01*
X175509025Y-72660066D01*
X175550286Y-72692380D01*
X175661033Y-72893237D01*
X175676789Y-73130043D01*
X175676789Y-73130043D01*
G36*
X177715333Y-72430002D02*
X177711621Y-72857379D01*
X177697958Y-73144098D01*
X177670553Y-73318720D01*
X177625618Y-73409808D01*
X177581408Y-73439274D01*
X177257921Y-73480897D01*
X177016833Y-73399218D01*
X176948938Y-73336455D01*
X176905145Y-73221716D01*
X176880519Y-73022762D01*
X176870127Y-72707354D01*
X176868667Y-72431105D01*
X176871492Y-72031956D01*
X176883960Y-71768590D01*
X176912062Y-71607496D01*
X176961788Y-71515162D01*
X177039128Y-71458078D01*
X177042966Y-71456009D01*
X177252999Y-71405053D01*
X177466299Y-71417424D01*
X177715333Y-71472121D01*
X177715333Y-72430002D01*
X177715333Y-72430002D01*
X177715333Y-72430002D01*
G37*
X177715333Y-72430002D02*
X177711621Y-72857379D01*
X177697958Y-73144098D01*
X177670553Y-73318720D01*
X177625618Y-73409808D01*
X177581408Y-73439274D01*
X177257921Y-73480897D01*
X177016833Y-73399218D01*
X176948938Y-73336455D01*
X176905145Y-73221716D01*
X176880519Y-73022762D01*
X176870127Y-72707354D01*
X176868667Y-72431105D01*
X176871492Y-72031956D01*
X176883960Y-71768590D01*
X176912062Y-71607496D01*
X176961788Y-71515162D01*
X177039128Y-71458078D01*
X177042966Y-71456009D01*
X177252999Y-71405053D01*
X177466299Y-71417424D01*
X177715333Y-71472121D01*
X177715333Y-72430002D01*
X177715333Y-72430002D01*
G36*
X174836667Y-71452100D02*
X174827984Y-71597558D01*
X174787523Y-71705949D01*
X174693666Y-71782698D01*
X174524793Y-71833231D01*
X174259285Y-71862973D01*
X173875524Y-71877351D01*
X173351891Y-71881790D01*
X173123743Y-71882000D01*
X172564157Y-71879614D01*
X172152688Y-71871380D01*
X171868170Y-71855677D01*
X171689440Y-71830889D01*
X171595333Y-71795395D01*
X171568377Y-71763059D01*
X171544286Y-71599515D01*
X171549137Y-71368743D01*
X171549868Y-71360893D01*
X171577000Y-71077666D01*
X173089921Y-71054505D01*
X173676450Y-71047966D01*
X174115068Y-71052026D01*
X174427099Y-71071539D01*
X174633868Y-71111358D01*
X174756699Y-71176338D01*
X174816917Y-71271332D01*
X174835846Y-71401194D01*
X174836667Y-71452100D01*
X174836667Y-71452100D01*
X174836667Y-71452100D01*
G37*
X174836667Y-71452100D02*
X174827984Y-71597558D01*
X174787523Y-71705949D01*
X174693666Y-71782698D01*
X174524793Y-71833231D01*
X174259285Y-71862973D01*
X173875524Y-71877351D01*
X173351891Y-71881790D01*
X173123743Y-71882000D01*
X172564157Y-71879614D01*
X172152688Y-71871380D01*
X171868170Y-71855677D01*
X171689440Y-71830889D01*
X171595333Y-71795395D01*
X171568377Y-71763059D01*
X171544286Y-71599515D01*
X171549137Y-71368743D01*
X171549868Y-71360893D01*
X171577000Y-71077666D01*
X173089921Y-71054505D01*
X173676450Y-71047966D01*
X174115068Y-71052026D01*
X174427099Y-71071539D01*
X174633868Y-71111358D01*
X174756699Y-71176338D01*
X174816917Y-71271332D01*
X174835846Y-71401194D01*
X174836667Y-71452100D01*
X174836667Y-71452100D01*
D11*
X169817143Y-84799714D02*
X169853429Y-84836000D01*
X169889714Y-84944857D01*
X169889714Y-85017428D01*
X169853429Y-85126285D01*
X169780857Y-85198857D01*
X169708286Y-85235142D01*
X169563143Y-85271428D01*
X169454286Y-85271428D01*
X169309143Y-85235142D01*
X169236571Y-85198857D01*
X169164000Y-85126285D01*
X169127714Y-85017428D01*
X169127714Y-84944857D01*
X169164000Y-84836000D01*
X169200286Y-84799714D01*
X169889714Y-84074000D02*
X169889714Y-84509428D01*
X169889714Y-84291714D02*
X169127714Y-84291714D01*
X169236571Y-84364285D01*
X169309143Y-84436857D01*
X169345429Y-84509428D01*
X169127714Y-83602286D02*
X169127714Y-83529714D01*
X169164000Y-83457143D01*
X169200286Y-83420857D01*
X169272857Y-83384571D01*
X169418000Y-83348286D01*
X169599429Y-83348286D01*
X169744571Y-83384571D01*
X169817143Y-83420857D01*
X169853429Y-83457143D01*
X169889714Y-83529714D01*
X169889714Y-83602286D01*
X169853429Y-83674857D01*
X169817143Y-83711143D01*
X169744571Y-83747428D01*
X169599429Y-83783714D01*
X169418000Y-83783714D01*
X169272857Y-83747428D01*
X169200286Y-83711143D01*
X169164000Y-83674857D01*
X169127714Y-83602286D01*
X169889714Y-82622572D02*
X169889714Y-83058000D01*
X169889714Y-82840286D02*
X169127714Y-82840286D01*
X169236571Y-82912857D01*
X169309143Y-82985429D01*
X169345429Y-83058000D01*
X159566430Y-94278714D02*
X159566430Y-93516714D01*
X160364715Y-94206143D02*
X160328429Y-94242429D01*
X160219572Y-94278714D01*
X160147001Y-94278714D01*
X160038144Y-94242429D01*
X159965572Y-94169857D01*
X159929287Y-94097286D01*
X159893001Y-93952143D01*
X159893001Y-93843286D01*
X159929287Y-93698143D01*
X159965572Y-93625571D01*
X160038144Y-93553000D01*
X160147001Y-93516714D01*
X160219572Y-93516714D01*
X160328429Y-93553000D01*
X160364715Y-93589286D01*
X161090429Y-94278714D02*
X160655001Y-94278714D01*
X160872715Y-94278714D02*
X160872715Y-93516714D01*
X160800144Y-93625571D01*
X160727572Y-93698143D01*
X160655001Y-93734429D01*
X161562143Y-93516714D02*
X161634715Y-93516714D01*
X161707286Y-93553000D01*
X161743572Y-93589286D01*
X161779858Y-93661857D01*
X161816143Y-93807000D01*
X161816143Y-93988429D01*
X161779858Y-94133571D01*
X161743572Y-94206143D01*
X161707286Y-94242429D01*
X161634715Y-94278714D01*
X161562143Y-94278714D01*
X161489572Y-94242429D01*
X161453286Y-94206143D01*
X161417001Y-94133571D01*
X161380715Y-93988429D01*
X161380715Y-93807000D01*
X161417001Y-93661857D01*
X161453286Y-93589286D01*
X161489572Y-93553000D01*
X161562143Y-93516714D01*
X162541857Y-94278714D02*
X162106429Y-94278714D01*
X162324143Y-94278714D02*
X162324143Y-93516714D01*
X162251572Y-93625571D01*
X162179000Y-93698143D01*
X162106429Y-93734429D01*
X126328715Y-86142286D02*
X126256143Y-86106000D01*
X126183572Y-86033429D01*
X126074715Y-85924571D01*
X126002143Y-85888286D01*
X125929572Y-85888286D01*
X125965857Y-86069714D02*
X125893286Y-86033429D01*
X125820715Y-85960857D01*
X125784429Y-85815714D01*
X125784429Y-85561714D01*
X125820715Y-85416571D01*
X125893286Y-85344000D01*
X125965857Y-85307714D01*
X126111000Y-85307714D01*
X126183572Y-85344000D01*
X126256143Y-85416571D01*
X126292429Y-85561714D01*
X126292429Y-85815714D01*
X126256143Y-85960857D01*
X126183572Y-86033429D01*
X126111000Y-86069714D01*
X125965857Y-86069714D01*
X126582715Y-85380286D02*
X126619001Y-85344000D01*
X126691572Y-85307714D01*
X126873001Y-85307714D01*
X126945572Y-85344000D01*
X126981858Y-85380286D01*
X127018143Y-85452857D01*
X127018143Y-85525429D01*
X126981858Y-85634286D01*
X126546429Y-86069714D01*
X127018143Y-86069714D01*
X127489857Y-85307714D02*
X127562429Y-85307714D01*
X127635000Y-85344000D01*
X127671286Y-85380286D01*
X127707572Y-85452857D01*
X127743857Y-85598000D01*
X127743857Y-85779429D01*
X127707572Y-85924571D01*
X127671286Y-85997143D01*
X127635000Y-86033429D01*
X127562429Y-86069714D01*
X127489857Y-86069714D01*
X127417286Y-86033429D01*
X127381000Y-85997143D01*
X127344715Y-85924571D01*
X127308429Y-85779429D01*
X127308429Y-85598000D01*
X127344715Y-85452857D01*
X127381000Y-85380286D01*
X127417286Y-85344000D01*
X127489857Y-85307714D01*
X128469571Y-86069714D02*
X128034143Y-86069714D01*
X128251857Y-86069714D02*
X128251857Y-85307714D01*
X128179286Y-85416571D01*
X128106714Y-85489143D01*
X128034143Y-85525429D01*
X128397001Y-82005714D02*
X128397001Y-82187143D01*
X128215572Y-82114571D02*
X128397001Y-82187143D01*
X128578429Y-82114571D01*
X128288144Y-82332286D02*
X128397001Y-82187143D01*
X128505858Y-82332286D01*
X126328715Y-91095286D02*
X126256143Y-91059000D01*
X126183572Y-90986429D01*
X126074715Y-90877571D01*
X126002143Y-90841286D01*
X125929572Y-90841286D01*
X125965857Y-91022714D02*
X125893286Y-90986429D01*
X125820715Y-90913857D01*
X125784429Y-90768714D01*
X125784429Y-90514714D01*
X125820715Y-90369571D01*
X125893286Y-90297000D01*
X125965857Y-90260714D01*
X126111000Y-90260714D01*
X126183572Y-90297000D01*
X126256143Y-90369571D01*
X126292429Y-90514714D01*
X126292429Y-90768714D01*
X126256143Y-90913857D01*
X126183572Y-90986429D01*
X126111000Y-91022714D01*
X125965857Y-91022714D01*
X126582715Y-90333286D02*
X126619001Y-90297000D01*
X126691572Y-90260714D01*
X126873001Y-90260714D01*
X126945572Y-90297000D01*
X126981858Y-90333286D01*
X127018143Y-90405857D01*
X127018143Y-90478429D01*
X126981858Y-90587286D01*
X126546429Y-91022714D01*
X127018143Y-91022714D01*
X127489857Y-90260714D02*
X127562429Y-90260714D01*
X127635000Y-90297000D01*
X127671286Y-90333286D01*
X127707572Y-90405857D01*
X127743857Y-90551000D01*
X127743857Y-90732429D01*
X127707572Y-90877571D01*
X127671286Y-90950143D01*
X127635000Y-90986429D01*
X127562429Y-91022714D01*
X127489857Y-91022714D01*
X127417286Y-90986429D01*
X127381000Y-90950143D01*
X127344715Y-90877571D01*
X127308429Y-90732429D01*
X127308429Y-90551000D01*
X127344715Y-90405857D01*
X127381000Y-90333286D01*
X127417286Y-90297000D01*
X127489857Y-90260714D01*
X128034143Y-90333286D02*
X128070429Y-90297000D01*
X128143000Y-90260714D01*
X128324429Y-90260714D01*
X128397000Y-90297000D01*
X128433286Y-90333286D01*
X128469571Y-90405857D01*
X128469571Y-90478429D01*
X128433286Y-90587286D01*
X127997857Y-91022714D01*
X128469571Y-91022714D01*
X128397001Y-86958714D02*
X128397001Y-87140143D01*
X128215572Y-87067571D02*
X128397001Y-87140143D01*
X128578429Y-87067571D01*
X128288144Y-87285286D02*
X128397001Y-87140143D01*
X128505858Y-87285286D01*
X125947715Y-96429286D02*
X125875143Y-96393000D01*
X125802572Y-96320429D01*
X125693715Y-96211571D01*
X125621143Y-96175286D01*
X125548572Y-96175286D01*
X125584857Y-96356714D02*
X125512286Y-96320429D01*
X125439715Y-96247857D01*
X125403429Y-96102714D01*
X125403429Y-95848714D01*
X125439715Y-95703571D01*
X125512286Y-95631000D01*
X125584857Y-95594714D01*
X125730000Y-95594714D01*
X125802572Y-95631000D01*
X125875143Y-95703571D01*
X125911429Y-95848714D01*
X125911429Y-96102714D01*
X125875143Y-96247857D01*
X125802572Y-96320429D01*
X125730000Y-96356714D01*
X125584857Y-96356714D01*
X126201715Y-95667286D02*
X126238001Y-95631000D01*
X126310572Y-95594714D01*
X126492001Y-95594714D01*
X126564572Y-95631000D01*
X126600858Y-95667286D01*
X126637143Y-95739857D01*
X126637143Y-95812429D01*
X126600858Y-95921286D01*
X126165429Y-96356714D01*
X126637143Y-96356714D01*
X127108857Y-95594714D02*
X127181429Y-95594714D01*
X127254000Y-95631000D01*
X127290286Y-95667286D01*
X127326572Y-95739857D01*
X127362857Y-95885000D01*
X127362857Y-96066429D01*
X127326572Y-96211571D01*
X127290286Y-96284143D01*
X127254000Y-96320429D01*
X127181429Y-96356714D01*
X127108857Y-96356714D01*
X127036286Y-96320429D01*
X127000000Y-96284143D01*
X126963715Y-96211571D01*
X126927429Y-96066429D01*
X126927429Y-95885000D01*
X126963715Y-95739857D01*
X127000000Y-95667286D01*
X127036286Y-95631000D01*
X127108857Y-95594714D01*
X127616857Y-95594714D02*
X128088571Y-95594714D01*
X127834571Y-95885000D01*
X127943429Y-95885000D01*
X128016000Y-95921286D01*
X128052286Y-95957571D01*
X128088571Y-96030143D01*
X128088571Y-96211571D01*
X128052286Y-96284143D01*
X128016000Y-96320429D01*
X127943429Y-96356714D01*
X127725714Y-96356714D01*
X127653143Y-96320429D01*
X127616857Y-96284143D01*
X128270001Y-92292714D02*
X128270001Y-92474143D01*
X128088572Y-92401571D02*
X128270001Y-92474143D01*
X128451429Y-92401571D01*
X128161144Y-92619286D02*
X128270001Y-92474143D01*
X128378858Y-92619286D01*
X167803286Y-90260714D02*
X167549286Y-89897857D01*
X167367858Y-90260714D02*
X167367858Y-89498714D01*
X167658143Y-89498714D01*
X167730715Y-89535000D01*
X167767000Y-89571286D01*
X167803286Y-89643857D01*
X167803286Y-89752714D01*
X167767000Y-89825286D01*
X167730715Y-89861571D01*
X167658143Y-89897857D01*
X167367858Y-89897857D01*
X168529000Y-90260714D02*
X168093572Y-90260714D01*
X168311286Y-90260714D02*
X168311286Y-89498714D01*
X168238715Y-89607571D01*
X168166143Y-89680143D01*
X168093572Y-89716429D01*
X169000714Y-89498714D02*
X169073286Y-89498714D01*
X169145857Y-89535000D01*
X169182143Y-89571286D01*
X169218429Y-89643857D01*
X169254714Y-89789000D01*
X169254714Y-89970429D01*
X169218429Y-90115571D01*
X169182143Y-90188143D01*
X169145857Y-90224429D01*
X169073286Y-90260714D01*
X169000714Y-90260714D01*
X168928143Y-90224429D01*
X168891857Y-90188143D01*
X168855572Y-90115571D01*
X168819286Y-89970429D01*
X168819286Y-89789000D01*
X168855572Y-89643857D01*
X168891857Y-89571286D01*
X168928143Y-89535000D01*
X169000714Y-89498714D01*
X169980428Y-90260714D02*
X169545000Y-90260714D01*
X169762714Y-90260714D02*
X169762714Y-89498714D01*
X169690143Y-89607571D01*
X169617571Y-89680143D01*
X169545000Y-89716429D01*
X156867714Y-58002714D02*
X156504857Y-58256714D01*
X156867714Y-58438142D02*
X156105714Y-58438142D01*
X156105714Y-58147857D01*
X156142000Y-58075285D01*
X156178286Y-58039000D01*
X156250857Y-58002714D01*
X156359714Y-58002714D01*
X156432286Y-58039000D01*
X156468571Y-58075285D01*
X156504857Y-58147857D01*
X156504857Y-58438142D01*
X156178286Y-57712428D02*
X156142000Y-57676142D01*
X156105714Y-57603571D01*
X156105714Y-57422142D01*
X156142000Y-57349571D01*
X156178286Y-57313285D01*
X156250857Y-57277000D01*
X156323429Y-57277000D01*
X156432286Y-57313285D01*
X156867714Y-57748714D01*
X156867714Y-57277000D01*
X156105714Y-56805286D02*
X156105714Y-56732714D01*
X156142000Y-56660143D01*
X156178286Y-56623857D01*
X156250857Y-56587571D01*
X156396000Y-56551286D01*
X156577429Y-56551286D01*
X156722571Y-56587571D01*
X156795143Y-56623857D01*
X156831429Y-56660143D01*
X156867714Y-56732714D01*
X156867714Y-56805286D01*
X156831429Y-56877857D01*
X156795143Y-56914143D01*
X156722571Y-56950428D01*
X156577429Y-56986714D01*
X156396000Y-56986714D01*
X156250857Y-56950428D01*
X156178286Y-56914143D01*
X156142000Y-56877857D01*
X156105714Y-56805286D01*
X156867714Y-55825572D02*
X156867714Y-56261000D01*
X156867714Y-56043286D02*
X156105714Y-56043286D01*
X156214571Y-56115857D01*
X156287143Y-56188429D01*
X156323429Y-56261000D01*
X156994714Y-52795714D02*
X156631857Y-53049714D01*
X156994714Y-53231142D02*
X156232714Y-53231142D01*
X156232714Y-52940857D01*
X156269000Y-52868285D01*
X156305286Y-52832000D01*
X156377857Y-52795714D01*
X156486714Y-52795714D01*
X156559286Y-52832000D01*
X156595571Y-52868285D01*
X156631857Y-52940857D01*
X156631857Y-53231142D01*
X156305286Y-52505428D02*
X156269000Y-52469142D01*
X156232714Y-52396571D01*
X156232714Y-52215142D01*
X156269000Y-52142571D01*
X156305286Y-52106285D01*
X156377857Y-52070000D01*
X156450429Y-52070000D01*
X156559286Y-52106285D01*
X156994714Y-52541714D01*
X156994714Y-52070000D01*
X156232714Y-51598286D02*
X156232714Y-51525714D01*
X156269000Y-51453143D01*
X156305286Y-51416857D01*
X156377857Y-51380571D01*
X156523000Y-51344286D01*
X156704429Y-51344286D01*
X156849571Y-51380571D01*
X156922143Y-51416857D01*
X156958429Y-51453143D01*
X156994714Y-51525714D01*
X156994714Y-51598286D01*
X156958429Y-51670857D01*
X156922143Y-51707143D01*
X156849571Y-51743428D01*
X156704429Y-51779714D01*
X156523000Y-51779714D01*
X156377857Y-51743428D01*
X156305286Y-51707143D01*
X156269000Y-51670857D01*
X156232714Y-51598286D01*
X156305286Y-51054000D02*
X156269000Y-51017714D01*
X156232714Y-50945143D01*
X156232714Y-50763714D01*
X156269000Y-50691143D01*
X156305286Y-50654857D01*
X156377857Y-50618572D01*
X156450429Y-50618572D01*
X156559286Y-50654857D01*
X156994714Y-51090286D01*
X156994714Y-50618572D01*
X132497286Y-80794714D02*
X132243286Y-80431857D01*
X132061858Y-80794714D02*
X132061858Y-80032714D01*
X132352143Y-80032714D01*
X132424715Y-80069000D01*
X132461000Y-80105286D01*
X132497286Y-80177857D01*
X132497286Y-80286714D01*
X132461000Y-80359286D01*
X132424715Y-80395571D01*
X132352143Y-80431857D01*
X132061858Y-80431857D01*
X132787572Y-80105286D02*
X132823858Y-80069000D01*
X132896429Y-80032714D01*
X133077858Y-80032714D01*
X133150429Y-80069000D01*
X133186715Y-80105286D01*
X133223000Y-80177857D01*
X133223000Y-80250429D01*
X133186715Y-80359286D01*
X132751286Y-80794714D01*
X133223000Y-80794714D01*
X133694714Y-80032714D02*
X133767286Y-80032714D01*
X133839857Y-80069000D01*
X133876143Y-80105286D01*
X133912429Y-80177857D01*
X133948714Y-80323000D01*
X133948714Y-80504429D01*
X133912429Y-80649571D01*
X133876143Y-80722143D01*
X133839857Y-80758429D01*
X133767286Y-80794714D01*
X133694714Y-80794714D01*
X133622143Y-80758429D01*
X133585857Y-80722143D01*
X133549572Y-80649571D01*
X133513286Y-80504429D01*
X133513286Y-80323000D01*
X133549572Y-80177857D01*
X133585857Y-80105286D01*
X133622143Y-80069000D01*
X133694714Y-80032714D01*
X134638143Y-80032714D02*
X134275286Y-80032714D01*
X134239000Y-80395571D01*
X134275286Y-80359286D01*
X134347857Y-80323000D01*
X134529286Y-80323000D01*
X134601857Y-80359286D01*
X134638143Y-80395571D01*
X134674428Y-80468143D01*
X134674428Y-80649571D01*
X134638143Y-80722143D01*
X134601857Y-80758429D01*
X134529286Y-80794714D01*
X134347857Y-80794714D01*
X134275286Y-80758429D01*
X134239000Y-80722143D01*
X136996714Y-85942714D02*
X136633857Y-86196714D01*
X136996714Y-86378142D02*
X136234714Y-86378142D01*
X136234714Y-86087857D01*
X136271000Y-86015285D01*
X136307286Y-85979000D01*
X136379857Y-85942714D01*
X136488714Y-85942714D01*
X136561286Y-85979000D01*
X136597571Y-86015285D01*
X136633857Y-86087857D01*
X136633857Y-86378142D01*
X136307286Y-85652428D02*
X136271000Y-85616142D01*
X136234714Y-85543571D01*
X136234714Y-85362142D01*
X136271000Y-85289571D01*
X136307286Y-85253285D01*
X136379857Y-85217000D01*
X136452429Y-85217000D01*
X136561286Y-85253285D01*
X136996714Y-85688714D01*
X136996714Y-85217000D01*
X136234714Y-84745286D02*
X136234714Y-84672714D01*
X136271000Y-84600143D01*
X136307286Y-84563857D01*
X136379857Y-84527571D01*
X136525000Y-84491286D01*
X136706429Y-84491286D01*
X136851571Y-84527571D01*
X136924143Y-84563857D01*
X136960429Y-84600143D01*
X136996714Y-84672714D01*
X136996714Y-84745286D01*
X136960429Y-84817857D01*
X136924143Y-84854143D01*
X136851571Y-84890428D01*
X136706429Y-84926714D01*
X136525000Y-84926714D01*
X136379857Y-84890428D01*
X136307286Y-84854143D01*
X136271000Y-84817857D01*
X136234714Y-84745286D01*
X136234714Y-83838143D02*
X136234714Y-83983286D01*
X136271000Y-84055857D01*
X136307286Y-84092143D01*
X136416143Y-84164714D01*
X136561286Y-84201000D01*
X136851571Y-84201000D01*
X136924143Y-84164714D01*
X136960429Y-84128429D01*
X136996714Y-84055857D01*
X136996714Y-83910714D01*
X136960429Y-83838143D01*
X136924143Y-83801857D01*
X136851571Y-83765572D01*
X136670143Y-83765572D01*
X136597571Y-83801857D01*
X136561286Y-83838143D01*
X136525000Y-83910714D01*
X136525000Y-84055857D01*
X136561286Y-84128429D01*
X136597571Y-84164714D01*
X136670143Y-84201000D01*
X130519714Y-88355714D02*
X130156857Y-88609714D01*
X130519714Y-88791142D02*
X129757714Y-88791142D01*
X129757714Y-88500857D01*
X129794000Y-88428285D01*
X129830286Y-88392000D01*
X129902857Y-88355714D01*
X130011714Y-88355714D01*
X130084286Y-88392000D01*
X130120571Y-88428285D01*
X130156857Y-88500857D01*
X130156857Y-88791142D01*
X129830286Y-88065428D02*
X129794000Y-88029142D01*
X129757714Y-87956571D01*
X129757714Y-87775142D01*
X129794000Y-87702571D01*
X129830286Y-87666285D01*
X129902857Y-87630000D01*
X129975429Y-87630000D01*
X130084286Y-87666285D01*
X130519714Y-88101714D01*
X130519714Y-87630000D01*
X129757714Y-87158286D02*
X129757714Y-87085714D01*
X129794000Y-87013143D01*
X129830286Y-86976857D01*
X129902857Y-86940571D01*
X130048000Y-86904286D01*
X130229429Y-86904286D01*
X130374571Y-86940571D01*
X130447143Y-86976857D01*
X130483429Y-87013143D01*
X130519714Y-87085714D01*
X130519714Y-87158286D01*
X130483429Y-87230857D01*
X130447143Y-87267143D01*
X130374571Y-87303428D01*
X130229429Y-87339714D01*
X130048000Y-87339714D01*
X129902857Y-87303428D01*
X129830286Y-87267143D01*
X129794000Y-87230857D01*
X129757714Y-87158286D01*
X129757714Y-86650286D02*
X129757714Y-86142286D01*
X130519714Y-86468857D01*
X136742714Y-91149714D02*
X136379857Y-91403714D01*
X136742714Y-91585142D02*
X135980714Y-91585142D01*
X135980714Y-91294857D01*
X136017000Y-91222285D01*
X136053286Y-91186000D01*
X136125857Y-91149714D01*
X136234714Y-91149714D01*
X136307286Y-91186000D01*
X136343571Y-91222285D01*
X136379857Y-91294857D01*
X136379857Y-91585142D01*
X136053286Y-90859428D02*
X136017000Y-90823142D01*
X135980714Y-90750571D01*
X135980714Y-90569142D01*
X136017000Y-90496571D01*
X136053286Y-90460285D01*
X136125857Y-90424000D01*
X136198429Y-90424000D01*
X136307286Y-90460285D01*
X136742714Y-90895714D01*
X136742714Y-90424000D01*
X135980714Y-89952286D02*
X135980714Y-89879714D01*
X136017000Y-89807143D01*
X136053286Y-89770857D01*
X136125857Y-89734571D01*
X136271000Y-89698286D01*
X136452429Y-89698286D01*
X136597571Y-89734571D01*
X136670143Y-89770857D01*
X136706429Y-89807143D01*
X136742714Y-89879714D01*
X136742714Y-89952286D01*
X136706429Y-90024857D01*
X136670143Y-90061143D01*
X136597571Y-90097428D01*
X136452429Y-90133714D01*
X136271000Y-90133714D01*
X136125857Y-90097428D01*
X136053286Y-90061143D01*
X136017000Y-90024857D01*
X135980714Y-89952286D01*
X136307286Y-89262857D02*
X136271000Y-89335429D01*
X136234714Y-89371714D01*
X136162143Y-89408000D01*
X136125857Y-89408000D01*
X136053286Y-89371714D01*
X136017000Y-89335429D01*
X135980714Y-89262857D01*
X135980714Y-89117714D01*
X136017000Y-89045143D01*
X136053286Y-89008857D01*
X136125857Y-88972572D01*
X136162143Y-88972572D01*
X136234714Y-89008857D01*
X136271000Y-89045143D01*
X136307286Y-89117714D01*
X136307286Y-89262857D01*
X136343571Y-89335429D01*
X136379857Y-89371714D01*
X136452429Y-89408000D01*
X136597571Y-89408000D01*
X136670143Y-89371714D01*
X136706429Y-89335429D01*
X136742714Y-89262857D01*
X136742714Y-89117714D01*
X136706429Y-89045143D01*
X136670143Y-89008857D01*
X136597571Y-88972572D01*
X136452429Y-88972572D01*
X136379857Y-89008857D01*
X136343571Y-89045143D01*
X136307286Y-89117714D01*
X136688286Y-96610714D02*
X136434286Y-96247857D01*
X136252858Y-96610714D02*
X136252858Y-95848714D01*
X136543143Y-95848714D01*
X136615715Y-95885000D01*
X136652000Y-95921286D01*
X136688286Y-95993857D01*
X136688286Y-96102714D01*
X136652000Y-96175286D01*
X136615715Y-96211571D01*
X136543143Y-96247857D01*
X136252858Y-96247857D01*
X136978572Y-95921286D02*
X137014858Y-95885000D01*
X137087429Y-95848714D01*
X137268858Y-95848714D01*
X137341429Y-95885000D01*
X137377715Y-95921286D01*
X137414000Y-95993857D01*
X137414000Y-96066429D01*
X137377715Y-96175286D01*
X136942286Y-96610714D01*
X137414000Y-96610714D01*
X137885714Y-95848714D02*
X137958286Y-95848714D01*
X138030857Y-95885000D01*
X138067143Y-95921286D01*
X138103429Y-95993857D01*
X138139714Y-96139000D01*
X138139714Y-96320429D01*
X138103429Y-96465571D01*
X138067143Y-96538143D01*
X138030857Y-96574429D01*
X137958286Y-96610714D01*
X137885714Y-96610714D01*
X137813143Y-96574429D01*
X137776857Y-96538143D01*
X137740572Y-96465571D01*
X137704286Y-96320429D01*
X137704286Y-96139000D01*
X137740572Y-95993857D01*
X137776857Y-95921286D01*
X137813143Y-95885000D01*
X137885714Y-95848714D01*
X138502571Y-96610714D02*
X138647714Y-96610714D01*
X138720286Y-96574429D01*
X138756571Y-96538143D01*
X138829143Y-96429286D01*
X138865428Y-96284143D01*
X138865428Y-95993857D01*
X138829143Y-95921286D01*
X138792857Y-95885000D01*
X138720286Y-95848714D01*
X138575143Y-95848714D01*
X138502571Y-95885000D01*
X138466286Y-95921286D01*
X138430000Y-95993857D01*
X138430000Y-96175286D01*
X138466286Y-96247857D01*
X138502571Y-96284143D01*
X138575143Y-96320429D01*
X138720286Y-96320429D01*
X138792857Y-96284143D01*
X138829143Y-96247857D01*
X138865428Y-96175286D01*
X129703286Y-96991714D02*
X129449286Y-96628857D01*
X129267858Y-96991714D02*
X129267858Y-96229714D01*
X129558143Y-96229714D01*
X129630715Y-96266000D01*
X129667000Y-96302286D01*
X129703286Y-96374857D01*
X129703286Y-96483714D01*
X129667000Y-96556286D01*
X129630715Y-96592571D01*
X129558143Y-96628857D01*
X129267858Y-96628857D01*
X129993572Y-96302286D02*
X130029858Y-96266000D01*
X130102429Y-96229714D01*
X130283858Y-96229714D01*
X130356429Y-96266000D01*
X130392715Y-96302286D01*
X130429000Y-96374857D01*
X130429000Y-96447429D01*
X130392715Y-96556286D01*
X129957286Y-96991714D01*
X130429000Y-96991714D01*
X131154714Y-96991714D02*
X130719286Y-96991714D01*
X130937000Y-96991714D02*
X130937000Y-96229714D01*
X130864429Y-96338571D01*
X130791857Y-96411143D01*
X130719286Y-96447429D01*
X131626428Y-96229714D02*
X131699000Y-96229714D01*
X131771571Y-96266000D01*
X131807857Y-96302286D01*
X131844143Y-96374857D01*
X131880428Y-96520000D01*
X131880428Y-96701429D01*
X131844143Y-96846571D01*
X131807857Y-96919143D01*
X131771571Y-96955429D01*
X131699000Y-96991714D01*
X131626428Y-96991714D01*
X131553857Y-96955429D01*
X131517571Y-96919143D01*
X131481286Y-96846571D01*
X131445000Y-96701429D01*
X131445000Y-96520000D01*
X131481286Y-96374857D01*
X131517571Y-96302286D01*
X131553857Y-96266000D01*
X131626428Y-96229714D01*
X192695286Y-84037714D02*
X192441286Y-83674857D01*
X192259858Y-84037714D02*
X192259858Y-83275714D01*
X192550143Y-83275714D01*
X192622715Y-83312000D01*
X192659000Y-83348286D01*
X192695286Y-83420857D01*
X192695286Y-83529714D01*
X192659000Y-83602286D01*
X192622715Y-83638571D01*
X192550143Y-83674857D01*
X192259858Y-83674857D01*
X192985572Y-83348286D02*
X193021858Y-83312000D01*
X193094429Y-83275714D01*
X193275858Y-83275714D01*
X193348429Y-83312000D01*
X193384715Y-83348286D01*
X193421000Y-83420857D01*
X193421000Y-83493429D01*
X193384715Y-83602286D01*
X192949286Y-84037714D01*
X193421000Y-84037714D01*
X194146714Y-84037714D02*
X193711286Y-84037714D01*
X193929000Y-84037714D02*
X193929000Y-83275714D01*
X193856429Y-83384571D01*
X193783857Y-83457143D01*
X193711286Y-83493429D01*
X194872428Y-84037714D02*
X194437000Y-84037714D01*
X194654714Y-84037714D02*
X194654714Y-83275714D01*
X194582143Y-83384571D01*
X194509571Y-83457143D01*
X194437000Y-83493429D01*
X194346286Y-87847714D02*
X194092286Y-87484857D01*
X193910858Y-87847714D02*
X193910858Y-87085714D01*
X194201143Y-87085714D01*
X194273715Y-87122000D01*
X194310000Y-87158286D01*
X194346286Y-87230857D01*
X194346286Y-87339714D01*
X194310000Y-87412286D01*
X194273715Y-87448571D01*
X194201143Y-87484857D01*
X193910858Y-87484857D01*
X194636572Y-87158286D02*
X194672858Y-87122000D01*
X194745429Y-87085714D01*
X194926858Y-87085714D01*
X194999429Y-87122000D01*
X195035715Y-87158286D01*
X195072000Y-87230857D01*
X195072000Y-87303429D01*
X195035715Y-87412286D01*
X194600286Y-87847714D01*
X195072000Y-87847714D01*
X195797714Y-87847714D02*
X195362286Y-87847714D01*
X195580000Y-87847714D02*
X195580000Y-87085714D01*
X195507429Y-87194571D01*
X195434857Y-87267143D01*
X195362286Y-87303429D01*
X196088000Y-87158286D02*
X196124286Y-87122000D01*
X196196857Y-87085714D01*
X196378286Y-87085714D01*
X196450857Y-87122000D01*
X196487143Y-87158286D01*
X196523428Y-87230857D01*
X196523428Y-87303429D01*
X196487143Y-87412286D01*
X196051714Y-87847714D01*
X196523428Y-87847714D01*
X192314286Y-88863714D02*
X192060286Y-88500857D01*
X191878858Y-88863714D02*
X191878858Y-88101714D01*
X192169143Y-88101714D01*
X192241715Y-88138000D01*
X192278000Y-88174286D01*
X192314286Y-88246857D01*
X192314286Y-88355714D01*
X192278000Y-88428286D01*
X192241715Y-88464571D01*
X192169143Y-88500857D01*
X191878858Y-88500857D01*
X192604572Y-88174286D02*
X192640858Y-88138000D01*
X192713429Y-88101714D01*
X192894858Y-88101714D01*
X192967429Y-88138000D01*
X193003715Y-88174286D01*
X193040000Y-88246857D01*
X193040000Y-88319429D01*
X193003715Y-88428286D01*
X192568286Y-88863714D01*
X193040000Y-88863714D01*
X193765714Y-88863714D02*
X193330286Y-88863714D01*
X193548000Y-88863714D02*
X193548000Y-88101714D01*
X193475429Y-88210571D01*
X193402857Y-88283143D01*
X193330286Y-88319429D01*
X194019714Y-88101714D02*
X194491428Y-88101714D01*
X194237428Y-88392000D01*
X194346286Y-88392000D01*
X194418857Y-88428286D01*
X194455143Y-88464571D01*
X194491428Y-88537143D01*
X194491428Y-88718571D01*
X194455143Y-88791143D01*
X194418857Y-88827429D01*
X194346286Y-88863714D01*
X194128571Y-88863714D01*
X194056000Y-88827429D01*
X194019714Y-88791143D01*
X190282286Y-92419714D02*
X190028286Y-92056857D01*
X189846858Y-92419714D02*
X189846858Y-91657714D01*
X190137143Y-91657714D01*
X190209715Y-91694000D01*
X190246000Y-91730286D01*
X190282286Y-91802857D01*
X190282286Y-91911714D01*
X190246000Y-91984286D01*
X190209715Y-92020571D01*
X190137143Y-92056857D01*
X189846858Y-92056857D01*
X190572572Y-91730286D02*
X190608858Y-91694000D01*
X190681429Y-91657714D01*
X190862858Y-91657714D01*
X190935429Y-91694000D01*
X190971715Y-91730286D01*
X191008000Y-91802857D01*
X191008000Y-91875429D01*
X190971715Y-91984286D01*
X190536286Y-92419714D01*
X191008000Y-92419714D01*
X191733714Y-92419714D02*
X191298286Y-92419714D01*
X191516000Y-92419714D02*
X191516000Y-91657714D01*
X191443429Y-91766571D01*
X191370857Y-91839143D01*
X191298286Y-91875429D01*
X192386857Y-91911714D02*
X192386857Y-92419714D01*
X192205428Y-91621429D02*
X192024000Y-92165714D01*
X192495714Y-92165714D01*
X185202286Y-95789714D02*
X184948286Y-95426857D01*
X184766858Y-95789714D02*
X184766858Y-95027714D01*
X185057143Y-95027714D01*
X185129715Y-95064000D01*
X185166000Y-95100286D01*
X185202286Y-95172857D01*
X185202286Y-95281714D01*
X185166000Y-95354286D01*
X185129715Y-95390571D01*
X185057143Y-95426857D01*
X184766858Y-95426857D01*
X185492572Y-95100286D02*
X185528858Y-95064000D01*
X185601429Y-95027714D01*
X185782858Y-95027714D01*
X185855429Y-95064000D01*
X185891715Y-95100286D01*
X185928000Y-95172857D01*
X185928000Y-95245429D01*
X185891715Y-95354286D01*
X185456286Y-95789714D01*
X185928000Y-95789714D01*
X186653714Y-95789714D02*
X186218286Y-95789714D01*
X186436000Y-95789714D02*
X186436000Y-95027714D01*
X186363429Y-95136571D01*
X186290857Y-95209143D01*
X186218286Y-95245429D01*
X187343143Y-95027714D02*
X186980286Y-95027714D01*
X186944000Y-95390571D01*
X186980286Y-95354286D01*
X187052857Y-95318000D01*
X187234286Y-95318000D01*
X187306857Y-95354286D01*
X187343143Y-95390571D01*
X187379428Y-95463143D01*
X187379428Y-95644571D01*
X187343143Y-95717143D01*
X187306857Y-95753429D01*
X187234286Y-95789714D01*
X187052857Y-95789714D01*
X186980286Y-95753429D01*
X186944000Y-95717143D01*
X188123286Y-79465714D02*
X187869286Y-79102857D01*
X187687858Y-79465714D02*
X187687858Y-78703714D01*
X187978143Y-78703714D01*
X188050715Y-78740000D01*
X188087000Y-78776286D01*
X188123286Y-78848857D01*
X188123286Y-78957714D01*
X188087000Y-79030286D01*
X188050715Y-79066571D01*
X187978143Y-79102857D01*
X187687858Y-79102857D01*
X188413572Y-78776286D02*
X188449858Y-78740000D01*
X188522429Y-78703714D01*
X188703858Y-78703714D01*
X188776429Y-78740000D01*
X188812715Y-78776286D01*
X188849000Y-78848857D01*
X188849000Y-78921429D01*
X188812715Y-79030286D01*
X188377286Y-79465714D01*
X188849000Y-79465714D01*
X189574714Y-79465714D02*
X189139286Y-79465714D01*
X189357000Y-79465714D02*
X189357000Y-78703714D01*
X189284429Y-78812571D01*
X189211857Y-78885143D01*
X189139286Y-78921429D01*
X190227857Y-78703714D02*
X190082714Y-78703714D01*
X190010143Y-78740000D01*
X189973857Y-78776286D01*
X189901286Y-78885143D01*
X189865000Y-79030286D01*
X189865000Y-79320571D01*
X189901286Y-79393143D01*
X189937571Y-79429429D01*
X190010143Y-79465714D01*
X190155286Y-79465714D01*
X190227857Y-79429429D01*
X190264143Y-79393143D01*
X190300428Y-79320571D01*
X190300428Y-79139143D01*
X190264143Y-79066571D01*
X190227857Y-79030286D01*
X190155286Y-78994000D01*
X190010143Y-78994000D01*
X189937571Y-79030286D01*
X189901286Y-79066571D01*
X189865000Y-79139143D01*
X193838286Y-79338714D02*
X193584286Y-78975857D01*
X193402858Y-79338714D02*
X193402858Y-78576714D01*
X193693143Y-78576714D01*
X193765715Y-78613000D01*
X193802000Y-78649286D01*
X193838286Y-78721857D01*
X193838286Y-78830714D01*
X193802000Y-78903286D01*
X193765715Y-78939571D01*
X193693143Y-78975857D01*
X193402858Y-78975857D01*
X194128572Y-78649286D02*
X194164858Y-78613000D01*
X194237429Y-78576714D01*
X194418858Y-78576714D01*
X194491429Y-78613000D01*
X194527715Y-78649286D01*
X194564000Y-78721857D01*
X194564000Y-78794429D01*
X194527715Y-78903286D01*
X194092286Y-79338714D01*
X194564000Y-79338714D01*
X195289714Y-79338714D02*
X194854286Y-79338714D01*
X195072000Y-79338714D02*
X195072000Y-78576714D01*
X194999429Y-78685571D01*
X194926857Y-78758143D01*
X194854286Y-78794429D01*
X195543714Y-78576714D02*
X196051714Y-78576714D01*
X195725143Y-79338714D01*
X141695715Y-80354714D02*
X141695715Y-80971571D01*
X141732000Y-81044143D01*
X141768286Y-81080429D01*
X141840857Y-81116714D01*
X141986000Y-81116714D01*
X142058572Y-81080429D01*
X142094857Y-81044143D01*
X142131143Y-80971571D01*
X142131143Y-80354714D01*
X142457715Y-80427286D02*
X142494001Y-80391000D01*
X142566572Y-80354714D01*
X142748001Y-80354714D01*
X142820572Y-80391000D01*
X142856858Y-80427286D01*
X142893143Y-80499857D01*
X142893143Y-80572429D01*
X142856858Y-80681286D01*
X142421429Y-81116714D01*
X142893143Y-81116714D01*
X143364857Y-80354714D02*
X143437429Y-80354714D01*
X143510000Y-80391000D01*
X143546286Y-80427286D01*
X143582572Y-80499857D01*
X143618857Y-80645000D01*
X143618857Y-80826429D01*
X143582572Y-80971571D01*
X143546286Y-81044143D01*
X143510000Y-81080429D01*
X143437429Y-81116714D01*
X143364857Y-81116714D01*
X143292286Y-81080429D01*
X143256000Y-81044143D01*
X143219715Y-80971571D01*
X143183429Y-80826429D01*
X143183429Y-80645000D01*
X143219715Y-80499857D01*
X143256000Y-80427286D01*
X143292286Y-80391000D01*
X143364857Y-80354714D01*
X144344571Y-81116714D02*
X143909143Y-81116714D01*
X144126857Y-81116714D02*
X144126857Y-80354714D01*
X144054286Y-80463571D01*
X143981714Y-80536143D01*
X143909143Y-80572429D01*
X176493715Y-91022714D02*
X176493715Y-91639571D01*
X176530000Y-91712143D01*
X176566286Y-91748429D01*
X176638857Y-91784714D01*
X176784000Y-91784714D01*
X176856572Y-91748429D01*
X176892857Y-91712143D01*
X176929143Y-91639571D01*
X176929143Y-91022714D01*
X177255715Y-91095286D02*
X177292001Y-91059000D01*
X177364572Y-91022714D01*
X177546001Y-91022714D01*
X177618572Y-91059000D01*
X177654858Y-91095286D01*
X177691143Y-91167857D01*
X177691143Y-91240429D01*
X177654858Y-91349286D01*
X177219429Y-91784714D01*
X177691143Y-91784714D01*
X178162857Y-91022714D02*
X178235429Y-91022714D01*
X178308000Y-91059000D01*
X178344286Y-91095286D01*
X178380572Y-91167857D01*
X178416857Y-91313000D01*
X178416857Y-91494429D01*
X178380572Y-91639571D01*
X178344286Y-91712143D01*
X178308000Y-91748429D01*
X178235429Y-91784714D01*
X178162857Y-91784714D01*
X178090286Y-91748429D01*
X178054000Y-91712143D01*
X178017715Y-91639571D01*
X177981429Y-91494429D01*
X177981429Y-91313000D01*
X178017715Y-91167857D01*
X178054000Y-91095286D01*
X178090286Y-91059000D01*
X178162857Y-91022714D01*
X178707143Y-91095286D02*
X178743429Y-91059000D01*
X178816000Y-91022714D01*
X178997429Y-91022714D01*
X179070000Y-91059000D01*
X179106286Y-91095286D01*
X179142571Y-91167857D01*
X179142571Y-91240429D01*
X179106286Y-91349286D01*
X178670857Y-91784714D01*
X179142571Y-91784714D01*
X145777858Y-97118714D02*
X145777858Y-96356714D01*
X146068143Y-96356714D01*
X146140715Y-96393000D01*
X146177000Y-96429286D01*
X146213286Y-96501857D01*
X146213286Y-96610714D01*
X146177000Y-96683286D01*
X146140715Y-96719571D01*
X146068143Y-96755857D01*
X145777858Y-96755857D01*
X146939000Y-97118714D02*
X146503572Y-97118714D01*
X146721286Y-97118714D02*
X146721286Y-96356714D01*
X146648715Y-96465571D01*
X146576143Y-96538143D01*
X146503572Y-96574429D01*
X147410714Y-96356714D02*
X147483286Y-96356714D01*
X147555857Y-96393000D01*
X147592143Y-96429286D01*
X147628429Y-96501857D01*
X147664714Y-96647000D01*
X147664714Y-96828429D01*
X147628429Y-96973571D01*
X147592143Y-97046143D01*
X147555857Y-97082429D01*
X147483286Y-97118714D01*
X147410714Y-97118714D01*
X147338143Y-97082429D01*
X147301857Y-97046143D01*
X147265572Y-96973571D01*
X147229286Y-96828429D01*
X147229286Y-96647000D01*
X147265572Y-96501857D01*
X147301857Y-96429286D01*
X147338143Y-96393000D01*
X147410714Y-96356714D01*
X148390428Y-97118714D02*
X147955000Y-97118714D01*
X148172714Y-97118714D02*
X148172714Y-96356714D01*
X148100143Y-96465571D01*
X148027571Y-96538143D01*
X147955000Y-96574429D01*
X165335858Y-96864714D02*
X165335858Y-96102714D01*
X165626143Y-96102714D01*
X165698715Y-96139000D01*
X165735000Y-96175286D01*
X165771286Y-96247857D01*
X165771286Y-96356714D01*
X165735000Y-96429286D01*
X165698715Y-96465571D01*
X165626143Y-96501857D01*
X165335858Y-96501857D01*
X166497000Y-96864714D02*
X166061572Y-96864714D01*
X166279286Y-96864714D02*
X166279286Y-96102714D01*
X166206715Y-96211571D01*
X166134143Y-96284143D01*
X166061572Y-96320429D01*
X166968714Y-96102714D02*
X167041286Y-96102714D01*
X167113857Y-96139000D01*
X167150143Y-96175286D01*
X167186429Y-96247857D01*
X167222714Y-96393000D01*
X167222714Y-96574429D01*
X167186429Y-96719571D01*
X167150143Y-96792143D01*
X167113857Y-96828429D01*
X167041286Y-96864714D01*
X166968714Y-96864714D01*
X166896143Y-96828429D01*
X166859857Y-96792143D01*
X166823572Y-96719571D01*
X166787286Y-96574429D01*
X166787286Y-96393000D01*
X166823572Y-96247857D01*
X166859857Y-96175286D01*
X166896143Y-96139000D01*
X166968714Y-96102714D01*
X167513000Y-96175286D02*
X167549286Y-96139000D01*
X167621857Y-96102714D01*
X167803286Y-96102714D01*
X167875857Y-96139000D01*
X167912143Y-96175286D01*
X167948428Y-96247857D01*
X167948428Y-96320429D01*
X167912143Y-96429286D01*
X167476714Y-96864714D01*
X167948428Y-96864714D01*
X122264714Y-75202142D02*
X121502714Y-75202142D01*
X121502714Y-74911857D01*
X121539000Y-74839285D01*
X121575286Y-74803000D01*
X121647857Y-74766714D01*
X121756714Y-74766714D01*
X121829286Y-74803000D01*
X121865571Y-74839285D01*
X121901857Y-74911857D01*
X121901857Y-75202142D01*
X121575286Y-74476428D02*
X121539000Y-74440142D01*
X121502714Y-74367571D01*
X121502714Y-74186142D01*
X121539000Y-74113571D01*
X121575286Y-74077285D01*
X121647857Y-74041000D01*
X121720429Y-74041000D01*
X121829286Y-74077285D01*
X122264714Y-74512714D01*
X122264714Y-74041000D01*
X121502714Y-73569286D02*
X121502714Y-73496714D01*
X121539000Y-73424143D01*
X121575286Y-73387857D01*
X121647857Y-73351571D01*
X121793000Y-73315286D01*
X121974429Y-73315286D01*
X122119571Y-73351571D01*
X122192143Y-73387857D01*
X122228429Y-73424143D01*
X122264714Y-73496714D01*
X122264714Y-73569286D01*
X122228429Y-73641857D01*
X122192143Y-73678143D01*
X122119571Y-73714428D01*
X121974429Y-73750714D01*
X121793000Y-73750714D01*
X121647857Y-73714428D01*
X121575286Y-73678143D01*
X121539000Y-73641857D01*
X121502714Y-73569286D01*
X122264714Y-72589572D02*
X122264714Y-73025000D01*
X122264714Y-72807286D02*
X121502714Y-72807286D01*
X121611571Y-72879857D01*
X121684143Y-72952429D01*
X121720429Y-73025000D01*
X199607714Y-75329142D02*
X198845714Y-75329142D01*
X198845714Y-75038857D01*
X198882000Y-74966285D01*
X198918286Y-74930000D01*
X198990857Y-74893714D01*
X199099714Y-74893714D01*
X199172286Y-74930000D01*
X199208571Y-74966285D01*
X199244857Y-75038857D01*
X199244857Y-75329142D01*
X198918286Y-74603428D02*
X198882000Y-74567142D01*
X198845714Y-74494571D01*
X198845714Y-74313142D01*
X198882000Y-74240571D01*
X198918286Y-74204285D01*
X198990857Y-74168000D01*
X199063429Y-74168000D01*
X199172286Y-74204285D01*
X199607714Y-74639714D01*
X199607714Y-74168000D01*
X198845714Y-73696286D02*
X198845714Y-73623714D01*
X198882000Y-73551143D01*
X198918286Y-73514857D01*
X198990857Y-73478571D01*
X199136000Y-73442286D01*
X199317429Y-73442286D01*
X199462571Y-73478571D01*
X199535143Y-73514857D01*
X199571429Y-73551143D01*
X199607714Y-73623714D01*
X199607714Y-73696286D01*
X199571429Y-73768857D01*
X199535143Y-73805143D01*
X199462571Y-73841428D01*
X199317429Y-73877714D01*
X199136000Y-73877714D01*
X198990857Y-73841428D01*
X198918286Y-73805143D01*
X198882000Y-73768857D01*
X198845714Y-73696286D01*
X198918286Y-73152000D02*
X198882000Y-73115714D01*
X198845714Y-73043143D01*
X198845714Y-72861714D01*
X198882000Y-72789143D01*
X198918286Y-72752857D01*
X198990857Y-72716572D01*
X199063429Y-72716572D01*
X199172286Y-72752857D01*
X199607714Y-73188286D01*
X199607714Y-72716572D01*
%LPC*%
D13*
X190500000Y-63500000D03*
D14*
X187960000Y-63500000D03*
X185420000Y-63500000D03*
X182880000Y-63500000D03*
X180340000Y-63500000D03*
X180340000Y-48260000D03*
X182880000Y-48260000D03*
X185420000Y-48260000D03*
X187960000Y-48260000D03*
X190500000Y-48260000D03*
D13*
X175260000Y-63500000D03*
D14*
X172720000Y-63500000D03*
X170180000Y-63500000D03*
X167640000Y-63500000D03*
X165100000Y-63500000D03*
X165100000Y-48260000D03*
X167640000Y-48260000D03*
X170180000Y-48260000D03*
X172720000Y-48260000D03*
X175260000Y-48260000D03*
D13*
X152400000Y-63500000D03*
D14*
X149860000Y-63500000D03*
X147320000Y-63500000D03*
X144780000Y-63500000D03*
X142240000Y-63500000D03*
X142240000Y-48260000D03*
X144780000Y-48260000D03*
X147320000Y-48260000D03*
X149860000Y-48260000D03*
X152400000Y-48260000D03*
D13*
X137160000Y-63500000D03*
D14*
X134620000Y-63500000D03*
X132080000Y-63500000D03*
X129540000Y-63500000D03*
X127000000Y-63500000D03*
X127000000Y-48260000D03*
X129540000Y-48260000D03*
X132080000Y-48260000D03*
X134620000Y-48260000D03*
X137160000Y-48260000D03*
D15*
X167640000Y-85197000D03*
X167640000Y-82697000D03*
D16*
X165286000Y-90684000D03*
X165286000Y-89884000D03*
X165286000Y-89084000D03*
X165286000Y-88284000D03*
X165286000Y-87484000D03*
X165286000Y-86684000D03*
X165286000Y-85884000D03*
X165286000Y-85084000D03*
D17*
X163836000Y-83634000D03*
X163036000Y-83634000D03*
X162236000Y-83634000D03*
X161436000Y-83634000D03*
X160636000Y-83634000D03*
X159836000Y-83634000D03*
X159036000Y-83634000D03*
X158236000Y-83634000D03*
D16*
X156786000Y-85084000D03*
X156786000Y-85884000D03*
X156786000Y-86684000D03*
X156786000Y-87484000D03*
X156786000Y-88284000D03*
X156786000Y-89084000D03*
X156786000Y-89884000D03*
X156786000Y-90684000D03*
D17*
X158236000Y-92134000D03*
X159036000Y-92134000D03*
X159836000Y-92134000D03*
X160636000Y-92134000D03*
X161436000Y-92134000D03*
X162236000Y-92134000D03*
X163036000Y-92134000D03*
X163836000Y-92134000D03*
D18*
X119380000Y-82550000D03*
D19*
X119380000Y-85090000D03*
X119380000Y-87630000D03*
X119380000Y-90170000D03*
X119380000Y-92710000D03*
X119380000Y-95250000D03*
D18*
X201930000Y-80010000D03*
D19*
X201930000Y-82550000D03*
X201930000Y-85090000D03*
X201930000Y-87630000D03*
X201930000Y-90170000D03*
X201930000Y-92710000D03*
X201930000Y-95250000D03*
D20*
X127000000Y-82855500D03*
X127000000Y-84530500D03*
X127650000Y-84530500D03*
X126350000Y-84530500D03*
X126350000Y-82855500D03*
X127650000Y-82855500D03*
X127000000Y-87808500D03*
X127000000Y-89483500D03*
X127650000Y-89483500D03*
X126350000Y-89483500D03*
X126350000Y-87808500D03*
X127650000Y-87808500D03*
X126873000Y-93142500D03*
X126873000Y-94817500D03*
X127523000Y-94817500D03*
X126223000Y-94817500D03*
X126223000Y-93142500D03*
X127523000Y-93142500D03*
D21*
X170260000Y-91440000D03*
X167560000Y-91440000D03*
D22*
X158623000Y-58500000D03*
X158623000Y-55800000D03*
X158750000Y-53293000D03*
X158750000Y-50593000D03*
D21*
X132000000Y-82550000D03*
X134700000Y-82550000D03*
X132000000Y-85090000D03*
X134700000Y-85090000D03*
X132000000Y-87630000D03*
X134700000Y-87630000D03*
X132000000Y-90170000D03*
X134700000Y-90170000D03*
X136191000Y-94615000D03*
X138891000Y-94615000D03*
D22*
X133223000Y-95965000D03*
X133223000Y-93265000D03*
D21*
X190707000Y-84201000D03*
X188007000Y-84201000D03*
X196295000Y-85725000D03*
X193595000Y-85725000D03*
X190580000Y-87757000D03*
X187880000Y-87757000D03*
X190580000Y-90170000D03*
X187880000Y-90170000D03*
X187405000Y-93345000D03*
X184705000Y-93345000D03*
X190453000Y-80772000D03*
X187753000Y-80772000D03*
X196168000Y-80772000D03*
X193468000Y-80772000D03*
D23*
X147447000Y-82552000D03*
X146177000Y-82552000D03*
X144907000Y-82552000D03*
X143637000Y-82552000D03*
X142367000Y-82550000D03*
D24*
X141097000Y-82552000D03*
D23*
X139827000Y-82552000D03*
X138557000Y-82552000D03*
X138557000Y-89152000D03*
X139827000Y-89152000D03*
X141097000Y-89152000D03*
X142367000Y-89152000D03*
X143637000Y-89152000D03*
X144907000Y-89152000D03*
X146177000Y-89152000D03*
X147447000Y-89152000D03*
X173228000Y-89279000D03*
X174498000Y-89279000D03*
X175768000Y-89279000D03*
X177038000Y-89279000D03*
X178308000Y-89281000D03*
D24*
X179578000Y-89279000D03*
D23*
X180848000Y-89279000D03*
X182118000Y-89279000D03*
X182118000Y-82679000D03*
X180848000Y-82679000D03*
X179578000Y-82679000D03*
X178308000Y-82679000D03*
X177038000Y-82679000D03*
X175768000Y-82679000D03*
X174498000Y-82679000D03*
X173228000Y-82679000D03*
D25*
X150368000Y-90805000D03*
D26*
X152908000Y-90805000D03*
X150368000Y-93345000D03*
X152908000Y-93345000D03*
X150368000Y-95885000D03*
X152908000Y-95885000D03*
D27*
X170180000Y-95250000D03*
D28*
X172720000Y-95250000D03*
X175260000Y-95250000D03*
X177800000Y-95250000D03*
X180340000Y-95250000D03*
D18*
X119380000Y-60960000D03*
D19*
X119380000Y-63500000D03*
X119380000Y-66040000D03*
X119380000Y-68580000D03*
X119380000Y-71120000D03*
X119380000Y-73660000D03*
D18*
X201930000Y-58420000D03*
D19*
X201930000Y-60960000D03*
X201930000Y-63500000D03*
X201930000Y-66040000D03*
X201930000Y-68580000D03*
X201930000Y-71120000D03*
X201930000Y-73660000D03*
M02*
