G04 #@! TF.FileFunction,Paste,Top*
%FSLAX46Y46*%
G04 Gerber Fmt 4.6, Leading zero omitted, Abs format (unit mm)*
G04 Created by KiCad (PCBNEW 0.201506222247+5806~23~ubuntu14.04.1-product) date Sat 27 Jun 2015 15:51:07 CEST*
%MOMM*%
G01*
G04 APERTURE LIST*
%ADD10C,0.100000*%
%ADD11R,1.250000X1.500000*%
%ADD12R,1.600000X0.550000*%
%ADD13R,0.550000X1.600000*%
%ADD14R,0.300000X0.525000*%
%ADD15R,1.500000X1.300000*%
%ADD16R,1.300000X1.500000*%
%ADD17R,0.600000X1.600000*%
%ADD18R,0.600000X1.500000*%
G04 APERTURE END LIST*
D10*
D11*
X167640000Y-85197000D03*
X167640000Y-82697000D03*
D12*
X165286000Y-90684000D03*
X165286000Y-89884000D03*
X165286000Y-89084000D03*
X165286000Y-88284000D03*
X165286000Y-87484000D03*
X165286000Y-86684000D03*
X165286000Y-85884000D03*
X165286000Y-85084000D03*
D13*
X163836000Y-83634000D03*
X163036000Y-83634000D03*
X162236000Y-83634000D03*
X161436000Y-83634000D03*
X160636000Y-83634000D03*
X159836000Y-83634000D03*
X159036000Y-83634000D03*
X158236000Y-83634000D03*
D12*
X156786000Y-85084000D03*
X156786000Y-85884000D03*
X156786000Y-86684000D03*
X156786000Y-87484000D03*
X156786000Y-88284000D03*
X156786000Y-89084000D03*
X156786000Y-89884000D03*
X156786000Y-90684000D03*
D13*
X158236000Y-92134000D03*
X159036000Y-92134000D03*
X159836000Y-92134000D03*
X160636000Y-92134000D03*
X161436000Y-92134000D03*
X162236000Y-92134000D03*
X163036000Y-92134000D03*
X163836000Y-92134000D03*
D14*
X127000000Y-82855500D03*
X127000000Y-84530500D03*
X127650000Y-84530500D03*
X126350000Y-84530500D03*
X126350000Y-82855500D03*
X127650000Y-82855500D03*
X127000000Y-87808500D03*
X127000000Y-89483500D03*
X127650000Y-89483500D03*
X126350000Y-89483500D03*
X126350000Y-87808500D03*
X127650000Y-87808500D03*
X126873000Y-93142500D03*
X126873000Y-94817500D03*
X127523000Y-94817500D03*
X126223000Y-94817500D03*
X126223000Y-93142500D03*
X127523000Y-93142500D03*
D15*
X170260000Y-91440000D03*
X167560000Y-91440000D03*
D16*
X158623000Y-58500000D03*
X158623000Y-55800000D03*
X158750000Y-53293000D03*
X158750000Y-50593000D03*
D15*
X132000000Y-82550000D03*
X134700000Y-82550000D03*
X132000000Y-85090000D03*
X134700000Y-85090000D03*
X132000000Y-87630000D03*
X134700000Y-87630000D03*
X132000000Y-90170000D03*
X134700000Y-90170000D03*
X136191000Y-94615000D03*
X138891000Y-94615000D03*
D16*
X133223000Y-95965000D03*
X133223000Y-93265000D03*
D15*
X190707000Y-84201000D03*
X188007000Y-84201000D03*
X196295000Y-85725000D03*
X193595000Y-85725000D03*
X190580000Y-87757000D03*
X187880000Y-87757000D03*
X190580000Y-90170000D03*
X187880000Y-90170000D03*
X187405000Y-93345000D03*
X184705000Y-93345000D03*
X190453000Y-80772000D03*
X187753000Y-80772000D03*
X196168000Y-80772000D03*
X193468000Y-80772000D03*
D17*
X147447000Y-82552000D03*
X146177000Y-82552000D03*
X144907000Y-82552000D03*
X143637000Y-82552000D03*
X142367000Y-82550000D03*
D18*
X141097000Y-82552000D03*
D17*
X139827000Y-82552000D03*
X138557000Y-82552000D03*
X138557000Y-89152000D03*
X139827000Y-89152000D03*
X141097000Y-89152000D03*
X142367000Y-89152000D03*
X143637000Y-89152000D03*
X144907000Y-89152000D03*
X146177000Y-89152000D03*
X147447000Y-89152000D03*
X173228000Y-89279000D03*
X174498000Y-89279000D03*
X175768000Y-89279000D03*
X177038000Y-89279000D03*
X178308000Y-89281000D03*
D18*
X179578000Y-89279000D03*
D17*
X180848000Y-89279000D03*
X182118000Y-89279000D03*
X182118000Y-82679000D03*
X180848000Y-82679000D03*
X179578000Y-82679000D03*
X178308000Y-82679000D03*
X177038000Y-82679000D03*
X175768000Y-82679000D03*
X174498000Y-82679000D03*
X173228000Y-82679000D03*
M02*
